<?xml version="1.0" encoding="utf-8" standalone="no"?>
<!DOCTYPE svg PUBLIC "-//W3C//DTD SVG 1.1//EN"
  "http://www.w3.org/Graphics/SVG/1.1/DTD/svg11.dtd">
<svg xmlns:xlink="http://www.w3.org/1999/xlink" width="612pt" height="288pt" viewBox="0 0 612 288" xmlns="http://www.w3.org/2000/svg" version="1.1">
 <metadata>
  <rdf:RDF xmlns:dc="http://purl.org/dc/elements/1.1/" xmlns:cc="http://creativecommons.org/ns#" xmlns:rdf="http://www.w3.org/1999/02/22-rdf-syntax-ns#">
   <cc:Work>
    <dc:type rdf:resource="http://purl.org/dc/dcmitype/StillImage"/>
    <dc:date>2022-11-04T14:34:11.399613</dc:date>
    <dc:format>image/svg+xml</dc:format>
    <dc:creator>
     <cc:Agent>
      <dc:title>Matplotlib v3.5.1, https://matplotlib.org/</dc:title>
     </cc:Agent>
    </dc:creator>
   </cc:Work>
  </rdf:RDF>
 </metadata>
 <defs>
  <style type="text/css">*{stroke-linejoin: round; stroke-linecap: butt}</style>
 </defs>
 <g id="figure_1">
  <g id="patch_1">
   <path d="M 0 288 
L 612 288 
L 612 0 
L 0 0 
z
" style="fill: #ffffff"/>
  </g>
  <g id="axes_1">
   <g id="patch_2">
    <path d="M 76.5 256.32 
L 550.8 256.32 
L 550.8 34.56 
L 76.5 34.56 
z
" style="fill: #ffffff"/>
   </g>
   <g id="matplotlib.axis_1">
    <g id="xtick_1">
     <g id="line2d_1">
      <path d="M 98.059091 256.32 
L 98.059091 34.56 
" clip-path="url(#p3859c1e94f)" style="fill: none; stroke: #b0b0b0; stroke-width: 0.8; stroke-linecap: square"/>
     </g>
     <g id="line2d_2">
      <defs>
       <path id="m9c5fdf95c1" d="M 0 0 
L 0 -3.5 
" style="stroke: #000000; stroke-width: 0.8"/>
      </defs>
      <g>
       <use xlink:href="#m9c5fdf95c1" x="98.059091" y="256.32" style="stroke: #000000; stroke-width: 0.8"/>
      </g>
     </g>
     <g id="text_1">
      <!-- 2019-10-16 -->
      <g transform="translate(74.729403 266.76375)scale(0.1 -0.1)">
       <defs>
        <path id="TimesNewRomanPSMT-32" d="M 2934 816 
L 2638 0 
L 138 0 
L 138 116 
Q 1241 1122 1691 1759 
Q 2141 2397 2141 2925 
Q 2141 3328 1894 3587 
Q 1647 3847 1303 3847 
Q 991 3847 742 3664 
Q 494 3481 375 3128 
L 259 3128 
Q 338 3706 661 4015 
Q 984 4325 1469 4325 
Q 1984 4325 2329 3994 
Q 2675 3663 2675 3213 
Q 2675 2891 2525 2569 
Q 2294 2063 1775 1497 
Q 997 647 803 472 
L 1909 472 
Q 2247 472 2383 497 
Q 2519 522 2628 598 
Q 2738 675 2819 816 
L 2934 816 
z
" transform="scale(0.015625)"/>
        <path id="TimesNewRomanPSMT-30" d="M 231 2094 
Q 231 2819 450 3342 
Q 669 3866 1031 4122 
Q 1313 4325 1613 4325 
Q 2100 4325 2488 3828 
Q 2972 3213 2972 2159 
Q 2972 1422 2759 906 
Q 2547 391 2217 158 
Q 1888 -75 1581 -75 
Q 975 -75 572 641 
Q 231 1244 231 2094 
z
M 844 2016 
Q 844 1141 1059 588 
Q 1238 122 1591 122 
Q 1759 122 1940 273 
Q 2122 425 2216 781 
Q 2359 1319 2359 2297 
Q 2359 3022 2209 3506 
Q 2097 3866 1919 4016 
Q 1791 4119 1609 4119 
Q 1397 4119 1231 3928 
Q 1006 3669 925 3112 
Q 844 2556 844 2016 
z
" transform="scale(0.015625)"/>
        <path id="TimesNewRomanPSMT-31" d="M 750 3822 
L 1781 4325 
L 1884 4325 
L 1884 747 
Q 1884 391 1914 303 
Q 1944 216 2037 169 
Q 2131 122 2419 116 
L 2419 0 
L 825 0 
L 825 116 
Q 1125 122 1212 167 
Q 1300 213 1334 289 
Q 1369 366 1369 747 
L 1369 3034 
Q 1369 3497 1338 3628 
Q 1316 3728 1258 3775 
Q 1200 3822 1119 3822 
Q 1003 3822 797 3725 
L 750 3822 
z
" transform="scale(0.015625)"/>
        <path id="TimesNewRomanPSMT-39" d="M 338 -88 
L 338 28 
Q 744 34 1094 217 
Q 1444 400 1770 856 
Q 2097 1313 2225 1859 
Q 1734 1544 1338 1544 
Q 891 1544 572 1889 
Q 253 2234 253 2806 
Q 253 3363 572 3797 
Q 956 4325 1575 4325 
Q 2097 4325 2469 3894 
Q 2925 3359 2925 2575 
Q 2925 1869 2578 1258 
Q 2231 647 1613 244 
Q 1109 -88 516 -88 
L 338 -88 
z
M 2275 2091 
Q 2331 2497 2331 2741 
Q 2331 3044 2228 3395 
Q 2125 3747 1936 3934 
Q 1747 4122 1506 4122 
Q 1228 4122 1018 3872 
Q 809 3622 809 3128 
Q 809 2469 1088 2097 
Q 1291 1828 1588 1828 
Q 1731 1828 1928 1897 
Q 2125 1966 2275 2091 
z
" transform="scale(0.015625)"/>
        <path id="TimesNewRomanPSMT-2d" d="M 259 1672 
L 1875 1672 
L 1875 1200 
L 259 1200 
L 259 1672 
z
" transform="scale(0.015625)"/>
        <path id="TimesNewRomanPSMT-36" d="M 2869 4325 
L 2869 4209 
Q 2456 4169 2195 4045 
Q 1934 3922 1679 3669 
Q 1425 3416 1258 3105 
Q 1091 2794 978 2366 
Q 1428 2675 1881 2675 
Q 2316 2675 2634 2325 
Q 2953 1975 2953 1425 
Q 2953 894 2631 456 
Q 2244 -75 1606 -75 
Q 1172 -75 869 213 
Q 275 772 275 1663 
Q 275 2231 503 2743 
Q 731 3256 1154 3653 
Q 1578 4050 1965 4187 
Q 2353 4325 2688 4325 
L 2869 4325 
z
M 925 2138 
Q 869 1716 869 1456 
Q 869 1156 980 804 
Q 1091 453 1309 247 
Q 1469 100 1697 100 
Q 1969 100 2183 356 
Q 2397 613 2397 1088 
Q 2397 1622 2184 2012 
Q 1972 2403 1581 2403 
Q 1463 2403 1327 2353 
Q 1191 2303 925 2138 
z
" transform="scale(0.015625)"/>
       </defs>
       <use xlink:href="#TimesNewRomanPSMT-32"/>
       <use xlink:href="#TimesNewRomanPSMT-30" x="50"/>
       <use xlink:href="#TimesNewRomanPSMT-31" x="100"/>
       <use xlink:href="#TimesNewRomanPSMT-39" x="150"/>
       <use xlink:href="#TimesNewRomanPSMT-2d" x="200"/>
       <use xlink:href="#TimesNewRomanPSMT-31" x="233.300781"/>
       <use xlink:href="#TimesNewRomanPSMT-30" x="283.300781"/>
       <use xlink:href="#TimesNewRomanPSMT-2d" x="333.300781"/>
       <use xlink:href="#TimesNewRomanPSMT-31" x="366.601562"/>
       <use xlink:href="#TimesNewRomanPSMT-36" x="416.601562"/>
      </g>
     </g>
    </g>
    <g id="xtick_2">
     <g id="line2d_3">
      <path d="M 155.007633 256.32 
L 155.007633 34.56 
" clip-path="url(#p3859c1e94f)" style="fill: none; stroke: #b0b0b0; stroke-width: 0.8; stroke-linecap: square"/>
     </g>
     <g id="line2d_4">
      <g>
       <use xlink:href="#m9c5fdf95c1" x="155.007633" y="256.32" style="stroke: #000000; stroke-width: 0.8"/>
      </g>
     </g>
     <g id="text_2">
      <!-- 2020-01-23 -->
      <g transform="translate(131.677945 266.76375)scale(0.1 -0.1)">
       <defs>
        <path id="TimesNewRomanPSMT-33" d="M 325 3431 
Q 506 3859 782 4092 
Q 1059 4325 1472 4325 
Q 1981 4325 2253 3994 
Q 2459 3747 2459 3466 
Q 2459 3003 1878 2509 
Q 2269 2356 2469 2072 
Q 2669 1788 2669 1403 
Q 2669 853 2319 450 
Q 1863 -75 997 -75 
Q 569 -75 414 31 
Q 259 138 259 259 
Q 259 350 332 419 
Q 406 488 509 488 
Q 588 488 669 463 
Q 722 447 909 348 
Q 1097 250 1169 231 
Q 1284 197 1416 197 
Q 1734 197 1970 444 
Q 2206 691 2206 1028 
Q 2206 1275 2097 1509 
Q 2016 1684 1919 1775 
Q 1784 1900 1550 2001 
Q 1316 2103 1072 2103 
L 972 2103 
L 972 2197 
Q 1219 2228 1467 2375 
Q 1716 2522 1828 2728 
Q 1941 2934 1941 3181 
Q 1941 3503 1739 3701 
Q 1538 3900 1238 3900 
Q 753 3900 428 3381 
L 325 3431 
z
" transform="scale(0.015625)"/>
       </defs>
       <use xlink:href="#TimesNewRomanPSMT-32"/>
       <use xlink:href="#TimesNewRomanPSMT-30" x="50"/>
       <use xlink:href="#TimesNewRomanPSMT-32" x="100"/>
       <use xlink:href="#TimesNewRomanPSMT-30" x="150"/>
       <use xlink:href="#TimesNewRomanPSMT-2d" x="200"/>
       <use xlink:href="#TimesNewRomanPSMT-30" x="233.300781"/>
       <use xlink:href="#TimesNewRomanPSMT-31" x="283.300781"/>
       <use xlink:href="#TimesNewRomanPSMT-2d" x="333.300781"/>
       <use xlink:href="#TimesNewRomanPSMT-32" x="366.601562"/>
       <use xlink:href="#TimesNewRomanPSMT-33" x="416.601562"/>
      </g>
     </g>
    </g>
    <g id="xtick_3">
     <g id="line2d_5">
      <path d="M 211.956175 256.32 
L 211.956175 34.56 
" clip-path="url(#p3859c1e94f)" style="fill: none; stroke: #b0b0b0; stroke-width: 0.8; stroke-linecap: square"/>
     </g>
     <g id="line2d_6">
      <g>
       <use xlink:href="#m9c5fdf95c1" x="211.956175" y="256.32" style="stroke: #000000; stroke-width: 0.8"/>
      </g>
     </g>
     <g id="text_3">
      <!-- 2020-05-14 -->
      <g transform="translate(188.626487 266.76375)scale(0.1 -0.1)">
       <defs>
        <path id="TimesNewRomanPSMT-35" d="M 2778 4238 
L 2534 3706 
L 1259 3706 
L 981 3138 
Q 1809 3016 2294 2522 
Q 2709 2097 2709 1522 
Q 2709 1188 2573 903 
Q 2438 619 2231 419 
Q 2025 219 1772 97 
Q 1413 -75 1034 -75 
Q 653 -75 479 54 
Q 306 184 306 341 
Q 306 428 378 495 
Q 450 563 559 563 
Q 641 563 702 538 
Q 763 513 909 409 
Q 1144 247 1384 247 
Q 1750 247 2026 523 
Q 2303 800 2303 1197 
Q 2303 1581 2056 1914 
Q 1809 2247 1375 2428 
Q 1034 2569 447 2591 
L 1259 4238 
L 2778 4238 
z
" transform="scale(0.015625)"/>
        <path id="TimesNewRomanPSMT-34" d="M 2978 1563 
L 2978 1119 
L 2409 1119 
L 2409 0 
L 1894 0 
L 1894 1119 
L 100 1119 
L 100 1519 
L 2066 4325 
L 2409 4325 
L 2409 1563 
L 2978 1563 
z
M 1894 1563 
L 1894 3666 
L 406 1563 
L 1894 1563 
z
" transform="scale(0.015625)"/>
       </defs>
       <use xlink:href="#TimesNewRomanPSMT-32"/>
       <use xlink:href="#TimesNewRomanPSMT-30" x="50"/>
       <use xlink:href="#TimesNewRomanPSMT-32" x="100"/>
       <use xlink:href="#TimesNewRomanPSMT-30" x="150"/>
       <use xlink:href="#TimesNewRomanPSMT-2d" x="200"/>
       <use xlink:href="#TimesNewRomanPSMT-30" x="233.300781"/>
       <use xlink:href="#TimesNewRomanPSMT-35" x="283.300781"/>
       <use xlink:href="#TimesNewRomanPSMT-2d" x="333.300781"/>
       <use xlink:href="#TimesNewRomanPSMT-31" x="366.601562"/>
       <use xlink:href="#TimesNewRomanPSMT-34" x="416.601562"/>
      </g>
     </g>
    </g>
    <g id="xtick_4">
     <g id="line2d_7">
      <path d="M 268.904717 256.32 
L 268.904717 34.56 
" clip-path="url(#p3859c1e94f)" style="fill: none; stroke: #b0b0b0; stroke-width: 0.8; stroke-linecap: square"/>
     </g>
     <g id="line2d_8">
      <g>
       <use xlink:href="#m9c5fdf95c1" x="268.904717" y="256.32" style="stroke: #000000; stroke-width: 0.8"/>
      </g>
     </g>
     <g id="text_4">
      <!-- 2020-08-24 -->
      <g transform="translate(245.575029 266.76375)scale(0.1 -0.1)">
       <defs>
        <path id="TimesNewRomanPSMT-38" d="M 1228 2134 
Q 725 2547 579 2797 
Q 434 3047 434 3316 
Q 434 3728 753 4026 
Q 1072 4325 1600 4325 
Q 2113 4325 2425 4047 
Q 2738 3769 2738 3413 
Q 2738 3175 2569 2928 
Q 2400 2681 1866 2347 
Q 2416 1922 2594 1678 
Q 2831 1359 2831 1006 
Q 2831 559 2490 242 
Q 2150 -75 1597 -75 
Q 994 -75 656 303 
Q 388 606 388 966 
Q 388 1247 577 1523 
Q 766 1800 1228 2134 
z
M 1719 2469 
Q 2094 2806 2194 3001 
Q 2294 3197 2294 3444 
Q 2294 3772 2109 3958 
Q 1925 4144 1606 4144 
Q 1288 4144 1088 3959 
Q 888 3775 888 3528 
Q 888 3366 970 3203 
Q 1053 3041 1206 2894 
L 1719 2469 
z
M 1375 2016 
Q 1116 1797 991 1539 
Q 866 1281 866 981 
Q 866 578 1086 336 
Q 1306 94 1647 94 
Q 1984 94 2187 284 
Q 2391 475 2391 747 
Q 2391 972 2272 1150 
Q 2050 1481 1375 2016 
z
" transform="scale(0.015625)"/>
       </defs>
       <use xlink:href="#TimesNewRomanPSMT-32"/>
       <use xlink:href="#TimesNewRomanPSMT-30" x="50"/>
       <use xlink:href="#TimesNewRomanPSMT-32" x="100"/>
       <use xlink:href="#TimesNewRomanPSMT-30" x="150"/>
       <use xlink:href="#TimesNewRomanPSMT-2d" x="200"/>
       <use xlink:href="#TimesNewRomanPSMT-30" x="233.300781"/>
       <use xlink:href="#TimesNewRomanPSMT-38" x="283.300781"/>
       <use xlink:href="#TimesNewRomanPSMT-2d" x="333.300781"/>
       <use xlink:href="#TimesNewRomanPSMT-32" x="366.601562"/>
       <use xlink:href="#TimesNewRomanPSMT-34" x="416.601562"/>
      </g>
     </g>
    </g>
    <g id="xtick_5">
     <g id="line2d_9">
      <path d="M 325.853259 256.32 
L 325.853259 34.56 
" clip-path="url(#p3859c1e94f)" style="fill: none; stroke: #b0b0b0; stroke-width: 0.8; stroke-linecap: square"/>
     </g>
     <g id="line2d_10">
      <g>
       <use xlink:href="#m9c5fdf95c1" x="325.853259" y="256.32" style="stroke: #000000; stroke-width: 0.8"/>
      </g>
     </g>
     <g id="text_5">
      <!-- 2020-12-08 -->
      <g transform="translate(302.523572 266.76375)scale(0.1 -0.1)">
       <use xlink:href="#TimesNewRomanPSMT-32"/>
       <use xlink:href="#TimesNewRomanPSMT-30" x="50"/>
       <use xlink:href="#TimesNewRomanPSMT-32" x="100"/>
       <use xlink:href="#TimesNewRomanPSMT-30" x="150"/>
       <use xlink:href="#TimesNewRomanPSMT-2d" x="200"/>
       <use xlink:href="#TimesNewRomanPSMT-31" x="233.300781"/>
       <use xlink:href="#TimesNewRomanPSMT-32" x="283.300781"/>
       <use xlink:href="#TimesNewRomanPSMT-2d" x="333.300781"/>
       <use xlink:href="#TimesNewRomanPSMT-30" x="366.601562"/>
       <use xlink:href="#TimesNewRomanPSMT-38" x="416.601562"/>
      </g>
     </g>
    </g>
    <g id="xtick_6">
     <g id="line2d_11">
      <path d="M 382.801801 256.32 
L 382.801801 34.56 
" clip-path="url(#p3859c1e94f)" style="fill: none; stroke: #b0b0b0; stroke-width: 0.8; stroke-linecap: square"/>
     </g>
     <g id="line2d_12">
      <g>
       <use xlink:href="#m9c5fdf95c1" x="382.801801" y="256.32" style="stroke: #000000; stroke-width: 0.8"/>
      </g>
     </g>
     <g id="text_6">
      <!-- 2021-03-24 -->
      <g transform="translate(359.472114 266.76375)scale(0.1 -0.1)">
       <use xlink:href="#TimesNewRomanPSMT-32"/>
       <use xlink:href="#TimesNewRomanPSMT-30" x="50"/>
       <use xlink:href="#TimesNewRomanPSMT-32" x="100"/>
       <use xlink:href="#TimesNewRomanPSMT-31" x="150"/>
       <use xlink:href="#TimesNewRomanPSMT-2d" x="200"/>
       <use xlink:href="#TimesNewRomanPSMT-30" x="233.300781"/>
       <use xlink:href="#TimesNewRomanPSMT-33" x="283.300781"/>
       <use xlink:href="#TimesNewRomanPSMT-2d" x="333.300781"/>
       <use xlink:href="#TimesNewRomanPSMT-32" x="366.601562"/>
       <use xlink:href="#TimesNewRomanPSMT-34" x="416.601562"/>
      </g>
     </g>
    </g>
    <g id="xtick_7">
     <g id="line2d_13">
      <path d="M 439.750343 256.32 
L 439.750343 34.56 
" clip-path="url(#p3859c1e94f)" style="fill: none; stroke: #b0b0b0; stroke-width: 0.8; stroke-linecap: square"/>
     </g>
     <g id="line2d_14">
      <g>
       <use xlink:href="#m9c5fdf95c1" x="439.750343" y="256.32" style="stroke: #000000; stroke-width: 0.8"/>
      </g>
     </g>
     <g id="text_7">
      <!-- 2021-07-07 -->
      <g transform="translate(416.420656 266.76375)scale(0.1 -0.1)">
       <defs>
        <path id="TimesNewRomanPSMT-37" d="M 644 4238 
L 2916 4238 
L 2916 4119 
L 1503 -88 
L 1153 -88 
L 2419 3728 
L 1253 3728 
Q 900 3728 750 3644 
Q 488 3500 328 3200 
L 238 3234 
L 644 4238 
z
" transform="scale(0.015625)"/>
       </defs>
       <use xlink:href="#TimesNewRomanPSMT-32"/>
       <use xlink:href="#TimesNewRomanPSMT-30" x="50"/>
       <use xlink:href="#TimesNewRomanPSMT-32" x="100"/>
       <use xlink:href="#TimesNewRomanPSMT-31" x="150"/>
       <use xlink:href="#TimesNewRomanPSMT-2d" x="200"/>
       <use xlink:href="#TimesNewRomanPSMT-30" x="233.300781"/>
       <use xlink:href="#TimesNewRomanPSMT-37" x="283.300781"/>
       <use xlink:href="#TimesNewRomanPSMT-2d" x="333.300781"/>
       <use xlink:href="#TimesNewRomanPSMT-30" x="366.601562"/>
       <use xlink:href="#TimesNewRomanPSMT-37" x="416.601562"/>
      </g>
     </g>
    </g>
    <g id="xtick_8">
     <g id="line2d_15">
      <path d="M 496.698885 256.32 
L 496.698885 34.56 
" clip-path="url(#p3859c1e94f)" style="fill: none; stroke: #b0b0b0; stroke-width: 0.8; stroke-linecap: square"/>
     </g>
     <g id="line2d_16">
      <g>
       <use xlink:href="#m9c5fdf95c1" x="496.698885" y="256.32" style="stroke: #000000; stroke-width: 0.8"/>
      </g>
     </g>
     <g id="text_8">
      <!-- 2021-10-22 -->
      <g transform="translate(473.369198 266.76375)scale(0.1 -0.1)">
       <use xlink:href="#TimesNewRomanPSMT-32"/>
       <use xlink:href="#TimesNewRomanPSMT-30" x="50"/>
       <use xlink:href="#TimesNewRomanPSMT-32" x="100"/>
       <use xlink:href="#TimesNewRomanPSMT-31" x="150"/>
       <use xlink:href="#TimesNewRomanPSMT-2d" x="200"/>
       <use xlink:href="#TimesNewRomanPSMT-31" x="233.300781"/>
       <use xlink:href="#TimesNewRomanPSMT-30" x="283.300781"/>
       <use xlink:href="#TimesNewRomanPSMT-2d" x="333.300781"/>
       <use xlink:href="#TimesNewRomanPSMT-32" x="366.601562"/>
       <use xlink:href="#TimesNewRomanPSMT-32" x="416.601562"/>
      </g>
     </g>
    </g>
    <g id="text_9">
     <!-- 时间 -->
     <g transform="translate(303.65 280.67625)scale(0.1 -0.1)">
      <defs>
       <path id="SimSun-65f6" d="M 4500 3600 
Q 4500 4575 4475 5225 
L 5100 4900 
L 4850 4725 
L 4850 3600 
L 5225 3600 
L 5550 3925 
L 6025 3450 
L 4850 3450 
L 4850 100 
Q 4850 -375 4300 -575 
Q 4275 -200 3475 -25 
L 3475 100 
Q 4150 0 4325 25 
Q 4500 50 4500 325 
L 4500 3450 
L 3200 3450 
Q 2875 3450 2600 3375 
L 2375 3600 
L 4500 3600 
z
M 2875 2825 
Q 3525 2375 3637 2200 
Q 3750 2025 3750 1925 
Q 3750 1800 3637 1637 
Q 3525 1475 3475 1475 
Q 3400 1475 3325 1775 
Q 3200 2225 2800 2750 
L 2875 2825 
z
M 925 4150 
L 925 2650 
L 1950 2650 
L 1950 4150 
L 925 4150 
z
M 925 2500 
L 925 900 
L 1950 900 
L 1950 2500 
L 925 2500 
z
M 2300 2000 
Q 2300 800 2325 450 
L 1950 250 
L 1950 750 
L 925 750 
L 925 225 
L 550 25 
Q 575 825 575 2425 
Q 575 4025 550 4500 
L 950 4300 
L 1900 4300 
L 2100 4550 
L 2500 4225 
L 2300 4050 
L 2300 2000 
z
" transform="scale(0.015625)"/>
       <path id="SimSun-95f4" d="M 2150 525 
Q 2175 1325 2175 2112 
Q 2175 2900 2150 3675 
L 2525 3450 
L 3750 3450 
L 4000 3700 
L 4325 3375 
L 4125 3200 
Q 4125 1550 4150 775 
L 3800 575 
L 3800 975 
L 2500 975 
L 2500 700 
L 2150 525 
z
M 2500 3300 
L 2500 2325 
L 3800 2325 
L 3800 3300 
L 2500 3300 
z
M 2500 2175 
L 2500 1125 
L 3800 1125 
L 3800 2175 
L 2500 2175 
z
M 1275 5200 
Q 1850 4825 1950 4675 
Q 2050 4525 2050 4425 
Q 2050 4275 1950 4137 
Q 1850 4000 1825 4000 
Q 1750 4000 1675 4275 
Q 1550 4650 1200 5125 
L 1275 5200 
z
M 1125 425 
Q 1125 25 1150 -375 
L 750 -525 
Q 775 -150 775 1950 
Q 775 4050 750 4425 
L 1350 4125 
L 1125 3975 
L 1125 425 
z
M 4225 125 
Q 5025 0 5125 37 
Q 5225 75 5225 250 
L 5225 4450 
L 3225 4450 
Q 2900 4450 2625 4375 
L 2400 4600 
L 5175 4600 
L 5425 4850 
L 5775 4500 
L 5575 4350 
L 5575 225 
Q 5575 -100 5462 -250 
Q 5350 -400 5000 -550 
Q 4800 -125 4225 25 
L 4225 125 
z
" transform="scale(0.015625)"/>
      </defs>
      <use xlink:href="#SimSun-65f6"/>
      <use xlink:href="#SimSun-95f4" x="100"/>
     </g>
    </g>
   </g>
   <g id="matplotlib.axis_2">
    <g id="ytick_1">
     <g id="line2d_17">
      <path d="M 76.5 227.767552 
L 550.8 227.767552 
" clip-path="url(#p3859c1e94f)" style="fill: none; stroke: #b0b0b0; stroke-width: 0.8; stroke-linecap: square"/>
     </g>
     <g id="line2d_18">
      <defs>
       <path id="mad31147317" d="M 0 0 
L 3.5 0 
" style="stroke: #000000; stroke-width: 0.8"/>
      </defs>
      <g>
       <use xlink:href="#mad31147317" x="76.5" y="227.767552" style="stroke: #000000; stroke-width: 0.8"/>
      </g>
     </g>
     <g id="text_10">
      <!-- 0.8 -->
      <g transform="translate(60.5 231.239427)scale(0.1 -0.1)">
       <defs>
        <path id="TimesNewRomanPSMT-2e" d="M 800 606 
Q 947 606 1047 504 
Q 1147 403 1147 259 
Q 1147 116 1045 14 
Q 944 -88 800 -88 
Q 656 -88 554 14 
Q 453 116 453 259 
Q 453 406 554 506 
Q 656 606 800 606 
z
" transform="scale(0.015625)"/>
       </defs>
       <use xlink:href="#TimesNewRomanPSMT-30"/>
       <use xlink:href="#TimesNewRomanPSMT-2e" x="50"/>
       <use xlink:href="#TimesNewRomanPSMT-38" x="75"/>
      </g>
     </g>
    </g>
    <g id="ytick_2">
     <g id="line2d_19">
      <path d="M 76.5 188.838833 
L 550.8 188.838833 
" clip-path="url(#p3859c1e94f)" style="fill: none; stroke: #b0b0b0; stroke-width: 0.8; stroke-linecap: square"/>
     </g>
     <g id="line2d_20">
      <g>
       <use xlink:href="#mad31147317" x="76.5" y="188.838833" style="stroke: #000000; stroke-width: 0.8"/>
      </g>
     </g>
     <g id="text_11">
      <!-- 1.0 -->
      <g transform="translate(60.5 192.310708)scale(0.1 -0.1)">
       <use xlink:href="#TimesNewRomanPSMT-31"/>
       <use xlink:href="#TimesNewRomanPSMT-2e" x="50"/>
       <use xlink:href="#TimesNewRomanPSMT-30" x="75"/>
      </g>
     </g>
    </g>
    <g id="ytick_3">
     <g id="line2d_21">
      <path d="M 76.5 149.910113 
L 550.8 149.910113 
" clip-path="url(#p3859c1e94f)" style="fill: none; stroke: #b0b0b0; stroke-width: 0.8; stroke-linecap: square"/>
     </g>
     <g id="line2d_22">
      <g>
       <use xlink:href="#mad31147317" x="76.5" y="149.910113" style="stroke: #000000; stroke-width: 0.8"/>
      </g>
     </g>
     <g id="text_12">
      <!-- 1.2 -->
      <g transform="translate(60.5 153.381988)scale(0.1 -0.1)">
       <use xlink:href="#TimesNewRomanPSMT-31"/>
       <use xlink:href="#TimesNewRomanPSMT-2e" x="50"/>
       <use xlink:href="#TimesNewRomanPSMT-32" x="75"/>
      </g>
     </g>
    </g>
    <g id="ytick_4">
     <g id="line2d_23">
      <path d="M 76.5 110.981394 
L 550.8 110.981394 
" clip-path="url(#p3859c1e94f)" style="fill: none; stroke: #b0b0b0; stroke-width: 0.8; stroke-linecap: square"/>
     </g>
     <g id="line2d_24">
      <g>
       <use xlink:href="#mad31147317" x="76.5" y="110.981394" style="stroke: #000000; stroke-width: 0.8"/>
      </g>
     </g>
     <g id="text_13">
      <!-- 1.4 -->
      <g transform="translate(60.5 114.453269)scale(0.1 -0.1)">
       <use xlink:href="#TimesNewRomanPSMT-31"/>
       <use xlink:href="#TimesNewRomanPSMT-2e" x="50"/>
       <use xlink:href="#TimesNewRomanPSMT-34" x="75"/>
      </g>
     </g>
    </g>
    <g id="ytick_5">
     <g id="line2d_25">
      <path d="M 76.5 72.052675 
L 550.8 72.052675 
" clip-path="url(#p3859c1e94f)" style="fill: none; stroke: #b0b0b0; stroke-width: 0.8; stroke-linecap: square"/>
     </g>
     <g id="line2d_26">
      <g>
       <use xlink:href="#mad31147317" x="76.5" y="72.052675" style="stroke: #000000; stroke-width: 0.8"/>
      </g>
     </g>
     <g id="text_14">
      <!-- 1.6 -->
      <g transform="translate(60.5 75.52455)scale(0.1 -0.1)">
       <use xlink:href="#TimesNewRomanPSMT-31"/>
       <use xlink:href="#TimesNewRomanPSMT-2e" x="50"/>
       <use xlink:href="#TimesNewRomanPSMT-36" x="75"/>
      </g>
     </g>
    </g>
    <g id="text_15">
     <!-- 累计收益率 -->
     <g transform="translate(55.210938 170.44)rotate(-90)scale(0.1 -0.1)">
      <defs>
       <path id="SimSun-7d2f" d="M 1675 4725 
L 1675 4100 
L 3125 4100 
L 3125 4725 
L 1675 4725 
z
M 3450 4725 
L 3450 4100 
L 4925 4100 
L 4925 4725 
L 3450 4725 
z
M 1675 3950 
L 1675 3375 
L 3125 3375 
L 3125 3950 
L 1675 3950 
z
M 3450 3950 
L 3450 3375 
L 4925 3375 
L 4925 3950 
L 3450 3950 
z
M 5250 4625 
Q 5250 4275 5250 3875 
Q 5250 3475 5275 3075 
L 4925 2950 
L 4925 3225 
L 1675 3225 
L 1675 3000 
L 1325 2875 
Q 1350 3500 1350 4125 
Q 1350 4750 1325 5075 
L 1675 4875 
L 4900 4875 
L 5075 5075 
L 5425 4775 
L 5250 4625 
z
M 3525 2875 
Q 3225 2850 2875 2700 
Q 2525 2550 1825 2275 
L 3550 2300 
Q 3925 2550 4175 2800 
L 4500 2400 
Q 4275 2400 3675 2100 
Q 3050 1775 1875 1300 
L 4775 1475 
Q 4550 1725 4300 1975 
L 4375 2025 
Q 5100 1675 5262 1487 
Q 5425 1300 5412 1150 
Q 5400 1000 5337 900 
Q 5275 800 5250 800 
Q 5200 800 5125 950 
Q 5000 1150 4875 1350 
L 3550 1225 
L 3550 100 
Q 3575 -425 3000 -525 
Q 3000 -175 2200 0 
L 2200 100 
Q 2900 25 3062 37 
Q 3225 50 3225 325 
L 3225 1200 
Q 2750 1150 2250 1075 
Q 1750 1000 1450 825 
L 1175 1350 
Q 1550 1400 2000 1562 
Q 2450 1725 3375 2175 
Q 2300 2075 2000 2037 
Q 1700 2000 1550 1900 
L 1325 2350 
Q 1625 2350 2200 2612 
Q 2775 2875 3150 3250 
L 3525 2875 
z
M 2625 500 
Q 2325 450 1850 175 
Q 1375 -125 550 -450 
L 500 -375 
Q 1125 -50 1562 300 
Q 2000 650 2225 950 
L 2625 500 
z
M 4075 900 
Q 5000 575 5312 387 
Q 5625 200 5650 12 
Q 5675 -175 5612 -287 
Q 5550 -400 5525 -400 
Q 5425 -400 5250 -150 
Q 4975 250 4025 825 
L 4075 900 
z
" transform="scale(0.015625)"/>
       <path id="SimSun-8ba1" d="M 975 4975 
L 1000 5050 
Q 1550 4800 1762 4625 
Q 1975 4450 1975 4275 
Q 1975 4100 1887 4025 
Q 1800 3950 1775 3950 
Q 1650 3950 1550 4250 
Q 1375 4625 975 4975 
z
M 1650 375 
L 2625 1225 
L 2675 1150 
Q 1800 25 1600 -350 
L 1225 75 
Q 1325 225 1325 550 
L 1325 2800 
L 675 2800 
L 900 2800 
Q 750 2800 475 2725 
L 250 2950 
L 1275 2950 
L 1550 3225 
L 1900 2875 
L 1650 2700 
L 1650 375 
z
M 3850 2925 
Q 3850 4600 3825 5100 
L 4425 4825 
L 4225 4625 
L 4225 2925 
L 5350 2925 
L 5675 3250 
L 6125 2775 
L 4225 2775 
L 4225 500 
Q 4225 0 4250 -425 
L 3825 -600 
Q 3850 175 3850 575 
L 3850 2775 
L 2575 2775 
L 2950 2775 
Q 2650 2775 2375 2700 
L 2150 2925 
L 3850 2925 
z
" transform="scale(0.015625)"/>
       <path id="SimSun-6536" d="M 3325 3600 
Q 3575 2100 4200 1200 
Q 4600 1950 4850 3600 
L 3325 3600 
z
M 3400 5275 
L 4025 4975 
L 3775 4850 
Q 3575 4375 3325 3750 
L 5250 3750 
L 5575 4075 
L 6050 3600 
L 5225 3600 
Q 4975 2000 4425 900 
Q 5300 -25 6150 -75 
L 6150 -175 
Q 5750 -200 5575 -525 
Q 4750 -50 4200 650 
Q 3350 -175 2300 -600 
L 2250 -525 
Q 3225 -25 4000 900 
Q 3325 2100 3225 3550 
Q 2875 2725 2425 2100 
L 2350 2150 
Q 3050 3500 3400 5275 
z
M 575 1575 
L 575 3100 
Q 575 3600 550 4125 
L 1125 3850 
L 900 3675 
L 900 1425 
L 1750 1725 
Q 1750 4350 1725 5250 
L 2300 4975 
L 2075 4775 
L 2075 -450 
L 1725 -650 
Q 1750 375 1750 1600 
Q 975 1175 750 825 
L 475 1200 
Q 600 1325 575 1575 
z
" transform="scale(0.015625)"/>
       <path id="SimSun-76ca" d="M 3900 1725 
L 3900 -75 
L 4725 -75 
L 4725 1725 
L 3900 1725 
z
M 1275 2100 
L 1625 1875 
L 4675 1875 
L 4875 2125 
L 5250 1800 
L 5050 1650 
L 5050 -75 
L 5300 -75 
L 5650 275 
L 6100 -225 
L 1125 -225 
Q 800 -225 525 -300 
L 300 -75 
L 1300 -75 
Q 1300 1475 1275 2100 
z
M 1625 1725 
L 1625 -75 
L 2450 -75 
L 2450 1725 
L 1625 1725 
z
M 2775 1725 
L 2775 -75 
L 3575 -75 
L 3575 1725 
L 2775 1725 
z
M 2475 3550 
L 2900 3150 
Q 2575 3025 2050 2675 
Q 1525 2300 725 2000 
L 675 2075 
Q 1875 2750 2475 3550 
z
M 3700 3450 
Q 4425 3200 4987 2950 
Q 5550 2700 5500 2362 
Q 5450 2025 5350 2025 
Q 5275 2025 5200 2125 
Q 4975 2375 4662 2650 
Q 4350 2925 3650 3375 
L 3700 3450 
z
M 1725 5000 
L 1775 5075 
Q 2375 4800 2587 4587 
Q 2800 4375 2800 4225 
Q 2800 4050 2600 3825 
L 3625 3825 
Q 4175 4800 4275 5225 
L 4825 4875 
Q 4475 4725 3775 3825 
L 4900 3825 
L 5275 4200 
L 5775 3675 
L 1550 3675 
Q 1225 3675 950 3600 
L 725 3825 
L 2425 3825 
Q 2325 4375 1725 5000 
z
" transform="scale(0.015625)"/>
       <path id="SimSun-7387" d="M 875 3725 
L 925 3800 
Q 1375 3650 1550 3525 
Q 1725 3400 1725 3250 
Q 1725 3175 1662 3025 
Q 1600 2875 1550 2875 
Q 1500 2875 1425 3050 
Q 1275 3325 875 3725 
z
M 550 1850 
Q 875 1925 2000 2575 
L 2050 2500 
Q 1675 2225 1337 1937 
Q 1000 1650 875 1425 
L 550 1850 
z
M 5200 3450 
Q 4800 3150 4275 2800 
L 4225 2875 
Q 4775 3400 5050 3925 
L 5450 3525 
L 5200 3450 
z
M 4325 2500 
L 4350 2575 
Q 5225 2350 5375 2212 
Q 5525 2075 5525 1900 
Q 5525 1775 5487 1662 
Q 5450 1550 5400 1550 
Q 5325 1550 5200 1800 
Q 4975 2150 4325 2500 
z
M 3150 3900 
Q 2500 3300 2300 3150 
Q 2800 3150 3400 3175 
Q 3700 3500 3850 3825 
L 4250 3450 
Q 4050 3400 3450 2825 
Q 2850 2250 2475 1950 
Q 3150 1975 3850 2000 
Q 3750 2175 3550 2450 
L 3600 2500 
Q 4050 2250 4200 2100 
Q 4350 1950 4350 1850 
Q 4350 1775 4250 1625 
Q 4150 1475 4100 1475 
Q 4075 1475 4050 1550 
Q 4000 1700 3900 1900 
Q 3650 1875 3075 1800 
L 3500 1550 
L 3325 1425 
L 3325 975 
L 5325 975 
L 5650 1300 
L 6100 825 
L 3325 825 
Q 3325 -275 3350 -525 
L 2975 -650 
Q 3000 0 3000 825 
L 1125 825 
Q 800 825 525 750 
L 300 975 
L 3000 975 
L 3000 1775 
Q 2450 1700 2200 1525 
L 1950 1950 
Q 2275 1950 2675 2350 
Q 3075 2750 3325 3050 
Q 2400 2950 2150 2775 
L 1950 3175 
Q 2150 3150 2475 3575 
Q 2800 4000 2900 4225 
L 1450 4225 
Q 1125 4225 850 4150 
L 625 4375 
L 3100 4375 
Q 3050 4800 2675 5200 
L 2725 5250 
Q 3225 5050 3337 4912 
Q 3450 4775 3450 4700 
Q 3450 4550 3250 4375 
L 5025 4375 
L 5350 4675 
L 5775 4225 
L 3050 4225 
L 3375 3950 
L 3150 3900 
z
" transform="scale(0.015625)"/>
      </defs>
      <use xlink:href="#SimSun-7d2f"/>
      <use xlink:href="#SimSun-8ba1" x="100"/>
      <use xlink:href="#SimSun-6536" x="200"/>
      <use xlink:href="#SimSun-76ca" x="300"/>
      <use xlink:href="#SimSun-7387" x="400"/>
     </g>
    </g>
   </g>
   <g id="line2d_27">
    <path d="M 98.059091 193.828076 
L 98.872642 194.844687 
L 99.686192 196.990865 
L 100.499743 192.698509 
L 101.313293 198.007475 
L 102.126844 197.668605 
L 102.940395 192.924422 
L 103.753945 192.811466 
L 104.567496 195.296514 
L 105.381046 192.472595 
L 106.194597 197.894518 
L 107.008148 199.814783 
L 107.821698 193.037379 
L 108.635249 192.359639 
L 109.448799 189.761634 
L 110.26235 191.907812 
L 111.075901 192.698509 
L 111.889451 195.40947 
L 112.703002 199.58887 
L 113.516552 199.024086 
L 114.330103 199.024086 
L 115.143654 199.137043 
L 115.957204 198.911129 
L 116.770755 197.668605 
L 117.584305 198.120432 
L 118.397856 204.446009 
L 119.211407 204.333052 
L 120.024957 207.382884 
L 120.838508 205.010793 
L 121.652058 207.044014 
L 122.465609 208.738365 
L 123.27916 208.512451 
L 124.09271 210.771586 
L 124.906261 209.980889 
L 125.719811 208.964278 
L 126.533362 210.545673 
L 127.346913 209.190192 
L 128.160463 207.269927 
L 128.974014 209.416105 
L 129.787564 210.319759 
L 130.601115 206.592187 
L 131.414666 207.269927 
L 132.228216 201.396177 
L 133.041767 201.283221 
L 133.855317 197.103821 
L 134.668868 197.555648 
L 135.482419 196.539038 
L 136.295969 196.087211 
L 137.10952 200.040696 
L 137.92307 198.233389 
L 138.736621 199.362956 
L 140.363722 195.635384 
L 141.177273 196.313124 
L 141.990823 197.668605 
L 142.804374 192.924422 
L 143.617925 189.422764 
L 144.431475 190.665288 
L 145.245026 189.761634 
L 146.058576 195.296514 
L 146.872127 193.828076 
L 147.685678 194.957643 
L 148.499228 191.568942 
L 150.93988 199.024086 
L 152.566981 197.668605 
L 153.380532 202.751658 
L 154.194082 201.735047 
L 155.007633 207.947668 
L 155.821184 225.455961 
L 156.634734 218.565601 
L 157.448285 218.22673 
L 158.261835 216.645336 
L 159.075386 218.339687 
L 159.888937 219.695168 
L 160.702487 216.419423 
L 161.516038 216.645336 
L 162.329588 218.000817 
L 163.95669 209.867932 
L 164.77024 211.788197 
L 165.583791 211.33637 
L 166.397341 207.382884 
L 167.210892 207.495841 
L 168.024443 211.449326 
L 168.837993 213.595504 
L 169.651544 214.160288 
L 170.465094 212.804807 
L 171.278645 219.695168 
L 172.092196 216.419423 
L 172.905746 217.21012 
L 173.719297 217.54899 
L 174.532847 209.642019 
L 175.346398 213.708461 
L 176.159949 220.259952 
L 176.973499 216.758293 
L 177.78705 217.54899 
L 178.6006 217.661947 
L 179.414151 219.469254 
L 180.227702 228.166923 
L 181.041252 232.007452 
L 181.854803 239.914423 
L 182.668353 245.336346 
L 183.481904 242.060601 
L 184.295455 246.24 
L 185.109005 241.04399 
L 185.922556 238.107115 
L 186.736106 235.960937 
L 187.549657 234.944327 
L 188.363208 237.316418 
L 189.176758 238.897812 
L 190.803859 236.977548 
L 191.61741 241.04399 
L 192.430961 237.994158 
L 193.244511 239.123726 
L 194.058062 239.575553 
L 194.871612 239.010769 
L 195.685163 241.269904 
L 196.498714 238.220072 
L 197.312264 238.107115 
L 198.125815 240.253293 
L 198.939365 237.881202 
L 199.752916 236.751634 
L 200.566467 231.555625 
L 201.380017 234.040673 
L 202.193568 234.040673 
L 203.007118 233.927716 
L 203.820669 230.990841 
L 204.63422 230.764928 
L 205.44777 225.117091 
L 206.261321 226.133702 
L 207.074871 227.941009 
L 207.888422 228.844663 
L 208.701973 225.907788 
L 209.515523 225.343004 
L 210.329074 227.715096 
L 211.142624 229.522404 
L 211.956175 233.249976 
L 212.769726 234.040673 
L 213.583276 234.379543 
L 215.210377 230.877884 
L 216.023928 232.120408 
L 216.837479 237.542332 
L 217.651029 237.090505 
L 218.46458 236.186851 
L 219.27813 236.638678 
L 220.091681 233.306542 
L 220.905232 234.110851 
L 221.718782 230.434012 
L 222.532333 227.791284 
L 223.345883 227.906185 
L 226.600086 226.412469 
L 227.413636 228.480691 
L 228.227187 233.191641 
L 229.040738 234.225752 
L 229.854288 236.179072 
L 230.667839 235.374764 
L 231.481389 235.834369 
L 232.29494 236.86848 
L 233.108491 236.408875 
L 233.922041 238.247294 
L 234.735592 238.706899 
L 235.549142 236.408875 
L 237.176244 236.408875 
L 238.803345 229.170098 
L 239.616895 219.748199 
L 240.430446 203.317325 
L 241.243997 205.615349 
L 242.057547 202.398115 
L 242.871098 205.040843 
L 243.684648 212.739225 
L 244.498199 212.394521 
L 245.31175 214.807447 
L 246.1253 219.518396 
L 246.938851 220.897211 
L 247.752401 221.012112 
L 248.565952 214.23294 
L 249.379503 216.99057 
L 250.193053 217.909779 
L 251.006604 222.505828 
L 251.820154 228.36579 
L 252.633705 231.353221 
L 253.447256 230.204209 
L 254.260806 227.906185 
L 255.074357 229.859506 
L 255.887907 230.204209 
L 256.701458 227.331679 
L 257.515009 222.161124 
L 258.328559 225.378358 
L 259.14211 223.769741 
L 259.95566 226.067766 
L 260.769211 223.195235 
L 261.582762 221.127013 
L 262.396312 218.254483 
L 263.209863 220.552507 
L 264.023413 217.220372 
L 264.836964 208.947485 
L 266.464065 209.981595 
L 267.277616 215.841557 
L 268.091166 217.450174 
L 268.904717 217.335273 
L 269.718268 215.726656 
L 270.531818 218.369384 
L 271.345369 217.335273 
L 272.158919 209.636892 
L 272.97247 210.211398 
L 273.786021 209.521991 
L 274.599571 207.453769 
L 275.413122 212.27962 
L 276.226672 211.590213 
L 277.040223 211.820015 
L 277.853774 206.189855 
L 278.667324 208.717682 
L 279.480875 207.223966 
L 280.294425 211.015706 
L 281.107976 207.683571 
L 281.921527 207.109065 
L 282.735077 206.074954 
L 283.548628 204.581238 
L 284.362178 198.836178 
L 285.175729 201.249103 
L 285.98928 204.581238 
L 286.80283 203.891831 
L 287.616381 209.751793 
L 288.429931 208.947485 
L 289.243482 207.56867 
L 290.057033 213.428632 
L 290.870583 209.177287 
L 291.684134 209.062386 
L 292.497684 200.789498 
L 293.311235 198.951079 
L 294.124786 199.295783 
L 295.751887 187.001353 
L 296.565437 182.635106 
L 297.378988 181.945699 
L 298.192539 177.694354 
L 299.006089 181.715897 
L 299.81964 175.166527 
L 300.63319 180.10728 
L 301.446741 179.417872 
L 302.260292 180.911588 
L 303.073842 179.302971 
L 303.887393 179.532774 
L 304.700943 180.911588 
L 306.328045 172.983404 
L 307.141595 180.10728 
L 307.955146 180.796687 
L 308.768696 178.498663 
L 309.582247 175.39633 
L 310.395798 178.843366 
L 311.209348 180.566884 
L 312.022899 186.082143 
L 312.836449 183.89902 
L 313.65 178.613564 
L 314.463551 171.374787 
L 315.277101 166.89364 
L 316.090652 166.778739 
L 316.904202 158.046246 
L 317.717753 161.033678 
L 318.531304 164.480714 
L 319.344854 159.425061 
L 320.158405 157.127037 
L 320.971955 156.667432 
L 321.785506 153.105494 
L 322.599057 157.931345 
L 323.412607 158.965456 
L 324.226158 161.723085 
L 325.039708 166.204233 
L 325.853259 168.502257 
L 326.66681 168.502257 
L 327.48036 169.191664 
L 328.293911 170.68538 
L 329.107461 166.548936 
L 329.921012 168.157553 
L 330.734563 165.055221 
L 331.548113 165.744628 
L 332.361664 172.523799 
L 333.175214 173.443009 
L 333.988765 177.809255 
L 334.802316 176.660243 
L 335.615866 173.672812 
L 336.429417 176.200638 
L 337.242967 166.89364 
L 338.056518 163.216801 
L 338.870069 162.872097 
L 339.683619 161.263481 
L 340.49717 169.76617 
L 341.31072 174.706923 
L 342.124271 158.735654 
L 342.937822 154.829012 
L 343.751372 155.403519 
L 344.564923 149.313754 
L 345.378473 142.189879 
L 346.192024 145.636915 
L 347.005575 151.72668 
L 347.819125 142.189879 
L 348.632676 122.656672 
L 349.446226 126.793116 
L 350.259777 125.2994 
L 351.073328 128.057029 
L 351.886878 130.355054 
L 352.700429 125.069598 
L 353.513979 126.448412 
L 354.32753 118.290426 
L 355.141081 121.392759 
L 355.954631 118.175525 
L 356.768182 101.399948 
L 357.581732 115.992402 
L 358.395283 96.803899 
L 359.208834 100.825441 
L 360.022384 97.033701 
L 360.835935 98.527417 
L 361.649485 101.055244 
L 362.463036 109.787736 
L 363.276587 104.272478 
L 364.090137 109.443033 
L 364.903688 126.333511 
L 365.717238 131.504066 
L 366.530789 128.861338 
L 367.34434 129.665646 
L 368.15789 137.823633 
L 368.971441 137.019324 
L 369.784991 134.7213 
L 370.598542 119.094735 
L 371.412093 120.128846 
L 372.225643 126.793116 
L 373.852744 143.913397 
L 374.666295 149.083952 
L 375.479846 139.087546 
L 376.293396 136.67462 
L 377.106947 135.295806 
L 377.920497 134.606399 
L 378.734048 139.891855 
L 379.547599 133.80209 
L 380.361149 148.279643 
L 381.1747 135.870312 
L 381.98825 139.547151 
L 382.801801 147.590236 
L 383.615352 145.062409 
L 386.056003 131.504066 
L 386.869554 130.584856 
L 387.683105 133.227584 
L 388.496655 136.444818 
L 389.310206 134.376596 
L 390.123756 134.836201 
L 390.937307 135.755411 
L 391.750858 138.742842 
L 392.564408 145.636915 
L 393.377959 144.717706 
L 394.191509 145.981619 
L 395.00506 149.543557 
L 395.818611 150.692569 
L 396.632161 140.466361 
L 397.445712 134.261695 
L 398.259262 119.094735 
L 399.072813 119.439438 
L 399.886364 115.877501 
L 400.699914 119.899043 
L 401.513465 119.899043 
L 402.327015 115.188093 
L 403.140566 112.430464 
L 403.954117 115.877501 
L 404.767667 113.464575 
L 405.581218 107.145008 
L 406.394768 109.328131 
L 407.208319 113.119871 
L 408.02187 112.890069 
L 408.83542 118.405327 
L 409.648971 113.425723 
L 411.276072 106.709047 
L 412.089623 110.183189 
L 412.903173 107.635485 
L 413.716724 111.457042 
L 414.530274 111.572847 
L 415.343825 98.602713 
L 416.157376 93.854718 
L 416.970926 96.402423 
L 419.411578 106.477437 
L 420.225129 106.824851 
L 421.038679 108.214508 
L 421.85223 99.297542 
L 422.66578 102.076856 
L 423.479331 99.413346 
L 424.292882 98.023689 
L 425.106432 103.234904 
L 425.919983 112.846699 
L 426.733533 114.58377 
L 427.547084 114.120551 
L 428.360635 115.973428 
L 429.987736 126.859075 
L 430.801286 117.478889 
L 431.614837 115.510208 
L 432.428388 116.205037 
L 433.241938 112.962504 
L 434.055489 119.67918 
L 434.869039 124.77459 
L 435.68259 121.532056 
L 436.496141 114.81538 
L 437.309691 130.912242 
L 438.123242 128.017123 
L 438.936792 119.67918 
L 439.750343 122.342689 
L 440.563894 134.386385 
L 441.377444 137.165699 
L 442.190995 138.439552 
L 443.004545 138.902771 
L 443.818096 143.071742 
L 444.631647 133.112532 
L 445.445197 136.355066 
L 446.258748 137.860528 
L 447.072298 144.924618 
L 447.885849 146.66169 
L 448.6994 147.472323 
L 449.51295 150.714856 
L 450.326501 165.769476 
L 451.140051 177.813171 
L 451.953602 177.928976 
L 452.767153 175.497076 
L 453.580703 178.623804 
L 454.394254 174.918052 
L 455.207804 176.307709 
L 456.021355 177.234147 
L 456.834906 178.739609 
L 457.648456 176.655123 
L 458.462007 162.758552 
L 459.275557 154.999633 
L 460.902659 153.146756 
L 461.716209 153.146756 
L 462.52976 152.451928 
L 463.34331 155.694461 
L 464.156861 144.693009 
L 464.970412 147.935542 
L 465.783962 158.58958 
L 466.597513 159.979237 
L 467.411063 159.284409 
L 468.224614 161.600504 
L 469.038165 169.706837 
L 469.851715 170.517471 
L 470.665266 178.27639 
L 472.292367 176.423514 
L 473.105918 170.401666 
L 473.919468 174.570638 
L 474.733019 169.822642 
L 475.546569 160.674066 
L 476.36012 160.789871 
L 477.173671 163.45338 
L 477.987221 145.272033 
L 478.800772 149.441004 
L 479.614322 159.168604 
L 480.427873 157.431533 
L 481.241424 162.526942 
L 482.868525 175.265466 
L 484.495626 182.561166 
L 485.309177 180.013461 
L 486.122727 175.381271 
L 486.936278 173.296785 
L 487.749828 175.84449 
L 489.37693 158.82119 
L 490.19048 159.400214 
L 491.004031 156.736704 
L 491.817581 161.02148 
L 492.631132 155.810266 
L 493.444683 160.095042 
L 494.258233 156.852509 
L 495.071784 160.674066 
L 495.885334 151.872904 
L 496.698885 151.409685 
L 497.512436 150.483247 
L 498.325986 151.29388 
L 499.139537 152.799342 
L 500.766638 157.663142 
L 501.580189 158.936995 
L 502.393739 172.949371 
L 504.02084 176.539319 
L 505.647942 181.750533 
L 506.461492 180.47668 
L 507.275043 181.982142 
L 508.088593 170.98069 
L 508.902144 171.907128 
L 509.715695 170.054252 
L 510.529245 172.486152 
L 511.342796 173.760004 
L 512.156346 177.349952 
L 512.969897 173.296785 
L 513.783448 173.644199 
L 514.596998 176.423514 
L 515.410549 176.539319 
L 516.224099 178.739609 
L 517.03765 179.897657 
L 518.664751 181.518923 
L 519.478302 179.202828 
L 520.291852 179.781852 
L 521.105403 179.087023 
L 521.918954 173.875809 
L 522.732504 169.706837 
L 523.546055 169.591033 
L 524.359605 166.927523 
L 525.173156 170.633276 
L 525.986707 171.907128 
L 526.800257 179.897657 
L 527.613808 180.245071 
L 528.427358 178.27639 
L 529.240909 180.013461 
L 529.240909 180.013461 
" clip-path="url(#p3859c1e94f)" style="fill: none; stroke: #ffa500; stroke-width: 1.5; stroke-linecap: square"/>
   </g>
   <g id="line2d_28">
    <path d="M 98.059091 188.838833 
L 105.381046 188.838833 
L 106.194597 194.931258 
L 107.008148 195.496911 
L 108.635249 195.393887 
L 109.448799 192.837128 
L 110.26235 193.409064 
L 113.516552 193.409064 
L 114.330103 193.979284 
L 115.143654 194.09533 
L 115.957204 193.863238 
L 116.770755 192.586732 
L 117.584305 193.050916 
L 118.397856 199.549493 
L 119.211407 199.433447 
L 120.024957 202.566689 
L 120.838508 203.109437 
L 121.652058 203.109437 
L 122.465609 205.377494 
L 123.27916 205.147236 
L 124.09271 207.44982 
L 124.906261 206.643916 
L 125.719811 205.607753 
L 126.533362 207.219562 
L 127.346913 205.838011 
L 128.160463 203.880814 
L 128.974014 206.06827 
L 129.787564 206.989304 
L 130.601115 203.190039 
L 131.414666 203.880814 
L 132.228216 197.894093 
L 133.041767 197.778964 
L 133.855317 193.519182 
L 134.668868 193.979699 
L 135.482419 192.943536 
L 136.295969 192.483019 
L 137.10952 196.512543 
L 137.92307 194.670475 
L 138.736621 195.821767 
L 140.363722 192.022502 
L 141.177273 192.713278 
L 141.990823 194.094828 
L 142.804374 189.2594 
L 143.617925 189.842069 
L 146.872127 189.842069 
L 147.685678 191.572838 
L 148.499228 188.123295 
L 150.93988 195.71229 
L 152.566981 194.332473 
L 153.380532 199.506788 
L 154.194082 198.471925 
L 155.007633 204.796088 
L 155.821184 222.618728 
L 156.634734 215.604657 
L 157.448285 215.259702 
L 158.261835 213.649915 
L 159.075386 215.374687 
L 159.888937 216.754504 
L 160.702487 213.419946 
L 161.516038 213.649915 
L 162.329588 215.029733 
L 163.95669 206.750829 
L 164.77024 208.70557 
L 165.583791 208.245631 
L 166.397341 204.221164 
L 167.210892 204.336148 
L 168.024443 208.360616 
L 168.837993 210.545326 
L 169.651544 211.12025 
L 170.465094 209.740433 
L 171.278645 216.754504 
L 172.092196 213.419946 
L 172.905746 214.224839 
L 173.719297 214.569794 
L 174.532847 206.520859 
L 175.346398 210.660311 
L 176.159949 217.329428 
L 176.973499 217.827887 
L 189.176758 217.827887 
L 189.990309 217.163587 
L 190.803859 216.131352 
L 191.61741 220.776409 
L 192.430961 217.292616 
L 193.244511 217.791185 
L 198.125815 217.791185 
L 198.939365 215.552393 
L 199.752916 214.2496 
L 200.566467 208.256752 
L 201.380017 211.122897 
L 202.193568 211.122897 
L 203.007118 210.992617 
L 203.820669 207.605355 
L 204.63422 207.344797 
L 205.44777 200.830831 
L 206.261321 202.003345 
L 207.074871 204.087814 
L 207.888422 205.130048 
L 208.701973 201.742786 
L 209.515523 201.09139 
L 210.329074 203.827255 
L 211.142624 205.911724 
L 211.956175 206.444436 
L 212.769726 206.444436 
L 213.583276 207.375793 
L 214.396827 205.241167 
L 215.210377 205.775891 
L 216.023928 207.751577 
L 216.837479 214.046413 
L 217.651029 214.554721 
L 218.46458 214.554721 
L 219.27813 215.578133 
L 220.091681 211.768098 
L 220.905232 212.687761 
L 221.718782 208.483585 
L 222.532333 205.461833 
L 223.345883 205.593214 
L 224.159434 205.199072 
L 224.972985 204.936311 
L 225.786535 205.471949 
L 226.600086 205.354452 
L 227.413636 207.699956 
L 228.227187 213.042492 
L 229.040738 214.215244 
L 229.854288 216.430442 
L 230.667839 215.518301 
L 231.481389 216.039525 
L 232.29494 217.212276 
L 233.108491 216.691053 
L 233.922041 218.775946 
L 234.735592 219.270065 
L 235.549142 219.270065 
L 236.362693 219.762702 
L 237.176244 219.762702 
L 238.803345 211.704622 
L 239.616895 201.216327 
L 240.430446 182.925763 
L 241.243997 185.483884 
L 242.057547 181.902515 
L 242.871098 184.844354 
L 243.684648 193.414059 
L 244.498199 193.03034 
L 245.31175 195.716367 
L 246.1253 200.960515 
L 246.938851 202.495387 
L 247.752401 202.623293 
L 248.565952 195.076837 
L 249.379503 198.146582 
L 250.193053 199.16983 
L 251.006604 204.286072 
L 251.820154 210.80928 
L 252.633705 214.134837 
L 253.447256 212.855776 
L 254.260806 210.297655 
L 255.074357 212.472058 
L 255.887907 212.855776 
L 256.701458 209.658125 
L 257.515009 203.902354 
L 258.328559 207.483723 
L 259.14211 205.693038 
L 259.95566 206.226406 
L 264.836964 206.226406 
L 265.650515 207.223544 
L 267.277616 208.332288 
L 268.091166 208.332288 
L 268.904717 208.736891 
L 269.718268 207.045026 
L 270.531818 209.824519 
L 271.345369 208.736891 
L 272.158919 200.640106 
L 272.97247 201.244344 
L 273.786021 200.519259 
L 274.599571 201.068148 
L 278.667324 201.068148 
L 279.480875 200.060972 
L 280.294425 204.006805 
L 281.107976 200.539255 
L 281.921527 199.941401 
L 282.735077 198.865265 
L 283.548628 197.310846 
L 284.362178 191.332311 
L 285.175729 193.843296 
L 285.98928 197.310846 
L 286.80283 196.593422 
L 287.616381 202.691528 
L 288.429931 201.854533 
L 289.243482 200.419684 
L 290.057033 206.51779 
L 290.870583 202.093674 
L 291.684134 201.974103 
L 292.497684 193.365013 
L 293.311235 191.451882 
L 294.124786 191.810594 
L 295.751887 179.016528 
L 296.565437 174.472842 
L 297.378988 173.755418 
L 298.192539 169.331302 
L 299.006089 173.516276 
L 299.81964 166.700746 
L 300.63319 171.842286 
L 301.446741 171.124862 
L 302.260292 172.679281 
L 303.073842 171.005291 
L 303.887393 171.244433 
L 304.700943 172.679281 
L 306.328045 164.428903 
L 307.141595 171.842286 
L 307.955146 172.559711 
L 308.768696 170.168297 
L 309.582247 170.808239 
L 314.463551 170.808239 
L 315.277101 166.966624 
L 316.090652 167.616172 
L 318.531304 167.616172 
L 319.344854 163.295449 
L 320.158405 161.037121 
L 320.971955 160.585455 
L 321.785506 157.085047 
L 322.599057 161.827535 
L 323.412607 162.4925 
L 324.226158 162.4925 
L 325.039708 167.607673 
L 325.853259 169.890854 
L 326.66681 169.890854 
L 327.48036 170.575808 
L 328.293911 172.059876 
L 329.107461 167.95015 
L 329.921012 169.548377 
L 330.734563 166.466082 
L 332.361664 167.800031 
L 333.175214 167.800031 
L 333.988765 172.917178 
L 334.802316 173.548874 
L 335.615866 173.548874 
L 336.429417 176.700407 
L 337.242967 167.415848 
L 338.056518 163.747874 
L 338.870069 163.404002 
L 339.683619 161.799263 
L 340.49717 170.281452 
L 341.31072 175.210292 
L 342.124271 159.277531 
L 342.937822 159.950146 
L 374.666295 159.950146 
L 375.479846 151.116347 
L 376.293396 151.813445 
L 384.428902 151.813445 
L 385.242453 148.68438 
L 386.056003 143.876974 
L 386.869554 143.002901 
L 387.683105 145.515863 
L 388.496655 148.575121 
L 389.310206 146.608455 
L 390.123756 147.045492 
L 390.937307 147.919565 
L 391.750858 150.760305 
L 392.564408 157.315858 
L 393.377959 156.441784 
L 394.191509 157.643635 
L 395.00506 161.030671 
L 395.818611 162.123263 
L 396.632161 152.399193 
L 397.445712 146.499195 
L 398.259262 132.076979 
L 399.072813 132.404757 
L 399.886364 129.017721 
L 400.699914 132.841794 
L 401.513465 132.841794 
L 402.327015 128.362166 
L 403.140566 125.739945 
L 403.954117 129.017721 
L 404.767667 126.723278 
L 405.581218 120.714021 
L 406.394768 122.789946 
L 407.208319 126.3955 
L 408.02187 126.176982 
L 408.83542 131.421424 
L 409.648971 132.177607 
L 412.089623 132.177607 
L 412.903173 130.595877 
L 413.716724 134.099343 
L 414.530274 134.205509 
L 415.343825 122.314958 
L 416.157376 117.962166 
L 416.970926 120.29781 
L 417.784477 121.087364 
L 418.598027 121.087364 
L 419.411578 124.901417 
L 420.225129 125.225725 
L 421.038679 126.522954 
L 421.85223 118.199067 
L 422.66578 120.793525 
L 423.479331 118.307169 
L 424.292882 117.00994 
L 425.106432 121.874549 
L 425.919983 130.847051 
L 426.733533 132.468588 
L 427.547084 133.221629 
L 429.174185 133.221629 
L 429.987736 139.3702 
L 430.801286 130.447325 
L 431.614837 128.574623 
L 432.428388 129.339346 
L 433.241938 129.339346 
L 434.055489 136.392905 
L 434.869039 141.165486 
L 435.68259 138.128389 
L 436.496141 138.864451 
L 499.953087 138.864451 
L 500.766638 142.319122 
L 501.580189 143.67953 
L 502.393739 158.644023 
L 504.02084 162.477901 
L 504.834391 163.140914 
L 505.647942 163.140914 
L 506.461492 162.414749 
L 507.275043 164.054155 
L 508.088593 164.71244 
L 508.902144 166.319654 
L 509.715695 164.417846 
L 510.529245 166.91397 
L 511.342796 168.221463 
L 512.156346 171.906217 
L 512.969897 167.746011 
L 513.783448 168.1026 
L 514.596998 170.955313 
L 515.410549 171.074176 
L 516.224099 173.332574 
L 517.03765 173.963023 
L 521.105403 173.963023 
L 522.732504 165.005089 
L 523.546055 165.660522 
L 525.986707 165.660522 
L 526.800257 174.515751 
L 527.613808 174.872349 
L 528.427358 172.851625 
L 529.240909 174.634617 
L 529.240909 174.634617 
" clip-path="url(#p3859c1e94f)" style="fill: none; stroke: #0000ff; stroke-width: 1.5; stroke-linecap: square"/>
   </g>
   <g id="line2d_29">
    <path d="M 98.059091 193.828076 
L 98.872642 194.397039 
L 100.499743 194.397039 
L 101.313293 200.210211 
L 102.126844 199.875366 
L 102.940395 195.187526 
L 103.753945 195.075911 
L 104.567496 197.531446 
L 105.381046 194.741065 
L 106.194597 200.098596 
L 107.008148 201.996055 
L 107.821698 195.299141 
L 108.635249 194.62945 
L 109.448799 192.062299 
L 110.26235 194.182989 
L 111.075901 194.964295 
L 111.889451 197.643061 
L 112.703002 201.772825 
L 113.516552 201.214749 
L 114.330103 201.214749 
L 115.143654 201.326364 
L 115.957204 201.103133 
L 116.770755 199.875366 
L 117.584305 200.321827 
L 118.397856 206.57228 
L 119.211407 206.460665 
L 120.024957 209.474276 
L 120.838508 207.130356 
L 121.652058 209.13943 
L 122.465609 210.813659 
L 123.27916 210.590429 
L 124.09271 212.822733 
L 124.906261 212.041427 
L 125.719811 211.036889 
L 126.533362 212.599503 
L 127.346913 211.26012 
L 128.160463 209.362661 
L 128.974014 211.48335 
L 129.787564 212.376272 
L 130.601115 208.692969 
L 131.414666 209.362661 
L 132.228216 203.558669 
L 133.041767 203.447053 
L 133.855317 199.31729 
L 134.668868 199.76375 
L 135.482419 198.759213 
L 136.295969 198.312752 
L 137.10952 202.219286 
L 137.92307 200.433442 
L 138.736621 201.549594 
L 140.363722 197.866292 
L 141.177273 198.535983 
L 141.990823 199.875366 
L 142.804374 195.187526 
L 143.617925 191.727454 
L 144.431475 192.955221 
L 145.245026 192.062299 
L 146.058576 197.531446 
L 146.872127 196.080448 
L 147.685678 197.1966 
L 148.499228 193.848143 
L 149.312779 196.415293 
L 150.126329 196.976495 
L 150.93988 199.674622 
L 151.753431 200.226045 
L 152.566981 200.106967 
L 153.380532 205.123318 
L 154.194082 204.120047 
L 155.007633 210.251142 
L 155.821184 227.529681 
L 156.634734 220.72974 
L 157.448285 220.395317 
L 158.261835 218.834674 
L 159.075386 220.506791 
L 159.888937 221.844484 
L 160.702487 218.611725 
L 161.516038 218.834674 
L 162.329588 220.172368 
L 163.95669 212.146208 
L 164.77024 214.041273 
L 165.583791 213.595375 
L 166.397341 209.69377 
L 167.210892 209.805244 
L 168.024443 213.70685 
L 168.837993 215.824864 
L 169.651544 216.382237 
L 170.465094 215.044543 
L 171.278645 221.844484 
L 172.092196 218.611725 
L 172.905746 219.392046 
L 173.719297 219.72647 
L 174.532847 211.923259 
L 175.346398 215.936339 
L 176.159949 222.401857 
L 176.973499 218.946149 
L 177.78705 219.72647 
L 178.6006 219.837944 
L 179.414151 221.621535 
L 180.227702 230.205068 
L 181.041252 230.6649 
L 181.854803 239.076473 
L 182.668353 239.509691 
L 183.481904 236.537943 
L 184.295455 240.880552 
L 185.109005 235.481633 
L 185.922556 232.43007 
L 186.736106 230.200082 
L 187.549657 229.143772 
L 188.363208 231.608496 
L 189.176758 232.064117 
L 209.515523 232.064117 
L 210.329074 234.782833 
L 211.142624 236.508137 
L 211.956175 240.066575 
L 212.769726 240.821396 
L 213.583276 241.14489 
L 215.210377 237.802114 
L 216.023928 238.988261 
L 216.837479 244.164171 
L 217.651029 243.732845 
L 218.46458 242.870193 
L 219.27813 243.301519 
L 220.091681 240.120575 
L 220.905232 240.888389 
L 221.718782 237.378382 
L 222.532333 234.855564 
L 223.345883 234.965252 
L 226.600086 233.539312 
L 227.413636 235.513691 
L 228.227187 240.010887 
L 229.040738 240.998077 
L 229.854288 242.862768 
L 230.667839 242.094954 
L 231.481389 242.533705 
L 232.29494 243.520894 
L 233.108491 243.082143 
L 233.922041 244.837147 
L 234.735592 245.275898 
L 235.549142 243.082143 
L 237.176244 243.082143 
L 238.803345 236.171817 
L 239.616895 227.177423 
L 240.430446 211.492079 
L 241.243997 213.685834 
L 242.057547 210.614577 
L 242.871098 213.137395 
L 243.684648 220.486472 
L 244.498199 220.157409 
L 245.31175 222.460851 
L 246.1253 226.958048 
L 246.938851 228.274301 
L 247.752401 228.383989 
L 248.565952 221.912413 
L 249.379503 224.544918 
L 250.193053 225.42242 
L 251.006604 229.809929 
L 251.820154 235.404003 
L 252.633705 238.255884 
L 253.447256 237.159006 
L 254.260806 234.965252 
L 255.074357 236.829943 
L 255.887907 237.159006 
L 256.701458 234.416813 
L 257.515009 229.480866 
L 258.328559 232.552122 
L 259.14211 231.016494 
L 259.95566 231.473892 
L 262.396312 224.407603 
L 263.209863 226.620048 
L 264.023413 223.412002 
L 264.836964 215.447199 
L 266.464065 216.442799 
L 267.277616 222.084535 
L 268.091166 223.633247 
L 268.904717 223.522625 
L 269.718268 221.973913 
L 270.531818 224.518225 
L 271.345369 223.522625 
L 272.158919 216.110932 
L 272.97247 216.664044 
L 273.786021 216.00031 
L 274.599571 214.009109 
L 275.413122 218.655245 
L 276.226672 217.991511 
L 277.040223 218.212756 
L 277.853774 212.792264 
L 278.667324 215.225954 
L 279.480875 213.787865 
L 280.294425 217.4384 
L 281.107976 214.230354 
L 281.921527 213.677242 
L 282.735077 212.681642 
L 283.548628 211.243552 
L 284.362178 205.712439 
L 285.175729 208.035507 
L 285.98928 211.243552 
L 286.80283 210.579819 
L 287.616381 216.221555 
L 288.429931 215.447199 
L 289.243482 214.119732 
L 290.057033 219.761467 
L 290.870583 215.668443 
L 291.684134 215.557821 
L 292.497684 207.593018 
L 293.311235 205.823061 
L 294.124786 206.154928 
L 295.751887 194.318345 
L 296.565437 190.114699 
L 297.378988 189.450965 
L 298.192539 185.357941 
L 299.006089 189.22972 
L 299.81964 182.924251 
L 300.63319 187.681009 
L 301.446741 187.017275 
L 302.260292 188.455364 
L 303.073842 186.906653 
L 303.887393 187.127897 
L 304.700943 188.455364 
L 306.328045 180.822428 
L 307.141595 181.430408 
L 310.395798 181.430408 
L 311.209348 183.733188 
L 312.022899 189.162386 
L 312.836449 187.013329 
L 313.65 181.810347 
L 314.463551 174.684525 
L 315.277101 170.273302 
L 316.090652 170.160193 
L 316.904202 161.563963 
L 317.717753 164.504779 
L 318.531304 167.898027 
L 319.344854 162.921263 
L 320.158405 160.659097 
L 320.971955 160.206664 
L 321.785506 156.700307 
L 322.599057 161.450855 
L 323.412607 162.468829 
L 324.226158 165.183428 
L 325.039708 169.594652 
L 325.853259 171.856818 
L 326.66681 171.856818 
L 327.48036 172.535467 
L 328.293911 174.005875 
L 329.107461 169.933977 
L 329.921012 171.517493 
L 330.734563 168.463569 
L 331.548113 169.142219 
L 332.361664 175.815608 
L 333.175214 176.720474 
L 333.988765 181.018589 
L 334.802316 179.887506 
L 335.615866 176.946691 
L 336.429417 179.435073 
L 337.242967 170.273302 
L 338.056518 166.653836 
L 338.870069 166.314511 
L 339.683619 164.730995 
L 340.49717 173.101009 
L 341.31072 177.964665 
L 342.124271 162.242613 
L 342.937822 158.396931 
L 343.751372 158.962472 
L 344.564923 152.967733 
L 345.378473 145.955019 
L 346.192024 149.348268 
L 347.005575 155.343007 
L 347.819125 145.955019 
L 348.632676 126.72661 
L 349.446226 130.798508 
L 350.259777 129.3281 
L 351.073328 132.042699 
L 351.886878 134.304865 
L 352.700429 129.101884 
L 353.513979 130.459183 
L 354.32753 122.428495 
L 355.141081 125.482418 
L 355.954631 122.315386 
L 356.768182 123.098887 
L 358.395283 123.098887 
L 359.208834 127.521755 
L 360.022384 124.088136 
L 360.835935 125.440774 
L 361.649485 127.729853 
L 362.463036 135.637581 
L 363.276587 130.643227 
L 364.090137 135.325434 
L 364.903688 150.620645 
L 365.717238 151.31923 
L 366.530789 149.588117 
L 367.34434 150.326952 
L 368.15789 157.820859 
L 368.971441 157.082023 
L 369.784991 154.971063 
L 370.598542 140.616539 
L 371.412093 141.56647 
L 372.225643 147.688253 
L 373.852744 163.414901 
L 374.666295 164.075104 
L 438.123242 164.075104 
L 438.936792 157.593736 
L 439.750343 159.874438 
L 440.563894 170.187179 
L 441.377444 172.567043 
L 442.190995 173.657813 
L 443.004545 174.054457 
L 443.818096 177.624252 
L 444.631647 169.096409 
L 445.445197 171.872916 
L 446.258748 173.162009 
L 447.072298 179.210828 
L 447.885849 180.698242 
L 448.6994 181.392369 
L 449.51295 184.168876 
L 450.326501 197.059803 
L 451.140051 207.372544 
L 451.953602 207.471705 
L 452.767153 205.389324 
L 453.580703 208.066671 
L 454.394254 204.893519 
L 455.207804 206.083451 
L 456.021355 206.615648 
L 456.834906 208.433374 
L 457.648456 206.6512 
L 458.462007 194.770043 
L 459.275557 188.136396 
L 460.902659 186.552242 
L 461.716209 186.552242 
L 462.52976 185.958184 
L 463.34331 188.730454 
L 464.156861 179.324538 
L 464.970412 182.096808 
L 465.783962 191.205695 
L 466.597513 191.782525 
L 467.411063 191.763455 
L 468.224614 193.744023 
L 469.038165 200.67601 
L 469.851715 201.369209 
L 470.665266 208.004112 
L 472.292367 206.419657 
L 473.105918 201.270181 
L 473.919468 204.835203 
L 474.733019 200.775039 
L 475.546569 192.951796 
L 476.36012 193.050824 
L 477.173671 195.328477 
L 477.987221 179.781019 
L 478.800772 183.346041 
L 479.614322 191.664426 
L 480.427873 190.179 
L 481.241424 194.53625 
L 482.868525 205.429373 
L 484.495626 211.668162 
L 485.309177 209.489538 
L 486.122727 205.528402 
L 486.936278 203.745891 
L 487.749828 205.924515 
L 489.37693 191.367341 
L 490.19048 191.862483 
L 491.004031 189.58483 
L 491.817581 193.248881 
L 492.631132 188.792603 
L 493.444683 189.376672 
L 495.071784 189.376672 
L 495.885334 182.314613 
L 496.698885 181.912277 
L 497.512436 181.107606 
L 498.325986 181.811693 
L 499.139537 183.119284 
L 500.766638 187.343808 
L 501.580189 188.450231 
L 502.393739 200.620884 
L 504.02084 203.738985 
L 505.647942 208.265261 
L 506.461492 207.158838 
L 507.275043 208.466429 
L 508.088593 198.910958 
L 508.902144 199.715629 
L 509.715695 198.106286 
L 510.529245 200.218548 
L 511.342796 201.324971 
L 512.156346 204.443073 
L 512.969897 200.922636 
L 513.783448 201.224387 
L 514.596998 203.638401 
L 515.410549 204.177933 
L 526.800257 204.177933 
L 527.613808 205.020909 
L 528.427358 203.292222 
L 529.240909 204.817534 
L 529.240909 204.817534 
" clip-path="url(#p3859c1e94f)" style="fill: none; stroke: #008000; stroke-width: 1.5; stroke-linecap: square"/>
   </g>
   <g id="line2d_30">
    <path d="M 98.059091 188.838833 
L 101.313293 188.838833 
L 102.126844 189.068209 
L 102.940395 184.104441 
L 103.753945 184.702575 
L 106.194597 184.702575 
L 107.008148 187.349505 
L 107.821698 187.937904 
L 114.330103 187.937904 
L 115.957204 189.228439 
L 120.024957 189.228439 
L 120.838508 187.202416 
L 121.652058 189.438518 
L 122.465609 190.02065 
L 123.27916 190.02065 
L 124.09271 193.091434 
L 124.906261 192.219794 
L 125.719811 192.793582 
L 142.804374 192.793582 
L 143.617925 189.872098 
L 144.431475 190.452929 
L 149.312779 190.452929 
L 150.126329 193.787871 
L 150.93988 194.356954 
L 163.95669 194.356954 
L 164.77024 197.009879 
L 165.583791 196.519162 
L 166.397341 192.225386 
L 167.210892 192.348065 
L 168.024443 192.921468 
L 171.278645 192.921468 
L 172.092196 189.693366 
L 172.905746 190.274733 
L 182.668353 190.274733 
L 183.481904 186.286724 
L 184.295455 186.878311 
L 185.109005 186.878311 
L 185.922556 183.426591 
L 186.736106 184.026759 
L 187.549657 184.026759 
L 188.363208 187.800794 
L 189.176758 189.917906 
L 190.803859 187.347127 
L 191.61741 192.791129 
L 192.430961 188.708127 
L 193.244511 190.22035 
L 194.058062 190.825239 
L 194.871612 190.069128 
L 195.685163 193.093573 
L 196.498714 189.010572 
L 197.312264 189.593987 
L 202.193568 189.593987 
L 203.007118 190.02954 
L 203.820669 186.230617 
L 204.63422 186.822372 
L 208.701973 186.822372 
L 209.515523 186.709592 
L 210.329074 189.661185 
L 211.142624 190.242648 
L 218.46458 190.242648 
L 219.27813 191.413349 
L 220.091681 187.054974 
L 220.905232 188.106995 
L 221.718782 188.693122 
L 224.972985 188.693122 
L 225.786535 188.848781 
L 226.600086 188.134267 
L 227.413636 188.720311 
L 228.227187 188.720311 
L 229.040738 190.640684 
L 229.854288 191.219209 
L 237.176244 191.219209 
L 237.989794 187.003838 
L 238.803345 187.593274 
L 239.616895 187.593274 
L 240.430446 168.582266 
L 241.243997 171.323339 
L 242.057547 171.959816 
L 242.871098 175.672065 
L 243.684648 184.637483 
L 244.498199 185.234018 
L 245.31175 188.616357 
L 246.1253 194.058802 
L 246.938851 195.651712 
L 247.752401 196.215205 
L 248.565952 188.98661 
L 249.379503 192.155585 
L 250.193053 193.21191 
L 251.006604 198.493534 
L 251.820154 205.227605 
L 252.633705 208.660661 
L 253.447256 207.340255 
L 254.260806 204.699443 
L 255.074357 206.944133 
L 255.887907 207.340255 
L 256.701458 204.03924 
L 257.515009 198.097412 
L 258.328559 201.794549 
L 259.14211 199.945981 
L 259.95566 202.586793 
L 260.769211 199.285778 
L 261.582762 196.909047 
L 262.396312 193.608032 
L 263.209863 196.248844 
L 264.023413 192.419666 
L 264.836964 182.912742 
L 265.650515 183.514451 
L 269.718268 183.514451 
L 270.531818 187.255085 
L 271.345369 186.026104 
L 272.158919 176.877021 
L 272.97247 177.559788 
L 273.786021 176.740467 
L 274.599571 174.282505 
L 275.413122 180.017751 
L 276.226672 179.19843 
L 277.040223 179.811282 
L 277.853774 173.762358 
L 278.667324 174.391518 
L 281.921527 174.391518 
L 282.735077 173.796529 
L 283.548628 172.031038 
L 284.362178 172.665393 
L 299.006089 172.665393 
L 299.81964 166.475223 
L 300.63319 171.622112 
L 301.446741 170.903942 
L 302.260292 171.541677 
L 303.887393 171.541677 
L 304.700943 173.60604 
L 306.328045 165.391933 
L 307.141595 172.772725 
L 307.955146 173.486995 
L 308.768696 171.106094 
L 309.582247 171.743223 
L 311.209348 171.743223 
L 312.022899 178.116262 
L 312.836449 175.845041 
L 313.65 176.467953 
L 326.66681 176.467953 
L 328.293911 179.184922 
L 329.107461 179.797814 
L 341.31072 179.797814 
L 342.124271 164.873796 
L 342.937822 165.529622 
L 346.192024 165.529622 
L 347.005575 171.747174 
L 347.819125 172.382379 
L 348.632676 172.382379 
L 349.446226 176.353478 
L 350.259777 175.148162 
L 351.073328 175.773165 
L 351.886878 175.773165 
L 352.700429 172.072206 
L 353.513979 172.706437 
L 354.32753 166.669029 
L 355.141081 169.205407 
L 355.954631 169.848238 
L 356.768182 157.021397 
L 357.581732 168.736489 
L 358.395283 153.331604 
L 359.208834 154.022057 
L 365.717238 154.022057 
L 366.530789 152.311096 
L 367.34434 153.00461 
L 373.039194 153.00461 
L 373.852744 161.674738 
L 374.666295 166.461954 
L 375.479846 157.206669 
L 376.293396 157.885496 
L 446.258748 157.885496 
L 447.072298 165.030995 
L 447.885849 166.621661 
L 448.6994 167.272243 
L 467.411063 167.250734 
L 468.224614 167.899429 
L 473.105918 167.899429 
L 473.919468 172.751452 
L 474.733019 173.383645 
L 481.241424 173.383645 
L 482.868525 186.090217 
L 483.682075 186.682394 
L 488.563379 186.682394 
L 489.37693 179.27283 
L 491.004031 180.410194 
L 491.817581 184.84532 
L 492.631132 180.192187 
L 493.444683 184.018096 
L 494.258233 181.122813 
L 495.071784 184.535111 
L 495.885334 176.676485 
L 496.698885 177.296903 
L 510.529245 177.296903 
L 511.342796 179.156534 
L 512.156346 179.769511 
L 512.969897 179.769511 
L 513.783448 180.716356 
L 514.596998 183.401999 
L 515.410549 183.513901 
L 516.224099 185.640035 
L 517.03765 186.759053 
L 518.664751 188.325679 
L 519.478302 188.911149 
L 529.240909 188.911149 
L 529.240909 188.911149 
" clip-path="url(#p3859c1e94f)" style="fill: none; stroke: #800080; stroke-width: 1.5; stroke-linecap: square"/>
   </g>
   <g id="line2d_31">
    <path d="M 98.059091 188.838833 
L 99.686192 188.838833 
L 100.499743 184.856656 
L 101.313293 190.383839 
L 102.126844 190.866585 
L 102.940395 190.866585 
L 103.753945 191.234233 
L 104.567496 193.739838 
L 105.381046 190.89256 
L 106.194597 196.359334 
L 107.008148 198.295482 
L 107.821698 191.462016 
L 108.635249 190.778669 
L 109.448799 188.159174 
L 110.26235 190.323105 
L 111.075901 191.120342 
L 111.889451 193.853729 
L 112.703002 198.0677 
L 113.516552 197.498245 
L 114.330103 197.498245 
L 115.143654 197.612136 
L 115.957204 197.384354 
L 116.770755 196.131551 
L 117.584305 196.587116 
L 118.397856 202.965018 
L 119.211407 202.851127 
L 120.024957 205.926187 
L 120.838508 203.534474 
L 121.652058 205.584514 
L 122.465609 207.29288 
L 123.27916 207.065098 
L 124.09271 209.34292 
L 124.906261 208.545683 
L 125.719811 207.520662 
L 126.533362 209.115138 
L 127.346913 207.748445 
L 128.160463 205.812296 
L 128.974014 207.976227 
L 129.787564 208.887356 
L 130.601115 205.128949 
L 131.414666 205.812296 
L 132.228216 199.889958 
L 133.041767 199.776067 
L 133.855317 195.562096 
L 134.668868 196.01766 
L 135.482419 194.99264 
L 136.295969 194.537076 
L 137.10952 198.523265 
L 137.92307 196.701007 
L 138.736621 197.839918 
L 140.363722 194.081511 
L 141.177273 194.764858 
L 141.990823 195.236652 
L 144.431475 195.236652 
L 145.245026 194.827242 
L 146.058576 200.21739 
L 146.872127 198.787351 
L 147.685678 199.887381 
L 148.499228 196.587291 
L 149.312779 197.054528 
L 152.566981 197.054528 
L 153.380532 202.6077 
L 154.194082 201.59028 
L 155.007633 202.04501 
L 159.075386 202.04501 
L 159.888937 203.984107 
L 160.702487 200.39414 
L 161.516038 200.641724 
L 162.329588 201.098826 
L 172.092196 201.098826 
L 172.905746 202.415835 
L 173.719297 202.784857 
L 174.532847 194.174353 
L 175.346398 194.647623 
L 177.78705 194.647623 
L 178.6006 195.247936 
L 179.414151 197.299538 
L 180.227702 207.172873 
L 181.041252 207.613647 
L 184.295455 207.613647 
L 185.109005 201.411558 
L 185.922556 197.657519 
L 186.736106 194.914183 
L 187.549657 193.614709 
L 188.363208 196.646817 
L 189.176758 197.113906 
L 189.990309 196.2727 
L 190.803859 196.740724 
L 192.430961 196.740724 
L 193.244511 198.653812 
L 194.058062 199.232305 
L 194.871612 198.509188 
L 195.685163 201.401655 
L 196.498714 197.496825 
L 197.312264 197.352201 
L 198.125815 200.100045 
L 198.939365 197.062955 
L 199.752916 195.616722 
L 200.566467 188.964048 
L 201.380017 192.145762 
L 202.193568 192.145762 
L 203.007118 192.001138 
L 203.820669 188.240932 
L 204.63422 188.729035 
L 209.515523 188.729035 
L 210.329074 192.129916 
L 211.142624 194.350105 
L 211.956175 198.929244 
L 212.769726 199.900577 
L 213.583276 200.316862 
L 215.210377 196.015247 
L 216.023928 197.541626 
L 216.837479 204.202193 
L 217.651029 203.647145 
L 218.46458 202.537051 
L 219.27813 203.092098 
L 220.091681 198.998733 
L 220.905232 199.986787 
L 221.718782 195.469971 
L 222.532333 192.22351 
L 223.345883 192.36466 
L 224.159434 191.941209 
L 224.972985 191.658908 
L 225.786535 191.235456 
L 226.600086 190.529704 
L 227.413636 193.070413 
L 228.227187 198.857583 
L 229.040738 200.127937 
L 229.854288 202.527496 
L 230.667839 201.539442 
L 231.481389 202.104044 
L 232.29494 203.374399 
L 233.108491 202.809797 
L 233.922041 205.068205 
L 234.735592 205.632807 
L 235.549142 202.809797 
L 236.362693 202.809797 
L 237.176244 203.261478 
L 237.989794 199.217771 
L 238.803345 199.678432 
L 244.498199 199.767799 
L 245.31175 200.227085 
L 255.074357 200.227085 
L 255.887907 201.095389 
L 256.701458 197.677341 
L 257.515009 191.524855 
L 258.328559 192.004749 
L 259.95566 192.004749 
L 260.769211 188.99806 
L 261.582762 186.488584 
L 262.396312 183.003201 
L 263.209863 185.791508 
L 264.023413 181.748463 
L 264.836964 171.71056 
L 265.650515 172.268222 
L 266.464065 172.965298 
L 267.277616 180.07548 
L 268.091166 182.027294 
L 268.904717 181.887879 
L 269.718268 179.936064 
L 270.531818 183.142617 
L 271.345369 181.887879 
L 272.158919 172.547052 
L 272.97247 173.244129 
L 273.786021 173.769725 
L 274.599571 171.806958 
L 275.413122 177.610071 
L 276.226672 176.781055 
L 277.040223 177.057394 
L 277.853774 170.287095 
L 278.667324 173.326821 
L 279.480875 171.530619 
L 280.294425 176.090208 
L 281.107976 176.608689 
L 281.921527 176.451505 
L 282.735077 175.237643 
L 283.548628 173.484287 
L 284.362178 166.740609 
L 285.175729 169.572953 
L 285.98928 173.484287 
L 286.80283 172.675045 
L 287.616381 179.553597 
L 288.429931 178.609482 
L 289.243482 176.991 
L 290.057033 183.869551 
L 290.870583 178.87923 
L 291.684134 178.744356 
L 292.497684 169.033459 
L 293.311235 166.875482 
L 294.124786 167.280103 
L 295.751887 152.848631 
L 296.565437 147.723436 
L 297.378988 146.914194 
L 298.192539 141.923872 
L 299.006089 146.644447 
L 299.81964 138.956654 
L 300.63319 144.756217 
L 301.446741 143.946976 
L 302.260292 145.700332 
L 303.073842 143.812102 
L 303.887393 144.411278 
L 308.768696 144.411278 
L 309.582247 141.399772 
L 310.395798 145.409976 
L 311.209348 147.415078 
L 312.022899 153.831405 
L 312.836449 151.291609 
L 313.65 145.142629 
L 314.463551 136.721201 
L 316.090652 137.82321 
L 316.904202 127.923899 
L 317.717753 131.310506 
L 318.531304 135.218129 
L 319.344854 129.486949 
L 320.158405 126.881867 
L 320.971955 126.36085 
L 321.785506 122.322973 
L 322.599057 127.793645 
L 323.412607 128.965932 
L 324.226158 132.09203 
L 325.039708 137.17194 
L 325.853259 139.777022 
L 326.66681 139.777022 
L 327.48036 140.558546 
L 328.293911 142.25185 
L 329.107461 137.562702 
L 329.921012 139.38626 
L 330.734563 135.869399 
L 331.548113 136.650924 
L 332.361664 144.335915 
L 333.175214 145.377948 
L 333.988765 150.327603 
L 334.802316 149.025062 
L 335.615866 145.638456 
L 336.429417 148.504046 
L 337.242967 137.953465 
L 338.056518 133.785334 
L 338.870069 133.394571 
L 339.683619 131.571014 
L 340.49717 141.209817 
L 341.31072 146.810743 
L 342.124271 128.705424 
L 342.937822 124.276785 
L 343.751372 124.928055 
L 344.564923 118.024588 
L 345.378473 109.948835 
L 346.192024 113.856457 
L 347.005575 120.759924 
L 347.819125 121.416731 
L 351.886878 121.416731 
L 352.700429 116.613482 
L 353.513979 117.280654 
L 359.208834 117.280654 
L 360.022384 114.384087 
L 360.835935 115.787327 
L 361.649485 118.162042 
L 362.463036 126.365601 
L 363.276587 121.184406 
L 364.090137 121.840151 
L 366.530789 121.840151 
L 367.34434 123.318678 
L 368.15789 131.680663 
L 368.971441 130.856242 
L 369.784991 128.500753 
L 370.598542 112.483428 
L 371.412093 113.160926 
L 374.666295 113.160926 
L 375.479846 102.337134 
L 376.293396 99.561369 
L 377.106947 97.975218 
L 377.920497 97.182142 
L 378.734048 103.262388 
L 379.547599 96.256887 
L 380.361149 112.911475 
L 381.1747 98.636114 
L 381.98825 102.865851 
L 382.801801 112.118399 
L 383.615352 109.210455 
L 386.056003 93.613302 
L 386.869554 92.555868 
L 387.683105 95.595991 
L 388.496655 99.29701 
L 389.310206 96.917784 
L 390.123756 97.446501 
L 390.937307 98.503935 
L 391.750858 101.940596 
L 392.564408 109.871352 
L 393.377959 108.813918 
L 394.191509 110.267889 
L 395.00506 114.365447 
L 395.818611 115.687239 
L 396.632161 103.923285 
L 397.445712 96.785604 
L 398.259262 79.337941 
L 399.072813 79.734479 
L 399.886364 75.636922 
L 400.699914 80.263196 
L 401.513465 80.263196 
L 402.327015 74.843847 
L 403.140566 71.671544 
L 403.954117 75.636922 
L 404.767667 72.861158 
L 405.581218 65.591298 
L 406.394768 66.386026 
L 407.208319 66.386026 
L 408.02187 66.909916 
L 408.83542 73.362349 
L 409.648971 67.53659 
L 411.276072 59.678588 
L 412.089623 63.743072 
L 412.903173 60.762451 
L 413.716724 65.233382 
L 414.530274 65.368865 
L 415.343825 50.194794 
L 416.157376 44.64 
L 416.970926 47.620621 
L 419.411578 59.407623 
L 420.225129 59.814071 
L 421.038679 61.439865 
L 421.85223 51.007691 
L 422.66578 54.259277 
L 423.479331 51.143173 
L 424.292882 49.51738 
L 425.106432 55.614105 
L 425.919983 66.859176 
L 426.733533 68.891417 
L 427.547084 68.349486 
L 428.360635 70.517211 
L 429.987736 83.252592 
L 430.801286 72.278487 
L 431.614837 69.97528 
L 432.428388 70.788176 
L 433.241938 66.994658 
L 434.055489 74.85266 
L 434.869039 80.813902 
L 435.68259 77.020384 
L 436.496141 69.162383 
L 437.309691 87.994489 
L 438.123242 84.60742 
L 438.936792 74.85266 
L 439.750343 77.968764 
L 440.563894 92.058973 
L 441.377444 95.310559 
L 442.190995 96.80087 
L 443.004545 97.517574 
L 443.818096 103.094701 
L 444.631647 91.47941 
L 445.445197 95.261132 
L 446.258748 95.981686 
L 452.767153 95.981686 
L 453.580703 101.011748 
L 454.394254 95.902047 
L 455.207804 97.818185 
L 456.021355 99.09561 
L 456.834906 99.806577 
L 461.716209 99.806577 
L 462.52976 99.662172 
L 463.34331 103.645614 
L 464.156861 90.130364 
L 464.970412 90.863744 
L 468.224614 90.863744 
L 469.038165 102.259226 
L 469.851715 103.325619 
L 470.665266 113.532529 
L 471.478816 112.313793 
L 472.292367 112.991715 
L 474.733019 112.991715 
L 475.546569 102.114909 
L 476.36012 102.26115 
L 477.173671 105.624691 
L 477.987221 82.664868 
L 478.800772 83.416911 
L 487.749828 83.416911 
L 488.563379 72.314655 
L 489.37693 59.627556 
L 490.19048 60.437194 
L 492.631132 60.437194 
L 493.444683 67.309299 
L 494.258233 62.719954 
L 495.071784 68.128825 
L 495.885334 55.67203 
L 496.698885 55.016409 
L 497.512436 53.705168 
L 498.325986 54.852504 
L 499.139537 56.983272 
L 500.766638 63.86729 
L 501.580189 65.670247 
L 502.393739 85.502776 
L 504.02084 90.583838 
L 505.647942 97.959572 
L 506.461492 96.156614 
L 507.275043 98.287382 
L 508.088593 82.716388 
L 508.902144 84.02763 
L 509.715695 81.405146 
L 510.529245 84.847156 
L 511.342796 86.650113 
L 512.156346 91.731174 
L 512.969897 85.994492 
L 513.783448 86.738212 
L 516.224099 86.738212 
L 517.03765 89.154294 
L 518.664751 91.498204 
L 519.478302 88.149761 
L 520.291852 88.986872 
L 521.105403 87.982339 
L 521.918954 80.448342 
L 522.732504 74.421145 
L 523.546055 74.253723 
L 524.359605 70.403013 
L 525.173156 75.760522 
L 525.986707 77.602166 
L 526.800257 89.154294 
L 527.613808 89.65656 
L 528.427358 86.810384 
L 529.240909 89.321716 
L 529.240909 89.321716 
" clip-path="url(#p3859c1e94f)" style="fill: none; stroke: #ff0000; stroke-width: 1.5; stroke-linecap: square"/>
   </g>
   <g id="patch_3">
    <path d="M 76.5 256.32 
L 76.5 34.56 
" style="fill: none; stroke: #000000; stroke-width: 0.8; stroke-linejoin: miter; stroke-linecap: square"/>
   </g>
   <g id="patch_4">
    <path d="M 550.8 256.32 
L 550.8 34.56 
" style="fill: none; stroke: #000000; stroke-width: 0.8; stroke-linejoin: miter; stroke-linecap: square"/>
   </g>
   <g id="patch_5">
    <path d="M 76.5 256.32 
L 550.8 256.32 
" style="fill: none; stroke: #000000; stroke-width: 0.8; stroke-linejoin: miter; stroke-linecap: square"/>
   </g>
   <g id="patch_6">
    <path d="M 76.5 34.56 
L 550.8 34.56 
" style="fill: none; stroke: #000000; stroke-width: 0.8; stroke-linejoin: miter; stroke-linecap: square"/>
   </g>
   <g id="legend_1">
    <g id="patch_7">
     <path d="M 83.5 113.255313 
L 157.728125 113.255313 
Q 159.728125 113.255313 159.728125 111.255313 
L 159.728125 41.56 
Q 159.728125 39.56 157.728125 39.56 
L 83.5 39.56 
Q 81.5 39.56 81.5 41.56 
L 81.5 111.255313 
Q 81.5 113.255313 83.5 113.255313 
z
" style="fill: #ffffff; opacity: 0.8; stroke: #cccccc; stroke-linejoin: miter"/>
    </g>
    <g id="line2d_32">
     <path d="M 85.5 47.06 
L 95.5 47.06 
L 105.5 47.06 
" style="fill: none; stroke: #ffa500; stroke-width: 1.5; stroke-linecap: square"/>
    </g>
    <g id="text_16">
     <!-- Market -->
     <g transform="translate(113.5 50.56)scale(0.1 -0.1)">
      <defs>
       <path id="TimesNewRomanPSMT-4d" d="M 2619 0 
L 981 3566 
L 981 734 
Q 981 344 1066 247 
Q 1181 116 1431 116 
L 1581 116 
L 1581 0 
L 106 0 
L 106 116 
L 256 116 
Q 525 116 638 278 
Q 706 378 706 734 
L 706 3503 
Q 706 3784 644 3909 
Q 600 4000 483 4061 
Q 366 4122 106 4122 
L 106 4238 
L 1306 4238 
L 2844 922 
L 4356 4238 
L 5556 4238 
L 5556 4122 
L 5409 4122 
Q 5138 4122 5025 3959 
Q 4956 3859 4956 3503 
L 4956 734 
Q 4956 344 5044 247 
Q 5159 116 5409 116 
L 5556 116 
L 5556 0 
L 3756 0 
L 3756 116 
L 3906 116 
Q 4178 116 4288 278 
Q 4356 378 4356 734 
L 4356 3566 
L 2722 0 
L 2619 0 
z
" transform="scale(0.015625)"/>
       <path id="TimesNewRomanPSMT-61" d="M 1822 413 
Q 1381 72 1269 19 
Q 1100 -59 909 -59 
Q 613 -59 420 144 
Q 228 347 228 678 
Q 228 888 322 1041 
Q 450 1253 767 1440 
Q 1084 1628 1822 1897 
L 1822 2009 
Q 1822 2438 1686 2597 
Q 1550 2756 1291 2756 
Q 1094 2756 978 2650 
Q 859 2544 859 2406 
L 866 2225 
Q 866 2081 792 2003 
Q 719 1925 600 1925 
Q 484 1925 411 2006 
Q 338 2088 338 2228 
Q 338 2497 613 2722 
Q 888 2947 1384 2947 
Q 1766 2947 2009 2819 
Q 2194 2722 2281 2516 
Q 2338 2381 2338 1966 
L 2338 994 
Q 2338 584 2353 492 
Q 2369 400 2405 369 
Q 2441 338 2488 338 
Q 2538 338 2575 359 
Q 2641 400 2828 588 
L 2828 413 
Q 2478 -56 2159 -56 
Q 2006 -56 1915 50 
Q 1825 156 1822 413 
z
M 1822 616 
L 1822 1706 
Q 1350 1519 1213 1441 
Q 966 1303 859 1153 
Q 753 1003 753 825 
Q 753 600 887 451 
Q 1022 303 1197 303 
Q 1434 303 1822 616 
z
" transform="scale(0.015625)"/>
       <path id="TimesNewRomanPSMT-72" d="M 1038 2947 
L 1038 2303 
Q 1397 2947 1775 2947 
Q 1947 2947 2059 2842 
Q 2172 2738 2172 2600 
Q 2172 2478 2090 2393 
Q 2009 2309 1897 2309 
Q 1788 2309 1652 2417 
Q 1516 2525 1450 2525 
Q 1394 2525 1328 2463 
Q 1188 2334 1038 2041 
L 1038 669 
Q 1038 431 1097 309 
Q 1138 225 1241 169 
Q 1344 113 1538 113 
L 1538 0 
L 72 0 
L 72 113 
Q 291 113 397 181 
Q 475 231 506 341 
Q 522 394 522 644 
L 522 1753 
Q 522 2253 501 2348 
Q 481 2444 426 2487 
Q 372 2531 291 2531 
Q 194 2531 72 2484 
L 41 2597 
L 906 2947 
L 1038 2947 
z
" transform="scale(0.015625)"/>
       <path id="TimesNewRomanPSMT-6b" d="M 1047 4444 
L 1047 1597 
L 1775 2259 
Q 2006 2472 2044 2528 
Q 2069 2566 2069 2603 
Q 2069 2666 2017 2711 
Q 1966 2756 1847 2763 
L 1847 2863 
L 3091 2863 
L 3091 2763 
Q 2834 2756 2664 2684 
Q 2494 2613 2291 2428 
L 1556 1750 
L 2291 822 
Q 2597 438 2703 334 
Q 2853 188 2966 144 
Q 3044 113 3238 113 
L 3238 0 
L 1847 0 
L 1847 113 
Q 1966 116 2008 148 
Q 2050 181 2050 241 
Q 2050 313 1925 472 
L 1047 1594 
L 1047 644 
Q 1047 366 1086 278 
Q 1125 191 1197 153 
Q 1269 116 1509 113 
L 1509 0 
L 53 0 
L 53 113 
Q 272 113 381 166 
Q 447 200 481 272 
Q 528 375 528 628 
L 528 3234 
Q 528 3731 506 3842 
Q 484 3953 434 3995 
Q 384 4038 303 4038 
Q 238 4038 106 3984 
L 53 4094 
L 903 4444 
L 1047 4444 
z
" transform="scale(0.015625)"/>
       <path id="TimesNewRomanPSMT-65" d="M 681 1784 
Q 678 1147 991 784 
Q 1303 422 1725 422 
Q 2006 422 2214 576 
Q 2422 731 2563 1106 
L 2659 1044 
Q 2594 616 2278 264 
Q 1963 -88 1488 -88 
Q 972 -88 605 314 
Q 238 716 238 1394 
Q 238 2128 614 2539 
Q 991 2950 1559 2950 
Q 2041 2950 2350 2633 
Q 2659 2316 2659 1784 
L 681 1784 
z
M 681 1966 
L 2006 1966 
Q 1991 2241 1941 2353 
Q 1863 2528 1708 2628 
Q 1553 2728 1384 2728 
Q 1125 2728 920 2526 
Q 716 2325 681 1966 
z
" transform="scale(0.015625)"/>
       <path id="TimesNewRomanPSMT-74" d="M 1031 3803 
L 1031 2863 
L 1700 2863 
L 1700 2644 
L 1031 2644 
L 1031 788 
Q 1031 509 1111 412 
Q 1191 316 1316 316 
Q 1419 316 1516 380 
Q 1613 444 1666 569 
L 1788 569 
Q 1678 263 1478 108 
Q 1278 -47 1066 -47 
Q 922 -47 784 33 
Q 647 113 581 261 
Q 516 409 516 719 
L 516 2644 
L 63 2644 
L 63 2747 
Q 234 2816 414 2980 
Q 594 3144 734 3369 
Q 806 3488 934 3803 
L 1031 3803 
z
" transform="scale(0.015625)"/>
      </defs>
      <use xlink:href="#TimesNewRomanPSMT-4d"/>
      <use xlink:href="#TimesNewRomanPSMT-61" x="88.916016"/>
      <use xlink:href="#TimesNewRomanPSMT-72" x="133.300781"/>
      <use xlink:href="#TimesNewRomanPSMT-6b" x="166.601562"/>
      <use xlink:href="#TimesNewRomanPSMT-65" x="216.601562"/>
      <use xlink:href="#TimesNewRomanPSMT-74" x="260.986328"/>
     </g>
    </g>
    <g id="line2d_33">
     <path d="M 85.5 61.199062 
L 95.5 61.199062 
L 105.5 61.199062 
" style="fill: none; stroke: #0000ff; stroke-width: 1.5; stroke-linecap: square"/>
    </g>
    <g id="text_17">
     <!-- BC -->
     <g transform="translate(113.5 64.699062)scale(0.1 -0.1)">
      <defs>
       <path id="TimesNewRomanPSMT-42" d="M 2956 2163 
Q 3397 2069 3616 1863 
Q 3919 1575 3919 1159 
Q 3919 844 3719 555 
Q 3519 266 3170 133 
Q 2822 0 2106 0 
L 106 0 
L 106 116 
L 266 116 
Q 531 116 647 284 
Q 719 394 719 750 
L 719 3488 
Q 719 3881 628 3984 
Q 506 4122 266 4122 
L 106 4122 
L 106 4238 
L 1938 4238 
Q 2450 4238 2759 4163 
Q 3228 4050 3475 3764 
Q 3722 3478 3722 3106 
Q 3722 2788 3528 2536 
Q 3334 2284 2956 2163 
z
M 1319 2331 
Q 1434 2309 1582 2298 
Q 1731 2288 1909 2288 
Q 2366 2288 2595 2386 
Q 2825 2484 2947 2687 
Q 3069 2891 3069 3131 
Q 3069 3503 2766 3765 
Q 2463 4028 1881 4028 
Q 1569 4028 1319 3959 
L 1319 2331 
z
M 1319 306 
Q 1681 222 2034 222 
Q 2600 222 2897 476 
Q 3194 731 3194 1106 
Q 3194 1353 3059 1581 
Q 2925 1809 2622 1940 
Q 2319 2072 1872 2072 
Q 1678 2072 1540 2065 
Q 1403 2059 1319 2044 
L 1319 306 
z
" transform="scale(0.015625)"/>
       <path id="TimesNewRomanPSMT-43" d="M 3853 4334 
L 3950 2894 
L 3853 2894 
Q 3659 3541 3300 3825 
Q 2941 4109 2438 4109 
Q 2016 4109 1675 3895 
Q 1334 3681 1139 3212 
Q 944 2744 944 2047 
Q 944 1472 1128 1050 
Q 1313 628 1683 403 
Q 2053 178 2528 178 
Q 2941 178 3256 354 
Q 3572 531 3950 1056 
L 4047 994 
Q 3728 428 3303 165 
Q 2878 -97 2294 -97 
Q 1241 -97 663 684 
Q 231 1266 231 2053 
Q 231 2688 515 3219 
Q 800 3750 1298 4042 
Q 1797 4334 2388 4334 
Q 2847 4334 3294 4109 
Q 3425 4041 3481 4041 
Q 3566 4041 3628 4100 
Q 3709 4184 3744 4334 
L 3853 4334 
z
" transform="scale(0.015625)"/>
      </defs>
      <use xlink:href="#TimesNewRomanPSMT-42"/>
      <use xlink:href="#TimesNewRomanPSMT-43" x="66.699219"/>
     </g>
    </g>
    <g id="line2d_34">
     <path d="M 85.5 75.338125 
L 95.5 75.338125 
L 105.5 75.338125 
" style="fill: none; stroke: #008000; stroke-width: 1.5; stroke-linecap: square"/>
    </g>
    <g id="text_18">
     <!-- DQN -->
     <g transform="translate(113.5 78.838125)scale(0.1 -0.1)">
      <defs>
       <path id="TimesNewRomanPSMT-44" d="M 109 0 
L 109 116 
L 269 116 
Q 538 116 650 288 
Q 719 391 719 750 
L 719 3488 
Q 719 3884 631 3984 
Q 509 4122 269 4122 
L 109 4122 
L 109 4238 
L 1834 4238 
Q 2784 4238 3279 4022 
Q 3775 3806 4076 3303 
Q 4378 2800 4378 2141 
Q 4378 1256 3841 663 
Q 3238 0 2003 0 
L 109 0 
z
M 1319 306 
Q 1716 219 1984 219 
Q 2709 219 3187 728 
Q 3666 1238 3666 2109 
Q 3666 2988 3187 3494 
Q 2709 4000 1959 4000 
Q 1678 4000 1319 3909 
L 1319 306 
z
" transform="scale(0.015625)"/>
       <path id="TimesNewRomanPSMT-51" d="M 2819 -47 
Q 3138 -597 3508 -856 
Q 3878 -1116 4350 -1153 
L 4350 -1253 
Q 3919 -1238 3428 -1080 
Q 2938 -922 2498 -642 
Q 2059 -363 1741 -47 
Q 1291 134 1028 338 
Q 647 641 436 1083 
Q 225 1525 225 2128 
Q 225 3078 840 3706 
Q 1456 4334 2331 4334 
Q 3163 4334 3770 3704 
Q 4378 3075 4378 2116 
Q 4378 1338 3945 750 
Q 3513 163 2819 -47 
z
M 2294 4094 
Q 1725 4094 1378 3688 
Q 941 3178 941 2128 
Q 941 1100 1384 544 
Q 1728 116 2294 116 
Q 2881 116 3241 544 
Q 3663 1050 3663 2038 
Q 3663 2797 3431 3316 
Q 3253 3716 2958 3905 
Q 2663 4094 2294 4094 
z
" transform="scale(0.015625)"/>
       <path id="TimesNewRomanPSMT-4e" d="M -84 4238 
L 1066 4238 
L 3656 1059 
L 3656 3503 
Q 3656 3894 3569 3991 
Q 3453 4122 3203 4122 
L 3056 4122 
L 3056 4238 
L 4531 4238 
L 4531 4122 
L 4381 4122 
Q 4113 4122 4000 3959 
Q 3931 3859 3931 3503 
L 3931 -69 
L 3819 -69 
L 1025 3344 
L 1025 734 
Q 1025 344 1109 247 
Q 1228 116 1475 116 
L 1625 116 
L 1625 0 
L 150 0 
L 150 116 
L 297 116 
Q 569 116 681 278 
Q 750 378 750 734 
L 750 3681 
Q 566 3897 470 3965 
Q 375 4034 191 4094 
Q 100 4122 -84 4122 
L -84 4238 
z
" transform="scale(0.015625)"/>
      </defs>
      <use xlink:href="#TimesNewRomanPSMT-44"/>
      <use xlink:href="#TimesNewRomanPSMT-51" x="72.216797"/>
      <use xlink:href="#TimesNewRomanPSMT-4e" x="144.433594"/>
     </g>
    </g>
    <g id="line2d_35">
     <path d="M 85.5 89.477188 
L 95.5 89.477188 
L 105.5 89.477188 
" style="fill: none; stroke: #800080; stroke-width: 1.5; stroke-linecap: square"/>
    </g>
    <g id="text_19">
     <!-- DDQN -->
     <g transform="translate(113.5 92.977188)scale(0.1 -0.1)">
      <use xlink:href="#TimesNewRomanPSMT-44"/>
      <use xlink:href="#TimesNewRomanPSMT-44" x="72.216797"/>
      <use xlink:href="#TimesNewRomanPSMT-51" x="144.433594"/>
      <use xlink:href="#TimesNewRomanPSMT-4e" x="216.650391"/>
     </g>
    </g>
    <g id="line2d_36">
     <path d="M 85.5 103.61625 
L 95.5 103.61625 
L 105.5 103.61625 
" style="fill: none; stroke: #ff0000; stroke-width: 1.5; stroke-linecap: square"/>
    </g>
    <g id="text_20">
     <!-- BCDDQN -->
     <g transform="translate(113.5 107.11625)scale(0.1 -0.1)">
      <use xlink:href="#TimesNewRomanPSMT-42"/>
      <use xlink:href="#TimesNewRomanPSMT-43" x="66.699219"/>
      <use xlink:href="#TimesNewRomanPSMT-44" x="133.398438"/>
      <use xlink:href="#TimesNewRomanPSMT-44" x="205.615234"/>
      <use xlink:href="#TimesNewRomanPSMT-51" x="277.832031"/>
      <use xlink:href="#TimesNewRomanPSMT-4e" x="350.048828"/>
     </g>
    </g>
   </g>
  </g>
 </g>
 <defs>
  <clipPath id="p3859c1e94f">
   <rect x="76.5" y="34.56" width="474.3" height="221.76"/>
  </clipPath>
 </defs>
</svg>
