<?xml version="1.0" encoding="utf-8" standalone="no"?>
<!DOCTYPE svg PUBLIC "-//W3C//DTD SVG 1.1//EN"
  "http://www.w3.org/Graphics/SVG/1.1/DTD/svg11.dtd">
<svg xmlns:xlink="http://www.w3.org/1999/xlink" width="612pt" height="288pt" viewBox="0 0 612 288" xmlns="http://www.w3.org/2000/svg" version="1.1">
 <metadata>
  <rdf:RDF xmlns:dc="http://purl.org/dc/elements/1.1/" xmlns:cc="http://creativecommons.org/ns#" xmlns:rdf="http://www.w3.org/1999/02/22-rdf-syntax-ns#">
   <cc:Work>
    <dc:type rdf:resource="http://purl.org/dc/dcmitype/StillImage"/>
    <dc:date>2022-11-04T14:35:31.084465</dc:date>
    <dc:format>image/svg+xml</dc:format>
    <dc:creator>
     <cc:Agent>
      <dc:title>Matplotlib v3.5.1, https://matplotlib.org/</dc:title>
     </cc:Agent>
    </dc:creator>
   </cc:Work>
  </rdf:RDF>
 </metadata>
 <defs>
  <style type="text/css">*{stroke-linejoin: round; stroke-linecap: butt}</style>
 </defs>
 <g id="figure_1">
  <g id="patch_1">
   <path d="M 0 288 
L 612 288 
L 612 0 
L 0 0 
z
" style="fill: #ffffff"/>
  </g>
  <g id="axes_1">
   <g id="patch_2">
    <path d="M 76.5 256.32 
L 550.8 256.32 
L 550.8 34.56 
L 76.5 34.56 
z
" style="fill: #ffffff"/>
   </g>
   <g id="matplotlib.axis_1">
    <g id="xtick_1">
     <g id="line2d_1">
      <path d="M 98.059091 256.32 
L 98.059091 34.56 
" clip-path="url(#p8f95118e01)" style="fill: none; stroke: #b0b0b0; stroke-width: 0.8; stroke-linecap: square"/>
     </g>
     <g id="line2d_2">
      <defs>
       <path id="m8ee77f61b4" d="M 0 0 
L 0 -3.5 
" style="stroke: #000000; stroke-width: 0.8"/>
      </defs>
      <g>
       <use xlink:href="#m8ee77f61b4" x="98.059091" y="256.32" style="stroke: #000000; stroke-width: 0.8"/>
      </g>
     </g>
     <g id="text_1">
      <!-- 2019-10-16 -->
      <g transform="translate(74.729403 266.76375)scale(0.1 -0.1)">
       <defs>
        <path id="TimesNewRomanPSMT-32" d="M 2934 816 
L 2638 0 
L 138 0 
L 138 116 
Q 1241 1122 1691 1759 
Q 2141 2397 2141 2925 
Q 2141 3328 1894 3587 
Q 1647 3847 1303 3847 
Q 991 3847 742 3664 
Q 494 3481 375 3128 
L 259 3128 
Q 338 3706 661 4015 
Q 984 4325 1469 4325 
Q 1984 4325 2329 3994 
Q 2675 3663 2675 3213 
Q 2675 2891 2525 2569 
Q 2294 2063 1775 1497 
Q 997 647 803 472 
L 1909 472 
Q 2247 472 2383 497 
Q 2519 522 2628 598 
Q 2738 675 2819 816 
L 2934 816 
z
" transform="scale(0.015625)"/>
        <path id="TimesNewRomanPSMT-30" d="M 231 2094 
Q 231 2819 450 3342 
Q 669 3866 1031 4122 
Q 1313 4325 1613 4325 
Q 2100 4325 2488 3828 
Q 2972 3213 2972 2159 
Q 2972 1422 2759 906 
Q 2547 391 2217 158 
Q 1888 -75 1581 -75 
Q 975 -75 572 641 
Q 231 1244 231 2094 
z
M 844 2016 
Q 844 1141 1059 588 
Q 1238 122 1591 122 
Q 1759 122 1940 273 
Q 2122 425 2216 781 
Q 2359 1319 2359 2297 
Q 2359 3022 2209 3506 
Q 2097 3866 1919 4016 
Q 1791 4119 1609 4119 
Q 1397 4119 1231 3928 
Q 1006 3669 925 3112 
Q 844 2556 844 2016 
z
" transform="scale(0.015625)"/>
        <path id="TimesNewRomanPSMT-31" d="M 750 3822 
L 1781 4325 
L 1884 4325 
L 1884 747 
Q 1884 391 1914 303 
Q 1944 216 2037 169 
Q 2131 122 2419 116 
L 2419 0 
L 825 0 
L 825 116 
Q 1125 122 1212 167 
Q 1300 213 1334 289 
Q 1369 366 1369 747 
L 1369 3034 
Q 1369 3497 1338 3628 
Q 1316 3728 1258 3775 
Q 1200 3822 1119 3822 
Q 1003 3822 797 3725 
L 750 3822 
z
" transform="scale(0.015625)"/>
        <path id="TimesNewRomanPSMT-39" d="M 338 -88 
L 338 28 
Q 744 34 1094 217 
Q 1444 400 1770 856 
Q 2097 1313 2225 1859 
Q 1734 1544 1338 1544 
Q 891 1544 572 1889 
Q 253 2234 253 2806 
Q 253 3363 572 3797 
Q 956 4325 1575 4325 
Q 2097 4325 2469 3894 
Q 2925 3359 2925 2575 
Q 2925 1869 2578 1258 
Q 2231 647 1613 244 
Q 1109 -88 516 -88 
L 338 -88 
z
M 2275 2091 
Q 2331 2497 2331 2741 
Q 2331 3044 2228 3395 
Q 2125 3747 1936 3934 
Q 1747 4122 1506 4122 
Q 1228 4122 1018 3872 
Q 809 3622 809 3128 
Q 809 2469 1088 2097 
Q 1291 1828 1588 1828 
Q 1731 1828 1928 1897 
Q 2125 1966 2275 2091 
z
" transform="scale(0.015625)"/>
        <path id="TimesNewRomanPSMT-2d" d="M 259 1672 
L 1875 1672 
L 1875 1200 
L 259 1200 
L 259 1672 
z
" transform="scale(0.015625)"/>
        <path id="TimesNewRomanPSMT-36" d="M 2869 4325 
L 2869 4209 
Q 2456 4169 2195 4045 
Q 1934 3922 1679 3669 
Q 1425 3416 1258 3105 
Q 1091 2794 978 2366 
Q 1428 2675 1881 2675 
Q 2316 2675 2634 2325 
Q 2953 1975 2953 1425 
Q 2953 894 2631 456 
Q 2244 -75 1606 -75 
Q 1172 -75 869 213 
Q 275 772 275 1663 
Q 275 2231 503 2743 
Q 731 3256 1154 3653 
Q 1578 4050 1965 4187 
Q 2353 4325 2688 4325 
L 2869 4325 
z
M 925 2138 
Q 869 1716 869 1456 
Q 869 1156 980 804 
Q 1091 453 1309 247 
Q 1469 100 1697 100 
Q 1969 100 2183 356 
Q 2397 613 2397 1088 
Q 2397 1622 2184 2012 
Q 1972 2403 1581 2403 
Q 1463 2403 1327 2353 
Q 1191 2303 925 2138 
z
" transform="scale(0.015625)"/>
       </defs>
       <use xlink:href="#TimesNewRomanPSMT-32"/>
       <use xlink:href="#TimesNewRomanPSMT-30" x="50"/>
       <use xlink:href="#TimesNewRomanPSMT-31" x="100"/>
       <use xlink:href="#TimesNewRomanPSMT-39" x="150"/>
       <use xlink:href="#TimesNewRomanPSMT-2d" x="200"/>
       <use xlink:href="#TimesNewRomanPSMT-31" x="233.300781"/>
       <use xlink:href="#TimesNewRomanPSMT-30" x="283.300781"/>
       <use xlink:href="#TimesNewRomanPSMT-2d" x="333.300781"/>
       <use xlink:href="#TimesNewRomanPSMT-31" x="366.601562"/>
       <use xlink:href="#TimesNewRomanPSMT-36" x="416.601562"/>
      </g>
     </g>
    </g>
    <g id="xtick_2">
     <g id="line2d_3">
      <path d="M 155.007633 256.32 
L 155.007633 34.56 
" clip-path="url(#p8f95118e01)" style="fill: none; stroke: #b0b0b0; stroke-width: 0.8; stroke-linecap: square"/>
     </g>
     <g id="line2d_4">
      <g>
       <use xlink:href="#m8ee77f61b4" x="155.007633" y="256.32" style="stroke: #000000; stroke-width: 0.8"/>
      </g>
     </g>
     <g id="text_2">
      <!-- 2020-01-23 -->
      <g transform="translate(131.677945 266.76375)scale(0.1 -0.1)">
       <defs>
        <path id="TimesNewRomanPSMT-33" d="M 325 3431 
Q 506 3859 782 4092 
Q 1059 4325 1472 4325 
Q 1981 4325 2253 3994 
Q 2459 3747 2459 3466 
Q 2459 3003 1878 2509 
Q 2269 2356 2469 2072 
Q 2669 1788 2669 1403 
Q 2669 853 2319 450 
Q 1863 -75 997 -75 
Q 569 -75 414 31 
Q 259 138 259 259 
Q 259 350 332 419 
Q 406 488 509 488 
Q 588 488 669 463 
Q 722 447 909 348 
Q 1097 250 1169 231 
Q 1284 197 1416 197 
Q 1734 197 1970 444 
Q 2206 691 2206 1028 
Q 2206 1275 2097 1509 
Q 2016 1684 1919 1775 
Q 1784 1900 1550 2001 
Q 1316 2103 1072 2103 
L 972 2103 
L 972 2197 
Q 1219 2228 1467 2375 
Q 1716 2522 1828 2728 
Q 1941 2934 1941 3181 
Q 1941 3503 1739 3701 
Q 1538 3900 1238 3900 
Q 753 3900 428 3381 
L 325 3431 
z
" transform="scale(0.015625)"/>
       </defs>
       <use xlink:href="#TimesNewRomanPSMT-32"/>
       <use xlink:href="#TimesNewRomanPSMT-30" x="50"/>
       <use xlink:href="#TimesNewRomanPSMT-32" x="100"/>
       <use xlink:href="#TimesNewRomanPSMT-30" x="150"/>
       <use xlink:href="#TimesNewRomanPSMT-2d" x="200"/>
       <use xlink:href="#TimesNewRomanPSMT-30" x="233.300781"/>
       <use xlink:href="#TimesNewRomanPSMT-31" x="283.300781"/>
       <use xlink:href="#TimesNewRomanPSMT-2d" x="333.300781"/>
       <use xlink:href="#TimesNewRomanPSMT-32" x="366.601562"/>
       <use xlink:href="#TimesNewRomanPSMT-33" x="416.601562"/>
      </g>
     </g>
    </g>
    <g id="xtick_3">
     <g id="line2d_5">
      <path d="M 211.956175 256.32 
L 211.956175 34.56 
" clip-path="url(#p8f95118e01)" style="fill: none; stroke: #b0b0b0; stroke-width: 0.8; stroke-linecap: square"/>
     </g>
     <g id="line2d_6">
      <g>
       <use xlink:href="#m8ee77f61b4" x="211.956175" y="256.32" style="stroke: #000000; stroke-width: 0.8"/>
      </g>
     </g>
     <g id="text_3">
      <!-- 2020-05-14 -->
      <g transform="translate(188.626487 266.76375)scale(0.1 -0.1)">
       <defs>
        <path id="TimesNewRomanPSMT-35" d="M 2778 4238 
L 2534 3706 
L 1259 3706 
L 981 3138 
Q 1809 3016 2294 2522 
Q 2709 2097 2709 1522 
Q 2709 1188 2573 903 
Q 2438 619 2231 419 
Q 2025 219 1772 97 
Q 1413 -75 1034 -75 
Q 653 -75 479 54 
Q 306 184 306 341 
Q 306 428 378 495 
Q 450 563 559 563 
Q 641 563 702 538 
Q 763 513 909 409 
Q 1144 247 1384 247 
Q 1750 247 2026 523 
Q 2303 800 2303 1197 
Q 2303 1581 2056 1914 
Q 1809 2247 1375 2428 
Q 1034 2569 447 2591 
L 1259 4238 
L 2778 4238 
z
" transform="scale(0.015625)"/>
        <path id="TimesNewRomanPSMT-34" d="M 2978 1563 
L 2978 1119 
L 2409 1119 
L 2409 0 
L 1894 0 
L 1894 1119 
L 100 1119 
L 100 1519 
L 2066 4325 
L 2409 4325 
L 2409 1563 
L 2978 1563 
z
M 1894 1563 
L 1894 3666 
L 406 1563 
L 1894 1563 
z
" transform="scale(0.015625)"/>
       </defs>
       <use xlink:href="#TimesNewRomanPSMT-32"/>
       <use xlink:href="#TimesNewRomanPSMT-30" x="50"/>
       <use xlink:href="#TimesNewRomanPSMT-32" x="100"/>
       <use xlink:href="#TimesNewRomanPSMT-30" x="150"/>
       <use xlink:href="#TimesNewRomanPSMT-2d" x="200"/>
       <use xlink:href="#TimesNewRomanPSMT-30" x="233.300781"/>
       <use xlink:href="#TimesNewRomanPSMT-35" x="283.300781"/>
       <use xlink:href="#TimesNewRomanPSMT-2d" x="333.300781"/>
       <use xlink:href="#TimesNewRomanPSMT-31" x="366.601562"/>
       <use xlink:href="#TimesNewRomanPSMT-34" x="416.601562"/>
      </g>
     </g>
    </g>
    <g id="xtick_4">
     <g id="line2d_7">
      <path d="M 268.904717 256.32 
L 268.904717 34.56 
" clip-path="url(#p8f95118e01)" style="fill: none; stroke: #b0b0b0; stroke-width: 0.8; stroke-linecap: square"/>
     </g>
     <g id="line2d_8">
      <g>
       <use xlink:href="#m8ee77f61b4" x="268.904717" y="256.32" style="stroke: #000000; stroke-width: 0.8"/>
      </g>
     </g>
     <g id="text_4">
      <!-- 2020-08-24 -->
      <g transform="translate(245.575029 266.76375)scale(0.1 -0.1)">
       <defs>
        <path id="TimesNewRomanPSMT-38" d="M 1228 2134 
Q 725 2547 579 2797 
Q 434 3047 434 3316 
Q 434 3728 753 4026 
Q 1072 4325 1600 4325 
Q 2113 4325 2425 4047 
Q 2738 3769 2738 3413 
Q 2738 3175 2569 2928 
Q 2400 2681 1866 2347 
Q 2416 1922 2594 1678 
Q 2831 1359 2831 1006 
Q 2831 559 2490 242 
Q 2150 -75 1597 -75 
Q 994 -75 656 303 
Q 388 606 388 966 
Q 388 1247 577 1523 
Q 766 1800 1228 2134 
z
M 1719 2469 
Q 2094 2806 2194 3001 
Q 2294 3197 2294 3444 
Q 2294 3772 2109 3958 
Q 1925 4144 1606 4144 
Q 1288 4144 1088 3959 
Q 888 3775 888 3528 
Q 888 3366 970 3203 
Q 1053 3041 1206 2894 
L 1719 2469 
z
M 1375 2016 
Q 1116 1797 991 1539 
Q 866 1281 866 981 
Q 866 578 1086 336 
Q 1306 94 1647 94 
Q 1984 94 2187 284 
Q 2391 475 2391 747 
Q 2391 972 2272 1150 
Q 2050 1481 1375 2016 
z
" transform="scale(0.015625)"/>
       </defs>
       <use xlink:href="#TimesNewRomanPSMT-32"/>
       <use xlink:href="#TimesNewRomanPSMT-30" x="50"/>
       <use xlink:href="#TimesNewRomanPSMT-32" x="100"/>
       <use xlink:href="#TimesNewRomanPSMT-30" x="150"/>
       <use xlink:href="#TimesNewRomanPSMT-2d" x="200"/>
       <use xlink:href="#TimesNewRomanPSMT-30" x="233.300781"/>
       <use xlink:href="#TimesNewRomanPSMT-38" x="283.300781"/>
       <use xlink:href="#TimesNewRomanPSMT-2d" x="333.300781"/>
       <use xlink:href="#TimesNewRomanPSMT-32" x="366.601562"/>
       <use xlink:href="#TimesNewRomanPSMT-34" x="416.601562"/>
      </g>
     </g>
    </g>
    <g id="xtick_5">
     <g id="line2d_9">
      <path d="M 325.853259 256.32 
L 325.853259 34.56 
" clip-path="url(#p8f95118e01)" style="fill: none; stroke: #b0b0b0; stroke-width: 0.8; stroke-linecap: square"/>
     </g>
     <g id="line2d_10">
      <g>
       <use xlink:href="#m8ee77f61b4" x="325.853259" y="256.32" style="stroke: #000000; stroke-width: 0.8"/>
      </g>
     </g>
     <g id="text_5">
      <!-- 2020-12-08 -->
      <g transform="translate(302.523572 266.76375)scale(0.1 -0.1)">
       <use xlink:href="#TimesNewRomanPSMT-32"/>
       <use xlink:href="#TimesNewRomanPSMT-30" x="50"/>
       <use xlink:href="#TimesNewRomanPSMT-32" x="100"/>
       <use xlink:href="#TimesNewRomanPSMT-30" x="150"/>
       <use xlink:href="#TimesNewRomanPSMT-2d" x="200"/>
       <use xlink:href="#TimesNewRomanPSMT-31" x="233.300781"/>
       <use xlink:href="#TimesNewRomanPSMT-32" x="283.300781"/>
       <use xlink:href="#TimesNewRomanPSMT-2d" x="333.300781"/>
       <use xlink:href="#TimesNewRomanPSMT-30" x="366.601562"/>
       <use xlink:href="#TimesNewRomanPSMT-38" x="416.601562"/>
      </g>
     </g>
    </g>
    <g id="xtick_6">
     <g id="line2d_11">
      <path d="M 382.801801 256.32 
L 382.801801 34.56 
" clip-path="url(#p8f95118e01)" style="fill: none; stroke: #b0b0b0; stroke-width: 0.8; stroke-linecap: square"/>
     </g>
     <g id="line2d_12">
      <g>
       <use xlink:href="#m8ee77f61b4" x="382.801801" y="256.32" style="stroke: #000000; stroke-width: 0.8"/>
      </g>
     </g>
     <g id="text_6">
      <!-- 2021-03-24 -->
      <g transform="translate(359.472114 266.76375)scale(0.1 -0.1)">
       <use xlink:href="#TimesNewRomanPSMT-32"/>
       <use xlink:href="#TimesNewRomanPSMT-30" x="50"/>
       <use xlink:href="#TimesNewRomanPSMT-32" x="100"/>
       <use xlink:href="#TimesNewRomanPSMT-31" x="150"/>
       <use xlink:href="#TimesNewRomanPSMT-2d" x="200"/>
       <use xlink:href="#TimesNewRomanPSMT-30" x="233.300781"/>
       <use xlink:href="#TimesNewRomanPSMT-33" x="283.300781"/>
       <use xlink:href="#TimesNewRomanPSMT-2d" x="333.300781"/>
       <use xlink:href="#TimesNewRomanPSMT-32" x="366.601562"/>
       <use xlink:href="#TimesNewRomanPSMT-34" x="416.601562"/>
      </g>
     </g>
    </g>
    <g id="xtick_7">
     <g id="line2d_13">
      <path d="M 439.750343 256.32 
L 439.750343 34.56 
" clip-path="url(#p8f95118e01)" style="fill: none; stroke: #b0b0b0; stroke-width: 0.8; stroke-linecap: square"/>
     </g>
     <g id="line2d_14">
      <g>
       <use xlink:href="#m8ee77f61b4" x="439.750343" y="256.32" style="stroke: #000000; stroke-width: 0.8"/>
      </g>
     </g>
     <g id="text_7">
      <!-- 2021-07-07 -->
      <g transform="translate(416.420656 266.76375)scale(0.1 -0.1)">
       <defs>
        <path id="TimesNewRomanPSMT-37" d="M 644 4238 
L 2916 4238 
L 2916 4119 
L 1503 -88 
L 1153 -88 
L 2419 3728 
L 1253 3728 
Q 900 3728 750 3644 
Q 488 3500 328 3200 
L 238 3234 
L 644 4238 
z
" transform="scale(0.015625)"/>
       </defs>
       <use xlink:href="#TimesNewRomanPSMT-32"/>
       <use xlink:href="#TimesNewRomanPSMT-30" x="50"/>
       <use xlink:href="#TimesNewRomanPSMT-32" x="100"/>
       <use xlink:href="#TimesNewRomanPSMT-31" x="150"/>
       <use xlink:href="#TimesNewRomanPSMT-2d" x="200"/>
       <use xlink:href="#TimesNewRomanPSMT-30" x="233.300781"/>
       <use xlink:href="#TimesNewRomanPSMT-37" x="283.300781"/>
       <use xlink:href="#TimesNewRomanPSMT-2d" x="333.300781"/>
       <use xlink:href="#TimesNewRomanPSMT-30" x="366.601562"/>
       <use xlink:href="#TimesNewRomanPSMT-37" x="416.601562"/>
      </g>
     </g>
    </g>
    <g id="xtick_8">
     <g id="line2d_15">
      <path d="M 496.698885 256.32 
L 496.698885 34.56 
" clip-path="url(#p8f95118e01)" style="fill: none; stroke: #b0b0b0; stroke-width: 0.8; stroke-linecap: square"/>
     </g>
     <g id="line2d_16">
      <g>
       <use xlink:href="#m8ee77f61b4" x="496.698885" y="256.32" style="stroke: #000000; stroke-width: 0.8"/>
      </g>
     </g>
     <g id="text_8">
      <!-- 2021-10-22 -->
      <g transform="translate(473.369198 266.76375)scale(0.1 -0.1)">
       <use xlink:href="#TimesNewRomanPSMT-32"/>
       <use xlink:href="#TimesNewRomanPSMT-30" x="50"/>
       <use xlink:href="#TimesNewRomanPSMT-32" x="100"/>
       <use xlink:href="#TimesNewRomanPSMT-31" x="150"/>
       <use xlink:href="#TimesNewRomanPSMT-2d" x="200"/>
       <use xlink:href="#TimesNewRomanPSMT-31" x="233.300781"/>
       <use xlink:href="#TimesNewRomanPSMT-30" x="283.300781"/>
       <use xlink:href="#TimesNewRomanPSMT-2d" x="333.300781"/>
       <use xlink:href="#TimesNewRomanPSMT-32" x="366.601562"/>
       <use xlink:href="#TimesNewRomanPSMT-32" x="416.601562"/>
      </g>
     </g>
    </g>
    <g id="text_9">
     <!-- 时间 -->
     <g transform="translate(303.65 280.67625)scale(0.1 -0.1)">
      <defs>
       <path id="SimSun-65f6" d="M 4500 3600 
Q 4500 4575 4475 5225 
L 5100 4900 
L 4850 4725 
L 4850 3600 
L 5225 3600 
L 5550 3925 
L 6025 3450 
L 4850 3450 
L 4850 100 
Q 4850 -375 4300 -575 
Q 4275 -200 3475 -25 
L 3475 100 
Q 4150 0 4325 25 
Q 4500 50 4500 325 
L 4500 3450 
L 3200 3450 
Q 2875 3450 2600 3375 
L 2375 3600 
L 4500 3600 
z
M 2875 2825 
Q 3525 2375 3637 2200 
Q 3750 2025 3750 1925 
Q 3750 1800 3637 1637 
Q 3525 1475 3475 1475 
Q 3400 1475 3325 1775 
Q 3200 2225 2800 2750 
L 2875 2825 
z
M 925 4150 
L 925 2650 
L 1950 2650 
L 1950 4150 
L 925 4150 
z
M 925 2500 
L 925 900 
L 1950 900 
L 1950 2500 
L 925 2500 
z
M 2300 2000 
Q 2300 800 2325 450 
L 1950 250 
L 1950 750 
L 925 750 
L 925 225 
L 550 25 
Q 575 825 575 2425 
Q 575 4025 550 4500 
L 950 4300 
L 1900 4300 
L 2100 4550 
L 2500 4225 
L 2300 4050 
L 2300 2000 
z
" transform="scale(0.015625)"/>
       <path id="SimSun-95f4" d="M 2150 525 
Q 2175 1325 2175 2112 
Q 2175 2900 2150 3675 
L 2525 3450 
L 3750 3450 
L 4000 3700 
L 4325 3375 
L 4125 3200 
Q 4125 1550 4150 775 
L 3800 575 
L 3800 975 
L 2500 975 
L 2500 700 
L 2150 525 
z
M 2500 3300 
L 2500 2325 
L 3800 2325 
L 3800 3300 
L 2500 3300 
z
M 2500 2175 
L 2500 1125 
L 3800 1125 
L 3800 2175 
L 2500 2175 
z
M 1275 5200 
Q 1850 4825 1950 4675 
Q 2050 4525 2050 4425 
Q 2050 4275 1950 4137 
Q 1850 4000 1825 4000 
Q 1750 4000 1675 4275 
Q 1550 4650 1200 5125 
L 1275 5200 
z
M 1125 425 
Q 1125 25 1150 -375 
L 750 -525 
Q 775 -150 775 1950 
Q 775 4050 750 4425 
L 1350 4125 
L 1125 3975 
L 1125 425 
z
M 4225 125 
Q 5025 0 5125 37 
Q 5225 75 5225 250 
L 5225 4450 
L 3225 4450 
Q 2900 4450 2625 4375 
L 2400 4600 
L 5175 4600 
L 5425 4850 
L 5775 4500 
L 5575 4350 
L 5575 225 
Q 5575 -100 5462 -250 
Q 5350 -400 5000 -550 
Q 4800 -125 4225 25 
L 4225 125 
z
" transform="scale(0.015625)"/>
      </defs>
      <use xlink:href="#SimSun-65f6"/>
      <use xlink:href="#SimSun-95f4" x="100"/>
     </g>
    </g>
   </g>
   <g id="matplotlib.axis_2">
    <g id="ytick_1">
     <g id="line2d_17">
      <path d="M 76.5 227.0582 
L 550.8 227.0582 
" clip-path="url(#p8f95118e01)" style="fill: none; stroke: #b0b0b0; stroke-width: 0.8; stroke-linecap: square"/>
     </g>
     <g id="line2d_18">
      <defs>
       <path id="m220955b7fe" d="M 0 0 
L 3.5 0 
" style="stroke: #000000; stroke-width: 0.8"/>
      </defs>
      <g>
       <use xlink:href="#m220955b7fe" x="76.5" y="227.0582" style="stroke: #000000; stroke-width: 0.8"/>
      </g>
     </g>
     <g id="text_10">
      <!-- 0.6 -->
      <g transform="translate(60.5 230.530075)scale(0.1 -0.1)">
       <defs>
        <path id="TimesNewRomanPSMT-2e" d="M 800 606 
Q 947 606 1047 504 
Q 1147 403 1147 259 
Q 1147 116 1045 14 
Q 944 -88 800 -88 
Q 656 -88 554 14 
Q 453 116 453 259 
Q 453 406 554 506 
Q 656 606 800 606 
z
" transform="scale(0.015625)"/>
       </defs>
       <use xlink:href="#TimesNewRomanPSMT-30"/>
       <use xlink:href="#TimesNewRomanPSMT-2e" x="50"/>
       <use xlink:href="#TimesNewRomanPSMT-36" x="75"/>
      </g>
     </g>
    </g>
    <g id="ytick_2">
     <g id="line2d_19">
      <path d="M 76.5 187.262826 
L 550.8 187.262826 
" clip-path="url(#p8f95118e01)" style="fill: none; stroke: #b0b0b0; stroke-width: 0.8; stroke-linecap: square"/>
     </g>
     <g id="line2d_20">
      <g>
       <use xlink:href="#m220955b7fe" x="76.5" y="187.262826" style="stroke: #000000; stroke-width: 0.8"/>
      </g>
     </g>
     <g id="text_11">
      <!-- 0.8 -->
      <g transform="translate(60.5 190.734701)scale(0.1 -0.1)">
       <use xlink:href="#TimesNewRomanPSMT-30"/>
       <use xlink:href="#TimesNewRomanPSMT-2e" x="50"/>
       <use xlink:href="#TimesNewRomanPSMT-38" x="75"/>
      </g>
     </g>
    </g>
    <g id="ytick_3">
     <g id="line2d_21">
      <path d="M 76.5 147.467453 
L 550.8 147.467453 
" clip-path="url(#p8f95118e01)" style="fill: none; stroke: #b0b0b0; stroke-width: 0.8; stroke-linecap: square"/>
     </g>
     <g id="line2d_22">
      <g>
       <use xlink:href="#m220955b7fe" x="76.5" y="147.467453" style="stroke: #000000; stroke-width: 0.8"/>
      </g>
     </g>
     <g id="text_12">
      <!-- 1.0 -->
      <g transform="translate(60.5 150.939328)scale(0.1 -0.1)">
       <use xlink:href="#TimesNewRomanPSMT-31"/>
       <use xlink:href="#TimesNewRomanPSMT-2e" x="50"/>
       <use xlink:href="#TimesNewRomanPSMT-30" x="75"/>
      </g>
     </g>
    </g>
    <g id="ytick_4">
     <g id="line2d_23">
      <path d="M 76.5 107.672079 
L 550.8 107.672079 
" clip-path="url(#p8f95118e01)" style="fill: none; stroke: #b0b0b0; stroke-width: 0.8; stroke-linecap: square"/>
     </g>
     <g id="line2d_24">
      <g>
       <use xlink:href="#m220955b7fe" x="76.5" y="107.672079" style="stroke: #000000; stroke-width: 0.8"/>
      </g>
     </g>
     <g id="text_13">
      <!-- 1.2 -->
      <g transform="translate(60.5 111.143954)scale(0.1 -0.1)">
       <use xlink:href="#TimesNewRomanPSMT-31"/>
       <use xlink:href="#TimesNewRomanPSMT-2e" x="50"/>
       <use xlink:href="#TimesNewRomanPSMT-32" x="75"/>
      </g>
     </g>
    </g>
    <g id="ytick_5">
     <g id="line2d_25">
      <path d="M 76.5 67.876705 
L 550.8 67.876705 
" clip-path="url(#p8f95118e01)" style="fill: none; stroke: #b0b0b0; stroke-width: 0.8; stroke-linecap: square"/>
     </g>
     <g id="line2d_26">
      <g>
       <use xlink:href="#m220955b7fe" x="76.5" y="67.876705" style="stroke: #000000; stroke-width: 0.8"/>
      </g>
     </g>
     <g id="text_14">
      <!-- 1.4 -->
      <g transform="translate(60.5 71.34858)scale(0.1 -0.1)">
       <use xlink:href="#TimesNewRomanPSMT-31"/>
       <use xlink:href="#TimesNewRomanPSMT-2e" x="50"/>
       <use xlink:href="#TimesNewRomanPSMT-34" x="75"/>
      </g>
     </g>
    </g>
    <g id="text_15">
     <!-- 累计收益率 -->
     <g transform="translate(55.210938 170.44)rotate(-90)scale(0.1 -0.1)">
      <defs>
       <path id="SimSun-7d2f" d="M 1675 4725 
L 1675 4100 
L 3125 4100 
L 3125 4725 
L 1675 4725 
z
M 3450 4725 
L 3450 4100 
L 4925 4100 
L 4925 4725 
L 3450 4725 
z
M 1675 3950 
L 1675 3375 
L 3125 3375 
L 3125 3950 
L 1675 3950 
z
M 3450 3950 
L 3450 3375 
L 4925 3375 
L 4925 3950 
L 3450 3950 
z
M 5250 4625 
Q 5250 4275 5250 3875 
Q 5250 3475 5275 3075 
L 4925 2950 
L 4925 3225 
L 1675 3225 
L 1675 3000 
L 1325 2875 
Q 1350 3500 1350 4125 
Q 1350 4750 1325 5075 
L 1675 4875 
L 4900 4875 
L 5075 5075 
L 5425 4775 
L 5250 4625 
z
M 3525 2875 
Q 3225 2850 2875 2700 
Q 2525 2550 1825 2275 
L 3550 2300 
Q 3925 2550 4175 2800 
L 4500 2400 
Q 4275 2400 3675 2100 
Q 3050 1775 1875 1300 
L 4775 1475 
Q 4550 1725 4300 1975 
L 4375 2025 
Q 5100 1675 5262 1487 
Q 5425 1300 5412 1150 
Q 5400 1000 5337 900 
Q 5275 800 5250 800 
Q 5200 800 5125 950 
Q 5000 1150 4875 1350 
L 3550 1225 
L 3550 100 
Q 3575 -425 3000 -525 
Q 3000 -175 2200 0 
L 2200 100 
Q 2900 25 3062 37 
Q 3225 50 3225 325 
L 3225 1200 
Q 2750 1150 2250 1075 
Q 1750 1000 1450 825 
L 1175 1350 
Q 1550 1400 2000 1562 
Q 2450 1725 3375 2175 
Q 2300 2075 2000 2037 
Q 1700 2000 1550 1900 
L 1325 2350 
Q 1625 2350 2200 2612 
Q 2775 2875 3150 3250 
L 3525 2875 
z
M 2625 500 
Q 2325 450 1850 175 
Q 1375 -125 550 -450 
L 500 -375 
Q 1125 -50 1562 300 
Q 2000 650 2225 950 
L 2625 500 
z
M 4075 900 
Q 5000 575 5312 387 
Q 5625 200 5650 12 
Q 5675 -175 5612 -287 
Q 5550 -400 5525 -400 
Q 5425 -400 5250 -150 
Q 4975 250 4025 825 
L 4075 900 
z
" transform="scale(0.015625)"/>
       <path id="SimSun-8ba1" d="M 975 4975 
L 1000 5050 
Q 1550 4800 1762 4625 
Q 1975 4450 1975 4275 
Q 1975 4100 1887 4025 
Q 1800 3950 1775 3950 
Q 1650 3950 1550 4250 
Q 1375 4625 975 4975 
z
M 1650 375 
L 2625 1225 
L 2675 1150 
Q 1800 25 1600 -350 
L 1225 75 
Q 1325 225 1325 550 
L 1325 2800 
L 675 2800 
L 900 2800 
Q 750 2800 475 2725 
L 250 2950 
L 1275 2950 
L 1550 3225 
L 1900 2875 
L 1650 2700 
L 1650 375 
z
M 3850 2925 
Q 3850 4600 3825 5100 
L 4425 4825 
L 4225 4625 
L 4225 2925 
L 5350 2925 
L 5675 3250 
L 6125 2775 
L 4225 2775 
L 4225 500 
Q 4225 0 4250 -425 
L 3825 -600 
Q 3850 175 3850 575 
L 3850 2775 
L 2575 2775 
L 2950 2775 
Q 2650 2775 2375 2700 
L 2150 2925 
L 3850 2925 
z
" transform="scale(0.015625)"/>
       <path id="SimSun-6536" d="M 3325 3600 
Q 3575 2100 4200 1200 
Q 4600 1950 4850 3600 
L 3325 3600 
z
M 3400 5275 
L 4025 4975 
L 3775 4850 
Q 3575 4375 3325 3750 
L 5250 3750 
L 5575 4075 
L 6050 3600 
L 5225 3600 
Q 4975 2000 4425 900 
Q 5300 -25 6150 -75 
L 6150 -175 
Q 5750 -200 5575 -525 
Q 4750 -50 4200 650 
Q 3350 -175 2300 -600 
L 2250 -525 
Q 3225 -25 4000 900 
Q 3325 2100 3225 3550 
Q 2875 2725 2425 2100 
L 2350 2150 
Q 3050 3500 3400 5275 
z
M 575 1575 
L 575 3100 
Q 575 3600 550 4125 
L 1125 3850 
L 900 3675 
L 900 1425 
L 1750 1725 
Q 1750 4350 1725 5250 
L 2300 4975 
L 2075 4775 
L 2075 -450 
L 1725 -650 
Q 1750 375 1750 1600 
Q 975 1175 750 825 
L 475 1200 
Q 600 1325 575 1575 
z
" transform="scale(0.015625)"/>
       <path id="SimSun-76ca" d="M 3900 1725 
L 3900 -75 
L 4725 -75 
L 4725 1725 
L 3900 1725 
z
M 1275 2100 
L 1625 1875 
L 4675 1875 
L 4875 2125 
L 5250 1800 
L 5050 1650 
L 5050 -75 
L 5300 -75 
L 5650 275 
L 6100 -225 
L 1125 -225 
Q 800 -225 525 -300 
L 300 -75 
L 1300 -75 
Q 1300 1475 1275 2100 
z
M 1625 1725 
L 1625 -75 
L 2450 -75 
L 2450 1725 
L 1625 1725 
z
M 2775 1725 
L 2775 -75 
L 3575 -75 
L 3575 1725 
L 2775 1725 
z
M 2475 3550 
L 2900 3150 
Q 2575 3025 2050 2675 
Q 1525 2300 725 2000 
L 675 2075 
Q 1875 2750 2475 3550 
z
M 3700 3450 
Q 4425 3200 4987 2950 
Q 5550 2700 5500 2362 
Q 5450 2025 5350 2025 
Q 5275 2025 5200 2125 
Q 4975 2375 4662 2650 
Q 4350 2925 3650 3375 
L 3700 3450 
z
M 1725 5000 
L 1775 5075 
Q 2375 4800 2587 4587 
Q 2800 4375 2800 4225 
Q 2800 4050 2600 3825 
L 3625 3825 
Q 4175 4800 4275 5225 
L 4825 4875 
Q 4475 4725 3775 3825 
L 4900 3825 
L 5275 4200 
L 5775 3675 
L 1550 3675 
Q 1225 3675 950 3600 
L 725 3825 
L 2425 3825 
Q 2325 4375 1725 5000 
z
" transform="scale(0.015625)"/>
       <path id="SimSun-7387" d="M 875 3725 
L 925 3800 
Q 1375 3650 1550 3525 
Q 1725 3400 1725 3250 
Q 1725 3175 1662 3025 
Q 1600 2875 1550 2875 
Q 1500 2875 1425 3050 
Q 1275 3325 875 3725 
z
M 550 1850 
Q 875 1925 2000 2575 
L 2050 2500 
Q 1675 2225 1337 1937 
Q 1000 1650 875 1425 
L 550 1850 
z
M 5200 3450 
Q 4800 3150 4275 2800 
L 4225 2875 
Q 4775 3400 5050 3925 
L 5450 3525 
L 5200 3450 
z
M 4325 2500 
L 4350 2575 
Q 5225 2350 5375 2212 
Q 5525 2075 5525 1900 
Q 5525 1775 5487 1662 
Q 5450 1550 5400 1550 
Q 5325 1550 5200 1800 
Q 4975 2150 4325 2500 
z
M 3150 3900 
Q 2500 3300 2300 3150 
Q 2800 3150 3400 3175 
Q 3700 3500 3850 3825 
L 4250 3450 
Q 4050 3400 3450 2825 
Q 2850 2250 2475 1950 
Q 3150 1975 3850 2000 
Q 3750 2175 3550 2450 
L 3600 2500 
Q 4050 2250 4200 2100 
Q 4350 1950 4350 1850 
Q 4350 1775 4250 1625 
Q 4150 1475 4100 1475 
Q 4075 1475 4050 1550 
Q 4000 1700 3900 1900 
Q 3650 1875 3075 1800 
L 3500 1550 
L 3325 1425 
L 3325 975 
L 5325 975 
L 5650 1300 
L 6100 825 
L 3325 825 
Q 3325 -275 3350 -525 
L 2975 -650 
Q 3000 0 3000 825 
L 1125 825 
Q 800 825 525 750 
L 300 975 
L 3000 975 
L 3000 1775 
Q 2450 1700 2200 1525 
L 1950 1950 
Q 2275 1950 2675 2350 
Q 3075 2750 3325 3050 
Q 2400 2950 2150 2775 
L 1950 3175 
Q 2150 3150 2475 3575 
Q 2800 4000 2900 4225 
L 1450 4225 
Q 1125 4225 850 4150 
L 625 4375 
L 3100 4375 
Q 3050 4800 2675 5200 
L 2725 5250 
Q 3225 5050 3337 4912 
Q 3450 4775 3450 4700 
Q 3450 4550 3250 4375 
L 5025 4375 
L 5350 4675 
L 5775 4225 
L 3050 4225 
L 3375 3950 
L 3150 3900 
z
" transform="scale(0.015625)"/>
      </defs>
      <use xlink:href="#SimSun-7d2f"/>
      <use xlink:href="#SimSun-8ba1" x="100"/>
      <use xlink:href="#SimSun-6536" x="200"/>
      <use xlink:href="#SimSun-76ca" x="300"/>
      <use xlink:href="#SimSun-7387" x="400"/>
     </g>
    </g>
   </g>
   <g id="line2d_27">
    <path d="M 98.059091 145.841224 
L 98.872642 143.766275 
L 99.686192 146.656382 
L 100.499743 141.61722 
L 101.313293 143.692169 
L 102.126844 147.990278 
L 102.940395 148.879542 
L 103.753945 146.582277 
L 104.567496 147.249225 
L 105.381046 148.805436 
L 106.194597 148.953647 
L 107.008148 149.842911 
L 107.821698 147.619751 
L 109.448799 147.249225 
L 110.26235 148.953647 
L 111.075901 149.54649 
L 111.889451 148.286699 
L 112.703002 150.954491 
L 114.330103 152.362492 
L 115.143654 150.880385 
L 115.957204 150.139332 
L 116.770755 150.658069 
L 117.584305 148.43491 
L 118.397856 148.953647 
L 119.211407 148.212594 
L 120.024957 146.285856 
L 120.838508 134.132583 
L 121.652058 136.355743 
L 122.465609 138.949429 
L 123.27916 140.431535 
L 124.09271 141.172589 
L 124.906261 138.578902 
L 125.719811 138.949429 
L 126.533362 140.579746 
L 127.346913 140.431535 
L 128.160463 139.986903 
L 128.974014 137.689639 
L 129.787564 139.690482 
L 130.601115 138.949429 
L 131.414666 138.949429 
L 132.228216 137.837849 
L 133.041767 128.204158 
L 133.855317 120.793626 
L 134.668868 121.8311 
L 136.295969 111.678672 
L 137.92307 121.312363 
L 138.736621 121.979311 
L 139.550172 115.82857 
L 140.363722 116.717833 
L 141.990823 107.973406 
L 142.804374 105.157404 
L 144.431475 112.938462 
L 145.245026 111.085829 
L 146.058576 111.678672 
L 146.872127 107.825195 
L 147.685678 113.308989 
L 148.499228 111.678672 
L 149.312779 113.827726 
L 150.126329 120.497205 
L 150.93988 120.200783 
L 151.753431 120.719521 
L 153.380532 129.982685 
L 154.194082 123.313207 
L 155.007633 131.687108 
L 155.821184 149.101858 
L 156.634734 141.765431 
L 157.448285 141.61722 
L 158.261835 139.690482 
L 159.075386 142.654695 
L 159.888937 133.984373 
L 160.702487 130.946055 
L 161.516038 130.946055 
L 163.143139 118.19994 
L 163.95669 121.015942 
L 164.77024 126.351525 
L 165.583791 126.722051 
L 166.397341 125.239945 
L 167.210892 129.686264 
L 168.024443 132.27995 
L 168.837993 129.093422 
L 169.651544 123.313207 
L 170.465094 126.573841 
L 171.278645 127.166683 
L 172.092196 115.754464 
L 172.905746 115.97678 
L 173.719297 107.380563 
L 174.532847 107.084142 
L 175.346398 115.754464 
L 176.159949 120.052573 
L 176.973499 118.19994 
L 178.6006 124.498892 
L 179.414151 128.204158 
L 180.227702 134.947742 
L 181.041252 138.134271 
L 181.854803 151.547333 
L 182.668353 159.476602 
L 183.481904 155.252599 
L 184.295455 164.515764 
L 185.109005 161.922078 
L 185.922556 150.065227 
L 186.736106 152.288386 
L 187.549657 149.54649 
L 188.363208 153.474071 
L 189.176758 156.364179 
L 189.990309 149.101858 
L 190.803859 147.249225 
L 191.61741 148.064383 
L 192.430961 145.841224 
L 193.244511 146.656382 
L 194.058062 148.657226 
L 194.871612 147.249225 
L 195.685163 146.06354 
L 196.498714 143.766275 
L 197.312264 148.58312 
L 198.125815 149.472384 
L 198.939365 148.43491 
L 199.752916 149.472384 
L 200.566467 153.622282 
L 201.380017 152.807124 
L 202.193568 153.770493 
L 203.007118 156.141863 
L 203.820669 154.659757 
L 205.44777 147.397435 
L 206.261321 147.842067 
L 207.074871 151.843754 
L 207.888422 153.992809 
L 208.701973 151.843754 
L 209.515523 150.732175 
L 210.329074 154.28923 
L 211.142624 154.28923 
L 211.956175 157.549864 
L 212.769726 157.549864 
L 213.583276 152.214281 
L 214.396827 152.807124 
L 215.210377 156.6606 
L 216.023928 156.882916 
L 216.837479 159.99534 
L 217.651029 157.77218 
L 218.46458 155.030283 
L 219.27813 154.511546 
L 220.091681 152.733018 
L 220.905232 155.993652 
L 221.718782 150.80628 
L 222.532333 144.581433 
L 223.345883 147.545646 
L 224.159434 148.360805 
L 224.972985 150.732175 
L 225.786535 149.324174 
L 226.600086 150.509859 
L 228.227187 154.511546 
L 229.040738 155.919547 
L 229.854288 156.734705 
L 230.667839 155.104388 
L 231.481389 156.141863 
L 232.29494 154.585651 
L 233.108491 154.141019 
L 233.922041 156.067758 
L 234.735592 157.105232 
L 235.549142 150.80628 
L 236.362693 154.363335 
L 237.176244 152.733018 
L 237.989794 138.282481 
L 239.616895 134.132583 
L 240.430446 116.569623 
L 241.243997 121.905206 
L 242.057547 121.164153 
L 242.871098 119.45973 
L 243.684648 130.279107 
L 244.498199 130.056791 
L 245.31175 131.983529 
L 246.938851 142.358274 
L 247.752401 144.655539 
L 248.565952 136.726269 
L 249.379503 138.875324 
L 250.193053 139.838693 
L 251.006604 142.506484 
L 251.820154 146.137645 
L 252.633705 148.731331 
L 253.447256 147.32333 
L 254.260806 145.544802 
L 255.074357 147.249225 
L 255.887907 147.545646 
L 257.515009 140.876167 
L 258.328559 143.766275 
L 259.14211 143.543959 
L 259.95566 146.137645 
L 260.769211 140.35743 
L 261.582762 139.838693 
L 262.396312 133.687951 
L 263.209863 134.50311 
L 264.023413 133.73465 
L 264.836964 129.661813 
L 265.650515 133.580958 
L 266.464065 135.578954 
L 267.277616 135.27157 
L 268.091166 136.193722 
L 268.904717 137.961179 
L 269.718268 137.500103 
L 271.345369 139.344407 
L 272.158919 134.579956 
L 272.97247 136.885335 
L 273.786021 137.269565 
L 275.413122 132.735652 
L 276.226672 130.737657 
L 277.040223 127.971202 
L 277.853774 128.970199 
L 278.667324 131.429271 
L 279.480875 127.740664 
L 280.294425 131.275579 
L 281.107976 133.580958 
L 281.921527 132.274577 
L 282.735077 129.815505 
L 283.548628 130.814503 
L 284.362178 121.285602 
L 285.98928 123.898365 
L 286.80283 125.89636 
L 287.616381 130.507119 
L 288.429931 134.195726 
L 289.243482 128.20174 
L 290.057033 129.047046 
L 290.870583 131.121887 
L 291.684134 131.045041 
L 292.497684 128.893354 
L 293.311235 131.352425 
L 294.124786 132.96619 
L 294.938336 133.580958 
L 295.751887 132.351423 
L 296.565437 133.273574 
L 297.378988 135.27157 
L 298.192539 134.11888 
L 299.006089 131.352425 
L 299.81964 132.197731 
L 300.63319 131.275579 
L 302.260292 139.574945 
L 303.073842 136.04003 
L 303.887393 134.733648 
L 304.700943 131.659809 
L 305.514494 131.045041 
L 306.328045 130.046043 
L 307.141595 121.669831 
L 307.955146 120.056066 
L 308.768696 119.21076 
L 309.582247 121.055064 
L 310.395798 117.673841 
L 311.209348 117.750687 
L 312.022899 123.206751 
L 312.836449 122.054061 
L 314.463551 110.066089 
L 315.277101 108.913399 
L 316.090652 109.220783 
L 316.904202 107.914401 
L 317.717753 109.374475 
L 318.531304 109.758705 
L 319.344854 108.682861 
L 320.158405 103.53418 
L 320.971955 110.527165 
L 321.785506 110.142935 
L 322.599057 107.222787 
L 323.412607 108.990245 
L 324.226158 115.906383 
L 325.039708 120.440296 
L 325.853259 122.207753 
L 326.66681 126.203744 
L 327.48036 126.818512 
L 328.293911 127.740664 
L 329.107461 124.205749 
L 329.921012 127.04905 
L 330.734563 126.66482 
L 331.548113 124.820517 
L 333.175214 129.969197 
L 333.988765 130.891349 
L 334.802316 132.581961 
L 335.615866 131.736655 
L 336.429417 130.507119 
L 337.242967 128.048048 
L 338.056518 127.279588 
L 338.870069 128.355432 
L 339.683619 125.89636 
L 340.49717 132.96619 
L 341.31072 131.967193 
L 342.124271 125.51213 
L 342.937822 125.204747 
L 343.751372 120.978218 
L 344.564923 117.596995 
L 345.378473 118.211762 
L 346.192024 116.674843 
L 347.005575 115.983229 
L 347.819125 116.290613 
L 348.632676 106.22379 
L 349.446226 106.070098 
L 350.259777 112.064084 
L 351.073328 115.137923 
L 351.886878 121.592986 
L 352.700429 120.824526 
L 353.513979 118.211762 
L 354.32753 120.517142 
L 355.141081 127.971202 
L 355.954631 132.889344 
L 357.581732 128.662816 
L 358.395283 131.890347 
L 359.208834 132.120885 
L 360.022384 124.513133 
L 360.835935 122.591983 
L 361.649485 125.51213 
L 362.463036 124.897363 
L 363.276587 115.829537 
L 364.090137 117.135919 
L 364.903688 117.981225 
L 365.717238 115.829537 
L 366.530789 115.983229 
L 367.34434 92.929435 
L 368.15789 92.084129 
L 368.971441 90.16298 
L 369.784991 90.624056 
L 370.598542 89.01029 
L 371.412093 95.234815 
L 372.225643 104.072102 
L 373.039194 106.684866 
L 373.852744 108.068093 
L 374.666295 110.60401 
L 375.479846 107.069095 
L 376.293396 104.456332 
L 377.106947 104.840562 
L 377.920497 93.621049 
L 378.734048 95.081123 
L 379.547599 95.157969 
L 380.361149 106.684866 
L 381.1747 103.380488 
L 381.98825 104.994254 
L 382.801801 110.066089 
L 383.615352 111.679854 
L 384.428902 110.373473 
L 385.242453 108.221785 
L 386.056003 105.378484 
L 386.869554 115.906383 
L 387.683105 117.212765 
L 388.496655 115.906383 
L 389.310206 120.286604 
L 390.123756 118.211762 
L 390.937307 122.284599 
L 392.564408 126.741666 
L 393.377959 129.047046 
L 394.191509 125.435284 
L 395.00506 126.434282 
L 395.818611 124.589979 
L 396.632161 123.590981 
L 397.445712 125.665822 
L 398.259262 126.28059 
L 399.072813 123.437289 
L 399.886364 130.583965 
L 400.699914 133.580958 
L 401.513465 131.813501 
L 402.327015 133.73465 
L 403.140566 132.120885 
L 403.954117 129.969197 
L 404.767667 131.890347 
L 405.581218 131.275579 
L 406.394768 134.810494 
L 407.208319 134.195726 
L 408.02187 138.729639 
L 408.83542 139.882329 
L 409.648971 138.422255 
L 410.462521 138.038025 
L 411.276072 136.731643 
L 412.089623 140.727634 
L 412.903173 139.190715 
L 414.530274 145.184701 
L 415.343825 140.80448 
L 416.157376 137.576949 
L 416.970926 137.730641 
L 417.784477 139.344407 
L 418.598027 141.265556 
L 419.411578 142.034016 
L 420.225129 140.80448 
L 421.038679 141.496094 
L 421.85223 144.108857 
L 422.66578 147.105851 
L 423.479331 146.183699 
L 424.292882 147.336389 
L 425.106432 149.334384 
L 425.919983 152.100839 
L 426.733533 156.173676 
L 427.547084 154.636757 
L 428.360635 154.329373 
L 429.987736 160.477051 
L 430.801286 160.246513 
L 431.614837 158.171672 
L 432.428388 159.478053 
L 433.241938 158.094826 
L 434.055489 161.399203 
L 434.869039 163.55089 
L 435.68259 163.474044 
L 436.496141 154.483065 
L 437.309691 161.629741 
L 438.123242 163.397198 
L 438.936792 158.325364 
L 439.750343 161.706587 
L 441.377444 161.552895 
L 442.190995 163.397198 
L 443.004545 163.243506 
L 443.818096 168.084803 
L 444.631647 165.702578 
L 445.445197 162.398201 
L 446.258748 166.009961 
L 447.885849 171.77341 
L 448.6994 168.084803 
L 449.51295 168.853263 
L 450.326501 182.301309 
L 451.140051 191.522827 
L 451.953602 188.986909 
L 452.767153 188.141604 
L 453.580703 187.680528 
L 454.394254 185.836224 
L 455.207804 185.989916 
L 456.021355 188.525833 
L 456.834906 185.14461 
L 457.648456 184.299305 
L 458.462007 175.231479 
L 459.275557 178.45901 
L 460.089108 168.853263 
L 460.902659 172.465024 
L 462.52976 170.005952 
L 463.34331 168.776417 
L 464.156861 164.165658 
L 464.970412 168.545879 
L 465.783962 171.619718 
L 466.597513 171.081796 
L 467.411063 169.544877 
L 468.224614 173.851569 
L 469.038165 176.858128 
L 469.851715 176.614353 
L 470.665266 188.559332 
L 471.478816 185.552773 
L 472.292367 177.26442 
L 473.105918 174.176603 
L 473.919468 176.370578 
L 474.733019 179.458396 
L 475.546569 179.133362 
L 476.36012 181.24608 
L 477.173671 182.302438 
L 477.987221 180.677271 
L 478.800772 173.689052 
L 479.614322 182.871247 
L 481.241424 191.890925 
L 482.054974 191.484633 
L 482.868525 183.277539 
L 483.682075 179.458396 
L 484.495626 181.327338 
L 485.309177 185.471514 
L 486.122727 175.151703 
L 486.936278 174.420378 
L 487.749828 173.282761 
L 488.563379 173.851569 
L 489.37693 166.86335 
L 490.19048 165.238183 
L 491.004031 165.238183 
L 491.817581 173.364019 
L 492.631132 175.070445 
L 493.444683 181.489855 
L 494.258233 181.489855 
L 495.071784 183.927606 
L 495.885334 177.995745 
L 496.698885 173.120244 
L 497.512436 179.133362 
L 498.325986 186.20284 
L 499.139537 186.69039 
L 499.953087 190.997083 
L 500.766638 198.472852 
L 501.580189 198.635368 
L 502.393739 203.104578 
L 503.20729 199.772985 
L 504.02084 199.691727 
L 504.834391 201.641928 
L 505.647942 197.660268 
L 506.461492 198.391593 
L 507.275043 192.215958 
L 508.088593 177.508195 
L 508.902144 185.877806 
L 509.715695 188.803107 
L 510.529245 190.103241 
L 511.342796 188.315557 
L 512.156346 191.322116 
L 512.969897 184.740189 
L 513.783448 190.265757 
L 514.596998 190.103241 
L 515.410549 189.615691 
L 516.224099 190.265757 
L 517.03765 192.1347 
L 517.851201 196.441393 
L 518.664751 198.06656 
L 519.478302 196.360134 
L 520.291852 191.809666 
L 521.918954 188.071782 
L 522.732504 184.415156 
L 523.546055 185.471514 
L 524.359605 180.677271 
L 525.986707 184.740189 
L 526.800257 187.990523 
L 527.613808 187.096681 
L 528.427358 185.634031 
L 529.240909 187.746748 
L 529.240909 187.746748 
" clip-path="url(#p8f95118e01)" style="fill: none; stroke: #ffa500; stroke-width: 1.5; stroke-linecap: square"/>
   </g>
   <g id="line2d_28">
    <path d="M 98.059091 147.467453 
L 110.26235 147.467453 
L 111.075901 148.659895 
L 111.889451 149.253248 
L 113.516552 149.253248 
L 114.330103 150.518108 
L 115.143654 149.021917 
L 115.957204 148.273821 
L 116.770755 148.797488 
L 117.584305 146.553201 
L 118.397856 147.076868 
L 119.211407 146.328773 
L 120.024957 144.383724 
L 120.838508 132.114958 
L 121.652058 134.359245 
L 122.465609 136.977579 
L 123.27916 138.47377 
L 124.906261 139.843533 
L 125.719811 139.843533 
L 126.533362 142.081757 
L 127.346913 142.694845 
L 151.753431 142.694845 
L 153.380532 151.642363 
L 154.194082 145.640249 
L 155.007633 153.176237 
L 155.821184 168.848425 
L 156.634734 162.246099 
L 157.448285 162.112718 
L 158.261835 160.378774 
L 159.075386 160.936971 
L 168.837993 160.936971 
L 169.651544 156.574923 
L 170.465094 159.349501 
L 171.278645 159.910785 
L 181.854803 159.910785 
L 182.668353 168.036626 
L 183.481904 164.006012 
L 184.295455 164.553327 
L 186.736106 164.553327 
L 187.549657 162.538017 
L 188.363208 166.206452 
L 189.176758 168.905868 
L 189.990309 169.438483 
L 194.871612 169.438483 
L 195.685163 168.919055 
L 196.498714 166.883817 
L 197.312264 171.151251 
L 198.125815 171.939085 
L 198.939365 171.019946 
L 199.752916 171.939085 
L 200.566467 175.615644 
L 201.380017 174.893463 
L 202.193568 175.74695 
L 203.007118 177.847841 
L 203.820669 176.534784 
L 205.44777 170.100806 
L 206.261321 170.494723 
L 207.074871 174.039976 
L 207.888422 175.943908 
L 208.701973 174.039976 
L 209.515523 173.055184 
L 210.329074 176.20652 
L 211.142624 176.20652 
L 211.956175 179.095244 
L 212.769726 179.095244 
L 213.583276 174.36824 
L 214.396827 174.893463 
L 215.210377 178.30741 
L 216.023928 178.504369 
L 216.837479 179.008189 
L 219.27813 179.008189 
L 220.091681 177.96362 
L 220.905232 180.799561 
L 221.718782 176.287837 
L 222.532333 176.798306 
L 223.345883 179.790902 
L 224.159434 180.473907 
L 224.972985 182.460833 
L 225.786535 181.281096 
L 226.600086 182.274559 
L 228.227187 185.627497 
L 229.040738 186.807234 
L 229.854288 187.49024 
L 230.667839 187.967102 
L 233.108491 187.967102 
L 233.922041 190.025596 
L 234.735592 190.878014 
L 235.549142 185.702618 
L 236.362693 188.625195 
L 237.176244 187.285681 
L 237.989794 187.763157 
L 238.803345 186.549576 
L 239.616895 185.085235 
L 240.430446 185.569313 
L 257.515009 185.569313 
L 258.328559 188.306914 
L 259.14211 188.133454 
L 259.95566 190.15715 
L 260.769211 185.647198 
L 261.582762 185.242459 
L 262.396312 180.443408 
L 263.209863 181.079427 
L 264.023413 180.479844 
L 264.836964 177.302056 
L 265.650515 180.359928 
L 266.464065 181.918843 
L 267.277616 181.67901 
L 268.091166 182.398509 
L 268.904717 183.777549 
L 269.718268 183.417799 
L 271.345369 184.856798 
L 272.158919 181.139385 
L 272.97247 182.938133 
L 273.786021 183.237924 
L 275.413122 179.700387 
L 276.226672 178.141472 
L 277.040223 175.982974 
L 277.853774 176.762432 
L 278.667324 178.681096 
L 279.480875 175.8031 
L 280.294425 178.56118 
L 281.107976 180.359928 
L 281.921527 179.340637 
L 282.735077 177.421973 
L 283.548628 178.20143 
L 284.362178 170.766605 
L 285.98928 172.805187 
L 286.80283 174.364101 
L 287.616381 174.880342 
L 288.429931 178.316872 
L 289.243482 173.568885 
L 290.057033 174.238473 
L 290.870583 175.882007 
L 291.684134 175.821135 
L 292.497684 174.11673 
L 293.311235 176.064622 
L 294.124786 177.342926 
L 294.938336 177.829899 
L 295.751887 176.855953 
L 296.565437 177.586413 
L 297.378988 179.169075 
L 298.192539 178.256001 
L 299.006089 176.064622 
L 299.81964 176.73421 
L 300.63319 176.00375 
L 302.260292 182.577887 
L 303.073842 179.777791 
L 303.887393 178.742974 
L 304.700943 176.308108 
L 305.514494 175.821135 
L 306.328045 175.029804 
L 307.141595 168.394796 
L 307.955146 167.116492 
L 308.768696 166.446904 
L 309.582247 167.907823 
L 310.395798 165.229471 
L 311.209348 165.773116 
L 314.463551 165.773116 
L 315.277101 165.436736 
L 316.090652 165.979759 
L 320.158405 165.979759 
L 320.971955 171.700845 
L 321.785506 171.416247 
L 322.599057 169.253298 
L 323.412607 169.784871 
L 326.66681 169.784871 
L 327.48036 170.806488 
L 328.293911 171.543946 
L 329.107461 172.068647 
L 332.361664 172.068647 
L 333.175214 174.604803 
L 333.988765 175.336814 
L 334.802316 176.678834 
L 335.615866 176.007824 
L 336.429417 175.03181 
L 337.242967 173.079781 
L 338.056518 172.469772 
L 338.870069 173.323785 
L 339.683619 171.371756 
L 340.49717 176.983838 
L 341.31072 176.190827 
L 342.124271 171.066752 
L 342.937822 170.822748 
L 343.751372 167.467699 
L 344.564923 164.78366 
L 345.378473 165.328642 
L 363.276587 165.328642 
L 364.090137 166.894891 
L 364.903688 167.556769 
L 365.717238 165.871989 
L 366.530789 165.99233 
L 367.34434 147.941114 
L 368.15789 147.279236 
L 368.971441 145.774968 
L 369.784991 146.135992 
L 370.598542 146.736917 
L 382.801801 146.736917 
L 383.615352 148.695361 
L 384.428902 147.594958 
L 385.242453 145.782529 
L 386.056003 143.387533 
L 386.869554 152.25549 
L 387.683105 153.355893 
L 388.496655 152.25549 
L 389.310206 155.945078 
L 390.123756 154.197378 
L 390.937307 157.628048 
L 392.564408 161.382365 
L 393.377959 163.324253 
L 394.191509 160.281962 
L 395.00506 161.123446 
L 395.818611 159.569936 
L 396.632161 158.728451 
L 397.445712 160.47615 
L 398.259262 160.993987 
L 399.072813 158.598992 
L 399.886364 164.618845 
L 400.699914 167.1433 
L 401.513465 165.654519 
L 402.327015 167.272759 
L 403.140566 165.913438 
L 403.954117 164.101009 
L 404.767667 165.719249 
L 405.581218 165.201412 
L 406.394768 168.178974 
L 407.208319 167.661137 
L 408.02187 171.480184 
L 408.83542 172.451128 
L 409.648971 171.221266 
L 410.462521 170.897618 
L 411.276072 169.797214 
L 412.089623 173.163154 
L 412.903173 171.868562 
L 414.530274 176.917471 
L 415.343825 173.227884 
L 416.157376 170.50924 
L 416.970926 170.638699 
L 417.784477 171.998021 
L 418.598027 173.616261 
L 419.411578 174.263557 
L 420.225129 173.227884 
L 421.038679 173.81045 
L 421.85223 176.011257 
L 422.66578 178.535712 
L 423.479331 177.758956 
L 424.292882 178.265012 
L 425.919983 178.265012 
L 426.733533 182.283494 
L 427.547084 180.957477 
L 428.360635 180.692274 
L 429.174185 181.18953 
L 431.614837 181.18953 
L 432.428388 182.828521 
L 433.241938 181.618046 
L 434.055489 182.112525 
L 436.496141 182.112525 
L 437.309691 188.705203 
L 438.123242 190.213727 
L 438.936792 190.682419 
L 449.51295 190.682419 
L 450.326501 202.909358 
L 451.140051 210.97312 
L 451.953602 208.755585 
L 452.767153 208.016407 
L 453.580703 208.431691 
L 476.36012 208.431691 
L 477.173671 209.725601 
L 477.987221 208.371951 
L 478.800772 208.786168 
L 479.614322 216.493924 
L 480.427873 220.044481 
L 481.241424 220.42368 
L 496.698885 220.42368 
L 497.512436 225.16065 
L 498.325986 225.524501 
L 508.088593 225.524501 
L 508.902144 231.860025 
L 509.715695 233.947593 
L 510.529245 234.285084 
L 513.783448 234.285084 
L 514.596998 234.5052 
L 515.410549 234.841018 
L 518.664751 234.841018 
L 519.478302 233.896179 
L 520.291852 230.483783 
L 521.918954 227.680743 
L 522.732504 224.938639 
L 523.546055 225.730802 
L 524.359605 222.135599 
L 525.986707 225.182382 
L 526.800257 227.619807 
L 527.613808 226.949515 
L 528.427358 225.852674 
L 529.240909 227.437 
L 529.240909 227.437 
" clip-path="url(#p8f95118e01)" style="fill: none; stroke: #0000ff; stroke-width: 1.5; stroke-linecap: square"/>
   </g>
   <g id="line2d_29">
    <path d="M 98.059091 147.467453 
L 99.686192 147.467453 
L 100.499743 143.060735 
L 101.313293 145.121061 
L 102.126844 149.388878 
L 102.940395 150.271875 
L 103.753945 147.9908 
L 104.567496 148.653048 
L 105.381046 150.198292 
L 106.194597 150.345458 
L 107.008148 151.228455 
L 107.821698 149.020963 
L 109.448799 148.653048 
L 110.26235 150.345458 
L 111.075901 150.934123 
L 111.889451 149.683211 
L 112.703002 150.273494 
L 125.719811 150.273494 
L 126.533362 152.398725 
L 127.346913 152.259023 
L 128.160463 151.839918 
L 128.974014 149.674542 
L 129.787564 151.560515 
L 130.601115 150.862006 
L 131.414666 150.862006 
L 132.228216 149.814244 
L 133.041767 140.733637 
L 133.855317 141.350769 
L 136.295969 141.350769 
L 137.10952 146.290558 
L 137.92307 150.356887 
L 138.736621 150.937792 
L 139.550172 145.580564 
L 140.363722 146.355103 
L 141.990823 138.738804 
L 142.804374 136.286097 
L 144.431475 143.063313 
L 145.245026 141.44969 
L 146.058576 141.966049 
L 146.872127 138.609714 
L 147.685678 143.386037 
L 148.499228 141.966049 
L 149.312779 143.837852 
L 150.126329 149.646893 
L 150.93988 149.388714 
L 151.753431 149.840528 
L 153.380532 157.908642 
L 154.194082 152.0996 
L 155.007633 159.393175 
L 155.821184 159.954328 
L 160.702487 159.954328 
L 161.516038 160.513798 
L 163.143139 149.516532 
L 163.95669 151.94616 
L 164.77024 156.549667 
L 165.583791 156.869355 
L 166.397341 155.590603 
L 167.210892 159.426859 
L 168.024443 161.664675 
L 168.837993 158.915358 
L 169.651544 153.928226 
L 170.465094 156.74148 
L 171.278645 157.310588 
L 172.905746 157.310588 
L 173.719297 150.844647 
L 174.532847 150.602118 
L 175.346398 157.696093 
L 176.159949 161.212764 
L 176.973499 159.696958 
L 178.6006 164.8507 
L 179.414151 167.882313 
L 180.227702 173.399848 
L 181.041252 176.007036 
L 181.854803 186.981475 
L 182.668353 193.469127 
L 183.481904 190.013088 
L 184.295455 190.482382 
L 186.736106 190.482382 
L 187.549657 188.754359 
L 188.363208 191.899849 
L 189.176758 194.214456 
L 189.990309 188.398266 
L 190.803859 186.914544 
L 191.61741 187.567382 
L 192.430961 185.786915 
L 193.244511 186.439753 
L 194.058062 188.042173 
L 195.685163 185.964962 
L 196.498714 184.125147 
L 197.312264 187.982824 
L 198.125815 188.69501 
L 198.939365 187.864126 
L 199.752916 188.69501 
L 200.566467 189.168258 
L 217.651029 189.168258 
L 218.46458 187.361313 
L 219.27813 186.930194 
L 220.091681 185.452071 
L 220.905232 188.161963 
L 221.718782 183.850771 
L 222.532333 178.677339 
L 223.345883 181.140878 
L 224.159434 181.818351 
L 224.972985 182.312229 
L 228.227187 182.312229 
L 229.040738 184.005071 
L 229.854288 184.700066 
L 230.667839 183.310076 
L 231.481389 184.194615 
L 232.29494 182.867807 
L 233.108491 182.488719 
L 233.922041 184.131434 
L 234.735592 185.015973 
L 235.549142 179.645558 
L 236.362693 182.678263 
L 237.176244 183.169561 
L 242.057547 183.169561 
L 242.871098 182.427789 
L 243.684648 190.245749 
L 244.498199 190.085106 
L 245.31175 191.477346 
L 246.938851 198.974021 
L 247.752401 200.633998 
L 248.565952 194.904397 
L 249.379503 196.45728 
L 250.193053 197.1534 
L 251.006604 199.081116 
L 251.820154 201.704952 
L 252.633705 203.579121 
L 253.447256 202.561715 
L 254.260806 201.276571 
L 255.074357 202.508167 
L 255.887907 202.722358 
L 257.515009 197.903067 
L 258.328559 199.991426 
L 259.14211 199.830783 
L 259.95566 201.704952 
L 260.769211 197.528233 
L 261.582762 197.1534 
L 262.396312 192.708942 
L 263.209863 193.297967 
L 264.023413 192.742686 
L 264.836964 189.7997 
L 265.650515 192.63163 
L 266.464065 194.07536 
L 267.277616 193.853247 
L 268.091166 194.519584 
L 268.904717 195.796729 
L 269.718268 195.463561 
L 271.345369 196.796234 
L 272.158919 193.353495 
L 272.97247 195.019336 
L 273.786021 195.296977 
L 275.413122 192.020822 
L 276.226672 190.577093 
L 277.040223 188.578083 
L 277.853774 189.299948 
L 278.667324 191.076845 
L 279.480875 188.411499 
L 280.294425 190.965789 
L 281.107976 192.63163 
L 281.921527 191.687654 
L 282.735077 189.910756 
L 283.548628 190.632621 
L 284.362178 183.747143 
L 285.98928 185.635096 
L 286.80283 187.078826 
L 287.616381 190.410508 
L 288.429931 193.075855 
L 289.243482 188.744667 
L 290.057033 189.355476 
L 290.870583 190.854733 
L 291.684134 190.799205 
L 292.497684 189.244419 
L 293.311235 191.021317 
L 294.124786 192.187406 
L 294.938336 192.63163 
L 295.751887 191.743182 
L 296.565437 192.409518 
L 297.378988 193.853247 
L 298.192539 193.020327 
L 299.006089 191.021317 
L 299.81964 191.632126 
L 300.63319 190.965789 
L 302.260292 196.962818 
L 303.073842 194.408528 
L 303.887393 193.464551 
L 304.700943 191.243429 
L 305.514494 190.799205 
L 306.328045 190.07734 
L 307.141595 184.024783 
L 307.955146 182.858694 
L 308.768696 182.247886 
L 309.582247 183.580559 
L 310.395798 181.137325 
L 311.209348 181.192853 
L 312.022899 185.135344 
L 312.836449 184.302423 
L 314.463551 175.640048 
L 315.277101 174.807127 
L 316.090652 175.322039 
L 317.717753 175.322039 
L 318.531304 176.111919 
L 319.344854 175.337681 
L 320.158405 171.632398 
L 320.971955 176.664947 
L 321.785506 176.388433 
L 322.599057 176.898601 
L 325.853259 176.898601 
L 326.66681 180.41955 
L 327.48036 180.882983 
L 328.293911 181.578132 
L 329.107461 178.913394 
L 329.921012 181.05677 
L 330.734563 180.767125 
L 331.548113 179.376827 
L 333.175214 183.258076 
L 333.988765 183.953225 
L 334.802316 185.227665 
L 335.615866 184.590445 
L 336.429417 183.663579 
L 337.242967 181.809849 
L 338.056518 181.230558 
L 338.870069 182.041565 
L 339.683619 180.187834 
L 340.49717 185.51731 
L 341.31072 184.764232 
L 342.124271 179.898189 
L 342.937822 179.666472 
L 343.751372 176.480372 
L 344.564923 173.931492 
L 345.378473 174.394925 
L 346.192024 173.236343 
L 347.005575 172.714982 
L 347.819125 172.946698 
L 348.632676 165.357987 
L 349.446226 165.242129 
L 350.259777 169.760598 
L 351.073328 172.077762 
L 351.886878 176.943805 
L 352.700429 176.364514 
L 353.513979 174.394925 
L 354.32753 176.132798 
L 355.141081 181.751919 
L 355.954631 185.459381 
L 357.581732 182.273281 
L 358.395283 184.706303 
L 359.208834 184.88009 
L 360.022384 179.14511 
L 360.835935 177.696883 
L 361.649485 179.898189 
L 362.463036 179.434756 
L 363.276587 172.599123 
L 364.090137 173.583918 
L 364.903688 174.221138 
L 365.717238 172.599123 
L 366.530789 172.714982 
L 367.34434 173.23617 
L 370.598542 173.23617 
L 371.412093 177.931248 
L 372.225643 183.859362 
L 373.039194 185.612021 
L 373.852744 186.5399 
L 374.666295 188.241011 
L 375.479846 185.869765 
L 376.293396 184.117106 
L 377.106947 184.37485 
L 377.920497 176.848723 
L 378.734048 177.82815 
L 379.547599 177.879699 
L 380.361149 185.612021 
L 381.1747 183.395422 
L 381.98825 184.477947 
L 382.801801 187.880169 
L 383.615352 188.962694 
L 384.428902 188.086364 
L 385.242453 186.642998 
L 386.056003 184.735691 
L 386.869554 191.797879 
L 387.683105 192.674209 
L 388.496655 191.797879 
L 389.310206 194.736161 
L 390.123756 193.344343 
L 390.937307 196.07643 
L 392.564408 199.066262 
L 393.377959 200.612726 
L 394.191509 198.189932 
L 395.00506 198.860066 
L 395.818611 197.622895 
L 396.632161 196.95276 
L 397.445712 198.344578 
L 398.259262 198.756969 
L 399.072813 196.849663 
L 399.886364 201.643702 
L 400.699914 203.654106 
L 401.513465 202.468483 
L 402.327015 203.757204 
L 403.140566 202.674679 
L 403.954117 201.231312 
L 404.767667 202.520032 
L 405.581218 202.107642 
L 406.394768 204.478887 
L 407.208319 204.066497 
L 408.02187 207.107877 
L 408.83542 207.881109 
L 409.648971 206.901681 
L 410.462521 206.643937 
L 411.276072 205.767608 
L 412.089623 208.448146 
L 412.903173 207.41717 
L 414.530274 211.437977 
L 415.343825 208.499695 
L 416.157376 206.334644 
L 416.970926 206.437742 
L 417.784477 207.520267 
L 418.598027 208.808988 
L 419.411578 209.324476 
L 420.225129 208.499695 
L 421.038679 208.963634 
L 422.66578 212.726697 
L 423.479331 212.108112 
L 424.292882 212.881344 
L 425.106432 214.221613 
L 425.919983 216.07737 
L 426.733533 218.809457 
L 427.547084 217.778481 
L 428.360635 218.164479 
L 430.801286 218.164479 
L 431.614837 217.124157 
L 432.428388 218.021481 
L 433.241938 217.071373 
L 434.055489 219.341074 
L 434.869039 220.819019 
L 435.68259 220.766235 
L 436.496141 214.590538 
L 437.309691 219.499426 
L 438.123242 219.88026 
L 440.563894 219.88026 
L 441.377444 220.207485 
L 442.190995 221.466705 
L 443.004545 221.36177 
L 443.818096 224.667224 
L 444.631647 223.040731 
L 445.445197 220.784628 
L 446.258748 223.250601 
L 447.885849 227.185664 
L 448.6994 224.667224 
L 449.51295 225.191899 
L 450.326501 234.373713 
L 451.140051 234.709925 
L 454.394254 234.709925 
L 455.207804 235.151731 
L 456.021355 236.910665 
L 456.834906 234.565419 
L 457.648456 233.979107 
L 458.462007 227.689584 
L 459.275557 229.928228 
L 460.089108 223.265597 
L 460.902659 225.770746 
L 462.52976 224.065112 
L 463.34331 223.212295 
L 464.156861 220.014233 
L 464.970412 223.052392 
L 465.783962 225.184434 
L 466.597513 224.811327 
L 467.411063 223.745306 
L 468.224614 226.732466 
L 469.038165 228.817842 
L 469.851715 228.648757 
L 470.665266 236.9339 
L 471.478816 234.848524 
L 472.292367 229.09965 
L 473.105918 229.451684 
L 475.546569 229.451684 
L 476.36012 231.275553 
L 477.173671 232.011998 
L 477.987221 230.879005 
L 478.800772 226.007134 
L 479.614322 232.408546 
L 480.427873 235.524278 
L 481.241424 235.857038 
L 483.682075 235.857038 
L 484.495626 237.422803 
L 485.309177 240.159071 
L 486.122727 233.345227 
L 486.936278 232.862356 
L 487.749828 232.111223 
L 488.563379 232.486789 
L 489.37693 227.87269 
L 490.19048 226.799643 
L 491.004031 226.799643 
L 491.817581 232.164875 
L 492.631132 233.291574 
L 493.444683 237.530108 
L 494.258233 237.530108 
L 495.071784 239.139677 
L 495.885334 235.223058 
L 496.698885 232.003918 
L 497.512436 235.97419 
L 498.325986 236.305601 
L 500.766638 236.305601 
L 501.580189 236.756619 
L 502.393739 240.07318 
L 503.20729 237.600834 
L 504.02084 237.540533 
L 504.834391 238.98776 
L 505.647942 236.033006 
L 506.461492 236.575716 
L 507.275043 231.992832 
L 508.088593 221.078333 
L 508.902144 227.289346 
L 509.715695 227.646811 
L 511.342796 227.646811 
L 512.156346 230.255167 
L 512.969897 225.325193 
L 513.783448 229.463937 
L 514.596998 229.342209 
L 515.410549 228.977026 
L 516.224099 229.463937 
L 517.03765 230.863806 
L 517.851201 234.089592 
L 518.664751 235.30687 
L 519.478302 234.028728 
L 520.291852 230.620351 
L 521.918954 227.820612 
L 522.732504 228.176483 
L 529.240909 228.176483 
L 529.240909 228.176483 
" clip-path="url(#p8f95118e01)" style="fill: none; stroke: #008000; stroke-width: 1.5; stroke-linecap: square"/>
   </g>
   <g id="line2d_30">
    <path d="M 98.059091 145.841224 
L 98.872642 146.443033 
L 99.686192 149.886419 
L 100.499743 150.476093 
L 101.313293 153.043248 
L 102.126844 157.143125 
L 102.940395 157.711028 
L 103.753945 157.711028 
L 104.567496 158.905149 
L 105.381046 159.467767 
L 107.008148 160.727318 
L 107.821698 159.19069 
L 109.448799 158.841727 
L 110.26235 160.446958 
L 111.075901 161.005299 
L 111.889451 159.818824 
L 112.703002 162.331359 
L 113.516552 162.883698 
L 114.330103 164.061126 
L 115.143654 162.668356 
L 115.957204 161.971971 
L 116.770755 162.459441 
L 117.584305 160.370286 
L 118.397856 160.857756 
L 119.211407 160.161371 
L 120.024957 158.35077 
L 120.838508 146.930058 
L 121.652058 149.019213 
L 122.465609 151.45656 
L 123.27916 152.84933 
L 124.09271 153.430115 
L 125.719811 153.430115 
L 126.533362 155.521148 
L 127.346913 156.093917 
L 128.160463 156.093917 
L 128.974014 154.553282 
L 129.787564 156.392493 
L 131.414666 157.531093 
L 132.228216 156.519058 
L 133.041767 147.748087 
L 133.855317 141.001186 
L 134.668868 141.945752 
L 135.482419 137.087983 
L 136.295969 137.716052 
L 137.10952 142.743386 
L 137.92307 143.354489 
L 139.550172 143.354489 
L 140.363722 144.744532 
L 141.990823 137.066927 
L 142.804374 134.594478 
L 144.431475 141.426245 
L 145.245026 142.041299 
L 146.058576 142.041299 
L 146.872127 139.309473 
L 147.685678 144.069715 
L 148.499228 142.654508 
L 149.312779 144.520008 
L 150.126329 150.309492 
L 150.93988 150.052181 
L 151.753431 150.502474 
L 153.380532 158.543423 
L 154.194082 152.75394 
L 155.007633 160.022958 
L 155.821184 175.139942 
L 156.634734 168.771511 
L 157.448285 168.642855 
L 158.261835 166.970338 
L 159.075386 169.543442 
L 159.888937 162.017113 
L 160.702487 159.379682 
L 161.516038 159.379682 
L 162.329588 153.783182 
L 163.143139 154.361165 
L 163.95669 157.300162 
L 164.77024 157.867594 
L 167.210892 157.867594 
L 168.024443 160.683029 
L 168.837993 157.919107 
L 169.651544 152.90548 
L 170.465094 155.73368 
L 171.278645 156.247898 
L 172.092196 146.349199 
L 172.905746 146.542031 
L 173.719297 139.085868 
L 174.532847 139.707944 
L 175.346398 147.79428 
L 176.159949 148.39023 
L 176.973499 148.39023 
L 177.78705 151.677028 
L 178.6006 152.26133 
L 179.414151 152.26133 
L 180.227702 158.8261 
L 181.041252 161.652863 
L 181.854803 173.551566 
L 182.668353 174.070244 
L 183.481904 170.704748 
L 184.295455 179.219262 
L 185.109005 179.720938 
L 185.922556 179.720938 
L 186.736106 182.10288 
L 187.549657 179.782028 
L 188.363208 183.106492 
L 189.176758 185.552796 
L 189.990309 179.405673 
L 190.803859 179.906789 
L 192.430961 179.906789 
L 193.244511 181.081103 
L 194.058062 182.737189 
L 195.685163 180.590411 
L 196.498714 178.688979 
L 197.312264 182.675852 
L 198.125815 183.41189 
L 198.939365 182.553179 
L 199.752916 183.41189 
L 200.566467 186.846735 
L 201.380017 186.172033 
L 202.193568 186.969408 
L 203.007118 188.932176 
L 203.820669 187.705446 
L 205.44777 181.694468 
L 206.261321 182.062487 
L 207.074871 185.374659 
L 207.888422 187.153417 
L 208.701973 187.63129 
L 209.515523 187.203293 
L 210.329074 187.681016 
L 211.142624 187.681016 
L 211.956175 190.843241 
L 212.769726 191.310044 
L 213.583276 187.406612 
L 214.396827 187.892038 
L 215.210377 191.047308 
L 216.023928 191.229342 
L 216.837479 193.777829 
L 217.651029 194.235829 
L 219.27813 194.281202 
L 220.091681 192.871197 
L 220.905232 195.456207 
L 221.718782 191.343691 
L 222.532333 191.808992 
L 224.972985 191.808992 
L 225.786535 191.163752 
L 226.600086 191.629593 
L 227.413636 193.611854 
L 228.227187 195.246426 
L 229.040738 196.3556 
L 229.854288 196.997753 
L 230.667839 195.713447 
L 231.481389 196.165639 
L 233.108491 196.26925 
L 233.922041 196.719775 
L 234.735592 197.982438 
L 235.549142 193.043393 
L 236.362693 195.832501 
L 237.176244 194.55416 
L 237.989794 183.22341 
L 239.616895 179.969451 
L 240.430446 166.198231 
L 241.243997 170.381893 
L 242.057547 169.800828 
L 242.871098 168.464381 
L 243.684648 176.947917 
L 244.498199 177.456406 
L 245.31175 177.456406 
L 246.1253 181.805714 
L 246.938851 182.29963 
L 247.752401 184.634191 
L 248.565952 178.275879 
L 249.379503 179.99916 
L 250.193053 180.771665 
L 251.006604 182.910911 
L 251.820154 185.822661 
L 252.633705 187.902483 
L 253.447256 188.378108 
L 254.260806 187.444712 
L 255.074357 188.793657 
L 255.887907 189.028256 
L 257.515009 183.749774 
L 258.328559 186.037116 
L 259.14211 185.861167 
L 259.95566 187.91391 
L 260.769211 183.339226 
L 261.582762 182.928677 
L 262.396312 178.060744 
L 263.209863 178.705891 
L 264.023413 178.097703 
L 264.836964 174.874303 
L 265.650515 177.976065 
L 266.464065 179.557356 
L 267.277616 179.31408 
L 268.091166 180.043907 
L 268.904717 181.44274 
L 269.718268 181.077827 
L 271.345369 182.53748 
L 272.158919 178.76671 
L 272.97247 180.591276 
L 273.786021 180.895371 
L 275.413122 177.307058 
L 276.226672 175.725767 
L 277.040223 176.237923 
L 277.853774 177.524499 
L 278.667324 179.434546 
L 279.480875 176.569475 
L 280.294425 179.315168 
L 281.107976 181.105838 
L 281.921527 180.091125 
L 282.735077 178.181078 
L 283.548628 178.957034 
L 284.362178 171.5556 
L 285.175729 172.080267 
L 287.616381 172.080267 
L 288.429931 175.572884 
L 289.243482 170.747405 
L 290.057033 171.427922 
L 290.870583 173.09828 
L 291.684134 173.036415 
L 292.497684 171.304191 
L 293.311235 173.283875 
L 294.124786 174.583042 
L 294.938336 175.077963 
L 295.751887 174.088121 
L 296.565437 174.830503 
L 297.378988 176.438996 
L 298.192539 175.511019 
L 299.006089 173.283875 
L 299.81964 173.964391 
L 300.63319 173.22201 
L 302.260292 179.903442 
L 303.073842 177.057647 
L 303.887393 176.00594 
L 304.700943 173.531335 
L 305.514494 173.036415 
L 306.328045 172.232168 
L 307.141595 172.754805 
L 308.768696 171.381381 
L 309.582247 172.80225 
L 310.395798 170.197323 
L 311.209348 170.256526 
L 312.022899 174.459931 
L 312.836449 173.571888 
L 313.65 174.090505 
L 314.463551 174.090505 
L 315.277101 173.769611 
L 316.090652 174.287635 
L 316.904202 173.858888 
L 317.717753 174.915307 
L 318.531304 175.429894 
L 319.344854 175.167931 
L 320.158405 171.458972 
L 320.971955 176.496513 
L 321.785506 177.006357 
L 322.599057 175.427085 
L 323.412607 176.690623 
L 324.226158 181.634906 
L 325.039708 184.876158 
L 325.853259 185.360862 
L 326.66681 188.706077 
L 327.48036 189.146379 
L 328.293911 189.806832 
L 329.107461 187.275095 
L 329.921012 187.752602 
L 331.548113 187.752602 
L 332.361664 190.09391 
L 333.175214 191.904284 
L 333.988765 192.562601 
L 334.802316 193.769517 
L 335.615866 193.166059 
L 336.429417 192.288302 
L 337.242967 190.532789 
L 338.056518 189.984191 
L 338.870069 190.752228 
L 339.683619 188.996715 
L 340.49717 194.043816 
L 341.31072 193.330638 
L 342.124271 188.722416 
L 342.937822 188.502976 
L 343.751372 188.9768 
L 344.564923 187.094811 
L 345.378473 187.522883 
L 346.192024 186.452704 
L 347.005575 186.932679 
L 347.819125 186.932679 
L 348.632676 180.455175 
L 349.446226 180.953143 
L 350.259777 185.563934 
L 351.073328 187.673841 
L 351.886878 188.150152 
L 352.700429 188.085666 
L 353.513979 186.251813 
L 354.32753 187.869919 
L 355.141081 193.101795 
L 355.954631 196.553755 
L 357.581732 193.587227 
L 358.395283 195.852576 
L 359.208834 196.014386 
L 360.022384 190.674636 
L 360.835935 189.326214 
L 361.649485 191.375815 
L 362.463036 190.94432 
L 363.276587 184.57977 
L 364.090137 185.496696 
L 364.903688 186.090002 
L 365.717238 184.57977 
L 366.530789 184.687643 
L 367.34434 168.506582 
L 368.15789 167.913276 
L 368.971441 166.564854 
L 369.784991 166.888476 
L 370.598542 165.755801 
L 371.412093 170.124688 
L 372.225643 170.653647 
L 374.666295 170.653647 
L 376.293396 166.612409 
L 377.106947 166.897947 
L 377.920497 158.560234 
L 378.734048 159.645279 
L 379.547599 159.702386 
L 380.361149 168.26853 
L 381.1747 165.812902 
L 381.98825 167.012162 
L 382.801801 170.781265 
L 383.615352 171.980526 
L 384.428902 171.009696 
L 385.242453 169.410683 
L 386.056003 167.2977 
L 386.869554 175.121445 
L 387.683105 176.092275 
L 388.496655 175.121445 
L 389.310206 178.37658 
L 390.123756 176.834674 
L 390.937307 179.861378 
L 392.564408 183.17362 
L 393.377959 184.886849 
L 394.191509 182.202791 
L 395.00506 182.94519 
L 395.818611 181.574607 
L 396.632161 180.832208 
L 397.445712 182.374113 
L 398.259262 182.830974 
L 399.072813 180.717992 
L 399.886364 186.029001 
L 400.699914 188.256199 
L 401.513465 186.942723 
L 402.327015 188.370414 
L 403.140566 187.171154 
L 403.954117 185.57214 
L 404.767667 186.999831 
L 405.581218 186.54297 
L 406.394768 189.169921 
L 407.208319 188.71306 
L 408.02187 192.08241 
L 408.83542 192.545495 
L 409.648971 192.545495 
L 410.462521 192.723784 
L 411.276072 191.760196 
L 412.089623 194.70764 
L 412.903173 193.574008 
L 414.530274 197.995174 
L 415.343825 194.764322 
L 416.157376 192.383694 
L 416.970926 192.497057 
L 417.784477 193.687371 
L 418.598027 195.104412 
L 419.411578 195.671228 
L 420.225129 194.764322 
L 421.85223 195.727966 
L 422.66578 198.405829 
L 423.479331 197.720994 
L 424.292882 198.577038 
L 425.106432 200.060847 
L 425.919983 202.115352 
L 426.733533 205.140039 
L 427.547084 203.998648 
L 428.360635 203.770369 
L 429.174185 204.198391 
L 429.987736 206.760786 
L 430.801286 206.587625 
L 431.614837 205.029172 
L 432.428388 206.01042 
L 433.241938 204.971452 
L 434.055489 205.39587 
L 434.869039 207.454194 
L 435.68259 207.395795 
L 436.496141 200.563087 
L 437.309691 205.994213 
L 438.123242 207.337395 
L 438.936792 203.483047 
L 439.750343 206.052613 
L 440.563894 205.994213 
L 441.377444 206.415564 
L 442.190995 208.228255 
L 443.004545 208.112205 
L 443.818096 211.767793 
L 444.631647 209.969012 
L 445.445197 210.378438 
L 446.258748 210.378438 
L 447.072298 213.039893 
L 447.885849 215.119824 
L 448.6994 212.346583 
L 449.51295 212.924342 
L 450.326501 223.035115 
L 451.140051 229.968216 
L 451.953602 228.061613 
L 452.767153 227.426079 
L 453.580703 227.079424 
L 454.394254 225.692803 
L 455.207804 225.808355 
L 456.021355 227.714958 
L 456.834906 225.172821 
L 457.648456 224.537287 
L 458.462007 217.719737 
L 459.275557 220.146322 
L 460.089108 212.924342 
L 460.902659 215.639806 
L 461.716209 214.773169 
L 462.52976 215.168182 
L 463.34331 215.168182 
L 464.156861 212.165411 
L 464.970412 215.392181 
L 465.783962 215.785337 
L 466.597513 215.776492 
L 467.411063 216.168496 
L 468.224614 219.721429 
L 469.038165 221.928937 
L 469.851715 222.302483 
L 470.665266 231.380222 
L 471.478816 231.725414 
L 472.292367 231.725414 
L 473.105918 229.982039 
L 473.919468 231.465285 
L 474.733019 231.810222 
L 477.173671 231.810222 
L 477.987221 231.022538 
L 478.800772 226.156718 
L 479.614322 226.517581 
L 481.241424 233.470472 
L 482.054974 233.173485 
L 482.868525 227.174348 
L 483.682075 224.382671 
L 484.495626 225.748811 
L 485.309177 228.778078 
L 486.122727 221.234608 
L 486.936278 220.700032 
L 487.749828 219.868468 
L 488.563379 220.248196 
L 489.37693 215.532477 
L 490.19048 214.347755 
L 491.004031 214.347755 
L 491.817581 220.271368 
L 492.631132 220.649886 
L 493.444683 225.725206 
L 494.258233 225.725206 
L 495.071784 226.087363 
L 495.885334 226.087363 
L 496.698885 222.975326 
L 497.512436 227.258826 
L 498.325986 232.294833 
L 499.139537 232.642143 
L 499.953087 235.710056 
L 500.766638 241.035488 
L 501.580189 241.151258 
L 502.393739 244.334941 
L 504.02084 244.890447 
L 504.834391 246.24 
L 505.647942 243.484662 
L 506.461492 243.990745 
L 507.275043 239.71716 
L 508.088593 229.53928 
L 508.902144 235.331112 
L 509.715695 237.355442 
L 510.529245 238.255144 
L 511.342796 237.018054 
L 512.156346 237.346332 
L 512.969897 237.346332 
L 513.783448 241.390414 
L 514.596998 241.281097 
L 515.410549 240.953145 
L 517.03765 241.705576 
L 520.291852 241.705576 
L 521.105403 240.702825 
L 521.918954 239.495605 
L 522.732504 237.026291 
L 523.546055 237.739648 
L 524.359605 234.502104 
L 525.173156 234.83793 
L 525.986707 236.6078 
L 526.800257 236.937309 
L 527.613808 236.649951 
L 528.427358 235.64215 
L 529.240909 237.097863 
L 529.240909 237.097863 
" clip-path="url(#p8f95118e01)" style="fill: none; stroke: #800080; stroke-width: 1.5; stroke-linecap: square"/>
   </g>
   <g id="line2d_31">
    <path d="M 98.059091 145.640017 
L 98.872642 143.562987 
L 99.686192 146.455993 
L 100.499743 141.411777 
L 101.313293 143.488807 
L 102.126844 147.791227 
L 102.940395 148.681382 
L 103.753945 146.381813 
L 104.567496 147.04943 
L 105.381046 147.44822 
L 121.652058 147.44822 
L 122.465609 150.298041 
L 123.27916 151.699086 
L 124.09271 152.399608 
L 124.906261 149.94778 
L 125.719811 150.298041 
L 126.533362 151.83919 
L 127.346913 151.699086 
L 128.160463 151.278772 
L 128.974014 149.107153 
L 129.787564 150.998563 
L 131.414666 151.779564 
L 132.228216 150.736717 
L 133.041767 141.698711 
L 133.855317 134.746398 
L 134.668868 135.719722 
L 136.295969 126.195054 
L 137.92307 135.23306 
L 138.736621 135.858768 
L 139.550172 130.088349 
L 140.363722 130.922626 
L 141.990823 122.718897 
L 142.804374 123.166348 
L 156.634734 123.166348 
L 157.448285 123.451549 
L 158.261835 121.353932 
L 159.075386 124.581035 
L 159.888937 115.14176 
L 160.702487 111.83398 
L 161.516038 111.83398 
L 163.143139 97.95744 
L 163.95669 101.023188 
L 164.77024 106.831972 
L 165.583791 107.311196 
L 168.837993 107.311196 
L 169.651544 101.442692 
L 170.465094 105.022921 
L 171.278645 105.673872 
L 172.092196 93.143068 
L 172.905746 93.387175 
L 173.719297 83.948387 
L 174.532847 83.622912 
L 175.346398 93.143068 
L 176.159949 97.862462 
L 176.973499 95.828241 
L 177.78705 99.245733 
L 178.6006 99.74013 
L 185.922556 99.74013 
L 186.736106 103.02083 
L 187.549657 99.58317 
L 188.363208 104.507386 
L 189.176758 108.130865 
L 189.990309 99.025712 
L 190.803859 96.702968 
L 191.61741 97.202451 
L 206.261321 97.202451 
L 207.074871 102.712928 
L 207.888422 105.404555 
L 208.701973 105.886634 
L 209.515523 105.886634 
L 210.329074 110.731125 
L 211.142624 110.731125 
L 211.956175 114.730887 
L 212.769726 114.730887 
L 213.583276 108.185823 
L 214.396827 108.913052 
L 215.210377 113.640043 
L 216.023928 113.912754 
L 216.837479 117.730707 
L 217.651029 115.003597 
L 218.46458 115.466479 
L 227.413636 115.466479 
L 228.227187 118.393845 
L 229.040738 120.066802 
L 229.854288 121.035357 
L 230.667839 119.098248 
L 231.481389 120.330954 
L 232.29494 120.78318 
L 237.176244 120.78318 
L 237.989794 104.434229 
L 239.616895 99.609535 
L 240.430446 79.190742 
L 241.243997 85.393919 
L 242.057547 84.532367 
L 242.871098 82.550796 
L 243.684648 95.129462 
L 244.498199 94.870997 
L 245.31175 97.111033 
L 246.938851 109.172768 
L 247.752401 111.84358 
L 248.565952 102.624969 
L 249.379503 105.123471 
L 250.193053 105.606113 
L 271.345369 105.606113 
L 272.158919 100.558251 
L 272.97247 101.050023 
L 278.667324 101.050023 
L 279.480875 97.339465 
L 280.294425 101.365756 
L 281.107976 103.991598 
L 281.921527 102.503621 
L 282.735077 99.702723 
L 283.548628 100.840587 
L 284.362178 89.987108 
L 285.175729 91.387557 
L 285.98928 91.897671 
L 305.514494 91.897671 
L 306.328045 91.228566 
L 307.141595 91.738998 
L 307.955146 91.738998 
L 308.768696 91.299272 
L 309.582247 93.370115 
L 310.395798 89.57357 
L 311.209348 89.659855 
L 312.022899 95.786098 
L 312.836449 94.491821 
L 314.463551 81.031345 
L 315.277101 79.737069 
L 316.090652 80.082209 
L 316.904202 80.614933 
L 321.785506 80.714511 
L 322.599057 77.430695 
L 323.412607 77.968723 
L 326.66681 77.968723 
L 328.293911 80.375448 
L 329.107461 76.074967 
L 329.921012 76.615706 
L 341.31072 76.615706 
L 342.124271 69.050644 
L 342.937822 68.664705 
L 343.751372 63.358043 
L 344.564923 59.112714 
L 345.378473 59.884592 
L 346.192024 57.954897 
L 347.005575 57.086534 
L 347.819125 57.472473 
L 348.632676 44.83297 
L 349.446226 44.64 
L 350.259777 52.165811 
L 351.073328 56.025201 
L 351.886878 64.129921 
L 352.700429 63.165073 
L 353.513979 59.884592 
L 354.32753 62.779134 
L 355.141081 72.138156 
L 355.954631 78.31318 
L 356.768182 78.849443 
L 367.34434 78.849443 
L 368.15789 78.494164 
L 368.971441 76.470371 
L 369.784991 76.956081 
L 370.598542 75.256095 
L 371.412093 81.813184 
L 372.225643 91.12263 
L 373.039194 93.874988 
L 373.852744 95.332119 
L 374.666295 98.003525 
L 375.479846 94.279747 
L 376.293396 91.527389 
L 377.106947 92.037223 
L 401.513465 92.037223 
L 402.327015 94.818667 
L 403.140566 92.909658 
L 403.954117 90.364311 
L 404.767667 92.636942 
L 405.581218 91.9097 
L 406.394768 96.09134 
L 407.208319 95.364099 
L 408.02187 100.727507 
L 408.83542 102.091085 
L 409.648971 102.579792 
L 420.225129 102.579792 
L 421.038679 103.886052 
L 421.85223 106.978284 
L 422.66578 110.525255 
L 423.479331 109.433879 
L 424.292882 110.798099 
L 425.106432 111.269392 
L 426.733533 111.269392 
L 427.547084 109.843905 
L 428.360635 109.464738 
L 429.174185 109.938697 
L 431.614837 109.938697 
L 432.428388 112.049485 
L 433.241938 110.315368 
L 434.055489 114.457981 
L 434.869039 117.155497 
L 435.68259 117.059157 
L 436.496141 117.517927 
L 437.309691 126.481615 
L 438.123242 128.585208 
L 438.936792 122.548809 
L 439.750343 126.573075 
L 441.377444 126.390154 
L 442.190995 128.585208 
L 443.004545 128.402287 
L 443.818096 134.164304 
L 444.631647 131.329026 
L 445.445197 131.759256 
L 451.140051 131.759256 
L 451.953602 128.681465 
L 452.767153 127.512411 
L 453.580703 126.874745 
L 454.394254 124.324082 
L 455.207804 124.536637 
L 456.021355 128.043799 
L 456.834906 123.367583 
L 457.648456 122.198529 
L 458.462007 109.657769 
L 459.275557 114.12143 
L 460.089108 100.836726 
L 460.902659 105.831775 
L 462.52976 102.430891 
L 463.34331 100.730449 
L 464.156861 94.353791 
L 464.970412 100.411616 
L 465.783962 104.662721 
L 466.597513 103.918778 
L 467.411063 101.793225 
L 468.224614 102.282527 
L 476.36012 102.282527 
L 477.173671 104.329019 
L 477.987221 101.931837 
L 478.800772 91.623958 
L 479.614322 105.168032 
L 480.427873 111.76028 
L 481.241424 112.229648 
L 482.868525 112.229648 
L 483.682075 107.226926 
L 484.495626 109.904298 
L 485.309177 115.84108 
L 486.122727 101.057329 
L 486.936278 100.009661 
L 487.749828 98.379956 
L 488.563379 99.194809 
L 489.37693 89.183765 
L 490.19048 86.855615 
L 491.004031 86.855615 
L 491.817581 98.496364 
L 492.631132 98.99226 
L 493.444683 108.737811 
L 494.258233 109.213224 
L 498.325986 109.213224 
L 499.139537 110.408041 
L 499.953087 110.880114 
L 500.766638 122.657339 
L 501.580189 122.903124 
L 502.393739 129.662204 
L 503.20729 124.623617 
L 504.02084 124.500725 
L 504.834391 127.450141 
L 505.647942 121.428416 
L 506.461492 122.534447 
L 507.275043 122.982267 
L 508.088593 102.161678 
L 508.902144 114.264185 
L 509.715695 118.494188 
L 510.529245 118.950088 
L 514.596998 118.950088 
L 515.410549 118.697054 
L 516.224099 119.641084 
L 517.03765 120.094691 
L 525.986707 120.094691 
L 526.800257 125.088032 
L 527.613808 123.839355 
L 528.427358 121.796066 
L 529.240909 124.747483 
L 529.240909 124.747483 
" clip-path="url(#p8f95118e01)" style="fill: none; stroke: #ff0000; stroke-width: 1.5; stroke-linecap: square"/>
   </g>
   <g id="patch_3">
    <path d="M 76.5 256.32 
L 76.5 34.56 
" style="fill: none; stroke: #000000; stroke-width: 0.8; stroke-linejoin: miter; stroke-linecap: square"/>
   </g>
   <g id="patch_4">
    <path d="M 550.8 256.32 
L 550.8 34.56 
" style="fill: none; stroke: #000000; stroke-width: 0.8; stroke-linejoin: miter; stroke-linecap: square"/>
   </g>
   <g id="patch_5">
    <path d="M 76.5 256.32 
L 550.8 256.32 
" style="fill: none; stroke: #000000; stroke-width: 0.8; stroke-linejoin: miter; stroke-linecap: square"/>
   </g>
   <g id="patch_6">
    <path d="M 76.5 34.56 
L 550.8 34.56 
" style="fill: none; stroke: #000000; stroke-width: 0.8; stroke-linejoin: miter; stroke-linecap: square"/>
   </g>
   <g id="legend_1">
    <g id="patch_7">
     <path d="M 83.5 251.32 
L 157.728125 251.32 
Q 159.728125 251.32 159.728125 249.32 
L 159.728125 179.624687 
Q 159.728125 177.624687 157.728125 177.624687 
L 83.5 177.624687 
Q 81.5 177.624687 81.5 179.624687 
L 81.5 249.32 
Q 81.5 251.32 83.5 251.32 
z
" style="fill: #ffffff; opacity: 0.8; stroke: #cccccc; stroke-linejoin: miter"/>
    </g>
    <g id="line2d_32">
     <path d="M 85.5 185.124687 
L 95.5 185.124687 
L 105.5 185.124687 
" style="fill: none; stroke: #ffa500; stroke-width: 1.5; stroke-linecap: square"/>
    </g>
    <g id="text_16">
     <!-- Market -->
     <g transform="translate(113.5 188.624687)scale(0.1 -0.1)">
      <defs>
       <path id="TimesNewRomanPSMT-4d" d="M 2619 0 
L 981 3566 
L 981 734 
Q 981 344 1066 247 
Q 1181 116 1431 116 
L 1581 116 
L 1581 0 
L 106 0 
L 106 116 
L 256 116 
Q 525 116 638 278 
Q 706 378 706 734 
L 706 3503 
Q 706 3784 644 3909 
Q 600 4000 483 4061 
Q 366 4122 106 4122 
L 106 4238 
L 1306 4238 
L 2844 922 
L 4356 4238 
L 5556 4238 
L 5556 4122 
L 5409 4122 
Q 5138 4122 5025 3959 
Q 4956 3859 4956 3503 
L 4956 734 
Q 4956 344 5044 247 
Q 5159 116 5409 116 
L 5556 116 
L 5556 0 
L 3756 0 
L 3756 116 
L 3906 116 
Q 4178 116 4288 278 
Q 4356 378 4356 734 
L 4356 3566 
L 2722 0 
L 2619 0 
z
" transform="scale(0.015625)"/>
       <path id="TimesNewRomanPSMT-61" d="M 1822 413 
Q 1381 72 1269 19 
Q 1100 -59 909 -59 
Q 613 -59 420 144 
Q 228 347 228 678 
Q 228 888 322 1041 
Q 450 1253 767 1440 
Q 1084 1628 1822 1897 
L 1822 2009 
Q 1822 2438 1686 2597 
Q 1550 2756 1291 2756 
Q 1094 2756 978 2650 
Q 859 2544 859 2406 
L 866 2225 
Q 866 2081 792 2003 
Q 719 1925 600 1925 
Q 484 1925 411 2006 
Q 338 2088 338 2228 
Q 338 2497 613 2722 
Q 888 2947 1384 2947 
Q 1766 2947 2009 2819 
Q 2194 2722 2281 2516 
Q 2338 2381 2338 1966 
L 2338 994 
Q 2338 584 2353 492 
Q 2369 400 2405 369 
Q 2441 338 2488 338 
Q 2538 338 2575 359 
Q 2641 400 2828 588 
L 2828 413 
Q 2478 -56 2159 -56 
Q 2006 -56 1915 50 
Q 1825 156 1822 413 
z
M 1822 616 
L 1822 1706 
Q 1350 1519 1213 1441 
Q 966 1303 859 1153 
Q 753 1003 753 825 
Q 753 600 887 451 
Q 1022 303 1197 303 
Q 1434 303 1822 616 
z
" transform="scale(0.015625)"/>
       <path id="TimesNewRomanPSMT-72" d="M 1038 2947 
L 1038 2303 
Q 1397 2947 1775 2947 
Q 1947 2947 2059 2842 
Q 2172 2738 2172 2600 
Q 2172 2478 2090 2393 
Q 2009 2309 1897 2309 
Q 1788 2309 1652 2417 
Q 1516 2525 1450 2525 
Q 1394 2525 1328 2463 
Q 1188 2334 1038 2041 
L 1038 669 
Q 1038 431 1097 309 
Q 1138 225 1241 169 
Q 1344 113 1538 113 
L 1538 0 
L 72 0 
L 72 113 
Q 291 113 397 181 
Q 475 231 506 341 
Q 522 394 522 644 
L 522 1753 
Q 522 2253 501 2348 
Q 481 2444 426 2487 
Q 372 2531 291 2531 
Q 194 2531 72 2484 
L 41 2597 
L 906 2947 
L 1038 2947 
z
" transform="scale(0.015625)"/>
       <path id="TimesNewRomanPSMT-6b" d="M 1047 4444 
L 1047 1597 
L 1775 2259 
Q 2006 2472 2044 2528 
Q 2069 2566 2069 2603 
Q 2069 2666 2017 2711 
Q 1966 2756 1847 2763 
L 1847 2863 
L 3091 2863 
L 3091 2763 
Q 2834 2756 2664 2684 
Q 2494 2613 2291 2428 
L 1556 1750 
L 2291 822 
Q 2597 438 2703 334 
Q 2853 188 2966 144 
Q 3044 113 3238 113 
L 3238 0 
L 1847 0 
L 1847 113 
Q 1966 116 2008 148 
Q 2050 181 2050 241 
Q 2050 313 1925 472 
L 1047 1594 
L 1047 644 
Q 1047 366 1086 278 
Q 1125 191 1197 153 
Q 1269 116 1509 113 
L 1509 0 
L 53 0 
L 53 113 
Q 272 113 381 166 
Q 447 200 481 272 
Q 528 375 528 628 
L 528 3234 
Q 528 3731 506 3842 
Q 484 3953 434 3995 
Q 384 4038 303 4038 
Q 238 4038 106 3984 
L 53 4094 
L 903 4444 
L 1047 4444 
z
" transform="scale(0.015625)"/>
       <path id="TimesNewRomanPSMT-65" d="M 681 1784 
Q 678 1147 991 784 
Q 1303 422 1725 422 
Q 2006 422 2214 576 
Q 2422 731 2563 1106 
L 2659 1044 
Q 2594 616 2278 264 
Q 1963 -88 1488 -88 
Q 972 -88 605 314 
Q 238 716 238 1394 
Q 238 2128 614 2539 
Q 991 2950 1559 2950 
Q 2041 2950 2350 2633 
Q 2659 2316 2659 1784 
L 681 1784 
z
M 681 1966 
L 2006 1966 
Q 1991 2241 1941 2353 
Q 1863 2528 1708 2628 
Q 1553 2728 1384 2728 
Q 1125 2728 920 2526 
Q 716 2325 681 1966 
z
" transform="scale(0.015625)"/>
       <path id="TimesNewRomanPSMT-74" d="M 1031 3803 
L 1031 2863 
L 1700 2863 
L 1700 2644 
L 1031 2644 
L 1031 788 
Q 1031 509 1111 412 
Q 1191 316 1316 316 
Q 1419 316 1516 380 
Q 1613 444 1666 569 
L 1788 569 
Q 1678 263 1478 108 
Q 1278 -47 1066 -47 
Q 922 -47 784 33 
Q 647 113 581 261 
Q 516 409 516 719 
L 516 2644 
L 63 2644 
L 63 2747 
Q 234 2816 414 2980 
Q 594 3144 734 3369 
Q 806 3488 934 3803 
L 1031 3803 
z
" transform="scale(0.015625)"/>
      </defs>
      <use xlink:href="#TimesNewRomanPSMT-4d"/>
      <use xlink:href="#TimesNewRomanPSMT-61" x="88.916016"/>
      <use xlink:href="#TimesNewRomanPSMT-72" x="133.300781"/>
      <use xlink:href="#TimesNewRomanPSMT-6b" x="166.601562"/>
      <use xlink:href="#TimesNewRomanPSMT-65" x="216.601562"/>
      <use xlink:href="#TimesNewRomanPSMT-74" x="260.986328"/>
     </g>
    </g>
    <g id="line2d_33">
     <path d="M 85.5 199.26375 
L 95.5 199.26375 
L 105.5 199.26375 
" style="fill: none; stroke: #0000ff; stroke-width: 1.5; stroke-linecap: square"/>
    </g>
    <g id="text_17">
     <!-- BC -->
     <g transform="translate(113.5 202.76375)scale(0.1 -0.1)">
      <defs>
       <path id="TimesNewRomanPSMT-42" d="M 2956 2163 
Q 3397 2069 3616 1863 
Q 3919 1575 3919 1159 
Q 3919 844 3719 555 
Q 3519 266 3170 133 
Q 2822 0 2106 0 
L 106 0 
L 106 116 
L 266 116 
Q 531 116 647 284 
Q 719 394 719 750 
L 719 3488 
Q 719 3881 628 3984 
Q 506 4122 266 4122 
L 106 4122 
L 106 4238 
L 1938 4238 
Q 2450 4238 2759 4163 
Q 3228 4050 3475 3764 
Q 3722 3478 3722 3106 
Q 3722 2788 3528 2536 
Q 3334 2284 2956 2163 
z
M 1319 2331 
Q 1434 2309 1582 2298 
Q 1731 2288 1909 2288 
Q 2366 2288 2595 2386 
Q 2825 2484 2947 2687 
Q 3069 2891 3069 3131 
Q 3069 3503 2766 3765 
Q 2463 4028 1881 4028 
Q 1569 4028 1319 3959 
L 1319 2331 
z
M 1319 306 
Q 1681 222 2034 222 
Q 2600 222 2897 476 
Q 3194 731 3194 1106 
Q 3194 1353 3059 1581 
Q 2925 1809 2622 1940 
Q 2319 2072 1872 2072 
Q 1678 2072 1540 2065 
Q 1403 2059 1319 2044 
L 1319 306 
z
" transform="scale(0.015625)"/>
       <path id="TimesNewRomanPSMT-43" d="M 3853 4334 
L 3950 2894 
L 3853 2894 
Q 3659 3541 3300 3825 
Q 2941 4109 2438 4109 
Q 2016 4109 1675 3895 
Q 1334 3681 1139 3212 
Q 944 2744 944 2047 
Q 944 1472 1128 1050 
Q 1313 628 1683 403 
Q 2053 178 2528 178 
Q 2941 178 3256 354 
Q 3572 531 3950 1056 
L 4047 994 
Q 3728 428 3303 165 
Q 2878 -97 2294 -97 
Q 1241 -97 663 684 
Q 231 1266 231 2053 
Q 231 2688 515 3219 
Q 800 3750 1298 4042 
Q 1797 4334 2388 4334 
Q 2847 4334 3294 4109 
Q 3425 4041 3481 4041 
Q 3566 4041 3628 4100 
Q 3709 4184 3744 4334 
L 3853 4334 
z
" transform="scale(0.015625)"/>
      </defs>
      <use xlink:href="#TimesNewRomanPSMT-42"/>
      <use xlink:href="#TimesNewRomanPSMT-43" x="66.699219"/>
     </g>
    </g>
    <g id="line2d_34">
     <path d="M 85.5 213.402813 
L 95.5 213.402813 
L 105.5 213.402813 
" style="fill: none; stroke: #008000; stroke-width: 1.5; stroke-linecap: square"/>
    </g>
    <g id="text_18">
     <!-- DQN -->
     <g transform="translate(113.5 216.902813)scale(0.1 -0.1)">
      <defs>
       <path id="TimesNewRomanPSMT-44" d="M 109 0 
L 109 116 
L 269 116 
Q 538 116 650 288 
Q 719 391 719 750 
L 719 3488 
Q 719 3884 631 3984 
Q 509 4122 269 4122 
L 109 4122 
L 109 4238 
L 1834 4238 
Q 2784 4238 3279 4022 
Q 3775 3806 4076 3303 
Q 4378 2800 4378 2141 
Q 4378 1256 3841 663 
Q 3238 0 2003 0 
L 109 0 
z
M 1319 306 
Q 1716 219 1984 219 
Q 2709 219 3187 728 
Q 3666 1238 3666 2109 
Q 3666 2988 3187 3494 
Q 2709 4000 1959 4000 
Q 1678 4000 1319 3909 
L 1319 306 
z
" transform="scale(0.015625)"/>
       <path id="TimesNewRomanPSMT-51" d="M 2819 -47 
Q 3138 -597 3508 -856 
Q 3878 -1116 4350 -1153 
L 4350 -1253 
Q 3919 -1238 3428 -1080 
Q 2938 -922 2498 -642 
Q 2059 -363 1741 -47 
Q 1291 134 1028 338 
Q 647 641 436 1083 
Q 225 1525 225 2128 
Q 225 3078 840 3706 
Q 1456 4334 2331 4334 
Q 3163 4334 3770 3704 
Q 4378 3075 4378 2116 
Q 4378 1338 3945 750 
Q 3513 163 2819 -47 
z
M 2294 4094 
Q 1725 4094 1378 3688 
Q 941 3178 941 2128 
Q 941 1100 1384 544 
Q 1728 116 2294 116 
Q 2881 116 3241 544 
Q 3663 1050 3663 2038 
Q 3663 2797 3431 3316 
Q 3253 3716 2958 3905 
Q 2663 4094 2294 4094 
z
" transform="scale(0.015625)"/>
       <path id="TimesNewRomanPSMT-4e" d="M -84 4238 
L 1066 4238 
L 3656 1059 
L 3656 3503 
Q 3656 3894 3569 3991 
Q 3453 4122 3203 4122 
L 3056 4122 
L 3056 4238 
L 4531 4238 
L 4531 4122 
L 4381 4122 
Q 4113 4122 4000 3959 
Q 3931 3859 3931 3503 
L 3931 -69 
L 3819 -69 
L 1025 3344 
L 1025 734 
Q 1025 344 1109 247 
Q 1228 116 1475 116 
L 1625 116 
L 1625 0 
L 150 0 
L 150 116 
L 297 116 
Q 569 116 681 278 
Q 750 378 750 734 
L 750 3681 
Q 566 3897 470 3965 
Q 375 4034 191 4094 
Q 100 4122 -84 4122 
L -84 4238 
z
" transform="scale(0.015625)"/>
      </defs>
      <use xlink:href="#TimesNewRomanPSMT-44"/>
      <use xlink:href="#TimesNewRomanPSMT-51" x="72.216797"/>
      <use xlink:href="#TimesNewRomanPSMT-4e" x="144.433594"/>
     </g>
    </g>
    <g id="line2d_35">
     <path d="M 85.5 227.541875 
L 95.5 227.541875 
L 105.5 227.541875 
" style="fill: none; stroke: #800080; stroke-width: 1.5; stroke-linecap: square"/>
    </g>
    <g id="text_19">
     <!-- DDQN -->
     <g transform="translate(113.5 231.041875)scale(0.1 -0.1)">
      <use xlink:href="#TimesNewRomanPSMT-44"/>
      <use xlink:href="#TimesNewRomanPSMT-44" x="72.216797"/>
      <use xlink:href="#TimesNewRomanPSMT-51" x="144.433594"/>
      <use xlink:href="#TimesNewRomanPSMT-4e" x="216.650391"/>
     </g>
    </g>
    <g id="line2d_36">
     <path d="M 85.5 241.680937 
L 95.5 241.680937 
L 105.5 241.680937 
" style="fill: none; stroke: #ff0000; stroke-width: 1.5; stroke-linecap: square"/>
    </g>
    <g id="text_20">
     <!-- BCDDQN -->
     <g transform="translate(113.5 245.180937)scale(0.1 -0.1)">
      <use xlink:href="#TimesNewRomanPSMT-42"/>
      <use xlink:href="#TimesNewRomanPSMT-43" x="66.699219"/>
      <use xlink:href="#TimesNewRomanPSMT-44" x="133.398438"/>
      <use xlink:href="#TimesNewRomanPSMT-44" x="205.615234"/>
      <use xlink:href="#TimesNewRomanPSMT-51" x="277.832031"/>
      <use xlink:href="#TimesNewRomanPSMT-4e" x="350.048828"/>
     </g>
    </g>
   </g>
  </g>
 </g>
 <defs>
  <clipPath id="p8f95118e01">
   <rect x="76.5" y="34.56" width="474.3" height="221.76"/>
  </clipPath>
 </defs>
</svg>
