<?xml version="1.0" encoding="utf-8" standalone="no"?>
<!DOCTYPE svg PUBLIC "-//W3C//DTD SVG 1.1//EN"
  "http://www.w3.org/Graphics/SVG/1.1/DTD/svg11.dtd">
<svg xmlns:xlink="http://www.w3.org/1999/xlink" width="720pt" height="288pt" viewBox="0 0 720 288" xmlns="http://www.w3.org/2000/svg" version="1.1">
 <metadata>
  <rdf:RDF xmlns:dc="http://purl.org/dc/elements/1.1/" xmlns:cc="http://creativecommons.org/ns#" xmlns:rdf="http://www.w3.org/1999/02/22-rdf-syntax-ns#">
   <cc:Work>
    <dc:type rdf:resource="http://purl.org/dc/dcmitype/StillImage"/>
    <dc:date>2022-10-22T23:09:42.487915</dc:date>
    <dc:format>image/svg+xml</dc:format>
    <dc:creator>
     <cc:Agent>
      <dc:title>Matplotlib v3.5.1, https://matplotlib.org/</dc:title>
     </cc:Agent>
    </dc:creator>
   </cc:Work>
  </rdf:RDF>
 </metadata>
 <defs>
  <style type="text/css">*{stroke-linejoin: round; stroke-linecap: butt}</style>
 </defs>
 <g id="figure_1">
  <g id="patch_1">
   <path d="M 0 288 
L 720 288 
L 720 0 
L 0 0 
z
" style="fill: #ffffff"/>
  </g>
  <g id="axes_1">
   <g id="patch_2">
    <path d="M 90 256.32 
L 648 256.32 
L 648 34.56 
L 90 34.56 
z
" style="fill: #ffffff"/>
   </g>
   <g id="matplotlib.axis_1">
    <g id="xtick_1">
     <g id="line2d_1">
      <path d="M 115.363636 256.32 
L 115.363636 34.56 
" clip-path="url(#pf06803828c)" style="fill: none; stroke: #b0b0b0; stroke-width: 0.8; stroke-linecap: square"/>
     </g>
     <g id="line2d_2">
      <defs>
       <path id="m97ffccf949" d="M 0 0 
L 0 -3.5 
" style="stroke: #000000; stroke-width: 0.8"/>
      </defs>
      <g>
       <use xlink:href="#m97ffccf949" x="115.363636" y="256.32" style="stroke: #000000; stroke-width: 0.8"/>
      </g>
     </g>
     <g id="text_1">
      <!-- 2019-10-16 -->
      <g transform="translate(92.033949 266.76375)scale(0.1 -0.1)">
       <defs>
        <path id="TimesNewRomanPSMT-32" d="M 2934 816 
L 2638 0 
L 138 0 
L 138 116 
Q 1241 1122 1691 1759 
Q 2141 2397 2141 2925 
Q 2141 3328 1894 3587 
Q 1647 3847 1303 3847 
Q 991 3847 742 3664 
Q 494 3481 375 3128 
L 259 3128 
Q 338 3706 661 4015 
Q 984 4325 1469 4325 
Q 1984 4325 2329 3994 
Q 2675 3663 2675 3213 
Q 2675 2891 2525 2569 
Q 2294 2063 1775 1497 
Q 997 647 803 472 
L 1909 472 
Q 2247 472 2383 497 
Q 2519 522 2628 598 
Q 2738 675 2819 816 
L 2934 816 
z
" transform="scale(0.015625)"/>
        <path id="TimesNewRomanPSMT-30" d="M 231 2094 
Q 231 2819 450 3342 
Q 669 3866 1031 4122 
Q 1313 4325 1613 4325 
Q 2100 4325 2488 3828 
Q 2972 3213 2972 2159 
Q 2972 1422 2759 906 
Q 2547 391 2217 158 
Q 1888 -75 1581 -75 
Q 975 -75 572 641 
Q 231 1244 231 2094 
z
M 844 2016 
Q 844 1141 1059 588 
Q 1238 122 1591 122 
Q 1759 122 1940 273 
Q 2122 425 2216 781 
Q 2359 1319 2359 2297 
Q 2359 3022 2209 3506 
Q 2097 3866 1919 4016 
Q 1791 4119 1609 4119 
Q 1397 4119 1231 3928 
Q 1006 3669 925 3112 
Q 844 2556 844 2016 
z
" transform="scale(0.015625)"/>
        <path id="TimesNewRomanPSMT-31" d="M 750 3822 
L 1781 4325 
L 1884 4325 
L 1884 747 
Q 1884 391 1914 303 
Q 1944 216 2037 169 
Q 2131 122 2419 116 
L 2419 0 
L 825 0 
L 825 116 
Q 1125 122 1212 167 
Q 1300 213 1334 289 
Q 1369 366 1369 747 
L 1369 3034 
Q 1369 3497 1338 3628 
Q 1316 3728 1258 3775 
Q 1200 3822 1119 3822 
Q 1003 3822 797 3725 
L 750 3822 
z
" transform="scale(0.015625)"/>
        <path id="TimesNewRomanPSMT-39" d="M 338 -88 
L 338 28 
Q 744 34 1094 217 
Q 1444 400 1770 856 
Q 2097 1313 2225 1859 
Q 1734 1544 1338 1544 
Q 891 1544 572 1889 
Q 253 2234 253 2806 
Q 253 3363 572 3797 
Q 956 4325 1575 4325 
Q 2097 4325 2469 3894 
Q 2925 3359 2925 2575 
Q 2925 1869 2578 1258 
Q 2231 647 1613 244 
Q 1109 -88 516 -88 
L 338 -88 
z
M 2275 2091 
Q 2331 2497 2331 2741 
Q 2331 3044 2228 3395 
Q 2125 3747 1936 3934 
Q 1747 4122 1506 4122 
Q 1228 4122 1018 3872 
Q 809 3622 809 3128 
Q 809 2469 1088 2097 
Q 1291 1828 1588 1828 
Q 1731 1828 1928 1897 
Q 2125 1966 2275 2091 
z
" transform="scale(0.015625)"/>
        <path id="TimesNewRomanPSMT-2d" d="M 259 1672 
L 1875 1672 
L 1875 1200 
L 259 1200 
L 259 1672 
z
" transform="scale(0.015625)"/>
        <path id="TimesNewRomanPSMT-36" d="M 2869 4325 
L 2869 4209 
Q 2456 4169 2195 4045 
Q 1934 3922 1679 3669 
Q 1425 3416 1258 3105 
Q 1091 2794 978 2366 
Q 1428 2675 1881 2675 
Q 2316 2675 2634 2325 
Q 2953 1975 2953 1425 
Q 2953 894 2631 456 
Q 2244 -75 1606 -75 
Q 1172 -75 869 213 
Q 275 772 275 1663 
Q 275 2231 503 2743 
Q 731 3256 1154 3653 
Q 1578 4050 1965 4187 
Q 2353 4325 2688 4325 
L 2869 4325 
z
M 925 2138 
Q 869 1716 869 1456 
Q 869 1156 980 804 
Q 1091 453 1309 247 
Q 1469 100 1697 100 
Q 1969 100 2183 356 
Q 2397 613 2397 1088 
Q 2397 1622 2184 2012 
Q 1972 2403 1581 2403 
Q 1463 2403 1327 2353 
Q 1191 2303 925 2138 
z
" transform="scale(0.015625)"/>
       </defs>
       <use xlink:href="#TimesNewRomanPSMT-32"/>
       <use xlink:href="#TimesNewRomanPSMT-30" x="50"/>
       <use xlink:href="#TimesNewRomanPSMT-31" x="100"/>
       <use xlink:href="#TimesNewRomanPSMT-39" x="150"/>
       <use xlink:href="#TimesNewRomanPSMT-2d" x="200"/>
       <use xlink:href="#TimesNewRomanPSMT-31" x="233.300781"/>
       <use xlink:href="#TimesNewRomanPSMT-30" x="283.300781"/>
       <use xlink:href="#TimesNewRomanPSMT-2d" x="333.300781"/>
       <use xlink:href="#TimesNewRomanPSMT-31" x="366.601562"/>
       <use xlink:href="#TimesNewRomanPSMT-36" x="416.601562"/>
      </g>
     </g>
    </g>
    <g id="xtick_2">
     <g id="line2d_3">
      <path d="M 182.361921 256.32 
L 182.361921 34.56 
" clip-path="url(#pf06803828c)" style="fill: none; stroke: #b0b0b0; stroke-width: 0.8; stroke-linecap: square"/>
     </g>
     <g id="line2d_4">
      <g>
       <use xlink:href="#m97ffccf949" x="182.361921" y="256.32" style="stroke: #000000; stroke-width: 0.8"/>
      </g>
     </g>
     <g id="text_2">
      <!-- 2020-01-23 -->
      <g transform="translate(159.032234 266.76375)scale(0.1 -0.1)">
       <defs>
        <path id="TimesNewRomanPSMT-33" d="M 325 3431 
Q 506 3859 782 4092 
Q 1059 4325 1472 4325 
Q 1981 4325 2253 3994 
Q 2459 3747 2459 3466 
Q 2459 3003 1878 2509 
Q 2269 2356 2469 2072 
Q 2669 1788 2669 1403 
Q 2669 853 2319 450 
Q 1863 -75 997 -75 
Q 569 -75 414 31 
Q 259 138 259 259 
Q 259 350 332 419 
Q 406 488 509 488 
Q 588 488 669 463 
Q 722 447 909 348 
Q 1097 250 1169 231 
Q 1284 197 1416 197 
Q 1734 197 1970 444 
Q 2206 691 2206 1028 
Q 2206 1275 2097 1509 
Q 2016 1684 1919 1775 
Q 1784 1900 1550 2001 
Q 1316 2103 1072 2103 
L 972 2103 
L 972 2197 
Q 1219 2228 1467 2375 
Q 1716 2522 1828 2728 
Q 1941 2934 1941 3181 
Q 1941 3503 1739 3701 
Q 1538 3900 1238 3900 
Q 753 3900 428 3381 
L 325 3431 
z
" transform="scale(0.015625)"/>
       </defs>
       <use xlink:href="#TimesNewRomanPSMT-32"/>
       <use xlink:href="#TimesNewRomanPSMT-30" x="50"/>
       <use xlink:href="#TimesNewRomanPSMT-32" x="100"/>
       <use xlink:href="#TimesNewRomanPSMT-30" x="150"/>
       <use xlink:href="#TimesNewRomanPSMT-2d" x="200"/>
       <use xlink:href="#TimesNewRomanPSMT-30" x="233.300781"/>
       <use xlink:href="#TimesNewRomanPSMT-31" x="283.300781"/>
       <use xlink:href="#TimesNewRomanPSMT-2d" x="333.300781"/>
       <use xlink:href="#TimesNewRomanPSMT-32" x="366.601562"/>
       <use xlink:href="#TimesNewRomanPSMT-33" x="416.601562"/>
      </g>
     </g>
    </g>
    <g id="xtick_3">
     <g id="line2d_5">
      <path d="M 249.360206 256.32 
L 249.360206 34.56 
" clip-path="url(#pf06803828c)" style="fill: none; stroke: #b0b0b0; stroke-width: 0.8; stroke-linecap: square"/>
     </g>
     <g id="line2d_6">
      <g>
       <use xlink:href="#m97ffccf949" x="249.360206" y="256.32" style="stroke: #000000; stroke-width: 0.8"/>
      </g>
     </g>
     <g id="text_3">
      <!-- 2020-05-14 -->
      <g transform="translate(226.030518 266.76375)scale(0.1 -0.1)">
       <defs>
        <path id="TimesNewRomanPSMT-35" d="M 2778 4238 
L 2534 3706 
L 1259 3706 
L 981 3138 
Q 1809 3016 2294 2522 
Q 2709 2097 2709 1522 
Q 2709 1188 2573 903 
Q 2438 619 2231 419 
Q 2025 219 1772 97 
Q 1413 -75 1034 -75 
Q 653 -75 479 54 
Q 306 184 306 341 
Q 306 428 378 495 
Q 450 563 559 563 
Q 641 563 702 538 
Q 763 513 909 409 
Q 1144 247 1384 247 
Q 1750 247 2026 523 
Q 2303 800 2303 1197 
Q 2303 1581 2056 1914 
Q 1809 2247 1375 2428 
Q 1034 2569 447 2591 
L 1259 4238 
L 2778 4238 
z
" transform="scale(0.015625)"/>
        <path id="TimesNewRomanPSMT-34" d="M 2978 1563 
L 2978 1119 
L 2409 1119 
L 2409 0 
L 1894 0 
L 1894 1119 
L 100 1119 
L 100 1519 
L 2066 4325 
L 2409 4325 
L 2409 1563 
L 2978 1563 
z
M 1894 1563 
L 1894 3666 
L 406 1563 
L 1894 1563 
z
" transform="scale(0.015625)"/>
       </defs>
       <use xlink:href="#TimesNewRomanPSMT-32"/>
       <use xlink:href="#TimesNewRomanPSMT-30" x="50"/>
       <use xlink:href="#TimesNewRomanPSMT-32" x="100"/>
       <use xlink:href="#TimesNewRomanPSMT-30" x="150"/>
       <use xlink:href="#TimesNewRomanPSMT-2d" x="200"/>
       <use xlink:href="#TimesNewRomanPSMT-30" x="233.300781"/>
       <use xlink:href="#TimesNewRomanPSMT-35" x="283.300781"/>
       <use xlink:href="#TimesNewRomanPSMT-2d" x="333.300781"/>
       <use xlink:href="#TimesNewRomanPSMT-31" x="366.601562"/>
       <use xlink:href="#TimesNewRomanPSMT-34" x="416.601562"/>
      </g>
     </g>
    </g>
    <g id="xtick_4">
     <g id="line2d_7">
      <path d="M 316.358491 256.32 
L 316.358491 34.56 
" clip-path="url(#pf06803828c)" style="fill: none; stroke: #b0b0b0; stroke-width: 0.8; stroke-linecap: square"/>
     </g>
     <g id="line2d_8">
      <g>
       <use xlink:href="#m97ffccf949" x="316.358491" y="256.32" style="stroke: #000000; stroke-width: 0.8"/>
      </g>
     </g>
     <g id="text_4">
      <!-- 2020-08-24 -->
      <g transform="translate(293.028803 266.76375)scale(0.1 -0.1)">
       <defs>
        <path id="TimesNewRomanPSMT-38" d="M 1228 2134 
Q 725 2547 579 2797 
Q 434 3047 434 3316 
Q 434 3728 753 4026 
Q 1072 4325 1600 4325 
Q 2113 4325 2425 4047 
Q 2738 3769 2738 3413 
Q 2738 3175 2569 2928 
Q 2400 2681 1866 2347 
Q 2416 1922 2594 1678 
Q 2831 1359 2831 1006 
Q 2831 559 2490 242 
Q 2150 -75 1597 -75 
Q 994 -75 656 303 
Q 388 606 388 966 
Q 388 1247 577 1523 
Q 766 1800 1228 2134 
z
M 1719 2469 
Q 2094 2806 2194 3001 
Q 2294 3197 2294 3444 
Q 2294 3772 2109 3958 
Q 1925 4144 1606 4144 
Q 1288 4144 1088 3959 
Q 888 3775 888 3528 
Q 888 3366 970 3203 
Q 1053 3041 1206 2894 
L 1719 2469 
z
M 1375 2016 
Q 1116 1797 991 1539 
Q 866 1281 866 981 
Q 866 578 1086 336 
Q 1306 94 1647 94 
Q 1984 94 2187 284 
Q 2391 475 2391 747 
Q 2391 972 2272 1150 
Q 2050 1481 1375 2016 
z
" transform="scale(0.015625)"/>
       </defs>
       <use xlink:href="#TimesNewRomanPSMT-32"/>
       <use xlink:href="#TimesNewRomanPSMT-30" x="50"/>
       <use xlink:href="#TimesNewRomanPSMT-32" x="100"/>
       <use xlink:href="#TimesNewRomanPSMT-30" x="150"/>
       <use xlink:href="#TimesNewRomanPSMT-2d" x="200"/>
       <use xlink:href="#TimesNewRomanPSMT-30" x="233.300781"/>
       <use xlink:href="#TimesNewRomanPSMT-38" x="283.300781"/>
       <use xlink:href="#TimesNewRomanPSMT-2d" x="333.300781"/>
       <use xlink:href="#TimesNewRomanPSMT-32" x="366.601562"/>
       <use xlink:href="#TimesNewRomanPSMT-34" x="416.601562"/>
      </g>
     </g>
    </g>
    <g id="xtick_5">
     <g id="line2d_9">
      <path d="M 383.356775 256.32 
L 383.356775 34.56 
" clip-path="url(#pf06803828c)" style="fill: none; stroke: #b0b0b0; stroke-width: 0.8; stroke-linecap: square"/>
     </g>
     <g id="line2d_10">
      <g>
       <use xlink:href="#m97ffccf949" x="383.356775" y="256.32" style="stroke: #000000; stroke-width: 0.8"/>
      </g>
     </g>
     <g id="text_5">
      <!-- 2020-12-08 -->
      <g transform="translate(360.027088 266.76375)scale(0.1 -0.1)">
       <use xlink:href="#TimesNewRomanPSMT-32"/>
       <use xlink:href="#TimesNewRomanPSMT-30" x="50"/>
       <use xlink:href="#TimesNewRomanPSMT-32" x="100"/>
       <use xlink:href="#TimesNewRomanPSMT-30" x="150"/>
       <use xlink:href="#TimesNewRomanPSMT-2d" x="200"/>
       <use xlink:href="#TimesNewRomanPSMT-31" x="233.300781"/>
       <use xlink:href="#TimesNewRomanPSMT-32" x="283.300781"/>
       <use xlink:href="#TimesNewRomanPSMT-2d" x="333.300781"/>
       <use xlink:href="#TimesNewRomanPSMT-30" x="366.601562"/>
       <use xlink:href="#TimesNewRomanPSMT-38" x="416.601562"/>
      </g>
     </g>
    </g>
    <g id="xtick_6">
     <g id="line2d_11">
      <path d="M 450.35506 256.32 
L 450.35506 34.56 
" clip-path="url(#pf06803828c)" style="fill: none; stroke: #b0b0b0; stroke-width: 0.8; stroke-linecap: square"/>
     </g>
     <g id="line2d_12">
      <g>
       <use xlink:href="#m97ffccf949" x="450.35506" y="256.32" style="stroke: #000000; stroke-width: 0.8"/>
      </g>
     </g>
     <g id="text_6">
      <!-- 2021-03-24 -->
      <g transform="translate(427.025373 266.76375)scale(0.1 -0.1)">
       <use xlink:href="#TimesNewRomanPSMT-32"/>
       <use xlink:href="#TimesNewRomanPSMT-30" x="50"/>
       <use xlink:href="#TimesNewRomanPSMT-32" x="100"/>
       <use xlink:href="#TimesNewRomanPSMT-31" x="150"/>
       <use xlink:href="#TimesNewRomanPSMT-2d" x="200"/>
       <use xlink:href="#TimesNewRomanPSMT-30" x="233.300781"/>
       <use xlink:href="#TimesNewRomanPSMT-33" x="283.300781"/>
       <use xlink:href="#TimesNewRomanPSMT-2d" x="333.300781"/>
       <use xlink:href="#TimesNewRomanPSMT-32" x="366.601562"/>
       <use xlink:href="#TimesNewRomanPSMT-34" x="416.601562"/>
      </g>
     </g>
    </g>
    <g id="xtick_7">
     <g id="line2d_13">
      <path d="M 517.353345 256.32 
L 517.353345 34.56 
" clip-path="url(#pf06803828c)" style="fill: none; stroke: #b0b0b0; stroke-width: 0.8; stroke-linecap: square"/>
     </g>
     <g id="line2d_14">
      <g>
       <use xlink:href="#m97ffccf949" x="517.353345" y="256.32" style="stroke: #000000; stroke-width: 0.8"/>
      </g>
     </g>
     <g id="text_7">
      <!-- 2021-07-07 -->
      <g transform="translate(494.023657 266.76375)scale(0.1 -0.1)">
       <defs>
        <path id="TimesNewRomanPSMT-37" d="M 644 4238 
L 2916 4238 
L 2916 4119 
L 1503 -88 
L 1153 -88 
L 2419 3728 
L 1253 3728 
Q 900 3728 750 3644 
Q 488 3500 328 3200 
L 238 3234 
L 644 4238 
z
" transform="scale(0.015625)"/>
       </defs>
       <use xlink:href="#TimesNewRomanPSMT-32"/>
       <use xlink:href="#TimesNewRomanPSMT-30" x="50"/>
       <use xlink:href="#TimesNewRomanPSMT-32" x="100"/>
       <use xlink:href="#TimesNewRomanPSMT-31" x="150"/>
       <use xlink:href="#TimesNewRomanPSMT-2d" x="200"/>
       <use xlink:href="#TimesNewRomanPSMT-30" x="233.300781"/>
       <use xlink:href="#TimesNewRomanPSMT-37" x="283.300781"/>
       <use xlink:href="#TimesNewRomanPSMT-2d" x="333.300781"/>
       <use xlink:href="#TimesNewRomanPSMT-30" x="366.601562"/>
       <use xlink:href="#TimesNewRomanPSMT-37" x="416.601562"/>
      </g>
     </g>
    </g>
    <g id="xtick_8">
     <g id="line2d_15">
      <path d="M 584.35163 256.32 
L 584.35163 34.56 
" clip-path="url(#pf06803828c)" style="fill: none; stroke: #b0b0b0; stroke-width: 0.8; stroke-linecap: square"/>
     </g>
     <g id="line2d_16">
      <g>
       <use xlink:href="#m97ffccf949" x="584.35163" y="256.32" style="stroke: #000000; stroke-width: 0.8"/>
      </g>
     </g>
     <g id="text_8">
      <!-- 2021-10-22 -->
      <g transform="translate(561.021942 266.76375)scale(0.1 -0.1)">
       <use xlink:href="#TimesNewRomanPSMT-32"/>
       <use xlink:href="#TimesNewRomanPSMT-30" x="50"/>
       <use xlink:href="#TimesNewRomanPSMT-32" x="100"/>
       <use xlink:href="#TimesNewRomanPSMT-31" x="150"/>
       <use xlink:href="#TimesNewRomanPSMT-2d" x="200"/>
       <use xlink:href="#TimesNewRomanPSMT-31" x="233.300781"/>
       <use xlink:href="#TimesNewRomanPSMT-30" x="283.300781"/>
       <use xlink:href="#TimesNewRomanPSMT-2d" x="333.300781"/>
       <use xlink:href="#TimesNewRomanPSMT-32" x="366.601562"/>
       <use xlink:href="#TimesNewRomanPSMT-32" x="416.601562"/>
      </g>
     </g>
    </g>
    <g id="text_9">
     <!-- 时间 -->
     <g transform="translate(359 280.67625)scale(0.1 -0.1)">
      <defs>
       <path id="SimSun-65f6" d="M 4500 3600 
Q 4500 4575 4475 5225 
L 5100 4900 
L 4850 4725 
L 4850 3600 
L 5225 3600 
L 5550 3925 
L 6025 3450 
L 4850 3450 
L 4850 100 
Q 4850 -375 4300 -575 
Q 4275 -200 3475 -25 
L 3475 100 
Q 4150 0 4325 25 
Q 4500 50 4500 325 
L 4500 3450 
L 3200 3450 
Q 2875 3450 2600 3375 
L 2375 3600 
L 4500 3600 
z
M 2875 2825 
Q 3525 2375 3637 2200 
Q 3750 2025 3750 1925 
Q 3750 1800 3637 1637 
Q 3525 1475 3475 1475 
Q 3400 1475 3325 1775 
Q 3200 2225 2800 2750 
L 2875 2825 
z
M 925 4150 
L 925 2650 
L 1950 2650 
L 1950 4150 
L 925 4150 
z
M 925 2500 
L 925 900 
L 1950 900 
L 1950 2500 
L 925 2500 
z
M 2300 2000 
Q 2300 800 2325 450 
L 1950 250 
L 1950 750 
L 925 750 
L 925 225 
L 550 25 
Q 575 825 575 2425 
Q 575 4025 550 4500 
L 950 4300 
L 1900 4300 
L 2100 4550 
L 2500 4225 
L 2300 4050 
L 2300 2000 
z
" transform="scale(0.015625)"/>
       <path id="SimSun-95f4" d="M 2150 525 
Q 2175 1325 2175 2112 
Q 2175 2900 2150 3675 
L 2525 3450 
L 3750 3450 
L 4000 3700 
L 4325 3375 
L 4125 3200 
Q 4125 1550 4150 775 
L 3800 575 
L 3800 975 
L 2500 975 
L 2500 700 
L 2150 525 
z
M 2500 3300 
L 2500 2325 
L 3800 2325 
L 3800 3300 
L 2500 3300 
z
M 2500 2175 
L 2500 1125 
L 3800 1125 
L 3800 2175 
L 2500 2175 
z
M 1275 5200 
Q 1850 4825 1950 4675 
Q 2050 4525 2050 4425 
Q 2050 4275 1950 4137 
Q 1850 4000 1825 4000 
Q 1750 4000 1675 4275 
Q 1550 4650 1200 5125 
L 1275 5200 
z
M 1125 425 
Q 1125 25 1150 -375 
L 750 -525 
Q 775 -150 775 1950 
Q 775 4050 750 4425 
L 1350 4125 
L 1125 3975 
L 1125 425 
z
M 4225 125 
Q 5025 0 5125 37 
Q 5225 75 5225 250 
L 5225 4450 
L 3225 4450 
Q 2900 4450 2625 4375 
L 2400 4600 
L 5175 4600 
L 5425 4850 
L 5775 4500 
L 5575 4350 
L 5575 225 
Q 5575 -100 5462 -250 
Q 5350 -400 5000 -550 
Q 4800 -125 4225 25 
L 4225 125 
z
" transform="scale(0.015625)"/>
      </defs>
      <use xlink:href="#SimSun-65f6"/>
      <use xlink:href="#SimSun-95f4" x="100"/>
     </g>
    </g>
   </g>
   <g id="matplotlib.axis_2">
    <g id="ytick_1">
     <g id="line2d_17">
      <path d="M 90 219.667678 
L 648 219.667678 
" clip-path="url(#pf06803828c)" style="fill: none; stroke: #b0b0b0; stroke-width: 0.8; stroke-linecap: square"/>
     </g>
     <g id="line2d_18">
      <defs>
       <path id="me1a5054c92" d="M 0 0 
L 3.5 0 
" style="stroke: #000000; stroke-width: 0.8"/>
      </defs>
      <g>
       <use xlink:href="#me1a5054c92" x="90" y="219.667678" style="stroke: #000000; stroke-width: 0.8"/>
      </g>
     </g>
     <g id="text_10">
      <!-- 0.6 -->
      <g transform="translate(74 223.139553)scale(0.1 -0.1)">
       <defs>
        <path id="TimesNewRomanPSMT-2e" d="M 800 606 
Q 947 606 1047 504 
Q 1147 403 1147 259 
Q 1147 116 1045 14 
Q 944 -88 800 -88 
Q 656 -88 554 14 
Q 453 116 453 259 
Q 453 406 554 506 
Q 656 606 800 606 
z
" transform="scale(0.015625)"/>
       </defs>
       <use xlink:href="#TimesNewRomanPSMT-30"/>
       <use xlink:href="#TimesNewRomanPSMT-2e" x="50"/>
       <use xlink:href="#TimesNewRomanPSMT-36" x="75"/>
      </g>
     </g>
    </g>
    <g id="ytick_2">
     <g id="line2d_19">
      <path d="M 90 178.146093 
L 648 178.146093 
" clip-path="url(#pf06803828c)" style="fill: none; stroke: #b0b0b0; stroke-width: 0.8; stroke-linecap: square"/>
     </g>
     <g id="line2d_20">
      <g>
       <use xlink:href="#me1a5054c92" x="90" y="178.146093" style="stroke: #000000; stroke-width: 0.8"/>
      </g>
     </g>
     <g id="text_11">
      <!-- 0.8 -->
      <g transform="translate(74 181.617968)scale(0.1 -0.1)">
       <use xlink:href="#TimesNewRomanPSMT-30"/>
       <use xlink:href="#TimesNewRomanPSMT-2e" x="50"/>
       <use xlink:href="#TimesNewRomanPSMT-38" x="75"/>
      </g>
     </g>
    </g>
    <g id="ytick_3">
     <g id="line2d_21">
      <path d="M 90 136.624508 
L 648 136.624508 
" clip-path="url(#pf06803828c)" style="fill: none; stroke: #b0b0b0; stroke-width: 0.8; stroke-linecap: square"/>
     </g>
     <g id="line2d_22">
      <g>
       <use xlink:href="#me1a5054c92" x="90" y="136.624508" style="stroke: #000000; stroke-width: 0.8"/>
      </g>
     </g>
     <g id="text_12">
      <!-- 1.0 -->
      <g transform="translate(74 140.096383)scale(0.1 -0.1)">
       <use xlink:href="#TimesNewRomanPSMT-31"/>
       <use xlink:href="#TimesNewRomanPSMT-2e" x="50"/>
       <use xlink:href="#TimesNewRomanPSMT-30" x="75"/>
      </g>
     </g>
    </g>
    <g id="ytick_4">
     <g id="line2d_23">
      <path d="M 90 95.102922 
L 648 95.102922 
" clip-path="url(#pf06803828c)" style="fill: none; stroke: #b0b0b0; stroke-width: 0.8; stroke-linecap: square"/>
     </g>
     <g id="line2d_24">
      <g>
       <use xlink:href="#me1a5054c92" x="90" y="95.102922" style="stroke: #000000; stroke-width: 0.8"/>
      </g>
     </g>
     <g id="text_13">
      <!-- 1.2 -->
      <g transform="translate(74 98.574797)scale(0.1 -0.1)">
       <use xlink:href="#TimesNewRomanPSMT-31"/>
       <use xlink:href="#TimesNewRomanPSMT-2e" x="50"/>
       <use xlink:href="#TimesNewRomanPSMT-32" x="75"/>
      </g>
     </g>
    </g>
    <g id="ytick_5">
     <g id="line2d_25">
      <path d="M 90 53.581337 
L 648 53.581337 
" clip-path="url(#pf06803828c)" style="fill: none; stroke: #b0b0b0; stroke-width: 0.8; stroke-linecap: square"/>
     </g>
     <g id="line2d_26">
      <g>
       <use xlink:href="#me1a5054c92" x="90" y="53.581337" style="stroke: #000000; stroke-width: 0.8"/>
      </g>
     </g>
     <g id="text_14">
      <!-- 1.4 -->
      <g transform="translate(74 57.053212)scale(0.1 -0.1)">
       <use xlink:href="#TimesNewRomanPSMT-31"/>
       <use xlink:href="#TimesNewRomanPSMT-2e" x="50"/>
       <use xlink:href="#TimesNewRomanPSMT-34" x="75"/>
      </g>
     </g>
    </g>
    <g id="text_15">
     <!-- 累积收益率 -->
     <g transform="translate(68.710938 170.44)rotate(-90)scale(0.1 -0.1)">
      <defs>
       <path id="SimSun-7d2f" d="M 1675 4725 
L 1675 4100 
L 3125 4100 
L 3125 4725 
L 1675 4725 
z
M 3450 4725 
L 3450 4100 
L 4925 4100 
L 4925 4725 
L 3450 4725 
z
M 1675 3950 
L 1675 3375 
L 3125 3375 
L 3125 3950 
L 1675 3950 
z
M 3450 3950 
L 3450 3375 
L 4925 3375 
L 4925 3950 
L 3450 3950 
z
M 5250 4625 
Q 5250 4275 5250 3875 
Q 5250 3475 5275 3075 
L 4925 2950 
L 4925 3225 
L 1675 3225 
L 1675 3000 
L 1325 2875 
Q 1350 3500 1350 4125 
Q 1350 4750 1325 5075 
L 1675 4875 
L 4900 4875 
L 5075 5075 
L 5425 4775 
L 5250 4625 
z
M 3525 2875 
Q 3225 2850 2875 2700 
Q 2525 2550 1825 2275 
L 3550 2300 
Q 3925 2550 4175 2800 
L 4500 2400 
Q 4275 2400 3675 2100 
Q 3050 1775 1875 1300 
L 4775 1475 
Q 4550 1725 4300 1975 
L 4375 2025 
Q 5100 1675 5262 1487 
Q 5425 1300 5412 1150 
Q 5400 1000 5337 900 
Q 5275 800 5250 800 
Q 5200 800 5125 950 
Q 5000 1150 4875 1350 
L 3550 1225 
L 3550 100 
Q 3575 -425 3000 -525 
Q 3000 -175 2200 0 
L 2200 100 
Q 2900 25 3062 37 
Q 3225 50 3225 325 
L 3225 1200 
Q 2750 1150 2250 1075 
Q 1750 1000 1450 825 
L 1175 1350 
Q 1550 1400 2000 1562 
Q 2450 1725 3375 2175 
Q 2300 2075 2000 2037 
Q 1700 2000 1550 1900 
L 1325 2350 
Q 1625 2350 2200 2612 
Q 2775 2875 3150 3250 
L 3525 2875 
z
M 2625 500 
Q 2325 450 1850 175 
Q 1375 -125 550 -450 
L 500 -375 
Q 1125 -50 1562 300 
Q 2000 650 2225 950 
L 2625 500 
z
M 4075 900 
Q 5000 575 5312 387 
Q 5625 200 5650 12 
Q 5675 -175 5612 -287 
Q 5550 -400 5525 -400 
Q 5425 -400 5250 -150 
Q 4975 250 4025 825 
L 4075 900 
z
" transform="scale(0.015625)"/>
       <path id="SimSun-79ef" d="M 3125 1750 
Q 3150 2475 3150 3225 
Q 3150 3975 3125 4725 
L 3500 4525 
L 5225 4525 
L 5475 4775 
L 5850 4400 
L 5600 4250 
Q 5600 2300 5625 1975 
L 5275 1850 
L 5275 2175 
L 3475 2175 
L 3475 1875 
L 3125 1750 
z
M 3475 4375 
L 3475 2325 
L 5275 2325 
L 5275 4375 
L 3475 4375 
z
M 3825 1700 
L 4300 1300 
L 4075 1225 
Q 3125 -75 2200 -550 
L 2175 -450 
Q 2800 50 3225 625 
Q 3650 1200 3825 1700 
z
M 4700 1600 
Q 5725 650 5850 362 
Q 5975 75 5975 -75 
Q 5975 -225 5900 -337 
Q 5825 -450 5775 -450 
Q 5725 -450 5650 -250 
Q 5525 75 5350 450 
Q 5175 825 4650 1525 
L 4700 1600 
z
M 1875 2575 
Q 1875 225 1900 -400 
L 1525 -625 
Q 1550 125 1550 2350 
Q 1025 1275 300 625 
L 250 700 
Q 625 1200 962 1862 
Q 1300 2525 1500 3200 
L 1125 3200 
Q 800 3200 525 3125 
L 300 3350 
L 1550 3350 
L 1550 4475 
Q 900 4375 525 4350 
L 525 4450 
Q 1075 4550 1525 4712 
Q 1975 4875 2375 5150 
L 2725 4700 
Q 2425 4700 1875 4550 
L 1875 3350 
L 2250 3350 
L 2550 3650 
L 2975 3200 
L 1875 3200 
L 1875 2675 
Q 2475 2400 2612 2212 
Q 2750 2025 2750 1925 
Q 2750 1800 2662 1675 
Q 2575 1550 2550 1550 
Q 2450 1550 2375 1800 
Q 2250 2175 1875 2575 
z
" transform="scale(0.015625)"/>
       <path id="SimSun-6536" d="M 3325 3600 
Q 3575 2100 4200 1200 
Q 4600 1950 4850 3600 
L 3325 3600 
z
M 3400 5275 
L 4025 4975 
L 3775 4850 
Q 3575 4375 3325 3750 
L 5250 3750 
L 5575 4075 
L 6050 3600 
L 5225 3600 
Q 4975 2000 4425 900 
Q 5300 -25 6150 -75 
L 6150 -175 
Q 5750 -200 5575 -525 
Q 4750 -50 4200 650 
Q 3350 -175 2300 -600 
L 2250 -525 
Q 3225 -25 4000 900 
Q 3325 2100 3225 3550 
Q 2875 2725 2425 2100 
L 2350 2150 
Q 3050 3500 3400 5275 
z
M 575 1575 
L 575 3100 
Q 575 3600 550 4125 
L 1125 3850 
L 900 3675 
L 900 1425 
L 1750 1725 
Q 1750 4350 1725 5250 
L 2300 4975 
L 2075 4775 
L 2075 -450 
L 1725 -650 
Q 1750 375 1750 1600 
Q 975 1175 750 825 
L 475 1200 
Q 600 1325 575 1575 
z
" transform="scale(0.015625)"/>
       <path id="SimSun-76ca" d="M 3900 1725 
L 3900 -75 
L 4725 -75 
L 4725 1725 
L 3900 1725 
z
M 1275 2100 
L 1625 1875 
L 4675 1875 
L 4875 2125 
L 5250 1800 
L 5050 1650 
L 5050 -75 
L 5300 -75 
L 5650 275 
L 6100 -225 
L 1125 -225 
Q 800 -225 525 -300 
L 300 -75 
L 1300 -75 
Q 1300 1475 1275 2100 
z
M 1625 1725 
L 1625 -75 
L 2450 -75 
L 2450 1725 
L 1625 1725 
z
M 2775 1725 
L 2775 -75 
L 3575 -75 
L 3575 1725 
L 2775 1725 
z
M 2475 3550 
L 2900 3150 
Q 2575 3025 2050 2675 
Q 1525 2300 725 2000 
L 675 2075 
Q 1875 2750 2475 3550 
z
M 3700 3450 
Q 4425 3200 4987 2950 
Q 5550 2700 5500 2362 
Q 5450 2025 5350 2025 
Q 5275 2025 5200 2125 
Q 4975 2375 4662 2650 
Q 4350 2925 3650 3375 
L 3700 3450 
z
M 1725 5000 
L 1775 5075 
Q 2375 4800 2587 4587 
Q 2800 4375 2800 4225 
Q 2800 4050 2600 3825 
L 3625 3825 
Q 4175 4800 4275 5225 
L 4825 4875 
Q 4475 4725 3775 3825 
L 4900 3825 
L 5275 4200 
L 5775 3675 
L 1550 3675 
Q 1225 3675 950 3600 
L 725 3825 
L 2425 3825 
Q 2325 4375 1725 5000 
z
" transform="scale(0.015625)"/>
       <path id="SimSun-7387" d="M 875 3725 
L 925 3800 
Q 1375 3650 1550 3525 
Q 1725 3400 1725 3250 
Q 1725 3175 1662 3025 
Q 1600 2875 1550 2875 
Q 1500 2875 1425 3050 
Q 1275 3325 875 3725 
z
M 550 1850 
Q 875 1925 2000 2575 
L 2050 2500 
Q 1675 2225 1337 1937 
Q 1000 1650 875 1425 
L 550 1850 
z
M 5200 3450 
Q 4800 3150 4275 2800 
L 4225 2875 
Q 4775 3400 5050 3925 
L 5450 3525 
L 5200 3450 
z
M 4325 2500 
L 4350 2575 
Q 5225 2350 5375 2212 
Q 5525 2075 5525 1900 
Q 5525 1775 5487 1662 
Q 5450 1550 5400 1550 
Q 5325 1550 5200 1800 
Q 4975 2150 4325 2500 
z
M 3150 3900 
Q 2500 3300 2300 3150 
Q 2800 3150 3400 3175 
Q 3700 3500 3850 3825 
L 4250 3450 
Q 4050 3400 3450 2825 
Q 2850 2250 2475 1950 
Q 3150 1975 3850 2000 
Q 3750 2175 3550 2450 
L 3600 2500 
Q 4050 2250 4200 2100 
Q 4350 1950 4350 1850 
Q 4350 1775 4250 1625 
Q 4150 1475 4100 1475 
Q 4075 1475 4050 1550 
Q 4000 1700 3900 1900 
Q 3650 1875 3075 1800 
L 3500 1550 
L 3325 1425 
L 3325 975 
L 5325 975 
L 5650 1300 
L 6100 825 
L 3325 825 
Q 3325 -275 3350 -525 
L 2975 -650 
Q 3000 0 3000 825 
L 1125 825 
Q 800 825 525 750 
L 300 975 
L 3000 975 
L 3000 1775 
Q 2450 1700 2200 1525 
L 1950 1950 
Q 2275 1950 2675 2350 
Q 3075 2750 3325 3050 
Q 2400 2950 2150 2775 
L 1950 3175 
Q 2150 3150 2475 3575 
Q 2800 4000 2900 4225 
L 1450 4225 
Q 1125 4225 850 4150 
L 625 4375 
L 3100 4375 
Q 3050 4800 2675 5200 
L 2725 5250 
Q 3225 5050 3337 4912 
Q 3450 4775 3450 4700 
Q 3450 4550 3250 4375 
L 5025 4375 
L 5350 4675 
L 5775 4225 
L 3050 4225 
L 3375 3950 
L 3150 3900 
z
" transform="scale(0.015625)"/>
      </defs>
      <use xlink:href="#SimSun-7d2f"/>
      <use xlink:href="#SimSun-79ef" x="100"/>
      <use xlink:href="#SimSun-6536" x="200"/>
      <use xlink:href="#SimSun-76ca" x="300"/>
      <use xlink:href="#SimSun-7387" x="400"/>
     </g>
    </g>
   </g>
   <g id="line2d_27">
    <path d="M 115.363636 136.624508 
L 129.720412 136.624508 
L 130.67753 137.868675 
L 131.634648 138.487766 
L 133.548885 138.487766 
L 134.506003 139.807491 
L 135.463122 138.2464 
L 136.42024 137.465854 
L 137.377358 138.012236 
L 138.334477 135.670599 
L 139.291595 136.216981 
L 140.248714 135.436435 
L 141.205832 133.407016 
L 142.16295 120.606065 
L 143.120069 122.947702 
L 144.077187 125.679613 
L 145.034305 127.240704 
L 146.948542 128.669884 
L 147.90566 128.669884 
L 148.862779 131.005196 
L 149.819897 131.644878 
L 178.533448 131.644878 
L 180.447684 140.980514 
L 181.404803 134.718045 
L 182.361921 142.580923 
L 183.319039 158.932926 
L 184.276158 152.04421 
L 185.233276 151.905044 
L 186.190395 150.095886 
L 187.147513 150.678296 
L 198.632933 150.678296 
L 199.590051 146.127035 
L 200.54717 149.021966 
L 201.504288 149.607597 
L 213.946827 149.607597 
L 214.903945 158.085914 
L 215.861063 153.880464 
L 216.818182 154.451519 
L 219.689537 154.451519 
L 220.646655 152.34879 
L 221.603774 156.176353 
L 222.560892 158.992861 
L 223.51801 159.54858 
L 229.26072 159.54858 
L 230.217839 159.00662 
L 231.174957 156.8831 
L 232.132075 161.335643 
L 233.089194 162.157651 
L 234.046312 161.198642 
L 235.003431 162.157651 
L 235.960549 165.993689 
L 236.917667 165.240181 
L 237.874786 166.13069 
L 238.831904 168.322712 
L 239.789022 166.952698 
L 241.703259 160.239632 
L 242.660377 160.650636 
L 243.617496 164.349673 
L 244.574614 166.336192 
L 245.531732 164.349673 
L 246.488851 163.322163 
L 247.445969 166.610195 
L 248.403087 166.610195 
L 249.360206 169.624224 
L 250.317324 169.624224 
L 251.274443 164.692176 
L 252.231561 165.240181 
L 253.188679 168.802216 
L 254.145798 169.007718 
L 255.102916 169.533392 
L 257.974271 169.533392 
L 258.931389 168.443513 
L 259.888508 171.40247 
L 260.845626 166.695039 
L 261.802744 167.227651 
L 262.759863 170.350057 
L 263.716981 171.06269 
L 264.674099 173.135803 
L 265.631218 171.904892 
L 266.588336 172.941449 
L 268.502573 176.439827 
L 269.459691 177.670738 
L 270.41681 178.383371 
L 271.373928 178.880918 
L 274.245283 178.880918 
L 275.202401 181.028704 
L 276.15952 181.918097 
L 277.116638 176.518208 
L 278.073756 179.567557 
L 279.030875 178.169939 
L 279.987993 178.668126 
L 280.945111 177.401904 
L 281.90223 175.874044 
L 282.859348 176.379119 
L 302.958834 176.379119 
L 303.915952 179.23547 
L 304.87307 179.054486 
L 305.830189 181.165964 
L 306.787307 176.460384 
L 307.744425 176.038088 
L 308.701544 171.030867 
L 309.658662 171.694475 
L 310.61578 171.068884 
L 311.572899 167.753253 
L 312.530017 170.943766 
L 313.487136 172.570302 
L 314.444254 172.320066 
L 315.401372 173.070775 
L 316.358491 174.509634 
L 317.315609 174.134279 
L 319.229846 175.635697 
L 320.186964 171.757034 
L 321.144082 173.633807 
L 322.101201 173.946602 
L 324.015437 170.255616 
L 324.972556 168.62908 
L 325.929674 166.376953 
L 326.886792 167.190221 
L 327.843911 169.192112 
L 328.801029 166.189276 
L 329.758148 169.066993 
L 330.715266 170.943766 
L 331.672384 169.880262 
L 332.629503 167.878371 
L 333.586621 168.691639 
L 334.543739 160.934312 
L 336.457976 163.061321 
L 337.415094 164.687857 
L 338.372213 165.226491 
L 339.329331 168.812089 
L 340.286449 163.858147 
L 341.243568 164.55678 
L 342.200686 166.271606 
L 343.157804 166.208094 
L 344.114923 164.429756 
L 345.072041 166.462142 
L 346.02916 167.795895 
L 346.986278 168.303992 
L 347.943396 167.287799 
L 348.900515 168.049944 
L 349.857633 169.701258 
L 350.814751 168.748576 
L 351.77187 166.462142 
L 352.728988 167.160775 
L 353.686106 166.39863 
L 355.600343 173.257934 
L 356.557461 170.336378 
L 357.51458 169.256673 
L 358.471698 166.71619 
L 359.428816 166.208094 
L 360.385935 165.382437 
L 361.343053 158.459621 
L 362.300172 157.125867 
L 363.25729 156.427234 
L 364.214408 157.951524 
L 365.171527 155.156993 
L 366.128645 155.724219 
L 369.957118 155.724219 
L 370.914237 155.373248 
L 371.871355 155.939826 
L 376.656947 155.939826 
L 377.614065 161.909077 
L 378.571184 161.612133 
L 379.528302 159.355362 
L 380.48542 159.909993 
L 384.313894 159.909993 
L 385.271012 160.975925 
L 386.22813 161.745371 
L 387.185249 162.292833 
L 391.013722 162.292833 
L 391.97084 164.939001 
L 392.927959 165.702764 
L 393.885077 167.102997 
L 394.842196 166.40288 
L 395.799314 165.384529 
L 396.756432 163.347827 
L 397.713551 162.711358 
L 398.670669 163.602415 
L 399.627787 161.565713 
L 400.584906 167.421231 
L 401.542024 166.593821 
L 402.499142 161.247478 
L 403.456261 160.99289 
L 404.413379 157.492308 
L 405.370497 154.691843 
L 406.327616 155.260465 
L 427.38422 155.260465 
L 428.341338 156.894654 
L 429.298456 157.585242 
L 430.255575 155.827381 
L 431.212693 155.952942 
L 432.169811 137.118715 
L 433.12693 136.428127 
L 434.084048 134.858608 
L 435.041166 135.235292 
L 435.998285 135.862284 
L 450.35506 135.862284 
L 451.312178 137.90568 
L 452.269297 136.757544 
L 453.226415 134.866497 
L 454.183533 132.367613 
L 455.140652 141.620237 
L 456.09777 142.768372 
L 457.054889 141.620237 
L 458.012007 145.469868 
L 458.969125 143.646359 
L 459.926244 147.225841 
L 460.883362 149.3195 
L 462.797599 153.169132 
L 463.754717 149.994874 
L 464.711835 150.87286 
L 465.668954 149.251963 
L 466.626072 148.373976 
L 467.58319 150.197486 
L 468.540309 150.737785 
L 469.497427 148.238902 
L 470.454545 154.51988 
L 471.411664 157.153838 
L 472.368782 155.600478 
L 473.325901 157.288913 
L 474.283019 155.870628 
L 475.240137 153.979581 
L 476.197256 155.668016 
L 477.154374 155.127716 
L 478.111492 158.234437 
L 479.068611 157.694138 
L 480.025729 161.678844 
L 480.982847 162.691905 
L 481.939966 161.408694 
L 482.897084 161.071007 
L 483.854202 159.922872 
L 484.811321 163.434816 
L 485.768439 162.084068 
L 487.682676 167.351986 
L 488.639794 163.502354 
L 489.596913 160.665783 
L 490.554031 160.800858 
L 491.511149 162.219143 
L 492.468268 163.907578 
L 493.425386 164.582952 
L 494.382504 163.502354 
L 495.339623 164.11019 
L 496.296741 166.406462 
L 497.253859 169.040421 
L 498.210978 168.229972 
L 499.168096 168.757979 
L 501.082333 168.757979 
L 502.039451 172.950771 
L 502.996569 171.567236 
L 503.953688 171.290529 
L 504.910806 171.809354 
L 507.782161 171.809354 
L 508.73928 173.519439 
L 509.696398 172.256458 
L 510.653516 172.772386 
L 513.524871 172.772386 
L 514.48199 179.651036 
L 515.439108 181.224996 
L 516.396226 181.714018 
L 528.838765 181.714018 
L 529.795883 194.471327 
L 530.753002 202.884872 
L 531.71012 200.571147 
L 532.667238 199.799906 
L 533.624357 200.233203 
L 560.423671 200.233203 
L 561.380789 201.58324 
L 562.337907 200.170872 
L 563.295026 200.603057 
L 564.252144 208.645153 
L 565.209262 212.349724 
L 566.166381 212.745372 
L 584.35163 212.745372 
L 585.308748 217.687818 
L 586.265866 218.067452 
L 597.751286 218.067452 
L 598.708405 224.677793 
L 599.665523 226.855914 
L 600.622642 227.208044 
L 604.451115 227.208044 
L 605.408233 227.437709 
L 606.365352 227.788093 
L 610.193825 227.788093 
L 611.150943 226.80227 
L 612.108062 223.241853 
L 614.022298 220.317225 
L 614.979417 217.456177 
L 615.936535 218.282702 
L 616.893654 214.531549 
L 618.80789 217.710492 
L 619.765009 220.253647 
L 620.722127 219.554279 
L 621.679245 218.409859 
L 622.636364 220.06291 
L 622.636364 220.06291 
" clip-path="url(#pf06803828c)" style="fill: none; stroke: #1f77b4; stroke-width: 1.5; stroke-linecap: square"/>
   </g>
   <g id="line2d_28">
    <path d="M 115.363636 136.624508 
L 117.277873 136.624508 
L 118.234991 132.026639 
L 119.19211 134.176336 
L 120.149228 138.629279 
L 121.106346 139.550578 
L 122.063465 137.170556 
L 123.020583 137.86153 
L 123.977702 139.473803 
L 124.93482 139.627353 
L 125.891938 140.548652 
L 126.849057 138.245405 
L 128.763293 137.86153 
L 129.720412 139.627353 
L 130.67753 140.241552 
L 131.634648 138.936379 
L 132.591767 139.552267 
L 147.90566 139.552267 
L 148.862779 141.769684 
L 149.819897 141.623923 
L 150.777015 141.186638 
L 151.734134 138.927335 
L 152.691252 140.895115 
L 153.64837 140.166308 
L 154.605489 140.166308 
L 155.562607 139.073096 
L 156.519726 129.598597 
L 157.476844 130.242499 
L 160.348199 130.242499 
L 161.305317 135.396563 
L 162.262436 139.639278 
L 163.219554 140.24538 
L 164.176672 134.655771 
L 165.133791 135.463907 
L 167.048027 127.517234 
L 168.005146 124.958136 
L 169.919383 132.029328 
L 170.876501 130.345711 
L 171.833619 130.884469 
L 172.790738 127.382545 
L 173.747856 132.366052 
L 174.704974 130.884469 
L 175.662093 132.837465 
L 176.619211 138.898486 
L 177.576329 138.629108 
L 178.533448 139.10052 
L 180.447684 147.518606 
L 181.404803 141.457584 
L 182.361921 149.067534 
L 183.319039 149.653029 
L 189.06175 149.653029 
L 190.018868 150.236767 
L 191.933105 138.76247 
L 192.890223 141.297489 
L 193.847341 146.100683 
L 194.80446 146.434238 
L 195.761578 145.100018 
L 196.718696 149.102679 
L 197.675815 151.437565 
L 198.632933 148.568991 
L 199.590051 143.365531 
L 200.54717 146.300816 
L 201.504288 146.894611 
L 203.418525 146.894611 
L 204.375643 140.148196 
L 205.332762 139.895146 
L 206.28988 147.296838 
L 207.246998 150.966052 
L 208.204117 149.384494 
L 210.118353 154.761791 
L 211.075472 157.924907 
L 212.03259 163.681778 
L 212.989708 166.402058 
L 213.946827 177.852537 
L 214.903945 184.621605 
L 215.861063 181.015653 
L 216.818182 181.505304 
L 219.689537 181.505304 
L 220.646655 179.702324 
L 221.603774 182.984257 
L 222.560892 185.399264 
L 223.51801 179.330785 
L 224.475129 177.782703 
L 225.432247 178.463859 
L 226.389365 176.606161 
L 227.346484 177.287317 
L 228.303602 178.959245 
L 229.26072 177.782703 
L 230.217839 176.791931 
L 231.174957 174.87231 
L 232.132075 178.897322 
L 233.089194 179.640401 
L 234.046312 178.773475 
L 235.003431 179.640401 
L 235.960549 180.134177 
L 256.060034 180.134177 
L 257.017153 178.248852 
L 257.974271 177.799032 
L 258.931389 176.256792 
L 259.888508 179.084232 
L 260.845626 174.586032 
L 261.802744 169.188192 
L 262.759863 171.758592 
L 263.716981 172.465452 
L 264.674099 172.980753 
L 268.502573 172.980753 
L 269.459691 174.747025 
L 270.41681 175.472167 
L 271.373928 174.021884 
L 272.331046 174.944791 
L 273.288165 173.56043 
L 274.245283 173.164898 
L 275.202401 174.878869 
L 276.15952 175.801777 
L 277.116638 170.198409 
L 278.073756 173.362664 
L 279.030875 173.875273 
L 284.773585 173.875273 
L 285.730703 173.101325 
L 286.687822 181.258407 
L 287.64494 181.090795 
L 288.602058 182.543426 
L 289.559177 186.230874 
L 290.516295 190.365286 
L 291.473413 192.097269 
L 292.430532 186.119134 
L 293.38765 187.739376 
L 294.344768 188.465691 
L 295.301887 190.477027 
L 296.259005 193.214677 
L 297.216123 195.170142 
L 298.173242 194.108604 
L 299.13036 192.767714 
L 300.087479 194.052734 
L 301.044597 194.276216 
L 302.958834 189.247877 
L 303.915952 191.426824 
L 304.87307 191.259213 
L 305.830189 193.214677 
L 306.787307 188.856784 
L 307.744425 188.465691 
L 308.701544 183.828446 
L 309.658662 184.443021 
L 310.61578 183.863654 
L 311.572899 180.793009 
L 312.530017 183.747781 
L 313.487136 185.254135 
L 314.444254 185.022388 
L 315.401372 185.717628 
L 316.358491 187.050172 
L 317.315609 186.702552 
L 319.229846 188.093033 
L 320.186964 184.500958 
L 321.144082 186.239059 
L 322.101201 186.528742 
L 324.015437 183.110477 
L 324.972556 181.604123 
L 325.929674 179.518402 
L 326.886792 180.271579 
L 327.843911 182.125553 
L 328.801029 179.344592 
L 329.758148 182.00968 
L 330.715266 183.747781 
L 331.672384 182.762857 
L 332.629503 180.908882 
L 333.586621 181.662059 
L 334.543739 174.477909 
L 336.457976 176.447757 
L 337.415094 177.954111 
L 338.372213 181.430313 
L 339.329331 184.211274 
L 340.286449 179.692212 
L 341.243568 180.329515 
L 342.200686 181.893806 
L 343.157804 181.83587 
L 344.114923 180.213642 
L 345.072041 182.067616 
L 346.02916 182.554111 
L 366.128645 182.554111 
L 367.085763 186.884819 
L 368.042882 186.072353 
L 369.957118 177.622705 
L 370.914237 176.810239 
L 371.871355 177.312505 
L 372.828473 177.312505 
L 373.785592 178.831939 
L 374.74271 179.100011 
L 375.699828 178.349409 
L 376.656947 174.757243 
L 377.614065 179.636155 
L 378.571184 179.368083 
L 379.528302 179.862676 
L 383.356775 179.862676 
L 384.313894 183.276137 
L 385.271012 183.725422 
L 386.22813 184.399349 
L 387.185249 181.815961 
L 388.142367 183.893904 
L 389.099485 183.613101 
L 390.056604 182.265246 
L 391.97084 186.028007 
L 392.927959 186.701934 
L 393.885077 187.937467 
L 394.842196 187.319701 
L 395.799314 186.421131 
L 396.756432 184.623992 
L 397.713551 184.062386 
L 398.670669 184.848634 
L 399.627787 183.051495 
L 400.584906 188.21827 
L 401.542024 187.488183 
L 402.499142 182.770692 
L 403.456261 182.546049 
L 404.413379 179.457216 
L 405.370497 176.986149 
L 406.327616 177.435434 
L 407.284734 176.312222 
L 408.241852 175.806776 
L 409.198971 176.031419 
L 410.156089 168.674379 
L 411.113208 168.562058 
L 412.070326 172.942585 
L 413.027444 175.18901 
L 413.984563 179.906501 
L 414.941681 179.344895 
L 415.898799 177.435434 
L 416.855918 179.120252 
L 417.813036 184.567831 
L 418.770154 188.16211 
L 420.684391 185.073276 
L 421.641509 187.432022 
L 422.598628 187.600504 
L 423.555746 182.040604 
L 424.512864 180.636589 
L 425.469983 182.770692 
L 426.427101 182.321407 
L 427.38422 175.694455 
L 428.341338 176.649185 
L 429.298456 177.266952 
L 430.255575 175.694455 
L 431.212693 175.806776 
L 432.169811 176.312053 
L 435.998285 176.312053 
L 436.955403 180.863798 
L 437.912521 186.610936 
L 438.86964 188.31009 
L 439.826758 189.209642 
L 440.783877 190.858821 
L 441.740995 188.559965 
L 442.698113 186.860812 
L 443.655232 187.110687 
L 444.61235 179.814321 
L 445.569468 180.763848 
L 446.526587 180.813823 
L 447.483705 188.31009 
L 448.440823 186.16116 
L 449.397942 187.210637 
L 450.35506 190.508995 
L 451.312178 191.558472 
L 452.269297 190.708895 
L 453.226415 189.309592 
L 454.183533 187.460513 
L 455.140652 194.307103 
L 456.09777 195.15668 
L 457.054889 194.307103 
L 458.012007 197.155684 
L 458.969125 195.806356 
L 459.926244 198.455037 
L 461.84048 201.353594 
L 462.797599 202.852847 
L 463.754717 200.504017 
L 464.711835 201.153693 
L 465.668954 199.954291 
L 466.626072 199.304614 
L 467.58319 200.653942 
L 468.540309 201.053743 
L 469.497427 199.204664 
L 470.454545 203.852349 
L 471.411664 205.801379 
L 472.368782 204.651951 
L 473.325901 205.901329 
L 474.283019 204.851851 
L 475.240137 203.452548 
L 476.197256 204.701926 
L 477.154374 204.302125 
L 478.111492 206.60098 
L 479.068611 206.201179 
L 480.025729 209.149711 
L 480.982847 209.899338 
L 481.939966 208.94981 
L 482.897084 208.699935 
L 483.854202 207.850358 
L 484.811321 210.449064 
L 485.768439 209.449562 
L 487.682676 213.34762 
L 488.639794 210.499039 
L 489.596913 208.400084 
L 490.554031 208.500034 
L 491.511149 209.549512 
L 492.468268 210.79889 
L 493.425386 211.298641 
L 494.382504 210.499039 
L 495.339623 210.948815 
L 496.296741 212.647969 
L 497.253859 214.596998 
L 498.210978 213.997297 
L 499.168096 214.746923 
L 500.125214 216.046276 
L 501.082333 217.84538 
L 502.039451 220.494061 
L 502.996569 219.494559 
L 503.953688 219.868772 
L 506.825043 219.868772 
L 507.782161 218.86021 
L 508.73928 219.73014 
L 509.696398 218.809038 
L 510.653516 221.009448 
L 511.610635 222.442274 
L 512.567753 222.391101 
L 513.524871 216.403938 
L 514.48199 221.162965 
L 515.439108 221.532174 
L 518.310463 221.532174 
L 519.267581 221.849409 
L 520.2247 223.070187 
L 521.181818 222.968456 
L 522.138937 226.172999 
L 523.096055 224.59616 
L 524.053173 222.408932 
L 525.010292 224.799623 
L 526.924528 228.614555 
L 527.881647 226.172999 
L 528.838765 226.681656 
L 529.795883 235.583165 
L 530.753002 235.909113 
L 534.581475 235.909113 
L 535.538593 236.33743 
L 536.495712 238.042667 
L 537.45283 235.769018 
L 538.409949 235.200605 
L 539.367067 229.103091 
L 540.324185 231.273393 
L 541.281304 224.814161 
L 542.238422 227.242832 
L 544.152659 225.589269 
L 545.109777 224.762487 
L 546.066895 221.662056 
L 547.024014 224.607466 
L 547.981132 226.67442 
L 548.93825 226.312703 
L 549.895369 225.279226 
L 550.852487 228.175193 
L 551.809605 230.196905 
L 552.766724 230.032983 
L 553.723842 238.065193 
L 554.680961 236.04348 
L 555.638079 236.368047 
L 559.466552 236.368047 
L 560.423671 238.04961 
L 561.380789 238.728595 
L 562.337907 237.684003 
L 563.295026 233.192255 
L 564.252144 239.094203 
L 565.209262 241.966832 
L 566.166381 242.273629 
L 569.037736 242.273629 
L 569.994854 243.717227 
L 570.951973 246.24 
L 571.909091 239.9578 
L 572.866209 239.512604 
L 573.823328 238.820078 
L 574.780446 239.166341 
L 575.737564 234.912253 
L 576.694683 233.92293 
L 577.651801 233.92293 
L 578.608919 238.869544 
L 579.566038 239.908333 
L 581.480274 240.533339 
L 582.437393 242.065838 
L 583.394511 238.336757 
L 584.35163 235.271759 
L 585.308748 239.051923 
L 586.265866 239.367465 
L 589.137221 239.367465 
L 590.09434 239.796887 
L 591.051458 242.954642 
L 592.008576 240.600679 
L 592.965695 240.543266 
L 593.922813 241.921195 
L 594.879931 239.107923 
L 595.83705 239.624646 
L 596.794168 235.261204 
L 597.751286 224.869322 
L 598.708405 230.782934 
L 599.665523 231.123283 
L 601.57976 231.123283 
L 602.536878 233.606743 
L 603.493997 228.91283 
L 604.451115 232.853399 
L 605.408233 232.7375 
L 606.365352 232.389803 
L 607.32247 232.853399 
L 608.279588 234.186239 
L 609.236707 237.257565 
L 610.193825 238.416556 
L 611.150943 237.199616 
L 612.108062 233.954441 
L 614.022298 231.288761 
L 614.979417 231.627592 
L 622.636364 231.627592 
L 622.636364 231.627592 
" clip-path="url(#pf06803828c)" style="fill: none; stroke: #ff7f0e; stroke-width: 1.5; stroke-linecap: square"/>
   </g>
   <g id="line2d_29">
    <path d="M 115.363636 134.927737 
L 116.320755 135.555651 
L 117.277873 139.148402 
L 118.234991 139.763654 
L 119.19211 142.442165 
L 120.149228 146.719883 
L 121.106346 147.312421 
L 122.063465 147.312421 
L 123.020583 148.55834 
L 123.977702 149.145362 
L 124.93482 149.876481 
L 125.891938 150.459549 
L 126.849057 148.856267 
L 128.763293 148.492166 
L 129.720412 150.167027 
L 130.67753 150.749588 
L 131.634648 149.511647 
L 132.591767 152.133168 
L 133.548885 152.709466 
L 134.506003 153.937968 
L 135.463122 152.484784 
L 136.42024 151.758192 
L 137.377358 152.266806 
L 138.334477 150.08703 
L 139.291595 150.595644 
L 140.248714 149.869052 
L 141.205832 147.979913 
L 142.16295 136.063803 
L 143.120069 138.243579 
L 144.077187 140.786651 
L 145.034305 142.239835 
L 145.991424 142.845813 
L 147.90566 142.845813 
L 148.862779 145.027549 
L 149.819897 145.625164 
L 150.777015 145.625164 
L 151.734134 144.0177 
L 152.691252 145.936691 
L 154.605489 147.124681 
L 155.562607 146.068746 
L 156.519726 136.917315 
L 157.476844 129.877752 
L 158.433962 130.863291 
L 159.391081 125.794806 
L 160.348199 126.450119 
L 161.305317 131.695524 
L 162.262436 132.333135 
L 164.176672 132.333135 
L 165.133791 133.783474 
L 167.048027 125.772836 
L 168.005146 123.193139 
L 169.919383 130.321249 
L 170.876501 130.962983 
L 171.833619 130.962983 
L 172.790738 128.112658 
L 173.747856 133.079386 
L 174.704974 131.602791 
L 175.662093 133.549211 
L 176.619211 139.589826 
L 177.576329 139.321354 
L 178.533448 139.79118 
L 180.447684 148.180923 
L 181.404803 142.140308 
L 182.361921 149.724636 
L 183.319039 165.497352 
L 184.276158 158.852676 
L 185.233276 158.71844 
L 186.190395 156.973373 
L 187.147513 159.658091 
L 188.104631 151.805292 
L 189.06175 149.053456 
L 190.018868 149.053456 
L 190.975986 143.214195 
L 191.933105 143.81725 
L 192.890223 146.883732 
L 193.847341 147.475778 
L 196.718696 147.475778 
L 197.675815 150.413338 
L 198.632933 147.529525 
L 199.590051 142.298421 
L 200.54717 145.2493 
L 201.504288 145.785824 
L 202.461407 135.457747 
L 203.418525 135.658944 
L 204.375643 127.879354 
L 205.332762 128.528413 
L 206.28988 136.965512 
L 207.246998 137.587313 
L 208.204117 137.587313 
L 209.161235 141.016683 
L 210.118353 141.62633 
L 211.075472 141.62633 
L 212.03259 148.475861 
L 212.989708 151.425242 
L 213.946827 163.840077 
L 214.903945 164.381254 
L 215.861063 160.869772 
L 216.818182 169.753622 
L 217.7753 170.277058 
L 218.732419 170.277058 
L 219.689537 172.762323 
L 220.646655 170.340798 
L 221.603774 173.809468 
L 222.560892 176.361886 
L 223.51801 169.948118 
L 224.475129 170.470971 
L 226.389365 170.470971 
L 227.346484 171.696224 
L 228.303602 173.424146 
L 229.26072 172.208201 
L 230.217839 171.184247 
L 231.174957 169.200337 
L 232.132075 173.360149 
L 233.089194 174.128114 
L 234.046312 173.232155 
L 235.003431 174.128114 
L 235.960549 177.711952 
L 236.917667 177.007984 
L 237.874786 177.839947 
L 238.831904 179.887854 
L 239.789022 178.607912 
L 241.703259 172.336195 
L 242.660377 172.720178 
L 243.617496 176.176022 
L 244.574614 178.031938 
L 245.531732 178.530539 
L 246.488851 178.083977 
L 247.445969 178.582423 
L 248.403087 178.582423 
L 249.360206 181.881816 
L 250.317324 182.368867 
L 251.274443 178.296116 
L 252.231561 178.802598 
L 253.188679 182.094734 
L 254.145798 182.284665 
L 255.102916 184.943698 
L 256.060034 185.421565 
L 257.974271 185.468907 
L 258.931389 183.997739 
L 259.888508 186.69488 
L 260.845626 182.403974 
L 261.802744 182.889459 
L 264.674099 182.889459 
L 265.631218 182.216229 
L 266.588336 182.702278 
L 267.545455 184.770524 
L 268.502573 186.475999 
L 269.459691 187.633285 
L 270.41681 188.303293 
L 271.373928 186.963277 
L 272.331046 187.435085 
L 274.245283 187.54319 
L 275.202401 188.013257 
L 276.15952 189.330691 
L 277.116638 189.795397 
L 278.073756 193.05823 
L 279.030875 191.775116 
L 279.987993 180.402056 
L 280.945111 178.652355 
L 281.90223 177.135947 
L 282.859348 163.313306 
L 283.816467 167.512589 
L 284.773585 166.929355 
L 285.730703 165.587918 
L 286.687822 174.103131 
L 287.64494 173.928161 
L 288.602058 174.439074 
L 289.559177 178.809111 
L 290.516295 179.305381 
L 291.473413 181.651071 
L 292.430532 175.262453 
L 293.38765 176.993947 
L 294.344768 177.770135 
L 295.301887 179.919576 
L 296.259005 182.845205 
L 297.216123 184.934939 
L 298.173242 185.412832 
L 299.13036 184.474987 
L 300.087479 185.830361 
L 301.044597 186.066079 
L 302.958834 180.762438 
L 303.915952 183.060682 
L 304.87307 182.883894 
L 305.830189 184.946421 
L 306.787307 180.349933 
L 307.744425 179.937427 
L 308.701544 175.046292 
L 309.658662 175.694514 
L 310.61578 175.083427 
L 311.572899 171.844664 
L 312.530017 174.96121 
L 313.487136 176.550037 
L 314.444254 176.305602 
L 315.401372 177.038907 
L 316.358491 178.444408 
L 317.315609 178.077756 
L 319.229846 179.544366 
L 320.186964 175.755623 
L 321.144082 177.588886 
L 322.101201 177.894429 
L 324.015437 174.289013 
L 324.972556 172.700186 
L 325.929674 173.214783 
L 326.886792 174.507491 
L 327.843911 176.426642 
L 328.801029 173.547915 
L 329.758148 176.306695 
L 330.715266 178.1059 
L 331.672384 177.086351 
L 332.629503 175.167199 
L 333.586621 175.946854 
L 334.543739 168.510143 
L 335.500858 169.03731 
L 338.372213 169.03731 
L 339.329331 172.546574 
L 340.286449 167.698096 
L 341.243568 168.381856 
L 342.200686 170.060175 
L 343.157804 169.998015 
L 344.114923 168.257536 
L 345.072041 170.246655 
L 346.02916 171.552015 
L 346.986278 172.049295 
L 347.943396 171.054735 
L 348.900515 171.800655 
L 349.857633 173.416814 
L 350.814751 172.484414 
L 351.77187 170.246655 
L 352.728988 170.930415 
L 353.686106 170.184495 
L 355.600343 176.897773 
L 356.557461 174.038414 
L 357.51458 172.981694 
L 358.471698 170.495295 
L 359.428816 169.998015 
L 360.385935 169.189936 
L 361.343053 169.715063 
L 363.25729 168.335093 
L 364.214408 169.762735 
L 365.171527 167.145392 
L 366.128645 167.204877 
L 367.085763 171.428316 
L 368.042882 171.946729 
L 369.957118 171.946729 
L 370.914237 171.625962 
L 371.871355 172.143781 
L 372.828473 171.715204 
L 373.785592 172.771205 
L 374.74271 173.285589 
L 375.699828 173.023729 
L 376.656947 169.316236 
L 377.614065 174.351786 
L 378.571184 174.861428 
L 379.528302 173.28278 
L 380.48542 174.54582 
L 381.442539 179.488148 
L 382.399657 182.728119 
L 383.356775 183.212632 
L 384.313894 186.556525 
L 385.271012 186.996653 
L 386.22813 187.656845 
L 387.185249 185.126108 
L 388.142367 185.603427 
L 390.056604 185.603427 
L 391.013722 187.94381 
L 391.97084 189.753468 
L 392.927959 190.411525 
L 393.885077 191.617964 
L 394.842196 191.014744 
L 395.799314 190.137335 
L 396.756432 188.382515 
L 397.713551 187.834134 
L 398.670669 188.601867 
L 399.627787 186.847048 
L 400.584906 191.892154 
L 401.542024 191.179259 
L 402.499142 186.572857 
L 403.456261 186.353505 
L 404.413379 183.337409 
L 405.370497 180.924532 
L 406.327616 181.363236 
L 407.284734 180.266474 
L 408.241852 180.758372 
L 409.198971 180.758372 
L 410.156089 174.119961 
L 411.113208 174.630298 
L 412.070326 179.355626 
L 413.027444 181.517945 
L 413.984563 182.006088 
L 414.941681 181.94 
L 415.898799 180.060592 
L 416.855918 181.718893 
L 417.813036 187.080735 
L 418.770154 190.618444 
L 420.684391 187.578225 
L 421.641509 189.899847 
L 422.598628 190.065677 
L 423.555746 184.593283 
L 424.512864 183.211365 
L 425.469983 185.31188 
L 426.427101 184.869666 
L 427.38422 178.347014 
L 428.341338 179.286718 
L 429.298456 179.894762 
L 430.255575 178.347014 
L 431.212693 178.457567 
L 432.169811 161.874553 
L 433.12693 161.266509 
L 434.084048 159.884591 
L 435.041166 160.216251 
L 435.998285 159.05544 
L 436.955403 163.532854 
L 437.912521 164.074953 
L 440.783877 164.074953 
L 442.698113 159.933327 
L 443.655232 160.225958 
L 444.61235 151.681128 
L 445.569468 152.793126 
L 446.526587 152.851653 
L 447.483705 161.630588 
L 448.440823 159.11396 
L 449.397942 160.343011 
L 450.35506 164.205742 
L 451.312178 165.434793 
L 452.269297 164.439847 
L 453.226415 162.801112 
L 454.183533 160.635642 
L 455.140652 168.653736 
L 456.09777 169.648682 
L 457.054889 168.653736 
L 458.012007 171.989731 
L 458.969125 170.409523 
L 459.926244 173.511413 
L 461.84048 176.905934 
L 462.797599 178.661721 
L 463.754717 175.910988 
L 464.711835 176.671829 
L 465.668954 175.2672 
L 466.626072 174.506359 
L 467.58319 176.086567 
L 468.540309 176.554777 
L 469.497427 174.389306 
L 470.454545 179.832246 
L 471.411664 182.114769 
L 472.368782 180.768666 
L 473.325901 182.231822 
L 474.283019 181.002771 
L 475.240137 179.364036 
L 476.197256 180.827192 
L 477.154374 180.358982 
L 478.111492 183.051189 
L 479.068611 182.582979 
L 480.025729 186.036027 
L 480.982847 186.510616 
L 481.939966 186.510616 
L 482.897084 186.693333 
L 483.854202 185.705809 
L 484.811321 188.726471 
L 485.768439 187.564678 
L 487.682676 192.09567 
L 488.639794 188.78456 
L 489.596913 186.344795 
L 490.554031 186.460975 
L 491.511149 187.680857 
L 492.468268 189.133098 
L 493.425386 189.713994 
L 494.382504 188.78456 
L 496.296741 189.772142 
L 497.253859 192.516525 
L 498.210978 191.814679 
L 499.168096 192.691987 
L 500.125214 194.212656 
L 501.082333 196.318196 
L 502.039451 199.41802 
L 502.996569 198.248275 
L 503.953688 198.014326 
L 504.910806 198.452981 
L 505.867925 201.079028 
L 506.825043 200.901565 
L 507.782161 199.304399 
L 508.73928 200.310022 
L 509.696398 199.245245 
L 510.653516 199.680206 
L 511.610635 201.78966 
L 512.567753 201.72981 
L 513.524871 194.727372 
L 514.48199 200.293413 
L 515.439108 201.669961 
L 516.396226 197.719867 
L 517.353345 200.353263 
L 518.310463 200.293413 
L 519.267581 200.72523 
L 520.2247 202.58295 
L 521.181818 202.464017 
L 522.138937 206.210414 
L 523.096055 204.366949 
L 524.053173 204.786545 
L 525.010292 204.786545 
L 525.96741 207.514114 
L 526.924528 209.645712 
L 527.881647 206.803581 
L 528.838765 207.395692 
L 529.795883 217.757626 
L 530.753002 224.862952 
L 531.71012 222.908988 
L 532.667238 222.257666 
L 533.624357 221.9024 
L 534.581475 220.481334 
L 535.538593 220.599757 
L 536.495712 222.553721 
L 537.45283 219.948435 
L 538.409949 219.297113 
L 539.367067 212.310209 
L 540.324185 214.797073 
L 541.281304 207.395692 
L 542.238422 210.178611 
L 543.19554 209.290446 
L 544.152659 209.695272 
L 545.109777 209.695272 
L 546.066895 206.617909 
L 547.024014 209.924834 
L 547.981132 210.327757 
L 548.93825 210.318693 
L 549.895369 210.720434 
L 550.852487 214.361625 
L 551.809605 216.62397 
L 552.766724 217.006795 
L 553.723842 226.310033 
L 554.680961 226.663801 
L 555.638079 226.663801 
L 556.595197 224.877119 
L 557.552316 226.39721 
L 558.509434 226.750716 
L 561.380789 226.750716 
L 562.337907 225.943465 
L 563.295026 220.956773 
L 564.252144 221.3266 
L 566.166381 228.452208 
L 567.123499 228.147843 
L 568.080617 221.999682 
L 569.037736 219.138657 
L 569.994854 220.538733 
L 570.951973 223.64325 
L 571.909091 215.912394 
L 572.866209 215.364538 
L 573.823328 214.512317 
L 574.780446 214.901478 
L 575.737564 210.068616 
L 576.694683 208.854464 
L 577.651801 208.854464 
L 578.608919 214.925225 
L 579.566038 215.313147 
L 580.523156 220.514542 
L 581.480274 220.514542 
L 582.437393 220.885695 
L 583.394511 220.885695 
L 584.35163 217.696352 
L 585.308748 222.086258 
L 586.265866 227.247364 
L 587.222985 227.603303 
L 588.180103 230.747425 
L 589.137221 236.205146 
L 590.09434 236.323792 
L 591.051458 239.58656 
L 592.965695 240.155865 
L 593.922813 241.538943 
L 594.879931 238.71516 
L 595.83705 239.233814 
L 596.794168 234.854069 
L 597.751286 224.423361 
L 598.708405 230.359068 
L 599.665523 232.433684 
L 600.622642 233.355735 
L 601.57976 232.087914 
L 602.536878 232.424348 
L 603.493997 232.424348 
L 604.451115 236.568888 
L 605.408233 236.456856 
L 606.365352 236.120757 
L 607.32247 236.568888 
L 608.279588 236.891879 
L 612.108062 236.891879 
L 613.06518 235.864219 
L 614.022298 234.62701 
L 614.979417 232.096356 
L 615.936535 232.827434 
L 616.893654 229.509466 
L 617.850772 229.853635 
L 618.80789 231.667469 
L 619.765009 232.005164 
L 620.722127 231.710668 
L 621.679245 230.677832 
L 622.636364 232.169707 
L 622.636364 232.169707 
" clip-path="url(#pf06803828c)" style="fill: none; stroke: #2ca02c; stroke-width: 1.5; stroke-linecap: square"/>
   </g>
   <g id="line2d_30">
    <path d="M 115.363636 134.927737 
L 116.320755 132.762783 
L 117.277873 135.778255 
L 118.234991 130.520509 
L 119.19211 132.685463 
L 120.149228 137.170012 
L 121.106346 138.097849 
L 122.063465 135.700935 
L 123.977702 137.02032 
L 143.120069 137.02032 
L 144.077187 140.192457 
L 145.034305 141.649885 
L 145.991424 142.378599 
L 146.948542 139.828099 
L 147.90566 140.192457 
L 148.862779 141.795628 
L 149.819897 141.649885 
L 150.777015 141.212656 
L 151.734134 138.953642 
L 152.691252 140.921171 
L 154.605489 142.139208 
L 155.562607 141.056566 
L 156.519726 131.673666 
L 157.476844 124.456051 
L 158.433962 125.466517 
L 160.348199 115.578385 
L 162.262436 124.961284 
L 163.219554 125.61087 
L 164.176672 119.620249 
L 165.133791 120.486363 
L 167.048027 111.969577 
L 168.005146 112.666365 
L 184.276158 112.666365 
L 185.233276 113.193887 
L 186.190395 111.020586 
L 187.147513 114.364125 
L 188.104631 104.584274 
L 189.06175 101.157146 
L 190.018868 101.157146 
L 191.933105 86.779928 
L 192.890223 89.95629 
L 193.847341 95.974661 
L 194.80446 96.719434 
L 198.632933 96.719434 
L 199.590051 90.899376 
L 200.54717 94.601354 
L 201.504288 95.274441 
L 202.461407 82.317519 
L 203.418525 82.569927 
L 204.375643 72.810168 
L 205.332762 72.473624 
L 206.28988 82.317519 
L 207.246998 87.197399 
L 208.204117 85.094002 
L 209.161235 88.627708 
L 210.118353 89.394522 
L 218.732419 89.394522 
L 219.689537 93.035339 
L 220.646655 89.487899 
L 221.603774 94.569367 
L 222.560892 98.30856 
L 223.51801 88.912638 
L 224.475129 86.51572 
L 225.432247 87.28887 
L 242.660377 87.28887 
L 243.617496 93.22139 
L 244.574614 95.993408 
L 245.531732 96.738125 
L 246.488851 96.738125 
L 247.445969 101.965306 
L 248.403087 101.965306 
L 249.360206 106.07628 
L 250.317324 106.07628 
L 251.274443 99.349232 
L 252.231561 100.096682 
L 253.188679 104.955105 
L 254.145798 105.235399 
L 255.102916 109.159509 
L 256.060034 106.356573 
L 257.017153 107.070201 
L 267.545455 107.070201 
L 268.502573 110.310572 
L 269.459691 112.026602 
L 270.41681 113.020092 
L 271.373928 111.033111 
L 272.331046 112.297554 
L 273.288165 112.993358 
L 279.030875 112.993358 
L 279.987993 96.48878 
L 280.945111 93.842888 
L 281.90223 91.549782 
L 282.859348 70.647238 
L 283.816467 76.997378 
L 284.773585 76.115414 
L 285.730703 74.086897 
L 286.687822 86.96357 
L 287.64494 86.698981 
L 288.602058 88.992087 
L 289.559177 94.813048 
L 290.516295 101.339581 
L 291.473413 104.073669 
L 292.430532 94.636656 
L 293.38765 97.194351 
L 294.344768 97.935465 
L 327.843911 97.935465 
L 328.801029 94.46178 
L 329.758148 98.498832 
L 330.715266 101.131692 
L 331.672384 99.639738 
L 332.629503 96.831354 
L 333.586621 97.97226 
L 334.543739 87.089772 
L 335.500858 88.493964 
L 336.457976 89.261179 
L 359.428816 89.261179 
L 360.385935 88.847113 
L 361.343053 89.613268 
L 362.300172 89.613268 
L 363.25729 89.429262 
L 364.214408 91.497329 
L 365.171527 87.705872 
L 366.128645 87.792041 
L 367.085763 93.910075 
L 368.042882 92.617533 
L 369.957118 79.175093 
L 370.914237 77.88255 
L 371.871355 78.227228 
L 372.828473 79.025244 
L 377.614065 79.025244 
L 378.571184 79.390228 
L 379.528302 76.117381 
L 380.48542 76.921726 
L 384.313894 76.921726 
L 385.271012 78.467577 
L 386.22813 79.583454 
L 387.185249 75.305923 
L 388.142367 76.112703 
L 401.542024 76.112703 
L 402.499142 68.871741 
L 403.456261 68.48863 
L 404.413379 63.220861 
L 405.370497 59.006645 
L 406.327616 59.772866 
L 407.284734 57.857313 
L 408.241852 56.995315 
L 409.198971 57.378425 
L 410.156089 44.831555 
L 411.113208 44.64 
L 412.070326 52.110655 
L 413.027444 55.941761 
L 413.984563 63.987082 
L 414.941681 63.029305 
L 415.898799 59.772866 
L 416.855918 62.646195 
L 417.813036 63.490954 
L 418.770154 70.634111 
L 419.727273 71.454906 
L 433.12693 71.366433 
L 434.084048 69.305512 
L 435.041166 69.800133 
L 435.998285 68.068959 
L 436.955403 74.746344 
L 437.912521 84.226583 
L 438.86964 87.029436 
L 439.826758 88.5133 
L 440.783877 91.233716 
L 441.740995 87.44162 
L 442.698113 84.638767 
L 443.655232 85.417548 
L 472.368782 85.417548 
L 473.325901 88.503682 
L 474.283019 86.563543 
L 475.240137 83.976692 
L 476.197256 86.28638 
L 477.154374 85.54728 
L 478.111492 89.797108 
L 479.068611 89.058007 
L 480.025729 94.508873 
L 480.982847 95.894686 
L 481.939966 96.639699 
L 494.382504 96.639699 
L 495.339623 98.212691 
L 496.296741 101.34905 
L 497.253859 104.946639 
L 498.210978 103.839689 
L 499.168096 105.223377 
L 500.125214 105.940404 
L 502.039451 105.940404 
L 502.996569 104.73624 
L 503.953688 104.352432 
L 504.910806 105.072072 
L 507.782161 105.072072 
L 508.73928 107.444055 
L 509.696398 105.69223 
L 510.653516 109.877146 
L 511.610635 112.602207 
L 512.567753 112.504883 
L 513.524871 113.200066 
L 514.48199 122.468644 
L 515.439108 124.589462 
L 516.396226 118.503637 
L 517.353345 122.560854 
L 519.267581 122.376435 
L 520.2247 124.589462 
L 521.181818 124.405043 
L 522.138937 130.21424 
L 523.096055 127.355747 
L 524.053173 128.006377 
L 530.753002 128.006377 
L 531.71012 125.126259 
L 532.667238 123.949993 
L 533.624357 123.308394 
L 534.581475 120.741996 
L 535.538593 120.955863 
L 536.495712 124.484659 
L 537.45283 119.779597 
L 538.409949 118.603332 
L 539.367067 105.985211 
L 540.324185 110.476407 
L 541.281304 97.109754 
L 542.238422 102.135615 
L 544.152659 98.713752 
L 545.109777 97.002821 
L 546.066895 90.586827 
L 547.024014 96.682021 
L 547.981132 100.95935 
L 548.93825 100.210817 
L 549.895369 98.072153 
L 550.852487 98.810634 
L 560.423671 98.810634 
L 561.380789 101.111539 
L 562.337907 98.704401 
L 563.295026 88.353709 
L 564.252144 101.954037 
L 565.209262 108.573665 
L 566.166381 109.280641 
L 568.080617 109.280641 
L 569.037736 104.502625 
L 569.994854 107.185733 
L 570.951973 113.135231 
L 571.909091 98.319813 
L 572.866209 97.269901 
L 573.823328 95.636705 
L 574.780446 96.453303 
L 575.737564 86.420815 
L 576.694683 84.087678 
L 577.651801 84.087678 
L 578.608919 95.753362 
L 579.566038 96.498799 
L 580.523156 106.493894 
L 581.480274 107.20711 
L 582.437393 107.20711 
L 583.394511 99.292716 
L 584.35163 100.027535 
L 586.265866 100.027535 
L 587.222985 101.500937 
L 588.180103 102.229132 
L 589.137221 114.55865 
L 590.09434 114.8109 
L 591.051458 121.74778 
L 592.008576 116.576651 
L 592.965695 116.450526 
L 593.922813 119.477528 
L 594.879931 113.297399 
L 595.83705 114.432525 
L 596.794168 115.121924 
L 597.751286 94.026013 
L 598.708405 106.422002 
L 599.665523 110.754581 
L 600.622642 111.455014 
L 604.451115 111.455014 
L 605.408233 111.911849 
L 606.365352 111.187357 
L 607.32247 112.153347 
L 608.279588 112.849584 
L 618.80789 112.849584 
L 619.765009 118.180691 
L 620.722127 116.905528 
L 621.679245 114.818896 
L 622.636364 117.832919 
L 622.636364 117.832919 
" clip-path="url(#pf06803828c)" style="fill: none; stroke: #d62728; stroke-width: 1.5; stroke-linecap: square"/>
   </g>
   <g id="line2d_31">
    <path d="M 115.363636 134.927737 
L 116.320755 132.762783 
L 117.277873 135.778255 
L 118.234991 130.520509 
L 119.19211 132.685463 
L 120.149228 137.170012 
L 121.106346 138.097849 
L 122.063465 135.700935 
L 123.020583 136.396814 
L 123.977702 138.020529 
L 124.93482 138.175169 
L 125.891938 139.103007 
L 126.849057 136.783413 
L 128.763293 136.396814 
L 129.720412 138.175169 
L 130.67753 138.793727 
L 131.634648 137.479291 
L 132.591767 140.262803 
L 134.506003 141.73188 
L 135.463122 140.185484 
L 136.42024 139.412286 
L 137.377358 139.953524 
L 138.334477 137.63393 
L 139.291595 138.175169 
L 140.248714 137.401971 
L 141.205832 135.391656 
L 142.16295 122.711209 
L 143.120069 125.030803 
L 144.077187 127.736996 
L 145.034305 129.283392 
L 145.991424 130.05659 
L 146.948542 127.350397 
L 147.90566 127.736996 
L 148.862779 129.438032 
L 149.819897 129.283392 
L 150.777015 128.819473 
L 151.734134 126.422559 
L 152.691252 128.510194 
L 153.64837 127.736996 
L 154.605489 127.736996 
L 155.562607 126.577199 
L 156.519726 116.525625 
L 157.476844 108.793645 
L 158.433962 109.876122 
L 160.348199 99.28331 
L 162.262436 109.334884 
L 163.219554 110.030762 
L 164.176672 103.613219 
L 165.133791 104.541056 
L 167.048027 95.41732 
L 168.005146 92.479168 
L 169.919383 100.597747 
L 170.876501 98.664752 
L 171.833619 99.28331 
L 172.790738 95.26268 
L 173.747856 100.984346 
L 174.704974 99.28331 
L 175.662093 101.525584 
L 176.619211 108.484366 
L 177.576329 108.175087 
L 178.533448 108.716325 
L 179.490566 113.278194 
L 180.447684 118.3813 
L 181.404803 111.422518 
L 182.361921 120.159656 
L 183.319039 138.329809 
L 184.276158 130.675148 
L 185.233276 130.520509 
L 186.190395 128.510194 
L 187.147513 131.602986 
L 188.104631 122.556569 
L 189.06175 119.386458 
L 190.018868 119.386458 
L 191.933105 106.087452 
L 192.890223 109.025605 
L 193.847341 114.59263 
L 194.80446 114.979229 
L 195.761578 113.432833 
L 196.718696 118.072021 
L 197.675815 120.778214 
L 198.632933 117.453463 
L 199.590051 111.422518 
L 200.54717 114.82459 
L 201.504288 115.443148 
L 202.461407 103.535899 
L 203.418525 103.767858 
L 204.375643 94.798762 
L 205.332762 94.489482 
L 206.28988 103.535899 
L 207.246998 108.020447 
L 208.204117 106.087452 
L 210.118353 112.659635 
L 211.075472 116.525625 
L 212.03259 123.561727 
L 212.989708 126.886478 
L 213.946827 140.881362 
L 214.903945 149.15458 
L 215.861063 144.747352 
L 216.818182 154.412327 
L 217.7753 151.706134 
L 218.732419 139.334966 
L 219.689537 141.65456 
L 220.646655 138.793727 
L 221.603774 142.891677 
L 222.560892 145.907149 
L 223.51801 138.329809 
L 224.475129 136.396814 
L 225.432247 137.247331 
L 226.389365 134.927737 
L 227.346484 135.778255 
L 228.303602 137.86589 
L 229.26072 136.396814 
L 230.217839 135.159697 
L 231.174957 132.762783 
L 232.132075 137.78857 
L 233.089194 138.716408 
L 234.046312 137.63393 
L 235.003431 138.716408 
L 235.960549 143.046316 
L 236.917667 142.195799 
L 237.874786 143.200956 
L 238.831904 145.675189 
L 239.789022 144.128794 
L 241.703259 136.551453 
L 242.660377 137.015372 
L 243.617496 141.190641 
L 244.574614 143.432915 
L 245.531732 141.190641 
L 246.488851 140.030844 
L 247.445969 143.742195 
L 248.403087 143.742195 
L 249.360206 147.144266 
L 250.317324 147.144266 
L 251.274443 141.57724 
L 252.231561 142.195799 
L 253.188679 146.216428 
L 254.145798 146.448387 
L 255.102916 149.695819 
L 256.060034 147.376225 
L 257.017153 144.515392 
L 257.974271 143.974154 
L 258.931389 142.118479 
L 259.888508 145.52055 
L 260.845626 140.108164 
L 261.802744 133.613301 
L 262.759863 136.706093 
L 263.716981 137.556611 
L 264.674099 140.030844 
L 265.631218 138.561768 
L 266.588336 139.798885 
L 268.502573 143.974154 
L 269.459691 145.44323 
L 270.41681 146.293748 
L 271.373928 144.592712 
L 272.331046 145.675189 
L 273.288165 144.051474 
L 274.245283 143.587555 
L 275.202401 145.59787 
L 276.15952 146.680347 
L 277.116638 140.108164 
L 278.073756 143.819514 
L 279.030875 142.118479 
L 279.987993 127.041118 
L 280.945111 124.721524 
L 281.90223 122.711209 
L 282.859348 104.386417 
L 283.816467 109.953442 
L 284.773585 109.180244 
L 285.730703 107.401889 
L 286.687822 118.69058 
L 287.64494 118.45862 
L 288.602058 120.468935 
L 289.559177 125.572042 
L 290.516295 131.293707 
L 291.473413 133.690621 
L 292.430532 125.417402 
L 293.38765 127.659676 
L 294.344768 128.664834 
L 295.301887 131.448346 
L 296.259005 135.237017 
L 297.216123 137.94321 
L 298.173242 136.474133 
L 299.13036 134.618458 
L 300.087479 136.396814 
L 301.044597 136.706093 
L 302.958834 129.747311 
L 303.915952 132.762783 
L 304.87307 132.530824 
L 305.830189 135.237017 
L 306.787307 129.206072 
L 307.744425 128.664834 
L 308.701544 122.24729 
L 309.658662 123.097808 
L 310.61578 122.296015 
L 311.572899 118.04651 
L 312.530017 122.135656 
L 313.487136 124.220319 
L 314.444254 123.899602 
L 315.401372 124.861754 
L 316.358491 126.705879 
L 317.315609 126.224803 
L 318.272727 127.106775 
L 319.229846 128.149107 
L 320.186964 123.177988 
L 321.144082 125.583368 
L 322.101201 125.984264 
L 324.015437 121.253683 
L 324.972556 119.16902 
L 325.929674 116.282564 
L 326.886792 117.324896 
L 327.843911 119.890635 
L 328.801029 116.042026 
L 329.758148 119.730276 
L 330.715266 122.135656 
L 331.672384 120.772607 
L 332.629503 118.206868 
L 333.586621 119.2492 
L 334.543739 109.306961 
L 336.457976 112.033059 
L 337.415094 114.117722 
L 338.372213 118.928482 
L 339.329331 122.777091 
L 340.286449 116.523102 
L 341.243568 117.405075 
L 342.200686 119.569917 
L 343.157804 119.489738 
L 344.114923 117.244716 
L 345.072041 119.810455 
L 346.02916 121.494221 
L 346.986278 122.135656 
L 347.943396 120.852787 
L 348.900515 121.814939 
L 349.857633 123.899602 
L 350.814751 122.696911 
L 351.77187 119.810455 
L 352.728988 120.692428 
L 353.686106 119.730276 
L 355.600343 128.389645 
L 356.557461 124.701395 
L 357.51458 123.338346 
L 358.471698 120.131173 
L 359.428816 119.489738 
L 360.385935 118.447406 
L 361.343053 109.707858 
L 362.300172 108.024092 
L 363.25729 107.142119 
L 364.214408 109.066423 
L 365.171527 105.538532 
L 366.128645 105.618712 
L 367.085763 111.311445 
L 368.042882 110.108755 
L 369.957118 97.600777 
L 370.914237 96.398087 
L 371.871355 96.718805 
L 372.828473 95.355756 
L 373.785592 96.879163 
L 374.74271 97.28006 
L 375.699828 96.157549 
L 376.656947 90.785533 
L 377.614065 98.081853 
L 378.571184 97.680957 
L 379.528302 94.634142 
L 380.48542 96.478267 
L 381.442539 103.694407 
L 382.399657 108.424989 
L 383.356775 110.269113 
L 384.313894 114.438439 
L 385.271012 115.079874 
L 386.22813 116.042026 
L 387.185249 112.353776 
L 388.142367 115.320412 
L 389.099485 114.919515 
L 390.056604 112.995211 
L 391.97084 118.367227 
L 392.927959 119.329379 
L 393.885077 121.093325 
L 394.842196 120.211352 
L 395.799314 118.928482 
L 396.756432 116.362743 
L 397.713551 115.56095 
L 398.670669 116.683461 
L 399.627787 114.117722 
L 400.584906 121.494221 
L 401.542024 120.45189 
L 402.499142 113.716825 
L 403.456261 113.396108 
L 404.413379 108.986244 
L 405.370497 105.458353 
L 406.327616 106.099788 
L 407.284734 104.496201 
L 408.241852 103.774587 
L 409.198971 104.095304 
L 410.156089 93.59181 
L 411.113208 93.431452 
L 412.070326 99.68544 
L 413.027444 102.892614 
L 413.984563 109.627679 
L 414.941681 108.825885 
L 415.898799 106.099788 
L 416.855918 108.505168 
L 417.813036 116.282564 
L 418.770154 121.414042 
L 420.684391 117.004178 
L 421.641509 120.371711 
L 422.598628 120.612249 
L 423.555746 112.674494 
L 424.512864 110.67001 
L 425.469983 113.716825 
L 426.427101 113.07539 
L 427.38422 103.614228 
L 428.341338 104.977277 
L 429.298456 105.85925 
L 430.255575 103.614228 
L 431.212693 103.774587 
L 432.169811 79.720784 
L 433.12693 78.838811 
L 434.084048 76.834328 
L 435.041166 77.315404 
L 435.998285 75.631638 
L 436.955403 82.126164 
L 437.912521 91.346789 
L 438.86964 94.072886 
L 439.826758 95.516114 
L 440.783877 98.162033 
L 441.740995 94.473783 
L 442.698113 91.747685 
L 443.655232 92.148582 
L 444.61235 80.442398 
L 445.569468 81.965806 
L 446.526587 82.045985 
L 447.483705 94.072886 
L 448.440823 90.625175 
L 449.397942 92.308941 
L 450.35506 97.600777 
L 451.312178 99.284544 
L 452.269297 97.921495 
L 453.226415 95.676473 
L 454.183533 92.709838 
L 455.140652 103.694407 
L 456.09777 105.057456 
L 457.054889 103.694407 
L 458.012007 108.26463 
L 458.969125 106.099788 
L 459.926244 110.349293 
L 460.883362 112.834852 
L 462.797599 117.405075 
L 463.754717 113.636646 
L 464.711835 114.678977 
L 465.668954 112.754673 
L 466.626072 111.712342 
L 467.58319 113.877184 
L 468.540309 114.518619 
L 469.497427 111.551983 
L 470.454545 119.008662 
L 471.411664 122.135656 
L 472.368782 120.291531 
L 473.325901 122.296015 
L 474.283019 120.612249 
L 475.240137 118.367227 
L 476.197256 120.371711 
L 477.154374 119.730276 
L 478.111492 123.418526 
L 479.068611 122.777091 
L 480.025729 127.507672 
L 480.982847 128.710362 
L 481.939966 127.186955 
L 482.897084 126.786058 
L 483.854202 125.423009 
L 484.811321 129.592335 
L 485.768439 127.988748 
L 487.682676 134.242737 
L 488.639794 129.672514 
L 489.596913 126.304982 
L 490.554031 126.465341 
L 491.511149 128.149107 
L 492.468268 130.15359 
L 493.425386 130.955384 
L 494.382504 129.672514 
L 495.339623 130.394128 
L 496.296741 133.120226 
L 497.253859 136.24722 
L 498.210978 135.285068 
L 499.168096 136.487758 
L 500.125214 138.572421 
L 501.082333 141.458878 
L 502.039451 145.708383 
L 502.996569 144.104796 
L 503.953688 143.784078 
L 504.910806 147.23179 
L 505.867925 150.198426 
L 506.825043 149.957888 
L 507.782161 147.793046 
L 508.73928 149.156094 
L 509.696398 147.712866 
L 510.653516 151.160578 
L 511.610635 153.4056 
L 512.567753 153.32542 
L 513.524871 143.944437 
L 514.48199 151.401116 
L 515.439108 153.245241 
L 516.396226 147.953404 
L 517.353345 151.481295 
L 519.267581 151.320937 
L 520.2247 153.245241 
L 521.181818 153.084882 
L 522.138937 158.136181 
L 523.096055 155.650621 
L 524.053173 152.202909 
L 525.010292 155.971338 
L 526.924528 161.984789 
L 527.881647 158.136181 
L 528.838765 158.937974 
L 529.795883 172.969359 
L 530.753002 182.59088 
L 531.71012 179.944962 
L 532.667238 179.062989 
L 533.624357 178.581913 
L 534.581475 176.657609 
L 535.538593 176.817967 
L 536.495712 179.463886 
L 537.45283 175.935995 
L 538.409949 175.054022 
L 539.367067 165.59286 
L 540.324185 168.960392 
L 541.281304 158.937974 
L 542.238422 162.706403 
L 544.152659 160.140664 
L 545.109777 158.857795 
L 546.066895 154.047034 
L 547.024014 158.617257 
L 547.981132 161.82443 
L 548.93825 161.263175 
L 549.895369 159.659588 
L 550.852487 164.153093 
L 551.809605 167.290068 
L 552.766724 167.035719 
L 553.723842 179.498837 
L 554.680961 176.361862 
L 555.638079 167.713984 
L 556.595197 164.492226 
L 557.552316 166.78137 
L 558.509434 170.003128 
L 559.466552 169.663996 
L 560.423671 171.868357 
L 561.380789 172.970537 
L 562.337907 171.274875 
L 563.295026 163.983527 
L 564.252144 173.564019 
L 566.166381 182.974945 
L 567.123499 182.55103 
L 568.080617 173.987935 
L 569.037736 170.003128 
L 569.994854 171.95314 
L 570.951973 176.277079 
L 571.909091 165.509623 
L 572.866209 164.746575 
L 573.823328 163.559611 
L 574.780446 164.153093 
L 575.737564 156.861745 
L 576.694683 155.166083 
L 577.651801 155.166083 
L 578.608919 163.644394 
L 579.566038 165.42484 
L 580.523156 172.122706 
L 581.480274 172.122706 
L 582.437393 174.6662 
L 583.394511 168.477032 
L 584.35163 163.390045 
L 585.308748 169.663996 
L 586.265866 177.040127 
L 587.222985 177.548826 
L 588.180103 182.042331 
L 589.137221 189.842378 
L 590.09434 190.011944 
L 591.051458 194.675015 
L 592.008576 191.198907 
L 592.965695 191.114124 
L 593.922813 193.148919 
L 594.879931 188.994546 
L 595.83705 189.757594 
L 596.794168 183.314078 
L 597.751286 167.968333 
L 598.708405 176.700994 
L 599.665523 179.753187 
L 600.622642 181.109717 
L 601.57976 179.244488 
L 602.536878 182.381463 
L 603.493997 175.514031 
L 604.451115 181.279283 
L 605.408233 181.109717 
L 606.365352 180.601018 
L 607.32247 181.279283 
L 608.279588 183.229294 
L 609.236707 187.7228 
L 610.193825 189.418462 
L 611.150943 187.638017 
L 612.108062 182.890162 
L 614.022298 178.990139 
L 614.979417 175.174898 
L 615.936535 176.277079 
L 616.893654 171.274875 
L 618.80789 175.514031 
L 619.765009 178.905355 
L 620.722127 177.972741 
L 621.679245 176.446645 
L 622.636364 178.651006 
L 622.636364 178.651006 
" clip-path="url(#pf06803828c)" style="fill: none; stroke: #9467bd; stroke-width: 1.5; stroke-linecap: square"/>
   </g>
   <g id="patch_3">
    <path d="M 90 256.32 
L 90 34.56 
" style="fill: none; stroke: #000000; stroke-width: 0.8; stroke-linejoin: miter; stroke-linecap: square"/>
   </g>
   <g id="patch_4">
    <path d="M 648 256.32 
L 648 34.56 
" style="fill: none; stroke: #000000; stroke-width: 0.8; stroke-linejoin: miter; stroke-linecap: square"/>
   </g>
   <g id="patch_5">
    <path d="M 90 256.32 
L 648 256.32 
" style="fill: none; stroke: #000000; stroke-width: 0.8; stroke-linejoin: miter; stroke-linecap: square"/>
   </g>
   <g id="patch_6">
    <path d="M 90 34.56 
L 648 34.56 
" style="fill: none; stroke: #000000; stroke-width: 0.8; stroke-linejoin: miter; stroke-linecap: square"/>
   </g>
   <g id="legend_1">
    <g id="patch_7">
     <path d="M 97 251.32 
L 167.325 251.32 
Q 169.325 251.32 169.325 249.32 
L 169.325 179.624687 
Q 169.325 177.624687 167.325 177.624687 
L 97 177.624687 
Q 95 177.624687 95 179.624687 
L 95 249.32 
Q 95 251.32 97 251.32 
z
" style="fill: #ffffff; opacity: 0.8; stroke: #cccccc; stroke-linejoin: miter"/>
    </g>
    <g id="line2d_32">
     <path d="M 99 185.124687 
L 109 185.124687 
L 119 185.124687 
" style="fill: none; stroke: #1f77b4; stroke-width: 1.5; stroke-linecap: square"/>
    </g>
    <g id="text_16">
     <!-- BC -->
     <g transform="translate(127 188.624687)scale(0.1 -0.1)">
      <defs>
       <path id="TimesNewRomanPSMT-42" d="M 2956 2163 
Q 3397 2069 3616 1863 
Q 3919 1575 3919 1159 
Q 3919 844 3719 555 
Q 3519 266 3170 133 
Q 2822 0 2106 0 
L 106 0 
L 106 116 
L 266 116 
Q 531 116 647 284 
Q 719 394 719 750 
L 719 3488 
Q 719 3881 628 3984 
Q 506 4122 266 4122 
L 106 4122 
L 106 4238 
L 1938 4238 
Q 2450 4238 2759 4163 
Q 3228 4050 3475 3764 
Q 3722 3478 3722 3106 
Q 3722 2788 3528 2536 
Q 3334 2284 2956 2163 
z
M 1319 2331 
Q 1434 2309 1582 2298 
Q 1731 2288 1909 2288 
Q 2366 2288 2595 2386 
Q 2825 2484 2947 2687 
Q 3069 2891 3069 3131 
Q 3069 3503 2766 3765 
Q 2463 4028 1881 4028 
Q 1569 4028 1319 3959 
L 1319 2331 
z
M 1319 306 
Q 1681 222 2034 222 
Q 2600 222 2897 476 
Q 3194 731 3194 1106 
Q 3194 1353 3059 1581 
Q 2925 1809 2622 1940 
Q 2319 2072 1872 2072 
Q 1678 2072 1540 2065 
Q 1403 2059 1319 2044 
L 1319 306 
z
" transform="scale(0.015625)"/>
       <path id="TimesNewRomanPSMT-43" d="M 3853 4334 
L 3950 2894 
L 3853 2894 
Q 3659 3541 3300 3825 
Q 2941 4109 2438 4109 
Q 2016 4109 1675 3895 
Q 1334 3681 1139 3212 
Q 944 2744 944 2047 
Q 944 1472 1128 1050 
Q 1313 628 1683 403 
Q 2053 178 2528 178 
Q 2941 178 3256 354 
Q 3572 531 3950 1056 
L 4047 994 
Q 3728 428 3303 165 
Q 2878 -97 2294 -97 
Q 1241 -97 663 684 
Q 231 1266 231 2053 
Q 231 2688 515 3219 
Q 800 3750 1298 4042 
Q 1797 4334 2388 4334 
Q 2847 4334 3294 4109 
Q 3425 4041 3481 4041 
Q 3566 4041 3628 4100 
Q 3709 4184 3744 4334 
L 3853 4334 
z
" transform="scale(0.015625)"/>
      </defs>
      <use xlink:href="#TimesNewRomanPSMT-42"/>
      <use xlink:href="#TimesNewRomanPSMT-43" x="66.699219"/>
     </g>
    </g>
    <g id="line2d_33">
     <path d="M 99 199.26375 
L 109 199.26375 
L 119 199.26375 
" style="fill: none; stroke: #ff7f0e; stroke-width: 1.5; stroke-linecap: square"/>
    </g>
    <g id="text_17">
     <!-- DQN -->
     <g transform="translate(127 202.76375)scale(0.1 -0.1)">
      <defs>
       <path id="TimesNewRomanPSMT-44" d="M 109 0 
L 109 116 
L 269 116 
Q 538 116 650 288 
Q 719 391 719 750 
L 719 3488 
Q 719 3884 631 3984 
Q 509 4122 269 4122 
L 109 4122 
L 109 4238 
L 1834 4238 
Q 2784 4238 3279 4022 
Q 3775 3806 4076 3303 
Q 4378 2800 4378 2141 
Q 4378 1256 3841 663 
Q 3238 0 2003 0 
L 109 0 
z
M 1319 306 
Q 1716 219 1984 219 
Q 2709 219 3187 728 
Q 3666 1238 3666 2109 
Q 3666 2988 3187 3494 
Q 2709 4000 1959 4000 
Q 1678 4000 1319 3909 
L 1319 306 
z
" transform="scale(0.015625)"/>
       <path id="TimesNewRomanPSMT-51" d="M 2819 -47 
Q 3138 -597 3508 -856 
Q 3878 -1116 4350 -1153 
L 4350 -1253 
Q 3919 -1238 3428 -1080 
Q 2938 -922 2498 -642 
Q 2059 -363 1741 -47 
Q 1291 134 1028 338 
Q 647 641 436 1083 
Q 225 1525 225 2128 
Q 225 3078 840 3706 
Q 1456 4334 2331 4334 
Q 3163 4334 3770 3704 
Q 4378 3075 4378 2116 
Q 4378 1338 3945 750 
Q 3513 163 2819 -47 
z
M 2294 4094 
Q 1725 4094 1378 3688 
Q 941 3178 941 2128 
Q 941 1100 1384 544 
Q 1728 116 2294 116 
Q 2881 116 3241 544 
Q 3663 1050 3663 2038 
Q 3663 2797 3431 3316 
Q 3253 3716 2958 3905 
Q 2663 4094 2294 4094 
z
" transform="scale(0.015625)"/>
       <path id="TimesNewRomanPSMT-4e" d="M -84 4238 
L 1066 4238 
L 3656 1059 
L 3656 3503 
Q 3656 3894 3569 3991 
Q 3453 4122 3203 4122 
L 3056 4122 
L 3056 4238 
L 4531 4238 
L 4531 4122 
L 4381 4122 
Q 4113 4122 4000 3959 
Q 3931 3859 3931 3503 
L 3931 -69 
L 3819 -69 
L 1025 3344 
L 1025 734 
Q 1025 344 1109 247 
Q 1228 116 1475 116 
L 1625 116 
L 1625 0 
L 150 0 
L 150 116 
L 297 116 
Q 569 116 681 278 
Q 750 378 750 734 
L 750 3681 
Q 566 3897 470 3965 
Q 375 4034 191 4094 
Q 100 4122 -84 4122 
L -84 4238 
z
" transform="scale(0.015625)"/>
      </defs>
      <use xlink:href="#TimesNewRomanPSMT-44"/>
      <use xlink:href="#TimesNewRomanPSMT-51" x="72.216797"/>
      <use xlink:href="#TimesNewRomanPSMT-4e" x="144.433594"/>
     </g>
    </g>
    <g id="line2d_34">
     <path d="M 99 213.402813 
L 109 213.402813 
L 119 213.402813 
" style="fill: none; stroke: #2ca02c; stroke-width: 1.5; stroke-linecap: square"/>
    </g>
    <g id="text_18">
     <!-- DDQN -->
     <g transform="translate(127 216.902813)scale(0.1 -0.1)">
      <use xlink:href="#TimesNewRomanPSMT-44"/>
      <use xlink:href="#TimesNewRomanPSMT-44" x="72.216797"/>
      <use xlink:href="#TimesNewRomanPSMT-51" x="144.433594"/>
      <use xlink:href="#TimesNewRomanPSMT-4e" x="216.650391"/>
     </g>
    </g>
    <g id="line2d_35">
     <path d="M 99 227.541875 
L 109 227.541875 
L 119 227.541875 
" style="fill: none; stroke: #d62728; stroke-width: 1.5; stroke-linecap: square"/>
    </g>
    <g id="text_19">
     <!-- ILDDQN -->
     <g transform="translate(127 231.041875)scale(0.1 -0.1)">
      <defs>
       <path id="TimesNewRomanPSMT-49" d="M 1975 116 
L 1975 0 
L 159 0 
L 159 116 
L 309 116 
Q 572 116 691 269 
Q 766 369 766 750 
L 766 3488 
Q 766 3809 725 3913 
Q 694 3991 597 4047 
Q 459 4122 309 4122 
L 159 4122 
L 159 4238 
L 1975 4238 
L 1975 4122 
L 1822 4122 
Q 1563 4122 1444 3969 
Q 1366 3869 1366 3488 
L 1366 750 
Q 1366 428 1406 325 
Q 1438 247 1538 191 
Q 1672 116 1822 116 
L 1975 116 
z
" transform="scale(0.015625)"/>
       <path id="TimesNewRomanPSMT-4c" d="M 3669 1172 
L 3772 1150 
L 3409 0 
L 128 0 
L 128 116 
L 288 116 
Q 556 116 672 291 
Q 738 391 738 753 
L 738 3488 
Q 738 3884 650 3984 
Q 528 4122 288 4122 
L 128 4122 
L 128 4238 
L 2047 4238 
L 2047 4122 
Q 1709 4125 1573 4059 
Q 1438 3994 1388 3894 
Q 1338 3794 1338 3416 
L 1338 753 
Q 1338 494 1388 397 
Q 1425 331 1503 300 
Q 1581 269 1991 269 
L 2300 269 
Q 2788 269 2984 341 
Q 3181 413 3343 595 
Q 3506 778 3669 1172 
z
" transform="scale(0.015625)"/>
      </defs>
      <use xlink:href="#TimesNewRomanPSMT-49"/>
      <use xlink:href="#TimesNewRomanPSMT-4c" x="33.300781"/>
      <use xlink:href="#TimesNewRomanPSMT-44" x="94.384766"/>
      <use xlink:href="#TimesNewRomanPSMT-44" x="166.601562"/>
      <use xlink:href="#TimesNewRomanPSMT-51" x="238.818359"/>
      <use xlink:href="#TimesNewRomanPSMT-4e" x="311.035156"/>
     </g>
    </g>
    <g id="line2d_36">
     <path d="M 99 241.680937 
L 109 241.680937 
L 119 241.680937 
" style="fill: none; stroke: #9467bd; stroke-width: 1.5; stroke-linecap: square"/>
    </g>
    <g id="text_20">
     <!-- Market -->
     <g transform="translate(127 245.180937)scale(0.1 -0.1)">
      <defs>
       <path id="TimesNewRomanPSMT-4d" d="M 2619 0 
L 981 3566 
L 981 734 
Q 981 344 1066 247 
Q 1181 116 1431 116 
L 1581 116 
L 1581 0 
L 106 0 
L 106 116 
L 256 116 
Q 525 116 638 278 
Q 706 378 706 734 
L 706 3503 
Q 706 3784 644 3909 
Q 600 4000 483 4061 
Q 366 4122 106 4122 
L 106 4238 
L 1306 4238 
L 2844 922 
L 4356 4238 
L 5556 4238 
L 5556 4122 
L 5409 4122 
Q 5138 4122 5025 3959 
Q 4956 3859 4956 3503 
L 4956 734 
Q 4956 344 5044 247 
Q 5159 116 5409 116 
L 5556 116 
L 5556 0 
L 3756 0 
L 3756 116 
L 3906 116 
Q 4178 116 4288 278 
Q 4356 378 4356 734 
L 4356 3566 
L 2722 0 
L 2619 0 
z
" transform="scale(0.015625)"/>
       <path id="TimesNewRomanPSMT-61" d="M 1822 413 
Q 1381 72 1269 19 
Q 1100 -59 909 -59 
Q 613 -59 420 144 
Q 228 347 228 678 
Q 228 888 322 1041 
Q 450 1253 767 1440 
Q 1084 1628 1822 1897 
L 1822 2009 
Q 1822 2438 1686 2597 
Q 1550 2756 1291 2756 
Q 1094 2756 978 2650 
Q 859 2544 859 2406 
L 866 2225 
Q 866 2081 792 2003 
Q 719 1925 600 1925 
Q 484 1925 411 2006 
Q 338 2088 338 2228 
Q 338 2497 613 2722 
Q 888 2947 1384 2947 
Q 1766 2947 2009 2819 
Q 2194 2722 2281 2516 
Q 2338 2381 2338 1966 
L 2338 994 
Q 2338 584 2353 492 
Q 2369 400 2405 369 
Q 2441 338 2488 338 
Q 2538 338 2575 359 
Q 2641 400 2828 588 
L 2828 413 
Q 2478 -56 2159 -56 
Q 2006 -56 1915 50 
Q 1825 156 1822 413 
z
M 1822 616 
L 1822 1706 
Q 1350 1519 1213 1441 
Q 966 1303 859 1153 
Q 753 1003 753 825 
Q 753 600 887 451 
Q 1022 303 1197 303 
Q 1434 303 1822 616 
z
" transform="scale(0.015625)"/>
       <path id="TimesNewRomanPSMT-72" d="M 1038 2947 
L 1038 2303 
Q 1397 2947 1775 2947 
Q 1947 2947 2059 2842 
Q 2172 2738 2172 2600 
Q 2172 2478 2090 2393 
Q 2009 2309 1897 2309 
Q 1788 2309 1652 2417 
Q 1516 2525 1450 2525 
Q 1394 2525 1328 2463 
Q 1188 2334 1038 2041 
L 1038 669 
Q 1038 431 1097 309 
Q 1138 225 1241 169 
Q 1344 113 1538 113 
L 1538 0 
L 72 0 
L 72 113 
Q 291 113 397 181 
Q 475 231 506 341 
Q 522 394 522 644 
L 522 1753 
Q 522 2253 501 2348 
Q 481 2444 426 2487 
Q 372 2531 291 2531 
Q 194 2531 72 2484 
L 41 2597 
L 906 2947 
L 1038 2947 
z
" transform="scale(0.015625)"/>
       <path id="TimesNewRomanPSMT-6b" d="M 1047 4444 
L 1047 1597 
L 1775 2259 
Q 2006 2472 2044 2528 
Q 2069 2566 2069 2603 
Q 2069 2666 2017 2711 
Q 1966 2756 1847 2763 
L 1847 2863 
L 3091 2863 
L 3091 2763 
Q 2834 2756 2664 2684 
Q 2494 2613 2291 2428 
L 1556 1750 
L 2291 822 
Q 2597 438 2703 334 
Q 2853 188 2966 144 
Q 3044 113 3238 113 
L 3238 0 
L 1847 0 
L 1847 113 
Q 1966 116 2008 148 
Q 2050 181 2050 241 
Q 2050 313 1925 472 
L 1047 1594 
L 1047 644 
Q 1047 366 1086 278 
Q 1125 191 1197 153 
Q 1269 116 1509 113 
L 1509 0 
L 53 0 
L 53 113 
Q 272 113 381 166 
Q 447 200 481 272 
Q 528 375 528 628 
L 528 3234 
Q 528 3731 506 3842 
Q 484 3953 434 3995 
Q 384 4038 303 4038 
Q 238 4038 106 3984 
L 53 4094 
L 903 4444 
L 1047 4444 
z
" transform="scale(0.015625)"/>
       <path id="TimesNewRomanPSMT-65" d="M 681 1784 
Q 678 1147 991 784 
Q 1303 422 1725 422 
Q 2006 422 2214 576 
Q 2422 731 2563 1106 
L 2659 1044 
Q 2594 616 2278 264 
Q 1963 -88 1488 -88 
Q 972 -88 605 314 
Q 238 716 238 1394 
Q 238 2128 614 2539 
Q 991 2950 1559 2950 
Q 2041 2950 2350 2633 
Q 2659 2316 2659 1784 
L 681 1784 
z
M 681 1966 
L 2006 1966 
Q 1991 2241 1941 2353 
Q 1863 2528 1708 2628 
Q 1553 2728 1384 2728 
Q 1125 2728 920 2526 
Q 716 2325 681 1966 
z
" transform="scale(0.015625)"/>
       <path id="TimesNewRomanPSMT-74" d="M 1031 3803 
L 1031 2863 
L 1700 2863 
L 1700 2644 
L 1031 2644 
L 1031 788 
Q 1031 509 1111 412 
Q 1191 316 1316 316 
Q 1419 316 1516 380 
Q 1613 444 1666 569 
L 1788 569 
Q 1678 263 1478 108 
Q 1278 -47 1066 -47 
Q 922 -47 784 33 
Q 647 113 581 261 
Q 516 409 516 719 
L 516 2644 
L 63 2644 
L 63 2747 
Q 234 2816 414 2980 
Q 594 3144 734 3369 
Q 806 3488 934 3803 
L 1031 3803 
z
" transform="scale(0.015625)"/>
      </defs>
      <use xlink:href="#TimesNewRomanPSMT-4d"/>
      <use xlink:href="#TimesNewRomanPSMT-61" x="88.916016"/>
      <use xlink:href="#TimesNewRomanPSMT-72" x="133.300781"/>
      <use xlink:href="#TimesNewRomanPSMT-6b" x="166.601562"/>
      <use xlink:href="#TimesNewRomanPSMT-65" x="216.601562"/>
      <use xlink:href="#TimesNewRomanPSMT-74" x="260.986328"/>
     </g>
    </g>
   </g>
  </g>
 </g>
 <defs>
  <clipPath id="pf06803828c">
   <rect x="90" y="34.56" width="558" height="221.76"/>
  </clipPath>
 </defs>
</svg>
