<?xml version="1.0" encoding="utf-8" standalone="no"?>
<!DOCTYPE svg PUBLIC "-//W3C//DTD SVG 1.1//EN"
  "http://www.w3.org/Graphics/SVG/1.1/DTD/svg11.dtd">
<svg xmlns:xlink="http://www.w3.org/1999/xlink" width="720pt" height="288pt" viewBox="0 0 720 288" xmlns="http://www.w3.org/2000/svg" version="1.1">
 <metadata>
  <rdf:RDF xmlns:dc="http://purl.org/dc/elements/1.1/" xmlns:cc="http://creativecommons.org/ns#" xmlns:rdf="http://www.w3.org/1999/02/22-rdf-syntax-ns#">
   <cc:Work>
    <dc:type rdf:resource="http://purl.org/dc/dcmitype/StillImage"/>
    <dc:date>2022-10-22T23:17:47.926625</dc:date>
    <dc:format>image/svg+xml</dc:format>
    <dc:creator>
     <cc:Agent>
      <dc:title>Matplotlib v3.5.1, https://matplotlib.org/</dc:title>
     </cc:Agent>
    </dc:creator>
   </cc:Work>
  </rdf:RDF>
 </metadata>
 <defs>
  <style type="text/css">*{stroke-linejoin: round; stroke-linecap: butt}</style>
 </defs>
 <g id="figure_1">
  <g id="patch_1">
   <path d="M 0 288 
L 720 288 
L 720 0 
L 0 0 
z
" style="fill: #ffffff"/>
  </g>
  <g id="axes_1">
   <g id="patch_2">
    <path d="M 90 256.32 
L 648 256.32 
L 648 34.56 
L 90 34.56 
z
" style="fill: #ffffff"/>
   </g>
   <g id="matplotlib.axis_1">
    <g id="xtick_1">
     <g id="line2d_1">
      <path d="M 115.363636 256.32 
L 115.363636 34.56 
" clip-path="url(#pb3762c79fc)" style="fill: none; stroke: #b0b0b0; stroke-width: 0.8; stroke-linecap: square"/>
     </g>
     <g id="line2d_2">
      <defs>
       <path id="m9ad24a1d3b" d="M 0 0 
L 0 -3.5 
" style="stroke: #000000; stroke-width: 0.8"/>
      </defs>
      <g>
       <use xlink:href="#m9ad24a1d3b" x="115.363636" y="256.32" style="stroke: #000000; stroke-width: 0.8"/>
      </g>
     </g>
     <g id="text_1">
      <!-- 2019-10-16 -->
      <g transform="translate(92.033949 266.76375)scale(0.1 -0.1)">
       <defs>
        <path id="TimesNewRomanPSMT-32" d="M 2934 816 
L 2638 0 
L 138 0 
L 138 116 
Q 1241 1122 1691 1759 
Q 2141 2397 2141 2925 
Q 2141 3328 1894 3587 
Q 1647 3847 1303 3847 
Q 991 3847 742 3664 
Q 494 3481 375 3128 
L 259 3128 
Q 338 3706 661 4015 
Q 984 4325 1469 4325 
Q 1984 4325 2329 3994 
Q 2675 3663 2675 3213 
Q 2675 2891 2525 2569 
Q 2294 2063 1775 1497 
Q 997 647 803 472 
L 1909 472 
Q 2247 472 2383 497 
Q 2519 522 2628 598 
Q 2738 675 2819 816 
L 2934 816 
z
" transform="scale(0.015625)"/>
        <path id="TimesNewRomanPSMT-30" d="M 231 2094 
Q 231 2819 450 3342 
Q 669 3866 1031 4122 
Q 1313 4325 1613 4325 
Q 2100 4325 2488 3828 
Q 2972 3213 2972 2159 
Q 2972 1422 2759 906 
Q 2547 391 2217 158 
Q 1888 -75 1581 -75 
Q 975 -75 572 641 
Q 231 1244 231 2094 
z
M 844 2016 
Q 844 1141 1059 588 
Q 1238 122 1591 122 
Q 1759 122 1940 273 
Q 2122 425 2216 781 
Q 2359 1319 2359 2297 
Q 2359 3022 2209 3506 
Q 2097 3866 1919 4016 
Q 1791 4119 1609 4119 
Q 1397 4119 1231 3928 
Q 1006 3669 925 3112 
Q 844 2556 844 2016 
z
" transform="scale(0.015625)"/>
        <path id="TimesNewRomanPSMT-31" d="M 750 3822 
L 1781 4325 
L 1884 4325 
L 1884 747 
Q 1884 391 1914 303 
Q 1944 216 2037 169 
Q 2131 122 2419 116 
L 2419 0 
L 825 0 
L 825 116 
Q 1125 122 1212 167 
Q 1300 213 1334 289 
Q 1369 366 1369 747 
L 1369 3034 
Q 1369 3497 1338 3628 
Q 1316 3728 1258 3775 
Q 1200 3822 1119 3822 
Q 1003 3822 797 3725 
L 750 3822 
z
" transform="scale(0.015625)"/>
        <path id="TimesNewRomanPSMT-39" d="M 338 -88 
L 338 28 
Q 744 34 1094 217 
Q 1444 400 1770 856 
Q 2097 1313 2225 1859 
Q 1734 1544 1338 1544 
Q 891 1544 572 1889 
Q 253 2234 253 2806 
Q 253 3363 572 3797 
Q 956 4325 1575 4325 
Q 2097 4325 2469 3894 
Q 2925 3359 2925 2575 
Q 2925 1869 2578 1258 
Q 2231 647 1613 244 
Q 1109 -88 516 -88 
L 338 -88 
z
M 2275 2091 
Q 2331 2497 2331 2741 
Q 2331 3044 2228 3395 
Q 2125 3747 1936 3934 
Q 1747 4122 1506 4122 
Q 1228 4122 1018 3872 
Q 809 3622 809 3128 
Q 809 2469 1088 2097 
Q 1291 1828 1588 1828 
Q 1731 1828 1928 1897 
Q 2125 1966 2275 2091 
z
" transform="scale(0.015625)"/>
        <path id="TimesNewRomanPSMT-2d" d="M 259 1672 
L 1875 1672 
L 1875 1200 
L 259 1200 
L 259 1672 
z
" transform="scale(0.015625)"/>
        <path id="TimesNewRomanPSMT-36" d="M 2869 4325 
L 2869 4209 
Q 2456 4169 2195 4045 
Q 1934 3922 1679 3669 
Q 1425 3416 1258 3105 
Q 1091 2794 978 2366 
Q 1428 2675 1881 2675 
Q 2316 2675 2634 2325 
Q 2953 1975 2953 1425 
Q 2953 894 2631 456 
Q 2244 -75 1606 -75 
Q 1172 -75 869 213 
Q 275 772 275 1663 
Q 275 2231 503 2743 
Q 731 3256 1154 3653 
Q 1578 4050 1965 4187 
Q 2353 4325 2688 4325 
L 2869 4325 
z
M 925 2138 
Q 869 1716 869 1456 
Q 869 1156 980 804 
Q 1091 453 1309 247 
Q 1469 100 1697 100 
Q 1969 100 2183 356 
Q 2397 613 2397 1088 
Q 2397 1622 2184 2012 
Q 1972 2403 1581 2403 
Q 1463 2403 1327 2353 
Q 1191 2303 925 2138 
z
" transform="scale(0.015625)"/>
       </defs>
       <use xlink:href="#TimesNewRomanPSMT-32"/>
       <use xlink:href="#TimesNewRomanPSMT-30" x="50"/>
       <use xlink:href="#TimesNewRomanPSMT-31" x="100"/>
       <use xlink:href="#TimesNewRomanPSMT-39" x="150"/>
       <use xlink:href="#TimesNewRomanPSMT-2d" x="200"/>
       <use xlink:href="#TimesNewRomanPSMT-31" x="233.300781"/>
       <use xlink:href="#TimesNewRomanPSMT-30" x="283.300781"/>
       <use xlink:href="#TimesNewRomanPSMT-2d" x="333.300781"/>
       <use xlink:href="#TimesNewRomanPSMT-31" x="366.601562"/>
       <use xlink:href="#TimesNewRomanPSMT-36" x="416.601562"/>
      </g>
     </g>
    </g>
    <g id="xtick_2">
     <g id="line2d_3">
      <path d="M 182.361921 256.32 
L 182.361921 34.56 
" clip-path="url(#pb3762c79fc)" style="fill: none; stroke: #b0b0b0; stroke-width: 0.8; stroke-linecap: square"/>
     </g>
     <g id="line2d_4">
      <g>
       <use xlink:href="#m9ad24a1d3b" x="182.361921" y="256.32" style="stroke: #000000; stroke-width: 0.8"/>
      </g>
     </g>
     <g id="text_2">
      <!-- 2020-01-23 -->
      <g transform="translate(159.032234 266.76375)scale(0.1 -0.1)">
       <defs>
        <path id="TimesNewRomanPSMT-33" d="M 325 3431 
Q 506 3859 782 4092 
Q 1059 4325 1472 4325 
Q 1981 4325 2253 3994 
Q 2459 3747 2459 3466 
Q 2459 3003 1878 2509 
Q 2269 2356 2469 2072 
Q 2669 1788 2669 1403 
Q 2669 853 2319 450 
Q 1863 -75 997 -75 
Q 569 -75 414 31 
Q 259 138 259 259 
Q 259 350 332 419 
Q 406 488 509 488 
Q 588 488 669 463 
Q 722 447 909 348 
Q 1097 250 1169 231 
Q 1284 197 1416 197 
Q 1734 197 1970 444 
Q 2206 691 2206 1028 
Q 2206 1275 2097 1509 
Q 2016 1684 1919 1775 
Q 1784 1900 1550 2001 
Q 1316 2103 1072 2103 
L 972 2103 
L 972 2197 
Q 1219 2228 1467 2375 
Q 1716 2522 1828 2728 
Q 1941 2934 1941 3181 
Q 1941 3503 1739 3701 
Q 1538 3900 1238 3900 
Q 753 3900 428 3381 
L 325 3431 
z
" transform="scale(0.015625)"/>
       </defs>
       <use xlink:href="#TimesNewRomanPSMT-32"/>
       <use xlink:href="#TimesNewRomanPSMT-30" x="50"/>
       <use xlink:href="#TimesNewRomanPSMT-32" x="100"/>
       <use xlink:href="#TimesNewRomanPSMT-30" x="150"/>
       <use xlink:href="#TimesNewRomanPSMT-2d" x="200"/>
       <use xlink:href="#TimesNewRomanPSMT-30" x="233.300781"/>
       <use xlink:href="#TimesNewRomanPSMT-31" x="283.300781"/>
       <use xlink:href="#TimesNewRomanPSMT-2d" x="333.300781"/>
       <use xlink:href="#TimesNewRomanPSMT-32" x="366.601562"/>
       <use xlink:href="#TimesNewRomanPSMT-33" x="416.601562"/>
      </g>
     </g>
    </g>
    <g id="xtick_3">
     <g id="line2d_5">
      <path d="M 249.360206 256.32 
L 249.360206 34.56 
" clip-path="url(#pb3762c79fc)" style="fill: none; stroke: #b0b0b0; stroke-width: 0.8; stroke-linecap: square"/>
     </g>
     <g id="line2d_6">
      <g>
       <use xlink:href="#m9ad24a1d3b" x="249.360206" y="256.32" style="stroke: #000000; stroke-width: 0.8"/>
      </g>
     </g>
     <g id="text_3">
      <!-- 2020-05-14 -->
      <g transform="translate(226.030518 266.76375)scale(0.1 -0.1)">
       <defs>
        <path id="TimesNewRomanPSMT-35" d="M 2778 4238 
L 2534 3706 
L 1259 3706 
L 981 3138 
Q 1809 3016 2294 2522 
Q 2709 2097 2709 1522 
Q 2709 1188 2573 903 
Q 2438 619 2231 419 
Q 2025 219 1772 97 
Q 1413 -75 1034 -75 
Q 653 -75 479 54 
Q 306 184 306 341 
Q 306 428 378 495 
Q 450 563 559 563 
Q 641 563 702 538 
Q 763 513 909 409 
Q 1144 247 1384 247 
Q 1750 247 2026 523 
Q 2303 800 2303 1197 
Q 2303 1581 2056 1914 
Q 1809 2247 1375 2428 
Q 1034 2569 447 2591 
L 1259 4238 
L 2778 4238 
z
" transform="scale(0.015625)"/>
        <path id="TimesNewRomanPSMT-34" d="M 2978 1563 
L 2978 1119 
L 2409 1119 
L 2409 0 
L 1894 0 
L 1894 1119 
L 100 1119 
L 100 1519 
L 2066 4325 
L 2409 4325 
L 2409 1563 
L 2978 1563 
z
M 1894 1563 
L 1894 3666 
L 406 1563 
L 1894 1563 
z
" transform="scale(0.015625)"/>
       </defs>
       <use xlink:href="#TimesNewRomanPSMT-32"/>
       <use xlink:href="#TimesNewRomanPSMT-30" x="50"/>
       <use xlink:href="#TimesNewRomanPSMT-32" x="100"/>
       <use xlink:href="#TimesNewRomanPSMT-30" x="150"/>
       <use xlink:href="#TimesNewRomanPSMT-2d" x="200"/>
       <use xlink:href="#TimesNewRomanPSMT-30" x="233.300781"/>
       <use xlink:href="#TimesNewRomanPSMT-35" x="283.300781"/>
       <use xlink:href="#TimesNewRomanPSMT-2d" x="333.300781"/>
       <use xlink:href="#TimesNewRomanPSMT-31" x="366.601562"/>
       <use xlink:href="#TimesNewRomanPSMT-34" x="416.601562"/>
      </g>
     </g>
    </g>
    <g id="xtick_4">
     <g id="line2d_7">
      <path d="M 316.358491 256.32 
L 316.358491 34.56 
" clip-path="url(#pb3762c79fc)" style="fill: none; stroke: #b0b0b0; stroke-width: 0.8; stroke-linecap: square"/>
     </g>
     <g id="line2d_8">
      <g>
       <use xlink:href="#m9ad24a1d3b" x="316.358491" y="256.32" style="stroke: #000000; stroke-width: 0.8"/>
      </g>
     </g>
     <g id="text_4">
      <!-- 2020-08-24 -->
      <g transform="translate(293.028803 266.76375)scale(0.1 -0.1)">
       <defs>
        <path id="TimesNewRomanPSMT-38" d="M 1228 2134 
Q 725 2547 579 2797 
Q 434 3047 434 3316 
Q 434 3728 753 4026 
Q 1072 4325 1600 4325 
Q 2113 4325 2425 4047 
Q 2738 3769 2738 3413 
Q 2738 3175 2569 2928 
Q 2400 2681 1866 2347 
Q 2416 1922 2594 1678 
Q 2831 1359 2831 1006 
Q 2831 559 2490 242 
Q 2150 -75 1597 -75 
Q 994 -75 656 303 
Q 388 606 388 966 
Q 388 1247 577 1523 
Q 766 1800 1228 2134 
z
M 1719 2469 
Q 2094 2806 2194 3001 
Q 2294 3197 2294 3444 
Q 2294 3772 2109 3958 
Q 1925 4144 1606 4144 
Q 1288 4144 1088 3959 
Q 888 3775 888 3528 
Q 888 3366 970 3203 
Q 1053 3041 1206 2894 
L 1719 2469 
z
M 1375 2016 
Q 1116 1797 991 1539 
Q 866 1281 866 981 
Q 866 578 1086 336 
Q 1306 94 1647 94 
Q 1984 94 2187 284 
Q 2391 475 2391 747 
Q 2391 972 2272 1150 
Q 2050 1481 1375 2016 
z
" transform="scale(0.015625)"/>
       </defs>
       <use xlink:href="#TimesNewRomanPSMT-32"/>
       <use xlink:href="#TimesNewRomanPSMT-30" x="50"/>
       <use xlink:href="#TimesNewRomanPSMT-32" x="100"/>
       <use xlink:href="#TimesNewRomanPSMT-30" x="150"/>
       <use xlink:href="#TimesNewRomanPSMT-2d" x="200"/>
       <use xlink:href="#TimesNewRomanPSMT-30" x="233.300781"/>
       <use xlink:href="#TimesNewRomanPSMT-38" x="283.300781"/>
       <use xlink:href="#TimesNewRomanPSMT-2d" x="333.300781"/>
       <use xlink:href="#TimesNewRomanPSMT-32" x="366.601562"/>
       <use xlink:href="#TimesNewRomanPSMT-34" x="416.601562"/>
      </g>
     </g>
    </g>
    <g id="xtick_5">
     <g id="line2d_9">
      <path d="M 383.356775 256.32 
L 383.356775 34.56 
" clip-path="url(#pb3762c79fc)" style="fill: none; stroke: #b0b0b0; stroke-width: 0.8; stroke-linecap: square"/>
     </g>
     <g id="line2d_10">
      <g>
       <use xlink:href="#m9ad24a1d3b" x="383.356775" y="256.32" style="stroke: #000000; stroke-width: 0.8"/>
      </g>
     </g>
     <g id="text_5">
      <!-- 2020-12-08 -->
      <g transform="translate(360.027088 266.76375)scale(0.1 -0.1)">
       <use xlink:href="#TimesNewRomanPSMT-32"/>
       <use xlink:href="#TimesNewRomanPSMT-30" x="50"/>
       <use xlink:href="#TimesNewRomanPSMT-32" x="100"/>
       <use xlink:href="#TimesNewRomanPSMT-30" x="150"/>
       <use xlink:href="#TimesNewRomanPSMT-2d" x="200"/>
       <use xlink:href="#TimesNewRomanPSMT-31" x="233.300781"/>
       <use xlink:href="#TimesNewRomanPSMT-32" x="283.300781"/>
       <use xlink:href="#TimesNewRomanPSMT-2d" x="333.300781"/>
       <use xlink:href="#TimesNewRomanPSMT-30" x="366.601562"/>
       <use xlink:href="#TimesNewRomanPSMT-38" x="416.601562"/>
      </g>
     </g>
    </g>
    <g id="xtick_6">
     <g id="line2d_11">
      <path d="M 450.35506 256.32 
L 450.35506 34.56 
" clip-path="url(#pb3762c79fc)" style="fill: none; stroke: #b0b0b0; stroke-width: 0.8; stroke-linecap: square"/>
     </g>
     <g id="line2d_12">
      <g>
       <use xlink:href="#m9ad24a1d3b" x="450.35506" y="256.32" style="stroke: #000000; stroke-width: 0.8"/>
      </g>
     </g>
     <g id="text_6">
      <!-- 2021-03-24 -->
      <g transform="translate(427.025373 266.76375)scale(0.1 -0.1)">
       <use xlink:href="#TimesNewRomanPSMT-32"/>
       <use xlink:href="#TimesNewRomanPSMT-30" x="50"/>
       <use xlink:href="#TimesNewRomanPSMT-32" x="100"/>
       <use xlink:href="#TimesNewRomanPSMT-31" x="150"/>
       <use xlink:href="#TimesNewRomanPSMT-2d" x="200"/>
       <use xlink:href="#TimesNewRomanPSMT-30" x="233.300781"/>
       <use xlink:href="#TimesNewRomanPSMT-33" x="283.300781"/>
       <use xlink:href="#TimesNewRomanPSMT-2d" x="333.300781"/>
       <use xlink:href="#TimesNewRomanPSMT-32" x="366.601562"/>
       <use xlink:href="#TimesNewRomanPSMT-34" x="416.601562"/>
      </g>
     </g>
    </g>
    <g id="xtick_7">
     <g id="line2d_13">
      <path d="M 517.353345 256.32 
L 517.353345 34.56 
" clip-path="url(#pb3762c79fc)" style="fill: none; stroke: #b0b0b0; stroke-width: 0.8; stroke-linecap: square"/>
     </g>
     <g id="line2d_14">
      <g>
       <use xlink:href="#m9ad24a1d3b" x="517.353345" y="256.32" style="stroke: #000000; stroke-width: 0.8"/>
      </g>
     </g>
     <g id="text_7">
      <!-- 2021-07-07 -->
      <g transform="translate(494.023657 266.76375)scale(0.1 -0.1)">
       <defs>
        <path id="TimesNewRomanPSMT-37" d="M 644 4238 
L 2916 4238 
L 2916 4119 
L 1503 -88 
L 1153 -88 
L 2419 3728 
L 1253 3728 
Q 900 3728 750 3644 
Q 488 3500 328 3200 
L 238 3234 
L 644 4238 
z
" transform="scale(0.015625)"/>
       </defs>
       <use xlink:href="#TimesNewRomanPSMT-32"/>
       <use xlink:href="#TimesNewRomanPSMT-30" x="50"/>
       <use xlink:href="#TimesNewRomanPSMT-32" x="100"/>
       <use xlink:href="#TimesNewRomanPSMT-31" x="150"/>
       <use xlink:href="#TimesNewRomanPSMT-2d" x="200"/>
       <use xlink:href="#TimesNewRomanPSMT-30" x="233.300781"/>
       <use xlink:href="#TimesNewRomanPSMT-37" x="283.300781"/>
       <use xlink:href="#TimesNewRomanPSMT-2d" x="333.300781"/>
       <use xlink:href="#TimesNewRomanPSMT-30" x="366.601562"/>
       <use xlink:href="#TimesNewRomanPSMT-37" x="416.601562"/>
      </g>
     </g>
    </g>
    <g id="xtick_8">
     <g id="line2d_15">
      <path d="M 584.35163 256.32 
L 584.35163 34.56 
" clip-path="url(#pb3762c79fc)" style="fill: none; stroke: #b0b0b0; stroke-width: 0.8; stroke-linecap: square"/>
     </g>
     <g id="line2d_16">
      <g>
       <use xlink:href="#m9ad24a1d3b" x="584.35163" y="256.32" style="stroke: #000000; stroke-width: 0.8"/>
      </g>
     </g>
     <g id="text_8">
      <!-- 2021-10-22 -->
      <g transform="translate(561.021942 266.76375)scale(0.1 -0.1)">
       <use xlink:href="#TimesNewRomanPSMT-32"/>
       <use xlink:href="#TimesNewRomanPSMT-30" x="50"/>
       <use xlink:href="#TimesNewRomanPSMT-32" x="100"/>
       <use xlink:href="#TimesNewRomanPSMT-31" x="150"/>
       <use xlink:href="#TimesNewRomanPSMT-2d" x="200"/>
       <use xlink:href="#TimesNewRomanPSMT-31" x="233.300781"/>
       <use xlink:href="#TimesNewRomanPSMT-30" x="283.300781"/>
       <use xlink:href="#TimesNewRomanPSMT-2d" x="333.300781"/>
       <use xlink:href="#TimesNewRomanPSMT-32" x="366.601562"/>
       <use xlink:href="#TimesNewRomanPSMT-32" x="416.601562"/>
      </g>
     </g>
    </g>
    <g id="text_9">
     <!-- 时间 -->
     <g transform="translate(359 280.67625)scale(0.1 -0.1)">
      <defs>
       <path id="SimSun-65f6" d="M 4500 3600 
Q 4500 4575 4475 5225 
L 5100 4900 
L 4850 4725 
L 4850 3600 
L 5225 3600 
L 5550 3925 
L 6025 3450 
L 4850 3450 
L 4850 100 
Q 4850 -375 4300 -575 
Q 4275 -200 3475 -25 
L 3475 100 
Q 4150 0 4325 25 
Q 4500 50 4500 325 
L 4500 3450 
L 3200 3450 
Q 2875 3450 2600 3375 
L 2375 3600 
L 4500 3600 
z
M 2875 2825 
Q 3525 2375 3637 2200 
Q 3750 2025 3750 1925 
Q 3750 1800 3637 1637 
Q 3525 1475 3475 1475 
Q 3400 1475 3325 1775 
Q 3200 2225 2800 2750 
L 2875 2825 
z
M 925 4150 
L 925 2650 
L 1950 2650 
L 1950 4150 
L 925 4150 
z
M 925 2500 
L 925 900 
L 1950 900 
L 1950 2500 
L 925 2500 
z
M 2300 2000 
Q 2300 800 2325 450 
L 1950 250 
L 1950 750 
L 925 750 
L 925 225 
L 550 25 
Q 575 825 575 2425 
Q 575 4025 550 4500 
L 950 4300 
L 1900 4300 
L 2100 4550 
L 2500 4225 
L 2300 4050 
L 2300 2000 
z
" transform="scale(0.015625)"/>
       <path id="SimSun-95f4" d="M 2150 525 
Q 2175 1325 2175 2112 
Q 2175 2900 2150 3675 
L 2525 3450 
L 3750 3450 
L 4000 3700 
L 4325 3375 
L 4125 3200 
Q 4125 1550 4150 775 
L 3800 575 
L 3800 975 
L 2500 975 
L 2500 700 
L 2150 525 
z
M 2500 3300 
L 2500 2325 
L 3800 2325 
L 3800 3300 
L 2500 3300 
z
M 2500 2175 
L 2500 1125 
L 3800 1125 
L 3800 2175 
L 2500 2175 
z
M 1275 5200 
Q 1850 4825 1950 4675 
Q 2050 4525 2050 4425 
Q 2050 4275 1950 4137 
Q 1850 4000 1825 4000 
Q 1750 4000 1675 4275 
Q 1550 4650 1200 5125 
L 1275 5200 
z
M 1125 425 
Q 1125 25 1150 -375 
L 750 -525 
Q 775 -150 775 1950 
Q 775 4050 750 4425 
L 1350 4125 
L 1125 3975 
L 1125 425 
z
M 4225 125 
Q 5025 0 5125 37 
Q 5225 75 5225 250 
L 5225 4450 
L 3225 4450 
Q 2900 4450 2625 4375 
L 2400 4600 
L 5175 4600 
L 5425 4850 
L 5775 4500 
L 5575 4350 
L 5575 225 
Q 5575 -100 5462 -250 
Q 5350 -400 5000 -550 
Q 4800 -125 4225 25 
L 4225 125 
z
" transform="scale(0.015625)"/>
      </defs>
      <use xlink:href="#SimSun-65f6"/>
      <use xlink:href="#SimSun-95f4" x="100"/>
     </g>
    </g>
   </g>
   <g id="matplotlib.axis_2">
    <g id="ytick_1">
     <g id="line2d_17">
      <path d="M 90 234.389494 
L 648 234.389494 
" clip-path="url(#pb3762c79fc)" style="fill: none; stroke: #b0b0b0; stroke-width: 0.8; stroke-linecap: square"/>
     </g>
     <g id="line2d_18">
      <defs>
       <path id="mbb0f5b444f" d="M 0 0 
L 3.5 0 
" style="stroke: #000000; stroke-width: 0.8"/>
      </defs>
      <g>
       <use xlink:href="#mbb0f5b444f" x="90" y="234.389494" style="stroke: #000000; stroke-width: 0.8"/>
      </g>
     </g>
     <g id="text_10">
      <!-- 0.6 -->
      <g transform="translate(74 237.861369)scale(0.1 -0.1)">
       <defs>
        <path id="TimesNewRomanPSMT-2e" d="M 800 606 
Q 947 606 1047 504 
Q 1147 403 1147 259 
Q 1147 116 1045 14 
Q 944 -88 800 -88 
Q 656 -88 554 14 
Q 453 116 453 259 
Q 453 406 554 506 
Q 656 606 800 606 
z
" transform="scale(0.015625)"/>
       </defs>
       <use xlink:href="#TimesNewRomanPSMT-30"/>
       <use xlink:href="#TimesNewRomanPSMT-2e" x="50"/>
       <use xlink:href="#TimesNewRomanPSMT-36" x="75"/>
      </g>
     </g>
    </g>
    <g id="ytick_2">
     <g id="line2d_19">
      <path d="M 90 206.763823 
L 648 206.763823 
" clip-path="url(#pb3762c79fc)" style="fill: none; stroke: #b0b0b0; stroke-width: 0.8; stroke-linecap: square"/>
     </g>
     <g id="line2d_20">
      <g>
       <use xlink:href="#mbb0f5b444f" x="90" y="206.763823" style="stroke: #000000; stroke-width: 0.8"/>
      </g>
     </g>
     <g id="text_11">
      <!-- 0.7 -->
      <g transform="translate(74 210.235698)scale(0.1 -0.1)">
       <use xlink:href="#TimesNewRomanPSMT-30"/>
       <use xlink:href="#TimesNewRomanPSMT-2e" x="50"/>
       <use xlink:href="#TimesNewRomanPSMT-37" x="75"/>
      </g>
     </g>
    </g>
    <g id="ytick_3">
     <g id="line2d_21">
      <path d="M 90 179.138153 
L 648 179.138153 
" clip-path="url(#pb3762c79fc)" style="fill: none; stroke: #b0b0b0; stroke-width: 0.8; stroke-linecap: square"/>
     </g>
     <g id="line2d_22">
      <g>
       <use xlink:href="#mbb0f5b444f" x="90" y="179.138153" style="stroke: #000000; stroke-width: 0.8"/>
      </g>
     </g>
     <g id="text_12">
      <!-- 0.8 -->
      <g transform="translate(74 182.610028)scale(0.1 -0.1)">
       <use xlink:href="#TimesNewRomanPSMT-30"/>
       <use xlink:href="#TimesNewRomanPSMT-2e" x="50"/>
       <use xlink:href="#TimesNewRomanPSMT-38" x="75"/>
      </g>
     </g>
    </g>
    <g id="ytick_4">
     <g id="line2d_23">
      <path d="M 90 151.512483 
L 648 151.512483 
" clip-path="url(#pb3762c79fc)" style="fill: none; stroke: #b0b0b0; stroke-width: 0.8; stroke-linecap: square"/>
     </g>
     <g id="line2d_24">
      <g>
       <use xlink:href="#mbb0f5b444f" x="90" y="151.512483" style="stroke: #000000; stroke-width: 0.8"/>
      </g>
     </g>
     <g id="text_13">
      <!-- 0.9 -->
      <g transform="translate(74 154.984358)scale(0.1 -0.1)">
       <use xlink:href="#TimesNewRomanPSMT-30"/>
       <use xlink:href="#TimesNewRomanPSMT-2e" x="50"/>
       <use xlink:href="#TimesNewRomanPSMT-39" x="75"/>
      </g>
     </g>
    </g>
    <g id="ytick_5">
     <g id="line2d_25">
      <path d="M 90 123.886813 
L 648 123.886813 
" clip-path="url(#pb3762c79fc)" style="fill: none; stroke: #b0b0b0; stroke-width: 0.8; stroke-linecap: square"/>
     </g>
     <g id="line2d_26">
      <g>
       <use xlink:href="#mbb0f5b444f" x="90" y="123.886813" style="stroke: #000000; stroke-width: 0.8"/>
      </g>
     </g>
     <g id="text_14">
      <!-- 1.0 -->
      <g transform="translate(74 127.358688)scale(0.1 -0.1)">
       <use xlink:href="#TimesNewRomanPSMT-31"/>
       <use xlink:href="#TimesNewRomanPSMT-2e" x="50"/>
       <use xlink:href="#TimesNewRomanPSMT-30" x="75"/>
      </g>
     </g>
    </g>
    <g id="ytick_6">
     <g id="line2d_27">
      <path d="M 90 96.261142 
L 648 96.261142 
" clip-path="url(#pb3762c79fc)" style="fill: none; stroke: #b0b0b0; stroke-width: 0.8; stroke-linecap: square"/>
     </g>
     <g id="line2d_28">
      <g>
       <use xlink:href="#mbb0f5b444f" x="90" y="96.261142" style="stroke: #000000; stroke-width: 0.8"/>
      </g>
     </g>
     <g id="text_15">
      <!-- 1.1 -->
      <g transform="translate(74 99.733017)scale(0.1 -0.1)">
       <use xlink:href="#TimesNewRomanPSMT-31"/>
       <use xlink:href="#TimesNewRomanPSMT-2e" x="50"/>
       <use xlink:href="#TimesNewRomanPSMT-31" x="75"/>
      </g>
     </g>
    </g>
    <g id="ytick_7">
     <g id="line2d_29">
      <path d="M 90 68.635472 
L 648 68.635472 
" clip-path="url(#pb3762c79fc)" style="fill: none; stroke: #b0b0b0; stroke-width: 0.8; stroke-linecap: square"/>
     </g>
     <g id="line2d_30">
      <g>
       <use xlink:href="#mbb0f5b444f" x="90" y="68.635472" style="stroke: #000000; stroke-width: 0.8"/>
      </g>
     </g>
     <g id="text_16">
      <!-- 1.2 -->
      <g transform="translate(74 72.107347)scale(0.1 -0.1)">
       <use xlink:href="#TimesNewRomanPSMT-31"/>
       <use xlink:href="#TimesNewRomanPSMT-2e" x="50"/>
       <use xlink:href="#TimesNewRomanPSMT-32" x="75"/>
      </g>
     </g>
    </g>
    <g id="ytick_8">
     <g id="line2d_31">
      <path d="M 90 41.009802 
L 648 41.009802 
" clip-path="url(#pb3762c79fc)" style="fill: none; stroke: #b0b0b0; stroke-width: 0.8; stroke-linecap: square"/>
     </g>
     <g id="line2d_32">
      <g>
       <use xlink:href="#mbb0f5b444f" x="90" y="41.009802" style="stroke: #000000; stroke-width: 0.8"/>
      </g>
     </g>
     <g id="text_17">
      <!-- 1.3 -->
      <g transform="translate(74 44.481677)scale(0.1 -0.1)">
       <use xlink:href="#TimesNewRomanPSMT-31"/>
       <use xlink:href="#TimesNewRomanPSMT-2e" x="50"/>
       <use xlink:href="#TimesNewRomanPSMT-33" x="75"/>
      </g>
     </g>
    </g>
    <g id="text_18">
     <!-- 累积收益率 -->
     <g transform="translate(68.710938 170.44)rotate(-90)scale(0.1 -0.1)">
      <defs>
       <path id="SimSun-7d2f" d="M 1675 4725 
L 1675 4100 
L 3125 4100 
L 3125 4725 
L 1675 4725 
z
M 3450 4725 
L 3450 4100 
L 4925 4100 
L 4925 4725 
L 3450 4725 
z
M 1675 3950 
L 1675 3375 
L 3125 3375 
L 3125 3950 
L 1675 3950 
z
M 3450 3950 
L 3450 3375 
L 4925 3375 
L 4925 3950 
L 3450 3950 
z
M 5250 4625 
Q 5250 4275 5250 3875 
Q 5250 3475 5275 3075 
L 4925 2950 
L 4925 3225 
L 1675 3225 
L 1675 3000 
L 1325 2875 
Q 1350 3500 1350 4125 
Q 1350 4750 1325 5075 
L 1675 4875 
L 4900 4875 
L 5075 5075 
L 5425 4775 
L 5250 4625 
z
M 3525 2875 
Q 3225 2850 2875 2700 
Q 2525 2550 1825 2275 
L 3550 2300 
Q 3925 2550 4175 2800 
L 4500 2400 
Q 4275 2400 3675 2100 
Q 3050 1775 1875 1300 
L 4775 1475 
Q 4550 1725 4300 1975 
L 4375 2025 
Q 5100 1675 5262 1487 
Q 5425 1300 5412 1150 
Q 5400 1000 5337 900 
Q 5275 800 5250 800 
Q 5200 800 5125 950 
Q 5000 1150 4875 1350 
L 3550 1225 
L 3550 100 
Q 3575 -425 3000 -525 
Q 3000 -175 2200 0 
L 2200 100 
Q 2900 25 3062 37 
Q 3225 50 3225 325 
L 3225 1200 
Q 2750 1150 2250 1075 
Q 1750 1000 1450 825 
L 1175 1350 
Q 1550 1400 2000 1562 
Q 2450 1725 3375 2175 
Q 2300 2075 2000 2037 
Q 1700 2000 1550 1900 
L 1325 2350 
Q 1625 2350 2200 2612 
Q 2775 2875 3150 3250 
L 3525 2875 
z
M 2625 500 
Q 2325 450 1850 175 
Q 1375 -125 550 -450 
L 500 -375 
Q 1125 -50 1562 300 
Q 2000 650 2225 950 
L 2625 500 
z
M 4075 900 
Q 5000 575 5312 387 
Q 5625 200 5650 12 
Q 5675 -175 5612 -287 
Q 5550 -400 5525 -400 
Q 5425 -400 5250 -150 
Q 4975 250 4025 825 
L 4075 900 
z
" transform="scale(0.015625)"/>
       <path id="SimSun-79ef" d="M 3125 1750 
Q 3150 2475 3150 3225 
Q 3150 3975 3125 4725 
L 3500 4525 
L 5225 4525 
L 5475 4775 
L 5850 4400 
L 5600 4250 
Q 5600 2300 5625 1975 
L 5275 1850 
L 5275 2175 
L 3475 2175 
L 3475 1875 
L 3125 1750 
z
M 3475 4375 
L 3475 2325 
L 5275 2325 
L 5275 4375 
L 3475 4375 
z
M 3825 1700 
L 4300 1300 
L 4075 1225 
Q 3125 -75 2200 -550 
L 2175 -450 
Q 2800 50 3225 625 
Q 3650 1200 3825 1700 
z
M 4700 1600 
Q 5725 650 5850 362 
Q 5975 75 5975 -75 
Q 5975 -225 5900 -337 
Q 5825 -450 5775 -450 
Q 5725 -450 5650 -250 
Q 5525 75 5350 450 
Q 5175 825 4650 1525 
L 4700 1600 
z
M 1875 2575 
Q 1875 225 1900 -400 
L 1525 -625 
Q 1550 125 1550 2350 
Q 1025 1275 300 625 
L 250 700 
Q 625 1200 962 1862 
Q 1300 2525 1500 3200 
L 1125 3200 
Q 800 3200 525 3125 
L 300 3350 
L 1550 3350 
L 1550 4475 
Q 900 4375 525 4350 
L 525 4450 
Q 1075 4550 1525 4712 
Q 1975 4875 2375 5150 
L 2725 4700 
Q 2425 4700 1875 4550 
L 1875 3350 
L 2250 3350 
L 2550 3650 
L 2975 3200 
L 1875 3200 
L 1875 2675 
Q 2475 2400 2612 2212 
Q 2750 2025 2750 1925 
Q 2750 1800 2662 1675 
Q 2575 1550 2550 1550 
Q 2450 1550 2375 1800 
Q 2250 2175 1875 2575 
z
" transform="scale(0.015625)"/>
       <path id="SimSun-6536" d="M 3325 3600 
Q 3575 2100 4200 1200 
Q 4600 1950 4850 3600 
L 3325 3600 
z
M 3400 5275 
L 4025 4975 
L 3775 4850 
Q 3575 4375 3325 3750 
L 5250 3750 
L 5575 4075 
L 6050 3600 
L 5225 3600 
Q 4975 2000 4425 900 
Q 5300 -25 6150 -75 
L 6150 -175 
Q 5750 -200 5575 -525 
Q 4750 -50 4200 650 
Q 3350 -175 2300 -600 
L 2250 -525 
Q 3225 -25 4000 900 
Q 3325 2100 3225 3550 
Q 2875 2725 2425 2100 
L 2350 2150 
Q 3050 3500 3400 5275 
z
M 575 1575 
L 575 3100 
Q 575 3600 550 4125 
L 1125 3850 
L 900 3675 
L 900 1425 
L 1750 1725 
Q 1750 4350 1725 5250 
L 2300 4975 
L 2075 4775 
L 2075 -450 
L 1725 -650 
Q 1750 375 1750 1600 
Q 975 1175 750 825 
L 475 1200 
Q 600 1325 575 1575 
z
" transform="scale(0.015625)"/>
       <path id="SimSun-76ca" d="M 3900 1725 
L 3900 -75 
L 4725 -75 
L 4725 1725 
L 3900 1725 
z
M 1275 2100 
L 1625 1875 
L 4675 1875 
L 4875 2125 
L 5250 1800 
L 5050 1650 
L 5050 -75 
L 5300 -75 
L 5650 275 
L 6100 -225 
L 1125 -225 
Q 800 -225 525 -300 
L 300 -75 
L 1300 -75 
Q 1300 1475 1275 2100 
z
M 1625 1725 
L 1625 -75 
L 2450 -75 
L 2450 1725 
L 1625 1725 
z
M 2775 1725 
L 2775 -75 
L 3575 -75 
L 3575 1725 
L 2775 1725 
z
M 2475 3550 
L 2900 3150 
Q 2575 3025 2050 2675 
Q 1525 2300 725 2000 
L 675 2075 
Q 1875 2750 2475 3550 
z
M 3700 3450 
Q 4425 3200 4987 2950 
Q 5550 2700 5500 2362 
Q 5450 2025 5350 2025 
Q 5275 2025 5200 2125 
Q 4975 2375 4662 2650 
Q 4350 2925 3650 3375 
L 3700 3450 
z
M 1725 5000 
L 1775 5075 
Q 2375 4800 2587 4587 
Q 2800 4375 2800 4225 
Q 2800 4050 2600 3825 
L 3625 3825 
Q 4175 4800 4275 5225 
L 4825 4875 
Q 4475 4725 3775 3825 
L 4900 3825 
L 5275 4200 
L 5775 3675 
L 1550 3675 
Q 1225 3675 950 3600 
L 725 3825 
L 2425 3825 
Q 2325 4375 1725 5000 
z
" transform="scale(0.015625)"/>
       <path id="SimSun-7387" d="M 875 3725 
L 925 3800 
Q 1375 3650 1550 3525 
Q 1725 3400 1725 3250 
Q 1725 3175 1662 3025 
Q 1600 2875 1550 2875 
Q 1500 2875 1425 3050 
Q 1275 3325 875 3725 
z
M 550 1850 
Q 875 1925 2000 2575 
L 2050 2500 
Q 1675 2225 1337 1937 
Q 1000 1650 875 1425 
L 550 1850 
z
M 5200 3450 
Q 4800 3150 4275 2800 
L 4225 2875 
Q 4775 3400 5050 3925 
L 5450 3525 
L 5200 3450 
z
M 4325 2500 
L 4350 2575 
Q 5225 2350 5375 2212 
Q 5525 2075 5525 1900 
Q 5525 1775 5487 1662 
Q 5450 1550 5400 1550 
Q 5325 1550 5200 1800 
Q 4975 2150 4325 2500 
z
M 3150 3900 
Q 2500 3300 2300 3150 
Q 2800 3150 3400 3175 
Q 3700 3500 3850 3825 
L 4250 3450 
Q 4050 3400 3450 2825 
Q 2850 2250 2475 1950 
Q 3150 1975 3850 2000 
Q 3750 2175 3550 2450 
L 3600 2500 
Q 4050 2250 4200 2100 
Q 4350 1950 4350 1850 
Q 4350 1775 4250 1625 
Q 4150 1475 4100 1475 
Q 4075 1475 4050 1550 
Q 4000 1700 3900 1900 
Q 3650 1875 3075 1800 
L 3500 1550 
L 3325 1425 
L 3325 975 
L 5325 975 
L 5650 1300 
L 6100 825 
L 3325 825 
Q 3325 -275 3350 -525 
L 2975 -650 
Q 3000 0 3000 825 
L 1125 825 
Q 800 825 525 750 
L 300 975 
L 3000 975 
L 3000 1775 
Q 2450 1700 2200 1525 
L 1950 1950 
Q 2275 1950 2675 2350 
Q 3075 2750 3325 3050 
Q 2400 2950 2150 2775 
L 1950 3175 
Q 2150 3150 2475 3575 
Q 2800 4000 2900 4225 
L 1450 4225 
Q 1125 4225 850 4150 
L 625 4375 
L 3100 4375 
Q 3050 4800 2675 5200 
L 2725 5250 
Q 3225 5050 3337 4912 
Q 3450 4775 3450 4700 
Q 3450 4550 3250 4375 
L 5025 4375 
L 5350 4675 
L 5775 4225 
L 3050 4225 
L 3375 3950 
L 3150 3900 
z
" transform="scale(0.015625)"/>
      </defs>
      <use xlink:href="#SimSun-7d2f"/>
      <use xlink:href="#SimSun-79ef" x="100"/>
      <use xlink:href="#SimSun-6536" x="200"/>
      <use xlink:href="#SimSun-76ca" x="300"/>
      <use xlink:href="#SimSun-7387" x="400"/>
     </g>
    </g>
   </g>
   <g id="line2d_33">
    <path d="M 115.363636 123.886813 
L 144.077187 123.886813 
L 145.034305 120.845065 
L 145.991424 124.381094 
L 146.948542 125.208381 
L 152.691252 125.208381 
L 153.64837 129.3846 
L 154.605489 130.196876 
L 159.391081 130.196876 
L 160.348199 133.035594 
L 161.305317 133.076999 
L 162.262436 130.923905 
L 163.219554 131.731564 
L 180.447684 131.731564 
L 181.404803 131.973417 
L 182.361921 142.838652 
L 183.319039 143.610567 
L 226.389365 143.610567 
L 227.346484 148.843411 
L 228.303602 148.455302 
L 229.26072 139.431785 
L 230.217839 125.993536 
L 231.174957 126.527185 
L 232.132075 136.181378 
L 233.089194 133.416107 
L 234.046312 134.774486 
L 235.003431 135.841784 
L 235.960549 141.081245 
L 236.917667 141.858432 
L 240.746141 141.858432 
L 241.703259 141.55623 
L 242.660377 143.663515 
L 243.617496 145.115201 
L 244.574614 146.801029 
L 245.531732 133.267576 
L 246.488851 127.554492 
L 247.445969 123.855036 
L 248.403087 126.711578 
L 249.360206 125.868664 
L 250.317324 126.691489 
L 255.102916 126.691489 
L 256.060034 131.041057 
L 257.017153 121.335723 
L 257.974271 124.472801 
L 258.931389 121.629824 
L 259.888508 121.041622 
L 260.845626 115.992887 
L 261.802744 115.404685 
L 262.759863 115.747803 
L 263.716981 107.758058 
L 264.674099 105.209182 
L 265.631218 94.327443 
L 266.588336 96.631235 
L 267.545455 99.523229 
L 268.502573 105.572632 
L 269.459691 105.572632 
L 270.41681 113.721827 
L 271.373928 114.581092 
L 277.116638 114.581092 
L 278.073756 119.21926 
L 279.030875 120.062033 
L 309.658662 120.062033 
L 310.61578 118.549402 
L 311.572899 115.796037 
L 313.487136 123.855887 
L 314.444254 129.162371 
L 315.401372 128.711821 
L 316.358491 129.11231 
L 317.315609 128.361393 
L 318.272727 132.816837 
L 319.229846 135.119651 
L 320.186964 124.606804 
L 321.144082 127.310108 
L 322.101201 126.058578 
L 323.058319 127.159924 
L 324.015437 126.058578 
L 324.972556 125.658089 
L 325.929674 124.756988 
L 326.886792 122.404113 
L 327.843911 127.310108 
L 328.801029 126.809496 
L 329.758148 125.507906 
L 330.715266 123.405336 
L 331.672384 120.952339 
L 332.629503 124.556743 
L 333.586621 125.808273 
L 335.500858 117.047567 
L 336.457976 122.30399 
L 337.415094 122.253929 
L 338.372213 128.161148 
L 339.329331 129.262494 
L 340.286449 134.719162 
L 341.243568 134.518917 
L 342.200686 133.317449 
L 343.157804 126.058578 
L 344.114923 120.702033 
L 345.072041 120.251482 
L 346.02916 111.791143 
L 346.986278 110.089063 
L 347.943396 111.290532 
L 348.900515 113.543285 
L 350.814751 109.788696 
L 351.77187 106.785026 
L 352.728988 108.186739 
L 353.686106 109.062609 
L 355.600343 109.062609 
L 356.557461 108.060601 
L 357.51458 104.006006 
L 358.471698 95.085896 
L 359.428816 96.001069 
L 373.785592 96.001069 
L 375.699828 97.687414 
L 399.627787 97.687414 
L 400.584906 93.921118 
L 401.542024 82.431692 
L 402.499142 88.225089 
L 403.456261 85.157997 
L 404.413379 85.157997 
L 405.370497 96.111898 
L 407.284734 84.086948 
L 408.241852 85.035118 
L 429.298456 85.035118 
L 430.255575 93.662611 
L 431.212693 92.427018 
L 432.169811 78.620604 
L 433.12693 79.585173 
L 441.740995 79.585173 
L 442.698113 81.03778 
L 443.655232 84.965235 
L 444.61235 72.855581 
L 445.569468 73.837445 
L 455.140652 73.837445 
L 456.09777 74.660704 
L 457.054889 76.165407 
L 458.012007 81.924787 
L 458.969125 80.108767 
L 459.926244 79.226699 
L 460.883362 80.264426 
L 461.84048 87.78794 
L 462.797599 93.13223 
L 463.754717 89.240757 
L 464.711835 86.075692 
L 465.668954 84.259671 
L 466.626072 84.259671 
L 467.58319 88.929439 
L 468.540309 90.797346 
L 469.497427 93.443548 
L 470.454545 89.811506 
L 471.411664 96.608613 
L 472.368782 99.306701 
L 473.325901 98.89161 
L 474.283019 91.368096 
L 475.240137 89.292643 
L 476.197256 89.033212 
L 477.154374 91.108664 
L 478.111492 89.655847 
L 479.068611 90.58731 
L 485.768439 90.58731 
L 486.725557 94.176561 
L 487.682676 95.094462 
L 502.039451 95.094462 
L 502.996569 97.053233 
L 503.953688 97.962504 
L 517.353345 97.962504 
L 518.310463 104.811699 
L 519.267581 104.211431 
L 520.2247 106.492449 
L 521.181818 107.373402 
L 544.152659 107.373402 
L 545.109777 113.543354 
L 546.066895 110.380534 
L 547.024014 112.935119 
L 547.981132 119.747347 
L 548.93825 120.588536 
L 575.737564 120.588536 
L 576.694683 124.294797 
L 577.651801 126.672803 
L 578.608919 127.493215 
L 582.437393 127.493215 
L 583.394511 117.742256 
L 584.35163 113.585152 
L 585.308748 122.744874 
L 586.265866 125.49279 
L 587.222985 141.064316 
L 588.180103 142.96672 
L 589.137221 141.909829 
L 590.09434 139.655129 
L 591.051458 140.436594 
L 595.83705 140.436594 
L 596.794168 147.97984 
L 597.751286 148.736331 
L 598.708405 148.736331 
L 599.665523 144.821318 
L 600.622642 143.194161 
L 601.57976 143.965009 
L 607.32247 143.965009 
L 608.279588 146.538307 
L 609.236707 150.147832 
L 610.193825 150.653165 
L 611.150943 146.177355 
L 612.108062 146.754879 
L 613.06518 147.621164 
L 614.022298 144.589164 
L 614.979417 135.709733 
L 615.936535 136.576019 
L 616.893654 133.977161 
L 617.850772 135.926304 
L 618.80789 135.420971 
L 619.765009 138.813924 
L 620.722127 140.979639 
L 621.679245 139.968972 
L 622.636364 143.867259 
L 622.636364 143.867259 
" clip-path="url(#pb3762c79fc)" style="fill: none; stroke: #1f77b4; stroke-width: 1.5; stroke-linecap: square"/>
   </g>
   <g id="line2d_34">
    <path d="M 115.363636 123.886813 
L 127.806175 123.886813 
L 129.720412 128.77542 
L 130.67753 127.877983 
L 131.634648 128.305334 
L 132.591767 138.732706 
L 133.548885 147.322468 
L 134.506003 148.647257 
L 135.463122 147.450673 
L 136.42024 148.604522 
L 137.377358 148.048965 
L 138.334477 146.040414 
L 139.291595 148.604522 
L 140.248714 154.630176 
L 141.205832 157.749841 
L 142.16295 153.091711 
L 143.120069 149.972046 
L 144.077187 153.818208 
L 145.034305 150.356663 
L 145.991424 153.519062 
L 146.948542 154.258936 
L 151.734134 154.258936 
L 152.691252 154.957145 
L 153.64837 157.954919 
L 154.605489 157.639364 
L 155.562607 158.366877 
L 156.519726 158.366877 
L 157.476844 155.233857 
L 158.433962 154.240619 
L 159.391081 151.833926 
L 160.348199 152.578855 
L 177.576329 152.578855 
L 178.533448 151.158374 
L 179.490566 151.905329 
L 192.890223 151.905329 
L 193.847341 156.414203 
L 194.80446 158.335492 
L 195.761578 151.160064 
L 196.718696 154.532123 
L 197.675815 158.727592 
L 198.632933 163.903311 
L 199.590051 163.746471 
L 200.54717 162.099652 
L 201.504288 168.020361 
L 202.461407 164.765931 
L 203.418525 164.922771 
L 204.375643 165.589341 
L 205.332762 153.159774 
L 206.28988 159.080482 
L 207.246998 167.902731 
L 208.204117 161.864392 
L 209.161235 166.334331 
L 211.075472 176.999449 
L 212.03259 186.841157 
L 212.989708 192.526606 
L 213.946827 194.526315 
L 214.903945 202.917254 
L 215.861063 197.937585 
L 216.818182 207.151933 
L 217.7753 199.623614 
L 218.732419 190.448476 
L 219.689537 192.997126 
L 220.646655 194.016586 
L 221.603774 195.937875 
L 222.560892 195.467355 
L 223.51801 196.290765 
L 224.475129 195.075255 
L 225.432247 196.408395 
L 226.389365 197.0196 
L 279.030875 197.0196 
L 279.987993 194.621862 
L 280.945111 191.757948 
L 281.90223 190.934572 
L 282.859348 180.839274 
L 283.816467 185.063548 
L 284.773585 187.175685 
L 285.730703 185.99432 
L 286.687822 188.965631 
L 287.64494 187.318881 
L 288.602058 190.648181 
L 289.559177 190.075398 
L 290.516295 199.70531 
L 291.473413 195.337841 
L 292.430532 189.180425 
L 293.38765 189.252023 
L 295.301887 185.027749 
L 296.259005 195.516835 
L 297.216123 196.877195 
L 298.173242 196.197015 
L 299.13036 187.497875 
L 300.087479 194.37127 
L 301.044597 196.411809 
L 302.001715 194.944052 
L 302.958834 195.481036 
L 303.915952 196.626602 
L 304.87307 198.881935 
L 305.830189 198.774538 
L 306.787307 199.378645 
L 351.77187 199.378645 
L 352.728988 200.937348 
L 353.686106 201.381394 
L 354.643225 201.977681 
L 355.600343 201.977681 
L 356.557461 201.295521 
L 357.51458 201.892065 
L 361.343053 201.892065 
L 362.300172 191.219129 
L 363.25729 187.536671 
L 364.214408 188.174492 
L 366.128645 188.174492 
L 367.085763 189.160657 
L 368.042882 187.441207 
L 369 182.346541 
L 369.957118 187.791466 
L 370.914237 183.938624 
L 371.871355 183.938624 
L 372.828473 182.824166 
L 373.785592 187.441207 
L 374.74271 187.345682 
L 375.699828 188.555665 
L 376.656947 189.190429 
L 393.885077 189.190429 
L 394.842196 190.137982 
L 395.799314 190.767998 
L 412.070326 190.767998 
L 413.027444 190.164173 
L 413.984563 190.794111 
L 417.813036 190.794111 
L 418.770154 195.028969 
L 419.727273 194.555348 
L 420.684391 182.896972 
L 421.641509 185.847999 
L 422.598628 186.685944 
L 423.555746 185.41081 
L 424.512864 186.055008 
L 434.084048 186.055008 
L 435.041166 185.884885 
L 435.998285 187.509662 
L 436.955403 192.278029 
L 437.912521 194.821158 
L 438.86964 200.154665 
L 439.826758 195.280334 
L 440.783877 193.090417 
L 441.740995 193.711577 
L 482.897084 193.711577 
L 484.811321 197.438011 
L 485.768439 195.354816 
L 486.725557 197.120236 
L 487.682676 197.729306 
L 488.639794 197.729306 
L 489.596913 197.253312 
L 490.554031 197.861982 
L 495.339623 197.861982 
L 496.296741 198.468827 
L 497.253859 200.702451 
L 498.210978 201.170792 
L 499.168096 201.170792 
L 500.125214 201.963369 
L 501.082333 203.368391 
L 502.039451 200.666425 
L 502.996569 201.350923 
L 503.953688 203.080181 
L 504.910806 203.671371 
L 505.867925 203.671371 
L 506.825043 209.204805 
L 507.782161 209.777621 
L 512.567753 209.777621 
L 513.524871 211.223013 
L 514.48199 214.392331 
L 515.439108 218.399515 
L 516.396226 217.598078 
L 517.353345 217.306647 
L 518.310463 220.913112 
L 519.267581 220.548823 
L 520.2247 221.933122 
L 521.181818 220.184533 
L 522.138937 220.72441 
L 536.495712 220.72441 
L 537.45283 222.700794 
L 538.409949 224.102046 
L 539.367067 221.410168 
L 540.324185 221.299542 
L 541.281304 221.836074 
L 548.93825 221.836074 
L 549.895369 224.425713 
L 550.852487 224.662796 
L 551.809605 225.189238 
L 552.766724 225.189238 
L 553.723842 233.166957 
L 554.680961 232.759697 
L 555.638079 230.479042 
L 556.595197 235.325435 
L 557.552316 234.836723 
L 558.509434 231.578644 
L 559.466552 230.112508 
L 560.423671 231.00848 
L 561.380789 231.293562 
L 562.337907 232.189534 
L 563.295026 233.981477 
L 564.252144 236.38431 
L 565.209262 241.352881 
L 566.166381 244.529508 
L 567.123499 244.325878 
L 568.080617 246.24 
L 569.037736 244.936768 
L 569.994854 245.751288 
L 570.951973 243.592811 
L 571.909091 244.936768 
L 572.866209 240.090376 
L 573.823328 242.330305 
L 574.780446 238.01335 
L 575.737564 237.850446 
L 576.694683 239.520212 
L 577.651801 240.904895 
L 578.608919 241.382611 
L 589.137221 241.382611 
L 590.09434 240.476873 
L 591.051458 243.111351 
L 592.008576 243.456856 
L 592.965695 242.852222 
L 593.922813 243.111351 
L 594.879931 244.622936 
L 595.83705 245.089498 
L 596.794168 245.089498 
L 597.751286 239.089306 
L 598.708405 242.165923 
L 599.665523 242.639855 
L 600.622642 242.639855 
L 601.57976 243.069131 
L 602.536878 245.576787 
L 603.493997 244.88502 
L 604.451115 245.706493 
L 605.408233 244.928255 
L 606.365352 245.393901 
L 622.636364 245.393901 
L 622.636364 245.393901 
" clip-path="url(#pb3762c79fc)" style="fill: none; stroke: #ff7f0e; stroke-width: 1.5; stroke-linecap: square"/>
   </g>
   <g id="line2d_35">
    <path d="M 115.363636 123.886813 
L 119.19211 123.886813 
L 120.149228 125.090251 
L 121.106346 127.666094 
L 122.063465 128.483527 
L 125.891938 128.483527 
L 126.849057 105.859109 
L 127.806175 106.741962 
L 128.763293 109.301498 
L 129.720412 110.174024 
L 136.42024 110.174024 
L 137.377358 110.405418 
L 138.334477 108.096944 
L 139.291595 108.973084 
L 143.120069 108.973084 
L 144.077187 114.30965 
L 145.034305 110.292901 
L 145.991424 113.962523 
L 146.948542 113.962523 
L 147.90566 98.639369 
L 148.862779 99.543881 
L 151.734134 99.543881 
L 152.691252 100.397458 
L 153.64837 104.062307 
L 154.605489 103.676534 
L 155.562607 96.395058 
L 156.519726 97.306303 
L 157.476844 93.382041 
L 158.433962 94.302326 
L 159.391081 94.302326 
L 160.348199 97.518505 
L 161.305317 97.565416 
L 162.262436 95.126027 
L 163.219554 96.041079 
L 164.176672 95.164376 
L 165.133791 96.079314 
L 169.919383 96.079314 
L 170.876501 90.365233 
L 171.833619 91.294568 
L 172.790738 87.387449 
L 173.747856 88.325717 
L 185.233276 88.325717 
L 186.190395 87.332068 
L 187.147513 88.270502 
L 193.847341 88.270502 
L 194.80446 91.657204 
L 195.761578 82.503159 
L 196.718696 86.80506 
L 197.675815 92.157425 
L 198.632933 93.081384 
L 209.161235 93.081384 
L 210.118353 101.241522 
L 211.075472 107.967074 
L 212.03259 108.843603 
L 217.7753 108.843603 
L 218.732419 96.428554 
L 219.689537 100.119928 
L 220.646655 101.596478 
L 221.603774 102.492119 
L 222.560892 102.701298 
L 223.51801 103.897905 
L 224.475129 102.131486 
L 225.432247 104.068849 
L 226.389365 99.738273 
L 227.346484 104.980549 
L 228.303602 105.866038 
L 229.26072 96.230096 
L 230.217839 80.565038 
L 231.174957 81.523774 
L 232.132075 81.523774 
L 233.089194 79.151781 
L 234.046312 80.786516 
L 235.003431 81.744587 
L 238.831904 81.744587 
L 239.789022 83.110145 
L 240.746141 77.775448 
L 241.703259 76.427119 
L 242.660377 77.398268 
L 245.531732 77.398268 
L 246.488851 71.478138 
L 247.445969 72.464134 
L 248.403087 76.82488 
L 249.360206 77.794836 
L 255.102916 77.794836 
L 256.060034 82.922162 
L 257.017153 71.481392 
L 257.974271 72.467379 
L 258.931389 72.467379 
L 259.888508 72.760453 
L 260.845626 73.742602 
L 273.288165 73.742602 
L 274.245283 70.349967 
L 275.202401 71.339347 
L 282.859348 71.339347 
L 283.816467 78.640238 
L 284.773585 81.797478 
L 285.730703 80.031564 
L 286.687822 84.473104 
L 287.64494 82.011528 
L 288.602058 82.965924 
L 298.173242 82.965924 
L 299.13036 70.429141 
L 300.087479 71.418284 
L 302.958834 71.418284 
L 303.915952 74.238927 
L 304.87307 77.850535 
L 305.830189 78.817414 
L 306.787307 78.817414 
L 307.744425 82.228208 
L 308.701544 83.181954 
L 309.658662 83.181954 
L 310.61578 81.470145 
L 311.572899 78.354228 
L 312.530017 79.319596 
L 313.487136 79.319596 
L 314.444254 86.425447 
L 315.401372 87.366601 
L 317.315609 87.440954 
L 318.272727 88.379062 
L 322.101201 88.379062 
L 323.058319 90.563349 
L 324.015437 91.492089 
L 327.843911 91.492089 
L 328.801029 91.85341 
L 329.758148 90.385362 
L 330.715266 91.314636 
L 331.672384 89.511886 
L 332.629503 93.522193 
L 333.586621 94.442057 
L 334.543739 90.631666 
L 335.500858 91.560202 
L 337.415094 91.560202 
L 338.372213 99.025961 
L 339.329331 99.929314 
L 347.943396 99.929314 
L 348.900515 103.164291 
L 349.857633 101.089327 
L 350.814751 101.98649 
L 355.600343 101.98649 
L 356.557461 100.960123 
L 357.51458 96.806962 
L 358.471698 97.716971 
L 359.428816 97.716971 
L 360.385935 87.82521 
L 361.343053 84.711068 
L 362.300172 66.72941 
L 363.25729 60.852722 
L 364.214408 69.341271 
L 365.171527 70.333677 
L 372.828473 70.333677 
L 373.785592 78.309035 
L 374.74271 78.164499 
L 375.699828 79.995293 
L 376.656947 78.983538 
L 377.614065 79.079896 
L 378.571184 80.043087 
L 381.442539 80.043087 
L 382.399657 85.628607 
L 383.356775 96.45162 
L 384.313894 97.362696 
L 391.97084 97.362696 
L 392.927959 101.205219 
L 393.885077 102.102034 
L 411.113208 102.102034 
L 412.070326 112.063592 
L 413.027444 112.927832 
L 422.598628 112.927832 
L 423.555746 112.078881 
L 424.512864 112.943075 
L 425.469983 112.880061 
L 426.427101 113.741851 
L 437.912521 113.741851 
L 438.86964 122.018382 
L 439.826758 122.852757 
L 441.740995 122.852757 
L 442.698113 124.109297 
L 443.655232 127.506641 
L 444.61235 117.031497 
L 445.569468 117.880833 
L 447.483705 117.880833 
L 448.440823 114.318772 
L 449.397942 115.176246 
L 451.312178 115.176246 
L 452.269297 114.920249 
L 453.226415 115.775919 
L 455.140652 115.775919 
L 456.09777 116.493369 
L 457.054889 117.80468 
L 458.012007 118.651696 
L 466.626072 118.651696 
L 467.58319 123.645032 
L 468.540309 124.474528 
L 483.854202 124.474528 
L 484.811321 127.768613 
L 485.768439 124.969428 
L 486.725557 125.79495 
L 487.682676 129.947872 
L 488.639794 130.758459 
L 490.554031 130.758459 
L 491.511149 136.425431 
L 492.468268 139.618368 
L 493.425386 139.618368 
L 494.382504 140.399943 
L 499.168096 140.399943 
L 500.125214 142.210718 
L 501.082333 142.984516 
L 502.039451 140.235476 
L 502.996569 141.12734 
L 503.953688 143.380471 
L 504.910806 148.168374 
L 505.867925 148.9243 
L 508.73928 148.9243 
L 509.696398 145.880812 
L 510.653516 143.787514 
L 511.610635 144.556582 
L 518.310463 144.556582 
L 519.267581 144.805416 
L 520.2247 146.773539 
L 521.181818 144.287488 
L 522.138937 143.251634 
L 523.096055 143.769561 
L 524.053173 144.538683 
L 536.495712 144.538683 
L 537.45283 147.354288 
L 538.409949 148.112656 
L 539.367067 148.112656 
L 540.324185 148.713224 
L 541.281304 151.046083 
L 542.238422 157.681769 
L 543.19554 158.409154 
L 547.024014 158.409154 
L 547.981132 164.850796 
L 548.93825 165.556674 
L 557.552316 165.566934 
L 558.509434 160.943597 
L 559.466552 161.661197 
L 560.423671 163.629547 
L 561.380789 164.339089 
L 564.252144 164.339089 
L 565.209262 172.179513 
L 566.166381 172.863405 
L 568.080617 172.863405 
L 569.037736 171.626445 
L 569.994854 172.825695 
L 570.951973 169.647683 
L 571.909091 170.33917 
L 574.780446 170.33917 
L 575.737564 170.798375 
L 576.694683 173.158011 
L 577.651801 175.114783 
L 578.608919 175.805408 
L 579.566038 175.402543 
L 580.523156 176.076766 
L 583.394511 176.076766 
L 584.35163 173.460474 
L 585.308748 174.140523 
L 586.265866 174.140523 
L 587.222985 187.593499 
L 588.180103 189.154242 
L 589.137221 188.287162 
L 590.09434 188.922731 
L 593.922813 188.922731 
L 595.83705 193.958105 
L 596.794168 194.576661 
L 599.665523 194.576661 
L 600.622642 193.887223 
L 601.57976 193.830435 
L 602.536878 197.124175 
L 603.493997 196.215557 
L 604.451115 196.827341 
L 606.365352 196.827341 
L 607.32247 199.422937 
L 608.279588 200.841256 
L 609.236707 203.677895 
L 610.193825 204.267292 
L 616.893654 204.267292 
L 617.850772 206.285024 
L 618.80789 205.914257 
L 619.765009 208.403696 
L 620.722127 209.9927 
L 621.679245 210.563153 
L 622.636364 210.563153 
L 622.636364 210.563153 
" clip-path="url(#pb3762c79fc)" style="fill: none; stroke: #2ca02c; stroke-width: 1.5; stroke-linecap: square"/>
   </g>
   <g id="line2d_36">
    <path d="M 115.363636 123.886813 
L 123.020583 123.886813 
L 123.977702 112.662585 
L 124.93482 116.147789 
L 125.891938 116.002573 
L 126.849057 91.412522 
L 127.806175 88.169346 
L 128.763293 89.960353 
L 129.720412 92.767879 
L 130.67753 91.751361 
L 131.634648 92.676537 
L 135.463122 92.676537 
L 136.42024 94.998685 
L 137.377358 95.91412 
L 184.276158 95.91412 
L 185.233276 90.521052 
L 186.190395 88.599767 
L 187.147513 92.836447 
L 188.104631 93.758368 
L 190.018868 93.758368 
L 190.975986 99.080982 
L 191.933105 99.894664 
L 192.890223 98.027981 
L 193.847341 102.622894 
L 194.80446 104.968214 
L 195.761578 96.209161 
L 196.718696 97.120964 
L 199.590051 97.120964 
L 200.54717 95.92541 
L 201.504288 103.492027 
L 202.461407 99.332893 
L 203.418525 100.235325 
L 215.861063 100.235325 
L 216.818182 114.760605 
L 217.7753 103.628236 
L 218.732419 90.060662 
L 219.689537 90.990911 
L 226.389365 90.990911 
L 227.346484 97.297108 
L 228.303602 98.205647 
L 229.26072 88.31887 
L 230.217839 72.246032 
L 231.174957 72.884304 
L 232.132075 84.431216 
L 233.089194 81.123809 
L 234.046312 82.7485 
L 235.003431 84.025043 
L 235.960549 90.291709 
L 236.917667 85.649734 
L 237.874786 86.593215 
L 244.574614 86.593215 
L 245.531732 70.834386 
L 246.488851 63.784778 
L 247.445969 59.219869 
L 248.403087 62.744672 
L 249.360206 61.704566 
L 250.317324 62.719883 
L 314.444254 62.719883 
L 316.358491 63.670005 
L 317.315609 64.679426 
L 318.272727 71.168731 
L 319.229846 72.155656 
L 320.186964 72.155656 
L 321.144082 76.34787 
L 322.101201 74.862568 
L 323.058319 76.169633 
L 324.015437 74.862568 
L 324.972556 75.838411 
L 341.243568 75.838411 
L 342.200686 75.348837 
L 343.157804 66.512959 
L 344.114923 59.99269 
L 345.072041 61.013143 
L 385.271012 61.013143 
L 386.22813 56.810582 
L 387.185249 62.407232 
L 388.142367 71.932299 
L 389.099485 72.916932 
L 399.627787 72.916932 
L 400.584906 68.842185 
L 401.542024 69.836089 
L 489.596913 69.836089 
L 490.554031 59.984592 
L 491.511149 66.138397 
L 492.468268 70.182327 
L 493.425386 71.17221 
L 506.825043 71.17221 
L 507.782161 59.650687 
L 508.73928 61.428202 
L 509.696398 56.293159 
L 510.653516 53.462302 
L 511.610635 54.502346 
L 557.552316 54.517463 
L 558.509434 47.70542 
L 559.466552 44.64 
L 560.423671 46.513312 
L 561.380789 47.574203 
L 585.308748 47.574203 
L 586.265866 52.113991 
L 587.222985 71.845783 
L 588.180103 74.256455 
L 589.137221 72.917193 
L 590.09434 70.060101 
L 591.051458 75.506432 
L 592.008576 76.220705 
L 592.965695 77.192474 
L 598.708405 77.192474 
L 599.665523 72.163352 
L 600.622642 73.147293 
L 611.150943 73.147293 
L 612.108062 74.869646 
L 613.06518 75.981694 
L 614.022298 72.089528 
L 614.979417 73.07369 
L 615.936535 75.123167 
L 616.893654 71.918365 
L 617.850772 74.321966 
L 618.80789 73.69881 
L 619.765009 74.678144 
L 622.636364 74.678144 
L 622.636364 74.678144 
" clip-path="url(#pb3762c79fc)" style="fill: none; stroke: #d62728; stroke-width: 1.5; stroke-linecap: square"/>
   </g>
   <g id="line2d_37">
    <path d="M 115.363636 124.154439 
L 116.320755 127.75511 
L 117.277873 129.859398 
L 118.234991 126.866633 
L 119.19211 125.13644 
L 120.149228 125.510536 
L 121.106346 128.082444 
L 122.063465 132.898925 
L 123.020583 134.067974 
L 123.977702 122.424247 
L 124.93482 125.791108 
L 125.891938 125.650822 
L 126.849057 101.895747 
L 127.806175 98.762696 
L 128.763293 100.492888 
L 129.720412 103.205082 
L 130.67753 102.223081 
L 131.634648 102.690701 
L 132.591767 114.100618 
L 133.548885 123.499772 
L 134.506003 124.949392 
L 135.463122 123.640058 
L 136.42024 124.902631 
L 137.377358 124.294725 
L 138.334477 122.096913 
L 139.291595 124.902631 
L 140.248714 131.496067 
L 141.205832 134.90969 
L 142.16295 129.812636 
L 143.120069 126.399013 
L 144.077187 130.607589 
L 145.034305 126.819871 
L 145.991424 130.280256 
L 146.948542 130.280256 
L 147.90566 115.830811 
L 148.862779 107.507182 
L 149.819897 108.956803 
L 150.777015 108.395659 
L 151.734134 109.517946 
L 152.691252 109.471184 
L 153.64837 113.025093 
L 154.605489 112.650998 
L 155.562607 105.589942 
L 156.519726 105.07556 
L 157.476844 100.352603 
L 158.433962 99.136792 
L 159.391081 96.190788 
L 160.348199 98.482124 
L 161.305317 98.528886 
L 162.262436 96.097264 
L 163.219554 98.996506 
L 164.176672 97.219551 
L 165.133791 98.3886 
L 166.090909 93.478595 
L 167.048027 93.478595 
L 168.005146 82.629821 
L 168.962264 86.370777 
L 169.919383 92.075736 
L 171.833619 78.421244 
L 172.790738 73.370953 
L 173.747856 73.978858 
L 174.704974 73.932096 
L 175.662093 73.698287 
L 176.619211 77.953625 
L 177.576329 85.342014 
L 178.533448 82.583059 
L 179.490566 80.525532 
L 180.447684 89.176495 
L 181.404803 88.521827 
L 182.361921 101.147556 
L 183.319039 125.323488 
L 184.276158 112.23014 
L 185.233276 106.244609 
L 186.190395 104.420893 
L 187.147513 108.442421 
L 188.104631 109.751756 
L 189.06175 101.24108 
L 190.018868 101.708699 
L 190.975986 106.0108 
L 191.933105 106.805753 
L 192.890223 104.982036 
L 193.847341 109.471184 
L 194.80446 111.76252 
L 195.761578 103.205082 
L 196.718696 107.22661 
L 197.675815 112.23014 
L 198.632933 118.402718 
L 199.590051 118.215671 
L 200.54717 116.251668 
L 201.504288 123.312724 
L 202.461407 119.431481 
L 203.418525 119.618529 
L 204.375643 120.413483 
L 205.332762 105.589942 
L 206.28988 112.650998 
L 207.246998 123.172438 
L 208.204117 115.971097 
L 209.161235 121.30196 
L 211.075472 134.021212 
L 212.03259 145.758464 
L 212.989708 152.538948 
L 213.946827 154.923808 
L 214.903945 164.930867 
L 215.861063 158.992098 
L 216.818182 169.981158 
L 217.7753 161.002862 
L 218.732419 150.060564 
L 219.689537 153.100091 
L 220.646655 154.315902 
L 221.603774 156.607238 
L 222.560892 156.046095 
L 223.51801 157.028096 
L 224.475129 155.578475 
L 225.432247 157.168382 
L 226.389365 153.614473 
L 227.346484 157.916573 
L 228.303602 157.542477 
L 229.26072 148.844753 
L 230.217839 135.891691 
L 231.174957 136.406072 
L 232.132075 145.711702 
L 233.089194 143.04627 
L 234.046312 144.355605 
L 235.003431 145.384368 
L 235.960549 150.43466 
L 236.917667 146.693703 
L 237.874786 143.560652 
L 238.831904 146.927513 
L 239.789022 147.254846 
L 240.746141 142.999508 
L 241.703259 141.923983 
L 242.660377 144.028271 
L 243.617496 145.477892 
L 244.574614 147.161323 
L 245.531732 133.647117 
L 246.488851 127.942158 
L 247.445969 124.247963 
L 248.403087 127.100443 
L 249.360206 126.258727 
L 250.317324 129.251493 
L 251.274443 128.970921 
L 252.231561 128.830635 
L 253.188679 131.8234 
L 254.145798 133.553593 
L 255.102916 140.053505 
L 256.060034 143.420366 
L 257.017153 134.161498 
L 257.974271 137.154263 
L 258.931389 134.44207 
L 259.888508 133.880926 
L 260.845626 129.064445 
L 261.802744 128.503301 
L 262.759863 128.830635 
L 263.716981 121.208436 
L 264.674099 118.776814 
L 265.631218 108.395659 
L 266.588336 110.593471 
L 267.545455 113.352427 
L 268.502573 119.123544 
L 269.459691 119.123544 
L 270.41681 126.897858 
L 271.373928 124.274623 
L 272.331046 124.608489 
L 273.288165 123.225329 
L 274.245283 119.505106 
L 275.202401 127.040943 
L 276.15952 131.953546 
L 277.116638 127.231724 
L 278.073756 130.856557 
L 279.030875 130.33191 
L 280.945111 122.509902 
L 281.90223 121.412913 
L 282.859348 107.962873 
L 283.816467 113.590904 
L 284.773585 116.404919 
L 285.730703 114.830979 
L 286.687822 118.789678 
L 287.64494 116.5957 
L 288.602058 121.031351 
L 289.559177 120.268229 
L 290.516295 133.098231 
L 291.473413 127.279419 
L 292.430532 119.075849 
L 293.38765 119.17124 
L 295.301887 113.543209 
L 296.259005 127.517895 
L 297.216123 129.330312 
L 298.173242 128.424103 
L 299.13036 116.834176 
L 300.087479 125.99165 
L 301.044597 128.710275 
L 302.001715 126.754772 
L 302.958834 127.4702 
L 303.915952 128.996446 
L 304.87307 132.001242 
L 306.787307 131.61968 
L 307.744425 133.670573 
L 308.701544 134.29061 
L 309.658662 134.099829 
L 310.61578 131.858156 
L 311.572899 129.234921 
L 313.487136 136.913845 
L 314.444254 141.969533 
L 315.401372 141.540277 
L 316.358491 141.921838 
L 317.315609 141.20641 
L 318.272727 145.451281 
L 319.229846 147.645259 
L 320.186964 137.629272 
L 321.144082 140.204812 
L 322.101201 139.012432 
L 323.058319 140.061726 
L 324.015437 139.012432 
L 324.972556 138.630871 
L 325.929674 137.772358 
L 326.886792 135.530685 
L 327.843911 140.204812 
L 328.801029 139.72786 
L 329.758148 138.487785 
L 330.715266 136.484588 
L 331.672384 134.147524 
L 332.629503 137.581577 
L 333.586621 138.773956 
L 335.500858 130.427301 
L 336.457976 135.435294 
L 337.415094 135.387599 
L 338.372213 141.01563 
L 339.329331 142.064923 
L 340.286449 147.263698 
L 341.243568 147.072917 
L 342.200686 145.928233 
L 343.157804 139.012432 
L 344.114923 133.909049 
L 345.072041 133.479792 
L 346.02916 125.419307 
L 346.986278 123.797672 
L 347.943396 124.942356 
L 348.900515 127.088639 
L 350.814751 123.5115 
L 351.77187 120.64979 
L 352.728988 121.985255 
L 353.686106 122.605292 
L 354.643225 127.184029 
L 355.600343 127.040943 
L 356.557461 125.276222 
L 357.51458 121.460608 
L 358.471698 113.066257 
L 359.428816 113.82938 
L 360.385935 103.574917 
L 361.343053 100.617816 
L 362.300172 83.542944 
L 363.25729 77.962608 
L 364.214408 86.023093 
L 365.171527 86.261569 
L 366.128645 78.805481 
L 367.085763 79.338058 
L 368.042882 76.723586 
L 369 68.977001 
L 369.957118 77.256164 
L 370.914237 71.397809 
L 371.871355 71.397809 
L 372.828473 69.703243 
L 373.785592 76.723586 
L 374.74271 76.578337 
L 375.699828 78.418151 
L 376.656947 77.401412 
L 377.614065 77.498244 
L 378.571184 74.78694 
L 379.528302 63.505975 
L 380.48542 68.492839 
L 381.442539 66.072031 
L 382.399657 70.913647 
L 383.356775 82.243028 
L 384.313894 97.009956 
L 385.271012 95.9448 
L 386.22813 91.248433 
L 387.185249 96.283713 
L 388.142367 104.853373 
L 389.099485 104.659709 
L 390.056604 101.851571 
L 391.013722 103.013559 
L 392.927959 109.113995 
L 393.885077 108.92033 
L 394.842196 109.356076 
L 395.799314 113.471449 
L 396.756432 106.741603 
L 397.713551 105.434367 
L 398.670669 103.497721 
L 399.627787 100.253838 
L 400.584906 95.605887 
L 401.542024 84.179674 
L 402.499142 89.941197 
L 403.456261 86.890979 
L 404.413379 86.890979 
L 405.370497 97.784614 
L 407.284734 85.825823 
L 408.241852 94.540732 
L 409.198971 93.185079 
L 410.156089 91.442098 
L 411.113208 95.509055 
L 412.070326 104.804957 
L 413.027444 103.061975 
L 413.984563 108.533001 
L 414.941681 109.54974 
L 415.898799 114.488188 
L 416.855918 112.503126 
L 417.813036 122.767351 
L 418.770154 127.560551 
L 419.727273 126.931141 
L 420.684391 111.437971 
L 421.641509 115.359679 
L 422.598628 116.473251 
L 423.555746 114.778685 
L 424.512864 115.262847 
L 425.469983 114.34294 
L 426.427101 107.274181 
L 427.38422 107.371013 
L 428.341338 104.659709 
L 429.298456 117.005829 
L 430.255575 123.929339 
L 431.212693 122.815767 
L 432.169811 110.372815 
L 433.12693 114.488188 
L 434.084048 107.564678 
L 435.041166 106.451106 
L 435.998285 108.67825 
L 436.955403 115.214431 
L 437.912521 118.700394 
L 438.86964 126.011234 
L 439.826758 119.329804 
L 440.783877 116.328002 
L 441.740995 116.473251 
L 442.698113 116.908996 
L 443.655232 120.39496 
L 445.569468 98.995018 
L 446.526587 97.542533 
L 447.483705 109.646573 
L 448.440823 105.095454 
L 449.397942 102.819895 
L 450.35506 103.110392 
L 451.312178 102.965143 
L 452.269297 101.803155 
L 453.226415 97.687782 
L 454.183533 99.47918 
L 455.140652 96.57421 
L 456.09777 96.428962 
L 457.054889 97.83303 
L 458.012007 103.207224 
L 458.969125 101.512658 
L 459.926244 100.689584 
L 460.883362 101.657907 
L 461.84048 108.67825 
L 462.797599 113.665114 
L 463.754717 110.033902 
L 464.711835 107.080516 
L 465.668954 105.385951 
L 466.626072 105.385951 
L 467.58319 109.743405 
L 468.540309 111.486387 
L 469.497427 113.955611 
L 470.454545 110.56648 
L 471.411664 116.908996 
L 472.368782 119.426637 
L 473.325901 119.039307 
L 474.283019 112.018964 
L 475.240137 110.082318 
L 476.197256 109.840237 
L 477.154374 111.776884 
L 478.111492 110.421231 
L 479.068611 110.130734 
L 480.025729 114.100859 
L 480.982847 122.331606 
L 481.939966 120.588624 
L 482.897084 117.925736 
L 483.854202 119.668717 
L 484.811321 122.186357 
L 485.768439 119.329804 
L 486.725557 121.750612 
L 487.682676 125.139743 
L 488.639794 129.545613 
L 489.596913 128.093129 
L 490.554031 119.13614 
L 491.511149 124.219836 
L 492.468268 127.560551 
L 493.425386 127.560551 
L 494.382504 128.770955 
L 495.339623 129.109868 
L 496.296741 129.109868 
L 497.253859 132.11167 
L 498.210978 132.74108 
L 499.168096 132.74108 
L 500.125214 133.806235 
L 501.082333 135.694465 
L 502.039451 132.063254 
L 502.996569 132.98316 
L 503.953688 135.307136 
L 504.910806 140.245584 
L 505.867925 152.688536 
L 506.825043 158.934221 
L 507.782161 149.735151 
L 508.73928 151.042387 
L 509.696398 147.265927 
L 510.653516 145.184032 
L 511.610635 152.398039 
L 512.567753 147.895337 
L 513.524871 149.057325 
L 514.48199 153.26953 
L 515.439108 158.595308 
L 516.396226 157.530152 
L 517.353345 157.142823 
L 518.310463 161.936022 
L 519.267581 161.451861 
L 520.2247 163.291675 
L 521.181818 160.967699 
L 522.138937 159.999376 
L 523.096055 160.483538 
L 524.053173 158.111146 
L 525.010292 150.897139 
L 525.96741 152.252791 
L 526.924528 158.304811 
L 527.881647 158.304811 
L 528.838765 162.807513 
L 529.795883 169.537359 
L 530.753002 173.749565 
L 531.71012 170.166769 
L 532.667238 169.876272 
L 533.624357 170.166769 
L 534.581475 166.535557 
L 535.538593 161.887606 
L 536.495712 165.276737 
L 538.409949 169.004781 
L 539.367067 165.470402 
L 540.324185 165.325153 
L 541.281304 167.50388 
L 542.238422 173.701149 
L 543.19554 174.911552 
L 544.152659 167.794377 
L 545.109777 172.006583 
L 546.066895 169.488943 
L 547.024014 171.522421 
L 547.981132 176.945031 
L 548.93825 168.340657 
L 549.895369 171.019863 
L 550.852487 171.329002 
L 551.809605 177.872448 
L 552.766724 179.469667 
L 553.723842 188.898412 
L 554.680961 188.38318 
L 555.638079 185.497881 
L 556.595197 191.629141 
L 557.552316 191.010863 
L 558.509434 186.889007 
L 559.466552 185.034172 
L 560.423671 186.167683 
L 561.380789 186.528345 
L 562.337907 187.661855 
L 563.295026 189.928876 
L 564.252144 192.968744 
L 565.209262 199.254574 
L 566.166381 203.273384 
L 567.123499 203.015768 
L 568.080617 205.437358 
L 569.037736 203.788616 
L 569.994854 204.81908 
L 570.951973 202.08835 
L 571.909091 203.788616 
L 572.866209 197.657355 
L 573.823328 200.491131 
L 574.780446 195.029672 
L 575.737564 194.82358 
L 576.694683 196.936031 
L 577.651801 198.687819 
L 578.608919 199.306098 
L 579.566038 198.945435 
L 580.523156 202.500536 
L 581.480274 198.945435 
L 582.437393 201.367025 
L 583.394511 193.638546 
L 584.35163 190.598677 
L 585.308748 197.296693 
L 586.265866 199.306098 
L 587.222985 210.692724 
L 588.180103 212.08385 
L 589.137221 211.311002 
L 590.09434 209.66226 
L 591.051458 212.805175 
L 592.008576 213.21736 
L 592.965695 212.496036 
L 593.922813 212.805175 
L 594.879931 214.608487 
L 595.83705 216.720938 
L 596.794168 221.512595 
L 597.751286 214.041732 
L 598.708405 217.596832 
L 599.665523 214.196301 
L 600.622642 213.011268 
L 601.57976 212.959744 
L 602.536878 215.94809 
L 603.493997 215.123719 
L 604.451115 216.102659 
L 605.408233 215.175242 
L 606.365352 216.051136 
L 607.32247 217.854448 
L 608.279588 219.142528 
L 609.236707 221.718688 
L 610.193825 222.07935 
L 611.150943 218.884912 
L 612.108062 219.297098 
L 613.06518 219.915376 
L 614.022298 217.751402 
L 614.979417 211.414049 
L 615.936535 212.032327 
L 616.893654 210.177492 
L 617.850772 211.568618 
L 618.80789 211.207956 
L 619.765009 213.629546 
L 620.722127 215.175242 
L 621.679245 214.453917 
L 622.636364 217.23617 
L 622.636364 217.23617 
" clip-path="url(#pb3762c79fc)" style="fill: none; stroke: #9467bd; stroke-width: 1.5; stroke-linecap: square"/>
   </g>
   <g id="patch_3">
    <path d="M 90 256.32 
L 90 34.56 
" style="fill: none; stroke: #000000; stroke-width: 0.8; stroke-linejoin: miter; stroke-linecap: square"/>
   </g>
   <g id="patch_4">
    <path d="M 648 256.32 
L 648 34.56 
" style="fill: none; stroke: #000000; stroke-width: 0.8; stroke-linejoin: miter; stroke-linecap: square"/>
   </g>
   <g id="patch_5">
    <path d="M 90 256.32 
L 648 256.32 
" style="fill: none; stroke: #000000; stroke-width: 0.8; stroke-linejoin: miter; stroke-linecap: square"/>
   </g>
   <g id="patch_6">
    <path d="M 90 34.56 
L 648 34.56 
" style="fill: none; stroke: #000000; stroke-width: 0.8; stroke-linejoin: miter; stroke-linecap: square"/>
   </g>
   <g id="legend_1">
    <g id="patch_7">
     <path d="M 97 251.32 
L 167.325 251.32 
Q 169.325 251.32 169.325 249.32 
L 169.325 179.624687 
Q 169.325 177.624687 167.325 177.624687 
L 97 177.624687 
Q 95 177.624687 95 179.624687 
L 95 249.32 
Q 95 251.32 97 251.32 
z
" style="fill: #ffffff; opacity: 0.8; stroke: #cccccc; stroke-linejoin: miter"/>
    </g>
    <g id="line2d_38">
     <path d="M 99 185.124687 
L 109 185.124687 
L 119 185.124687 
" style="fill: none; stroke: #1f77b4; stroke-width: 1.5; stroke-linecap: square"/>
    </g>
    <g id="text_19">
     <!-- BC -->
     <g transform="translate(127 188.624687)scale(0.1 -0.1)">
      <defs>
       <path id="TimesNewRomanPSMT-42" d="M 2956 2163 
Q 3397 2069 3616 1863 
Q 3919 1575 3919 1159 
Q 3919 844 3719 555 
Q 3519 266 3170 133 
Q 2822 0 2106 0 
L 106 0 
L 106 116 
L 266 116 
Q 531 116 647 284 
Q 719 394 719 750 
L 719 3488 
Q 719 3881 628 3984 
Q 506 4122 266 4122 
L 106 4122 
L 106 4238 
L 1938 4238 
Q 2450 4238 2759 4163 
Q 3228 4050 3475 3764 
Q 3722 3478 3722 3106 
Q 3722 2788 3528 2536 
Q 3334 2284 2956 2163 
z
M 1319 2331 
Q 1434 2309 1582 2298 
Q 1731 2288 1909 2288 
Q 2366 2288 2595 2386 
Q 2825 2484 2947 2687 
Q 3069 2891 3069 3131 
Q 3069 3503 2766 3765 
Q 2463 4028 1881 4028 
Q 1569 4028 1319 3959 
L 1319 2331 
z
M 1319 306 
Q 1681 222 2034 222 
Q 2600 222 2897 476 
Q 3194 731 3194 1106 
Q 3194 1353 3059 1581 
Q 2925 1809 2622 1940 
Q 2319 2072 1872 2072 
Q 1678 2072 1540 2065 
Q 1403 2059 1319 2044 
L 1319 306 
z
" transform="scale(0.015625)"/>
       <path id="TimesNewRomanPSMT-43" d="M 3853 4334 
L 3950 2894 
L 3853 2894 
Q 3659 3541 3300 3825 
Q 2941 4109 2438 4109 
Q 2016 4109 1675 3895 
Q 1334 3681 1139 3212 
Q 944 2744 944 2047 
Q 944 1472 1128 1050 
Q 1313 628 1683 403 
Q 2053 178 2528 178 
Q 2941 178 3256 354 
Q 3572 531 3950 1056 
L 4047 994 
Q 3728 428 3303 165 
Q 2878 -97 2294 -97 
Q 1241 -97 663 684 
Q 231 1266 231 2053 
Q 231 2688 515 3219 
Q 800 3750 1298 4042 
Q 1797 4334 2388 4334 
Q 2847 4334 3294 4109 
Q 3425 4041 3481 4041 
Q 3566 4041 3628 4100 
Q 3709 4184 3744 4334 
L 3853 4334 
z
" transform="scale(0.015625)"/>
      </defs>
      <use xlink:href="#TimesNewRomanPSMT-42"/>
      <use xlink:href="#TimesNewRomanPSMT-43" x="66.699219"/>
     </g>
    </g>
    <g id="line2d_39">
     <path d="M 99 199.26375 
L 109 199.26375 
L 119 199.26375 
" style="fill: none; stroke: #ff7f0e; stroke-width: 1.5; stroke-linecap: square"/>
    </g>
    <g id="text_20">
     <!-- DQN -->
     <g transform="translate(127 202.76375)scale(0.1 -0.1)">
      <defs>
       <path id="TimesNewRomanPSMT-44" d="M 109 0 
L 109 116 
L 269 116 
Q 538 116 650 288 
Q 719 391 719 750 
L 719 3488 
Q 719 3884 631 3984 
Q 509 4122 269 4122 
L 109 4122 
L 109 4238 
L 1834 4238 
Q 2784 4238 3279 4022 
Q 3775 3806 4076 3303 
Q 4378 2800 4378 2141 
Q 4378 1256 3841 663 
Q 3238 0 2003 0 
L 109 0 
z
M 1319 306 
Q 1716 219 1984 219 
Q 2709 219 3187 728 
Q 3666 1238 3666 2109 
Q 3666 2988 3187 3494 
Q 2709 4000 1959 4000 
Q 1678 4000 1319 3909 
L 1319 306 
z
" transform="scale(0.015625)"/>
       <path id="TimesNewRomanPSMT-51" d="M 2819 -47 
Q 3138 -597 3508 -856 
Q 3878 -1116 4350 -1153 
L 4350 -1253 
Q 3919 -1238 3428 -1080 
Q 2938 -922 2498 -642 
Q 2059 -363 1741 -47 
Q 1291 134 1028 338 
Q 647 641 436 1083 
Q 225 1525 225 2128 
Q 225 3078 840 3706 
Q 1456 4334 2331 4334 
Q 3163 4334 3770 3704 
Q 4378 3075 4378 2116 
Q 4378 1338 3945 750 
Q 3513 163 2819 -47 
z
M 2294 4094 
Q 1725 4094 1378 3688 
Q 941 3178 941 2128 
Q 941 1100 1384 544 
Q 1728 116 2294 116 
Q 2881 116 3241 544 
Q 3663 1050 3663 2038 
Q 3663 2797 3431 3316 
Q 3253 3716 2958 3905 
Q 2663 4094 2294 4094 
z
" transform="scale(0.015625)"/>
       <path id="TimesNewRomanPSMT-4e" d="M -84 4238 
L 1066 4238 
L 3656 1059 
L 3656 3503 
Q 3656 3894 3569 3991 
Q 3453 4122 3203 4122 
L 3056 4122 
L 3056 4238 
L 4531 4238 
L 4531 4122 
L 4381 4122 
Q 4113 4122 4000 3959 
Q 3931 3859 3931 3503 
L 3931 -69 
L 3819 -69 
L 1025 3344 
L 1025 734 
Q 1025 344 1109 247 
Q 1228 116 1475 116 
L 1625 116 
L 1625 0 
L 150 0 
L 150 116 
L 297 116 
Q 569 116 681 278 
Q 750 378 750 734 
L 750 3681 
Q 566 3897 470 3965 
Q 375 4034 191 4094 
Q 100 4122 -84 4122 
L -84 4238 
z
" transform="scale(0.015625)"/>
      </defs>
      <use xlink:href="#TimesNewRomanPSMT-44"/>
      <use xlink:href="#TimesNewRomanPSMT-51" x="72.216797"/>
      <use xlink:href="#TimesNewRomanPSMT-4e" x="144.433594"/>
     </g>
    </g>
    <g id="line2d_40">
     <path d="M 99 213.402813 
L 109 213.402813 
L 119 213.402813 
" style="fill: none; stroke: #2ca02c; stroke-width: 1.5; stroke-linecap: square"/>
    </g>
    <g id="text_21">
     <!-- DDQN -->
     <g transform="translate(127 216.902813)scale(0.1 -0.1)">
      <use xlink:href="#TimesNewRomanPSMT-44"/>
      <use xlink:href="#TimesNewRomanPSMT-44" x="72.216797"/>
      <use xlink:href="#TimesNewRomanPSMT-51" x="144.433594"/>
      <use xlink:href="#TimesNewRomanPSMT-4e" x="216.650391"/>
     </g>
    </g>
    <g id="line2d_41">
     <path d="M 99 227.541875 
L 109 227.541875 
L 119 227.541875 
" style="fill: none; stroke: #d62728; stroke-width: 1.5; stroke-linecap: square"/>
    </g>
    <g id="text_22">
     <!-- ILDDQN -->
     <g transform="translate(127 231.041875)scale(0.1 -0.1)">
      <defs>
       <path id="TimesNewRomanPSMT-49" d="M 1975 116 
L 1975 0 
L 159 0 
L 159 116 
L 309 116 
Q 572 116 691 269 
Q 766 369 766 750 
L 766 3488 
Q 766 3809 725 3913 
Q 694 3991 597 4047 
Q 459 4122 309 4122 
L 159 4122 
L 159 4238 
L 1975 4238 
L 1975 4122 
L 1822 4122 
Q 1563 4122 1444 3969 
Q 1366 3869 1366 3488 
L 1366 750 
Q 1366 428 1406 325 
Q 1438 247 1538 191 
Q 1672 116 1822 116 
L 1975 116 
z
" transform="scale(0.015625)"/>
       <path id="TimesNewRomanPSMT-4c" d="M 3669 1172 
L 3772 1150 
L 3409 0 
L 128 0 
L 128 116 
L 288 116 
Q 556 116 672 291 
Q 738 391 738 753 
L 738 3488 
Q 738 3884 650 3984 
Q 528 4122 288 4122 
L 128 4122 
L 128 4238 
L 2047 4238 
L 2047 4122 
Q 1709 4125 1573 4059 
Q 1438 3994 1388 3894 
Q 1338 3794 1338 3416 
L 1338 753 
Q 1338 494 1388 397 
Q 1425 331 1503 300 
Q 1581 269 1991 269 
L 2300 269 
Q 2788 269 2984 341 
Q 3181 413 3343 595 
Q 3506 778 3669 1172 
z
" transform="scale(0.015625)"/>
      </defs>
      <use xlink:href="#TimesNewRomanPSMT-49"/>
      <use xlink:href="#TimesNewRomanPSMT-4c" x="33.300781"/>
      <use xlink:href="#TimesNewRomanPSMT-44" x="94.384766"/>
      <use xlink:href="#TimesNewRomanPSMT-44" x="166.601562"/>
      <use xlink:href="#TimesNewRomanPSMT-51" x="238.818359"/>
      <use xlink:href="#TimesNewRomanPSMT-4e" x="311.035156"/>
     </g>
    </g>
    <g id="line2d_42">
     <path d="M 99 241.680937 
L 109 241.680937 
L 119 241.680937 
" style="fill: none; stroke: #9467bd; stroke-width: 1.5; stroke-linecap: square"/>
    </g>
    <g id="text_23">
     <!-- Market -->
     <g transform="translate(127 245.180937)scale(0.1 -0.1)">
      <defs>
       <path id="TimesNewRomanPSMT-4d" d="M 2619 0 
L 981 3566 
L 981 734 
Q 981 344 1066 247 
Q 1181 116 1431 116 
L 1581 116 
L 1581 0 
L 106 0 
L 106 116 
L 256 116 
Q 525 116 638 278 
Q 706 378 706 734 
L 706 3503 
Q 706 3784 644 3909 
Q 600 4000 483 4061 
Q 366 4122 106 4122 
L 106 4238 
L 1306 4238 
L 2844 922 
L 4356 4238 
L 5556 4238 
L 5556 4122 
L 5409 4122 
Q 5138 4122 5025 3959 
Q 4956 3859 4956 3503 
L 4956 734 
Q 4956 344 5044 247 
Q 5159 116 5409 116 
L 5556 116 
L 5556 0 
L 3756 0 
L 3756 116 
L 3906 116 
Q 4178 116 4288 278 
Q 4356 378 4356 734 
L 4356 3566 
L 2722 0 
L 2619 0 
z
" transform="scale(0.015625)"/>
       <path id="TimesNewRomanPSMT-61" d="M 1822 413 
Q 1381 72 1269 19 
Q 1100 -59 909 -59 
Q 613 -59 420 144 
Q 228 347 228 678 
Q 228 888 322 1041 
Q 450 1253 767 1440 
Q 1084 1628 1822 1897 
L 1822 2009 
Q 1822 2438 1686 2597 
Q 1550 2756 1291 2756 
Q 1094 2756 978 2650 
Q 859 2544 859 2406 
L 866 2225 
Q 866 2081 792 2003 
Q 719 1925 600 1925 
Q 484 1925 411 2006 
Q 338 2088 338 2228 
Q 338 2497 613 2722 
Q 888 2947 1384 2947 
Q 1766 2947 2009 2819 
Q 2194 2722 2281 2516 
Q 2338 2381 2338 1966 
L 2338 994 
Q 2338 584 2353 492 
Q 2369 400 2405 369 
Q 2441 338 2488 338 
Q 2538 338 2575 359 
Q 2641 400 2828 588 
L 2828 413 
Q 2478 -56 2159 -56 
Q 2006 -56 1915 50 
Q 1825 156 1822 413 
z
M 1822 616 
L 1822 1706 
Q 1350 1519 1213 1441 
Q 966 1303 859 1153 
Q 753 1003 753 825 
Q 753 600 887 451 
Q 1022 303 1197 303 
Q 1434 303 1822 616 
z
" transform="scale(0.015625)"/>
       <path id="TimesNewRomanPSMT-72" d="M 1038 2947 
L 1038 2303 
Q 1397 2947 1775 2947 
Q 1947 2947 2059 2842 
Q 2172 2738 2172 2600 
Q 2172 2478 2090 2393 
Q 2009 2309 1897 2309 
Q 1788 2309 1652 2417 
Q 1516 2525 1450 2525 
Q 1394 2525 1328 2463 
Q 1188 2334 1038 2041 
L 1038 669 
Q 1038 431 1097 309 
Q 1138 225 1241 169 
Q 1344 113 1538 113 
L 1538 0 
L 72 0 
L 72 113 
Q 291 113 397 181 
Q 475 231 506 341 
Q 522 394 522 644 
L 522 1753 
Q 522 2253 501 2348 
Q 481 2444 426 2487 
Q 372 2531 291 2531 
Q 194 2531 72 2484 
L 41 2597 
L 906 2947 
L 1038 2947 
z
" transform="scale(0.015625)"/>
       <path id="TimesNewRomanPSMT-6b" d="M 1047 4444 
L 1047 1597 
L 1775 2259 
Q 2006 2472 2044 2528 
Q 2069 2566 2069 2603 
Q 2069 2666 2017 2711 
Q 1966 2756 1847 2763 
L 1847 2863 
L 3091 2863 
L 3091 2763 
Q 2834 2756 2664 2684 
Q 2494 2613 2291 2428 
L 1556 1750 
L 2291 822 
Q 2597 438 2703 334 
Q 2853 188 2966 144 
Q 3044 113 3238 113 
L 3238 0 
L 1847 0 
L 1847 113 
Q 1966 116 2008 148 
Q 2050 181 2050 241 
Q 2050 313 1925 472 
L 1047 1594 
L 1047 644 
Q 1047 366 1086 278 
Q 1125 191 1197 153 
Q 1269 116 1509 113 
L 1509 0 
L 53 0 
L 53 113 
Q 272 113 381 166 
Q 447 200 481 272 
Q 528 375 528 628 
L 528 3234 
Q 528 3731 506 3842 
Q 484 3953 434 3995 
Q 384 4038 303 4038 
Q 238 4038 106 3984 
L 53 4094 
L 903 4444 
L 1047 4444 
z
" transform="scale(0.015625)"/>
       <path id="TimesNewRomanPSMT-65" d="M 681 1784 
Q 678 1147 991 784 
Q 1303 422 1725 422 
Q 2006 422 2214 576 
Q 2422 731 2563 1106 
L 2659 1044 
Q 2594 616 2278 264 
Q 1963 -88 1488 -88 
Q 972 -88 605 314 
Q 238 716 238 1394 
Q 238 2128 614 2539 
Q 991 2950 1559 2950 
Q 2041 2950 2350 2633 
Q 2659 2316 2659 1784 
L 681 1784 
z
M 681 1966 
L 2006 1966 
Q 1991 2241 1941 2353 
Q 1863 2528 1708 2628 
Q 1553 2728 1384 2728 
Q 1125 2728 920 2526 
Q 716 2325 681 1966 
z
" transform="scale(0.015625)"/>
       <path id="TimesNewRomanPSMT-74" d="M 1031 3803 
L 1031 2863 
L 1700 2863 
L 1700 2644 
L 1031 2644 
L 1031 788 
Q 1031 509 1111 412 
Q 1191 316 1316 316 
Q 1419 316 1516 380 
Q 1613 444 1666 569 
L 1788 569 
Q 1678 263 1478 108 
Q 1278 -47 1066 -47 
Q 922 -47 784 33 
Q 647 113 581 261 
Q 516 409 516 719 
L 516 2644 
L 63 2644 
L 63 2747 
Q 234 2816 414 2980 
Q 594 3144 734 3369 
Q 806 3488 934 3803 
L 1031 3803 
z
" transform="scale(0.015625)"/>
      </defs>
      <use xlink:href="#TimesNewRomanPSMT-4d"/>
      <use xlink:href="#TimesNewRomanPSMT-61" x="88.916016"/>
      <use xlink:href="#TimesNewRomanPSMT-72" x="133.300781"/>
      <use xlink:href="#TimesNewRomanPSMT-6b" x="166.601562"/>
      <use xlink:href="#TimesNewRomanPSMT-65" x="216.601562"/>
      <use xlink:href="#TimesNewRomanPSMT-74" x="260.986328"/>
     </g>
    </g>
   </g>
  </g>
 </g>
 <defs>
  <clipPath id="pb3762c79fc">
   <rect x="90" y="34.56" width="558" height="221.76"/>
  </clipPath>
 </defs>
</svg>
