<?xml version="1.0" encoding="utf-8" standalone="no"?>
<!DOCTYPE svg PUBLIC "-//W3C//DTD SVG 1.1//EN"
  "http://www.w3.org/Graphics/SVG/1.1/DTD/svg11.dtd">
<svg xmlns:xlink="http://www.w3.org/1999/xlink" width="612pt" height="288pt" viewBox="0 0 612 288" xmlns="http://www.w3.org/2000/svg" version="1.1">
 <metadata>
  <rdf:RDF xmlns:dc="http://purl.org/dc/elements/1.1/" xmlns:cc="http://creativecommons.org/ns#" xmlns:rdf="http://www.w3.org/1999/02/22-rdf-syntax-ns#">
   <cc:Work>
    <dc:type rdf:resource="http://purl.org/dc/dcmitype/StillImage"/>
    <dc:date>2022-11-04T14:41:32.331718</dc:date>
    <dc:format>image/svg+xml</dc:format>
    <dc:creator>
     <cc:Agent>
      <dc:title>Matplotlib v3.5.1, https://matplotlib.org/</dc:title>
     </cc:Agent>
    </dc:creator>
   </cc:Work>
  </rdf:RDF>
 </metadata>
 <defs>
  <style type="text/css">*{stroke-linejoin: round; stroke-linecap: butt}</style>
 </defs>
 <g id="figure_1">
  <g id="patch_1">
   <path d="M 0 288 
L 612 288 
L 612 0 
L 0 0 
z
" style="fill: #ffffff"/>
  </g>
  <g id="axes_1">
   <g id="patch_2">
    <path d="M 76.5 256.32 
L 550.8 256.32 
L 550.8 34.56 
L 76.5 34.56 
z
" style="fill: #ffffff"/>
   </g>
   <g id="matplotlib.axis_1">
    <g id="xtick_1">
     <g id="line2d_1">
      <path d="M 98.059091 256.32 
L 98.059091 34.56 
" clip-path="url(#pd8743a360c)" style="fill: none; stroke: #b0b0b0; stroke-width: 0.8; stroke-linecap: square"/>
     </g>
     <g id="line2d_2">
      <defs>
       <path id="m4f20e06824" d="M 0 0 
L 0 -3.5 
" style="stroke: #000000; stroke-width: 0.8"/>
      </defs>
      <g>
       <use xlink:href="#m4f20e06824" x="98.059091" y="256.32" style="stroke: #000000; stroke-width: 0.8"/>
      </g>
     </g>
     <g id="text_1">
      <!-- 2019-10-16 -->
      <g transform="translate(74.729403 266.76375)scale(0.1 -0.1)">
       <defs>
        <path id="TimesNewRomanPSMT-32" d="M 2934 816 
L 2638 0 
L 138 0 
L 138 116 
Q 1241 1122 1691 1759 
Q 2141 2397 2141 2925 
Q 2141 3328 1894 3587 
Q 1647 3847 1303 3847 
Q 991 3847 742 3664 
Q 494 3481 375 3128 
L 259 3128 
Q 338 3706 661 4015 
Q 984 4325 1469 4325 
Q 1984 4325 2329 3994 
Q 2675 3663 2675 3213 
Q 2675 2891 2525 2569 
Q 2294 2063 1775 1497 
Q 997 647 803 472 
L 1909 472 
Q 2247 472 2383 497 
Q 2519 522 2628 598 
Q 2738 675 2819 816 
L 2934 816 
z
" transform="scale(0.015625)"/>
        <path id="TimesNewRomanPSMT-30" d="M 231 2094 
Q 231 2819 450 3342 
Q 669 3866 1031 4122 
Q 1313 4325 1613 4325 
Q 2100 4325 2488 3828 
Q 2972 3213 2972 2159 
Q 2972 1422 2759 906 
Q 2547 391 2217 158 
Q 1888 -75 1581 -75 
Q 975 -75 572 641 
Q 231 1244 231 2094 
z
M 844 2016 
Q 844 1141 1059 588 
Q 1238 122 1591 122 
Q 1759 122 1940 273 
Q 2122 425 2216 781 
Q 2359 1319 2359 2297 
Q 2359 3022 2209 3506 
Q 2097 3866 1919 4016 
Q 1791 4119 1609 4119 
Q 1397 4119 1231 3928 
Q 1006 3669 925 3112 
Q 844 2556 844 2016 
z
" transform="scale(0.015625)"/>
        <path id="TimesNewRomanPSMT-31" d="M 750 3822 
L 1781 4325 
L 1884 4325 
L 1884 747 
Q 1884 391 1914 303 
Q 1944 216 2037 169 
Q 2131 122 2419 116 
L 2419 0 
L 825 0 
L 825 116 
Q 1125 122 1212 167 
Q 1300 213 1334 289 
Q 1369 366 1369 747 
L 1369 3034 
Q 1369 3497 1338 3628 
Q 1316 3728 1258 3775 
Q 1200 3822 1119 3822 
Q 1003 3822 797 3725 
L 750 3822 
z
" transform="scale(0.015625)"/>
        <path id="TimesNewRomanPSMT-39" d="M 338 -88 
L 338 28 
Q 744 34 1094 217 
Q 1444 400 1770 856 
Q 2097 1313 2225 1859 
Q 1734 1544 1338 1544 
Q 891 1544 572 1889 
Q 253 2234 253 2806 
Q 253 3363 572 3797 
Q 956 4325 1575 4325 
Q 2097 4325 2469 3894 
Q 2925 3359 2925 2575 
Q 2925 1869 2578 1258 
Q 2231 647 1613 244 
Q 1109 -88 516 -88 
L 338 -88 
z
M 2275 2091 
Q 2331 2497 2331 2741 
Q 2331 3044 2228 3395 
Q 2125 3747 1936 3934 
Q 1747 4122 1506 4122 
Q 1228 4122 1018 3872 
Q 809 3622 809 3128 
Q 809 2469 1088 2097 
Q 1291 1828 1588 1828 
Q 1731 1828 1928 1897 
Q 2125 1966 2275 2091 
z
" transform="scale(0.015625)"/>
        <path id="TimesNewRomanPSMT-2d" d="M 259 1672 
L 1875 1672 
L 1875 1200 
L 259 1200 
L 259 1672 
z
" transform="scale(0.015625)"/>
        <path id="TimesNewRomanPSMT-36" d="M 2869 4325 
L 2869 4209 
Q 2456 4169 2195 4045 
Q 1934 3922 1679 3669 
Q 1425 3416 1258 3105 
Q 1091 2794 978 2366 
Q 1428 2675 1881 2675 
Q 2316 2675 2634 2325 
Q 2953 1975 2953 1425 
Q 2953 894 2631 456 
Q 2244 -75 1606 -75 
Q 1172 -75 869 213 
Q 275 772 275 1663 
Q 275 2231 503 2743 
Q 731 3256 1154 3653 
Q 1578 4050 1965 4187 
Q 2353 4325 2688 4325 
L 2869 4325 
z
M 925 2138 
Q 869 1716 869 1456 
Q 869 1156 980 804 
Q 1091 453 1309 247 
Q 1469 100 1697 100 
Q 1969 100 2183 356 
Q 2397 613 2397 1088 
Q 2397 1622 2184 2012 
Q 1972 2403 1581 2403 
Q 1463 2403 1327 2353 
Q 1191 2303 925 2138 
z
" transform="scale(0.015625)"/>
       </defs>
       <use xlink:href="#TimesNewRomanPSMT-32"/>
       <use xlink:href="#TimesNewRomanPSMT-30" x="50"/>
       <use xlink:href="#TimesNewRomanPSMT-31" x="100"/>
       <use xlink:href="#TimesNewRomanPSMT-39" x="150"/>
       <use xlink:href="#TimesNewRomanPSMT-2d" x="200"/>
       <use xlink:href="#TimesNewRomanPSMT-31" x="233.300781"/>
       <use xlink:href="#TimesNewRomanPSMT-30" x="283.300781"/>
       <use xlink:href="#TimesNewRomanPSMT-2d" x="333.300781"/>
       <use xlink:href="#TimesNewRomanPSMT-31" x="366.601562"/>
       <use xlink:href="#TimesNewRomanPSMT-36" x="416.601562"/>
      </g>
     </g>
    </g>
    <g id="xtick_2">
     <g id="line2d_3">
      <path d="M 155.007633 256.32 
L 155.007633 34.56 
" clip-path="url(#pd8743a360c)" style="fill: none; stroke: #b0b0b0; stroke-width: 0.8; stroke-linecap: square"/>
     </g>
     <g id="line2d_4">
      <g>
       <use xlink:href="#m4f20e06824" x="155.007633" y="256.32" style="stroke: #000000; stroke-width: 0.8"/>
      </g>
     </g>
     <g id="text_2">
      <!-- 2020-01-23 -->
      <g transform="translate(131.677945 266.76375)scale(0.1 -0.1)">
       <defs>
        <path id="TimesNewRomanPSMT-33" d="M 325 3431 
Q 506 3859 782 4092 
Q 1059 4325 1472 4325 
Q 1981 4325 2253 3994 
Q 2459 3747 2459 3466 
Q 2459 3003 1878 2509 
Q 2269 2356 2469 2072 
Q 2669 1788 2669 1403 
Q 2669 853 2319 450 
Q 1863 -75 997 -75 
Q 569 -75 414 31 
Q 259 138 259 259 
Q 259 350 332 419 
Q 406 488 509 488 
Q 588 488 669 463 
Q 722 447 909 348 
Q 1097 250 1169 231 
Q 1284 197 1416 197 
Q 1734 197 1970 444 
Q 2206 691 2206 1028 
Q 2206 1275 2097 1509 
Q 2016 1684 1919 1775 
Q 1784 1900 1550 2001 
Q 1316 2103 1072 2103 
L 972 2103 
L 972 2197 
Q 1219 2228 1467 2375 
Q 1716 2522 1828 2728 
Q 1941 2934 1941 3181 
Q 1941 3503 1739 3701 
Q 1538 3900 1238 3900 
Q 753 3900 428 3381 
L 325 3431 
z
" transform="scale(0.015625)"/>
       </defs>
       <use xlink:href="#TimesNewRomanPSMT-32"/>
       <use xlink:href="#TimesNewRomanPSMT-30" x="50"/>
       <use xlink:href="#TimesNewRomanPSMT-32" x="100"/>
       <use xlink:href="#TimesNewRomanPSMT-30" x="150"/>
       <use xlink:href="#TimesNewRomanPSMT-2d" x="200"/>
       <use xlink:href="#TimesNewRomanPSMT-30" x="233.300781"/>
       <use xlink:href="#TimesNewRomanPSMT-31" x="283.300781"/>
       <use xlink:href="#TimesNewRomanPSMT-2d" x="333.300781"/>
       <use xlink:href="#TimesNewRomanPSMT-32" x="366.601562"/>
       <use xlink:href="#TimesNewRomanPSMT-33" x="416.601562"/>
      </g>
     </g>
    </g>
    <g id="xtick_3">
     <g id="line2d_5">
      <path d="M 211.956175 256.32 
L 211.956175 34.56 
" clip-path="url(#pd8743a360c)" style="fill: none; stroke: #b0b0b0; stroke-width: 0.8; stroke-linecap: square"/>
     </g>
     <g id="line2d_6">
      <g>
       <use xlink:href="#m4f20e06824" x="211.956175" y="256.32" style="stroke: #000000; stroke-width: 0.8"/>
      </g>
     </g>
     <g id="text_3">
      <!-- 2020-05-14 -->
      <g transform="translate(188.626487 266.76375)scale(0.1 -0.1)">
       <defs>
        <path id="TimesNewRomanPSMT-35" d="M 2778 4238 
L 2534 3706 
L 1259 3706 
L 981 3138 
Q 1809 3016 2294 2522 
Q 2709 2097 2709 1522 
Q 2709 1188 2573 903 
Q 2438 619 2231 419 
Q 2025 219 1772 97 
Q 1413 -75 1034 -75 
Q 653 -75 479 54 
Q 306 184 306 341 
Q 306 428 378 495 
Q 450 563 559 563 
Q 641 563 702 538 
Q 763 513 909 409 
Q 1144 247 1384 247 
Q 1750 247 2026 523 
Q 2303 800 2303 1197 
Q 2303 1581 2056 1914 
Q 1809 2247 1375 2428 
Q 1034 2569 447 2591 
L 1259 4238 
L 2778 4238 
z
" transform="scale(0.015625)"/>
        <path id="TimesNewRomanPSMT-34" d="M 2978 1563 
L 2978 1119 
L 2409 1119 
L 2409 0 
L 1894 0 
L 1894 1119 
L 100 1119 
L 100 1519 
L 2066 4325 
L 2409 4325 
L 2409 1563 
L 2978 1563 
z
M 1894 1563 
L 1894 3666 
L 406 1563 
L 1894 1563 
z
" transform="scale(0.015625)"/>
       </defs>
       <use xlink:href="#TimesNewRomanPSMT-32"/>
       <use xlink:href="#TimesNewRomanPSMT-30" x="50"/>
       <use xlink:href="#TimesNewRomanPSMT-32" x="100"/>
       <use xlink:href="#TimesNewRomanPSMT-30" x="150"/>
       <use xlink:href="#TimesNewRomanPSMT-2d" x="200"/>
       <use xlink:href="#TimesNewRomanPSMT-30" x="233.300781"/>
       <use xlink:href="#TimesNewRomanPSMT-35" x="283.300781"/>
       <use xlink:href="#TimesNewRomanPSMT-2d" x="333.300781"/>
       <use xlink:href="#TimesNewRomanPSMT-31" x="366.601562"/>
       <use xlink:href="#TimesNewRomanPSMT-34" x="416.601562"/>
      </g>
     </g>
    </g>
    <g id="xtick_4">
     <g id="line2d_7">
      <path d="M 268.904717 256.32 
L 268.904717 34.56 
" clip-path="url(#pd8743a360c)" style="fill: none; stroke: #b0b0b0; stroke-width: 0.8; stroke-linecap: square"/>
     </g>
     <g id="line2d_8">
      <g>
       <use xlink:href="#m4f20e06824" x="268.904717" y="256.32" style="stroke: #000000; stroke-width: 0.8"/>
      </g>
     </g>
     <g id="text_4">
      <!-- 2020-08-24 -->
      <g transform="translate(245.575029 266.76375)scale(0.1 -0.1)">
       <defs>
        <path id="TimesNewRomanPSMT-38" d="M 1228 2134 
Q 725 2547 579 2797 
Q 434 3047 434 3316 
Q 434 3728 753 4026 
Q 1072 4325 1600 4325 
Q 2113 4325 2425 4047 
Q 2738 3769 2738 3413 
Q 2738 3175 2569 2928 
Q 2400 2681 1866 2347 
Q 2416 1922 2594 1678 
Q 2831 1359 2831 1006 
Q 2831 559 2490 242 
Q 2150 -75 1597 -75 
Q 994 -75 656 303 
Q 388 606 388 966 
Q 388 1247 577 1523 
Q 766 1800 1228 2134 
z
M 1719 2469 
Q 2094 2806 2194 3001 
Q 2294 3197 2294 3444 
Q 2294 3772 2109 3958 
Q 1925 4144 1606 4144 
Q 1288 4144 1088 3959 
Q 888 3775 888 3528 
Q 888 3366 970 3203 
Q 1053 3041 1206 2894 
L 1719 2469 
z
M 1375 2016 
Q 1116 1797 991 1539 
Q 866 1281 866 981 
Q 866 578 1086 336 
Q 1306 94 1647 94 
Q 1984 94 2187 284 
Q 2391 475 2391 747 
Q 2391 972 2272 1150 
Q 2050 1481 1375 2016 
z
" transform="scale(0.015625)"/>
       </defs>
       <use xlink:href="#TimesNewRomanPSMT-32"/>
       <use xlink:href="#TimesNewRomanPSMT-30" x="50"/>
       <use xlink:href="#TimesNewRomanPSMT-32" x="100"/>
       <use xlink:href="#TimesNewRomanPSMT-30" x="150"/>
       <use xlink:href="#TimesNewRomanPSMT-2d" x="200"/>
       <use xlink:href="#TimesNewRomanPSMT-30" x="233.300781"/>
       <use xlink:href="#TimesNewRomanPSMT-38" x="283.300781"/>
       <use xlink:href="#TimesNewRomanPSMT-2d" x="333.300781"/>
       <use xlink:href="#TimesNewRomanPSMT-32" x="366.601562"/>
       <use xlink:href="#TimesNewRomanPSMT-34" x="416.601562"/>
      </g>
     </g>
    </g>
    <g id="xtick_5">
     <g id="line2d_9">
      <path d="M 325.853259 256.32 
L 325.853259 34.56 
" clip-path="url(#pd8743a360c)" style="fill: none; stroke: #b0b0b0; stroke-width: 0.8; stroke-linecap: square"/>
     </g>
     <g id="line2d_10">
      <g>
       <use xlink:href="#m4f20e06824" x="325.853259" y="256.32" style="stroke: #000000; stroke-width: 0.8"/>
      </g>
     </g>
     <g id="text_5">
      <!-- 2020-12-08 -->
      <g transform="translate(302.523572 266.76375)scale(0.1 -0.1)">
       <use xlink:href="#TimesNewRomanPSMT-32"/>
       <use xlink:href="#TimesNewRomanPSMT-30" x="50"/>
       <use xlink:href="#TimesNewRomanPSMT-32" x="100"/>
       <use xlink:href="#TimesNewRomanPSMT-30" x="150"/>
       <use xlink:href="#TimesNewRomanPSMT-2d" x="200"/>
       <use xlink:href="#TimesNewRomanPSMT-31" x="233.300781"/>
       <use xlink:href="#TimesNewRomanPSMT-32" x="283.300781"/>
       <use xlink:href="#TimesNewRomanPSMT-2d" x="333.300781"/>
       <use xlink:href="#TimesNewRomanPSMT-30" x="366.601562"/>
       <use xlink:href="#TimesNewRomanPSMT-38" x="416.601562"/>
      </g>
     </g>
    </g>
    <g id="xtick_6">
     <g id="line2d_11">
      <path d="M 382.801801 256.32 
L 382.801801 34.56 
" clip-path="url(#pd8743a360c)" style="fill: none; stroke: #b0b0b0; stroke-width: 0.8; stroke-linecap: square"/>
     </g>
     <g id="line2d_12">
      <g>
       <use xlink:href="#m4f20e06824" x="382.801801" y="256.32" style="stroke: #000000; stroke-width: 0.8"/>
      </g>
     </g>
     <g id="text_6">
      <!-- 2021-03-24 -->
      <g transform="translate(359.472114 266.76375)scale(0.1 -0.1)">
       <use xlink:href="#TimesNewRomanPSMT-32"/>
       <use xlink:href="#TimesNewRomanPSMT-30" x="50"/>
       <use xlink:href="#TimesNewRomanPSMT-32" x="100"/>
       <use xlink:href="#TimesNewRomanPSMT-31" x="150"/>
       <use xlink:href="#TimesNewRomanPSMT-2d" x="200"/>
       <use xlink:href="#TimesNewRomanPSMT-30" x="233.300781"/>
       <use xlink:href="#TimesNewRomanPSMT-33" x="283.300781"/>
       <use xlink:href="#TimesNewRomanPSMT-2d" x="333.300781"/>
       <use xlink:href="#TimesNewRomanPSMT-32" x="366.601562"/>
       <use xlink:href="#TimesNewRomanPSMT-34" x="416.601562"/>
      </g>
     </g>
    </g>
    <g id="xtick_7">
     <g id="line2d_13">
      <path d="M 439.750343 256.32 
L 439.750343 34.56 
" clip-path="url(#pd8743a360c)" style="fill: none; stroke: #b0b0b0; stroke-width: 0.8; stroke-linecap: square"/>
     </g>
     <g id="line2d_14">
      <g>
       <use xlink:href="#m4f20e06824" x="439.750343" y="256.32" style="stroke: #000000; stroke-width: 0.8"/>
      </g>
     </g>
     <g id="text_7">
      <!-- 2021-07-07 -->
      <g transform="translate(416.420656 266.76375)scale(0.1 -0.1)">
       <defs>
        <path id="TimesNewRomanPSMT-37" d="M 644 4238 
L 2916 4238 
L 2916 4119 
L 1503 -88 
L 1153 -88 
L 2419 3728 
L 1253 3728 
Q 900 3728 750 3644 
Q 488 3500 328 3200 
L 238 3234 
L 644 4238 
z
" transform="scale(0.015625)"/>
       </defs>
       <use xlink:href="#TimesNewRomanPSMT-32"/>
       <use xlink:href="#TimesNewRomanPSMT-30" x="50"/>
       <use xlink:href="#TimesNewRomanPSMT-32" x="100"/>
       <use xlink:href="#TimesNewRomanPSMT-31" x="150"/>
       <use xlink:href="#TimesNewRomanPSMT-2d" x="200"/>
       <use xlink:href="#TimesNewRomanPSMT-30" x="233.300781"/>
       <use xlink:href="#TimesNewRomanPSMT-37" x="283.300781"/>
       <use xlink:href="#TimesNewRomanPSMT-2d" x="333.300781"/>
       <use xlink:href="#TimesNewRomanPSMT-30" x="366.601562"/>
       <use xlink:href="#TimesNewRomanPSMT-37" x="416.601562"/>
      </g>
     </g>
    </g>
    <g id="xtick_8">
     <g id="line2d_15">
      <path d="M 496.698885 256.32 
L 496.698885 34.56 
" clip-path="url(#pd8743a360c)" style="fill: none; stroke: #b0b0b0; stroke-width: 0.8; stroke-linecap: square"/>
     </g>
     <g id="line2d_16">
      <g>
       <use xlink:href="#m4f20e06824" x="496.698885" y="256.32" style="stroke: #000000; stroke-width: 0.8"/>
      </g>
     </g>
     <g id="text_8">
      <!-- 2021-10-22 -->
      <g transform="translate(473.369198 266.76375)scale(0.1 -0.1)">
       <use xlink:href="#TimesNewRomanPSMT-32"/>
       <use xlink:href="#TimesNewRomanPSMT-30" x="50"/>
       <use xlink:href="#TimesNewRomanPSMT-32" x="100"/>
       <use xlink:href="#TimesNewRomanPSMT-31" x="150"/>
       <use xlink:href="#TimesNewRomanPSMT-2d" x="200"/>
       <use xlink:href="#TimesNewRomanPSMT-31" x="233.300781"/>
       <use xlink:href="#TimesNewRomanPSMT-30" x="283.300781"/>
       <use xlink:href="#TimesNewRomanPSMT-2d" x="333.300781"/>
       <use xlink:href="#TimesNewRomanPSMT-32" x="366.601562"/>
       <use xlink:href="#TimesNewRomanPSMT-32" x="416.601562"/>
      </g>
     </g>
    </g>
    <g id="text_9">
     <!-- 时间 -->
     <g transform="translate(303.65 280.67625)scale(0.1 -0.1)">
      <defs>
       <path id="SimSun-65f6" d="M 4500 3600 
Q 4500 4575 4475 5225 
L 5100 4900 
L 4850 4725 
L 4850 3600 
L 5225 3600 
L 5550 3925 
L 6025 3450 
L 4850 3450 
L 4850 100 
Q 4850 -375 4300 -575 
Q 4275 -200 3475 -25 
L 3475 100 
Q 4150 0 4325 25 
Q 4500 50 4500 325 
L 4500 3450 
L 3200 3450 
Q 2875 3450 2600 3375 
L 2375 3600 
L 4500 3600 
z
M 2875 2825 
Q 3525 2375 3637 2200 
Q 3750 2025 3750 1925 
Q 3750 1800 3637 1637 
Q 3525 1475 3475 1475 
Q 3400 1475 3325 1775 
Q 3200 2225 2800 2750 
L 2875 2825 
z
M 925 4150 
L 925 2650 
L 1950 2650 
L 1950 4150 
L 925 4150 
z
M 925 2500 
L 925 900 
L 1950 900 
L 1950 2500 
L 925 2500 
z
M 2300 2000 
Q 2300 800 2325 450 
L 1950 250 
L 1950 750 
L 925 750 
L 925 225 
L 550 25 
Q 575 825 575 2425 
Q 575 4025 550 4500 
L 950 4300 
L 1900 4300 
L 2100 4550 
L 2500 4225 
L 2300 4050 
L 2300 2000 
z
" transform="scale(0.015625)"/>
       <path id="SimSun-95f4" d="M 2150 525 
Q 2175 1325 2175 2112 
Q 2175 2900 2150 3675 
L 2525 3450 
L 3750 3450 
L 4000 3700 
L 4325 3375 
L 4125 3200 
Q 4125 1550 4150 775 
L 3800 575 
L 3800 975 
L 2500 975 
L 2500 700 
L 2150 525 
z
M 2500 3300 
L 2500 2325 
L 3800 2325 
L 3800 3300 
L 2500 3300 
z
M 2500 2175 
L 2500 1125 
L 3800 1125 
L 3800 2175 
L 2500 2175 
z
M 1275 5200 
Q 1850 4825 1950 4675 
Q 2050 4525 2050 4425 
Q 2050 4275 1950 4137 
Q 1850 4000 1825 4000 
Q 1750 4000 1675 4275 
Q 1550 4650 1200 5125 
L 1275 5200 
z
M 1125 425 
Q 1125 25 1150 -375 
L 750 -525 
Q 775 -150 775 1950 
Q 775 4050 750 4425 
L 1350 4125 
L 1125 3975 
L 1125 425 
z
M 4225 125 
Q 5025 0 5125 37 
Q 5225 75 5225 250 
L 5225 4450 
L 3225 4450 
Q 2900 4450 2625 4375 
L 2400 4600 
L 5175 4600 
L 5425 4850 
L 5775 4500 
L 5575 4350 
L 5575 225 
Q 5575 -100 5462 -250 
Q 5350 -400 5000 -550 
Q 4800 -125 4225 25 
L 4225 125 
z
" transform="scale(0.015625)"/>
      </defs>
      <use xlink:href="#SimSun-65f6"/>
      <use xlink:href="#SimSun-95f4" x="100"/>
     </g>
    </g>
   </g>
   <g id="matplotlib.axis_2">
    <g id="ytick_1">
     <g id="line2d_17">
      <path d="M 76.5 252.406901 
L 550.8 252.406901 
" clip-path="url(#pd8743a360c)" style="fill: none; stroke: #b0b0b0; stroke-width: 0.8; stroke-linecap: square"/>
     </g>
     <g id="line2d_18">
      <defs>
       <path id="mbd7b810e33" d="M 0 0 
L 3.5 0 
" style="stroke: #000000; stroke-width: 0.8"/>
      </defs>
      <g>
       <use xlink:href="#mbd7b810e33" x="76.5" y="252.406901" style="stroke: #000000; stroke-width: 0.8"/>
      </g>
     </g>
     <g id="text_10">
      <!-- 0.5 -->
      <g transform="translate(60.5 255.878776)scale(0.1 -0.1)">
       <defs>
        <path id="TimesNewRomanPSMT-2e" d="M 800 606 
Q 947 606 1047 504 
Q 1147 403 1147 259 
Q 1147 116 1045 14 
Q 944 -88 800 -88 
Q 656 -88 554 14 
Q 453 116 453 259 
Q 453 406 554 506 
Q 656 606 800 606 
z
" transform="scale(0.015625)"/>
       </defs>
       <use xlink:href="#TimesNewRomanPSMT-30"/>
       <use xlink:href="#TimesNewRomanPSMT-2e" x="50"/>
       <use xlink:href="#TimesNewRomanPSMT-35" x="75"/>
      </g>
     </g>
    </g>
    <g id="ytick_2">
     <g id="line2d_19">
      <path d="M 76.5 225.900915 
L 550.8 225.900915 
" clip-path="url(#pd8743a360c)" style="fill: none; stroke: #b0b0b0; stroke-width: 0.8; stroke-linecap: square"/>
     </g>
     <g id="line2d_20">
      <g>
       <use xlink:href="#mbd7b810e33" x="76.5" y="225.900915" style="stroke: #000000; stroke-width: 0.8"/>
      </g>
     </g>
     <g id="text_11">
      <!-- 0.6 -->
      <g transform="translate(60.5 229.37279)scale(0.1 -0.1)">
       <use xlink:href="#TimesNewRomanPSMT-30"/>
       <use xlink:href="#TimesNewRomanPSMT-2e" x="50"/>
       <use xlink:href="#TimesNewRomanPSMT-36" x="75"/>
      </g>
     </g>
    </g>
    <g id="ytick_3">
     <g id="line2d_21">
      <path d="M 76.5 199.394929 
L 550.8 199.394929 
" clip-path="url(#pd8743a360c)" style="fill: none; stroke: #b0b0b0; stroke-width: 0.8; stroke-linecap: square"/>
     </g>
     <g id="line2d_22">
      <g>
       <use xlink:href="#mbd7b810e33" x="76.5" y="199.394929" style="stroke: #000000; stroke-width: 0.8"/>
      </g>
     </g>
     <g id="text_12">
      <!-- 0.7 -->
      <g transform="translate(60.5 202.866804)scale(0.1 -0.1)">
       <use xlink:href="#TimesNewRomanPSMT-30"/>
       <use xlink:href="#TimesNewRomanPSMT-2e" x="50"/>
       <use xlink:href="#TimesNewRomanPSMT-37" x="75"/>
      </g>
     </g>
    </g>
    <g id="ytick_4">
     <g id="line2d_23">
      <path d="M 76.5 172.888943 
L 550.8 172.888943 
" clip-path="url(#pd8743a360c)" style="fill: none; stroke: #b0b0b0; stroke-width: 0.8; stroke-linecap: square"/>
     </g>
     <g id="line2d_24">
      <g>
       <use xlink:href="#mbd7b810e33" x="76.5" y="172.888943" style="stroke: #000000; stroke-width: 0.8"/>
      </g>
     </g>
     <g id="text_13">
      <!-- 0.8 -->
      <g transform="translate(60.5 176.360818)scale(0.1 -0.1)">
       <use xlink:href="#TimesNewRomanPSMT-30"/>
       <use xlink:href="#TimesNewRomanPSMT-2e" x="50"/>
       <use xlink:href="#TimesNewRomanPSMT-38" x="75"/>
      </g>
     </g>
    </g>
    <g id="ytick_5">
     <g id="line2d_25">
      <path d="M 76.5 146.382957 
L 550.8 146.382957 
" clip-path="url(#pd8743a360c)" style="fill: none; stroke: #b0b0b0; stroke-width: 0.8; stroke-linecap: square"/>
     </g>
     <g id="line2d_26">
      <g>
       <use xlink:href="#mbd7b810e33" x="76.5" y="146.382957" style="stroke: #000000; stroke-width: 0.8"/>
      </g>
     </g>
     <g id="text_14">
      <!-- 0.9 -->
      <g transform="translate(60.5 149.854832)scale(0.1 -0.1)">
       <use xlink:href="#TimesNewRomanPSMT-30"/>
       <use xlink:href="#TimesNewRomanPSMT-2e" x="50"/>
       <use xlink:href="#TimesNewRomanPSMT-39" x="75"/>
      </g>
     </g>
    </g>
    <g id="ytick_6">
     <g id="line2d_27">
      <path d="M 76.5 119.876971 
L 550.8 119.876971 
" clip-path="url(#pd8743a360c)" style="fill: none; stroke: #b0b0b0; stroke-width: 0.8; stroke-linecap: square"/>
     </g>
     <g id="line2d_28">
      <g>
       <use xlink:href="#mbd7b810e33" x="76.5" y="119.876971" style="stroke: #000000; stroke-width: 0.8"/>
      </g>
     </g>
     <g id="text_15">
      <!-- 1.0 -->
      <g transform="translate(60.5 123.348846)scale(0.1 -0.1)">
       <use xlink:href="#TimesNewRomanPSMT-31"/>
       <use xlink:href="#TimesNewRomanPSMT-2e" x="50"/>
       <use xlink:href="#TimesNewRomanPSMT-30" x="75"/>
      </g>
     </g>
    </g>
    <g id="ytick_7">
     <g id="line2d_29">
      <path d="M 76.5 93.370985 
L 550.8 93.370985 
" clip-path="url(#pd8743a360c)" style="fill: none; stroke: #b0b0b0; stroke-width: 0.8; stroke-linecap: square"/>
     </g>
     <g id="line2d_30">
      <g>
       <use xlink:href="#mbd7b810e33" x="76.5" y="93.370985" style="stroke: #000000; stroke-width: 0.8"/>
      </g>
     </g>
     <g id="text_16">
      <!-- 1.1 -->
      <g transform="translate(60.5 96.84286)scale(0.1 -0.1)">
       <use xlink:href="#TimesNewRomanPSMT-31"/>
       <use xlink:href="#TimesNewRomanPSMT-2e" x="50"/>
       <use xlink:href="#TimesNewRomanPSMT-31" x="75"/>
      </g>
     </g>
    </g>
    <g id="ytick_8">
     <g id="line2d_31">
      <path d="M 76.5 66.864999 
L 550.8 66.864999 
" clip-path="url(#pd8743a360c)" style="fill: none; stroke: #b0b0b0; stroke-width: 0.8; stroke-linecap: square"/>
     </g>
     <g id="line2d_32">
      <g>
       <use xlink:href="#mbd7b810e33" x="76.5" y="66.864999" style="stroke: #000000; stroke-width: 0.8"/>
      </g>
     </g>
     <g id="text_17">
      <!-- 1.2 -->
      <g transform="translate(60.5 70.336874)scale(0.1 -0.1)">
       <use xlink:href="#TimesNewRomanPSMT-31"/>
       <use xlink:href="#TimesNewRomanPSMT-2e" x="50"/>
       <use xlink:href="#TimesNewRomanPSMT-32" x="75"/>
      </g>
     </g>
    </g>
    <g id="ytick_9">
     <g id="line2d_33">
      <path d="M 76.5 40.359012 
L 550.8 40.359012 
" clip-path="url(#pd8743a360c)" style="fill: none; stroke: #b0b0b0; stroke-width: 0.8; stroke-linecap: square"/>
     </g>
     <g id="line2d_34">
      <g>
       <use xlink:href="#mbd7b810e33" x="76.5" y="40.359012" style="stroke: #000000; stroke-width: 0.8"/>
      </g>
     </g>
     <g id="text_18">
      <!-- 1.3 -->
      <g transform="translate(60.5 43.830887)scale(0.1 -0.1)">
       <use xlink:href="#TimesNewRomanPSMT-31"/>
       <use xlink:href="#TimesNewRomanPSMT-2e" x="50"/>
       <use xlink:href="#TimesNewRomanPSMT-33" x="75"/>
      </g>
     </g>
    </g>
    <g id="text_19">
     <!-- 累计收益率 -->
     <g transform="translate(55.210938 170.44)rotate(-90)scale(0.1 -0.1)">
      <defs>
       <path id="SimSun-7d2f" d="M 1675 4725 
L 1675 4100 
L 3125 4100 
L 3125 4725 
L 1675 4725 
z
M 3450 4725 
L 3450 4100 
L 4925 4100 
L 4925 4725 
L 3450 4725 
z
M 1675 3950 
L 1675 3375 
L 3125 3375 
L 3125 3950 
L 1675 3950 
z
M 3450 3950 
L 3450 3375 
L 4925 3375 
L 4925 3950 
L 3450 3950 
z
M 5250 4625 
Q 5250 4275 5250 3875 
Q 5250 3475 5275 3075 
L 4925 2950 
L 4925 3225 
L 1675 3225 
L 1675 3000 
L 1325 2875 
Q 1350 3500 1350 4125 
Q 1350 4750 1325 5075 
L 1675 4875 
L 4900 4875 
L 5075 5075 
L 5425 4775 
L 5250 4625 
z
M 3525 2875 
Q 3225 2850 2875 2700 
Q 2525 2550 1825 2275 
L 3550 2300 
Q 3925 2550 4175 2800 
L 4500 2400 
Q 4275 2400 3675 2100 
Q 3050 1775 1875 1300 
L 4775 1475 
Q 4550 1725 4300 1975 
L 4375 2025 
Q 5100 1675 5262 1487 
Q 5425 1300 5412 1150 
Q 5400 1000 5337 900 
Q 5275 800 5250 800 
Q 5200 800 5125 950 
Q 5000 1150 4875 1350 
L 3550 1225 
L 3550 100 
Q 3575 -425 3000 -525 
Q 3000 -175 2200 0 
L 2200 100 
Q 2900 25 3062 37 
Q 3225 50 3225 325 
L 3225 1200 
Q 2750 1150 2250 1075 
Q 1750 1000 1450 825 
L 1175 1350 
Q 1550 1400 2000 1562 
Q 2450 1725 3375 2175 
Q 2300 2075 2000 2037 
Q 1700 2000 1550 1900 
L 1325 2350 
Q 1625 2350 2200 2612 
Q 2775 2875 3150 3250 
L 3525 2875 
z
M 2625 500 
Q 2325 450 1850 175 
Q 1375 -125 550 -450 
L 500 -375 
Q 1125 -50 1562 300 
Q 2000 650 2225 950 
L 2625 500 
z
M 4075 900 
Q 5000 575 5312 387 
Q 5625 200 5650 12 
Q 5675 -175 5612 -287 
Q 5550 -400 5525 -400 
Q 5425 -400 5250 -150 
Q 4975 250 4025 825 
L 4075 900 
z
" transform="scale(0.015625)"/>
       <path id="SimSun-8ba1" d="M 975 4975 
L 1000 5050 
Q 1550 4800 1762 4625 
Q 1975 4450 1975 4275 
Q 1975 4100 1887 4025 
Q 1800 3950 1775 3950 
Q 1650 3950 1550 4250 
Q 1375 4625 975 4975 
z
M 1650 375 
L 2625 1225 
L 2675 1150 
Q 1800 25 1600 -350 
L 1225 75 
Q 1325 225 1325 550 
L 1325 2800 
L 675 2800 
L 900 2800 
Q 750 2800 475 2725 
L 250 2950 
L 1275 2950 
L 1550 3225 
L 1900 2875 
L 1650 2700 
L 1650 375 
z
M 3850 2925 
Q 3850 4600 3825 5100 
L 4425 4825 
L 4225 4625 
L 4225 2925 
L 5350 2925 
L 5675 3250 
L 6125 2775 
L 4225 2775 
L 4225 500 
Q 4225 0 4250 -425 
L 3825 -600 
Q 3850 175 3850 575 
L 3850 2775 
L 2575 2775 
L 2950 2775 
Q 2650 2775 2375 2700 
L 2150 2925 
L 3850 2925 
z
" transform="scale(0.015625)"/>
       <path id="SimSun-6536" d="M 3325 3600 
Q 3575 2100 4200 1200 
Q 4600 1950 4850 3600 
L 3325 3600 
z
M 3400 5275 
L 4025 4975 
L 3775 4850 
Q 3575 4375 3325 3750 
L 5250 3750 
L 5575 4075 
L 6050 3600 
L 5225 3600 
Q 4975 2000 4425 900 
Q 5300 -25 6150 -75 
L 6150 -175 
Q 5750 -200 5575 -525 
Q 4750 -50 4200 650 
Q 3350 -175 2300 -600 
L 2250 -525 
Q 3225 -25 4000 900 
Q 3325 2100 3225 3550 
Q 2875 2725 2425 2100 
L 2350 2150 
Q 3050 3500 3400 5275 
z
M 575 1575 
L 575 3100 
Q 575 3600 550 4125 
L 1125 3850 
L 900 3675 
L 900 1425 
L 1750 1725 
Q 1750 4350 1725 5250 
L 2300 4975 
L 2075 4775 
L 2075 -450 
L 1725 -650 
Q 1750 375 1750 1600 
Q 975 1175 750 825 
L 475 1200 
Q 600 1325 575 1575 
z
" transform="scale(0.015625)"/>
       <path id="SimSun-76ca" d="M 3900 1725 
L 3900 -75 
L 4725 -75 
L 4725 1725 
L 3900 1725 
z
M 1275 2100 
L 1625 1875 
L 4675 1875 
L 4875 2125 
L 5250 1800 
L 5050 1650 
L 5050 -75 
L 5300 -75 
L 5650 275 
L 6100 -225 
L 1125 -225 
Q 800 -225 525 -300 
L 300 -75 
L 1300 -75 
Q 1300 1475 1275 2100 
z
M 1625 1725 
L 1625 -75 
L 2450 -75 
L 2450 1725 
L 1625 1725 
z
M 2775 1725 
L 2775 -75 
L 3575 -75 
L 3575 1725 
L 2775 1725 
z
M 2475 3550 
L 2900 3150 
Q 2575 3025 2050 2675 
Q 1525 2300 725 2000 
L 675 2075 
Q 1875 2750 2475 3550 
z
M 3700 3450 
Q 4425 3200 4987 2950 
Q 5550 2700 5500 2362 
Q 5450 2025 5350 2025 
Q 5275 2025 5200 2125 
Q 4975 2375 4662 2650 
Q 4350 2925 3650 3375 
L 3700 3450 
z
M 1725 5000 
L 1775 5075 
Q 2375 4800 2587 4587 
Q 2800 4375 2800 4225 
Q 2800 4050 2600 3825 
L 3625 3825 
Q 4175 4800 4275 5225 
L 4825 4875 
Q 4475 4725 3775 3825 
L 4900 3825 
L 5275 4200 
L 5775 3675 
L 1550 3675 
Q 1225 3675 950 3600 
L 725 3825 
L 2425 3825 
Q 2325 4375 1725 5000 
z
" transform="scale(0.015625)"/>
       <path id="SimSun-7387" d="M 875 3725 
L 925 3800 
Q 1375 3650 1550 3525 
Q 1725 3400 1725 3250 
Q 1725 3175 1662 3025 
Q 1600 2875 1550 2875 
Q 1500 2875 1425 3050 
Q 1275 3325 875 3725 
z
M 550 1850 
Q 875 1925 2000 2575 
L 2050 2500 
Q 1675 2225 1337 1937 
Q 1000 1650 875 1425 
L 550 1850 
z
M 5200 3450 
Q 4800 3150 4275 2800 
L 4225 2875 
Q 4775 3400 5050 3925 
L 5450 3525 
L 5200 3450 
z
M 4325 2500 
L 4350 2575 
Q 5225 2350 5375 2212 
Q 5525 2075 5525 1900 
Q 5525 1775 5487 1662 
Q 5450 1550 5400 1550 
Q 5325 1550 5200 1800 
Q 4975 2150 4325 2500 
z
M 3150 3900 
Q 2500 3300 2300 3150 
Q 2800 3150 3400 3175 
Q 3700 3500 3850 3825 
L 4250 3450 
Q 4050 3400 3450 2825 
Q 2850 2250 2475 1950 
Q 3150 1975 3850 2000 
Q 3750 2175 3550 2450 
L 3600 2500 
Q 4050 2250 4200 2100 
Q 4350 1950 4350 1850 
Q 4350 1775 4250 1625 
Q 4150 1475 4100 1475 
Q 4075 1475 4050 1550 
Q 4000 1700 3900 1900 
Q 3650 1875 3075 1800 
L 3500 1550 
L 3325 1425 
L 3325 975 
L 5325 975 
L 5650 1300 
L 6100 825 
L 3325 825 
Q 3325 -275 3350 -525 
L 2975 -650 
Q 3000 0 3000 825 
L 1125 825 
Q 800 825 525 750 
L 300 975 
L 3000 975 
L 3000 1775 
Q 2450 1700 2200 1525 
L 1950 1950 
Q 2275 1950 2675 2350 
Q 3075 2750 3325 3050 
Q 2400 2950 2150 2775 
L 1950 3175 
Q 2150 3150 2475 3575 
Q 2800 4000 2900 4225 
L 1450 4225 
Q 1125 4225 850 4150 
L 625 4375 
L 3100 4375 
Q 3050 4800 2675 5200 
L 2725 5250 
Q 3225 5050 3337 4912 
Q 3450 4775 3450 4700 
Q 3450 4550 3250 4375 
L 5025 4375 
L 5350 4675 
L 5775 4225 
L 3050 4225 
L 3375 3950 
L 3150 3900 
z
" transform="scale(0.015625)"/>
      </defs>
      <use xlink:href="#SimSun-7d2f"/>
      <use xlink:href="#SimSun-8ba1" x="100"/>
      <use xlink:href="#SimSun-6536" x="200"/>
      <use xlink:href="#SimSun-76ca" x="300"/>
      <use xlink:href="#SimSun-7387" x="400"/>
     </g>
    </g>
   </g>
   <g id="line2d_35">
    <path d="M 98.059091 120.13375 
L 98.872642 123.588484 
L 99.686192 125.607484 
L 100.499743 122.736017 
L 101.313293 121.07595 
L 102.126844 121.434884 
L 102.940395 123.902551 
L 103.753945 128.523817 
L 104.567496 129.645484 
L 105.381046 118.473684 
L 106.194597 121.704084 
L 107.008148 121.569484 
L 107.821698 98.777216 
L 108.635249 95.771149 
L 109.448799 97.431216 
L 110.26235 100.033482 
L 111.075901 99.091282 
L 111.889451 99.539949 
L 112.703002 110.487416 
L 113.516552 119.505617 
L 114.330103 120.896484 
L 115.143654 119.640217 
L 115.957204 120.851617 
L 116.770755 120.26835 
L 117.584305 118.159617 
L 118.397856 120.851617 
L 119.211407 127.177817 
L 120.024957 130.453084 
L 120.838508 125.562617 
L 121.652058 122.28735 
L 122.465609 126.325351 
L 123.27916 122.69115 
L 124.09271 126.011284 
L 124.906261 126.011284 
L 125.719811 112.147483 
L 126.533362 104.161216 
L 127.346913 105.552083 
L 128.160463 105.013683 
L 128.974014 106.090483 
L 129.787564 106.045616 
L 130.601115 109.455483 
L 131.414666 109.09655 
L 132.228216 102.321683 
L 133.041767 101.828149 
L 133.855317 97.296616 
L 134.668868 96.130082 
L 135.482419 93.303482 
L 136.295969 95.501949 
L 137.10952 95.546816 
L 137.92307 93.213749 
L 138.736621 95.995482 
L 139.550172 94.290549 
L 140.363722 95.412216 
L 141.177273 90.701215 
L 141.990823 90.701215 
L 142.804374 80.292148 
L 143.617925 83.881482 
L 144.431475 89.355215 
L 146.058576 76.254148 
L 146.872127 71.408548 
L 147.685678 71.991814 
L 148.499228 71.946948 
L 149.312779 71.722614 
L 150.126329 75.805481 
L 150.93988 82.894415 
L 151.753431 80.247281 
L 152.566981 78.273148 
L 153.380532 86.573482 
L 154.194082 85.945348 
L 155.007633 98.059349 
L 155.821184 121.255417 
L 156.634734 108.69275 
L 157.448285 102.949816 
L 158.261835 101.200016 
L 159.075386 105.058549 
L 159.888937 106.314816 
L 160.702487 98.149082 
L 161.516038 98.597749 
L 162.329588 102.725483 
L 163.143139 103.488216 
L 163.95669 101.738416 
L 164.77024 106.045616 
L 165.583791 108.244083 
L 166.397341 100.033482 
L 167.210892 103.892016 
L 168.024443 108.69275 
L 168.837993 114.61515 
L 169.651544 114.435683 
L 170.465094 112.551283 
L 171.278645 119.32615 
L 172.092196 115.602217 
L 172.905746 115.781683 
L 173.719297 116.544417 
L 174.532847 102.321683 
L 175.346398 109.09655 
L 176.159949 119.19155 
L 176.973499 112.282083 
L 177.78705 117.396883 
L 179.414151 129.600618 
L 180.227702 140.862151 
L 181.041252 147.367819 
L 181.854803 149.656019 
L 182.668353 159.257486 
L 183.481904 153.559419 
L 184.295455 164.103086 
L 185.109005 155.488686 
L 185.922556 144.989885 
L 186.736106 147.906219 
L 187.549657 149.072752 
L 188.363208 151.271219 
L 189.176758 150.732819 
L 189.990309 151.675019 
L 190.803859 150.284152 
L 191.61741 151.809619 
L 192.430961 148.399752 
L 193.244511 152.527485 
L 194.058062 152.168552 
L 194.871612 143.823352 
L 195.685163 131.395284 
L 196.498714 131.888818 
L 197.312264 140.817285 
L 198.125815 138.259885 
L 198.939365 139.516151 
L 199.752916 140.503218 
L 200.566467 145.348818 
L 201.380017 141.759485 
L 202.193568 138.753418 
L 203.007118 141.983818 
L 203.820669 142.297885 
L 204.63422 138.215018 
L 205.44777 137.183085 
L 206.261321 139.202085 
L 207.074871 140.592951 
L 207.888422 142.208152 
L 208.701973 129.241684 
L 209.515523 123.767951 
L 210.329074 120.223484 
L 211.142624 122.96035 
L 211.956175 122.15275 
L 212.769726 125.024217 
L 213.583276 124.755017 
L 214.396827 124.620417 
L 215.210377 127.491884 
L 216.023928 129.151951 
L 216.837479 135.388418 
L 217.651029 138.618818 
L 218.46458 129.735218 
L 219.27813 132.606684 
L 220.091681 130.004418 
L 220.905232 129.466017 
L 221.718782 124.844751 
L 222.532333 124.306351 
L 223.345883 124.620417 
L 224.159434 117.30715 
L 224.972985 114.974083 
L 225.786535 105.013683 
L 226.600086 107.122416 
L 227.413636 109.76955 
L 228.227187 115.30676 
L 229.040738 115.30676 
L 229.854288 122.765977 
L 230.667839 120.249063 
L 231.481389 120.569398 
L 232.29494 119.242298 
L 233.108491 115.672857 
L 233.922041 122.903263 
L 234.735592 127.616755 
L 235.549142 123.086311 
L 236.362693 126.564228 
L 237.176244 126.060845 
L 238.803345 118.555867 
L 239.616895 117.503339 
L 240.430446 104.598438 
L 241.243997 109.998361 
L 242.057547 112.698323 
L 242.871098 111.188175 
L 243.684648 114.986426 
L 244.498199 112.881371 
L 245.31175 117.137243 
L 246.1253 116.40505 
L 246.938851 128.715045 
L 247.752401 123.132073 
L 248.565952 115.260998 
L 249.379503 115.352523 
L 251.006604 109.952599 
L 251.820154 123.360883 
L 252.633705 125.099842 
L 253.447256 124.230363 
L 254.260806 113.110182 
L 255.074357 121.896497 
L 255.887907 124.504935 
L 256.701458 122.62869 
L 257.515009 123.315121 
L 258.328559 124.779507 
L 259.14211 127.662517 
L 260.769211 127.296421 
L 261.582762 129.264189 
L 262.396312 129.859096 
L 263.209863 129.676048 
L 264.023413 127.525231 
L 264.836964 125.008318 
L 266.464065 132.37601 
L 267.277616 137.226788 
L 268.091166 136.81493 
L 268.904717 137.181026 
L 269.718268 136.494595 
L 270.531818 140.567419 
L 271.345369 142.672474 
L 272.158919 133.062441 
L 272.97247 135.533592 
L 273.786021 134.38954 
L 274.599571 135.396306 
L 275.413122 134.38954 
L 276.226672 134.023444 
L 277.040223 133.199727 
L 277.853774 131.04891 
L 278.667324 135.533592 
L 279.480875 135.075971 
L 280.294425 133.886158 
L 281.107976 131.964151 
L 281.921527 129.72181 
L 282.735077 133.016679 
L 283.548628 134.16073 
L 285.175729 126.152369 
L 285.98928 130.957386 
L 286.80283 130.911624 
L 287.616381 136.311547 
L 288.429931 137.318312 
L 289.243482 142.306377 
L 290.057033 142.123329 
L 290.870583 141.02504 
L 291.684134 134.38954 
L 292.497684 129.493 
L 293.311235 129.081141 
L 294.124786 121.347353 
L 294.938336 119.791443 
L 295.751887 120.889732 
L 296.565437 122.949025 
L 298.192539 119.51687 
L 299.006089 116.771146 
L 299.81964 118.052484 
L 300.63319 118.647391 
L 301.446741 123.040549 
L 302.260292 122.903263 
L 303.073842 121.210067 
L 303.887393 117.549102 
L 304.700943 109.494979 
L 305.514494 110.227172 
L 306.328045 100.388328 
L 307.141595 97.55108 
L 307.955146 81.168262 
L 308.768696 75.814101 
L 309.582247 83.547889 
L 310.395798 83.776699 
L 311.209348 76.622811 
L 312.022899 77.133803 
L 312.836449 74.625297 
L 313.65 67.192685 
L 314.463551 75.136289 
L 315.277101 69.515376 
L 316.090652 69.515376 
L 316.904202 67.889492 
L 317.717753 74.625297 
L 318.531304 74.485935 
L 319.344854 76.25118 
L 320.158405 75.27565 
L 320.971955 75.368558 
L 321.785506 72.767144 
L 322.599057 61.943403 
L 323.412607 66.728147 
L 324.226158 64.405456 
L 325.039708 69.050838 
L 325.853259 79.921032 
L 326.66681 94.089448 
L 327.48036 93.067464 
L 328.293911 88.561443 
L 329.107461 93.392641 
L 329.921012 101.614968 
L 330.734563 101.429152 
L 331.548113 98.734831 
L 332.361664 99.849722 
L 333.988765 105.702904 
L 334.802316 105.517089 
L 335.615866 105.935173 
L 336.429417 109.883748 
L 337.242967 103.426667 
L 338.056518 102.172413 
L 338.870069 100.31426 
L 339.683619 97.201854 
L 340.49717 92.742287 
L 341.31072 81.779185 
L 342.124271 87.30719 
L 342.937822 84.380599 
L 343.751372 84.380599 
L 344.564923 94.832709 
L 346.192024 83.358615 
L 347.005575 91.720303 
L 347.819125 90.419596 
L 348.632676 88.747259 
L 349.446226 92.64938 
L 350.259777 101.568514 
L 351.073328 99.896176 
L 351.886878 105.145458 
L 352.700429 106.120988 
L 353.513979 110.859278 
L 354.32753 108.954671 
L 355.141081 118.802882 
L 355.954631 123.40181 
L 356.768182 122.797911 
L 357.581732 107.932687 
L 358.395283 111.695447 
L 359.208834 112.763885 
L 360.022384 111.138001 
L 360.835935 111.602539 
L 361.649485 110.719917 
L 362.463036 103.937659 
L 363.276587 104.030566 
L 364.090137 101.429152 
L 364.903688 113.274877 
L 365.717238 119.917774 
L 366.530789 118.849336 
L 367.34434 106.910703 
L 368.15789 110.859278 
L 368.971441 104.216382 
L 369.784991 103.147944 
L 370.598542 105.28482 
L 371.412093 111.556086 
L 372.225643 114.900761 
L 373.039194 121.915288 
L 373.852744 115.50466 
L 374.666295 112.624523 
L 375.479846 112.763885 
L 376.293396 113.181969 
L 377.106947 116.526645 
L 378.734048 95.994055 
L 379.547599 94.60044 
L 380.361149 106.213896 
L 381.1747 101.847237 
L 381.98825 99.663907 
L 382.801801 99.94263 
L 383.615352 99.803268 
L 384.428902 98.688377 
L 385.242453 94.739802 
L 386.056003 96.458593 
L 386.869554 93.671364 
L 387.683105 93.532002 
L 388.496655 94.879163 
L 389.310206 100.035538 
L 390.123756 98.409654 
L 390.937307 97.619939 
L 391.750858 98.549015 
L 392.564408 105.28482 
L 393.377959 110.069563 
L 394.191509 106.585527 
L 395.00506 103.751843 
L 395.818611 102.12596 
L 396.632161 102.12596 
L 397.445712 106.306804 
L 398.259262 107.979141 
L 399.072813 110.348286 
L 399.886364 107.096519 
L 400.699914 113.181969 
L 401.513465 115.597568 
L 402.327015 115.225938 
L 403.140566 108.490133 
L 403.954117 106.63198 
L 404.767667 106.399711 
L 405.581218 108.257864 
L 406.394768 106.957157 
L 407.208319 106.678434 
L 408.02187 110.487648 
L 408.83542 118.384797 
L 409.648971 116.71246 
L 410.462521 114.1575 
L 411.276072 115.829837 
L 412.089623 118.245436 
L 412.903173 115.50466 
L 413.716724 117.827352 
L 414.530274 121.079119 
L 415.343825 125.306417 
L 416.157376 123.912802 
L 416.970926 115.318845 
L 417.784477 120.196497 
L 418.598027 123.40181 
L 419.411578 123.40181 
L 420.225129 124.563156 
L 421.038679 124.888333 
L 421.85223 124.888333 
L 422.66578 127.76847 
L 423.479331 128.372369 
L 424.292882 128.372369 
L 425.106432 129.394353 
L 425.919983 131.206053 
L 426.733533 127.722016 
L 427.547084 128.604638 
L 428.360635 130.834422 
L 429.174185 135.572712 
L 429.987736 147.511344 
L 430.801286 153.503887 
L 431.614837 144.677661 
L 432.428388 145.931914 
L 433.241938 142.308516 
L 434.055489 140.311002 
L 434.869039 147.232621 
L 435.68259 142.912416 
L 436.496141 144.027308 
L 437.309691 148.06879 
L 438.123242 153.178711 
L 438.936792 152.156727 
L 439.750343 151.785096 
L 440.563894 156.384024 
L 441.377444 155.919486 
L 442.190995 157.684731 
L 443.004545 155.454948 
L 443.818096 154.525872 
L 444.631647 154.99041 
L 445.445197 152.714172 
L 446.258748 145.792553 
L 447.072298 147.09326 
L 447.885849 152.899988 
L 448.6994 152.899988 
L 449.51295 157.220193 
L 450.326501 163.677275 
L 451.140051 167.718757 
L 451.953602 164.281174 
L 452.767153 164.002451 
L 453.580703 164.281174 
L 454.394254 160.797138 
L 455.207804 156.337571 
L 456.021355 159.589338 
L 457.648456 163.166283 
L 458.462007 159.775153 
L 459.275557 159.635792 
L 460.089108 161.726214 
L 460.902659 167.672303 
L 461.716209 168.833649 
L 462.52976 162.004937 
L 463.34331 166.04642 
L 464.156861 163.630821 
L 464.970412 165.581881 
L 465.783962 170.784709 
L 466.597513 162.529075 
L 467.411063 165.099692 
L 468.224614 165.396301 
L 469.038165 171.674538 
L 469.851715 173.207021 
L 470.665266 182.253613 
L 471.478816 181.759264 
L 472.292367 178.990908 
L 473.105918 184.873664 
L 473.919468 184.280445 
L 474.733019 180.325651 
L 475.546569 178.545993 
L 476.36012 179.633562 
L 477.173671 179.979606 
L 477.987221 181.067175 
L 478.800772 183.242312 
L 479.614322 186.158973 
L 480.427873 192.190034 
L 481.241424 196.045959 
L 482.054974 195.798784 
L 482.868525 198.122226 
L 483.682075 196.540308 
L 484.495626 197.529007 
L 485.309177 194.908955 
L 486.122727 196.540308 
L 486.936278 190.657551 
L 487.749828 193.376473 
L 488.563379 188.13637 
L 489.37693 187.93863 
L 490.19048 189.965462 
L 491.004031 191.64625 
L 491.817581 192.239469 
L 492.631132 191.893425 
L 493.444683 195.304435 
L 494.258233 191.893425 
L 495.071784 194.216866 
L 495.885334 186.801627 
L 496.698885 183.884966 
L 497.512436 190.311507 
L 498.325986 192.239469 
L 499.139537 203.164589 
L 499.953087 204.499332 
L 500.766638 203.757808 
L 501.580189 202.17589 
L 502.393739 205.191421 
L 503.20729 205.586901 
L 504.02084 204.894812 
L 504.834391 205.191421 
L 505.647942 206.921644 
L 506.461492 208.948476 
L 507.275043 213.545925 
L 508.088593 206.37786 
L 508.902144 209.78887 
L 509.715695 206.526164 
L 510.529245 205.389161 
L 511.342796 205.339726 
L 512.156346 208.206952 
L 512.969897 207.415993 
L 513.783448 208.355257 
L 514.596998 207.465428 
L 515.410549 208.305822 
L 516.224099 210.036044 
L 517.03765 211.271918 
L 517.851201 213.743664 
L 518.664751 214.089709 
L 519.478302 211.024743 
L 520.291852 211.420223 
L 521.105403 212.013442 
L 521.918954 209.937175 
L 522.732504 203.856678 
L 523.546055 204.449897 
L 524.359605 202.67024 
L 525.173156 204.004983 
L 525.986707 203.658938 
L 526.800257 205.98238 
L 527.613808 207.465428 
L 528.427358 206.773339 
L 529.240909 209.442825 
L 529.240909 209.442825 
" clip-path="url(#pd8743a360c)" style="fill: none; stroke: #ffa500; stroke-width: 1.5; stroke-linecap: square"/>
   </g>
   <g id="line2d_36">
    <path d="M 98.059091 119.876971 
L 122.465609 119.876971 
L 123.27916 116.958507 
L 124.09271 120.351218 
L 124.906261 121.144975 
L 129.787564 121.144975 
L 130.601115 125.151929 
L 131.414666 125.931284 
L 135.482419 125.931284 
L 136.295969 128.654946 
L 137.10952 128.694674 
L 137.92307 126.628846 
L 138.736621 127.40377 
L 153.380532 127.40377 
L 154.194082 127.63582 
L 155.007633 138.060681 
L 155.821184 138.80131 
L 192.430961 138.80131 
L 193.244511 143.822064 
L 194.058062 143.449686 
L 194.871612 134.791897 
L 195.685163 121.898308 
L 196.498714 122.410327 
L 197.312264 131.673231 
L 198.125815 129.020037 
L 198.939365 130.32336 
L 199.752916 131.3474 
L 200.566467 136.374503 
L 201.380017 137.12019 
L 204.63422 137.12019 
L 205.44777 136.830237 
L 206.261321 138.852113 
L 207.074871 140.24496 
L 207.888422 141.862461 
L 208.701973 128.877527 
L 209.515523 123.395997 
L 210.329074 119.846482 
L 211.142624 122.587247 
L 211.956175 121.778497 
L 212.769726 122.567972 
L 216.837479 122.567972 
L 217.651029 126.74125 
L 218.46458 117.429278 
L 219.27813 120.439208 
L 220.091681 117.711459 
L 220.905232 117.147097 
L 221.718782 112.302991 
L 222.532333 111.738629 
L 223.345883 112.06784 
L 224.159434 104.401924 
L 224.972985 101.956355 
L 225.786535 91.51566 
L 226.600086 93.726077 
L 227.413636 96.500857 
L 228.227187 102.305074 
L 229.040738 102.305074 
L 229.854288 110.123977 
L 230.667839 110.948416 
L 235.549142 110.948416 
L 236.362693 115.398597 
L 237.176244 116.207212 
L 263.209863 116.207212 
L 264.023413 114.755889 
L 264.836964 112.114119 
L 266.464065 119.847298 
L 267.277616 124.938708 
L 268.091166 124.506419 
L 268.904717 124.890676 
L 269.718268 124.170193 
L 270.531818 128.445056 
L 271.345369 130.654536 
L 272.158919 120.567781 
L 272.97247 123.161518 
L 273.786021 121.960714 
L 274.599571 123.017421 
L 275.413122 121.960714 
L 276.226672 121.576456 
L 277.040223 120.711877 
L 277.853774 118.454365 
L 278.667324 123.161518 
L 279.480875 122.681196 
L 280.294425 121.43236 
L 281.107976 119.415009 
L 281.921527 117.061433 
L 282.735077 120.519749 
L 283.548628 121.720553 
L 285.175729 113.314924 
L 285.98928 118.358301 
L 286.80283 118.310269 
L 287.616381 123.978065 
L 288.429931 125.034772 
L 289.243482 130.270279 
L 290.057033 130.07815 
L 290.870583 128.925378 
L 291.684134 121.960714 
L 292.497684 116.821272 
L 293.311235 116.388982 
L 294.124786 108.271546 
L 294.938336 106.638452 
L 295.751887 107.791224 
L 296.565437 109.952672 
L 298.192539 106.350259 
L 299.006089 103.468329 
L 299.81964 104.81323 
L 300.63319 105.653601 
L 302.260292 105.653601 
L 303.073842 104.692205 
L 303.887393 100.801945 
L 304.700943 92.243372 
L 305.514494 93.121452 
L 317.717753 93.121452 
L 319.344854 94.739449 
L 339.683619 94.739449 
L 340.49717 91.125802 
L 341.31072 80.10205 
L 342.124271 85.660637 
L 342.937822 82.717856 
L 343.751372 82.717856 
L 344.564923 93.227789 
L 346.192024 81.690218 
L 347.005575 82.599958 
L 364.903688 82.599958 
L 365.717238 90.877774 
L 366.530789 89.69226 
L 367.34434 76.445427 
L 368.15789 77.370902 
L 375.479846 77.370902 
L 376.293396 78.764633 
L 377.106947 82.532907 
L 377.920497 70.914064 
L 378.734048 71.856133 
L 386.869554 71.856133 
L 387.683105 72.646025 
L 388.496655 74.089741 
L 389.310206 79.61569 
L 390.123756 77.873274 
L 390.937307 77.026957 
L 391.750858 78.022624 
L 392.564408 85.241206 
L 393.377959 90.368889 
L 394.191509 86.635139 
L 395.00506 83.598357 
L 395.818611 81.85594 
L 396.632161 81.85594 
L 397.445712 86.336439 
L 398.259262 88.128639 
L 399.072813 90.667589 
L 399.886364 87.182756 
L 400.699914 93.704372 
L 401.513465 96.293105 
L 402.327015 95.894838 
L 403.140566 88.676256 
L 403.954117 86.684923 
L 404.767667 86.436006 
L 405.581218 88.427339 
L 406.394768 87.033406 
L 407.208319 87.927116 
L 412.903173 87.927116 
L 413.716724 91.370893 
L 414.530274 92.251591 
L 426.733533 92.251591 
L 427.547084 94.130971 
L 428.360635 95.003389 
L 439.750343 95.003389 
L 440.563894 101.574982 
L 441.377444 100.999044 
L 442.190995 103.187611 
L 443.004545 104.032859 
L 462.52976 104.032859 
L 463.34331 109.952739 
L 464.156861 106.918109 
L 464.970412 109.369156 
L 465.783962 115.90528 
L 466.597513 116.712375 
L 489.37693 116.712375 
L 490.19048 120.268419 
L 491.004031 122.550043 
L 491.817581 123.337204 
L 495.071784 123.337204 
L 495.885334 113.981457 
L 496.698885 109.992842 
L 497.512436 118.781315 
L 498.325986 121.417857 
L 499.139537 136.358261 
L 499.953087 138.183559 
L 500.766638 137.169504 
L 501.580189 135.006188 
L 502.393739 135.75598 
L 506.461492 135.75598 
L 507.275043 142.993494 
L 508.088593 143.719324 
L 508.902144 143.719324 
L 509.715695 139.962989 
L 510.529245 138.401781 
L 511.342796 139.141387 
L 516.224099 139.141387 
L 517.03765 141.610387 
L 517.851201 145.073616 
L 518.664751 145.558468 
L 519.478302 141.264064 
L 520.291852 141.818181 
L 521.105403 142.649356 
L 521.918954 139.740244 
L 522.732504 131.220701 
L 523.546055 132.051876 
L 524.359605 129.558352 
L 525.173156 131.428495 
L 525.986707 130.943643 
L 526.800257 134.199078 
L 527.613808 136.277015 
L 528.427358 135.307311 
L 529.240909 139.047598 
L 529.240909 139.047598 
" clip-path="url(#pd8743a360c)" style="fill: none; stroke: #0000ff; stroke-width: 1.5; stroke-linecap: square"/>
   </g>
   <g id="line2d_37">
    <path d="M 98.059091 119.876971 
L 108.635249 119.876971 
L 110.26235 124.56744 
L 111.075901 123.706376 
L 111.889451 124.116407 
L 112.703002 134.121152 
L 113.516552 142.362766 
L 114.330103 143.63386 
L 115.143654 142.485775 
L 115.957204 143.592857 
L 116.770755 143.059818 
L 117.584305 141.132674 
L 118.397856 143.592857 
L 119.211407 149.374288 
L 120.024957 152.367511 
L 120.838508 147.898178 
L 121.652058 144.904955 
L 122.465609 148.59523 
L 123.27916 145.273983 
L 124.09271 148.308209 
L 124.906261 149.018094 
L 128.974014 149.018094 
L 129.787564 149.688005 
L 130.601115 152.564278 
L 131.414666 152.261512 
L 132.228216 152.959538 
L 133.041767 152.959538 
L 133.855317 149.953502 
L 134.668868 149.00052 
L 135.482419 146.691372 
L 136.295969 147.406108 
L 150.93988 147.406108 
L 151.753431 146.0432 
L 152.566981 146.759881 
L 163.95669 146.759881 
L 164.77024 151.086007 
L 165.583791 152.929426 
L 166.397341 146.044822 
L 167.210892 149.28021 
L 168.024443 153.305634 
L 168.837993 158.271578 
L 169.651544 158.121095 
L 170.465094 156.541022 
L 171.278645 157.226209 
L 172.092196 154.726354 
L 172.905746 154.879751 
L 173.719297 155.531688 
L 174.532847 143.37498 
L 175.346398 149.165715 
L 176.159949 157.794293 
L 176.973499 151.888511 
L 177.78705 156.260324 
L 179.414151 166.691317 
L 180.227702 176.316976 
L 181.041252 181.877615 
L 181.854803 183.833426 
L 182.668353 192.040163 
L 183.481904 187.16981 
L 184.295455 196.181881 
L 185.109005 188.818827 
L 185.922556 179.845105 
L 186.736106 182.337806 
L 187.549657 183.334886 
L 188.363208 185.213999 
L 189.176758 184.753808 
L 189.990309 185.559142 
L 190.803859 184.370316 
L 191.61741 185.67419 
L 192.430961 186.271978 
L 196.498714 186.271978 
L 197.312264 193.856572 
L 198.125815 194.429813 
L 237.176244 194.429813 
L 237.989794 192.181008 
L 238.803345 189.494984 
L 239.616895 188.722752 
L 240.430446 179.254516 
L 241.243997 183.216402 
L 242.057547 185.197345 
L 242.871098 184.08936 
L 243.684648 186.87611 
L 244.498199 185.331646 
L 245.31175 188.454149 
L 246.1253 187.916945 
L 246.938851 196.948702 
L 247.752401 192.852514 
L 248.565952 187.077562 
L 249.379503 187.144713 
L 250.193053 187.738089 
L 251.006604 186.446855 
L 251.820154 196.125264 
L 252.633705 197.380485 
L 253.447256 196.752874 
L 254.260806 188.726071 
L 255.074357 195.068237 
L 255.887907 196.951067 
L 256.701458 195.59675 
L 257.515009 196.092232 
L 258.328559 197.14926 
L 259.14211 199.230283 
L 259.95566 199.131187 
L 260.769211 199.688604 
L 277.040223 199.688604 
L 277.853774 198.666354 
L 278.667324 199.225165 
L 299.006089 199.225165 
L 299.81964 200.666998 
L 300.63319 201.07775 
L 301.446741 201.629328 
L 302.260292 201.629328 
L 303.073842 200.998316 
L 303.887393 201.550131 
L 307.141595 201.550131 
L 307.955146 191.677444 
L 308.768696 188.271094 
L 309.582247 193.191377 
L 310.395798 193.336948 
L 311.209348 193.911747 
L 312.022899 194.800473 
L 312.836449 193.250916 
L 313.65 188.659637 
L 314.463551 193.566567 
L 315.277101 190.094411 
L 316.090652 190.094411 
L 316.904202 189.090069 
L 317.717753 193.250916 
L 318.531304 193.16483 
L 319.344854 194.255258 
L 320.158405 194.827303 
L 334.802316 194.827303 
L 335.615866 195.681232 
L 336.429417 196.248998 
L 350.259777 196.248998 
L 351.073328 195.704835 
L 351.886878 196.272531 
L 355.141081 196.272531 
L 355.954631 200.088957 
L 356.768182 199.662133 
L 357.581732 189.155682 
L 358.395283 191.815127 
L 359.208834 192.570278 
L 360.022384 191.421135 
L 360.835935 192.001682 
L 368.971441 192.001682 
L 369.784991 191.848368 
L 370.598542 193.312607 
L 371.412093 197.609828 
L 372.225643 199.901679 
L 373.039194 204.7082 
L 373.852744 200.315485 
L 374.666295 198.341947 
L 375.479846 198.901732 
L 410.462521 198.901732 
L 412.089623 202.25997 
L 412.903173 200.382608 
L 413.716724 201.973593 
L 414.530274 202.522482 
L 415.343825 202.522482 
L 416.157376 202.09352 
L 416.970926 202.64205 
L 421.038679 202.64205 
L 421.85223 203.188934 
L 422.66578 205.201862 
L 423.479331 205.623927 
L 424.292882 205.623927 
L 425.106432 206.338192 
L 425.919983 207.604389 
L 426.733533 205.169395 
L 427.547084 205.78626 
L 428.360635 207.344656 
L 429.174185 207.877432 
L 429.987736 207.877432 
L 430.801286 212.864126 
L 431.614837 213.380344 
L 435.68259 213.380344 
L 436.496141 214.682922 
L 437.309691 217.539091 
L 438.123242 221.150339 
L 438.936792 220.428089 
L 439.750343 220.165453 
L 440.563894 223.415576 
L 441.377444 223.08728 
L 442.190995 224.334802 
L 443.004545 222.758985 
L 443.818096 223.245519 
L 456.021355 223.245519 
L 456.834906 225.026623 
L 457.648456 226.289422 
L 458.462007 223.863519 
L 459.275557 223.763824 
L 460.089108 224.247343 
L 466.597513 224.247343 
L 467.411063 226.581109 
L 468.224614 226.794766 
L 469.038165 227.269193 
L 469.851715 227.269193 
L 470.665266 234.45866 
L 471.478816 234.09164 
L 472.292367 232.036329 
L 473.105918 236.403866 
L 473.919468 235.963442 
L 474.733019 233.027282 
L 475.546569 231.706011 
L 476.36012 232.513455 
L 477.173671 232.770369 
L 477.987221 233.577812 
L 478.800772 235.1927 
L 479.614322 237.358118 
L 480.427873 241.835761 
L 481.241424 244.698516 
L 482.054974 244.515006 
L 482.868525 246.24 
L 483.682075 245.065536 
L 484.495626 245.799576 
L 485.309177 243.85437 
L 486.122727 245.065536 
L 486.936278 240.697999 
L 487.749828 242.716609 
L 488.563379 238.826197 
L 489.37693 238.679389 
L 490.19048 240.184171 
L 491.004031 241.432039 
L 491.817581 241.862553 
L 500.766638 241.862553 
L 501.580189 241.046308 
L 502.393739 243.420482 
L 503.20729 243.731849 
L 504.02084 243.186957 
L 504.834391 243.420482 
L 505.647942 244.782713 
L 506.461492 245.203175 
L 507.275043 245.203175 
L 508.088593 239.795842 
L 508.902144 242.568468 
L 509.715695 242.995574 
L 510.529245 242.995574 
L 511.342796 243.382434 
L 512.156346 245.642317 
L 512.969897 245.018901 
L 513.783448 245.759207 
L 514.596998 245.057864 
L 515.410549 245.477501 
L 529.240909 245.477501 
L 529.240909 245.477501 
" clip-path="url(#pd8743a360c)" style="fill: none; stroke: #008000; stroke-width: 1.5; stroke-linecap: square"/>
   </g>
   <g id="line2d_38">
    <path d="M 98.059091 119.876971 
L 101.313293 119.876971 
L 102.126844 121.163983 
L 102.940395 123.634186 
L 103.753945 124.548746 
L 107.008148 124.548746 
L 107.821698 103.004537 
L 108.635249 103.9913 
L 109.448799 106.58184 
L 110.26235 107.556083 
L 115.957204 107.556083 
L 116.770755 107.916428 
L 117.584305 105.709281 
L 118.397856 106.686577 
L 121.652058 106.686577 
L 122.465609 111.923329 
L 123.27916 108.086741 
L 124.09271 111.591772 
L 124.906261 111.591772 
L 125.719811 96.955899 
L 126.533362 97.963832 
L 128.974014 97.963832 
L 129.787564 98.922225 
L 130.601115 102.419186 
L 131.414666 102.051085 
L 132.228216 95.103175 
L 133.041767 96.117593 
L 133.855317 92.521702 
L 134.668868 93.545155 
L 135.482419 93.545155 
L 136.295969 96.753983 
L 137.10952 96.798655 
L 137.92307 94.475681 
L 138.736621 95.492295 
L 139.550172 94.803426 
L 140.363722 95.818893 
L 144.431475 95.818893 
L 145.245026 90.533406 
L 146.058576 91.563818 
L 146.872127 88.001468 
L 147.685678 89.040742 
L 157.448285 89.040742 
L 158.261835 88.246695 
L 159.075386 89.285111 
L 159.888937 89.285111 
L 160.702487 81.685385 
L 161.516038 82.746766 
L 164.77024 82.746766 
L 165.583791 86.178222 
L 166.397341 77.312838 
L 167.210892 81.479084 
L 168.024443 86.662669 
L 168.837993 87.706629 
L 169.651544 88.550294 
L 170.465094 89.587647 
L 177.78705 89.587647 
L 178.6006 97.580698 
L 179.414151 104.046458 
L 180.227702 105.029574 
L 185.109005 105.029574 
L 185.922556 93.246431 
L 186.736106 96.791659 
L 187.549657 98.20975 
L 188.363208 99.213294 
L 189.176758 99.557282 
L 189.990309 100.70536 
L 190.803859 99.010578 
L 191.61741 100.869372 
L 192.430961 96.71442 
L 193.244511 101.744098 
L 194.058062 102.735273 
L 194.871612 93.640909 
L 195.685163 78.626214 
L 196.498714 79.698301 
L 197.312264 79.698301 
L 198.125815 77.580144 
L 198.939365 79.145438 
L 199.752916 80.215708 
L 203.007118 80.215708 
L 203.820669 81.674768 
L 204.63422 76.571801 
L 205.44777 75.28204 
L 206.261321 76.365831 
L 208.701973 76.365831 
L 209.515523 70.863289 
L 210.329074 71.962546 
L 211.142624 76.282467 
L 211.956175 77.362757 
L 216.837479 77.362757 
L 217.651029 82.406872 
L 218.46458 71.495956 
L 219.27813 72.592999 
L 220.091681 72.592999 
L 220.905232 73.028862 
L 221.718782 74.12054 
L 232.29494 74.12054 
L 233.108491 71.047388 
L 233.922041 72.146001 
L 240.430446 72.146001 
L 241.243997 79.244709 
L 242.057547 82.246678 
L 242.871098 80.567611 
L 243.684648 84.790721 
L 244.498199 82.450202 
L 245.31175 83.508905 
L 253.447256 83.508905 
L 254.260806 71.751787 
L 255.074357 72.847935 
L 257.515009 72.847935 
L 258.328559 75.681 
L 259.14211 79.10811 
L 259.95566 80.17851 
L 260.769211 80.17851 
L 261.582762 83.564657 
L 262.396312 84.619459 
L 263.209863 84.619459 
L 264.023413 83.148965 
L 264.836964 80.19815 
L 265.650515 81.264735 
L 266.464065 81.264735 
L 267.277616 88.139615 
L 268.091166 89.178406 
L 268.904717 89.178406 
L 269.718268 89.397001 
L 270.531818 90.431391 
L 273.786021 90.431391 
L 274.599571 92.641419 
L 275.413122 93.664453 
L 278.667324 93.664453 
L 279.480875 94.151332 
L 280.294425 92.766639 
L 281.107976 93.789235 
L 281.921527 92.236561 
L 282.735077 96.015371 
L 283.548628 97.026596 
L 284.362178 93.584151 
L 285.175729 94.603885 
L 286.80283 94.603885 
L 287.616381 101.770182 
L 288.429931 102.761265 
L 295.751887 102.761265 
L 296.565437 105.941854 
L 297.378988 103.992544 
L 298.192539 104.975849 
L 302.260292 104.975849 
L 303.073842 104.153005 
L 303.887393 100.25526 
L 304.700943 101.251645 
L 305.514494 101.251645 
L 306.328045 92.119799 
L 307.141595 89.200105 
L 307.955146 72.341228 
L 308.768696 66.831483 
L 309.582247 74.790003 
L 310.395798 75.875517 
L 316.904202 75.875517 
L 317.717753 83.500388 
L 318.531304 83.365012 
L 319.344854 85.079771 
L 320.158405 84.132141 
L 320.971955 84.222391 
L 321.785506 85.274892 
L 324.226158 85.274892 
L 325.039708 90.651435 
L 325.853259 100.778315 
L 326.66681 101.77287 
L 333.175214 101.77287 
L 333.988765 105.506646 
L 334.802316 106.484651 
L 349.446226 106.484651 
L 350.259777 115.926446 
L 351.073328 116.867982 
L 359.208834 116.867982 
L 360.022384 116.210461 
L 360.835935 117.151003 
L 361.649485 117.226574 
L 362.463036 118.16356 
L 375.479846 118.16356 
L 376.293396 119.505622 
L 377.106947 122.772468 
L 377.920497 112.699694 
L 378.734048 113.652524 
L 380.361149 113.652524 
L 381.1747 110.366773 
L 381.98825 111.327769 
L 384.428902 111.219315 
L 385.242453 112.177326 
L 386.869554 112.177326 
L 387.683105 113.001934 
L 388.496655 114.259086 
L 389.310206 115.206458 
L 396.632161 115.206458 
L 397.445712 120.124031 
L 398.259262 121.050875 
L 411.276072 121.050875 
L 412.089623 124.334919 
L 412.903173 121.656724 
L 413.716724 122.578205 
L 414.530274 126.679212 
L 415.343825 127.583114 
L 416.970926 127.583114 
L 417.784477 133.123336 
L 418.598027 136.172139 
L 419.411578 136.172139 
L 420.225129 137.042816 
L 421.038679 137.042816 
L 422.66578 138.775037 
L 423.479331 138.775037 
L 425.919983 141.468849 
L 426.733533 138.989572 
L 427.547084 139.83353 
L 428.360635 141.965636 
L 429.174185 146.49636 
L 429.987736 147.330902 
L 432.428388 147.330902 
L 433.241938 144.572941 
L 434.055489 142.59407 
L 434.869039 143.442269 
L 440.563894 143.442269 
L 441.377444 143.798376 
L 442.190995 145.657049 
L 443.004545 143.309251 
L 443.818096 142.331002 
L 444.631647 142.820126 
L 445.445197 143.667535 
L 458.462007 143.667535 
L 459.275557 144.363169 
L 460.089108 146.595296 
L 460.902659 152.944456 
L 461.716209 153.75643 
L 464.970412 153.75643 
L 465.783962 160.029683 
L 466.597513 160.816858 
L 473.105918 160.816858 
L 473.919468 160.939052 
L 474.733019 156.524215 
L 475.546569 157.323659 
L 476.36012 159.315506 
L 477.173671 160.105181 
L 479.614322 160.105181 
L 480.427873 167.689769 
L 481.241424 168.450133 
L 482.868525 168.450133 
L 483.682075 167.381076 
L 484.495626 168.522802 
L 485.309177 165.497229 
L 486.122727 166.265268 
L 488.563379 166.265268 
L 489.37693 166.811672 
L 490.19048 169.055871 
L 491.004031 170.916914 
L 491.817581 171.573752 
L 492.631132 171.190597 
L 493.444683 171.938708 
L 495.885334 171.938708 
L 496.698885 169.559724 
L 497.512436 170.313544 
L 498.325986 170.313544 
L 499.139537 183.190363 
L 499.953087 184.671776 
L 500.766638 183.848769 
L 501.580189 184.552577 
L 504.834391 184.552577 
L 506.461492 189.427712 
L 507.275043 190.111994 
L 509.715695 190.111994 
L 510.529245 189.556617 
L 511.342796 189.502823 
L 512.156346 192.622881 
L 512.969897 191.762175 
L 513.783448 192.784263 
L 514.596998 191.815969 
L 515.410549 192.491892 
L 516.224099 195.043983 
L 517.03765 196.385792 
L 517.851201 199.069411 
L 518.664751 199.719947 
L 524.359605 199.719947 
L 525.173156 201.719807 
L 525.986707 201.369392 
L 526.800257 203.722178 
L 527.613808 205.223957 
L 528.427358 205.852952 
L 529.240909 205.852952 
L 529.240909 205.852952 
" clip-path="url(#pd8743a360c)" style="fill: none; stroke: #800080; stroke-width: 1.5; stroke-linecap: square"/>
   </g>
   <g id="line2d_39">
    <path d="M 98.059091 119.876971 
L 104.567496 119.876971 
L 105.381046 108.554349 
L 106.194597 111.905004 
L 107.008148 111.765394 
L 107.821698 88.124663 
L 108.635249 85.006692 
L 109.448799 86.728557 
L 110.26235 89.427695 
L 111.075901 88.450421 
L 111.889451 88.746907 
L 156.634734 88.746907 
L 157.448285 82.89166 
L 158.261835 81.017394 
L 159.075386 85.150391 
L 159.888937 85.450177 
L 169.651544 85.450177 
L 170.465094 83.665428 
L 171.278645 91.158754 
L 172.092196 87.039906 
L 172.905746 87.337803 
L 183.481904 87.337803 
L 184.295455 101.183169 
L 185.109005 90.114355 
L 185.922556 76.624238 
L 186.736106 76.93255 
L 198.125815 76.93255 
L 198.939365 78.807578 
L 199.752916 80.038811 
L 200.566467 86.083045 
L 201.380017 81.605834 
L 202.193568 81.909165 
L 252.633705 81.909165 
L 253.447256 81.199201 
L 254.260806 68.243568 
L 255.074357 68.560261 
L 267.277616 68.560261 
L 268.091166 68.351136 
L 268.904717 68.818248 
L 269.718268 69.134367 
L 270.531818 74.622082 
L 271.345369 74.932397 
L 272.158919 74.932397 
L 272.97247 78.280828 
L 273.786021 76.874149 
L 274.599571 78.112026 
L 275.413122 76.874149 
L 276.226672 77.182211 
L 290.057033 77.182211 
L 290.870583 76.099328 
L 291.684134 67.697557 
L 292.497684 61.49763 
L 293.311235 61.821069 
L 327.48036 61.821069 
L 328.293911 57.160756 
L 329.107461 62.503814 
L 329.921012 71.597288 
L 330.734563 71.910628 
L 416.157376 71.910628 
L 416.970926 61.927883 
L 417.784477 67.771428 
L 418.598027 71.611473 
L 419.411578 71.924798 
L 430.801286 71.924798 
L 431.614837 60.312316 
L 432.428388 62.006991 
L 433.241938 57.111262 
L 434.055489 54.412334 
L 434.869039 54.742859 
L 473.105918 54.742859 
L 473.919468 54.094954 
L 474.733019 47.574296 
L 475.546569 44.64 
L 476.36012 46.433181 
L 477.173671 46.771685 
L 497.512436 46.771685 
L 498.325986 50.45637 
L 499.139537 69.419988 
L 499.953087 71.73681 
L 500.766638 70.449687 
L 501.580189 67.703824 
L 502.393739 72.938125 
L 503.20729 73.624591 
L 504.02084 73.935904 
L 508.902144 73.935904 
L 509.715695 68.459285 
L 510.529245 66.442387 
L 511.342796 66.354696 
L 512.156346 66.673278 
L 519.478302 66.673278 
L 521.105403 68.799076 
L 521.918954 65.003254 
L 522.732504 65.323188 
L 523.546055 66.68881 
L 524.359605 63.550785 
L 525.173156 65.904303 
L 525.986707 65.294132 
L 526.800257 65.613775 
L 529.240909 65.613775 
L 529.240909 65.613775 
" clip-path="url(#pd8743a360c)" style="fill: none; stroke: #ff0000; stroke-width: 1.5; stroke-linecap: square"/>
   </g>
   <g id="patch_3">
    <path d="M 76.5 256.32 
L 76.5 34.56 
" style="fill: none; stroke: #000000; stroke-width: 0.8; stroke-linejoin: miter; stroke-linecap: square"/>
   </g>
   <g id="patch_4">
    <path d="M 550.8 256.32 
L 550.8 34.56 
" style="fill: none; stroke: #000000; stroke-width: 0.8; stroke-linejoin: miter; stroke-linecap: square"/>
   </g>
   <g id="patch_5">
    <path d="M 76.5 256.32 
L 550.8 256.32 
" style="fill: none; stroke: #000000; stroke-width: 0.8; stroke-linejoin: miter; stroke-linecap: square"/>
   </g>
   <g id="patch_6">
    <path d="M 76.5 34.56 
L 550.8 34.56 
" style="fill: none; stroke: #000000; stroke-width: 0.8; stroke-linejoin: miter; stroke-linecap: square"/>
   </g>
   <g id="legend_1">
    <g id="patch_7">
     <path d="M 83.5 251.32 
L 157.728125 251.32 
Q 159.728125 251.32 159.728125 249.32 
L 159.728125 179.624687 
Q 159.728125 177.624687 157.728125 177.624687 
L 83.5 177.624687 
Q 81.5 177.624687 81.5 179.624687 
L 81.5 249.32 
Q 81.5 251.32 83.5 251.32 
z
" style="fill: #ffffff; opacity: 0.8; stroke: #cccccc; stroke-linejoin: miter"/>
    </g>
    <g id="line2d_40">
     <path d="M 85.5 185.124687 
L 95.5 185.124687 
L 105.5 185.124687 
" style="fill: none; stroke: #ffa500; stroke-width: 1.5; stroke-linecap: square"/>
    </g>
    <g id="text_20">
     <!-- Market -->
     <g transform="translate(113.5 188.624687)scale(0.1 -0.1)">
      <defs>
       <path id="TimesNewRomanPSMT-4d" d="M 2619 0 
L 981 3566 
L 981 734 
Q 981 344 1066 247 
Q 1181 116 1431 116 
L 1581 116 
L 1581 0 
L 106 0 
L 106 116 
L 256 116 
Q 525 116 638 278 
Q 706 378 706 734 
L 706 3503 
Q 706 3784 644 3909 
Q 600 4000 483 4061 
Q 366 4122 106 4122 
L 106 4238 
L 1306 4238 
L 2844 922 
L 4356 4238 
L 5556 4238 
L 5556 4122 
L 5409 4122 
Q 5138 4122 5025 3959 
Q 4956 3859 4956 3503 
L 4956 734 
Q 4956 344 5044 247 
Q 5159 116 5409 116 
L 5556 116 
L 5556 0 
L 3756 0 
L 3756 116 
L 3906 116 
Q 4178 116 4288 278 
Q 4356 378 4356 734 
L 4356 3566 
L 2722 0 
L 2619 0 
z
" transform="scale(0.015625)"/>
       <path id="TimesNewRomanPSMT-61" d="M 1822 413 
Q 1381 72 1269 19 
Q 1100 -59 909 -59 
Q 613 -59 420 144 
Q 228 347 228 678 
Q 228 888 322 1041 
Q 450 1253 767 1440 
Q 1084 1628 1822 1897 
L 1822 2009 
Q 1822 2438 1686 2597 
Q 1550 2756 1291 2756 
Q 1094 2756 978 2650 
Q 859 2544 859 2406 
L 866 2225 
Q 866 2081 792 2003 
Q 719 1925 600 1925 
Q 484 1925 411 2006 
Q 338 2088 338 2228 
Q 338 2497 613 2722 
Q 888 2947 1384 2947 
Q 1766 2947 2009 2819 
Q 2194 2722 2281 2516 
Q 2338 2381 2338 1966 
L 2338 994 
Q 2338 584 2353 492 
Q 2369 400 2405 369 
Q 2441 338 2488 338 
Q 2538 338 2575 359 
Q 2641 400 2828 588 
L 2828 413 
Q 2478 -56 2159 -56 
Q 2006 -56 1915 50 
Q 1825 156 1822 413 
z
M 1822 616 
L 1822 1706 
Q 1350 1519 1213 1441 
Q 966 1303 859 1153 
Q 753 1003 753 825 
Q 753 600 887 451 
Q 1022 303 1197 303 
Q 1434 303 1822 616 
z
" transform="scale(0.015625)"/>
       <path id="TimesNewRomanPSMT-72" d="M 1038 2947 
L 1038 2303 
Q 1397 2947 1775 2947 
Q 1947 2947 2059 2842 
Q 2172 2738 2172 2600 
Q 2172 2478 2090 2393 
Q 2009 2309 1897 2309 
Q 1788 2309 1652 2417 
Q 1516 2525 1450 2525 
Q 1394 2525 1328 2463 
Q 1188 2334 1038 2041 
L 1038 669 
Q 1038 431 1097 309 
Q 1138 225 1241 169 
Q 1344 113 1538 113 
L 1538 0 
L 72 0 
L 72 113 
Q 291 113 397 181 
Q 475 231 506 341 
Q 522 394 522 644 
L 522 1753 
Q 522 2253 501 2348 
Q 481 2444 426 2487 
Q 372 2531 291 2531 
Q 194 2531 72 2484 
L 41 2597 
L 906 2947 
L 1038 2947 
z
" transform="scale(0.015625)"/>
       <path id="TimesNewRomanPSMT-6b" d="M 1047 4444 
L 1047 1597 
L 1775 2259 
Q 2006 2472 2044 2528 
Q 2069 2566 2069 2603 
Q 2069 2666 2017 2711 
Q 1966 2756 1847 2763 
L 1847 2863 
L 3091 2863 
L 3091 2763 
Q 2834 2756 2664 2684 
Q 2494 2613 2291 2428 
L 1556 1750 
L 2291 822 
Q 2597 438 2703 334 
Q 2853 188 2966 144 
Q 3044 113 3238 113 
L 3238 0 
L 1847 0 
L 1847 113 
Q 1966 116 2008 148 
Q 2050 181 2050 241 
Q 2050 313 1925 472 
L 1047 1594 
L 1047 644 
Q 1047 366 1086 278 
Q 1125 191 1197 153 
Q 1269 116 1509 113 
L 1509 0 
L 53 0 
L 53 113 
Q 272 113 381 166 
Q 447 200 481 272 
Q 528 375 528 628 
L 528 3234 
Q 528 3731 506 3842 
Q 484 3953 434 3995 
Q 384 4038 303 4038 
Q 238 4038 106 3984 
L 53 4094 
L 903 4444 
L 1047 4444 
z
" transform="scale(0.015625)"/>
       <path id="TimesNewRomanPSMT-65" d="M 681 1784 
Q 678 1147 991 784 
Q 1303 422 1725 422 
Q 2006 422 2214 576 
Q 2422 731 2563 1106 
L 2659 1044 
Q 2594 616 2278 264 
Q 1963 -88 1488 -88 
Q 972 -88 605 314 
Q 238 716 238 1394 
Q 238 2128 614 2539 
Q 991 2950 1559 2950 
Q 2041 2950 2350 2633 
Q 2659 2316 2659 1784 
L 681 1784 
z
M 681 1966 
L 2006 1966 
Q 1991 2241 1941 2353 
Q 1863 2528 1708 2628 
Q 1553 2728 1384 2728 
Q 1125 2728 920 2526 
Q 716 2325 681 1966 
z
" transform="scale(0.015625)"/>
       <path id="TimesNewRomanPSMT-74" d="M 1031 3803 
L 1031 2863 
L 1700 2863 
L 1700 2644 
L 1031 2644 
L 1031 788 
Q 1031 509 1111 412 
Q 1191 316 1316 316 
Q 1419 316 1516 380 
Q 1613 444 1666 569 
L 1788 569 
Q 1678 263 1478 108 
Q 1278 -47 1066 -47 
Q 922 -47 784 33 
Q 647 113 581 261 
Q 516 409 516 719 
L 516 2644 
L 63 2644 
L 63 2747 
Q 234 2816 414 2980 
Q 594 3144 734 3369 
Q 806 3488 934 3803 
L 1031 3803 
z
" transform="scale(0.015625)"/>
      </defs>
      <use xlink:href="#TimesNewRomanPSMT-4d"/>
      <use xlink:href="#TimesNewRomanPSMT-61" x="88.916016"/>
      <use xlink:href="#TimesNewRomanPSMT-72" x="133.300781"/>
      <use xlink:href="#TimesNewRomanPSMT-6b" x="166.601562"/>
      <use xlink:href="#TimesNewRomanPSMT-65" x="216.601562"/>
      <use xlink:href="#TimesNewRomanPSMT-74" x="260.986328"/>
     </g>
    </g>
    <g id="line2d_41">
     <path d="M 85.5 199.26375 
L 95.5 199.26375 
L 105.5 199.26375 
" style="fill: none; stroke: #0000ff; stroke-width: 1.5; stroke-linecap: square"/>
    </g>
    <g id="text_21">
     <!-- BC -->
     <g transform="translate(113.5 202.76375)scale(0.1 -0.1)">
      <defs>
       <path id="TimesNewRomanPSMT-42" d="M 2956 2163 
Q 3397 2069 3616 1863 
Q 3919 1575 3919 1159 
Q 3919 844 3719 555 
Q 3519 266 3170 133 
Q 2822 0 2106 0 
L 106 0 
L 106 116 
L 266 116 
Q 531 116 647 284 
Q 719 394 719 750 
L 719 3488 
Q 719 3881 628 3984 
Q 506 4122 266 4122 
L 106 4122 
L 106 4238 
L 1938 4238 
Q 2450 4238 2759 4163 
Q 3228 4050 3475 3764 
Q 3722 3478 3722 3106 
Q 3722 2788 3528 2536 
Q 3334 2284 2956 2163 
z
M 1319 2331 
Q 1434 2309 1582 2298 
Q 1731 2288 1909 2288 
Q 2366 2288 2595 2386 
Q 2825 2484 2947 2687 
Q 3069 2891 3069 3131 
Q 3069 3503 2766 3765 
Q 2463 4028 1881 4028 
Q 1569 4028 1319 3959 
L 1319 2331 
z
M 1319 306 
Q 1681 222 2034 222 
Q 2600 222 2897 476 
Q 3194 731 3194 1106 
Q 3194 1353 3059 1581 
Q 2925 1809 2622 1940 
Q 2319 2072 1872 2072 
Q 1678 2072 1540 2065 
Q 1403 2059 1319 2044 
L 1319 306 
z
" transform="scale(0.015625)"/>
       <path id="TimesNewRomanPSMT-43" d="M 3853 4334 
L 3950 2894 
L 3853 2894 
Q 3659 3541 3300 3825 
Q 2941 4109 2438 4109 
Q 2016 4109 1675 3895 
Q 1334 3681 1139 3212 
Q 944 2744 944 2047 
Q 944 1472 1128 1050 
Q 1313 628 1683 403 
Q 2053 178 2528 178 
Q 2941 178 3256 354 
Q 3572 531 3950 1056 
L 4047 994 
Q 3728 428 3303 165 
Q 2878 -97 2294 -97 
Q 1241 -97 663 684 
Q 231 1266 231 2053 
Q 231 2688 515 3219 
Q 800 3750 1298 4042 
Q 1797 4334 2388 4334 
Q 2847 4334 3294 4109 
Q 3425 4041 3481 4041 
Q 3566 4041 3628 4100 
Q 3709 4184 3744 4334 
L 3853 4334 
z
" transform="scale(0.015625)"/>
      </defs>
      <use xlink:href="#TimesNewRomanPSMT-42"/>
      <use xlink:href="#TimesNewRomanPSMT-43" x="66.699219"/>
     </g>
    </g>
    <g id="line2d_42">
     <path d="M 85.5 213.402813 
L 95.5 213.402813 
L 105.5 213.402813 
" style="fill: none; stroke: #008000; stroke-width: 1.5; stroke-linecap: square"/>
    </g>
    <g id="text_22">
     <!-- DQN -->
     <g transform="translate(113.5 216.902813)scale(0.1 -0.1)">
      <defs>
       <path id="TimesNewRomanPSMT-44" d="M 109 0 
L 109 116 
L 269 116 
Q 538 116 650 288 
Q 719 391 719 750 
L 719 3488 
Q 719 3884 631 3984 
Q 509 4122 269 4122 
L 109 4122 
L 109 4238 
L 1834 4238 
Q 2784 4238 3279 4022 
Q 3775 3806 4076 3303 
Q 4378 2800 4378 2141 
Q 4378 1256 3841 663 
Q 3238 0 2003 0 
L 109 0 
z
M 1319 306 
Q 1716 219 1984 219 
Q 2709 219 3187 728 
Q 3666 1238 3666 2109 
Q 3666 2988 3187 3494 
Q 2709 4000 1959 4000 
Q 1678 4000 1319 3909 
L 1319 306 
z
" transform="scale(0.015625)"/>
       <path id="TimesNewRomanPSMT-51" d="M 2819 -47 
Q 3138 -597 3508 -856 
Q 3878 -1116 4350 -1153 
L 4350 -1253 
Q 3919 -1238 3428 -1080 
Q 2938 -922 2498 -642 
Q 2059 -363 1741 -47 
Q 1291 134 1028 338 
Q 647 641 436 1083 
Q 225 1525 225 2128 
Q 225 3078 840 3706 
Q 1456 4334 2331 4334 
Q 3163 4334 3770 3704 
Q 4378 3075 4378 2116 
Q 4378 1338 3945 750 
Q 3513 163 2819 -47 
z
M 2294 4094 
Q 1725 4094 1378 3688 
Q 941 3178 941 2128 
Q 941 1100 1384 544 
Q 1728 116 2294 116 
Q 2881 116 3241 544 
Q 3663 1050 3663 2038 
Q 3663 2797 3431 3316 
Q 3253 3716 2958 3905 
Q 2663 4094 2294 4094 
z
" transform="scale(0.015625)"/>
       <path id="TimesNewRomanPSMT-4e" d="M -84 4238 
L 1066 4238 
L 3656 1059 
L 3656 3503 
Q 3656 3894 3569 3991 
Q 3453 4122 3203 4122 
L 3056 4122 
L 3056 4238 
L 4531 4238 
L 4531 4122 
L 4381 4122 
Q 4113 4122 4000 3959 
Q 3931 3859 3931 3503 
L 3931 -69 
L 3819 -69 
L 1025 3344 
L 1025 734 
Q 1025 344 1109 247 
Q 1228 116 1475 116 
L 1625 116 
L 1625 0 
L 150 0 
L 150 116 
L 297 116 
Q 569 116 681 278 
Q 750 378 750 734 
L 750 3681 
Q 566 3897 470 3965 
Q 375 4034 191 4094 
Q 100 4122 -84 4122 
L -84 4238 
z
" transform="scale(0.015625)"/>
      </defs>
      <use xlink:href="#TimesNewRomanPSMT-44"/>
      <use xlink:href="#TimesNewRomanPSMT-51" x="72.216797"/>
      <use xlink:href="#TimesNewRomanPSMT-4e" x="144.433594"/>
     </g>
    </g>
    <g id="line2d_43">
     <path d="M 85.5 227.541875 
L 95.5 227.541875 
L 105.5 227.541875 
" style="fill: none; stroke: #800080; stroke-width: 1.5; stroke-linecap: square"/>
    </g>
    <g id="text_23">
     <!-- DDQN -->
     <g transform="translate(113.5 231.041875)scale(0.1 -0.1)">
      <use xlink:href="#TimesNewRomanPSMT-44"/>
      <use xlink:href="#TimesNewRomanPSMT-44" x="72.216797"/>
      <use xlink:href="#TimesNewRomanPSMT-51" x="144.433594"/>
      <use xlink:href="#TimesNewRomanPSMT-4e" x="216.650391"/>
     </g>
    </g>
    <g id="line2d_44">
     <path d="M 85.5 241.680937 
L 95.5 241.680937 
L 105.5 241.680937 
" style="fill: none; stroke: #ff0000; stroke-width: 1.5; stroke-linecap: square"/>
    </g>
    <g id="text_24">
     <!-- BCDDQN -->
     <g transform="translate(113.5 245.180937)scale(0.1 -0.1)">
      <use xlink:href="#TimesNewRomanPSMT-42"/>
      <use xlink:href="#TimesNewRomanPSMT-43" x="66.699219"/>
      <use xlink:href="#TimesNewRomanPSMT-44" x="133.398438"/>
      <use xlink:href="#TimesNewRomanPSMT-44" x="205.615234"/>
      <use xlink:href="#TimesNewRomanPSMT-51" x="277.832031"/>
      <use xlink:href="#TimesNewRomanPSMT-4e" x="350.048828"/>
     </g>
    </g>
   </g>
  </g>
 </g>
 <defs>
  <clipPath id="pd8743a360c">
   <rect x="76.5" y="34.56" width="474.3" height="221.76"/>
  </clipPath>
 </defs>
</svg>
