<?xml version="1.0" encoding="utf-8" standalone="no"?>
<!DOCTYPE svg PUBLIC "-//W3C//DTD SVG 1.1//EN"
  "http://www.w3.org/Graphics/SVG/1.1/DTD/svg11.dtd">
<svg xmlns:xlink="http://www.w3.org/1999/xlink" width="612pt" height="288pt" viewBox="0 0 612 288" xmlns="http://www.w3.org/2000/svg" version="1.1">
 <metadata>
  <rdf:RDF xmlns:dc="http://purl.org/dc/elements/1.1/" xmlns:cc="http://creativecommons.org/ns#" xmlns:rdf="http://www.w3.org/1999/02/22-rdf-syntax-ns#">
   <cc:Work>
    <dc:type rdf:resource="http://purl.org/dc/dcmitype/StillImage"/>
    <dc:date>2022-11-04T14:37:03.368913</dc:date>
    <dc:format>image/svg+xml</dc:format>
    <dc:creator>
     <cc:Agent>
      <dc:title>Matplotlib v3.5.1, https://matplotlib.org/</dc:title>
     </cc:Agent>
    </dc:creator>
   </cc:Work>
  </rdf:RDF>
 </metadata>
 <defs>
  <style type="text/css">*{stroke-linejoin: round; stroke-linecap: butt}</style>
 </defs>
 <g id="figure_1">
  <g id="patch_1">
   <path d="M 0 288 
L 612 288 
L 612 0 
L 0 0 
z
" style="fill: #ffffff"/>
  </g>
  <g id="axes_1">
   <g id="patch_2">
    <path d="M 76.5 256.32 
L 550.8 256.32 
L 550.8 34.56 
L 76.5 34.56 
z
" style="fill: #ffffff"/>
   </g>
   <g id="matplotlib.axis_1">
    <g id="xtick_1">
     <g id="line2d_1">
      <path d="M 98.059091 256.32 
L 98.059091 34.56 
" clip-path="url(#p38c2f31973)" style="fill: none; stroke: #b0b0b0; stroke-width: 0.8; stroke-linecap: square"/>
     </g>
     <g id="line2d_2">
      <defs>
       <path id="m9f8563cdb2" d="M 0 0 
L 0 -3.5 
" style="stroke: #000000; stroke-width: 0.8"/>
      </defs>
      <g>
       <use xlink:href="#m9f8563cdb2" x="98.059091" y="256.32" style="stroke: #000000; stroke-width: 0.8"/>
      </g>
     </g>
     <g id="text_1">
      <!-- 2019-10-16 -->
      <g transform="translate(74.729403 266.76375)scale(0.1 -0.1)">
       <defs>
        <path id="TimesNewRomanPSMT-32" d="M 2934 816 
L 2638 0 
L 138 0 
L 138 116 
Q 1241 1122 1691 1759 
Q 2141 2397 2141 2925 
Q 2141 3328 1894 3587 
Q 1647 3847 1303 3847 
Q 991 3847 742 3664 
Q 494 3481 375 3128 
L 259 3128 
Q 338 3706 661 4015 
Q 984 4325 1469 4325 
Q 1984 4325 2329 3994 
Q 2675 3663 2675 3213 
Q 2675 2891 2525 2569 
Q 2294 2063 1775 1497 
Q 997 647 803 472 
L 1909 472 
Q 2247 472 2383 497 
Q 2519 522 2628 598 
Q 2738 675 2819 816 
L 2934 816 
z
" transform="scale(0.015625)"/>
        <path id="TimesNewRomanPSMT-30" d="M 231 2094 
Q 231 2819 450 3342 
Q 669 3866 1031 4122 
Q 1313 4325 1613 4325 
Q 2100 4325 2488 3828 
Q 2972 3213 2972 2159 
Q 2972 1422 2759 906 
Q 2547 391 2217 158 
Q 1888 -75 1581 -75 
Q 975 -75 572 641 
Q 231 1244 231 2094 
z
M 844 2016 
Q 844 1141 1059 588 
Q 1238 122 1591 122 
Q 1759 122 1940 273 
Q 2122 425 2216 781 
Q 2359 1319 2359 2297 
Q 2359 3022 2209 3506 
Q 2097 3866 1919 4016 
Q 1791 4119 1609 4119 
Q 1397 4119 1231 3928 
Q 1006 3669 925 3112 
Q 844 2556 844 2016 
z
" transform="scale(0.015625)"/>
        <path id="TimesNewRomanPSMT-31" d="M 750 3822 
L 1781 4325 
L 1884 4325 
L 1884 747 
Q 1884 391 1914 303 
Q 1944 216 2037 169 
Q 2131 122 2419 116 
L 2419 0 
L 825 0 
L 825 116 
Q 1125 122 1212 167 
Q 1300 213 1334 289 
Q 1369 366 1369 747 
L 1369 3034 
Q 1369 3497 1338 3628 
Q 1316 3728 1258 3775 
Q 1200 3822 1119 3822 
Q 1003 3822 797 3725 
L 750 3822 
z
" transform="scale(0.015625)"/>
        <path id="TimesNewRomanPSMT-39" d="M 338 -88 
L 338 28 
Q 744 34 1094 217 
Q 1444 400 1770 856 
Q 2097 1313 2225 1859 
Q 1734 1544 1338 1544 
Q 891 1544 572 1889 
Q 253 2234 253 2806 
Q 253 3363 572 3797 
Q 956 4325 1575 4325 
Q 2097 4325 2469 3894 
Q 2925 3359 2925 2575 
Q 2925 1869 2578 1258 
Q 2231 647 1613 244 
Q 1109 -88 516 -88 
L 338 -88 
z
M 2275 2091 
Q 2331 2497 2331 2741 
Q 2331 3044 2228 3395 
Q 2125 3747 1936 3934 
Q 1747 4122 1506 4122 
Q 1228 4122 1018 3872 
Q 809 3622 809 3128 
Q 809 2469 1088 2097 
Q 1291 1828 1588 1828 
Q 1731 1828 1928 1897 
Q 2125 1966 2275 2091 
z
" transform="scale(0.015625)"/>
        <path id="TimesNewRomanPSMT-2d" d="M 259 1672 
L 1875 1672 
L 1875 1200 
L 259 1200 
L 259 1672 
z
" transform="scale(0.015625)"/>
        <path id="TimesNewRomanPSMT-36" d="M 2869 4325 
L 2869 4209 
Q 2456 4169 2195 4045 
Q 1934 3922 1679 3669 
Q 1425 3416 1258 3105 
Q 1091 2794 978 2366 
Q 1428 2675 1881 2675 
Q 2316 2675 2634 2325 
Q 2953 1975 2953 1425 
Q 2953 894 2631 456 
Q 2244 -75 1606 -75 
Q 1172 -75 869 213 
Q 275 772 275 1663 
Q 275 2231 503 2743 
Q 731 3256 1154 3653 
Q 1578 4050 1965 4187 
Q 2353 4325 2688 4325 
L 2869 4325 
z
M 925 2138 
Q 869 1716 869 1456 
Q 869 1156 980 804 
Q 1091 453 1309 247 
Q 1469 100 1697 100 
Q 1969 100 2183 356 
Q 2397 613 2397 1088 
Q 2397 1622 2184 2012 
Q 1972 2403 1581 2403 
Q 1463 2403 1327 2353 
Q 1191 2303 925 2138 
z
" transform="scale(0.015625)"/>
       </defs>
       <use xlink:href="#TimesNewRomanPSMT-32"/>
       <use xlink:href="#TimesNewRomanPSMT-30" x="50"/>
       <use xlink:href="#TimesNewRomanPSMT-31" x="100"/>
       <use xlink:href="#TimesNewRomanPSMT-39" x="150"/>
       <use xlink:href="#TimesNewRomanPSMT-2d" x="200"/>
       <use xlink:href="#TimesNewRomanPSMT-31" x="233.300781"/>
       <use xlink:href="#TimesNewRomanPSMT-30" x="283.300781"/>
       <use xlink:href="#TimesNewRomanPSMT-2d" x="333.300781"/>
       <use xlink:href="#TimesNewRomanPSMT-31" x="366.601562"/>
       <use xlink:href="#TimesNewRomanPSMT-36" x="416.601562"/>
      </g>
     </g>
    </g>
    <g id="xtick_2">
     <g id="line2d_3">
      <path d="M 155.007633 256.32 
L 155.007633 34.56 
" clip-path="url(#p38c2f31973)" style="fill: none; stroke: #b0b0b0; stroke-width: 0.8; stroke-linecap: square"/>
     </g>
     <g id="line2d_4">
      <g>
       <use xlink:href="#m9f8563cdb2" x="155.007633" y="256.32" style="stroke: #000000; stroke-width: 0.8"/>
      </g>
     </g>
     <g id="text_2">
      <!-- 2020-01-23 -->
      <g transform="translate(131.677945 266.76375)scale(0.1 -0.1)">
       <defs>
        <path id="TimesNewRomanPSMT-33" d="M 325 3431 
Q 506 3859 782 4092 
Q 1059 4325 1472 4325 
Q 1981 4325 2253 3994 
Q 2459 3747 2459 3466 
Q 2459 3003 1878 2509 
Q 2269 2356 2469 2072 
Q 2669 1788 2669 1403 
Q 2669 853 2319 450 
Q 1863 -75 997 -75 
Q 569 -75 414 31 
Q 259 138 259 259 
Q 259 350 332 419 
Q 406 488 509 488 
Q 588 488 669 463 
Q 722 447 909 348 
Q 1097 250 1169 231 
Q 1284 197 1416 197 
Q 1734 197 1970 444 
Q 2206 691 2206 1028 
Q 2206 1275 2097 1509 
Q 2016 1684 1919 1775 
Q 1784 1900 1550 2001 
Q 1316 2103 1072 2103 
L 972 2103 
L 972 2197 
Q 1219 2228 1467 2375 
Q 1716 2522 1828 2728 
Q 1941 2934 1941 3181 
Q 1941 3503 1739 3701 
Q 1538 3900 1238 3900 
Q 753 3900 428 3381 
L 325 3431 
z
" transform="scale(0.015625)"/>
       </defs>
       <use xlink:href="#TimesNewRomanPSMT-32"/>
       <use xlink:href="#TimesNewRomanPSMT-30" x="50"/>
       <use xlink:href="#TimesNewRomanPSMT-32" x="100"/>
       <use xlink:href="#TimesNewRomanPSMT-30" x="150"/>
       <use xlink:href="#TimesNewRomanPSMT-2d" x="200"/>
       <use xlink:href="#TimesNewRomanPSMT-30" x="233.300781"/>
       <use xlink:href="#TimesNewRomanPSMT-31" x="283.300781"/>
       <use xlink:href="#TimesNewRomanPSMT-2d" x="333.300781"/>
       <use xlink:href="#TimesNewRomanPSMT-32" x="366.601562"/>
       <use xlink:href="#TimesNewRomanPSMT-33" x="416.601562"/>
      </g>
     </g>
    </g>
    <g id="xtick_3">
     <g id="line2d_5">
      <path d="M 211.956175 256.32 
L 211.956175 34.56 
" clip-path="url(#p38c2f31973)" style="fill: none; stroke: #b0b0b0; stroke-width: 0.8; stroke-linecap: square"/>
     </g>
     <g id="line2d_6">
      <g>
       <use xlink:href="#m9f8563cdb2" x="211.956175" y="256.32" style="stroke: #000000; stroke-width: 0.8"/>
      </g>
     </g>
     <g id="text_3">
      <!-- 2020-05-14 -->
      <g transform="translate(188.626487 266.76375)scale(0.1 -0.1)">
       <defs>
        <path id="TimesNewRomanPSMT-35" d="M 2778 4238 
L 2534 3706 
L 1259 3706 
L 981 3138 
Q 1809 3016 2294 2522 
Q 2709 2097 2709 1522 
Q 2709 1188 2573 903 
Q 2438 619 2231 419 
Q 2025 219 1772 97 
Q 1413 -75 1034 -75 
Q 653 -75 479 54 
Q 306 184 306 341 
Q 306 428 378 495 
Q 450 563 559 563 
Q 641 563 702 538 
Q 763 513 909 409 
Q 1144 247 1384 247 
Q 1750 247 2026 523 
Q 2303 800 2303 1197 
Q 2303 1581 2056 1914 
Q 1809 2247 1375 2428 
Q 1034 2569 447 2591 
L 1259 4238 
L 2778 4238 
z
" transform="scale(0.015625)"/>
        <path id="TimesNewRomanPSMT-34" d="M 2978 1563 
L 2978 1119 
L 2409 1119 
L 2409 0 
L 1894 0 
L 1894 1119 
L 100 1119 
L 100 1519 
L 2066 4325 
L 2409 4325 
L 2409 1563 
L 2978 1563 
z
M 1894 1563 
L 1894 3666 
L 406 1563 
L 1894 1563 
z
" transform="scale(0.015625)"/>
       </defs>
       <use xlink:href="#TimesNewRomanPSMT-32"/>
       <use xlink:href="#TimesNewRomanPSMT-30" x="50"/>
       <use xlink:href="#TimesNewRomanPSMT-32" x="100"/>
       <use xlink:href="#TimesNewRomanPSMT-30" x="150"/>
       <use xlink:href="#TimesNewRomanPSMT-2d" x="200"/>
       <use xlink:href="#TimesNewRomanPSMT-30" x="233.300781"/>
       <use xlink:href="#TimesNewRomanPSMT-35" x="283.300781"/>
       <use xlink:href="#TimesNewRomanPSMT-2d" x="333.300781"/>
       <use xlink:href="#TimesNewRomanPSMT-31" x="366.601562"/>
       <use xlink:href="#TimesNewRomanPSMT-34" x="416.601562"/>
      </g>
     </g>
    </g>
    <g id="xtick_4">
     <g id="line2d_7">
      <path d="M 268.904717 256.32 
L 268.904717 34.56 
" clip-path="url(#p38c2f31973)" style="fill: none; stroke: #b0b0b0; stroke-width: 0.8; stroke-linecap: square"/>
     </g>
     <g id="line2d_8">
      <g>
       <use xlink:href="#m9f8563cdb2" x="268.904717" y="256.32" style="stroke: #000000; stroke-width: 0.8"/>
      </g>
     </g>
     <g id="text_4">
      <!-- 2020-08-24 -->
      <g transform="translate(245.575029 266.76375)scale(0.1 -0.1)">
       <defs>
        <path id="TimesNewRomanPSMT-38" d="M 1228 2134 
Q 725 2547 579 2797 
Q 434 3047 434 3316 
Q 434 3728 753 4026 
Q 1072 4325 1600 4325 
Q 2113 4325 2425 4047 
Q 2738 3769 2738 3413 
Q 2738 3175 2569 2928 
Q 2400 2681 1866 2347 
Q 2416 1922 2594 1678 
Q 2831 1359 2831 1006 
Q 2831 559 2490 242 
Q 2150 -75 1597 -75 
Q 994 -75 656 303 
Q 388 606 388 966 
Q 388 1247 577 1523 
Q 766 1800 1228 2134 
z
M 1719 2469 
Q 2094 2806 2194 3001 
Q 2294 3197 2294 3444 
Q 2294 3772 2109 3958 
Q 1925 4144 1606 4144 
Q 1288 4144 1088 3959 
Q 888 3775 888 3528 
Q 888 3366 970 3203 
Q 1053 3041 1206 2894 
L 1719 2469 
z
M 1375 2016 
Q 1116 1797 991 1539 
Q 866 1281 866 981 
Q 866 578 1086 336 
Q 1306 94 1647 94 
Q 1984 94 2187 284 
Q 2391 475 2391 747 
Q 2391 972 2272 1150 
Q 2050 1481 1375 2016 
z
" transform="scale(0.015625)"/>
       </defs>
       <use xlink:href="#TimesNewRomanPSMT-32"/>
       <use xlink:href="#TimesNewRomanPSMT-30" x="50"/>
       <use xlink:href="#TimesNewRomanPSMT-32" x="100"/>
       <use xlink:href="#TimesNewRomanPSMT-30" x="150"/>
       <use xlink:href="#TimesNewRomanPSMT-2d" x="200"/>
       <use xlink:href="#TimesNewRomanPSMT-30" x="233.300781"/>
       <use xlink:href="#TimesNewRomanPSMT-38" x="283.300781"/>
       <use xlink:href="#TimesNewRomanPSMT-2d" x="333.300781"/>
       <use xlink:href="#TimesNewRomanPSMT-32" x="366.601562"/>
       <use xlink:href="#TimesNewRomanPSMT-34" x="416.601562"/>
      </g>
     </g>
    </g>
    <g id="xtick_5">
     <g id="line2d_9">
      <path d="M 325.853259 256.32 
L 325.853259 34.56 
" clip-path="url(#p38c2f31973)" style="fill: none; stroke: #b0b0b0; stroke-width: 0.8; stroke-linecap: square"/>
     </g>
     <g id="line2d_10">
      <g>
       <use xlink:href="#m9f8563cdb2" x="325.853259" y="256.32" style="stroke: #000000; stroke-width: 0.8"/>
      </g>
     </g>
     <g id="text_5">
      <!-- 2020-12-08 -->
      <g transform="translate(302.523572 266.76375)scale(0.1 -0.1)">
       <use xlink:href="#TimesNewRomanPSMT-32"/>
       <use xlink:href="#TimesNewRomanPSMT-30" x="50"/>
       <use xlink:href="#TimesNewRomanPSMT-32" x="100"/>
       <use xlink:href="#TimesNewRomanPSMT-30" x="150"/>
       <use xlink:href="#TimesNewRomanPSMT-2d" x="200"/>
       <use xlink:href="#TimesNewRomanPSMT-31" x="233.300781"/>
       <use xlink:href="#TimesNewRomanPSMT-32" x="283.300781"/>
       <use xlink:href="#TimesNewRomanPSMT-2d" x="333.300781"/>
       <use xlink:href="#TimesNewRomanPSMT-30" x="366.601562"/>
       <use xlink:href="#TimesNewRomanPSMT-38" x="416.601562"/>
      </g>
     </g>
    </g>
    <g id="xtick_6">
     <g id="line2d_11">
      <path d="M 382.801801 256.32 
L 382.801801 34.56 
" clip-path="url(#p38c2f31973)" style="fill: none; stroke: #b0b0b0; stroke-width: 0.8; stroke-linecap: square"/>
     </g>
     <g id="line2d_12">
      <g>
       <use xlink:href="#m9f8563cdb2" x="382.801801" y="256.32" style="stroke: #000000; stroke-width: 0.8"/>
      </g>
     </g>
     <g id="text_6">
      <!-- 2021-03-24 -->
      <g transform="translate(359.472114 266.76375)scale(0.1 -0.1)">
       <use xlink:href="#TimesNewRomanPSMT-32"/>
       <use xlink:href="#TimesNewRomanPSMT-30" x="50"/>
       <use xlink:href="#TimesNewRomanPSMT-32" x="100"/>
       <use xlink:href="#TimesNewRomanPSMT-31" x="150"/>
       <use xlink:href="#TimesNewRomanPSMT-2d" x="200"/>
       <use xlink:href="#TimesNewRomanPSMT-30" x="233.300781"/>
       <use xlink:href="#TimesNewRomanPSMT-33" x="283.300781"/>
       <use xlink:href="#TimesNewRomanPSMT-2d" x="333.300781"/>
       <use xlink:href="#TimesNewRomanPSMT-32" x="366.601562"/>
       <use xlink:href="#TimesNewRomanPSMT-34" x="416.601562"/>
      </g>
     </g>
    </g>
    <g id="xtick_7">
     <g id="line2d_13">
      <path d="M 439.750343 256.32 
L 439.750343 34.56 
" clip-path="url(#p38c2f31973)" style="fill: none; stroke: #b0b0b0; stroke-width: 0.8; stroke-linecap: square"/>
     </g>
     <g id="line2d_14">
      <g>
       <use xlink:href="#m9f8563cdb2" x="439.750343" y="256.32" style="stroke: #000000; stroke-width: 0.8"/>
      </g>
     </g>
     <g id="text_7">
      <!-- 2021-07-07 -->
      <g transform="translate(416.420656 266.76375)scale(0.1 -0.1)">
       <defs>
        <path id="TimesNewRomanPSMT-37" d="M 644 4238 
L 2916 4238 
L 2916 4119 
L 1503 -88 
L 1153 -88 
L 2419 3728 
L 1253 3728 
Q 900 3728 750 3644 
Q 488 3500 328 3200 
L 238 3234 
L 644 4238 
z
" transform="scale(0.015625)"/>
       </defs>
       <use xlink:href="#TimesNewRomanPSMT-32"/>
       <use xlink:href="#TimesNewRomanPSMT-30" x="50"/>
       <use xlink:href="#TimesNewRomanPSMT-32" x="100"/>
       <use xlink:href="#TimesNewRomanPSMT-31" x="150"/>
       <use xlink:href="#TimesNewRomanPSMT-2d" x="200"/>
       <use xlink:href="#TimesNewRomanPSMT-30" x="233.300781"/>
       <use xlink:href="#TimesNewRomanPSMT-37" x="283.300781"/>
       <use xlink:href="#TimesNewRomanPSMT-2d" x="333.300781"/>
       <use xlink:href="#TimesNewRomanPSMT-30" x="366.601562"/>
       <use xlink:href="#TimesNewRomanPSMT-37" x="416.601562"/>
      </g>
     </g>
    </g>
    <g id="xtick_8">
     <g id="line2d_15">
      <path d="M 496.698885 256.32 
L 496.698885 34.56 
" clip-path="url(#p38c2f31973)" style="fill: none; stroke: #b0b0b0; stroke-width: 0.8; stroke-linecap: square"/>
     </g>
     <g id="line2d_16">
      <g>
       <use xlink:href="#m9f8563cdb2" x="496.698885" y="256.32" style="stroke: #000000; stroke-width: 0.8"/>
      </g>
     </g>
     <g id="text_8">
      <!-- 2021-10-22 -->
      <g transform="translate(473.369198 266.76375)scale(0.1 -0.1)">
       <use xlink:href="#TimesNewRomanPSMT-32"/>
       <use xlink:href="#TimesNewRomanPSMT-30" x="50"/>
       <use xlink:href="#TimesNewRomanPSMT-32" x="100"/>
       <use xlink:href="#TimesNewRomanPSMT-31" x="150"/>
       <use xlink:href="#TimesNewRomanPSMT-2d" x="200"/>
       <use xlink:href="#TimesNewRomanPSMT-31" x="233.300781"/>
       <use xlink:href="#TimesNewRomanPSMT-30" x="283.300781"/>
       <use xlink:href="#TimesNewRomanPSMT-2d" x="333.300781"/>
       <use xlink:href="#TimesNewRomanPSMT-32" x="366.601562"/>
       <use xlink:href="#TimesNewRomanPSMT-32" x="416.601562"/>
      </g>
     </g>
    </g>
    <g id="text_9">
     <!-- 时间 -->
     <g transform="translate(303.65 280.67625)scale(0.1 -0.1)">
      <defs>
       <path id="SimSun-65f6" d="M 4500 3600 
Q 4500 4575 4475 5225 
L 5100 4900 
L 4850 4725 
L 4850 3600 
L 5225 3600 
L 5550 3925 
L 6025 3450 
L 4850 3450 
L 4850 100 
Q 4850 -375 4300 -575 
Q 4275 -200 3475 -25 
L 3475 100 
Q 4150 0 4325 25 
Q 4500 50 4500 325 
L 4500 3450 
L 3200 3450 
Q 2875 3450 2600 3375 
L 2375 3600 
L 4500 3600 
z
M 2875 2825 
Q 3525 2375 3637 2200 
Q 3750 2025 3750 1925 
Q 3750 1800 3637 1637 
Q 3525 1475 3475 1475 
Q 3400 1475 3325 1775 
Q 3200 2225 2800 2750 
L 2875 2825 
z
M 925 4150 
L 925 2650 
L 1950 2650 
L 1950 4150 
L 925 4150 
z
M 925 2500 
L 925 900 
L 1950 900 
L 1950 2500 
L 925 2500 
z
M 2300 2000 
Q 2300 800 2325 450 
L 1950 250 
L 1950 750 
L 925 750 
L 925 225 
L 550 25 
Q 575 825 575 2425 
Q 575 4025 550 4500 
L 950 4300 
L 1900 4300 
L 2100 4550 
L 2500 4225 
L 2300 4050 
L 2300 2000 
z
" transform="scale(0.015625)"/>
       <path id="SimSun-95f4" d="M 2150 525 
Q 2175 1325 2175 2112 
Q 2175 2900 2150 3675 
L 2525 3450 
L 3750 3450 
L 4000 3700 
L 4325 3375 
L 4125 3200 
Q 4125 1550 4150 775 
L 3800 575 
L 3800 975 
L 2500 975 
L 2500 700 
L 2150 525 
z
M 2500 3300 
L 2500 2325 
L 3800 2325 
L 3800 3300 
L 2500 3300 
z
M 2500 2175 
L 2500 1125 
L 3800 1125 
L 3800 2175 
L 2500 2175 
z
M 1275 5200 
Q 1850 4825 1950 4675 
Q 2050 4525 2050 4425 
Q 2050 4275 1950 4137 
Q 1850 4000 1825 4000 
Q 1750 4000 1675 4275 
Q 1550 4650 1200 5125 
L 1275 5200 
z
M 1125 425 
Q 1125 25 1150 -375 
L 750 -525 
Q 775 -150 775 1950 
Q 775 4050 750 4425 
L 1350 4125 
L 1125 3975 
L 1125 425 
z
M 4225 125 
Q 5025 0 5125 37 
Q 5225 75 5225 250 
L 5225 4450 
L 3225 4450 
Q 2900 4450 2625 4375 
L 2400 4600 
L 5175 4600 
L 5425 4850 
L 5775 4500 
L 5575 4350 
L 5575 225 
Q 5575 -100 5462 -250 
Q 5350 -400 5000 -550 
Q 4800 -125 4225 25 
L 4225 125 
z
" transform="scale(0.015625)"/>
      </defs>
      <use xlink:href="#SimSun-65f6"/>
      <use xlink:href="#SimSun-95f4" x="100"/>
     </g>
    </g>
   </g>
   <g id="matplotlib.axis_2">
    <g id="ytick_1">
     <g id="line2d_17">
      <path d="M 76.5 226.792549 
L 550.8 226.792549 
" clip-path="url(#p38c2f31973)" style="fill: none; stroke: #b0b0b0; stroke-width: 0.8; stroke-linecap: square"/>
     </g>
     <g id="line2d_18">
      <defs>
       <path id="mb5f639394c" d="M 0 0 
L 3.5 0 
" style="stroke: #000000; stroke-width: 0.8"/>
      </defs>
      <g>
       <use xlink:href="#mb5f639394c" x="76.5" y="226.792549" style="stroke: #000000; stroke-width: 0.8"/>
      </g>
     </g>
     <g id="text_10">
      <!-- 0.8 -->
      <g transform="translate(60.5 230.264424)scale(0.1 -0.1)">
       <defs>
        <path id="TimesNewRomanPSMT-2e" d="M 800 606 
Q 947 606 1047 504 
Q 1147 403 1147 259 
Q 1147 116 1045 14 
Q 944 -88 800 -88 
Q 656 -88 554 14 
Q 453 116 453 259 
Q 453 406 554 506 
Q 656 606 800 606 
z
" transform="scale(0.015625)"/>
       </defs>
       <use xlink:href="#TimesNewRomanPSMT-30"/>
       <use xlink:href="#TimesNewRomanPSMT-2e" x="50"/>
       <use xlink:href="#TimesNewRomanPSMT-38" x="75"/>
      </g>
     </g>
    </g>
    <g id="ytick_2">
     <g id="line2d_19">
      <path d="M 76.5 195.194626 
L 550.8 195.194626 
" clip-path="url(#p38c2f31973)" style="fill: none; stroke: #b0b0b0; stroke-width: 0.8; stroke-linecap: square"/>
     </g>
     <g id="line2d_20">
      <g>
       <use xlink:href="#mb5f639394c" x="76.5" y="195.194626" style="stroke: #000000; stroke-width: 0.8"/>
      </g>
     </g>
     <g id="text_11">
      <!-- 1.0 -->
      <g transform="translate(60.5 198.666501)scale(0.1 -0.1)">
       <use xlink:href="#TimesNewRomanPSMT-31"/>
       <use xlink:href="#TimesNewRomanPSMT-2e" x="50"/>
       <use xlink:href="#TimesNewRomanPSMT-30" x="75"/>
      </g>
     </g>
    </g>
    <g id="ytick_3">
     <g id="line2d_21">
      <path d="M 76.5 163.596704 
L 550.8 163.596704 
" clip-path="url(#p38c2f31973)" style="fill: none; stroke: #b0b0b0; stroke-width: 0.8; stroke-linecap: square"/>
     </g>
     <g id="line2d_22">
      <g>
       <use xlink:href="#mb5f639394c" x="76.5" y="163.596704" style="stroke: #000000; stroke-width: 0.8"/>
      </g>
     </g>
     <g id="text_12">
      <!-- 1.2 -->
      <g transform="translate(60.5 167.068579)scale(0.1 -0.1)">
       <use xlink:href="#TimesNewRomanPSMT-31"/>
       <use xlink:href="#TimesNewRomanPSMT-2e" x="50"/>
       <use xlink:href="#TimesNewRomanPSMT-32" x="75"/>
      </g>
     </g>
    </g>
    <g id="ytick_4">
     <g id="line2d_23">
      <path d="M 76.5 131.998781 
L 550.8 131.998781 
" clip-path="url(#p38c2f31973)" style="fill: none; stroke: #b0b0b0; stroke-width: 0.8; stroke-linecap: square"/>
     </g>
     <g id="line2d_24">
      <g>
       <use xlink:href="#mb5f639394c" x="76.5" y="131.998781" style="stroke: #000000; stroke-width: 0.8"/>
      </g>
     </g>
     <g id="text_13">
      <!-- 1.4 -->
      <g transform="translate(60.5 135.470656)scale(0.1 -0.1)">
       <use xlink:href="#TimesNewRomanPSMT-31"/>
       <use xlink:href="#TimesNewRomanPSMT-2e" x="50"/>
       <use xlink:href="#TimesNewRomanPSMT-34" x="75"/>
      </g>
     </g>
    </g>
    <g id="ytick_5">
     <g id="line2d_25">
      <path d="M 76.5 100.400858 
L 550.8 100.400858 
" clip-path="url(#p38c2f31973)" style="fill: none; stroke: #b0b0b0; stroke-width: 0.8; stroke-linecap: square"/>
     </g>
     <g id="line2d_26">
      <g>
       <use xlink:href="#mb5f639394c" x="76.5" y="100.400858" style="stroke: #000000; stroke-width: 0.8"/>
      </g>
     </g>
     <g id="text_14">
      <!-- 1.6 -->
      <g transform="translate(60.5 103.872733)scale(0.1 -0.1)">
       <use xlink:href="#TimesNewRomanPSMT-31"/>
       <use xlink:href="#TimesNewRomanPSMT-2e" x="50"/>
       <use xlink:href="#TimesNewRomanPSMT-36" x="75"/>
      </g>
     </g>
    </g>
    <g id="ytick_6">
     <g id="line2d_27">
      <path d="M 76.5 68.802936 
L 550.8 68.802936 
" clip-path="url(#p38c2f31973)" style="fill: none; stroke: #b0b0b0; stroke-width: 0.8; stroke-linecap: square"/>
     </g>
     <g id="line2d_28">
      <g>
       <use xlink:href="#mb5f639394c" x="76.5" y="68.802936" style="stroke: #000000; stroke-width: 0.8"/>
      </g>
     </g>
     <g id="text_15">
      <!-- 1.8 -->
      <g transform="translate(60.5 72.274811)scale(0.1 -0.1)">
       <use xlink:href="#TimesNewRomanPSMT-31"/>
       <use xlink:href="#TimesNewRomanPSMT-2e" x="50"/>
       <use xlink:href="#TimesNewRomanPSMT-38" x="75"/>
      </g>
     </g>
    </g>
    <g id="ytick_7">
     <g id="line2d_29">
      <path d="M 76.5 37.205013 
L 550.8 37.205013 
" clip-path="url(#p38c2f31973)" style="fill: none; stroke: #b0b0b0; stroke-width: 0.8; stroke-linecap: square"/>
     </g>
     <g id="line2d_30">
      <g>
       <use xlink:href="#mb5f639394c" x="76.5" y="37.205013" style="stroke: #000000; stroke-width: 0.8"/>
      </g>
     </g>
     <g id="text_16">
      <!-- 2.0 -->
      <g transform="translate(60.5 40.676888)scale(0.1 -0.1)">
       <use xlink:href="#TimesNewRomanPSMT-32"/>
       <use xlink:href="#TimesNewRomanPSMT-2e" x="50"/>
       <use xlink:href="#TimesNewRomanPSMT-30" x="75"/>
      </g>
     </g>
    </g>
    <g id="text_17">
     <!-- 累计收益率 -->
     <g transform="translate(55.210938 170.44)rotate(-90)scale(0.1 -0.1)">
      <defs>
       <path id="SimSun-7d2f" d="M 1675 4725 
L 1675 4100 
L 3125 4100 
L 3125 4725 
L 1675 4725 
z
M 3450 4725 
L 3450 4100 
L 4925 4100 
L 4925 4725 
L 3450 4725 
z
M 1675 3950 
L 1675 3375 
L 3125 3375 
L 3125 3950 
L 1675 3950 
z
M 3450 3950 
L 3450 3375 
L 4925 3375 
L 4925 3950 
L 3450 3950 
z
M 5250 4625 
Q 5250 4275 5250 3875 
Q 5250 3475 5275 3075 
L 4925 2950 
L 4925 3225 
L 1675 3225 
L 1675 3000 
L 1325 2875 
Q 1350 3500 1350 4125 
Q 1350 4750 1325 5075 
L 1675 4875 
L 4900 4875 
L 5075 5075 
L 5425 4775 
L 5250 4625 
z
M 3525 2875 
Q 3225 2850 2875 2700 
Q 2525 2550 1825 2275 
L 3550 2300 
Q 3925 2550 4175 2800 
L 4500 2400 
Q 4275 2400 3675 2100 
Q 3050 1775 1875 1300 
L 4775 1475 
Q 4550 1725 4300 1975 
L 4375 2025 
Q 5100 1675 5262 1487 
Q 5425 1300 5412 1150 
Q 5400 1000 5337 900 
Q 5275 800 5250 800 
Q 5200 800 5125 950 
Q 5000 1150 4875 1350 
L 3550 1225 
L 3550 100 
Q 3575 -425 3000 -525 
Q 3000 -175 2200 0 
L 2200 100 
Q 2900 25 3062 37 
Q 3225 50 3225 325 
L 3225 1200 
Q 2750 1150 2250 1075 
Q 1750 1000 1450 825 
L 1175 1350 
Q 1550 1400 2000 1562 
Q 2450 1725 3375 2175 
Q 2300 2075 2000 2037 
Q 1700 2000 1550 1900 
L 1325 2350 
Q 1625 2350 2200 2612 
Q 2775 2875 3150 3250 
L 3525 2875 
z
M 2625 500 
Q 2325 450 1850 175 
Q 1375 -125 550 -450 
L 500 -375 
Q 1125 -50 1562 300 
Q 2000 650 2225 950 
L 2625 500 
z
M 4075 900 
Q 5000 575 5312 387 
Q 5625 200 5650 12 
Q 5675 -175 5612 -287 
Q 5550 -400 5525 -400 
Q 5425 -400 5250 -150 
Q 4975 250 4025 825 
L 4075 900 
z
" transform="scale(0.015625)"/>
       <path id="SimSun-8ba1" d="M 975 4975 
L 1000 5050 
Q 1550 4800 1762 4625 
Q 1975 4450 1975 4275 
Q 1975 4100 1887 4025 
Q 1800 3950 1775 3950 
Q 1650 3950 1550 4250 
Q 1375 4625 975 4975 
z
M 1650 375 
L 2625 1225 
L 2675 1150 
Q 1800 25 1600 -350 
L 1225 75 
Q 1325 225 1325 550 
L 1325 2800 
L 675 2800 
L 900 2800 
Q 750 2800 475 2725 
L 250 2950 
L 1275 2950 
L 1550 3225 
L 1900 2875 
L 1650 2700 
L 1650 375 
z
M 3850 2925 
Q 3850 4600 3825 5100 
L 4425 4825 
L 4225 4625 
L 4225 2925 
L 5350 2925 
L 5675 3250 
L 6125 2775 
L 4225 2775 
L 4225 500 
Q 4225 0 4250 -425 
L 3825 -600 
Q 3850 175 3850 575 
L 3850 2775 
L 2575 2775 
L 2950 2775 
Q 2650 2775 2375 2700 
L 2150 2925 
L 3850 2925 
z
" transform="scale(0.015625)"/>
       <path id="SimSun-6536" d="M 3325 3600 
Q 3575 2100 4200 1200 
Q 4600 1950 4850 3600 
L 3325 3600 
z
M 3400 5275 
L 4025 4975 
L 3775 4850 
Q 3575 4375 3325 3750 
L 5250 3750 
L 5575 4075 
L 6050 3600 
L 5225 3600 
Q 4975 2000 4425 900 
Q 5300 -25 6150 -75 
L 6150 -175 
Q 5750 -200 5575 -525 
Q 4750 -50 4200 650 
Q 3350 -175 2300 -600 
L 2250 -525 
Q 3225 -25 4000 900 
Q 3325 2100 3225 3550 
Q 2875 2725 2425 2100 
L 2350 2150 
Q 3050 3500 3400 5275 
z
M 575 1575 
L 575 3100 
Q 575 3600 550 4125 
L 1125 3850 
L 900 3675 
L 900 1425 
L 1750 1725 
Q 1750 4350 1725 5250 
L 2300 4975 
L 2075 4775 
L 2075 -450 
L 1725 -650 
Q 1750 375 1750 1600 
Q 975 1175 750 825 
L 475 1200 
Q 600 1325 575 1575 
z
" transform="scale(0.015625)"/>
       <path id="SimSun-76ca" d="M 3900 1725 
L 3900 -75 
L 4725 -75 
L 4725 1725 
L 3900 1725 
z
M 1275 2100 
L 1625 1875 
L 4675 1875 
L 4875 2125 
L 5250 1800 
L 5050 1650 
L 5050 -75 
L 5300 -75 
L 5650 275 
L 6100 -225 
L 1125 -225 
Q 800 -225 525 -300 
L 300 -75 
L 1300 -75 
Q 1300 1475 1275 2100 
z
M 1625 1725 
L 1625 -75 
L 2450 -75 
L 2450 1725 
L 1625 1725 
z
M 2775 1725 
L 2775 -75 
L 3575 -75 
L 3575 1725 
L 2775 1725 
z
M 2475 3550 
L 2900 3150 
Q 2575 3025 2050 2675 
Q 1525 2300 725 2000 
L 675 2075 
Q 1875 2750 2475 3550 
z
M 3700 3450 
Q 4425 3200 4987 2950 
Q 5550 2700 5500 2362 
Q 5450 2025 5350 2025 
Q 5275 2025 5200 2125 
Q 4975 2375 4662 2650 
Q 4350 2925 3650 3375 
L 3700 3450 
z
M 1725 5000 
L 1775 5075 
Q 2375 4800 2587 4587 
Q 2800 4375 2800 4225 
Q 2800 4050 2600 3825 
L 3625 3825 
Q 4175 4800 4275 5225 
L 4825 4875 
Q 4475 4725 3775 3825 
L 4900 3825 
L 5275 4200 
L 5775 3675 
L 1550 3675 
Q 1225 3675 950 3600 
L 725 3825 
L 2425 3825 
Q 2325 4375 1725 5000 
z
" transform="scale(0.015625)"/>
       <path id="SimSun-7387" d="M 875 3725 
L 925 3800 
Q 1375 3650 1550 3525 
Q 1725 3400 1725 3250 
Q 1725 3175 1662 3025 
Q 1600 2875 1550 2875 
Q 1500 2875 1425 3050 
Q 1275 3325 875 3725 
z
M 550 1850 
Q 875 1925 2000 2575 
L 2050 2500 
Q 1675 2225 1337 1937 
Q 1000 1650 875 1425 
L 550 1850 
z
M 5200 3450 
Q 4800 3150 4275 2800 
L 4225 2875 
Q 4775 3400 5050 3925 
L 5450 3525 
L 5200 3450 
z
M 4325 2500 
L 4350 2575 
Q 5225 2350 5375 2212 
Q 5525 2075 5525 1900 
Q 5525 1775 5487 1662 
Q 5450 1550 5400 1550 
Q 5325 1550 5200 1800 
Q 4975 2150 4325 2500 
z
M 3150 3900 
Q 2500 3300 2300 3150 
Q 2800 3150 3400 3175 
Q 3700 3500 3850 3825 
L 4250 3450 
Q 4050 3400 3450 2825 
Q 2850 2250 2475 1950 
Q 3150 1975 3850 2000 
Q 3750 2175 3550 2450 
L 3600 2500 
Q 4050 2250 4200 2100 
Q 4350 1950 4350 1850 
Q 4350 1775 4250 1625 
Q 4150 1475 4100 1475 
Q 4075 1475 4050 1550 
Q 4000 1700 3900 1900 
Q 3650 1875 3075 1800 
L 3500 1550 
L 3325 1425 
L 3325 975 
L 5325 975 
L 5650 1300 
L 6100 825 
L 3325 825 
Q 3325 -275 3350 -525 
L 2975 -650 
Q 3000 0 3000 825 
L 1125 825 
Q 800 825 525 750 
L 300 975 
L 3000 975 
L 3000 1775 
Q 2450 1700 2200 1525 
L 1950 1950 
Q 2275 1950 2675 2350 
Q 3075 2750 3325 3050 
Q 2400 2950 2150 2775 
L 1950 3175 
Q 2150 3150 2475 3575 
Q 2800 4000 2900 4225 
L 1450 4225 
Q 1125 4225 850 4150 
L 625 4375 
L 3100 4375 
Q 3050 4800 2675 5200 
L 2725 5250 
Q 3225 5050 3337 4912 
Q 3450 4775 3450 4700 
Q 3450 4550 3250 4375 
L 5025 4375 
L 5350 4675 
L 5775 4225 
L 3050 4225 
L 3375 3950 
L 3150 3900 
z
" transform="scale(0.015625)"/>
      </defs>
      <use xlink:href="#SimSun-7d2f"/>
      <use xlink:href="#SimSun-8ba1" x="100"/>
      <use xlink:href="#SimSun-6536" x="200"/>
      <use xlink:href="#SimSun-76ca" x="300"/>
      <use xlink:href="#SimSun-7387" x="400"/>
     </g>
    </g>
   </g>
   <g id="line2d_31">
    <path d="M 98.059091 196.229875 
L 98.872642 198.577047 
L 99.686192 200.005761 
L 100.499743 198.8832 
L 101.313293 196.280901 
L 102.126844 197.964742 
L 102.940395 200.618066 
L 103.753945 199.852684 
L 104.567496 192.658092 
L 105.381046 200.669092 
L 106.194597 203.526519 
L 107.008148 203.067289 
L 107.821698 201.842678 
L 108.635249 198.730124 
L 109.448799 199.648582 
L 110.26235 205.720614 
L 111.075901 204.598054 
L 111.889451 204.598054 
L 112.703002 209.343423 
L 113.516552 211.129314 
L 114.330103 210.772136 
L 115.957204 207.45548 
L 116.770755 204.853181 
L 117.584305 203.526519 
L 118.397856 205.057283 
L 119.211407 207.098302 
L 120.024957 210.823162 
L 120.838508 218.885187 
L 121.652058 209.59855 
L 122.465609 213.32341 
L 123.27916 213.170334 
L 124.09271 215.160327 
L 125.719811 213.986741 
L 127.346913 210.61906 
L 128.160463 202.914213 
L 129.787564 200.158837 
L 130.601115 203.424468 
L 131.414666 199.801659 
L 132.228216 199.90371 
L 133.041767 197.301411 
L 133.855317 191.943736 
L 134.668868 194.495009 
L 135.482419 195.15834 
L 136.295969 198.423971 
L 137.10952 200.873194 
L 137.92307 198.934226 
L 138.736621 193.525525 
L 139.550172 193.4745 
L 140.363722 195.464493 
L 141.990823 191.943736 
L 142.804374 187.453494 
L 144.431475 190.872201 
L 145.245026 188.831181 
L 146.058576 190.463997 
L 146.872127 188.320927 
L 147.685678 188.474003 
L 148.499228 180.105825 
L 149.312779 178.830188 
L 150.126329 181.228386 
L 150.93988 180.922233 
L 151.753431 177.299424 
L 152.566981 175.360456 
L 153.380532 179.697621 
L 154.194082 176.32994 
L 155.007633 184.494016 
L 155.821184 201.383449 
L 156.634734 195.974748 
L 157.448285 193.219372 
L 159.075386 165.920743 
L 159.888937 160.716144 
L 160.702487 164.441004 
L 161.516038 149.643616 
L 162.329588 144.898247 
L 163.143139 138.87724 
L 163.95669 134.182897 
L 164.77024 130.30496 
L 165.583791 133.774693 
L 166.397341 134.284948 
L 167.210892 130.100858 
L 168.024443 117.701668 
L 168.837993 100.557108 
L 169.651544 100.710184 
L 170.465094 95.658662 
L 171.278645 121.426528 
L 172.092196 113.772706 
L 172.905746 115.405521 
L 173.719297 120.865247 
L 174.532847 114.18091 
L 175.346398 117.44654 
L 176.159949 129.845731 
L 176.973499 117.599617 
L 177.78705 128.672145 
L 178.6006 135.866737 
L 179.414151 133.672642 
L 180.227702 150.102845 
L 181.041252 149.133361 
L 181.854803 153.368476 
L 182.668353 154.950265 
L 183.481904 157.960768 
L 184.295455 172.554055 
L 185.109005 169.33945 
L 185.922556 165.257412 
L 186.736106 164.951259 
L 187.549657 165.971768 
L 189.176758 172.962258 
L 189.990309 172.145851 
L 190.803859 161.175373 
L 191.61741 166.482023 
L 192.430961 160.920246 
L 194.058062 167.961762 
L 194.871612 174.033793 
L 195.685163 177.503526 
L 196.498714 169.084322 
L 197.312264 167.553558 
L 198.125815 166.635099 
L 198.939365 161.32845 
L 199.752916 155.256418 
L 200.566467 156.430004 
L 201.380017 157.399488 
L 202.193568 159.032303 
L 203.007118 163.318443 
L 203.820669 156.532055 
L 204.63422 145.663629 
L 205.44777 147.551571 
L 206.261321 140.612107 
L 207.074871 137.601603 
L 207.888422 140.152877 
L 208.701973 139.948775 
L 209.515523 138.418011 
L 210.329074 129.692655 
L 211.142624 132.856234 
L 211.956175 133.366489 
L 212.769726 134.795202 
L 213.583276 141.632616 
L 214.396827 134.540075 
L 216.023928 146.531062 
L 216.837479 152.654119 
L 217.651029 156.889233 
L 218.46458 155.103342 
L 219.27813 158.726151 
L 220.091681 159.032303 
L 220.905232 157.909743 
L 221.718782 150.817202 
L 222.532333 148.061826 
L 223.345883 149.184387 
L 224.159434 148.929259 
L 224.972985 150.715151 
L 225.786535 150.868227 
L 226.600086 157.858717 
L 227.413636 156.378979 
L 228.227187 154.644112 
L 229.040738 156.174877 
L 229.854288 161.124348 
L 230.667839 157.960768 
L 232.29494 139.387495 
L 233.108491 138.31596 
L 233.922041 134.846228 
L 234.735592 133.009311 
L 236.362693 138.622113 
L 237.176244 133.876744 
L 237.989794 130.355986 
L 238.803345 122.804215 
L 239.616895 124.590107 
L 240.430446 115.30347 
L 241.243997 102.138898 
L 242.057547 99.7407 
L 242.871098 89.076376 
L 243.684648 96.730197 
L 244.498199 94.995331 
L 245.31175 105.251452 
L 246.1253 112.854248 
L 246.938851 132.141878 
L 247.752401 132.44803 
L 248.565952 123.722674 
L 249.379503 124.89626 
L 250.193053 123.110368 
L 251.006604 127.498559 
L 251.820154 135.815712 
L 252.633705 132.703158 
L 253.447256 137.652629 
L 254.260806 130.253935 
L 255.074357 132.652132 
L 255.887907 129.692655 
L 256.701458 119.538585 
L 257.515009 121.375502 
L 258.328559 122.651139 
L 259.14211 125.100362 
L 259.95566 133.366489 
L 260.769211 132.192903 
L 261.582762 138.111858 
L 262.396312 142.449024 
L 263.209863 143.673635 
L 264.023413 134.02982 
L 264.836964 132.550081 
L 265.650515 132.243928 
L 266.464065 127.906763 
L 267.277616 135.764686 
L 268.091166 120.61012 
L 268.904717 121.324477 
L 269.718268 128.993409 
L 270.531818 128.635048 
L 271.345369 127.488292 
L 272.158919 128.06167 
L 272.97247 118.099225 
L 273.786021 103.97979 
L 274.599571 109.426882 
L 275.413122 123.546317 
L 276.226672 123.402973 
L 277.040223 133.365417 
L 278.667324 139.959265 
L 279.480875 157.949002 
L 280.294425 154.222045 
L 281.107976 158.450708 
L 281.921527 155.440473 
L 282.735077 153.075289 
L 283.548628 154.007028 
L 284.362178 149.061642 
L 285.175729 150.351743 
L 285.98928 154.293717 
L 286.80283 155.368801 
L 287.616381 167.69643 
L 288.429931 168.054791 
L 289.243482 168.914858 
L 290.057033 168.556497 
L 290.870583 170.921681 
L 291.684134 167.624757 
L 292.497684 160.242515 
L 293.311235 160.09917 
L 294.124786 165.116228 
L 294.938336 168.198135 
L 295.751887 169.846598 
L 296.565437 174.576967 
L 297.378988 171.996765 
L 298.192539 178.017235 
L 299.006089 181.457504 
L 299.81964 184.18105 
L 300.63319 182.747604 
L 302.260292 181.170815 
L 303.073842 186.832923 
L 303.887393 195.505267 
L 304.700943 196.508678 
L 305.514494 193.140082 
L 306.328045 193.856805 
L 307.141595 185.829512 
L 307.955146 183.535999 
L 308.768696 177.658874 
L 310.395798 190.774898 
L 311.209348 189.413125 
L 312.022899 192.208343 
L 312.836449 189.341452 
L 314.463551 193.856805 
L 316.090652 193.140082 
L 316.904202 191.49162 
L 317.717753 191.348276 
L 318.531304 193.928477 
L 319.344854 196.006973 
L 320.158405 196.221989 
L 320.971955 192.925065 
L 321.785506 190.631553 
L 322.599057 187.04794 
L 323.412607 188.62473 
L 324.226158 187.836335 
L 326.66681 199.08888 
L 327.48036 199.805602 
L 328.293911 205.467711 
L 329.107461 207.116173 
L 329.921012 202.600821 
L 330.734563 203.819249 
L 331.548113 202.815837 
L 332.361664 204.607644 
L 333.175214 203.030854 
L 333.988765 207.617879 
L 334.802316 206.972829 
L 335.615866 210.413097 
L 336.429417 212.706609 
L 337.242967 215.931861 
L 338.056518 207.761223 
L 338.870069 209.051324 
L 339.683619 206.614467 
L 340.49717 205.181022 
L 341.31072 201.597409 
L 342.124271 204.535972 
L 342.937822 208.262929 
L 343.751372 193.785133 
L 344.564923 185.399478 
L 345.378473 184.396066 
L 346.192024 178.447269 
L 347.005575 181.02747 
L 347.819125 188.266368 
L 348.632676 176.368773 
L 349.446226 175.795395 
L 350.259777 179.665697 
L 351.073328 174.36195 
L 351.886878 183.535999 
L 352.700429 186.904596 
L 353.513979 189.699814 
L 354.32753 193.498444 
L 355.141081 202.672493 
L 355.954631 205.682728 
L 356.768182 200.952359 
L 357.581732 199.375569 
L 358.395283 207.187845 
L 359.208834 202.815837 
L 360.022384 210.054736 
L 360.835935 207.187845 
L 362.463036 203.174199 
L 364.090137 196.078645 
L 364.903688 198.228813 
L 365.717238 198.730519 
L 366.530789 196.150317 
L 367.34434 199.447241 
L 368.15789 199.160552 
L 368.971441 193.140082 
L 369.784991 196.150317 
L 370.598542 196.221989 
L 371.412093 199.948947 
L 372.225643 202.600821 
L 373.039194 206.112761 
L 373.852744 208.406274 
L 374.666295 210.126408 
L 375.479846 206.39945 
L 376.293396 208.406274 
L 377.106947 210.986475 
L 377.920497 208.90798 
L 378.734048 209.051324 
L 379.547599 212.563265 
L 380.361149 214.140055 
L 381.1747 212.133231 
L 381.98825 212.563265 
L 382.801801 213.35166 
L 383.615352 211.703198 
L 384.428902 210.628114 
L 386.056003 211.201492 
L 386.869554 210.986475 
L 387.683105 210.484769 
L 388.496655 208.334601 
L 389.310206 208.979652 
L 390.123756 211.12982 
L 390.937307 211.918214 
L 391.750858 213.495004 
L 392.564408 212.204904 
L 393.377959 213.638349 
L 394.191509 213.208315 
L 395.00506 216.003533 
L 395.818611 214.498416 
L 396.632161 211.058147 
L 398.259262 215.645172 
L 399.072813 223.027415 
L 399.886364 222.024003 
L 400.699914 223.457448 
L 401.513465 226.897717 
L 402.327015 226.03765 
L 403.140566 219.515474 
L 403.954117 222.23902 
L 404.767667 223.385776 
L 405.581218 225.392599 
L 406.394768 222.955743 
L 407.208319 223.457448 
L 408.02187 222.597381 
L 408.83542 222.382364 
L 409.648971 220.66223 
L 410.462521 220.01718 
L 411.276072 219.658819 
L 412.089623 219.157113 
L 413.716724 224.174171 
L 414.530274 219.730491 
L 415.343825 219.300457 
L 416.157376 219.300457 
L 416.970926 215.931861 
L 417.784477 218.082029 
L 418.598027 208.692963 
L 419.411578 196.437006 
L 420.225129 198.945535 
L 421.038679 191.133259 
L 421.85223 190.053399 
L 422.66578 192.069138 
L 423.479331 188.181642 
L 424.292882 193.148998 
L 425.106432 192.213119 
L 425.919983 197.252465 
L 426.733533 195.092746 
L 427.547084 197.7564 
L 428.360635 190.845297 
L 429.174185 194.44483 
L 429.987736 195.236727 
L 430.801286 195.812652 
L 431.614837 192.645063 
L 432.428388 201.931859 
L 433.241938 199.340195 
L 434.055489 195.380708 
L 434.869039 203.875606 
L 435.68259 195.668671 
L 436.496141 193.580942 
L 437.309691 196.60455 
L 438.123242 188.973539 
L 440.563894 184.72609 
L 441.377444 187.533726 
L 442.190995 170.975874 
L 443.004545 170.831892 
L 443.818096 176.807117 
L 444.631647 176.879108 
L 445.445197 167.448331 
L 446.258748 153.986077 
L 447.072298 153.482143 
L 447.885849 151.322423 
L 448.6994 151.03446 
L 449.51295 158.233527 
L 450.326501 156.505751 
L 451.140051 151.610386 
L 451.953602 161.545097 
L 452.767153 160.969172 
L 453.580703 163.416854 
L 454.394254 149.594647 
L 455.207804 150.530526 
L 456.021355 150.314554 
L 456.834906 157.945564 
L 457.648456 138.436094 
L 458.462007 135.052533 
L 459.275557 137.212253 
L 460.089108 145.275207 
L 460.902659 148.730759 
L 461.716209 169.176107 
L 462.52976 166.368471 
L 463.34331 170.831892 
L 464.156861 174.071472 
L 464.970412 173.063603 
L 465.783962 168.816154 
L 466.597513 166.296481 
L 467.411063 168.096247 
L 468.224614 172.343696 
L 469.038165 180.262669 
L 469.851715 178.966837 
L 470.665266 178.17494 
L 471.478816 182.206417 
L 472.292367 182.350398 
L 473.105918 183.64623 
L 473.919468 181.270538 
L 475.546569 177.599015 
L 476.36012 169.896014 
L 477.173671 170.255967 
L 477.987221 168.456201 
L 478.800772 174.791379 
L 479.614322 179.398781 
L 480.427873 180.33466 
L 481.241424 175.583276 
L 482.054974 174.719388 
L 482.868525 174.719388 
L 483.682075 169.896014 
L 484.495626 170.327958 
L 485.309177 173.063603 
L 486.122727 176.519155 
L 486.936278 183.718221 
L 487.749828 173.639528 
L 488.563379 174.215454 
L 489.37693 174.575407 
L 490.19048 178.246931 
L 491.004031 172.343696 
L 491.817581 160.177274 
L 492.631132 161.617088 
L 493.444683 159.241396 
L 494.258233 160.393246 
L 495.071784 158.233527 
L 495.885334 154.418021 
L 496.698885 153.986077 
L 497.512436 154.27404 
L 498.325986 157.369639 
L 499.139537 161.185144 
L 499.953087 163.99278 
L 500.766638 153.626124 
L 501.580189 149.810619 
L 502.393739 153.410152 
L 503.20729 155.209919 
L 504.02084 153.770105 
L 504.834391 151.682376 
L 505.647942 156.145797 
L 506.461492 156.145797 
L 507.275043 160.393246 
L 508.088593 159.601349 
L 508.902144 162.91292 
L 509.715695 161.83306 
L 510.529245 165.072639 
L 511.342796 154.993947 
L 512.156346 157.441629 
L 512.969897 159.097414 
L 513.783448 157.153667 
L 514.596998 156.145797 
L 515.410549 154.346031 
L 516.224099 172.271706 
L 517.03765 170.399948 
L 517.851201 169.752032 
L 518.664751 167.016387 
L 519.478302 165.216621 
L 520.291852 166.368471 
L 521.105403 168.38421 
L 521.918954 168.744163 
L 522.732504 168.456201 
L 523.546055 167.592313 
L 524.359605 166.368471 
L 525.173156 169.248098 
L 525.986707 177.455033 
L 526.800257 181.48651 
L 527.613808 181.630492 
L 528.427358 193.292979 
L 529.240909 197.108484 
L 529.240909 197.108484 
" clip-path="url(#p38c2f31973)" style="fill: none; stroke: #ffa500; stroke-width: 1.5; stroke-linecap: square"/>
   </g>
   <g id="line2d_32">
    <path d="M 98.059091 195.194626 
L 128.160463 195.194626 
L 128.974014 194.331451 
L 129.787564 192.780363 
L 130.601115 196.203453 
L 131.414666 192.405962 
L 132.228216 192.512934 
L 133.041767 189.785159 
L 133.855317 184.169151 
L 134.668868 186.84344 
L 135.482419 187.538756 
L 136.295969 190.961846 
L 137.10952 193.529164 
L 137.92307 191.496704 
L 138.736621 185.82721 
L 139.550172 185.773725 
L 140.363722 187.85967 
L 141.990823 184.169151 
L 142.804374 179.462402 
L 144.431475 183.045949 
L 145.245026 180.906518 
L 146.058576 182.618063 
L 146.872127 180.37166 
L 147.685678 180.532117 
L 148.499228 171.760448 
L 149.312779 170.423303 
L 150.126329 172.937136 
L 150.93988 172.616221 
L 151.753431 173.157925 
L 153.380532 173.157925 
L 154.194082 170.213859 
L 155.007633 170.76277 
L 155.821184 170.76277 
L 156.634734 164.829811 
L 157.448285 161.528565 
L 159.075386 128.821775 
L 159.888937 122.586088 
L 160.702487 127.048884 
L 161.516038 109.319969 
L 162.329588 103.63449 
L 163.143139 96.420656 
L 163.95669 90.796311 
L 164.77024 86.150113 
L 165.583791 90.307237 
L 166.397341 90.918579 
L 167.210892 85.905576 
L 168.024443 71.049969 
L 168.837993 50.508882 
L 169.651544 50.692284 
L 170.465094 44.64 
L 171.278645 75.512764 
L 172.092196 66.342636 
L 172.905746 68.29893 
L 173.719297 74.840288 
L 174.532847 66.83171 
L 175.346398 70.744298 
L 176.159949 85.599905 
L 176.973499 70.9277 
L 177.78705 84.193819 
L 178.6006 92.813739 
L 179.414151 90.184969 
L 180.227702 109.870177 
L 181.041252 108.708628 
L 181.854803 113.782765 
L 182.668353 115.677925 
L 183.481904 119.284842 
L 184.295455 136.769219 
L 185.109005 132.917766 
L 185.922556 128.027031 
L 186.736106 127.660225 
L 187.549657 128.882909 
L 189.176758 137.258293 
L 189.990309 136.280146 
L 190.803859 123.136296 
L 191.61741 129.494251 
L 192.430961 122.830625 
L 194.058062 131.267142 
L 194.871612 138.542111 
L 195.685163 142.699235 
L 196.498714 143.33069 
L 236.362693 143.33069 
L 237.176244 139.332943 
L 237.989794 135.899779 
L 238.803345 128.53589 
L 239.616895 130.27735 
L 240.430446 121.221758 
L 241.243997 108.384709 
L 242.057547 106.046177 
L 242.871098 95.647173 
L 243.684648 103.110573 
L 244.498199 101.418869 
L 245.31175 111.419826 
L 246.1253 118.83347 
L 246.938851 137.641239 
L 247.752401 137.939775 
L 248.565952 129.431498 
L 249.379503 130.575886 
L 250.193053 128.834426 
L 251.006604 133.113443 
L 251.820154 141.223671 
L 252.633705 138.188555 
L 253.447256 143.014887 
L 254.260806 135.800267 
L 255.074357 138.138799 
L 255.887907 135.252951 
L 256.701458 125.351506 
L 257.515009 127.142722 
L 258.328559 128.386622 
L 259.14211 130.77491 
L 259.95566 138.835383 
L 260.769211 139.478429 
L 273.786021 139.478429 
L 274.599571 144.776699 
L 275.413122 156.848526 
L 276.226672 156.72597 
L 277.040223 165.243655 
L 278.667324 170.88126 
L 279.480875 186.262116 
L 280.294425 183.075644 
L 281.107976 186.691064 
L 281.921527 184.117375 
L 282.735077 182.095191 
L 283.548628 182.891809 
L 284.362178 178.663605 
L 285.175729 179.766615 
L 285.98928 183.136922 
L 286.80283 184.056097 
L 287.616381 194.595967 
L 288.429931 194.902358 
L 289.243482 195.637698 
L 290.057033 195.331306 
L 290.870583 197.353491 
L 291.684134 194.534688 
L 292.497684 195.010637 
L 303.887393 195.010637 
L 304.700943 196.488698 
L 305.514494 193.119672 
L 306.328045 193.836486 
L 307.141595 185.808169 
L 307.955146 183.514364 
L 308.768696 177.636489 
L 310.395798 190.754185 
L 311.209348 189.392239 
L 312.022899 192.187813 
L 312.836449 189.320557 
L 314.463551 193.836486 
L 316.090652 193.119672 
L 316.904202 191.470999 
L 317.717753 191.327637 
L 318.531304 193.908167 
L 319.344854 195.986928 
L 320.158405 196.201972 
L 320.971955 192.904628 
L 321.785506 193.385466 
L 344.564923 193.385466 
L 345.378473 192.912077 
L 346.192024 187.263419 
L 347.005575 189.713439 
L 347.819125 196.587107 
L 348.632676 185.289792 
L 349.446226 184.745343 
L 350.259777 188.420373 
L 351.073328 183.38422 
L 351.886878 192.095404 
L 352.700429 195.294041 
L 353.513979 197.94823 
L 354.32753 201.555204 
L 355.141081 210.266388 
L 355.954631 213.124745 
L 356.768182 208.633041 
L 357.581732 207.135806 
L 358.395283 214.553923 
L 359.208834 210.4025 
L 360.022384 217.276168 
L 360.835935 214.553923 
L 362.463036 210.74278 
L 363.276587 207.271918 
L 364.090137 207.709655 
L 408.02187 207.709655 
L 408.83542 207.907268 
L 409.648971 205.996776 
L 410.462521 205.280342 
L 411.276072 204.882322 
L 412.089623 204.325096 
L 412.903173 204.771673 
L 418.598027 204.771673 
L 419.411578 192.66611 
L 420.225129 195.234988 
L 421.038679 187.23477 
L 421.85223 186.128932 
L 422.66578 188.193164 
L 423.479331 184.212146 
L 424.292882 189.299002 
L 425.106432 188.340609 
L 425.919983 193.501187 
L 426.733533 191.289511 
L 427.547084 194.017245 
L 428.360635 186.93988 
L 429.174185 190.626008 
L 429.987736 191.436956 
L 430.801286 192.026736 
L 431.614837 188.782944 
L 432.428388 198.293153 
L 433.241938 195.639142 
L 434.055489 191.584401 
L 434.869039 200.283662 
L 435.68259 191.879291 
L 436.496141 189.741337 
L 437.309691 192.837684 
L 438.123242 185.023094 
L 440.563894 180.673463 
L 441.377444 183.548643 
L 442.190995 166.592455 
L 443.004545 166.44501 
L 443.818096 172.563982 
L 444.631647 172.637705 
L 445.445197 162.98005 
L 446.258748 149.193932 
L 447.072298 148.677874 
L 447.885849 146.466198 
L 448.6994 146.171308 
L 449.51295 153.543563 
L 450.326501 151.774222 
L 451.140051 146.761088 
L 451.953602 156.934801 
L 452.767153 156.34502 
L 453.580703 158.851587 
L 454.394254 144.696857 
L 455.207804 145.65525 
L 456.021355 145.434082 
L 456.834906 153.248673 
L 457.648456 133.269861 
L 458.462007 129.804901 
L 459.275557 132.016577 
L 460.089108 140.273503 
L 460.902659 143.812186 
L 461.716209 164.749391 
L 462.52976 161.874212 
L 463.34331 166.44501 
L 464.156861 169.762525 
L 464.970412 168.730409 
L 465.783962 164.380779 
L 466.597513 161.800489 
L 467.411063 163.643553 
L 468.224614 164.212175 
L 510.529245 164.212175 
L 511.342796 154.684671 
L 512.156346 157.136173 
L 512.969897 158.794542 
L 513.783448 156.847761 
L 514.596998 155.838319 
L 515.410549 154.035744 
L 516.224099 171.989392 
L 517.03765 170.114714 
L 517.851201 169.465786 
L 518.664751 166.725872 
L 519.478302 164.923297 
L 520.291852 166.076945 
L 521.105403 168.095829 
L 521.918954 168.456344 
L 522.732504 168.167932 
L 523.546055 167.302696 
L 524.359605 166.076945 
L 525.173156 168.961065 
L 525.986707 177.180808 
L 526.800257 181.218576 
L 527.613808 181.362782 
L 528.427358 193.043469 
L 529.240909 196.864928 
L 529.240909 196.864928 
" clip-path="url(#p38c2f31973)" style="fill: none; stroke: #0000ff; stroke-width: 1.5; stroke-linecap: square"/>
   </g>
   <g id="line2d_33">
    <path d="M 98.059091 195.194626 
L 130.601115 195.194626 
L 131.414666 191.858166 
L 132.228216 191.965502 
L 133.041767 189.228433 
L 133.855317 183.59329 
L 134.668868 186.276691 
L 135.482419 186.974376 
L 136.295969 190.409129 
L 137.10952 192.985194 
L 137.92307 190.945809 
L 138.736621 185.256999 
L 139.550172 185.203331 
L 140.363722 187.296384 
L 141.990823 183.59329 
L 142.804374 178.870504 
L 144.431475 182.466262 
L 145.245026 180.319541 
L 146.058576 182.036918 
L 146.872127 179.782861 
L 147.685678 179.943865 
L 148.499228 171.142309 
L 149.312779 171.688435 
L 155.007633 171.688435 
L 155.821184 190.349948 
L 156.634734 184.548121 
L 157.448285 181.592473 
L 159.075386 152.309668 
L 159.888937 146.726778 
L 160.702487 150.722376 
L 161.516038 134.849453 
L 162.329588 129.759171 
L 163.143139 123.300533 
L 163.95669 118.264986 
L 164.77024 114.105185 
L 165.583791 117.827112 
L 166.397341 118.374454 
L 167.210892 113.886248 
L 168.024443 100.585834 
L 168.837993 82.195137 
L 169.651544 82.35934 
L 170.465094 76.940653 
L 171.278645 104.581432 
L 172.092196 96.371299 
L 172.905746 98.122794 
L 173.719297 103.979355 
L 174.532847 96.809173 
L 175.346398 100.312163 
L 176.159949 113.612577 
L 176.973499 100.476365 
L 177.78705 112.35369 
L 178.6006 120.071215 
L 179.414151 117.717643 
L 180.227702 135.342061 
L 181.041252 134.302111 
L 181.854803 138.845051 
L 182.668353 140.541811 
L 183.481904 143.77113 
L 184.295455 159.425116 
L 185.109005 155.97686 
L 185.922556 151.598123 
L 186.736106 151.269718 
L 187.549657 152.364402 
L 189.176758 159.86299 
L 189.990309 158.987242 
L 190.803859 147.219386 
L 191.61741 152.911744 
L 192.430961 153.512562 
L 193.244511 157.862681 
L 194.058062 161.402455 
L 194.871612 167.689516 
L 195.685163 171.282122 
L 196.498714 162.564768 
L 197.312264 160.979795 
L 198.125815 161.556408 
L 214.396827 161.556408 
L 215.210377 167.124974 
L 216.023928 167.683152 
L 237.989794 167.683152 
L 238.803345 161.971783 
L 239.616895 163.45405 
L 240.430446 155.746261 
L 241.243997 144.819835 
L 242.057547 142.829362 
L 242.871098 133.97811 
L 243.684648 140.330683 
L 244.498199 138.890767 
L 245.31175 147.403215 
L 246.1253 153.713438 
L 246.938851 169.721923 
L 247.752401 169.976026 
L 248.565952 162.734092 
L 249.379503 163.708153 
L 250.193053 162.225886 
L 251.006604 165.868028 
L 251.820154 172.771158 
L 252.633705 170.187778 
L 253.447256 174.295775 
L 254.260806 168.154955 
L 255.074357 170.145428 
L 255.887907 167.689099 
L 256.701458 159.261352 
L 257.515009 160.78597 
L 258.328559 161.844732 
L 259.14211 163.877555 
L 259.95566 170.738334 
L 260.769211 171.285672 
L 275.413122 171.285672 
L 276.226672 171.718164 
L 277.040223 179.585845 
L 278.667324 184.79323 
L 279.480875 199.000337 
L 280.294425 196.057032 
L 281.107976 199.396552 
L 281.921527 197.019267 
L 282.735077 195.1514 
L 283.548628 195.887226 
L 284.362178 191.981687 
L 285.175729 193.000523 
L 285.98928 196.113634 
L 286.80283 196.962665 
L 287.616381 206.698212 
L 288.429931 206.981222 
L 289.243482 207.660446 
L 290.057033 207.377436 
L 290.870583 209.245303 
L 291.684134 206.64161 
L 292.497684 207.081238 
L 307.141595 207.081238 
L 307.955146 205.523286 
L 308.768696 200.407866 
L 310.395798 211.823985 
L 311.209348 210.638705 
L 312.022899 213.071649 
L 312.836449 210.576322 
L 314.463551 214.506462 
L 316.090652 213.88263 
L 316.904202 212.447817 
L 317.717753 212.323051 
L 318.531304 214.568845 
L 319.344854 216.377957 
L 320.158405 216.565106 
L 320.971955 213.69548 
L 321.785506 211.699219 
L 322.599057 212.123674 
L 346.192024 212.123674 
L 347.005575 214.623536 
L 347.819125 220.449777 
L 348.632676 210.873975 
L 349.446226 210.41249 
L 350.259777 213.52751 
L 351.073328 209.258779 
L 351.886878 216.64253 
L 352.700429 219.353751 
L 353.513979 221.603488 
L 354.32753 224.660823 
L 355.141081 232.044574 
L 355.954631 234.467367 
L 356.768182 230.66012 
L 357.581732 229.391038 
L 358.395283 235.678764 
L 359.208834 232.159945 
L 360.022384 237.986186 
L 360.835935 235.678764 
L 362.463036 232.448373 
L 364.090137 226.737503 
L 364.903688 227.116843 
L 407.208319 227.116843 
L 408.02187 226.661746 
L 408.83542 226.453422 
L 409.648971 224.786825 
L 410.462521 224.161851 
L 411.276072 223.814643 
L 412.089623 223.328552 
L 413.716724 228.18946 
L 414.530274 228.564445 
L 419.411578 228.564445 
L 420.225129 230.926694 
L 421.038679 224.734281 
L 421.85223 223.878328 
L 422.66578 225.476107 
L 423.479331 222.394677 
L 424.292882 226.332059 
L 425.106432 225.590234 
L 425.919983 229.584679 
L 426.733533 227.872774 
L 427.547084 229.984124 
L 428.360635 224.506027 
L 429.174185 227.359202 
L 429.987736 227.986901 
L 430.801286 228.443409 
L 431.614837 225.932615 
L 432.428388 233.293807 
L 433.241938 231.239521 
L 434.055489 228.101028 
L 434.869039 234.834522 
L 435.68259 228.329282 
L 436.496141 226.67444 
L 437.309691 229.071108 
L 438.123242 223.022376 
L 440.563894 219.655629 
L 441.377444 221.881105 
L 442.190995 208.756498 
L 443.004545 208.642371 
L 443.818096 213.378643 
L 444.631647 213.435706 
L 445.445197 205.960386 
L 446.258748 195.28951 
L 447.072298 194.890066 
L 447.885849 193.17816 
L 448.6994 192.949906 
L 449.51295 198.656257 
L 450.326501 197.286733 
L 451.140051 193.406414 
L 451.953602 201.281179 
L 452.767153 200.824671 
L 453.580703 202.76483 
L 454.394254 191.808636 
L 455.207804 192.550462 
L 456.021355 192.379271 
L 456.834906 198.428003 
L 457.648456 182.963792 
L 458.462007 180.281807 
L 459.275557 181.993713 
L 460.089108 188.384826 
L 460.902659 191.123874 
L 461.716209 207.329911 
L 462.52976 205.104434 
L 463.34331 208.642371 
L 464.156861 211.210229 
L 464.970412 210.41134 
L 465.783962 207.044593 
L 466.597513 205.04737 
L 467.411063 206.473958 
L 468.224614 209.840705 
L 469.038165 216.117691 
L 469.851715 216.528891 
L 515.410549 216.528891 
L 516.224099 229.221659 
L 517.03765 227.939118 
L 517.851201 227.495161 
L 518.664751 225.620677 
L 519.478302 224.387464 
L 520.291852 225.17672 
L 521.105403 226.557919 
L 521.918954 226.804562 
L 522.732504 226.607247 
L 523.546055 226.015305 
L 524.359605 225.17672 
L 525.173156 227.149861 
L 525.986707 232.773313 
L 526.800257 235.53571 
L 527.613808 235.634367 
L 528.427358 243.625588 
L 529.240909 246.24 
L 529.240909 246.24 
" clip-path="url(#p38c2f31973)" style="fill: none; stroke: #008000; stroke-width: 1.5; stroke-linecap: square"/>
   </g>
   <g id="line2d_34">
    <path d="M 98.059091 195.194626 
L 101.313293 195.194626 
L 102.126844 197.359007 
L 102.940395 200.022686 
L 103.753945 199.254317 
L 104.567496 192.031649 
L 105.381046 200.073911 
L 106.194597 202.942488 
L 107.008148 202.481467 
L 107.821698 201.252077 
L 108.635249 201.707873 
L 109.448799 203.060351 
L 110.26235 208.997454 
L 111.075901 207.899839 
L 111.889451 207.899839 
L 112.703002 212.539759 
L 113.516552 214.285966 
L 114.330103 213.936725 
L 115.143654 212.190518 
L 115.957204 212.613499 
L 120.024957 212.613499 
L 120.838508 220.971967 
L 121.652058 211.829628 
L 122.465609 215.49661 
L 123.27916 215.345912 
L 124.09271 215.759427 
L 127.346913 215.759427 
L 128.160463 208.766944 
L 128.974014 209.200196 
L 129.787564 208.230461 
L 130.601115 211.323839 
L 131.414666 207.892123 
L 132.228216 207.988791 
L 133.041767 205.523755 
L 133.855317 200.448681 
L 134.668868 200.906887 
L 135.482419 200.906887 
L 136.295969 204.501115 
L 137.10952 206.854161 
L 137.92307 204.991333 
L 138.736621 199.795022 
L 139.550172 199.746 
L 140.363722 201.65785 
L 141.177273 200.040131 
L 141.990823 200.499563 
L 142.804374 200.499563 
L 143.617925 202.457387 
L 144.431475 204.09776 
L 145.245026 202.223048 
L 146.058576 203.722818 
L 146.872127 201.75437 
L 147.685678 201.894973 
L 148.499228 194.208654 
L 149.312779 193.036959 
L 150.126329 195.239745 
L 150.93988 194.958539 
L 151.753431 191.630925 
L 152.566981 189.849948 
L 153.380532 193.833711 
L 154.194082 190.740436 
L 155.007633 198.239285 
L 155.821184 213.752527 
L 156.634734 208.78454 
L 157.448285 206.253679 
L 159.075386 181.179405 
L 159.888937 176.398889 
L 160.702487 179.820238 
L 161.516038 166.228576 
L 162.329588 166.789443 
L 163.95669 157.788245 
L 164.77024 154.328297 
L 165.583791 157.42404 
L 166.397341 157.879296 
L 167.210892 154.146195 
L 168.024443 143.083467 
L 168.837993 127.786856 
L 169.651544 127.923433 
L 170.465094 123.416396 
L 171.278645 146.406838 
L 172.092196 139.577994 
L 172.905746 141.034814 
L 173.719297 145.906056 
L 174.532847 139.942199 
L 175.346398 142.855839 
L 176.159949 153.918567 
L 176.973499 142.992416 
L 177.78705 152.871477 
L 178.6006 159.290591 
L 179.414151 157.332989 
L 180.227702 157.920543 
L 181.041252 157.920543 
L 181.854803 162.54691 
L 182.668353 164.056041 
L 183.481904 166.928259 
L 184.295455 180.85121 
L 185.109005 177.784266 
L 185.922556 173.889734 
L 186.736106 173.597644 
L 187.549657 174.571277 
L 189.176758 181.240663 
L 189.990309 180.461756 
L 190.803859 169.995202 
L 191.61741 170.544769 
L 194.871612 170.544769 
L 195.685163 174.619383 
L 196.498714 166.061961 
L 197.312264 164.506067 
L 198.125815 163.57253 
L 198.939365 158.178761 
L 199.752916 152.007045 
L 200.566467 153.199898 
L 201.380017 154.185298 
L 202.193568 154.782295 
L 204.63422 154.782295 
L 205.44777 157.17707 
L 206.261321 150.562436 
L 207.074871 147.692852 
L 207.888422 150.124703 
L 208.701973 149.930155 
L 209.515523 148.471044 
L 210.329074 140.154115 
L 211.142624 143.16961 
L 211.956175 143.65598 
L 212.769726 145.017816 
L 213.583276 151.535176 
L 214.396827 144.774631 
L 215.210377 150.221977 
L 216.023928 150.830864 
L 216.837479 157.415593 
L 217.651029 161.550147 
L 218.46458 159.80666 
L 219.27813 163.343447 
L 220.091681 163.642331 
L 220.905232 162.546425 
L 221.718782 155.622292 
L 222.532333 152.932341 
L 223.345883 154.028247 
L 224.159434 153.779177 
L 224.972985 155.522664 
L 225.786535 155.672106 
L 226.600086 162.496611 
L 227.413636 161.052008 
L 228.227187 159.358335 
L 229.040738 160.852752 
L 229.854288 165.684701 
L 230.667839 162.596239 
L 232.29494 144.463977 
L 233.108491 143.417885 
L 233.922041 140.03054 
L 234.735592 138.237239 
L 235.549142 141.076632 
L 236.362693 141.712954 
L 237.176244 137.684389 
L 237.989794 134.224759 
L 238.803345 126.804103 
L 239.616895 128.558988 
L 240.430446 119.433587 
L 241.243997 106.497579 
L 242.057547 104.14102 
L 242.871098 93.66185 
L 243.684648 101.182785 
L 244.498199 99.47804 
L 245.31175 100.239159 
L 246.938851 100.239159 
L 247.752401 101.347282 
L 248.565952 91.392562 
L 249.379503 92.731501 
L 250.193053 90.693985 
L 251.006604 95.700453 
L 251.820154 105.189455 
L 252.633705 105.933439 
L 253.447256 112.208952 
L 254.260806 103.936836 
L 255.074357 104.684579 
L 257.515009 104.684579 
L 258.328559 106.793462 
L 259.14211 109.411159 
L 259.95566 118.245888 
L 260.769211 116.991575 
L 261.582762 123.317677 
L 262.396312 127.953183 
L 263.209863 129.262032 
L 264.023413 118.954848 
L 264.836964 117.373322 
L 265.650515 117.04611 
L 266.464065 112.410604 
L 267.277616 120.80905 
L 268.091166 121.506176 
L 268.904717 122.91068 
L 269.718268 130.527147 
L 270.531818 130.171238 
L 271.345369 129.032327 
L 272.158919 129.601782 
L 272.97247 119.707493 
L 273.786021 105.684652 
L 274.599571 111.094479 
L 275.413122 125.11732 
L 276.226672 124.974956 
L 277.040223 134.869245 
L 278.667324 141.417983 
L 279.480875 159.284649 
L 280.294425 159.866348 
L 281.107976 164.542677 
L 281.921527 161.626613 
L 282.735077 159.33542 
L 283.548628 160.238011 
L 284.362178 160.81685 
L 288.429931 160.81685 
L 289.243482 162.284964 
L 290.057033 162.857662 
L 290.870583 165.859517 
L 291.684134 162.471024 
L 292.497684 154.883747 
L 293.311235 155.478648 
L 294.124786 161.19347 
L 294.938336 164.33966 
L 295.751887 164.906194 
L 296.565437 170.314293 
L 297.378988 167.672512 
L 298.192539 173.836668 
L 299.006089 177.359042 
L 299.81964 180.147589 
L 300.63319 178.679933 
L 301.446741 177.799339 
L 302.260292 178.325494 
L 303.073842 178.325494 
L 303.887393 187.938581 
L 304.700943 188.990144 
L 305.514494 189.482727 
L 306.328045 189.482727 
L 307.141595 181.750905 
L 307.955146 182.265205 
L 308.768696 182.265205 
L 310.395798 195.511465 
L 311.209348 195.984483 
L 312.022899 199.131093 
L 312.836449 196.387492 
L 314.463551 200.708663 
L 315.277101 200.365713 
L 316.090652 200.824168 
L 323.412607 200.824168 
L 324.226158 200.55349 
L 326.66681 210.940585 
L 327.48036 211.602183 
L 328.293911 216.828811 
L 329.107461 218.350487 
L 329.921012 214.182417 
L 330.734563 215.307134 
L 331.548113 214.380897 
L 332.361664 214.797307 
L 333.175214 214.797307 
L 333.988765 219.427357 
L 334.802316 218.834638 
L 335.615866 221.995805 
L 336.429417 222.38937 
L 338.056518 222.38937 
L 338.870069 223.938603 
L 339.683619 221.753446 
L 340.49717 220.468059 
L 341.31072 217.254592 
L 342.124271 219.889635 
L 342.937822 223.23164 
L 343.751372 210.249234 
L 344.564923 202.729722 
L 345.378473 201.829951 
L 346.192024 196.495596 
L 347.005575 198.809292 
L 347.819125 205.300495 
L 348.632676 194.631785 
L 349.446226 194.117631 
L 350.259777 197.588175 
L 351.073328 192.832244 
L 351.886878 201.058719 
L 352.700429 204.079378 
L 353.513979 206.585882 
L 354.32753 209.992157 
L 355.141081 210.421733 
L 355.954631 210.421733 
L 356.768182 206.285366 
L 357.581732 206.726063 
L 358.395283 214.58205 
L 359.208834 210.431469 
L 360.022384 217.303742 
L 360.835935 214.58205 
L 362.463036 210.77168 
L 364.090137 204.035491 
L 364.903688 206.076761 
L 365.717238 206.553057 
L 366.530789 204.103534 
L 367.34434 207.23348 
L 368.15789 206.961311 
L 368.971441 207.399979 
L 369.784991 210.57113 
L 370.598542 210.63622 
L 371.412093 214.020922 
L 372.225643 216.429268 
L 373.039194 219.618698 
L 373.852744 220.019395 
L 385.242453 220.019395 
L 386.056003 220.686427 
L 386.869554 220.485774 
L 387.683105 220.017584 
L 388.496655 220.417084 
L 389.310206 221.404855 
L 390.123756 223.369757 
L 390.937307 224.090221 
L 391.750858 225.531148 
L 392.564408 224.352207 
L 393.377959 225.662142 
L 394.191509 225.269161 
L 395.00506 227.823533 
L 395.818611 226.448102 
L 396.632161 223.30426 
L 398.259262 227.49605 
L 399.072813 234.242211 
L 399.886364 233.325257 
L 400.699914 234.635191 
L 401.513465 237.779033 
L 402.327015 236.993073 
L 403.140566 231.032872 
L 403.954117 233.521747 
L 404.767667 234.569695 
L 405.581218 236.403603 
L 406.394768 234.176714 
L 408.02187 234.990838 
L 412.089623 234.902653 
L 412.903173 237.11648 
L 413.716724 237.464683 
L 416.157376 237.464683 
L 416.970926 234.909003 
L 417.784477 236.761879 
L 418.598027 228.670988 
L 419.411578 218.109596 
L 420.225129 220.271284 
L 421.038679 213.539169 
L 421.85223 212.608616 
L 422.66578 214.345649 
L 423.479331 214.762165 
L 424.292882 219.332086 
L 425.106432 218.549325 
L 425.919983 222.764193 
L 426.733533 220.957821 
L 427.547084 223.18568 
L 428.360635 217.40529 
L 429.174185 220.415909 
L 429.987736 221.078246 
L 430.801286 221.474564 
L 431.614837 219.226582 
L 432.428388 219.628455 
L 433.241938 217.74755 
L 434.055489 214.261814 
L 434.869039 221.740302 
L 435.68259 214.515322 
L 436.496141 212.677388 
L 437.309691 215.339223 
L 438.123242 208.621259 
L 440.563894 204.882015 
L 441.377444 207.353719 
L 442.190995 207.79121 
L 443.004545 207.79121 
L 443.818096 212.977258 
L 444.631647 213.034486 
L 445.445197 205.537704 
L 446.258748 205.980644 
L 447.072298 205.980644 
L 447.885849 204.835067 
L 448.6994 204.623442 
L 449.51295 209.914068 
L 450.326501 208.644318 
L 451.140051 205.046692 
L 451.953602 212.347757 
L 452.767153 211.924506 
L 453.580703 213.723319 
L 454.394254 203.565316 
L 455.207804 204.253098 
L 456.021355 204.094379 
L 456.834906 204.541648 
L 457.648456 190.178839 
L 458.462007 187.610534 
L 459.275557 189.249877 
L 460.089108 195.370094 
L 460.902659 197.993043 
L 461.716209 213.512163 
L 462.52976 211.381016 
L 463.34331 214.768993 
L 464.156861 215.184239 
L 469.851715 215.184239 
L 470.665266 214.972848 
L 471.478816 218.156656 
L 472.292367 218.561739 
L 473.105918 219.9837 
L 473.919468 218.117195 
L 475.546569 215.232598 
L 476.36012 209.180599 
L 477.173671 209.463402 
L 477.987221 208.049384 
L 478.800772 208.484788 
L 479.614322 212.644869 
L 480.427873 213.401709 
L 481.241424 209.55929 
L 482.054974 208.860668 
L 482.868525 208.860668 
L 483.682075 204.960031 
L 484.495626 205.309342 
L 485.309177 207.521644 
L 486.122727 210.31613 
L 486.936278 216.137976 
L 487.749828 207.987391 
L 489.37693 208.887332 
L 490.19048 212.277525 
L 491.004031 207.522648 
L 491.817581 197.722963 
L 492.631132 198.882689 
L 493.444683 196.969141 
L 494.258233 197.896922 
L 495.071784 196.157332 
L 495.885334 193.084058 
L 496.698885 192.736141 
L 497.512436 192.968086 
L 498.325986 195.461497 
L 499.139537 198.534771 
L 499.953087 200.796237 
L 500.766638 192.446209 
L 501.580189 189.372935 
L 502.393739 192.27225 
L 503.20729 193.721908 
L 504.02084 192.562182 
L 504.834391 190.880579 
L 506.461492 191.85294 
L 507.275043 195.33067 
L 508.088593 194.68228 
L 508.902144 197.39373 
L 509.715695 196.509562 
L 510.529245 199.162067 
L 511.342796 190.909827 
L 512.156346 192.913942 
L 512.969897 194.269668 
L 513.783448 192.678164 
L 514.596998 191.85294 
L 515.410549 192.336934 
L 516.224099 192.336934 
L 517.03765 191.16031 
L 517.851201 190.585983 
L 518.664751 188.161049 
L 519.478302 186.565697 
L 520.291852 187.586722 
L 521.105403 189.373516 
L 521.918954 189.692586 
L 522.732504 189.43733 
L 523.546055 189.928571 
L 527.613808 189.928571 
L 528.427358 201.483414 
L 529.240909 205.10347 
L 529.240909 205.10347 
" clip-path="url(#p38c2f31973)" style="fill: none; stroke: #800080; stroke-width: 1.5; stroke-linecap: square"/>
   </g>
   <g id="line2d_35">
    <path d="M 98.059091 195.194626 
L 120.024957 195.194626 
L 120.838508 204.439794 
L 121.652058 204.737282 
L 124.906261 204.737282 
L 125.719811 204.37961 
L 126.533362 204.67722 
L 127.346913 203.148458 
L 128.160463 195.039867 
L 128.974014 193.697385 
L 129.787564 192.140106 
L 130.601115 192.462195 
L 131.414666 192.462195 
L 132.228216 192.890359 
L 133.041767 190.168992 
L 133.855317 184.566176 
L 134.668868 187.234183 
L 135.482419 187.927865 
L 136.295969 191.342915 
L 137.10952 193.904202 
L 137.92307 191.876516 
L 138.736621 186.220341 
L 139.550172 186.166981 
L 140.363722 188.248026 
L 141.177273 188.577899 
L 141.990823 187.014033 
L 142.804374 182.386508 
L 143.617925 184.069245 
L 144.431475 184.407475 
L 151.753431 184.407475 
L 152.566981 182.888141 
L 153.380532 183.228733 
L 155.007633 183.228733 
L 155.821184 200.550726 
L 156.634734 195.112355 
L 157.448285 192.341865 
L 159.075386 164.893485 
L 159.888937 159.660336 
L 160.702487 163.405629 
L 161.516038 148.527068 
L 162.329588 143.755667 
L 163.143139 137.701632 
L 163.95669 132.981537 
L 164.77024 129.082328 
L 165.583791 132.571094 
L 166.397341 133.084147 
L 167.210892 128.877106 
L 168.024443 116.409898 
L 168.837993 99.171289 
L 169.651544 99.325205 
L 170.465094 94.245973 
L 171.278645 120.155191 
L 172.092196 112.459384 
L 172.905746 114.101156 
L 173.719297 119.590832 
L 174.532847 112.869827 
L 175.346398 116.153371 
L 176.159949 128.620579 
L 176.973499 116.307287 
L 177.78705 127.440555 
L 178.6006 134.674614 
L 179.414151 132.468483 
L 180.227702 132.909914 
L 184.295455 132.909914 
L 185.109005 129.438167 
L 185.922556 124.470172 
L 186.736106 124.097572 
L 187.549657 125.339571 
L 189.176758 133.847263 
L 189.990309 132.853664 
L 190.803859 119.502177 
L 191.61741 125.960571 
L 192.430961 126.415018 
L 232.29494 126.415018 
L 233.108491 125.734277 
L 233.922041 122.061374 
L 234.735592 120.116895 
L 236.362693 126.058357 
L 237.176244 121.035121 
L 237.989794 117.308204 
L 238.803345 109.314237 
L 239.616895 111.204702 
L 240.430446 101.374284 
L 241.243997 87.438855 
L 242.057547 84.90023 
L 242.871098 73.611453 
L 243.684648 81.713446 
L 244.498199 79.876994 
L 245.31175 90.733666 
L 246.1253 98.781646 
L 246.938851 119.198669 
L 247.752401 119.522749 
L 248.565952 110.286476 
L 249.379503 111.528782 
L 250.193053 109.638317 
L 251.006604 114.28346 
L 251.820154 123.087626 
L 252.633705 119.792815 
L 253.447256 125.032105 
L 254.260806 117.200178 
L 255.074357 119.738802 
L 255.887907 120.205693 
L 272.97247 120.205693 
L 273.786021 106.706717 
L 274.599571 112.094204 
L 275.413122 126.059137 
L 276.226672 125.917361 
L 277.040223 135.770791 
L 278.667324 142.292485 
L 279.480875 160.08537 
L 280.294425 156.399194 
L 281.107976 160.581585 
L 281.921527 157.60429 
L 282.735077 155.264987 
L 283.548628 156.18653 
L 284.362178 151.295259 
L 285.175729 152.571243 
L 285.98928 152.972469 
L 287.616381 152.972469 
L 288.429931 153.758927 
L 289.243482 154.157778 
L 296.565437 154.157778 
L 297.378988 151.686399 
L 298.192539 152.089395 
L 301.446741 152.089395 
L 302.260292 151.651866 
L 303.073842 152.054931 
L 303.887393 152.054931 
L 304.700943 153.734544 
L 305.514494 154.133443 
L 306.328045 154.133443 
L 307.141595 144.522952 
L 307.955146 141.663354 
L 308.768696 134.335634 
L 310.395798 150.68896 
L 311.209348 148.991074 
L 312.022899 152.476209 
L 312.836449 148.901711 
L 314.463551 154.531545 
L 316.090652 153.63792 
L 316.904202 151.582584 
L 317.717753 151.985788 
L 343.751372 151.985788 
L 344.564923 141.824723 
L 345.378473 140.560719 
L 346.192024 133.066981 
L 347.005575 136.317277 
L 347.819125 145.436163 
L 348.632676 130.448688 
L 349.446226 129.7264 
L 350.259777 134.601843 
L 351.073328 127.92068 
L 351.886878 139.477287 
L 352.700429 143.720729 
L 353.513979 147.241883 
L 354.32753 152.027041 
L 355.141081 163.583648 
L 355.954631 167.37566 
L 356.768182 161.416784 
L 357.581732 161.800319 
L 398.259262 161.800319 
L 399.072813 172.434842 
L 399.886364 171.0414 
L 400.699914 173.032032 
L 401.513465 177.809549 
L 402.327015 176.61517 
L 403.140566 167.557794 
L 403.954117 171.339995 
L 404.767667 172.9325 
L 405.581218 175.719385 
L 406.394768 172.335311 
L 407.208319 173.032032 
L 408.02187 171.837653 
L 408.83542 171.539058 
L 409.648971 171.902348 
L 416.970926 171.902348 
L 417.784477 175.099158 
L 418.598027 162.722953 
L 419.411578 146.567754 
L 420.225129 149.874374 
L 421.038679 139.576616 
L 421.85223 138.153198 
L 422.66578 140.810245 
L 423.479331 135.68594 
L 424.292882 142.233663 
L 425.106432 141.000034 
L 425.919983 147.642653 
L 426.733533 144.795816 
L 427.547084 148.306914 
L 428.360635 139.197038 
L 429.174185 143.941765 
L 429.987736 144.985605 
L 430.801286 145.744762 
L 431.614837 141.569402 
L 432.428388 153.810798 
L 433.241938 150.394594 
L 434.055489 150.800174 
L 436.496141 150.800174 
L 437.309691 155.031343 
L 438.123242 155.427648 
L 439.750343 152.794824 
L 440.563894 150.71825 
L 441.377444 154.092683 
L 442.190995 134.19218 
L 443.004545 134.019132 
L 443.818096 141.200618 
L 444.631647 141.287142 
L 445.445197 129.952507 
L 446.258748 113.772533 
L 447.072298 113.166865 
L 447.885849 110.571148 
L 448.6994 110.225052 
L 449.51295 118.877445 
L 450.326501 116.80087 
L 451.140051 110.917243 
L 451.953602 122.857545 
L 452.767153 122.165354 
L 453.580703 125.107167 
L 454.394254 108.494573 
L 455.207804 109.619384 
L 456.021355 109.359813 
L 456.834906 109.847461 
L 457.648456 109.847461 
L 458.462007 106.507801 
L 459.275557 108.950142 
L 460.089108 109.43861 
L 461.716209 109.43861 
L 462.52976 106.214416 
L 463.34331 106.708356 
L 504.834391 106.708356 
L 505.647942 112.650018 
L 506.461492 112.650018 
L 507.275043 117.835082 
L 508.088593 116.868375 
L 508.902144 120.910967 
L 509.715695 119.592731 
L 510.529245 123.54744 
L 511.342796 124.006714 
L 514.596998 124.006714 
L 515.410549 122.375928 
L 516.224099 143.183773 
L 517.03765 141.011067 
L 517.851201 140.258976 
L 518.664751 137.083481 
L 519.478302 134.99434 
L 520.291852 136.33139 
L 521.105403 138.671229 
L 522.732504 139.517247 
L 523.546055 138.947357 
L 524.359605 137.534624 
L 525.173156 140.858703 
L 525.986707 141.283354 
L 528.427358 141.283354 
L 529.240909 146.75366 
L 529.240909 146.75366 
" clip-path="url(#p38c2f31973)" style="fill: none; stroke: #ff0000; stroke-width: 1.5; stroke-linecap: square"/>
   </g>
   <g id="patch_3">
    <path d="M 76.5 256.32 
L 76.5 34.56 
" style="fill: none; stroke: #000000; stroke-width: 0.8; stroke-linejoin: miter; stroke-linecap: square"/>
   </g>
   <g id="patch_4">
    <path d="M 550.8 256.32 
L 550.8 34.56 
" style="fill: none; stroke: #000000; stroke-width: 0.8; stroke-linejoin: miter; stroke-linecap: square"/>
   </g>
   <g id="patch_5">
    <path d="M 76.5 256.32 
L 550.8 256.32 
" style="fill: none; stroke: #000000; stroke-width: 0.8; stroke-linejoin: miter; stroke-linecap: square"/>
   </g>
   <g id="patch_6">
    <path d="M 76.5 34.56 
L 550.8 34.56 
" style="fill: none; stroke: #000000; stroke-width: 0.8; stroke-linejoin: miter; stroke-linecap: square"/>
   </g>
   <g id="legend_1">
    <g id="patch_7">
     <path d="M 83.5 113.255313 
L 157.728125 113.255313 
Q 159.728125 113.255313 159.728125 111.255313 
L 159.728125 41.56 
Q 159.728125 39.56 157.728125 39.56 
L 83.5 39.56 
Q 81.5 39.56 81.5 41.56 
L 81.5 111.255313 
Q 81.5 113.255313 83.5 113.255313 
z
" style="fill: #ffffff; opacity: 0.8; stroke: #cccccc; stroke-linejoin: miter"/>
    </g>
    <g id="line2d_36">
     <path d="M 85.5 47.06 
L 95.5 47.06 
L 105.5 47.06 
" style="fill: none; stroke: #ffa500; stroke-width: 1.5; stroke-linecap: square"/>
    </g>
    <g id="text_18">
     <!-- Market -->
     <g transform="translate(113.5 50.56)scale(0.1 -0.1)">
      <defs>
       <path id="TimesNewRomanPSMT-4d" d="M 2619 0 
L 981 3566 
L 981 734 
Q 981 344 1066 247 
Q 1181 116 1431 116 
L 1581 116 
L 1581 0 
L 106 0 
L 106 116 
L 256 116 
Q 525 116 638 278 
Q 706 378 706 734 
L 706 3503 
Q 706 3784 644 3909 
Q 600 4000 483 4061 
Q 366 4122 106 4122 
L 106 4238 
L 1306 4238 
L 2844 922 
L 4356 4238 
L 5556 4238 
L 5556 4122 
L 5409 4122 
Q 5138 4122 5025 3959 
Q 4956 3859 4956 3503 
L 4956 734 
Q 4956 344 5044 247 
Q 5159 116 5409 116 
L 5556 116 
L 5556 0 
L 3756 0 
L 3756 116 
L 3906 116 
Q 4178 116 4288 278 
Q 4356 378 4356 734 
L 4356 3566 
L 2722 0 
L 2619 0 
z
" transform="scale(0.015625)"/>
       <path id="TimesNewRomanPSMT-61" d="M 1822 413 
Q 1381 72 1269 19 
Q 1100 -59 909 -59 
Q 613 -59 420 144 
Q 228 347 228 678 
Q 228 888 322 1041 
Q 450 1253 767 1440 
Q 1084 1628 1822 1897 
L 1822 2009 
Q 1822 2438 1686 2597 
Q 1550 2756 1291 2756 
Q 1094 2756 978 2650 
Q 859 2544 859 2406 
L 866 2225 
Q 866 2081 792 2003 
Q 719 1925 600 1925 
Q 484 1925 411 2006 
Q 338 2088 338 2228 
Q 338 2497 613 2722 
Q 888 2947 1384 2947 
Q 1766 2947 2009 2819 
Q 2194 2722 2281 2516 
Q 2338 2381 2338 1966 
L 2338 994 
Q 2338 584 2353 492 
Q 2369 400 2405 369 
Q 2441 338 2488 338 
Q 2538 338 2575 359 
Q 2641 400 2828 588 
L 2828 413 
Q 2478 -56 2159 -56 
Q 2006 -56 1915 50 
Q 1825 156 1822 413 
z
M 1822 616 
L 1822 1706 
Q 1350 1519 1213 1441 
Q 966 1303 859 1153 
Q 753 1003 753 825 
Q 753 600 887 451 
Q 1022 303 1197 303 
Q 1434 303 1822 616 
z
" transform="scale(0.015625)"/>
       <path id="TimesNewRomanPSMT-72" d="M 1038 2947 
L 1038 2303 
Q 1397 2947 1775 2947 
Q 1947 2947 2059 2842 
Q 2172 2738 2172 2600 
Q 2172 2478 2090 2393 
Q 2009 2309 1897 2309 
Q 1788 2309 1652 2417 
Q 1516 2525 1450 2525 
Q 1394 2525 1328 2463 
Q 1188 2334 1038 2041 
L 1038 669 
Q 1038 431 1097 309 
Q 1138 225 1241 169 
Q 1344 113 1538 113 
L 1538 0 
L 72 0 
L 72 113 
Q 291 113 397 181 
Q 475 231 506 341 
Q 522 394 522 644 
L 522 1753 
Q 522 2253 501 2348 
Q 481 2444 426 2487 
Q 372 2531 291 2531 
Q 194 2531 72 2484 
L 41 2597 
L 906 2947 
L 1038 2947 
z
" transform="scale(0.015625)"/>
       <path id="TimesNewRomanPSMT-6b" d="M 1047 4444 
L 1047 1597 
L 1775 2259 
Q 2006 2472 2044 2528 
Q 2069 2566 2069 2603 
Q 2069 2666 2017 2711 
Q 1966 2756 1847 2763 
L 1847 2863 
L 3091 2863 
L 3091 2763 
Q 2834 2756 2664 2684 
Q 2494 2613 2291 2428 
L 1556 1750 
L 2291 822 
Q 2597 438 2703 334 
Q 2853 188 2966 144 
Q 3044 113 3238 113 
L 3238 0 
L 1847 0 
L 1847 113 
Q 1966 116 2008 148 
Q 2050 181 2050 241 
Q 2050 313 1925 472 
L 1047 1594 
L 1047 644 
Q 1047 366 1086 278 
Q 1125 191 1197 153 
Q 1269 116 1509 113 
L 1509 0 
L 53 0 
L 53 113 
Q 272 113 381 166 
Q 447 200 481 272 
Q 528 375 528 628 
L 528 3234 
Q 528 3731 506 3842 
Q 484 3953 434 3995 
Q 384 4038 303 4038 
Q 238 4038 106 3984 
L 53 4094 
L 903 4444 
L 1047 4444 
z
" transform="scale(0.015625)"/>
       <path id="TimesNewRomanPSMT-65" d="M 681 1784 
Q 678 1147 991 784 
Q 1303 422 1725 422 
Q 2006 422 2214 576 
Q 2422 731 2563 1106 
L 2659 1044 
Q 2594 616 2278 264 
Q 1963 -88 1488 -88 
Q 972 -88 605 314 
Q 238 716 238 1394 
Q 238 2128 614 2539 
Q 991 2950 1559 2950 
Q 2041 2950 2350 2633 
Q 2659 2316 2659 1784 
L 681 1784 
z
M 681 1966 
L 2006 1966 
Q 1991 2241 1941 2353 
Q 1863 2528 1708 2628 
Q 1553 2728 1384 2728 
Q 1125 2728 920 2526 
Q 716 2325 681 1966 
z
" transform="scale(0.015625)"/>
       <path id="TimesNewRomanPSMT-74" d="M 1031 3803 
L 1031 2863 
L 1700 2863 
L 1700 2644 
L 1031 2644 
L 1031 788 
Q 1031 509 1111 412 
Q 1191 316 1316 316 
Q 1419 316 1516 380 
Q 1613 444 1666 569 
L 1788 569 
Q 1678 263 1478 108 
Q 1278 -47 1066 -47 
Q 922 -47 784 33 
Q 647 113 581 261 
Q 516 409 516 719 
L 516 2644 
L 63 2644 
L 63 2747 
Q 234 2816 414 2980 
Q 594 3144 734 3369 
Q 806 3488 934 3803 
L 1031 3803 
z
" transform="scale(0.015625)"/>
      </defs>
      <use xlink:href="#TimesNewRomanPSMT-4d"/>
      <use xlink:href="#TimesNewRomanPSMT-61" x="88.916016"/>
      <use xlink:href="#TimesNewRomanPSMT-72" x="133.300781"/>
      <use xlink:href="#TimesNewRomanPSMT-6b" x="166.601562"/>
      <use xlink:href="#TimesNewRomanPSMT-65" x="216.601562"/>
      <use xlink:href="#TimesNewRomanPSMT-74" x="260.986328"/>
     </g>
    </g>
    <g id="line2d_37">
     <path d="M 85.5 61.199062 
L 95.5 61.199062 
L 105.5 61.199062 
" style="fill: none; stroke: #0000ff; stroke-width: 1.5; stroke-linecap: square"/>
    </g>
    <g id="text_19">
     <!-- BC -->
     <g transform="translate(113.5 64.699062)scale(0.1 -0.1)">
      <defs>
       <path id="TimesNewRomanPSMT-42" d="M 2956 2163 
Q 3397 2069 3616 1863 
Q 3919 1575 3919 1159 
Q 3919 844 3719 555 
Q 3519 266 3170 133 
Q 2822 0 2106 0 
L 106 0 
L 106 116 
L 266 116 
Q 531 116 647 284 
Q 719 394 719 750 
L 719 3488 
Q 719 3881 628 3984 
Q 506 4122 266 4122 
L 106 4122 
L 106 4238 
L 1938 4238 
Q 2450 4238 2759 4163 
Q 3228 4050 3475 3764 
Q 3722 3478 3722 3106 
Q 3722 2788 3528 2536 
Q 3334 2284 2956 2163 
z
M 1319 2331 
Q 1434 2309 1582 2298 
Q 1731 2288 1909 2288 
Q 2366 2288 2595 2386 
Q 2825 2484 2947 2687 
Q 3069 2891 3069 3131 
Q 3069 3503 2766 3765 
Q 2463 4028 1881 4028 
Q 1569 4028 1319 3959 
L 1319 2331 
z
M 1319 306 
Q 1681 222 2034 222 
Q 2600 222 2897 476 
Q 3194 731 3194 1106 
Q 3194 1353 3059 1581 
Q 2925 1809 2622 1940 
Q 2319 2072 1872 2072 
Q 1678 2072 1540 2065 
Q 1403 2059 1319 2044 
L 1319 306 
z
" transform="scale(0.015625)"/>
       <path id="TimesNewRomanPSMT-43" d="M 3853 4334 
L 3950 2894 
L 3853 2894 
Q 3659 3541 3300 3825 
Q 2941 4109 2438 4109 
Q 2016 4109 1675 3895 
Q 1334 3681 1139 3212 
Q 944 2744 944 2047 
Q 944 1472 1128 1050 
Q 1313 628 1683 403 
Q 2053 178 2528 178 
Q 2941 178 3256 354 
Q 3572 531 3950 1056 
L 4047 994 
Q 3728 428 3303 165 
Q 2878 -97 2294 -97 
Q 1241 -97 663 684 
Q 231 1266 231 2053 
Q 231 2688 515 3219 
Q 800 3750 1298 4042 
Q 1797 4334 2388 4334 
Q 2847 4334 3294 4109 
Q 3425 4041 3481 4041 
Q 3566 4041 3628 4100 
Q 3709 4184 3744 4334 
L 3853 4334 
z
" transform="scale(0.015625)"/>
      </defs>
      <use xlink:href="#TimesNewRomanPSMT-42"/>
      <use xlink:href="#TimesNewRomanPSMT-43" x="66.699219"/>
     </g>
    </g>
    <g id="line2d_38">
     <path d="M 85.5 75.338125 
L 95.5 75.338125 
L 105.5 75.338125 
" style="fill: none; stroke: #008000; stroke-width: 1.5; stroke-linecap: square"/>
    </g>
    <g id="text_20">
     <!-- DQN -->
     <g transform="translate(113.5 78.838125)scale(0.1 -0.1)">
      <defs>
       <path id="TimesNewRomanPSMT-44" d="M 109 0 
L 109 116 
L 269 116 
Q 538 116 650 288 
Q 719 391 719 750 
L 719 3488 
Q 719 3884 631 3984 
Q 509 4122 269 4122 
L 109 4122 
L 109 4238 
L 1834 4238 
Q 2784 4238 3279 4022 
Q 3775 3806 4076 3303 
Q 4378 2800 4378 2141 
Q 4378 1256 3841 663 
Q 3238 0 2003 0 
L 109 0 
z
M 1319 306 
Q 1716 219 1984 219 
Q 2709 219 3187 728 
Q 3666 1238 3666 2109 
Q 3666 2988 3187 3494 
Q 2709 4000 1959 4000 
Q 1678 4000 1319 3909 
L 1319 306 
z
" transform="scale(0.015625)"/>
       <path id="TimesNewRomanPSMT-51" d="M 2819 -47 
Q 3138 -597 3508 -856 
Q 3878 -1116 4350 -1153 
L 4350 -1253 
Q 3919 -1238 3428 -1080 
Q 2938 -922 2498 -642 
Q 2059 -363 1741 -47 
Q 1291 134 1028 338 
Q 647 641 436 1083 
Q 225 1525 225 2128 
Q 225 3078 840 3706 
Q 1456 4334 2331 4334 
Q 3163 4334 3770 3704 
Q 4378 3075 4378 2116 
Q 4378 1338 3945 750 
Q 3513 163 2819 -47 
z
M 2294 4094 
Q 1725 4094 1378 3688 
Q 941 3178 941 2128 
Q 941 1100 1384 544 
Q 1728 116 2294 116 
Q 2881 116 3241 544 
Q 3663 1050 3663 2038 
Q 3663 2797 3431 3316 
Q 3253 3716 2958 3905 
Q 2663 4094 2294 4094 
z
" transform="scale(0.015625)"/>
       <path id="TimesNewRomanPSMT-4e" d="M -84 4238 
L 1066 4238 
L 3656 1059 
L 3656 3503 
Q 3656 3894 3569 3991 
Q 3453 4122 3203 4122 
L 3056 4122 
L 3056 4238 
L 4531 4238 
L 4531 4122 
L 4381 4122 
Q 4113 4122 4000 3959 
Q 3931 3859 3931 3503 
L 3931 -69 
L 3819 -69 
L 1025 3344 
L 1025 734 
Q 1025 344 1109 247 
Q 1228 116 1475 116 
L 1625 116 
L 1625 0 
L 150 0 
L 150 116 
L 297 116 
Q 569 116 681 278 
Q 750 378 750 734 
L 750 3681 
Q 566 3897 470 3965 
Q 375 4034 191 4094 
Q 100 4122 -84 4122 
L -84 4238 
z
" transform="scale(0.015625)"/>
      </defs>
      <use xlink:href="#TimesNewRomanPSMT-44"/>
      <use xlink:href="#TimesNewRomanPSMT-51" x="72.216797"/>
      <use xlink:href="#TimesNewRomanPSMT-4e" x="144.433594"/>
     </g>
    </g>
    <g id="line2d_39">
     <path d="M 85.5 89.477188 
L 95.5 89.477188 
L 105.5 89.477188 
" style="fill: none; stroke: #800080; stroke-width: 1.5; stroke-linecap: square"/>
    </g>
    <g id="text_21">
     <!-- DDQN -->
     <g transform="translate(113.5 92.977188)scale(0.1 -0.1)">
      <use xlink:href="#TimesNewRomanPSMT-44"/>
      <use xlink:href="#TimesNewRomanPSMT-44" x="72.216797"/>
      <use xlink:href="#TimesNewRomanPSMT-51" x="144.433594"/>
      <use xlink:href="#TimesNewRomanPSMT-4e" x="216.650391"/>
     </g>
    </g>
    <g id="line2d_40">
     <path d="M 85.5 103.61625 
L 95.5 103.61625 
L 105.5 103.61625 
" style="fill: none; stroke: #ff0000; stroke-width: 1.5; stroke-linecap: square"/>
    </g>
    <g id="text_22">
     <!-- BCDDQN -->
     <g transform="translate(113.5 107.11625)scale(0.1 -0.1)">
      <use xlink:href="#TimesNewRomanPSMT-42"/>
      <use xlink:href="#TimesNewRomanPSMT-43" x="66.699219"/>
      <use xlink:href="#TimesNewRomanPSMT-44" x="133.398438"/>
      <use xlink:href="#TimesNewRomanPSMT-44" x="205.615234"/>
      <use xlink:href="#TimesNewRomanPSMT-51" x="277.832031"/>
      <use xlink:href="#TimesNewRomanPSMT-4e" x="350.048828"/>
     </g>
    </g>
   </g>
  </g>
 </g>
 <defs>
  <clipPath id="p38c2f31973">
   <rect x="76.5" y="34.56" width="474.3" height="221.76"/>
  </clipPath>
 </defs>
</svg>
