<?xml version="1.0" encoding="utf-8" standalone="no"?>
<!DOCTYPE svg PUBLIC "-//W3C//DTD SVG 1.1//EN"
  "http://www.w3.org/Graphics/SVG/1.1/DTD/svg11.dtd">
<svg xmlns:xlink="http://www.w3.org/1999/xlink" width="576pt" height="396pt" viewBox="0 0 576 396" xmlns="http://www.w3.org/2000/svg" version="1.1">
 <metadata>
  <rdf:RDF xmlns:dc="http://purl.org/dc/elements/1.1/" xmlns:cc="http://creativecommons.org/ns#" xmlns:rdf="http://www.w3.org/1999/02/22-rdf-syntax-ns#">
   <cc:Work>
    <dc:type rdf:resource="http://purl.org/dc/dcmitype/StillImage"/>
    <dc:date>2022-11-04T14:29:37.440304</dc:date>
    <dc:format>image/svg+xml</dc:format>
    <dc:creator>
     <cc:Agent>
      <dc:title>Matplotlib v3.5.1, https://matplotlib.org/</dc:title>
     </cc:Agent>
    </dc:creator>
   </cc:Work>
  </rdf:RDF>
 </metadata>
 <defs>
  <style type="text/css">*{stroke-linejoin: round; stroke-linecap: butt}</style>
 </defs>
 <g id="figure_1">
  <g id="patch_1">
   <path d="M 0 396 
L 576 396 
L 576 0 
L 0 0 
z
" style="fill: #ffffff"/>
  </g>
  <g id="axes_1">
   <g id="patch_2">
    <path d="M 72 352.44 
L 518.4 352.44 
L 518.4 47.52 
L 72 47.52 
z
" style="fill: #ffffff"/>
   </g>
   <g id="matplotlib.axis_1">
    <g id="xtick_1">
     <g id="line2d_1">
      <path d="M 92.290909 352.44 
L 92.290909 47.52 
" clip-path="url(#p663cb2c5a1)" style="fill: none; stroke: #b0b0b0; stroke-width: 0.8; stroke-linecap: square"/>
     </g>
     <g id="line2d_2">
      <defs>
       <path id="m00799c77a7" d="M 0 0 
L 0 -3.5 
" style="stroke: #000000; stroke-width: 0.8"/>
      </defs>
      <g>
       <use xlink:href="#m00799c77a7" x="92.290909" y="352.44" style="stroke: #000000; stroke-width: 0.8"/>
      </g>
     </g>
     <g id="text_1">
      <!-- 0.000 -->
      <g transform="translate(69.790909 369.8275)scale(0.2 -0.2)">
       <defs>
        <path id="TimesNewRomanPSMT-30" d="M 231 2094 
Q 231 2819 450 3342 
Q 669 3866 1031 4122 
Q 1313 4325 1613 4325 
Q 2100 4325 2488 3828 
Q 2972 3213 2972 2159 
Q 2972 1422 2759 906 
Q 2547 391 2217 158 
Q 1888 -75 1581 -75 
Q 975 -75 572 641 
Q 231 1244 231 2094 
z
M 844 2016 
Q 844 1141 1059 588 
Q 1238 122 1591 122 
Q 1759 122 1940 273 
Q 2122 425 2216 781 
Q 2359 1319 2359 2297 
Q 2359 3022 2209 3506 
Q 2097 3866 1919 4016 
Q 1791 4119 1609 4119 
Q 1397 4119 1231 3928 
Q 1006 3669 925 3112 
Q 844 2556 844 2016 
z
" transform="scale(0.015625)"/>
        <path id="TimesNewRomanPSMT-2e" d="M 800 606 
Q 947 606 1047 504 
Q 1147 403 1147 259 
Q 1147 116 1045 14 
Q 944 -88 800 -88 
Q 656 -88 554 14 
Q 453 116 453 259 
Q 453 406 554 506 
Q 656 606 800 606 
z
" transform="scale(0.015625)"/>
       </defs>
       <use xlink:href="#TimesNewRomanPSMT-30"/>
       <use xlink:href="#TimesNewRomanPSMT-2e" x="50"/>
       <use xlink:href="#TimesNewRomanPSMT-30" x="75"/>
       <use xlink:href="#TimesNewRomanPSMT-30" x="125"/>
       <use xlink:href="#TimesNewRomanPSMT-30" x="175"/>
      </g>
     </g>
    </g>
    <g id="xtick_2">
     <g id="line2d_3">
      <path d="M 159.927273 352.44 
L 159.927273 47.52 
" clip-path="url(#p663cb2c5a1)" style="fill: none; stroke: #b0b0b0; stroke-width: 0.8; stroke-linecap: square"/>
     </g>
     <g id="line2d_4">
      <g>
       <use xlink:href="#m00799c77a7" x="159.927273" y="352.44" style="stroke: #000000; stroke-width: 0.8"/>
      </g>
     </g>
     <g id="text_2">
      <!-- 0.001 -->
      <g transform="translate(137.427273 369.8275)scale(0.2 -0.2)">
       <defs>
        <path id="TimesNewRomanPSMT-31" d="M 750 3822 
L 1781 4325 
L 1884 4325 
L 1884 747 
Q 1884 391 1914 303 
Q 1944 216 2037 169 
Q 2131 122 2419 116 
L 2419 0 
L 825 0 
L 825 116 
Q 1125 122 1212 167 
Q 1300 213 1334 289 
Q 1369 366 1369 747 
L 1369 3034 
Q 1369 3497 1338 3628 
Q 1316 3728 1258 3775 
Q 1200 3822 1119 3822 
Q 1003 3822 797 3725 
L 750 3822 
z
" transform="scale(0.015625)"/>
       </defs>
       <use xlink:href="#TimesNewRomanPSMT-30"/>
       <use xlink:href="#TimesNewRomanPSMT-2e" x="50"/>
       <use xlink:href="#TimesNewRomanPSMT-30" x="75"/>
       <use xlink:href="#TimesNewRomanPSMT-30" x="125"/>
       <use xlink:href="#TimesNewRomanPSMT-31" x="175"/>
      </g>
     </g>
    </g>
    <g id="xtick_3">
     <g id="line2d_5">
      <path d="M 227.563636 352.44 
L 227.563636 47.52 
" clip-path="url(#p663cb2c5a1)" style="fill: none; stroke: #b0b0b0; stroke-width: 0.8; stroke-linecap: square"/>
     </g>
     <g id="line2d_6">
      <g>
       <use xlink:href="#m00799c77a7" x="227.563636" y="352.44" style="stroke: #000000; stroke-width: 0.8"/>
      </g>
     </g>
     <g id="text_3">
      <!-- 0.002 -->
      <g transform="translate(205.063636 369.8275)scale(0.2 -0.2)">
       <defs>
        <path id="TimesNewRomanPSMT-32" d="M 2934 816 
L 2638 0 
L 138 0 
L 138 116 
Q 1241 1122 1691 1759 
Q 2141 2397 2141 2925 
Q 2141 3328 1894 3587 
Q 1647 3847 1303 3847 
Q 991 3847 742 3664 
Q 494 3481 375 3128 
L 259 3128 
Q 338 3706 661 4015 
Q 984 4325 1469 4325 
Q 1984 4325 2329 3994 
Q 2675 3663 2675 3213 
Q 2675 2891 2525 2569 
Q 2294 2063 1775 1497 
Q 997 647 803 472 
L 1909 472 
Q 2247 472 2383 497 
Q 2519 522 2628 598 
Q 2738 675 2819 816 
L 2934 816 
z
" transform="scale(0.015625)"/>
       </defs>
       <use xlink:href="#TimesNewRomanPSMT-30"/>
       <use xlink:href="#TimesNewRomanPSMT-2e" x="50"/>
       <use xlink:href="#TimesNewRomanPSMT-30" x="75"/>
       <use xlink:href="#TimesNewRomanPSMT-30" x="125"/>
       <use xlink:href="#TimesNewRomanPSMT-32" x="175"/>
      </g>
     </g>
    </g>
    <g id="xtick_4">
     <g id="line2d_7">
      <path d="M 295.2 352.44 
L 295.2 47.52 
" clip-path="url(#p663cb2c5a1)" style="fill: none; stroke: #b0b0b0; stroke-width: 0.8; stroke-linecap: square"/>
     </g>
     <g id="line2d_8">
      <g>
       <use xlink:href="#m00799c77a7" x="295.2" y="352.44" style="stroke: #000000; stroke-width: 0.8"/>
      </g>
     </g>
     <g id="text_4">
      <!-- 0.003 -->
      <g transform="translate(272.7 369.8275)scale(0.2 -0.2)">
       <defs>
        <path id="TimesNewRomanPSMT-33" d="M 325 3431 
Q 506 3859 782 4092 
Q 1059 4325 1472 4325 
Q 1981 4325 2253 3994 
Q 2459 3747 2459 3466 
Q 2459 3003 1878 2509 
Q 2269 2356 2469 2072 
Q 2669 1788 2669 1403 
Q 2669 853 2319 450 
Q 1863 -75 997 -75 
Q 569 -75 414 31 
Q 259 138 259 259 
Q 259 350 332 419 
Q 406 488 509 488 
Q 588 488 669 463 
Q 722 447 909 348 
Q 1097 250 1169 231 
Q 1284 197 1416 197 
Q 1734 197 1970 444 
Q 2206 691 2206 1028 
Q 2206 1275 2097 1509 
Q 2016 1684 1919 1775 
Q 1784 1900 1550 2001 
Q 1316 2103 1072 2103 
L 972 2103 
L 972 2197 
Q 1219 2228 1467 2375 
Q 1716 2522 1828 2728 
Q 1941 2934 1941 3181 
Q 1941 3503 1739 3701 
Q 1538 3900 1238 3900 
Q 753 3900 428 3381 
L 325 3431 
z
" transform="scale(0.015625)"/>
       </defs>
       <use xlink:href="#TimesNewRomanPSMT-30"/>
       <use xlink:href="#TimesNewRomanPSMT-2e" x="50"/>
       <use xlink:href="#TimesNewRomanPSMT-30" x="75"/>
       <use xlink:href="#TimesNewRomanPSMT-30" x="125"/>
       <use xlink:href="#TimesNewRomanPSMT-33" x="175"/>
      </g>
     </g>
    </g>
    <g id="xtick_5">
     <g id="line2d_9">
      <path d="M 362.836364 352.44 
L 362.836364 47.52 
" clip-path="url(#p663cb2c5a1)" style="fill: none; stroke: #b0b0b0; stroke-width: 0.8; stroke-linecap: square"/>
     </g>
     <g id="line2d_10">
      <g>
       <use xlink:href="#m00799c77a7" x="362.836364" y="352.44" style="stroke: #000000; stroke-width: 0.8"/>
      </g>
     </g>
     <g id="text_5">
      <!-- 0.004 -->
      <g transform="translate(340.336364 369.8275)scale(0.2 -0.2)">
       <defs>
        <path id="TimesNewRomanPSMT-34" d="M 2978 1563 
L 2978 1119 
L 2409 1119 
L 2409 0 
L 1894 0 
L 1894 1119 
L 100 1119 
L 100 1519 
L 2066 4325 
L 2409 4325 
L 2409 1563 
L 2978 1563 
z
M 1894 1563 
L 1894 3666 
L 406 1563 
L 1894 1563 
z
" transform="scale(0.015625)"/>
       </defs>
       <use xlink:href="#TimesNewRomanPSMT-30"/>
       <use xlink:href="#TimesNewRomanPSMT-2e" x="50"/>
       <use xlink:href="#TimesNewRomanPSMT-30" x="75"/>
       <use xlink:href="#TimesNewRomanPSMT-30" x="125"/>
       <use xlink:href="#TimesNewRomanPSMT-34" x="175"/>
      </g>
     </g>
    </g>
    <g id="xtick_6">
     <g id="line2d_11">
      <path d="M 430.472727 352.44 
L 430.472727 47.52 
" clip-path="url(#p663cb2c5a1)" style="fill: none; stroke: #b0b0b0; stroke-width: 0.8; stroke-linecap: square"/>
     </g>
     <g id="line2d_12">
      <g>
       <use xlink:href="#m00799c77a7" x="430.472727" y="352.44" style="stroke: #000000; stroke-width: 0.8"/>
      </g>
     </g>
     <g id="text_6">
      <!-- 0.005 -->
      <g transform="translate(407.972727 369.8275)scale(0.2 -0.2)">
       <defs>
        <path id="TimesNewRomanPSMT-35" d="M 2778 4238 
L 2534 3706 
L 1259 3706 
L 981 3138 
Q 1809 3016 2294 2522 
Q 2709 2097 2709 1522 
Q 2709 1188 2573 903 
Q 2438 619 2231 419 
Q 2025 219 1772 97 
Q 1413 -75 1034 -75 
Q 653 -75 479 54 
Q 306 184 306 341 
Q 306 428 378 495 
Q 450 563 559 563 
Q 641 563 702 538 
Q 763 513 909 409 
Q 1144 247 1384 247 
Q 1750 247 2026 523 
Q 2303 800 2303 1197 
Q 2303 1581 2056 1914 
Q 1809 2247 1375 2428 
Q 1034 2569 447 2591 
L 1259 4238 
L 2778 4238 
z
" transform="scale(0.015625)"/>
       </defs>
       <use xlink:href="#TimesNewRomanPSMT-30"/>
       <use xlink:href="#TimesNewRomanPSMT-2e" x="50"/>
       <use xlink:href="#TimesNewRomanPSMT-30" x="75"/>
       <use xlink:href="#TimesNewRomanPSMT-30" x="125"/>
       <use xlink:href="#TimesNewRomanPSMT-35" x="175"/>
      </g>
     </g>
    </g>
    <g id="xtick_7">
     <g id="line2d_13">
      <path d="M 498.109091 352.44 
L 498.109091 47.52 
" clip-path="url(#p663cb2c5a1)" style="fill: none; stroke: #b0b0b0; stroke-width: 0.8; stroke-linecap: square"/>
     </g>
     <g id="line2d_14">
      <g>
       <use xlink:href="#m00799c77a7" x="498.109091" y="352.44" style="stroke: #000000; stroke-width: 0.8"/>
      </g>
     </g>
     <g id="text_7">
      <!-- 0.006 -->
      <g transform="translate(475.609091 369.8275)scale(0.2 -0.2)">
       <defs>
        <path id="TimesNewRomanPSMT-36" d="M 2869 4325 
L 2869 4209 
Q 2456 4169 2195 4045 
Q 1934 3922 1679 3669 
Q 1425 3416 1258 3105 
Q 1091 2794 978 2366 
Q 1428 2675 1881 2675 
Q 2316 2675 2634 2325 
Q 2953 1975 2953 1425 
Q 2953 894 2631 456 
Q 2244 -75 1606 -75 
Q 1172 -75 869 213 
Q 275 772 275 1663 
Q 275 2231 503 2743 
Q 731 3256 1154 3653 
Q 1578 4050 1965 4187 
Q 2353 4325 2688 4325 
L 2869 4325 
z
M 925 2138 
Q 869 1716 869 1456 
Q 869 1156 980 804 
Q 1091 453 1309 247 
Q 1469 100 1697 100 
Q 1969 100 2183 356 
Q 2397 613 2397 1088 
Q 2397 1622 2184 2012 
Q 1972 2403 1581 2403 
Q 1463 2403 1327 2353 
Q 1191 2303 925 2138 
z
" transform="scale(0.015625)"/>
       </defs>
       <use xlink:href="#TimesNewRomanPSMT-30"/>
       <use xlink:href="#TimesNewRomanPSMT-2e" x="50"/>
       <use xlink:href="#TimesNewRomanPSMT-30" x="75"/>
       <use xlink:href="#TimesNewRomanPSMT-30" x="125"/>
       <use xlink:href="#TimesNewRomanPSMT-36" x="175"/>
      </g>
     </g>
    </g>
    <g id="text_8">
     <!-- 交易费用率 -->
     <g transform="translate(257.7 390.000156)scale(0.15 -0.15)">
      <defs>
       <path id="SimSun-4ea4" d="M 2625 5175 
L 2700 5250 
Q 3500 4850 3512 4625 
Q 3525 4400 3412 4300 
Q 3300 4200 3275 4200 
Q 3175 4200 3100 4425 
Q 2975 4750 2625 5175 
z
M 375 4150 
L 5075 4150 
L 5475 4550 
L 6025 4000 
L 1175 4000 
Q 875 4000 600 3925 
L 375 4150 
z
M 2150 3850 
L 2600 3450 
L 2350 3375 
Q 1250 2375 475 2075 
L 450 2150 
Q 1075 2575 1550 3075 
Q 2025 3575 2150 3850 
z
M 3825 3675 
L 3875 3775 
Q 4750 3375 5137 3125 
Q 5525 2875 5525 2625 
Q 5525 2550 5462 2400 
Q 5400 2250 5350 2250 
Q 5275 2250 5175 2425 
Q 4975 2725 4687 3000 
Q 4400 3275 3825 3675 
z
M 4550 2600 
L 4300 2475 
Q 3825 1400 3325 875 
Q 4400 -100 6125 -25 
L 6125 -100 
Q 5725 -275 5675 -525 
Q 4000 -275 3150 650 
Q 2100 -225 425 -600 
L 400 -500 
Q 1950 -25 2950 875 
Q 2425 1625 2050 2825 
L 2150 2850 
Q 2600 1775 3150 1100 
Q 3675 1775 3975 2950 
L 4550 2600 
z
" transform="scale(0.015625)"/>
       <path id="SimSun-6613" d="M 2225 2975 
L 2700 2625 
L 2475 2550 
Q 2350 2375 2225 2225 
L 5100 2225 
L 5325 2450 
L 5725 2100 
L 5500 1950 
Q 5375 1150 5287 712 
Q 5200 275 5062 -75 
Q 4925 -425 4325 -550 
Q 4350 -250 3675 25 
L 3700 125 
Q 4250 -25 4462 -25 
Q 4675 -25 4787 250 
Q 4900 525 5150 2075 
L 4400 2075 
Q 3875 575 3012 75 
Q 2150 -425 1275 -600 
L 1250 -525 
Q 2300 -175 2937 362 
Q 3575 900 4000 2075 
L 3250 2075 
Q 2725 1100 2100 700 
Q 1475 300 825 150 
L 800 225 
Q 1550 525 2012 937 
Q 2475 1350 2825 2075 
L 2125 2075 
Q 1550 1425 725 1025 
L 675 1100 
Q 1650 1775 2225 2975 
z
M 2050 3875 
L 2050 3150 
L 4425 3150 
L 4425 3875 
L 2050 3875 
z
M 1675 2700 
Q 1700 3250 1700 3775 
Q 1700 4300 1675 5125 
L 2050 4900 
L 4375 4900 
L 4550 5150 
L 4975 4850 
L 4775 4675 
Q 4775 3250 4800 2875 
L 4425 2700 
L 4425 3000 
L 2050 3000 
L 2050 2850 
L 1675 2700 
z
M 2050 4750 
L 2050 4025 
L 4425 4025 
L 4425 4750 
L 2050 4750 
z
" transform="scale(0.015625)"/>
       <path id="SimSun-8d39" d="M 1525 425 
Q 1550 975 1550 1362 
Q 1550 1750 1550 2175 
L 1900 2075 
L 4500 2075 
L 4700 2300 
L 5075 1950 
L 4850 1825 
Q 4850 1025 4875 700 
L 4500 500 
L 4500 1925 
L 1900 1925 
L 1900 600 
L 1525 425 
z
M 2975 1825 
L 3525 1550 
L 3325 1400 
Q 3250 825 3037 450 
Q 2825 75 2237 -212 
Q 1650 -500 600 -625 
L 600 -525 
Q 1675 -325 2175 37 
Q 2675 400 2812 787 
Q 2950 1175 2975 1825 
z
M 3375 500 
L 3400 600 
Q 4725 350 5037 125 
Q 5350 -100 5350 -275 
Q 5350 -325 5300 -450 
Q 5250 -575 5175 -575 
Q 5100 -575 4975 -450 
Q 4750 -200 4462 -12 
Q 4175 175 3375 500 
z
M 2750 4350 
L 2750 3825 
L 3650 3825 
L 3650 4350 
L 2750 4350 
z
M 3975 4350 
L 3975 3825 
L 4950 3825 
L 4950 4350 
L 3975 4350 
z
M 2750 3675 
Q 2725 3450 2675 3225 
L 3650 3225 
L 3650 3675 
L 2750 3675 
z
M 1450 3675 
L 1325 3225 
L 2325 3225 
Q 2400 3425 2425 3675 
L 1450 3675 
z
M 5750 2950 
Q 5650 2625 5537 2450 
Q 5425 2275 5075 2150 
Q 5075 2425 4650 2625 
L 4675 2700 
Q 4975 2600 5100 2600 
Q 5200 2600 5275 2662 
Q 5350 2725 5425 3075 
L 3975 3075 
Q 3975 2725 4000 2350 
L 3625 2200 
Q 3650 2700 3650 3075 
L 2625 3075 
Q 2200 2300 625 1900 
L 600 2000 
Q 1850 2425 2275 3075 
L 1300 3075 
L 1125 2875 
L 825 3175 
Q 950 3250 1025 3475 
Q 1100 3700 1150 4025 
L 1475 3825 
L 2425 3825 
L 2425 4350 
L 1675 4350 
Q 1350 4350 1075 4275 
L 850 4500 
L 2425 4500 
Q 2425 4875 2400 5250 
L 2925 4975 
L 2750 4775 
L 2750 4500 
L 3650 4500 
Q 3650 4825 3625 5250 
L 4150 4950 
L 3975 4800 
L 3975 4500 
L 4900 4500 
L 5100 4725 
L 5475 4400 
L 5275 4250 
Q 5275 3800 5300 3575 
L 4950 3400 
L 4950 3675 
L 3975 3675 
L 3975 3225 
L 5425 3225 
L 5650 3450 
L 6000 3100 
L 5750 2950 
z
" transform="scale(0.015625)"/>
       <path id="SimSun-7528" d="M 3400 3150 
L 3400 1825 
L 5075 1825 
L 5075 3150 
L 3400 3150 
z
M 4075 100 
Q 4725 50 4900 62 
Q 5075 75 5075 400 
L 5075 1675 
L 3400 1675 
Q 3400 75 3425 -225 
L 3050 -400 
Q 3075 1025 3075 1675 
L 1425 1675 
Q 1250 350 375 -600 
L 300 -550 
Q 775 225 950 1025 
Q 1125 1825 1125 3225 
Q 1125 4625 1100 5075 
L 1475 4825 
L 5050 4825 
L 5225 5100 
L 5625 4800 
L 5425 4600 
L 5425 225 
Q 5450 -400 4875 -575 
Q 4825 -150 4075 -25 
L 4075 100 
z
M 1475 4675 
L 1475 3300 
L 3075 3300 
L 3075 4675 
L 1475 4675 
z
M 3400 4675 
L 3400 3300 
L 5075 3300 
L 5075 4675 
L 3400 4675 
z
M 1475 3150 
Q 1450 2100 1425 1825 
L 3075 1825 
L 3075 3150 
L 1475 3150 
z
" transform="scale(0.015625)"/>
       <path id="SimSun-7387" d="M 875 3725 
L 925 3800 
Q 1375 3650 1550 3525 
Q 1725 3400 1725 3250 
Q 1725 3175 1662 3025 
Q 1600 2875 1550 2875 
Q 1500 2875 1425 3050 
Q 1275 3325 875 3725 
z
M 550 1850 
Q 875 1925 2000 2575 
L 2050 2500 
Q 1675 2225 1337 1937 
Q 1000 1650 875 1425 
L 550 1850 
z
M 5200 3450 
Q 4800 3150 4275 2800 
L 4225 2875 
Q 4775 3400 5050 3925 
L 5450 3525 
L 5200 3450 
z
M 4325 2500 
L 4350 2575 
Q 5225 2350 5375 2212 
Q 5525 2075 5525 1900 
Q 5525 1775 5487 1662 
Q 5450 1550 5400 1550 
Q 5325 1550 5200 1800 
Q 4975 2150 4325 2500 
z
M 3150 3900 
Q 2500 3300 2300 3150 
Q 2800 3150 3400 3175 
Q 3700 3500 3850 3825 
L 4250 3450 
Q 4050 3400 3450 2825 
Q 2850 2250 2475 1950 
Q 3150 1975 3850 2000 
Q 3750 2175 3550 2450 
L 3600 2500 
Q 4050 2250 4200 2100 
Q 4350 1950 4350 1850 
Q 4350 1775 4250 1625 
Q 4150 1475 4100 1475 
Q 4075 1475 4050 1550 
Q 4000 1700 3900 1900 
Q 3650 1875 3075 1800 
L 3500 1550 
L 3325 1425 
L 3325 975 
L 5325 975 
L 5650 1300 
L 6100 825 
L 3325 825 
Q 3325 -275 3350 -525 
L 2975 -650 
Q 3000 0 3000 825 
L 1125 825 
Q 800 825 525 750 
L 300 975 
L 3000 975 
L 3000 1775 
Q 2450 1700 2200 1525 
L 1950 1950 
Q 2275 1950 2675 2350 
Q 3075 2750 3325 3050 
Q 2400 2950 2150 2775 
L 1950 3175 
Q 2150 3150 2475 3575 
Q 2800 4000 2900 4225 
L 1450 4225 
Q 1125 4225 850 4150 
L 625 4375 
L 3100 4375 
Q 3050 4800 2675 5200 
L 2725 5250 
Q 3225 5050 3337 4912 
Q 3450 4775 3450 4700 
Q 3450 4550 3250 4375 
L 5025 4375 
L 5350 4675 
L 5775 4225 
L 3050 4225 
L 3375 3950 
L 3150 3900 
z
" transform="scale(0.015625)"/>
      </defs>
      <use xlink:href="#SimSun-4ea4"/>
      <use xlink:href="#SimSun-6613" x="100"/>
      <use xlink:href="#SimSun-8d39" x="200"/>
      <use xlink:href="#SimSun-7528" x="300"/>
      <use xlink:href="#SimSun-7387" x="400"/>
     </g>
    </g>
   </g>
   <g id="matplotlib.axis_2">
    <g id="ytick_1">
     <g id="line2d_15">
      <path d="M 72 317.119355 
L 518.4 317.119355 
" clip-path="url(#p663cb2c5a1)" style="fill: none; stroke: #b0b0b0; stroke-width: 0.8; stroke-linecap: square"/>
     </g>
     <g id="line2d_16">
      <defs>
       <path id="mc61c833e01" d="M 0 0 
L 3.5 0 
" style="stroke: #000000; stroke-width: 0.8"/>
      </defs>
      <g>
       <use xlink:href="#mc61c833e01" x="72" y="317.119355" style="stroke: #000000; stroke-width: 0.8"/>
      </g>
     </g>
     <g id="text_9">
      <!-- -0.4 -->
      <g transform="translate(36.840625 324.063105)scale(0.2 -0.2)">
       <defs>
        <path id="TimesNewRomanPSMT-2d" d="M 259 1672 
L 1875 1672 
L 1875 1200 
L 259 1200 
L 259 1672 
z
" transform="scale(0.015625)"/>
       </defs>
       <use xlink:href="#TimesNewRomanPSMT-2d"/>
       <use xlink:href="#TimesNewRomanPSMT-30" x="33.300781"/>
       <use xlink:href="#TimesNewRomanPSMT-2e" x="83.300781"/>
       <use xlink:href="#TimesNewRomanPSMT-34" x="108.300781"/>
      </g>
     </g>
    </g>
    <g id="ytick_2">
     <g id="line2d_17">
      <path d="M 72 272.409677 
L 518.4 272.409677 
" clip-path="url(#p663cb2c5a1)" style="fill: none; stroke: #b0b0b0; stroke-width: 0.8; stroke-linecap: square"/>
     </g>
     <g id="line2d_18">
      <g>
       <use xlink:href="#mc61c833e01" x="72" y="272.409677" style="stroke: #000000; stroke-width: 0.8"/>
      </g>
     </g>
     <g id="text_10">
      <!-- -0.3 -->
      <g transform="translate(36.840625 279.353427)scale(0.2 -0.2)">
       <use xlink:href="#TimesNewRomanPSMT-2d"/>
       <use xlink:href="#TimesNewRomanPSMT-30" x="33.300781"/>
       <use xlink:href="#TimesNewRomanPSMT-2e" x="83.300781"/>
       <use xlink:href="#TimesNewRomanPSMT-33" x="108.300781"/>
      </g>
     </g>
    </g>
    <g id="ytick_3">
     <g id="line2d_19">
      <path d="M 72 227.7 
L 518.4 227.7 
" clip-path="url(#p663cb2c5a1)" style="fill: none; stroke: #b0b0b0; stroke-width: 0.8; stroke-linecap: square"/>
     </g>
     <g id="line2d_20">
      <g>
       <use xlink:href="#mc61c833e01" x="72" y="227.7" style="stroke: #000000; stroke-width: 0.8"/>
      </g>
     </g>
     <g id="text_11">
      <!-- -0.2 -->
      <g transform="translate(36.840625 234.64375)scale(0.2 -0.2)">
       <use xlink:href="#TimesNewRomanPSMT-2d"/>
       <use xlink:href="#TimesNewRomanPSMT-30" x="33.300781"/>
       <use xlink:href="#TimesNewRomanPSMT-2e" x="83.300781"/>
       <use xlink:href="#TimesNewRomanPSMT-32" x="108.300781"/>
      </g>
     </g>
    </g>
    <g id="ytick_4">
     <g id="line2d_21">
      <path d="M 72 182.990323 
L 518.4 182.990323 
" clip-path="url(#p663cb2c5a1)" style="fill: none; stroke: #b0b0b0; stroke-width: 0.8; stroke-linecap: square"/>
     </g>
     <g id="line2d_22">
      <g>
       <use xlink:href="#mc61c833e01" x="72" y="182.990323" style="stroke: #000000; stroke-width: 0.8"/>
      </g>
     </g>
     <g id="text_12">
      <!-- -0.1 -->
      <g transform="translate(36.840625 189.934073)scale(0.2 -0.2)">
       <use xlink:href="#TimesNewRomanPSMT-2d"/>
       <use xlink:href="#TimesNewRomanPSMT-30" x="33.300781"/>
       <use xlink:href="#TimesNewRomanPSMT-2e" x="83.300781"/>
       <use xlink:href="#TimesNewRomanPSMT-31" x="108.300781"/>
      </g>
     </g>
    </g>
    <g id="ytick_5">
     <g id="line2d_23">
      <path d="M 72 138.280645 
L 518.4 138.280645 
" clip-path="url(#p663cb2c5a1)" style="fill: none; stroke: #b0b0b0; stroke-width: 0.8; stroke-linecap: square"/>
     </g>
     <g id="line2d_24">
      <g>
       <use xlink:href="#mc61c833e01" x="72" y="138.280645" style="stroke: #000000; stroke-width: 0.8"/>
      </g>
     </g>
     <g id="text_13">
      <!-- 0.0 -->
      <g transform="translate(43.5 145.224395)scale(0.2 -0.2)">
       <use xlink:href="#TimesNewRomanPSMT-30"/>
       <use xlink:href="#TimesNewRomanPSMT-2e" x="50"/>
       <use xlink:href="#TimesNewRomanPSMT-30" x="75"/>
      </g>
     </g>
    </g>
    <g id="ytick_6">
     <g id="line2d_25">
      <path d="M 72 93.570968 
L 518.4 93.570968 
" clip-path="url(#p663cb2c5a1)" style="fill: none; stroke: #b0b0b0; stroke-width: 0.8; stroke-linecap: square"/>
     </g>
     <g id="line2d_26">
      <g>
       <use xlink:href="#mc61c833e01" x="72" y="93.570968" style="stroke: #000000; stroke-width: 0.8"/>
      </g>
     </g>
     <g id="text_14">
      <!-- 0.1 -->
      <g transform="translate(43.5 100.514718)scale(0.2 -0.2)">
       <use xlink:href="#TimesNewRomanPSMT-30"/>
       <use xlink:href="#TimesNewRomanPSMT-2e" x="50"/>
       <use xlink:href="#TimesNewRomanPSMT-31" x="75"/>
      </g>
     </g>
    </g>
    <g id="ytick_7">
     <g id="line2d_27">
      <path d="M 72 48.86129 
L 518.4 48.86129 
" clip-path="url(#p663cb2c5a1)" style="fill: none; stroke: #b0b0b0; stroke-width: 0.8; stroke-linecap: square"/>
     </g>
     <g id="line2d_28">
      <g>
       <use xlink:href="#mc61c833e01" x="72" y="48.86129" style="stroke: #000000; stroke-width: 0.8"/>
      </g>
     </g>
     <g id="text_15">
      <!-- 0.2 -->
      <g transform="translate(43.5 55.80504)scale(0.2 -0.2)">
       <use xlink:href="#TimesNewRomanPSMT-30"/>
       <use xlink:href="#TimesNewRomanPSMT-2e" x="50"/>
       <use xlink:href="#TimesNewRomanPSMT-32" x="75"/>
      </g>
     </g>
    </g>
    <g id="text_16">
     <!-- 年化收益率 -->
     <g transform="translate(30.907031 237.48)rotate(-90)scale(0.15 -0.15)">
      <defs>
       <path id="SimSun-5e74" d="M 1775 2675 
L 1775 1375 
L 3225 1375 
L 3225 2675 
L 1775 2675 
z
M 1825 5275 
L 2375 4925 
L 2150 4825 
Q 1950 4525 1750 4225 
L 5000 4225 
L 5375 4600 
L 5900 4075 
L 3600 4075 
L 3600 2825 
L 4625 2825 
L 4975 3175 
L 5475 2675 
L 3600 2675 
L 3600 1375 
L 5225 1375 
L 5600 1750 
L 6125 1225 
L 3600 1225 
L 3600 275 
Q 3600 -150 3625 -475 
L 3200 -650 
Q 3225 125 3225 475 
L 3225 1225 
L 1100 1225 
Q 775 1225 500 1150 
L 275 1375 
L 1400 1375 
Q 1400 2525 1375 3050 
L 1775 2825 
L 3225 2825 
L 3225 4075 
L 1675 4075 
Q 1425 3700 1150 3387 
Q 875 3075 400 2700 
L 325 2750 
Q 775 3225 1175 3862 
Q 1575 4500 1825 5275 
z
" transform="scale(0.015625)"/>
       <path id="SimSun-5316" d="M 1375 -600 
Q 1400 200 1400 925 
L 1400 3125 
Q 850 2300 350 1775 
L 275 1850 
Q 825 2625 1300 3650 
Q 1775 4675 1900 5200 
L 2450 4875 
L 2200 4725 
Q 1875 4000 1600 3475 
L 1950 3275 
L 1750 3075 
L 1750 350 
Q 1750 75 1775 -400 
L 1375 -600 
z
M 3450 2125 
L 3450 3925 
Q 3450 4475 3425 5200 
L 4000 4925 
L 3800 4725 
L 3800 2400 
Q 4150 2725 4562 3225 
Q 4975 3725 5150 4025 
L 5600 3600 
L 5325 3525 
Q 4600 2700 3800 2000 
L 3800 425 
Q 3800 0 4225 0 
L 5300 0 
Q 5500 0 5550 325 
Q 5600 650 5600 1325 
L 5725 1325 
Q 5775 650 5850 425 
Q 5925 200 6125 125 
Q 5900 -325 5400 -325 
L 4075 -325 
Q 3450 -325 3450 250 
L 3450 1775 
Q 2800 1275 1950 925 
L 1925 1025 
Q 2800 1525 3450 2125 
z
" transform="scale(0.015625)"/>
       <path id="SimSun-6536" d="M 3325 3600 
Q 3575 2100 4200 1200 
Q 4600 1950 4850 3600 
L 3325 3600 
z
M 3400 5275 
L 4025 4975 
L 3775 4850 
Q 3575 4375 3325 3750 
L 5250 3750 
L 5575 4075 
L 6050 3600 
L 5225 3600 
Q 4975 2000 4425 900 
Q 5300 -25 6150 -75 
L 6150 -175 
Q 5750 -200 5575 -525 
Q 4750 -50 4200 650 
Q 3350 -175 2300 -600 
L 2250 -525 
Q 3225 -25 4000 900 
Q 3325 2100 3225 3550 
Q 2875 2725 2425 2100 
L 2350 2150 
Q 3050 3500 3400 5275 
z
M 575 1575 
L 575 3100 
Q 575 3600 550 4125 
L 1125 3850 
L 900 3675 
L 900 1425 
L 1750 1725 
Q 1750 4350 1725 5250 
L 2300 4975 
L 2075 4775 
L 2075 -450 
L 1725 -650 
Q 1750 375 1750 1600 
Q 975 1175 750 825 
L 475 1200 
Q 600 1325 575 1575 
z
" transform="scale(0.015625)"/>
       <path id="SimSun-76ca" d="M 3900 1725 
L 3900 -75 
L 4725 -75 
L 4725 1725 
L 3900 1725 
z
M 1275 2100 
L 1625 1875 
L 4675 1875 
L 4875 2125 
L 5250 1800 
L 5050 1650 
L 5050 -75 
L 5300 -75 
L 5650 275 
L 6100 -225 
L 1125 -225 
Q 800 -225 525 -300 
L 300 -75 
L 1300 -75 
Q 1300 1475 1275 2100 
z
M 1625 1725 
L 1625 -75 
L 2450 -75 
L 2450 1725 
L 1625 1725 
z
M 2775 1725 
L 2775 -75 
L 3575 -75 
L 3575 1725 
L 2775 1725 
z
M 2475 3550 
L 2900 3150 
Q 2575 3025 2050 2675 
Q 1525 2300 725 2000 
L 675 2075 
Q 1875 2750 2475 3550 
z
M 3700 3450 
Q 4425 3200 4987 2950 
Q 5550 2700 5500 2362 
Q 5450 2025 5350 2025 
Q 5275 2025 5200 2125 
Q 4975 2375 4662 2650 
Q 4350 2925 3650 3375 
L 3700 3450 
z
M 1725 5000 
L 1775 5075 
Q 2375 4800 2587 4587 
Q 2800 4375 2800 4225 
Q 2800 4050 2600 3825 
L 3625 3825 
Q 4175 4800 4275 5225 
L 4825 4875 
Q 4475 4725 3775 3825 
L 4900 3825 
L 5275 4200 
L 5775 3675 
L 1550 3675 
Q 1225 3675 950 3600 
L 725 3825 
L 2425 3825 
Q 2325 4375 1725 5000 
z
" transform="scale(0.015625)"/>
      </defs>
      <use xlink:href="#SimSun-5e74"/>
      <use xlink:href="#SimSun-5316" x="100"/>
      <use xlink:href="#SimSun-6536" x="200"/>
      <use xlink:href="#SimSun-76ca" x="300"/>
      <use xlink:href="#SimSun-7387" x="400"/>
     </g>
    </g>
   </g>
   <g id="line2d_29">
    <path d="M 92.290909 230.829677 
L 193.745455 250.501935 
L 295.2 268.385806 
L 396.654545 284.928387 
L 498.109091 299.682581 
" clip-path="url(#p663cb2c5a1)" style="fill: none; stroke: #0000ff; stroke-width: 2.5; stroke-linecap: square"/>
   </g>
   <g id="line2d_30">
    <path d="M 92.290909 268.385806 
L 193.745455 279.563226 
L 295.2 284.034194 
L 396.654545 305.047742 
L 498.109091 313.989677 
" clip-path="url(#p663cb2c5a1)" style="fill: none; stroke: #008000; stroke-width: 2.5; stroke-linecap: square"/>
   </g>
   <g id="line2d_31">
    <path d="M 92.290909 195.509032 
L 193.745455 242.90129 
L 295.2 280.904516 
L 396.654545 315.778065 
L 498.109091 338.58 
" clip-path="url(#p663cb2c5a1)" style="fill: none; stroke: #800080; stroke-width: 2.5; stroke-linecap: square"/>
   </g>
   <g id="line2d_32">
    <path d="M 92.290909 61.38 
L 193.745455 96.700645 
L 295.2 109.666452 
L 396.654545 127.103226 
L 498.109091 155.270323 
" clip-path="url(#p663cb2c5a1)" style="fill: none; stroke: #ff0000; stroke-width: 2.5; stroke-linecap: square"/>
   </g>
   <g id="patch_3">
    <path d="M 72 352.44 
L 72 47.52 
" style="fill: none; stroke: #000000; stroke-width: 0.8; stroke-linejoin: miter; stroke-linecap: square"/>
   </g>
   <g id="patch_4">
    <path d="M 518.4 352.44 
L 518.4 47.52 
" style="fill: none; stroke: #000000; stroke-width: 0.8; stroke-linejoin: miter; stroke-linecap: square"/>
   </g>
   <g id="patch_5">
    <path d="M 72 352.44 
L 518.4 352.44 
" style="fill: none; stroke: #000000; stroke-width: 0.8; stroke-linejoin: miter; stroke-linecap: square"/>
   </g>
   <g id="patch_6">
    <path d="M 72 47.52 
L 518.4 47.52 
" style="fill: none; stroke: #000000; stroke-width: 0.8; stroke-linejoin: miter; stroke-linecap: square"/>
   </g>
   <g id="legend_1">
    <g id="patch_7">
     <path d="M 437.171875 112.07625 
L 511.4 112.07625 
Q 513.4 112.07625 513.4 110.07625 
L 513.4 54.52 
Q 513.4 52.52 511.4 52.52 
L 437.171875 52.52 
Q 435.171875 52.52 435.171875 54.52 
L 435.171875 110.07625 
Q 435.171875 112.07625 437.171875 112.07625 
z
" style="fill: #ffffff; opacity: 0.8; stroke: #cccccc; stroke-linejoin: miter"/>
    </g>
    <g id="line2d_33">
     <path d="M 439.171875 60.02 
L 449.171875 60.02 
L 459.171875 60.02 
" style="fill: none; stroke: #0000ff; stroke-width: 2.5; stroke-linecap: square"/>
    </g>
    <g id="text_17">
     <!-- BC -->
     <g transform="translate(467.171875 63.52)scale(0.1 -0.1)">
      <defs>
       <path id="TimesNewRomanPSMT-42" d="M 2956 2163 
Q 3397 2069 3616 1863 
Q 3919 1575 3919 1159 
Q 3919 844 3719 555 
Q 3519 266 3170 133 
Q 2822 0 2106 0 
L 106 0 
L 106 116 
L 266 116 
Q 531 116 647 284 
Q 719 394 719 750 
L 719 3488 
Q 719 3881 628 3984 
Q 506 4122 266 4122 
L 106 4122 
L 106 4238 
L 1938 4238 
Q 2450 4238 2759 4163 
Q 3228 4050 3475 3764 
Q 3722 3478 3722 3106 
Q 3722 2788 3528 2536 
Q 3334 2284 2956 2163 
z
M 1319 2331 
Q 1434 2309 1582 2298 
Q 1731 2288 1909 2288 
Q 2366 2288 2595 2386 
Q 2825 2484 2947 2687 
Q 3069 2891 3069 3131 
Q 3069 3503 2766 3765 
Q 2463 4028 1881 4028 
Q 1569 4028 1319 3959 
L 1319 2331 
z
M 1319 306 
Q 1681 222 2034 222 
Q 2600 222 2897 476 
Q 3194 731 3194 1106 
Q 3194 1353 3059 1581 
Q 2925 1809 2622 1940 
Q 2319 2072 1872 2072 
Q 1678 2072 1540 2065 
Q 1403 2059 1319 2044 
L 1319 306 
z
" transform="scale(0.015625)"/>
       <path id="TimesNewRomanPSMT-43" d="M 3853 4334 
L 3950 2894 
L 3853 2894 
Q 3659 3541 3300 3825 
Q 2941 4109 2438 4109 
Q 2016 4109 1675 3895 
Q 1334 3681 1139 3212 
Q 944 2744 944 2047 
Q 944 1472 1128 1050 
Q 1313 628 1683 403 
Q 2053 178 2528 178 
Q 2941 178 3256 354 
Q 3572 531 3950 1056 
L 4047 994 
Q 3728 428 3303 165 
Q 2878 -97 2294 -97 
Q 1241 -97 663 684 
Q 231 1266 231 2053 
Q 231 2688 515 3219 
Q 800 3750 1298 4042 
Q 1797 4334 2388 4334 
Q 2847 4334 3294 4109 
Q 3425 4041 3481 4041 
Q 3566 4041 3628 4100 
Q 3709 4184 3744 4334 
L 3853 4334 
z
" transform="scale(0.015625)"/>
      </defs>
      <use xlink:href="#TimesNewRomanPSMT-42"/>
      <use xlink:href="#TimesNewRomanPSMT-43" x="66.699219"/>
     </g>
    </g>
    <g id="line2d_34">
     <path d="M 439.171875 74.159063 
L 449.171875 74.159063 
L 459.171875 74.159063 
" style="fill: none; stroke: #008000; stroke-width: 2.5; stroke-linecap: square"/>
    </g>
    <g id="text_18">
     <!-- DQN -->
     <g transform="translate(467.171875 77.659063)scale(0.1 -0.1)">
      <defs>
       <path id="TimesNewRomanPSMT-44" d="M 109 0 
L 109 116 
L 269 116 
Q 538 116 650 288 
Q 719 391 719 750 
L 719 3488 
Q 719 3884 631 3984 
Q 509 4122 269 4122 
L 109 4122 
L 109 4238 
L 1834 4238 
Q 2784 4238 3279 4022 
Q 3775 3806 4076 3303 
Q 4378 2800 4378 2141 
Q 4378 1256 3841 663 
Q 3238 0 2003 0 
L 109 0 
z
M 1319 306 
Q 1716 219 1984 219 
Q 2709 219 3187 728 
Q 3666 1238 3666 2109 
Q 3666 2988 3187 3494 
Q 2709 4000 1959 4000 
Q 1678 4000 1319 3909 
L 1319 306 
z
" transform="scale(0.015625)"/>
       <path id="TimesNewRomanPSMT-51" d="M 2819 -47 
Q 3138 -597 3508 -856 
Q 3878 -1116 4350 -1153 
L 4350 -1253 
Q 3919 -1238 3428 -1080 
Q 2938 -922 2498 -642 
Q 2059 -363 1741 -47 
Q 1291 134 1028 338 
Q 647 641 436 1083 
Q 225 1525 225 2128 
Q 225 3078 840 3706 
Q 1456 4334 2331 4334 
Q 3163 4334 3770 3704 
Q 4378 3075 4378 2116 
Q 4378 1338 3945 750 
Q 3513 163 2819 -47 
z
M 2294 4094 
Q 1725 4094 1378 3688 
Q 941 3178 941 2128 
Q 941 1100 1384 544 
Q 1728 116 2294 116 
Q 2881 116 3241 544 
Q 3663 1050 3663 2038 
Q 3663 2797 3431 3316 
Q 3253 3716 2958 3905 
Q 2663 4094 2294 4094 
z
" transform="scale(0.015625)"/>
       <path id="TimesNewRomanPSMT-4e" d="M -84 4238 
L 1066 4238 
L 3656 1059 
L 3656 3503 
Q 3656 3894 3569 3991 
Q 3453 4122 3203 4122 
L 3056 4122 
L 3056 4238 
L 4531 4238 
L 4531 4122 
L 4381 4122 
Q 4113 4122 4000 3959 
Q 3931 3859 3931 3503 
L 3931 -69 
L 3819 -69 
L 1025 3344 
L 1025 734 
Q 1025 344 1109 247 
Q 1228 116 1475 116 
L 1625 116 
L 1625 0 
L 150 0 
L 150 116 
L 297 116 
Q 569 116 681 278 
Q 750 378 750 734 
L 750 3681 
Q 566 3897 470 3965 
Q 375 4034 191 4094 
Q 100 4122 -84 4122 
L -84 4238 
z
" transform="scale(0.015625)"/>
      </defs>
      <use xlink:href="#TimesNewRomanPSMT-44"/>
      <use xlink:href="#TimesNewRomanPSMT-51" x="72.216797"/>
      <use xlink:href="#TimesNewRomanPSMT-4e" x="144.433594"/>
     </g>
    </g>
    <g id="line2d_35">
     <path d="M 439.171875 88.298125 
L 449.171875 88.298125 
L 459.171875 88.298125 
" style="fill: none; stroke: #800080; stroke-width: 2.5; stroke-linecap: square"/>
    </g>
    <g id="text_19">
     <!-- DDQN -->
     <g transform="translate(467.171875 91.798125)scale(0.1 -0.1)">
      <use xlink:href="#TimesNewRomanPSMT-44"/>
      <use xlink:href="#TimesNewRomanPSMT-44" x="72.216797"/>
      <use xlink:href="#TimesNewRomanPSMT-51" x="144.433594"/>
      <use xlink:href="#TimesNewRomanPSMT-4e" x="216.650391"/>
     </g>
    </g>
    <g id="line2d_36">
     <path d="M 439.171875 102.437188 
L 449.171875 102.437188 
L 459.171875 102.437188 
" style="fill: none; stroke: #ff0000; stroke-width: 2.5; stroke-linecap: square"/>
    </g>
    <g id="text_20">
     <!-- BCDDQN -->
     <g transform="translate(467.171875 105.937188)scale(0.1 -0.1)">
      <use xlink:href="#TimesNewRomanPSMT-42"/>
      <use xlink:href="#TimesNewRomanPSMT-43" x="66.699219"/>
      <use xlink:href="#TimesNewRomanPSMT-44" x="133.398438"/>
      <use xlink:href="#TimesNewRomanPSMT-44" x="205.615234"/>
      <use xlink:href="#TimesNewRomanPSMT-51" x="277.832031"/>
      <use xlink:href="#TimesNewRomanPSMT-4e" x="350.048828"/>
     </g>
    </g>
   </g>
  </g>
 </g>
 <defs>
  <clipPath id="p663cb2c5a1">
   <rect x="72" y="47.52" width="446.4" height="304.92"/>
  </clipPath>
 </defs>
</svg>
