<?xml version="1.0" encoding="utf-8" standalone="no"?>
<!DOCTYPE svg PUBLIC "-//W3C//DTD SVG 1.1//EN"
  "http://www.w3.org/Graphics/SVG/1.1/DTD/svg11.dtd">
<svg xmlns:xlink="http://www.w3.org/1999/xlink" width="720pt" height="288pt" viewBox="0 0 720 288" xmlns="http://www.w3.org/2000/svg" version="1.1">
 <metadata>
  <rdf:RDF xmlns:dc="http://purl.org/dc/elements/1.1/" xmlns:cc="http://creativecommons.org/ns#" xmlns:rdf="http://www.w3.org/1999/02/22-rdf-syntax-ns#">
   <cc:Work>
    <dc:type rdf:resource="http://purl.org/dc/dcmitype/StillImage"/>
    <dc:date>2022-10-22T22:16:41.852765</dc:date>
    <dc:format>image/svg+xml</dc:format>
    <dc:creator>
     <cc:Agent>
      <dc:title>Matplotlib v3.5.1, https://matplotlib.org/</dc:title>
     </cc:Agent>
    </dc:creator>
   </cc:Work>
  </rdf:RDF>
 </metadata>
 <defs>
  <style type="text/css">*{stroke-linejoin: round; stroke-linecap: butt}</style>
 </defs>
 <g id="figure_1">
  <g id="patch_1">
   <path d="M 0 288 
L 720 288 
L 720 0 
L 0 0 
z
" style="fill: #ffffff"/>
  </g>
  <g id="axes_1">
   <g id="patch_2">
    <path d="M 90 256.32 
L 648 256.32 
L 648 34.56 
L 90 34.56 
z
" style="fill: #ffffff"/>
   </g>
   <g id="matplotlib.axis_1">
    <g id="xtick_1">
     <g id="line2d_1">
      <path d="M 115.363636 256.32 
L 115.363636 34.56 
" clip-path="url(#p43b1a29f8b)" style="fill: none; stroke: #b0b0b0; stroke-width: 0.8; stroke-linecap: square"/>
     </g>
     <g id="line2d_2">
      <defs>
       <path id="mc028337224" d="M 0 0 
L 0 -3.5 
" style="stroke: #000000; stroke-width: 0.8"/>
      </defs>
      <g>
       <use xlink:href="#mc028337224" x="115.363636" y="256.32" style="stroke: #000000; stroke-width: 0.8"/>
      </g>
     </g>
     <g id="text_1">
      <!-- 2019-10-16 -->
      <g transform="translate(92.033949 266.76375)scale(0.1 -0.1)">
       <defs>
        <path id="TimesNewRomanPSMT-32" d="M 2934 816 
L 2638 0 
L 138 0 
L 138 116 
Q 1241 1122 1691 1759 
Q 2141 2397 2141 2925 
Q 2141 3328 1894 3587 
Q 1647 3847 1303 3847 
Q 991 3847 742 3664 
Q 494 3481 375 3128 
L 259 3128 
Q 338 3706 661 4015 
Q 984 4325 1469 4325 
Q 1984 4325 2329 3994 
Q 2675 3663 2675 3213 
Q 2675 2891 2525 2569 
Q 2294 2063 1775 1497 
Q 997 647 803 472 
L 1909 472 
Q 2247 472 2383 497 
Q 2519 522 2628 598 
Q 2738 675 2819 816 
L 2934 816 
z
" transform="scale(0.015625)"/>
        <path id="TimesNewRomanPSMT-30" d="M 231 2094 
Q 231 2819 450 3342 
Q 669 3866 1031 4122 
Q 1313 4325 1613 4325 
Q 2100 4325 2488 3828 
Q 2972 3213 2972 2159 
Q 2972 1422 2759 906 
Q 2547 391 2217 158 
Q 1888 -75 1581 -75 
Q 975 -75 572 641 
Q 231 1244 231 2094 
z
M 844 2016 
Q 844 1141 1059 588 
Q 1238 122 1591 122 
Q 1759 122 1940 273 
Q 2122 425 2216 781 
Q 2359 1319 2359 2297 
Q 2359 3022 2209 3506 
Q 2097 3866 1919 4016 
Q 1791 4119 1609 4119 
Q 1397 4119 1231 3928 
Q 1006 3669 925 3112 
Q 844 2556 844 2016 
z
" transform="scale(0.015625)"/>
        <path id="TimesNewRomanPSMT-31" d="M 750 3822 
L 1781 4325 
L 1884 4325 
L 1884 747 
Q 1884 391 1914 303 
Q 1944 216 2037 169 
Q 2131 122 2419 116 
L 2419 0 
L 825 0 
L 825 116 
Q 1125 122 1212 167 
Q 1300 213 1334 289 
Q 1369 366 1369 747 
L 1369 3034 
Q 1369 3497 1338 3628 
Q 1316 3728 1258 3775 
Q 1200 3822 1119 3822 
Q 1003 3822 797 3725 
L 750 3822 
z
" transform="scale(0.015625)"/>
        <path id="TimesNewRomanPSMT-39" d="M 338 -88 
L 338 28 
Q 744 34 1094 217 
Q 1444 400 1770 856 
Q 2097 1313 2225 1859 
Q 1734 1544 1338 1544 
Q 891 1544 572 1889 
Q 253 2234 253 2806 
Q 253 3363 572 3797 
Q 956 4325 1575 4325 
Q 2097 4325 2469 3894 
Q 2925 3359 2925 2575 
Q 2925 1869 2578 1258 
Q 2231 647 1613 244 
Q 1109 -88 516 -88 
L 338 -88 
z
M 2275 2091 
Q 2331 2497 2331 2741 
Q 2331 3044 2228 3395 
Q 2125 3747 1936 3934 
Q 1747 4122 1506 4122 
Q 1228 4122 1018 3872 
Q 809 3622 809 3128 
Q 809 2469 1088 2097 
Q 1291 1828 1588 1828 
Q 1731 1828 1928 1897 
Q 2125 1966 2275 2091 
z
" transform="scale(0.015625)"/>
        <path id="TimesNewRomanPSMT-2d" d="M 259 1672 
L 1875 1672 
L 1875 1200 
L 259 1200 
L 259 1672 
z
" transform="scale(0.015625)"/>
        <path id="TimesNewRomanPSMT-36" d="M 2869 4325 
L 2869 4209 
Q 2456 4169 2195 4045 
Q 1934 3922 1679 3669 
Q 1425 3416 1258 3105 
Q 1091 2794 978 2366 
Q 1428 2675 1881 2675 
Q 2316 2675 2634 2325 
Q 2953 1975 2953 1425 
Q 2953 894 2631 456 
Q 2244 -75 1606 -75 
Q 1172 -75 869 213 
Q 275 772 275 1663 
Q 275 2231 503 2743 
Q 731 3256 1154 3653 
Q 1578 4050 1965 4187 
Q 2353 4325 2688 4325 
L 2869 4325 
z
M 925 2138 
Q 869 1716 869 1456 
Q 869 1156 980 804 
Q 1091 453 1309 247 
Q 1469 100 1697 100 
Q 1969 100 2183 356 
Q 2397 613 2397 1088 
Q 2397 1622 2184 2012 
Q 1972 2403 1581 2403 
Q 1463 2403 1327 2353 
Q 1191 2303 925 2138 
z
" transform="scale(0.015625)"/>
       </defs>
       <use xlink:href="#TimesNewRomanPSMT-32"/>
       <use xlink:href="#TimesNewRomanPSMT-30" x="50"/>
       <use xlink:href="#TimesNewRomanPSMT-31" x="100"/>
       <use xlink:href="#TimesNewRomanPSMT-39" x="150"/>
       <use xlink:href="#TimesNewRomanPSMT-2d" x="200"/>
       <use xlink:href="#TimesNewRomanPSMT-31" x="233.300781"/>
       <use xlink:href="#TimesNewRomanPSMT-30" x="283.300781"/>
       <use xlink:href="#TimesNewRomanPSMT-2d" x="333.300781"/>
       <use xlink:href="#TimesNewRomanPSMT-31" x="366.601562"/>
       <use xlink:href="#TimesNewRomanPSMT-36" x="416.601562"/>
      </g>
     </g>
    </g>
    <g id="xtick_2">
     <g id="line2d_3">
      <path d="M 182.361921 256.32 
L 182.361921 34.56 
" clip-path="url(#p43b1a29f8b)" style="fill: none; stroke: #b0b0b0; stroke-width: 0.8; stroke-linecap: square"/>
     </g>
     <g id="line2d_4">
      <g>
       <use xlink:href="#mc028337224" x="182.361921" y="256.32" style="stroke: #000000; stroke-width: 0.8"/>
      </g>
     </g>
     <g id="text_2">
      <!-- 2020-01-23 -->
      <g transform="translate(159.032234 266.76375)scale(0.1 -0.1)">
       <defs>
        <path id="TimesNewRomanPSMT-33" d="M 325 3431 
Q 506 3859 782 4092 
Q 1059 4325 1472 4325 
Q 1981 4325 2253 3994 
Q 2459 3747 2459 3466 
Q 2459 3003 1878 2509 
Q 2269 2356 2469 2072 
Q 2669 1788 2669 1403 
Q 2669 853 2319 450 
Q 1863 -75 997 -75 
Q 569 -75 414 31 
Q 259 138 259 259 
Q 259 350 332 419 
Q 406 488 509 488 
Q 588 488 669 463 
Q 722 447 909 348 
Q 1097 250 1169 231 
Q 1284 197 1416 197 
Q 1734 197 1970 444 
Q 2206 691 2206 1028 
Q 2206 1275 2097 1509 
Q 2016 1684 1919 1775 
Q 1784 1900 1550 2001 
Q 1316 2103 1072 2103 
L 972 2103 
L 972 2197 
Q 1219 2228 1467 2375 
Q 1716 2522 1828 2728 
Q 1941 2934 1941 3181 
Q 1941 3503 1739 3701 
Q 1538 3900 1238 3900 
Q 753 3900 428 3381 
L 325 3431 
z
" transform="scale(0.015625)"/>
       </defs>
       <use xlink:href="#TimesNewRomanPSMT-32"/>
       <use xlink:href="#TimesNewRomanPSMT-30" x="50"/>
       <use xlink:href="#TimesNewRomanPSMT-32" x="100"/>
       <use xlink:href="#TimesNewRomanPSMT-30" x="150"/>
       <use xlink:href="#TimesNewRomanPSMT-2d" x="200"/>
       <use xlink:href="#TimesNewRomanPSMT-30" x="233.300781"/>
       <use xlink:href="#TimesNewRomanPSMT-31" x="283.300781"/>
       <use xlink:href="#TimesNewRomanPSMT-2d" x="333.300781"/>
       <use xlink:href="#TimesNewRomanPSMT-32" x="366.601562"/>
       <use xlink:href="#TimesNewRomanPSMT-33" x="416.601562"/>
      </g>
     </g>
    </g>
    <g id="xtick_3">
     <g id="line2d_5">
      <path d="M 249.360206 256.32 
L 249.360206 34.56 
" clip-path="url(#p43b1a29f8b)" style="fill: none; stroke: #b0b0b0; stroke-width: 0.8; stroke-linecap: square"/>
     </g>
     <g id="line2d_6">
      <g>
       <use xlink:href="#mc028337224" x="249.360206" y="256.32" style="stroke: #000000; stroke-width: 0.8"/>
      </g>
     </g>
     <g id="text_3">
      <!-- 2020-05-14 -->
      <g transform="translate(226.030518 266.76375)scale(0.1 -0.1)">
       <defs>
        <path id="TimesNewRomanPSMT-35" d="M 2778 4238 
L 2534 3706 
L 1259 3706 
L 981 3138 
Q 1809 3016 2294 2522 
Q 2709 2097 2709 1522 
Q 2709 1188 2573 903 
Q 2438 619 2231 419 
Q 2025 219 1772 97 
Q 1413 -75 1034 -75 
Q 653 -75 479 54 
Q 306 184 306 341 
Q 306 428 378 495 
Q 450 563 559 563 
Q 641 563 702 538 
Q 763 513 909 409 
Q 1144 247 1384 247 
Q 1750 247 2026 523 
Q 2303 800 2303 1197 
Q 2303 1581 2056 1914 
Q 1809 2247 1375 2428 
Q 1034 2569 447 2591 
L 1259 4238 
L 2778 4238 
z
" transform="scale(0.015625)"/>
        <path id="TimesNewRomanPSMT-34" d="M 2978 1563 
L 2978 1119 
L 2409 1119 
L 2409 0 
L 1894 0 
L 1894 1119 
L 100 1119 
L 100 1519 
L 2066 4325 
L 2409 4325 
L 2409 1563 
L 2978 1563 
z
M 1894 1563 
L 1894 3666 
L 406 1563 
L 1894 1563 
z
" transform="scale(0.015625)"/>
       </defs>
       <use xlink:href="#TimesNewRomanPSMT-32"/>
       <use xlink:href="#TimesNewRomanPSMT-30" x="50"/>
       <use xlink:href="#TimesNewRomanPSMT-32" x="100"/>
       <use xlink:href="#TimesNewRomanPSMT-30" x="150"/>
       <use xlink:href="#TimesNewRomanPSMT-2d" x="200"/>
       <use xlink:href="#TimesNewRomanPSMT-30" x="233.300781"/>
       <use xlink:href="#TimesNewRomanPSMT-35" x="283.300781"/>
       <use xlink:href="#TimesNewRomanPSMT-2d" x="333.300781"/>
       <use xlink:href="#TimesNewRomanPSMT-31" x="366.601562"/>
       <use xlink:href="#TimesNewRomanPSMT-34" x="416.601562"/>
      </g>
     </g>
    </g>
    <g id="xtick_4">
     <g id="line2d_7">
      <path d="M 316.358491 256.32 
L 316.358491 34.56 
" clip-path="url(#p43b1a29f8b)" style="fill: none; stroke: #b0b0b0; stroke-width: 0.8; stroke-linecap: square"/>
     </g>
     <g id="line2d_8">
      <g>
       <use xlink:href="#mc028337224" x="316.358491" y="256.32" style="stroke: #000000; stroke-width: 0.8"/>
      </g>
     </g>
     <g id="text_4">
      <!-- 2020-08-24 -->
      <g transform="translate(293.028803 266.76375)scale(0.1 -0.1)">
       <defs>
        <path id="TimesNewRomanPSMT-38" d="M 1228 2134 
Q 725 2547 579 2797 
Q 434 3047 434 3316 
Q 434 3728 753 4026 
Q 1072 4325 1600 4325 
Q 2113 4325 2425 4047 
Q 2738 3769 2738 3413 
Q 2738 3175 2569 2928 
Q 2400 2681 1866 2347 
Q 2416 1922 2594 1678 
Q 2831 1359 2831 1006 
Q 2831 559 2490 242 
Q 2150 -75 1597 -75 
Q 994 -75 656 303 
Q 388 606 388 966 
Q 388 1247 577 1523 
Q 766 1800 1228 2134 
z
M 1719 2469 
Q 2094 2806 2194 3001 
Q 2294 3197 2294 3444 
Q 2294 3772 2109 3958 
Q 1925 4144 1606 4144 
Q 1288 4144 1088 3959 
Q 888 3775 888 3528 
Q 888 3366 970 3203 
Q 1053 3041 1206 2894 
L 1719 2469 
z
M 1375 2016 
Q 1116 1797 991 1539 
Q 866 1281 866 981 
Q 866 578 1086 336 
Q 1306 94 1647 94 
Q 1984 94 2187 284 
Q 2391 475 2391 747 
Q 2391 972 2272 1150 
Q 2050 1481 1375 2016 
z
" transform="scale(0.015625)"/>
       </defs>
       <use xlink:href="#TimesNewRomanPSMT-32"/>
       <use xlink:href="#TimesNewRomanPSMT-30" x="50"/>
       <use xlink:href="#TimesNewRomanPSMT-32" x="100"/>
       <use xlink:href="#TimesNewRomanPSMT-30" x="150"/>
       <use xlink:href="#TimesNewRomanPSMT-2d" x="200"/>
       <use xlink:href="#TimesNewRomanPSMT-30" x="233.300781"/>
       <use xlink:href="#TimesNewRomanPSMT-38" x="283.300781"/>
       <use xlink:href="#TimesNewRomanPSMT-2d" x="333.300781"/>
       <use xlink:href="#TimesNewRomanPSMT-32" x="366.601562"/>
       <use xlink:href="#TimesNewRomanPSMT-34" x="416.601562"/>
      </g>
     </g>
    </g>
    <g id="xtick_5">
     <g id="line2d_9">
      <path d="M 383.356775 256.32 
L 383.356775 34.56 
" clip-path="url(#p43b1a29f8b)" style="fill: none; stroke: #b0b0b0; stroke-width: 0.8; stroke-linecap: square"/>
     </g>
     <g id="line2d_10">
      <g>
       <use xlink:href="#mc028337224" x="383.356775" y="256.32" style="stroke: #000000; stroke-width: 0.8"/>
      </g>
     </g>
     <g id="text_5">
      <!-- 2020-12-08 -->
      <g transform="translate(360.027088 266.76375)scale(0.1 -0.1)">
       <use xlink:href="#TimesNewRomanPSMT-32"/>
       <use xlink:href="#TimesNewRomanPSMT-30" x="50"/>
       <use xlink:href="#TimesNewRomanPSMT-32" x="100"/>
       <use xlink:href="#TimesNewRomanPSMT-30" x="150"/>
       <use xlink:href="#TimesNewRomanPSMT-2d" x="200"/>
       <use xlink:href="#TimesNewRomanPSMT-31" x="233.300781"/>
       <use xlink:href="#TimesNewRomanPSMT-32" x="283.300781"/>
       <use xlink:href="#TimesNewRomanPSMT-2d" x="333.300781"/>
       <use xlink:href="#TimesNewRomanPSMT-30" x="366.601562"/>
       <use xlink:href="#TimesNewRomanPSMT-38" x="416.601562"/>
      </g>
     </g>
    </g>
    <g id="xtick_6">
     <g id="line2d_11">
      <path d="M 450.35506 256.32 
L 450.35506 34.56 
" clip-path="url(#p43b1a29f8b)" style="fill: none; stroke: #b0b0b0; stroke-width: 0.8; stroke-linecap: square"/>
     </g>
     <g id="line2d_12">
      <g>
       <use xlink:href="#mc028337224" x="450.35506" y="256.32" style="stroke: #000000; stroke-width: 0.8"/>
      </g>
     </g>
     <g id="text_6">
      <!-- 2021-03-24 -->
      <g transform="translate(427.025373 266.76375)scale(0.1 -0.1)">
       <use xlink:href="#TimesNewRomanPSMT-32"/>
       <use xlink:href="#TimesNewRomanPSMT-30" x="50"/>
       <use xlink:href="#TimesNewRomanPSMT-32" x="100"/>
       <use xlink:href="#TimesNewRomanPSMT-31" x="150"/>
       <use xlink:href="#TimesNewRomanPSMT-2d" x="200"/>
       <use xlink:href="#TimesNewRomanPSMT-30" x="233.300781"/>
       <use xlink:href="#TimesNewRomanPSMT-33" x="283.300781"/>
       <use xlink:href="#TimesNewRomanPSMT-2d" x="333.300781"/>
       <use xlink:href="#TimesNewRomanPSMT-32" x="366.601562"/>
       <use xlink:href="#TimesNewRomanPSMT-34" x="416.601562"/>
      </g>
     </g>
    </g>
    <g id="xtick_7">
     <g id="line2d_13">
      <path d="M 517.353345 256.32 
L 517.353345 34.56 
" clip-path="url(#p43b1a29f8b)" style="fill: none; stroke: #b0b0b0; stroke-width: 0.8; stroke-linecap: square"/>
     </g>
     <g id="line2d_14">
      <g>
       <use xlink:href="#mc028337224" x="517.353345" y="256.32" style="stroke: #000000; stroke-width: 0.8"/>
      </g>
     </g>
     <g id="text_7">
      <!-- 2021-07-07 -->
      <g transform="translate(494.023657 266.76375)scale(0.1 -0.1)">
       <defs>
        <path id="TimesNewRomanPSMT-37" d="M 644 4238 
L 2916 4238 
L 2916 4119 
L 1503 -88 
L 1153 -88 
L 2419 3728 
L 1253 3728 
Q 900 3728 750 3644 
Q 488 3500 328 3200 
L 238 3234 
L 644 4238 
z
" transform="scale(0.015625)"/>
       </defs>
       <use xlink:href="#TimesNewRomanPSMT-32"/>
       <use xlink:href="#TimesNewRomanPSMT-30" x="50"/>
       <use xlink:href="#TimesNewRomanPSMT-32" x="100"/>
       <use xlink:href="#TimesNewRomanPSMT-31" x="150"/>
       <use xlink:href="#TimesNewRomanPSMT-2d" x="200"/>
       <use xlink:href="#TimesNewRomanPSMT-30" x="233.300781"/>
       <use xlink:href="#TimesNewRomanPSMT-37" x="283.300781"/>
       <use xlink:href="#TimesNewRomanPSMT-2d" x="333.300781"/>
       <use xlink:href="#TimesNewRomanPSMT-30" x="366.601562"/>
       <use xlink:href="#TimesNewRomanPSMT-37" x="416.601562"/>
      </g>
     </g>
    </g>
    <g id="xtick_8">
     <g id="line2d_15">
      <path d="M 584.35163 256.32 
L 584.35163 34.56 
" clip-path="url(#p43b1a29f8b)" style="fill: none; stroke: #b0b0b0; stroke-width: 0.8; stroke-linecap: square"/>
     </g>
     <g id="line2d_16">
      <g>
       <use xlink:href="#mc028337224" x="584.35163" y="256.32" style="stroke: #000000; stroke-width: 0.8"/>
      </g>
     </g>
     <g id="text_8">
      <!-- 2021-10-22 -->
      <g transform="translate(561.021942 266.76375)scale(0.1 -0.1)">
       <use xlink:href="#TimesNewRomanPSMT-32"/>
       <use xlink:href="#TimesNewRomanPSMT-30" x="50"/>
       <use xlink:href="#TimesNewRomanPSMT-32" x="100"/>
       <use xlink:href="#TimesNewRomanPSMT-31" x="150"/>
       <use xlink:href="#TimesNewRomanPSMT-2d" x="200"/>
       <use xlink:href="#TimesNewRomanPSMT-31" x="233.300781"/>
       <use xlink:href="#TimesNewRomanPSMT-30" x="283.300781"/>
       <use xlink:href="#TimesNewRomanPSMT-2d" x="333.300781"/>
       <use xlink:href="#TimesNewRomanPSMT-32" x="366.601562"/>
       <use xlink:href="#TimesNewRomanPSMT-32" x="416.601562"/>
      </g>
     </g>
    </g>
    <g id="text_9">
     <!-- 时间 -->
     <g transform="translate(359 280.67625)scale(0.1 -0.1)">
      <defs>
       <path id="SimSun-65f6" d="M 4500 3600 
Q 4500 4575 4475 5225 
L 5100 4900 
L 4850 4725 
L 4850 3600 
L 5225 3600 
L 5550 3925 
L 6025 3450 
L 4850 3450 
L 4850 100 
Q 4850 -375 4300 -575 
Q 4275 -200 3475 -25 
L 3475 100 
Q 4150 0 4325 25 
Q 4500 50 4500 325 
L 4500 3450 
L 3200 3450 
Q 2875 3450 2600 3375 
L 2375 3600 
L 4500 3600 
z
M 2875 2825 
Q 3525 2375 3637 2200 
Q 3750 2025 3750 1925 
Q 3750 1800 3637 1637 
Q 3525 1475 3475 1475 
Q 3400 1475 3325 1775 
Q 3200 2225 2800 2750 
L 2875 2825 
z
M 925 4150 
L 925 2650 
L 1950 2650 
L 1950 4150 
L 925 4150 
z
M 925 2500 
L 925 900 
L 1950 900 
L 1950 2500 
L 925 2500 
z
M 2300 2000 
Q 2300 800 2325 450 
L 1950 250 
L 1950 750 
L 925 750 
L 925 225 
L 550 25 
Q 575 825 575 2425 
Q 575 4025 550 4500 
L 950 4300 
L 1900 4300 
L 2100 4550 
L 2500 4225 
L 2300 4050 
L 2300 2000 
z
" transform="scale(0.015625)"/>
       <path id="SimSun-95f4" d="M 2150 525 
Q 2175 1325 2175 2112 
Q 2175 2900 2150 3675 
L 2525 3450 
L 3750 3450 
L 4000 3700 
L 4325 3375 
L 4125 3200 
Q 4125 1550 4150 775 
L 3800 575 
L 3800 975 
L 2500 975 
L 2500 700 
L 2150 525 
z
M 2500 3300 
L 2500 2325 
L 3800 2325 
L 3800 3300 
L 2500 3300 
z
M 2500 2175 
L 2500 1125 
L 3800 1125 
L 3800 2175 
L 2500 2175 
z
M 1275 5200 
Q 1850 4825 1950 4675 
Q 2050 4525 2050 4425 
Q 2050 4275 1950 4137 
Q 1850 4000 1825 4000 
Q 1750 4000 1675 4275 
Q 1550 4650 1200 5125 
L 1275 5200 
z
M 1125 425 
Q 1125 25 1150 -375 
L 750 -525 
Q 775 -150 775 1950 
Q 775 4050 750 4425 
L 1350 4125 
L 1125 3975 
L 1125 425 
z
M 4225 125 
Q 5025 0 5125 37 
Q 5225 75 5225 250 
L 5225 4450 
L 3225 4450 
Q 2900 4450 2625 4375 
L 2400 4600 
L 5175 4600 
L 5425 4850 
L 5775 4500 
L 5575 4350 
L 5575 225 
Q 5575 -100 5462 -250 
Q 5350 -400 5000 -550 
Q 4800 -125 4225 25 
L 4225 125 
z
" transform="scale(0.015625)"/>
      </defs>
      <use xlink:href="#SimSun-65f6"/>
      <use xlink:href="#SimSun-95f4" x="100"/>
     </g>
    </g>
   </g>
   <g id="matplotlib.axis_2">
    <g id="ytick_1">
     <g id="line2d_17">
      <path d="M 90 226.859916 
L 648 226.859916 
" clip-path="url(#p43b1a29f8b)" style="fill: none; stroke: #b0b0b0; stroke-width: 0.8; stroke-linecap: square"/>
     </g>
     <g id="line2d_18">
      <defs>
       <path id="m35766f5680" d="M 0 0 
L 3.5 0 
" style="stroke: #000000; stroke-width: 0.8"/>
      </defs>
      <g>
       <use xlink:href="#m35766f5680" x="90" y="226.859916" style="stroke: #000000; stroke-width: 0.8"/>
      </g>
     </g>
     <g id="text_10">
      <!-- 0.8 -->
      <g transform="translate(74 230.331791)scale(0.1 -0.1)">
       <defs>
        <path id="TimesNewRomanPSMT-2e" d="M 800 606 
Q 947 606 1047 504 
Q 1147 403 1147 259 
Q 1147 116 1045 14 
Q 944 -88 800 -88 
Q 656 -88 554 14 
Q 453 116 453 259 
Q 453 406 554 506 
Q 656 606 800 606 
z
" transform="scale(0.015625)"/>
       </defs>
       <use xlink:href="#TimesNewRomanPSMT-30"/>
       <use xlink:href="#TimesNewRomanPSMT-2e" x="50"/>
       <use xlink:href="#TimesNewRomanPSMT-38" x="75"/>
      </g>
     </g>
    </g>
    <g id="ytick_2">
     <g id="line2d_19">
      <path d="M 90 189.668502 
L 648 189.668502 
" clip-path="url(#p43b1a29f8b)" style="fill: none; stroke: #b0b0b0; stroke-width: 0.8; stroke-linecap: square"/>
     </g>
     <g id="line2d_20">
      <g>
       <use xlink:href="#m35766f5680" x="90" y="189.668502" style="stroke: #000000; stroke-width: 0.8"/>
      </g>
     </g>
     <g id="text_11">
      <!-- 1.0 -->
      <g transform="translate(74 193.140377)scale(0.1 -0.1)">
       <use xlink:href="#TimesNewRomanPSMT-31"/>
       <use xlink:href="#TimesNewRomanPSMT-2e" x="50"/>
       <use xlink:href="#TimesNewRomanPSMT-30" x="75"/>
      </g>
     </g>
    </g>
    <g id="ytick_3">
     <g id="line2d_21">
      <path d="M 90 152.477088 
L 648 152.477088 
" clip-path="url(#p43b1a29f8b)" style="fill: none; stroke: #b0b0b0; stroke-width: 0.8; stroke-linecap: square"/>
     </g>
     <g id="line2d_22">
      <g>
       <use xlink:href="#m35766f5680" x="90" y="152.477088" style="stroke: #000000; stroke-width: 0.8"/>
      </g>
     </g>
     <g id="text_12">
      <!-- 1.2 -->
      <g transform="translate(74 155.948963)scale(0.1 -0.1)">
       <use xlink:href="#TimesNewRomanPSMT-31"/>
       <use xlink:href="#TimesNewRomanPSMT-2e" x="50"/>
       <use xlink:href="#TimesNewRomanPSMT-32" x="75"/>
      </g>
     </g>
    </g>
    <g id="ytick_4">
     <g id="line2d_23">
      <path d="M 90 115.285674 
L 648 115.285674 
" clip-path="url(#p43b1a29f8b)" style="fill: none; stroke: #b0b0b0; stroke-width: 0.8; stroke-linecap: square"/>
     </g>
     <g id="line2d_24">
      <g>
       <use xlink:href="#m35766f5680" x="90" y="115.285674" style="stroke: #000000; stroke-width: 0.8"/>
      </g>
     </g>
     <g id="text_13">
      <!-- 1.4 -->
      <g transform="translate(74 118.757549)scale(0.1 -0.1)">
       <use xlink:href="#TimesNewRomanPSMT-31"/>
       <use xlink:href="#TimesNewRomanPSMT-2e" x="50"/>
       <use xlink:href="#TimesNewRomanPSMT-34" x="75"/>
      </g>
     </g>
    </g>
    <g id="ytick_5">
     <g id="line2d_25">
      <path d="M 90 78.094261 
L 648 78.094261 
" clip-path="url(#p43b1a29f8b)" style="fill: none; stroke: #b0b0b0; stroke-width: 0.8; stroke-linecap: square"/>
     </g>
     <g id="line2d_26">
      <g>
       <use xlink:href="#m35766f5680" x="90" y="78.094261" style="stroke: #000000; stroke-width: 0.8"/>
      </g>
     </g>
     <g id="text_14">
      <!-- 1.6 -->
      <g transform="translate(74 81.566136)scale(0.1 -0.1)">
       <use xlink:href="#TimesNewRomanPSMT-31"/>
       <use xlink:href="#TimesNewRomanPSMT-2e" x="50"/>
       <use xlink:href="#TimesNewRomanPSMT-36" x="75"/>
      </g>
     </g>
    </g>
    <g id="ytick_6">
     <g id="line2d_27">
      <path d="M 90 40.902847 
L 648 40.902847 
" clip-path="url(#p43b1a29f8b)" style="fill: none; stroke: #b0b0b0; stroke-width: 0.8; stroke-linecap: square"/>
     </g>
     <g id="line2d_28">
      <g>
       <use xlink:href="#m35766f5680" x="90" y="40.902847" style="stroke: #000000; stroke-width: 0.8"/>
      </g>
     </g>
     <g id="text_15">
      <!-- 1.8 -->
      <g transform="translate(74 44.374722)scale(0.1 -0.1)">
       <use xlink:href="#TimesNewRomanPSMT-31"/>
       <use xlink:href="#TimesNewRomanPSMT-2e" x="50"/>
       <use xlink:href="#TimesNewRomanPSMT-38" x="75"/>
      </g>
     </g>
    </g>
    <g id="text_16">
     <!-- 累积收益率 -->
     <g transform="translate(68.710938 170.44)rotate(-90)scale(0.1 -0.1)">
      <defs>
       <path id="SimSun-7d2f" d="M 1675 4725 
L 1675 4100 
L 3125 4100 
L 3125 4725 
L 1675 4725 
z
M 3450 4725 
L 3450 4100 
L 4925 4100 
L 4925 4725 
L 3450 4725 
z
M 1675 3950 
L 1675 3375 
L 3125 3375 
L 3125 3950 
L 1675 3950 
z
M 3450 3950 
L 3450 3375 
L 4925 3375 
L 4925 3950 
L 3450 3950 
z
M 5250 4625 
Q 5250 4275 5250 3875 
Q 5250 3475 5275 3075 
L 4925 2950 
L 4925 3225 
L 1675 3225 
L 1675 3000 
L 1325 2875 
Q 1350 3500 1350 4125 
Q 1350 4750 1325 5075 
L 1675 4875 
L 4900 4875 
L 5075 5075 
L 5425 4775 
L 5250 4625 
z
M 3525 2875 
Q 3225 2850 2875 2700 
Q 2525 2550 1825 2275 
L 3550 2300 
Q 3925 2550 4175 2800 
L 4500 2400 
Q 4275 2400 3675 2100 
Q 3050 1775 1875 1300 
L 4775 1475 
Q 4550 1725 4300 1975 
L 4375 2025 
Q 5100 1675 5262 1487 
Q 5425 1300 5412 1150 
Q 5400 1000 5337 900 
Q 5275 800 5250 800 
Q 5200 800 5125 950 
Q 5000 1150 4875 1350 
L 3550 1225 
L 3550 100 
Q 3575 -425 3000 -525 
Q 3000 -175 2200 0 
L 2200 100 
Q 2900 25 3062 37 
Q 3225 50 3225 325 
L 3225 1200 
Q 2750 1150 2250 1075 
Q 1750 1000 1450 825 
L 1175 1350 
Q 1550 1400 2000 1562 
Q 2450 1725 3375 2175 
Q 2300 2075 2000 2037 
Q 1700 2000 1550 1900 
L 1325 2350 
Q 1625 2350 2200 2612 
Q 2775 2875 3150 3250 
L 3525 2875 
z
M 2625 500 
Q 2325 450 1850 175 
Q 1375 -125 550 -450 
L 500 -375 
Q 1125 -50 1562 300 
Q 2000 650 2225 950 
L 2625 500 
z
M 4075 900 
Q 5000 575 5312 387 
Q 5625 200 5650 12 
Q 5675 -175 5612 -287 
Q 5550 -400 5525 -400 
Q 5425 -400 5250 -150 
Q 4975 250 4025 825 
L 4075 900 
z
" transform="scale(0.015625)"/>
       <path id="SimSun-79ef" d="M 3125 1750 
Q 3150 2475 3150 3225 
Q 3150 3975 3125 4725 
L 3500 4525 
L 5225 4525 
L 5475 4775 
L 5850 4400 
L 5600 4250 
Q 5600 2300 5625 1975 
L 5275 1850 
L 5275 2175 
L 3475 2175 
L 3475 1875 
L 3125 1750 
z
M 3475 4375 
L 3475 2325 
L 5275 2325 
L 5275 4375 
L 3475 4375 
z
M 3825 1700 
L 4300 1300 
L 4075 1225 
Q 3125 -75 2200 -550 
L 2175 -450 
Q 2800 50 3225 625 
Q 3650 1200 3825 1700 
z
M 4700 1600 
Q 5725 650 5850 362 
Q 5975 75 5975 -75 
Q 5975 -225 5900 -337 
Q 5825 -450 5775 -450 
Q 5725 -450 5650 -250 
Q 5525 75 5350 450 
Q 5175 825 4650 1525 
L 4700 1600 
z
M 1875 2575 
Q 1875 225 1900 -400 
L 1525 -625 
Q 1550 125 1550 2350 
Q 1025 1275 300 625 
L 250 700 
Q 625 1200 962 1862 
Q 1300 2525 1500 3200 
L 1125 3200 
Q 800 3200 525 3125 
L 300 3350 
L 1550 3350 
L 1550 4475 
Q 900 4375 525 4350 
L 525 4450 
Q 1075 4550 1525 4712 
Q 1975 4875 2375 5150 
L 2725 4700 
Q 2425 4700 1875 4550 
L 1875 3350 
L 2250 3350 
L 2550 3650 
L 2975 3200 
L 1875 3200 
L 1875 2675 
Q 2475 2400 2612 2212 
Q 2750 2025 2750 1925 
Q 2750 1800 2662 1675 
Q 2575 1550 2550 1550 
Q 2450 1550 2375 1800 
Q 2250 2175 1875 2575 
z
" transform="scale(0.015625)"/>
       <path id="SimSun-6536" d="M 3325 3600 
Q 3575 2100 4200 1200 
Q 4600 1950 4850 3600 
L 3325 3600 
z
M 3400 5275 
L 4025 4975 
L 3775 4850 
Q 3575 4375 3325 3750 
L 5250 3750 
L 5575 4075 
L 6050 3600 
L 5225 3600 
Q 4975 2000 4425 900 
Q 5300 -25 6150 -75 
L 6150 -175 
Q 5750 -200 5575 -525 
Q 4750 -50 4200 650 
Q 3350 -175 2300 -600 
L 2250 -525 
Q 3225 -25 4000 900 
Q 3325 2100 3225 3550 
Q 2875 2725 2425 2100 
L 2350 2150 
Q 3050 3500 3400 5275 
z
M 575 1575 
L 575 3100 
Q 575 3600 550 4125 
L 1125 3850 
L 900 3675 
L 900 1425 
L 1750 1725 
Q 1750 4350 1725 5250 
L 2300 4975 
L 2075 4775 
L 2075 -450 
L 1725 -650 
Q 1750 375 1750 1600 
Q 975 1175 750 825 
L 475 1200 
Q 600 1325 575 1575 
z
" transform="scale(0.015625)"/>
       <path id="SimSun-76ca" d="M 3900 1725 
L 3900 -75 
L 4725 -75 
L 4725 1725 
L 3900 1725 
z
M 1275 2100 
L 1625 1875 
L 4675 1875 
L 4875 2125 
L 5250 1800 
L 5050 1650 
L 5050 -75 
L 5300 -75 
L 5650 275 
L 6100 -225 
L 1125 -225 
Q 800 -225 525 -300 
L 300 -75 
L 1300 -75 
Q 1300 1475 1275 2100 
z
M 1625 1725 
L 1625 -75 
L 2450 -75 
L 2450 1725 
L 1625 1725 
z
M 2775 1725 
L 2775 -75 
L 3575 -75 
L 3575 1725 
L 2775 1725 
z
M 2475 3550 
L 2900 3150 
Q 2575 3025 2050 2675 
Q 1525 2300 725 2000 
L 675 2075 
Q 1875 2750 2475 3550 
z
M 3700 3450 
Q 4425 3200 4987 2950 
Q 5550 2700 5500 2362 
Q 5450 2025 5350 2025 
Q 5275 2025 5200 2125 
Q 4975 2375 4662 2650 
Q 4350 2925 3650 3375 
L 3700 3450 
z
M 1725 5000 
L 1775 5075 
Q 2375 4800 2587 4587 
Q 2800 4375 2800 4225 
Q 2800 4050 2600 3825 
L 3625 3825 
Q 4175 4800 4275 5225 
L 4825 4875 
Q 4475 4725 3775 3825 
L 4900 3825 
L 5275 4200 
L 5775 3675 
L 1550 3675 
Q 1225 3675 950 3600 
L 725 3825 
L 2425 3825 
Q 2325 4375 1725 5000 
z
" transform="scale(0.015625)"/>
       <path id="SimSun-7387" d="M 875 3725 
L 925 3800 
Q 1375 3650 1550 3525 
Q 1725 3400 1725 3250 
Q 1725 3175 1662 3025 
Q 1600 2875 1550 2875 
Q 1500 2875 1425 3050 
Q 1275 3325 875 3725 
z
M 550 1850 
Q 875 1925 2000 2575 
L 2050 2500 
Q 1675 2225 1337 1937 
Q 1000 1650 875 1425 
L 550 1850 
z
M 5200 3450 
Q 4800 3150 4275 2800 
L 4225 2875 
Q 4775 3400 5050 3925 
L 5450 3525 
L 5200 3450 
z
M 4325 2500 
L 4350 2575 
Q 5225 2350 5375 2212 
Q 5525 2075 5525 1900 
Q 5525 1775 5487 1662 
Q 5450 1550 5400 1550 
Q 5325 1550 5200 1800 
Q 4975 2150 4325 2500 
z
M 3150 3900 
Q 2500 3300 2300 3150 
Q 2800 3150 3400 3175 
Q 3700 3500 3850 3825 
L 4250 3450 
Q 4050 3400 3450 2825 
Q 2850 2250 2475 1950 
Q 3150 1975 3850 2000 
Q 3750 2175 3550 2450 
L 3600 2500 
Q 4050 2250 4200 2100 
Q 4350 1950 4350 1850 
Q 4350 1775 4250 1625 
Q 4150 1475 4100 1475 
Q 4075 1475 4050 1550 
Q 4000 1700 3900 1900 
Q 3650 1875 3075 1800 
L 3500 1550 
L 3325 1425 
L 3325 975 
L 5325 975 
L 5650 1300 
L 6100 825 
L 3325 825 
Q 3325 -275 3350 -525 
L 2975 -650 
Q 3000 0 3000 825 
L 1125 825 
Q 800 825 525 750 
L 300 975 
L 3000 975 
L 3000 1775 
Q 2450 1700 2200 1525 
L 1950 1950 
Q 2275 1950 2675 2350 
Q 3075 2750 3325 3050 
Q 2400 2950 2150 2775 
L 1950 3175 
Q 2150 3150 2475 3575 
Q 2800 4000 2900 4225 
L 1450 4225 
Q 1125 4225 850 4150 
L 625 4375 
L 3100 4375 
Q 3050 4800 2675 5200 
L 2725 5250 
Q 3225 5050 3337 4912 
Q 3450 4775 3450 4700 
Q 3450 4550 3250 4375 
L 5025 4375 
L 5350 4675 
L 5775 4225 
L 3050 4225 
L 3375 3950 
L 3150 3900 
z
" transform="scale(0.015625)"/>
      </defs>
      <use xlink:href="#SimSun-7d2f"/>
      <use xlink:href="#SimSun-79ef" x="100"/>
      <use xlink:href="#SimSun-6536" x="200"/>
      <use xlink:href="#SimSun-76ca" x="300"/>
      <use xlink:href="#SimSun-7387" x="400"/>
     </g>
    </g>
   </g>
   <g id="line2d_29">
    <path d="M 115.363636 189.668502 
L 123.977702 189.668502 
L 124.93482 195.489035 
L 125.891938 196.029445 
L 127.806175 195.931019 
L 128.763293 193.488362 
L 129.720412 194.034774 
L 133.548885 194.034774 
L 134.506003 194.579546 
L 135.463122 194.690413 
L 136.42024 194.468679 
L 137.377358 193.249141 
L 138.334477 193.692609 
L 139.291595 199.901168 
L 140.248714 199.790301 
L 141.205832 202.783714 
L 142.16295 203.302239 
L 143.120069 203.302239 
L 144.077187 205.469078 
L 145.034305 205.249096 
L 145.991424 207.448921 
L 146.948542 206.678982 
L 147.90566 205.689061 
L 148.862779 207.228939 
L 149.819897 205.909043 
L 150.777015 204.039192 
L 151.734134 206.129026 
L 152.691252 207.008956 
L 153.64837 203.379244 
L 154.605489 204.039192 
L 155.562607 198.319646 
L 156.519726 198.209655 
L 157.476844 194.139978 
L 158.433962 194.579943 
L 159.391081 193.590021 
L 160.348199 193.150056 
L 161.305317 196.999751 
L 162.262436 195.23989 
L 163.219554 196.339803 
L 165.133791 192.710091 
L 166.090909 193.370039 
L 167.048027 194.689934 
L 168.005146 190.070301 
L 168.962264 190.626967 
L 172.790738 190.626967 
L 173.747856 192.280495 
L 174.704974 188.984897 
L 176.619211 194.148 
L 177.576329 196.235212 
L 179.490566 194.916973 
L 180.447684 199.860369 
L 181.404803 198.87169 
L 182.361921 204.913619 
L 183.319039 221.940873 
L 184.276158 215.239824 
L 185.233276 214.910265 
L 186.190395 213.372319 
L 187.147513 215.020118 
L 188.104631 216.338357 
L 189.06175 213.152613 
L 190.018868 213.372319 
L 190.975986 214.690558 
L 192.890223 206.781124 
L 193.847341 208.648629 
L 194.80446 208.209216 
L 195.761578 204.364352 
L 196.718696 204.474206 
L 197.675815 208.31907 
L 198.632933 210.406281 
L 199.590051 210.955548 
L 200.54717 209.637309 
L 201.504288 216.338357 
L 202.461407 213.152613 
L 203.418525 213.921585 
L 204.375643 214.251145 
L 205.332762 206.561418 
L 206.28988 210.516135 
L 207.246998 216.887623 
L 208.204117 217.363837 
L 222.560892 217.363837 
L 223.51801 216.729183 
L 224.475129 215.743014 
L 225.432247 220.180772 
L 226.389365 216.852454 
L 227.346484 217.328773 
L 233.089194 217.328773 
L 234.046312 215.189894 
L 235.003431 213.945242 
L 235.960549 208.219841 
L 236.917667 210.958076 
L 237.874786 210.958076 
L 238.831904 210.833611 
L 239.789022 207.597515 
L 240.746141 207.348584 
L 241.703259 201.125323 
L 242.660377 202.24551 
L 243.617496 204.236954 
L 244.574614 205.232676 
L 245.531732 201.99658 
L 246.488851 201.374254 
L 247.445969 203.988023 
L 248.403087 205.979467 
L 249.360206 206.488405 
L 250.317324 206.488405 
L 251.274443 207.378197 
L 252.231561 205.338835 
L 253.188679 205.849695 
L 254.145798 207.737211 
L 255.102916 213.751122 
L 256.060034 214.236746 
L 257.017153 214.236746 
L 257.974271 215.214485 
L 258.931389 211.574483 
L 259.888508 212.453104 
L 260.845626 208.436551 
L 261.802744 205.549654 
L 262.759863 205.675171 
L 263.716981 205.298619 
L 264.674099 205.047584 
L 265.631218 205.559318 
L 266.588336 205.447065 
L 267.545455 207.687894 
L 268.502573 212.792004 
L 269.459691 213.912418 
L 270.41681 216.028757 
L 271.373928 215.157323 
L 272.331046 215.655285 
L 273.288165 216.7757 
L 274.245283 216.277738 
L 275.202401 218.269586 
L 276.15952 218.741654 
L 277.116638 218.741654 
L 278.073756 219.212305 
L 279.030875 219.212305 
L 280.945111 211.51384 
L 281.90223 201.493615 
L 282.859348 184.019321 
L 283.816467 186.463278 
L 284.773585 183.041738 
L 285.730703 185.852289 
L 286.687822 194.039545 
L 287.64494 193.672952 
L 288.602058 196.239107 
L 289.559177 201.249219 
L 290.516295 202.715594 
L 291.473413 202.837792 
L 292.430532 195.628118 
L 293.38765 198.560866 
L 294.344768 199.538449 
L 295.301887 204.426364 
L 296.259005 210.658455 
L 297.216123 213.835599 
L 298.173242 212.613621 
L 299.13036 210.169663 
L 300.087479 212.247027 
L 301.044597 212.613621 
L 302.001715 209.558674 
L 302.958834 204.05977 
L 303.915952 207.48131 
L 304.87307 205.77054 
L 305.830189 206.280106 
L 311.572899 206.280106 
L 312.530017 207.232743 
L 314.444254 208.292007 
L 315.401372 208.292007 
L 316.358491 208.678553 
L 317.315609 207.062192 
L 318.272727 209.717642 
L 319.229846 208.678553 
L 320.186964 200.94311 
L 321.144082 201.520382 
L 322.101201 200.827656 
L 323.058319 201.35205 
L 327.843911 201.35205 
L 328.801029 200.389821 
L 329.758148 204.15956 
L 330.715266 200.846759 
L 331.672384 200.275587 
L 332.629503 199.247476 
L 333.586621 197.762427 
L 334.543739 192.050702 
L 335.500858 194.449626 
L 336.457976 197.762427 
L 337.415094 197.07702 
L 338.372213 202.902981 
L 339.329331 202.103339 
L 340.286449 200.732525 
L 341.243568 206.558485 
L 342.200686 202.331808 
L 343.157804 202.217574 
L 344.114923 193.992688 
L 345.072041 192.164936 
L 346.02916 192.50764 
L 347.943396 180.284546 
L 348.900515 175.943635 
L 349.857633 175.258227 
L 350.814751 171.03155 
L 351.77187 175.029758 
L 352.728988 168.518391 
L 353.686106 173.430475 
L 354.643225 172.745068 
L 355.600343 174.230117 
L 356.557461 172.630834 
L 357.51458 172.859303 
L 358.471698 174.230117 
L 360.385935 166.347935 
L 361.343053 173.430475 
L 362.300172 174.115882 
L 363.25729 171.831192 
L 364.214408 172.442575 
L 369.957118 172.442575 
L 370.914237 168.772403 
L 371.871355 169.392963 
L 374.74271 169.392963 
L 375.699828 165.265065 
L 376.656947 163.107521 
L 377.614065 162.676012 
L 378.571184 159.33182 
L 379.528302 163.862661 
L 380.48542 164.49795 
L 381.442539 164.49795 
L 382.399657 169.384843 
L 383.356775 171.566131 
L 384.313894 171.566131 
L 385.271012 172.220517 
L 386.22813 173.638354 
L 387.185249 169.712037 
L 388.142367 171.238938 
L 389.099485 168.2942 
L 391.013722 169.568617 
L 391.97084 169.568617 
L 392.927959 174.457397 
L 393.885077 175.060902 
L 394.842196 175.060902 
L 395.799314 178.071788 
L 396.756432 169.201579 
L 397.713551 165.697299 
L 398.670669 165.368773 
L 399.627787 163.835651 
L 400.584906 171.939298 
L 401.542024 176.648174 
L 402.499142 161.426458 
L 403.456261 162.069055 
L 440.783877 162.069055 
L 441.740995 153.62949 
L 442.698113 154.295479 
L 452.269297 154.295479 
L 453.226415 151.306057 
L 454.183533 146.713195 
L 455.140652 145.87813 
L 456.09777 148.278944 
L 457.054889 151.201673 
L 458.012007 149.322776 
L 458.969125 149.740308 
L 459.926244 150.575374 
L 460.883362 153.289337 
L 461.84048 159.55233 
L 462.797599 158.717264 
L 463.754717 159.86548 
L 464.711835 163.101359 
L 465.668954 164.145191 
L 466.626072 154.855086 
L 467.58319 149.218392 
L 468.540309 135.439809 
L 469.497427 135.752958 
L 470.454545 132.517079 
L 471.411664 136.170491 
L 472.368782 136.170491 
L 473.325901 131.89078 
L 474.283019 129.385583 
L 475.240137 132.517079 
L 476.197256 130.325032 
L 477.154374 124.583955 
L 478.111492 126.567236 
L 479.068611 130.011882 
L 480.025729 129.803116 
L 480.982847 134.81351 
L 481.939966 135.535946 
L 484.811321 135.535946 
L 485.768439 134.024805 
L 486.725557 137.371919 
L 487.682676 137.473347 
L 488.639794 126.113445 
L 489.596913 121.95491 
L 490.554031 124.186319 
L 491.511149 124.940637 
L 492.468268 124.940637 
L 493.425386 128.584477 
L 494.382504 128.894311 
L 495.339623 130.133648 
L 496.296741 122.181238 
L 497.253859 124.659911 
L 498.210978 122.284516 
L 499.168096 121.045179 
L 500.125214 125.692692 
L 501.082333 134.26477 
L 502.039451 135.81394 
L 502.996569 136.533375 
L 504.910806 136.533375 
L 505.867925 142.407549 
L 506.825043 133.882883 
L 507.782161 132.093755 
L 508.73928 132.824351 
L 509.696398 132.824351 
L 510.653516 139.563124 
L 511.610635 144.122715 
L 512.567753 141.221157 
L 513.524871 141.92437 
L 588.180103 141.92437 
L 589.137221 145.224866 
L 590.09434 146.524563 
L 591.051458 160.821222 
L 592.965695 164.484002 
L 593.922813 165.117427 
L 594.879931 165.117427 
L 595.83705 164.423668 
L 596.794168 165.989912 
L 597.751286 166.618819 
L 598.708405 168.154307 
L 599.665523 166.337372 
L 600.622642 168.722099 
L 601.57976 169.971242 
L 602.536878 173.491553 
L 603.493997 169.517008 
L 604.451115 169.857683 
L 605.408233 172.583086 
L 606.365352 172.696644 
L 607.32247 174.854254 
L 608.279588 175.456568 
L 613.06518 175.456568 
L 614.979417 166.898408 
L 615.936535 167.524589 
L 618.80789 167.524589 
L 619.765009 175.984629 
L 620.722127 176.325313 
L 621.679245 174.394769 
L 622.636364 176.09819 
L 622.636364 176.09819 
" clip-path="url(#p43b1a29f8b)" style="fill: none; stroke: #1f77b4; stroke-width: 1.5; stroke-linecap: square"/>
   </g>
   <g id="line2d_30">
    <path d="M 115.363636 194.435086 
L 116.320755 194.978658 
L 118.234991 194.978658 
L 119.19211 200.532401 
L 120.149228 200.212498 
L 121.106346 195.733867 
L 122.063465 196.273542 
L 123.020583 199.142112 
L 123.977702 196.493801 
L 124.93482 201.578558 
L 125.891938 203.37941 
L 126.849057 197.023463 
L 127.806175 196.387868 
L 128.763293 193.951422 
L 129.720412 195.964138 
L 130.67753 196.705665 
L 131.634648 199.248044 
L 132.591767 203.167545 
L 133.548885 202.637883 
L 136.42024 202.53195 
L 137.377358 201.366693 
L 138.334477 201.790423 
L 139.291595 207.72264 
L 140.248714 207.616708 
L 141.205832 210.476884 
L 142.16295 208.252302 
L 143.120069 210.159087 
L 144.077187 211.748073 
L 145.034305 211.536208 
L 145.991424 213.654857 
L 146.948542 212.91333 
L 147.90566 211.959938 
L 148.862779 213.442992 
L 149.819897 212.171803 
L 150.777015 210.370951 
L 151.734134 212.383668 
L 152.691252 213.231128 
L 153.64837 209.735357 
L 154.605489 210.370951 
L 155.562607 204.862464 
L 156.519726 204.756532 
L 157.476844 200.837031 
L 158.433962 201.260761 
L 159.391081 200.307369 
L 160.348199 199.883639 
L 161.305317 203.591275 
L 162.262436 201.896355 
L 163.219554 202.95568 
L 165.133791 199.459909 
L 166.090909 200.095504 
L 167.048027 201.366693 
L 168.005146 196.91753 
L 168.962264 193.633624 
L 169.919383 194.798881 
L 170.876501 193.951422 
L 171.833619 199.142112 
L 172.790738 197.76499 
L 173.747856 198.824314 
L 174.704974 195.646341 
L 175.662093 198.082787 
L 176.619211 198.615416 
L 177.576329 201.17617 
L 178.533448 201.699518 
L 179.490566 201.586503 
L 180.447684 206.34745 
L 181.404803 205.395261 
L 182.361921 211.214196 
L 183.319039 227.613014 
L 184.276158 221.159286 
L 185.233276 220.841889 
L 186.190395 219.360706 
L 187.147513 220.947688 
L 188.104631 222.217274 
L 189.06175 219.149108 
L 190.018868 219.360706 
L 190.975986 220.630292 
L 192.890223 213.012776 
L 193.847341 214.811356 
L 194.80446 214.388161 
L 195.761578 210.685202 
L 196.718696 210.791001 
L 197.675815 214.49396 
L 198.632933 216.504138 
L 199.590051 216.981502 
L 200.54717 216.191245 
L 201.504288 222.627707 
L 202.461407 219.567749 
L 203.418525 220.30636 
L 204.375643 220.622907 
L 205.332762 213.236803 
L 206.28988 217.035371 
L 207.246998 223.155286 
L 208.204117 219.884297 
L 209.161235 220.622907 
L 210.118353 220.728423 
L 211.075472 222.416675 
L 212.03259 230.541389 
L 212.989708 234.128926 
L 213.946827 241.515029 
L 214.903945 241.917361 
L 215.861063 239.157484 
L 216.818182 243.190486 
L 217.7753 238.176483 
L 218.732419 235.342481 
L 219.689537 233.27148 
L 220.646655 232.290479 
L 221.603774 234.579481 
L 222.560892 235.002619 
L 246.488851 235.002619 
L 247.445969 237.527504 
L 248.403087 239.129802 
L 249.360206 242.434542 
L 250.317324 243.135547 
L 251.274443 243.435978 
L 253.188679 240.331526 
L 254.145798 241.433106 
L 255.102916 246.24 
L 256.060034 245.839425 
L 257.017153 245.038276 
L 257.974271 245.438851 
L 258.931389 242.484692 
L 259.888508 243.197765 
L 260.845626 239.938003 
L 261.802744 240.345066 
L 274.245283 240.328103 
L 275.202401 242.019321 
L 276.15952 242.442126 
L 277.116638 240.328103 
L 279.030875 240.328103 
L 280.945111 233.668931 
L 281.90223 225.001436 
L 282.859348 209.886172 
L 283.816467 212.000195 
L 284.773585 209.040563 
L 285.730703 209.540318 
L 286.687822 217.182379 
L 287.64494 216.862507 
L 288.602058 219.10161 
L 289.559177 223.473192 
L 290.516295 224.752679 
L 291.473413 224.859303 
L 292.430532 218.56849 
L 293.38765 221.127465 
L 294.344768 221.980457 
L 295.301887 226.245415 
L 296.259005 231.683236 
L 297.216123 234.455459 
L 298.173242 233.38922 
L 299.13036 231.25674 
L 300.087479 233.069348 
L 301.044597 233.38922 
L 302.001715 230.723621 
L 302.958834 225.925543 
L 303.915952 228.911014 
L 304.87307 227.418278 
L 305.830189 227.8629 
L 306.787307 225.617878 
L 307.744425 223.682295 
L 308.701544 220.993985 
L 309.658662 223.144633 
L 310.61578 220.026194 
L 311.572899 212.283861 
L 313.487136 213.251653 
L 314.444254 218.735805 
L 315.401372 220.241258 
L 316.358491 220.133726 
L 317.315609 218.628272 
L 318.272727 221.101518 
L 319.229846 220.133726 
L 320.186964 212.929055 
L 321.144082 213.466717 
L 322.101201 212.821523 
L 323.058319 210.88594 
L 324.015437 215.402301 
L 324.972556 214.757106 
L 325.929674 214.972171 
L 326.886792 209.703084 
L 327.843911 212.068796 
L 328.801029 210.670875 
L 329.758148 214.219444 
L 330.715266 211.101005 
L 331.672384 210.563343 
L 332.629503 209.595551 
L 333.586621 208.19763 
L 334.543739 202.82101 
L 335.500858 205.07919 
L 336.457976 208.19763 
L 337.415094 207.552435 
L 338.372213 213.036588 
L 339.329331 212.283861 
L 340.286449 210.993472 
L 341.243568 216.477624 
L 342.200686 212.498926 
L 343.157804 212.391393 
L 344.114923 204.649061 
L 345.072041 202.928542 
L 346.02916 203.25114 
L 347.943396 191.745173 
L 348.900515 187.658942 
L 349.857633 187.013748 
L 350.814751 183.035049 
L 351.77187 186.798683 
L 352.728988 180.669336 
L 353.686106 185.293229 
L 354.643225 184.648035 
L 355.600343 186.045956 
L 356.557461 184.540503 
L 357.51458 184.755567 
L 358.471698 186.045956 
L 360.385935 178.626221 
L 361.343053 179.217219 
L 365.171527 179.217219 
L 366.128645 181.455678 
L 367.085763 186.733229 
L 368.042882 184.644199 
L 369 179.586546 
L 369.957118 172.65976 
L 370.914237 168.37175 
L 371.871355 168.261801 
L 372.828473 159.905679 
L 373.785592 162.764352 
L 374.74271 166.062822 
L 375.699828 161.225067 
L 376.656947 159.026087 
L 377.614065 158.586291 
L 378.571184 155.177873 
L 379.528302 159.79573 
L 380.48542 160.785271 
L 381.442539 163.424046 
L 382.399657 167.712056 
L 383.356775 169.911036 
L 384.313894 169.911036 
L 385.271012 170.57073 
L 386.22813 172.000067 
L 387.185249 168.041903 
L 388.142367 169.581189 
L 389.099485 166.612567 
L 390.056604 167.27226 
L 391.013722 173.75925 
L 391.97084 174.638842 
L 392.927959 178.816903 
L 393.885077 177.717413 
L 394.842196 174.85874 
L 395.799314 177.277617 
L 396.756432 168.37175 
L 397.713551 164.853383 
L 398.670669 164.523536 
L 399.627787 162.98425 
L 400.584906 171.120475 
L 401.542024 175.848281 
L 402.499142 160.565373 
L 403.456261 156.827108 
L 404.413379 157.376853 
L 405.370497 151.549557 
L 406.327616 144.73272 
L 407.284734 148.03119 
L 408.241852 153.858485 
L 409.198971 144.73272 
L 410.156089 126.041394 
L 411.113208 129.999557 
L 412.070326 128.570221 
L 413.027444 131.208996 
L 413.984563 133.407976 
L 414.941681 128.350323 
L 415.898799 129.66971 
L 416.855918 121.863333 
L 417.813036 124.831955 
L 418.770154 121.753384 
L 419.727273 105.700834 
L 420.684391 119.664354 
L 421.641509 120.432237 
L 422.598628 124.766944 
L 423.555746 121.401767 
L 424.512864 122.727443 
L 425.469983 124.970894 
L 426.427101 132.720998 
L 427.38422 127.826196 
L 428.341338 132.415073 
L 429.298456 147.405406 
L 430.255575 148.090066 
L 431.212693 146.393458 
L 432.169811 147.117567 
L 433.12693 154.462098 
L 434.084048 153.737989 
L 435.041166 151.669107 
L 435.998285 137.60071 
L 436.955403 138.531707 
L 437.912521 144.531465 
L 439.826758 159.944635 
L 440.783877 160.591678 
L 473.325901 160.591678 
L 474.283019 159.033211 
L 475.240137 161.787671 
L 476.197256 159.859549 
L 477.154374 154.809706 
L 478.111492 156.554197 
L 479.068611 159.584103 
L 480.025729 159.400473 
L 480.982847 163.807608 
L 481.939966 159.828503 
L 483.854202 154.461338 
L 484.811321 157.237458 
L 485.768439 155.201636 
L 486.725557 158.255368 
L 487.682676 158.347906 
L 488.639794 147.983724 
L 489.596913 144.189693 
L 490.554031 146.225515 
L 493.425386 154.276263 
L 494.382504 154.553875 
L 495.339623 155.664323 
L 496.296741 148.538948 
L 497.253859 150.759844 
L 498.210978 148.631485 
L 499.168096 147.521037 
L 500.125214 151.685218 
L 501.082333 159.365816 
L 502.039451 160.753877 
L 502.996569 160.383727 
L 503.953688 161.864325 
L 505.867925 170.562834 
L 506.825043 163.06731 
L 507.782161 161.494175 
L 508.73928 162.049399 
L 509.696398 159.458354 
L 510.653516 164.825519 
L 511.610635 168.897162 
L 512.567753 166.306117 
L 513.524871 160.938951 
L 514.48199 173.801641 
L 515.439108 171.488208 
L 516.396226 164.825519 
L 517.353345 166.953878 
L 518.310463 176.577761 
L 519.267581 178.798657 
L 520.2247 179.816568 
L 521.181818 180.186717 
L 522.138937 183.518061 
L 523.096055 175.55985 
L 524.053173 178.150896 
L 525.010292 179.353881 
L 525.96741 184.998659 
L 526.924528 186.386719 
L 527.881647 187.03448 
L 528.838765 189.625525 
L 529.795883 201.655379 
L 530.753002 211.279262 
L 531.71012 211.3718 
L 532.667238 209.428515 
L 533.624357 211.927024 
L 534.581475 208.965829 
L 535.538593 210.076277 
L 536.495712 210.816576 
L 537.45283 212.019561 
L 538.409949 210.353889 
L 539.367067 199.249408 
L 540.324185 193.049407 
L 542.238422 191.56881 
L 543.19554 191.56881 
L 544.152659 191.013586 
L 545.109777 193.604631 
L 546.066895 184.813584 
L 547.024014 187.404629 
L 547.981132 195.918064 
L 548.93825 196.457187 
L 549.895369 196.439363 
L 550.852487 198.29046 
L 551.809605 204.7693 
L 552.766724 205.417184 
L 553.723842 211.61836 
L 555.638079 210.137482 
L 556.595197 205.324629 
L 557.552316 208.656604 
L 558.509434 204.861855 
L 559.466552 197.550021 
L 560.423671 197.642576 
L 561.380789 199.771338 
L 562.337907 185.240225 
L 563.295026 188.5722 
L 564.252144 196.346808 
L 565.209262 194.958485 
L 566.166381 199.030899 
L 568.080617 209.211934 
L 569.994854 215.04289 
L 570.951973 213.006683 
L 571.909091 209.304488 
L 572.866209 207.638501 
L 573.823328 209.674708 
L 575.737564 196.069143 
L 576.694683 196.531918 
L 577.651801 194.403156 
L 578.608919 197.827686 
L 579.566038 193.662717 
L 580.523156 194.208606 
L 582.437393 194.208606 
L 583.394511 187.608196 
L 584.35163 187.232162 
L 585.308748 186.480092 
L 586.265866 187.138153 
L 587.222985 188.360266 
L 589.137221 192.308631 
L 590.09434 193.342726 
L 591.051458 204.717777 
L 592.965695 207.632047 
L 594.879931 211.862438 
L 595.83705 210.828342 
L 596.794168 212.050455 
L 597.751286 203.11963 
L 598.708405 203.871699 
L 599.665523 202.36756 
L 600.622642 204.341743 
L 601.57976 205.375838 
L 602.536878 208.290108 
L 603.493997 204.999804 
L 604.451115 205.28183 
L 605.408233 207.538038 
L 606.365352 208.042301 
L 619.765009 208.042301 
L 620.722127 208.830171 
L 621.679245 207.214489 
L 622.636364 208.640091 
L 622.636364 208.640091 
" clip-path="url(#p43b1a29f8b)" style="fill: none; stroke: #ff7f0e; stroke-width: 1.5; stroke-linecap: square"/>
   </g>
   <g id="line2d_31">
    <path d="M 115.363636 189.668502 
L 119.19211 189.668502 
L 120.149228 189.887642 
L 121.106346 185.145397 
L 122.063465 185.716837 
L 124.93482 185.716837 
L 125.891938 188.24564 
L 126.849057 188.80778 
L 134.506003 188.80778 
L 136.42024 190.040722 
L 141.205832 190.040722 
L 142.16295 188.105116 
L 143.120069 190.241425 
L 144.077187 190.797577 
L 145.034305 190.797577 
L 145.991424 193.731319 
L 146.948542 192.898579 
L 147.90566 193.44676 
L 157.476844 193.44676 
L 158.433962 194.433617 
L 159.391081 193.442895 
L 160.348199 193.002574 
L 161.305317 193.550443 
L 168.005146 193.550443 
L 168.962264 190.760927 
L 169.919383 191.315521 
L 175.662093 191.315521 
L 176.619211 194.499818 
L 177.576329 195.043196 
L 192.890223 195.043196 
L 193.847341 197.576283 
L 194.80446 197.107733 
L 195.761578 193.007913 
L 196.718696 193.125051 
L 197.675815 193.672553 
L 201.504288 193.672553 
L 202.461407 190.590269 
L 203.418525 191.145375 
L 214.903945 191.145375 
L 215.861063 187.33751 
L 216.818182 187.902374 
L 217.7753 187.902374 
L 218.732419 184.606574 
L 219.689537 185.179631 
L 220.646655 185.179631 
L 221.603774 188.783187 
L 222.560892 190.804666 
L 224.475129 188.350013 
L 225.432247 193.548101 
L 226.389365 189.649535 
L 227.346484 191.093448 
L 228.303602 191.671014 
L 229.26072 190.949057 
L 230.217839 193.836884 
L 231.174957 189.938318 
L 232.132075 190.49538 
L 237.874786 190.49538 
L 238.831904 190.911258 
L 239.789022 187.283937 
L 240.746141 187.848962 
L 244.574614 187.848962 
L 245.531732 184.856744 
L 246.488851 184.172985 
L 247.445969 187.044774 
L 248.403087 187.610516 
L 257.017153 187.610516 
L 257.974271 188.749564 
L 258.931389 184.509028 
L 259.888508 185.532606 
L 260.845626 186.102885 
L 264.674099 186.102885 
L 265.631218 186.254336 
L 266.588336 185.55914 
L 267.545455 186.129339 
L 268.502573 186.129339 
L 269.459691 187.99779 
L 270.41681 188.560673 
L 279.030875 188.560673 
L 279.987993 184.459275 
L 280.945111 185.032774 
L 281.90223 185.032774 
L 282.859348 166.535777 
L 283.816467 169.202738 
L 284.773585 169.822007 
L 285.730703 173.433885 
L 286.687822 182.156901 
L 287.64494 182.737307 
L 288.602058 186.028196 
L 289.559177 191.32349 
L 290.516295 192.873333 
L 291.473413 193.421589 
L 292.430532 186.388438 
L 293.38765 189.471732 
L 294.344768 190.499496 
L 295.301887 195.638318 
L 296.259005 202.190317 
L 297.216123 205.530551 
L 298.173242 204.245846 
L 299.13036 201.676435 
L 300.087479 203.860434 
L 301.044597 204.245846 
L 302.001715 201.034082 
L 302.958834 195.252907 
L 303.915952 198.850082 
L 304.87307 197.051495 
L 305.830189 199.620906 
L 306.787307 196.409142 
L 307.744425 194.096672 
L 308.701544 190.884908 
L 309.658662 193.454319 
L 310.61578 189.728673 
L 311.572899 180.478792 
L 312.530017 181.064233 
L 317.315609 181.064233 
L 318.272727 184.703729 
L 319.229846 183.507977 
L 320.186964 174.606262 
L 321.144082 175.270569 
L 322.101201 174.473401 
L 323.058319 172.081895 
L 324.015437 177.662075 
L 324.972556 176.864906 
L 325.929674 177.461188 
L 326.886792 171.575812 
L 327.843911 172.187961 
L 331.672384 172.187961 
L 332.629503 171.609059 
L 333.586621 169.891303 
L 334.543739 170.508506 
L 351.77187 170.508506 
L 352.728988 164.485704 
L 353.686106 169.493433 
L 354.643225 168.79468 
L 355.600343 169.415173 
L 357.51458 169.415173 
L 358.471698 171.423721 
L 360.385935 163.431703 
L 361.343053 170.612936 
L 362.300172 171.307894 
L 363.25729 168.991367 
L 364.214408 169.61127 
L 366.128645 169.61127 
L 367.085763 175.811997 
L 368.042882 173.602185 
L 369 174.208255 
L 384.313894 174.208255 
L 386.22813 176.851763 
L 387.185249 177.448084 
L 401.542024 177.448084 
L 402.499142 162.927575 
L 403.456261 163.565669 
L 407.284734 163.565669 
L 408.241852 169.615113 
L 409.198971 170.233145 
L 410.156089 170.233145 
L 411.113208 174.096875 
L 412.070326 172.924147 
L 413.027444 173.532252 
L 413.984563 173.532252 
L 414.941681 169.931358 
L 415.898799 170.54844 
L 416.855918 164.674269 
L 417.813036 167.14207 
L 418.770154 164.582869 
L 419.727273 151.238462 
L 420.684391 162.846268 
L 421.641509 147.58246 
L 422.598628 148.26659 
L 430.255575 148.26659 
L 431.212693 146.571298 
L 432.169811 147.258461 
L 438.86964 147.258461 
L 439.826758 155.849188 
L 440.783877 160.592563 
L 441.740995 151.422037 
L 442.698113 152.094648 
L 498.210978 152.094648 
L 499.168096 151.675015 
L 500.125214 155.763362 
L 501.082333 156.422948 
L 525.010292 156.422948 
L 525.96741 163.365915 
L 526.924528 164.911495 
L 527.881647 165.543637 
L 549.895369 165.522738 
L 550.852487 166.153047 
L 556.595197 166.153047 
L 557.552316 170.867544 
L 558.509434 171.481819 
L 566.166381 171.481819 
L 568.080617 183.828236 
L 569.037736 184.403628 
L 574.780446 184.403628 
L 575.737564 177.204081 
L 577.651801 178.309207 
L 578.608919 182.618624 
L 579.566038 178.097379 
L 580.523156 181.814847 
L 581.480274 179.001628 
L 582.437393 182.317208 
L 583.394511 174.681326 
L 584.35163 175.284159 
L 600.622642 175.284159 
L 601.57976 177.09108 
L 602.536878 177.686684 
L 603.493997 177.686684 
L 604.451115 178.606691 
L 605.408233 181.216212 
L 606.365352 181.324942 
L 607.32247 183.390814 
L 608.279588 184.478114 
L 610.193825 186.000335 
L 611.150943 186.569211 
L 622.636364 186.569211 
L 622.636364 186.569211 
" clip-path="url(#p43b1a29f8b)" style="fill: none; stroke: #2ca02c; stroke-width: 1.5; stroke-linecap: square"/>
   </g>
   <g id="line2d_32">
    <path d="M 115.363636 189.668502 
L 117.277873 189.668502 
L 118.234991 185.95916 
L 119.19211 191.237029 
L 120.149228 191.790195 
L 121.106346 187.662113 
L 122.063465 187.550694 
L 123.020583 190.001907 
L 123.977702 187.216438 
L 124.93482 192.564539 
L 125.891938 194.458658 
L 126.849057 187.773532 
L 127.806175 187.105019 
L 128.763293 184.542387 
L 129.720412 186.659344 
L 130.67753 187.439275 
L 131.634648 190.113326 
L 132.591767 194.23582 
L 133.548885 193.678726 
L 134.506003 193.678726 
L 135.463122 193.790145 
L 136.42024 193.567308 
L 137.377358 192.341701 
L 138.334477 192.787376 
L 139.291595 199.026827 
L 140.248714 198.915408 
L 141.205832 201.923715 
L 142.16295 199.583921 
L 143.120069 201.589459 
L 144.077187 203.26074 
L 145.034305 203.037903 
L 145.991424 205.266278 
L 146.948542 204.486347 
L 147.90566 203.483578 
L 148.862779 205.04344 
L 149.819897 203.706415 
L 150.777015 201.812296 
L 151.734134 203.929253 
L 152.691252 204.820603 
L 153.64837 201.143784 
L 154.605489 201.812296 
L 155.562607 196.01852 
L 156.519726 195.907102 
L 157.476844 191.784607 
L 158.433962 192.230282 
L 159.391081 191.227513 
L 160.348199 190.781838 
L 161.305317 194.681495 
L 162.262436 192.898795 
L 163.219554 194.012983 
L 165.133791 190.336163 
L 167.048027 191.558539 
L 169.919383 191.558539 
L 170.876501 191.250682 
L 171.833619 196.518536 
L 172.790738 195.120942 
L 173.747856 196.196014 
L 174.704974 192.970798 
L 175.662093 195.443464 
L 176.619211 195.98401 
L 179.490566 195.98401 
L 180.447684 201.422399 
L 181.404803 200.442506 
L 182.361921 200.968055 
L 187.147513 200.968055 
L 188.104631 202.921304 
L 189.06175 199.467219 
L 190.018868 199.705432 
L 190.975986 200.233192 
L 203.418525 200.233192 
L 204.375643 201.115754 
L 205.332762 192.800106 
L 206.28988 193.348583 
L 209.161235 193.348583 
L 210.118353 194.019124 
L 211.075472 195.998486 
L 212.03259 205.524164 
L 212.989708 206.034468 
L 216.818182 206.034468 
L 217.7753 200.141771 
L 218.732419 196.523548 
L 219.689537 193.879462 
L 220.646655 192.627001 
L 221.603774 195.549411 
L 222.560892 196.08964 
L 223.51801 195.369673 
L 224.475129 195.91044 
L 226.389365 195.91044 
L 227.346484 197.840704 
L 228.303602 198.397151 
L 229.26072 197.701592 
L 230.217839 200.483828 
L 231.174957 196.727809 
L 232.132075 196.588698 
L 233.089194 199.231822 
L 234.046312 196.310474 
L 235.003431 194.919356 
L 235.960549 188.520214 
L 236.917667 191.580673 
L 237.874786 191.580673 
L 238.831904 191.441561 
L 239.789022 187.824655 
L 240.746141 187.546431 
L 241.703259 180.590842 
L 242.660377 181.842848 
L 243.617496 184.068636 
L 244.574614 185.181531 
L 245.531732 185.752863 
L 246.488851 185.752863 
L 247.445969 189.162027 
L 248.403087 191.325491 
L 249.360206 195.787636 
L 250.317324 196.734151 
L 251.274443 197.139801 
L 253.188679 192.948089 
L 254.145798 194.435471 
L 255.102916 200.925862 
L 256.060034 200.384996 
L 257.017153 199.303264 
L 257.974271 199.84413 
L 258.931389 195.855349 
L 259.888508 196.818158 
L 260.845626 192.416745 
L 261.802744 189.253229 
L 262.759863 189.390773 
L 263.716981 188.978141 
L 264.674099 188.703053 
L 265.631218 188.29042 
L 266.588336 187.602699 
L 267.545455 190.078494 
L 268.502573 195.717805 
L 269.459691 196.955702 
L 270.41681 199.293953 
L 271.373928 198.331144 
L 272.331046 198.881321 
L 273.288165 200.119218 
L 274.245283 199.569042 
L 275.202401 201.769748 
L 276.15952 202.319925 
L 277.116638 199.569042 
L 278.073756 199.569042 
L 279.030875 200.097211 
L 279.987993 196.248752 
L 280.945111 196.786882 
L 286.687822 196.786882 
L 287.64494 196.963434 
L 288.602058 197.499421 
L 300.087479 197.499421 
L 301.044597 198.432285 
L 302.001715 195.111571 
L 302.958834 189.134286 
L 303.915952 189.69376 
L 305.830189 189.69376 
L 306.787307 186.868818 
L 307.744425 184.433247 
L 308.701544 181.050509 
L 309.658662 183.756699 
L 310.61578 179.832724 
L 311.572899 170.09044 
L 312.530017 170.631678 
L 313.487136 171.308225 
L 314.444254 178.20901 
L 315.401372 180.103343 
L 316.358491 179.968033 
L 317.315609 178.0737 
L 318.272727 181.185819 
L 319.229846 179.968033 
L 320.186964 170.902297 
L 322.101201 172.190985 
L 323.058319 170.389903 
L 324.015437 176.016469 
L 324.972556 175.212673 
L 325.929674 175.480605 
L 326.886792 168.916279 
L 327.843911 171.863527 
L 328.801029 170.121972 
L 329.758148 174.542844 
L 330.715266 175.146092 
L 331.672384 175.094335 
L 332.629503 173.918581 
L 333.586621 172.220271 
L 334.543739 165.688309 
L 335.500858 168.431733 
L 336.457976 172.220271 
L 337.415094 171.436436 
L 338.372213 178.099037 
L 339.329331 177.184562 
L 340.286449 175.616892 
L 341.243568 182.279493 
L 342.200686 177.445841 
L 343.157804 177.315202 
L 344.114923 167.909176 
L 345.072041 165.818948 
L 346.02916 166.210866 
L 347.943396 152.232467 
L 348.900515 147.268176 
L 349.857633 146.48434 
L 350.814751 141.650689 
L 351.77187 146.223062 
L 352.728988 138.776625 
L 353.686106 144.394113 
L 354.643225 143.610277 
L 355.600343 145.308587 
L 356.557461 143.479638 
L 357.51458 144.176076 
L 363.25729 144.176076 
L 364.214408 141.378054 
L 365.171527 145.258465 
L 366.128645 147.198671 
L 367.085763 153.40733 
L 368.042882 150.949736 
L 369 144.999771 
L 369.957118 136.850907 
L 371.871355 138.155494 
L 372.828473 128.58618 
L 373.785592 131.859892 
L 374.74271 135.637253 
L 375.699828 130.097124 
L 376.656947 127.578884 
L 377.614065 127.075236 
L 378.571184 123.171963 
L 379.528302 128.460268 
L 380.48542 129.593476 
L 381.442539 132.615365 
L 382.399657 137.525934 
L 383.356775 140.044174 
L 384.313894 140.044174 
L 385.271012 140.799646 
L 386.22813 142.436503 
L 387.185249 137.90367 
L 388.142367 139.666438 
L 389.099485 136.266813 
L 390.056604 137.022285 
L 391.013722 144.451095 
L 391.97084 145.458391 
L 392.927959 150.243048 
L 393.885077 148.983928 
L 394.842196 145.710215 
L 395.799314 148.48028 
L 396.756432 138.281406 
L 397.713551 134.252221 
L 398.670669 133.874485 
L 399.627787 132.111717 
L 400.584906 141.429206 
L 401.542024 146.843423 
L 402.499142 129.341652 
L 403.456261 125.060643 
L 404.413379 125.690203 
L 405.370497 119.016866 
L 406.327616 111.210321 
L 407.284734 114.987681 
L 408.241852 121.661019 
L 409.198971 122.422912 
L 413.984563 122.422912 
L 414.941681 117.911354 
L 415.898799 118.684496 
L 422.598628 118.684496 
L 423.555746 116.018889 
L 424.512864 117.372634 
L 425.469983 119.663588 
L 426.427101 127.577791 
L 427.38422 122.579347 
L 428.341338 123.338486 
L 431.212693 123.338486 
L 432.169811 124.889892 
L 433.12693 132.948848 
L 434.084048 132.154303 
L 435.041166 129.884174 
L 435.998285 114.447301 
L 436.955403 115.230836 
L 440.783877 115.230836 
L 441.740995 104.940266 
L 442.698113 102.267773 
L 443.655232 100.740635 
L 444.61235 99.977065 
L 445.569468 100.804011 
L 446.526587 94.778548 
L 447.483705 111.063281 
L 448.440823 97.104939 
L 449.397942 101.240744 
L 450.35506 110.287818 
L 451.312178 107.444452 
L 454.183533 92.19367 
L 455.140652 91.159719 
L 456.09777 94.132329 
L 457.054889 97.751158 
L 458.012007 95.424768 
L 458.969125 95.941743 
L 459.926244 96.975695 
L 460.883362 100.336036 
L 461.84048 108.090671 
L 462.797599 107.05672 
L 463.754717 108.478403 
L 464.711835 112.484964 
L 465.668954 113.777403 
L 466.626072 102.274695 
L 467.58319 95.295524 
L 468.540309 78.235327 
L 469.497427 78.623059 
L 470.454545 74.616498 
L 471.411664 79.140035 
L 472.368782 79.140035 
L 473.325901 73.841034 
L 474.283019 70.73918 
L 475.240137 74.616498 
L 476.197256 71.902376 
L 477.154374 64.79396 
L 478.111492 65.726455 
L 479.068611 65.726455 
L 480.025729 66.393535 
L 480.982847 72.696354 
L 481.939966 67.005678 
L 483.854202 59.329883 
L 484.811321 63.300122 
L 485.768439 60.388614 
L 486.725557 64.755876 
L 487.682676 64.888218 
L 488.639794 50.065993 
L 489.596913 44.64 
L 490.554031 47.551508 
L 493.425386 59.065201 
L 494.382504 59.462225 
L 495.339623 61.05032 
L 496.296741 50.860041 
L 497.253859 54.036232 
L 498.210978 50.992382 
L 499.168096 49.404287 
L 500.125214 55.359645 
L 501.082333 66.343972 
L 502.039451 68.329091 
L 502.996569 67.799726 
L 503.953688 69.917187 
L 505.867925 82.357268 
L 506.825043 71.637624 
L 507.782161 69.387822 
L 508.73928 70.181869 
L 509.696398 66.476313 
L 510.653516 74.152108 
L 511.610635 79.975125 
L 512.567753 76.269569 
L 513.524871 68.593774 
L 514.48199 86.989213 
L 515.439108 83.680681 
L 516.396226 74.152108 
L 517.353345 77.195958 
L 518.310463 90.959452 
L 519.267581 94.135643 
L 520.2247 95.591397 
L 521.181818 96.4315 
L 522.138937 102.013795 
L 523.096055 90.679203 
L 524.053173 94.369535 
L 525.010292 95.213304 
L 532.667238 95.213304 
L 533.624357 100.257446 
L 534.581475 95.276225 
L 535.538593 97.144182 
L 536.495712 98.389488 
L 537.45283 99.221196 
L 544.152659 99.219111 
L 545.109777 103.0985 
L 546.066895 89.936288 
L 547.024014 90.793356 
L 550.852487 90.793356 
L 551.809605 102.022821 
L 552.766724 103.060318 
L 553.723842 112.990646 
L 554.680961 111.804935 
L 555.638079 112.596397 
L 558.509434 112.596397 
L 559.466552 102.156776 
L 560.423671 102.298912 
L 561.380789 105.568029 
L 562.337907 83.252748 
L 563.295026 84.129866 
L 573.823328 84.129866 
L 574.780446 73.496207 
L 575.737564 61.177628 
L 576.694683 62.120972 
L 579.566038 62.120972 
L 580.523156 68.943923 
L 581.480274 64.492349 
L 582.437393 69.738847 
L 583.394511 57.656003 
L 584.35163 57.020064 
L 585.308748 55.748185 
L 586.265866 56.861079 
L 587.222985 58.927881 
L 589.137221 65.605242 
L 590.09434 67.354075 
L 591.051458 86.591234 
L 592.965695 91.519762 
L 594.879931 98.674077 
L 595.83705 96.925245 
L 596.794168 98.992047 
L 597.751286 83.888492 
L 598.708405 85.160371 
L 599.665523 82.616614 
L 600.622642 85.955295 
L 601.57976 87.704127 
L 602.536878 92.632655 
L 603.493997 87.068188 
L 604.451115 87.93386 
L 607.32247 87.93386 
L 608.279588 90.419269 
L 610.193825 92.690537 
L 611.150943 89.445869 
L 612.108062 90.257036 
L 613.06518 89.283635 
L 614.022298 81.983133 
L 614.979417 76.142731 
L 615.936535 75.980497 
L 616.893654 72.249129 
L 617.850772 77.440598 
L 618.80789 79.225165 
L 619.765009 90.419269 
L 620.722127 90.905969 
L 621.679245 88.148002 
L 622.636364 90.581503 
L 622.636364 90.581503 
" clip-path="url(#p43b1a29f8b)" style="fill: none; stroke: #d62728; stroke-width: 1.5; stroke-linecap: square"/>
   </g>
   <g id="line2d_33">
    <path d="M 115.363636 194.435086 
L 116.320755 195.406328 
L 117.277873 197.456726 
L 118.234991 193.355929 
L 119.19211 198.427968 
L 120.149228 198.104221 
L 121.106346 193.571761 
L 122.063465 193.463845 
L 123.020583 195.837991 
L 123.977702 193.140098 
L 124.93482 198.320052 
L 125.891938 200.154619 
L 126.849057 193.679676 
L 127.806175 193.032182 
L 128.763293 190.550121 
L 129.720412 192.600519 
L 130.67753 193.355929 
L 131.634648 195.945906 
L 132.591767 199.938788 
L 133.548885 199.399209 
L 136.42024 199.291293 
L 137.377358 198.104221 
L 138.334477 198.535884 
L 139.291595 204.579163 
L 140.248714 204.471248 
L 141.205832 207.384972 
L 142.16295 205.118742 
L 143.120069 207.061225 
L 144.077187 208.679961 
L 145.034305 208.464129 
L 145.991424 210.622444 
L 146.948542 209.867034 
L 147.90566 208.895792 
L 148.862779 210.406612 
L 149.819897 209.111623 
L 150.777015 207.277056 
L 151.734134 209.327455 
L 152.691252 210.190781 
L 153.64837 206.629562 
L 154.605489 207.277056 
L 155.562607 201.665439 
L 156.519726 201.557523 
L 157.476844 197.564642 
L 158.433962 197.996305 
L 159.391081 197.025063 
L 160.348199 196.593401 
L 161.305317 200.370451 
L 162.262436 198.643799 
L 163.219554 199.722956 
L 165.133791 196.161738 
L 166.090909 196.809232 
L 167.048027 198.104221 
L 168.005146 193.571761 
L 168.962264 190.226373 
L 169.919383 191.413446 
L 170.876501 190.550121 
L 171.833619 195.837991 
L 172.790738 194.435086 
L 173.747856 195.514243 
L 174.704974 192.276772 
L 176.619211 197.348811 
L 177.576329 199.399209 
L 179.490566 198.104221 
L 180.447684 202.960428 
L 181.404803 201.989186 
L 182.361921 207.924551 
L 183.319039 224.651487 
L 184.276158 218.068628 
L 185.233276 217.744881 
L 186.190395 216.234061 
L 187.147513 217.852796 
L 188.104631 219.147785 
L 189.06175 216.018229 
L 190.018868 216.234061 
L 190.975986 217.529049 
L 192.890223 209.759118 
L 193.847341 211.593685 
L 194.80446 211.162022 
L 195.761578 207.384972 
L 196.718696 207.492888 
L 197.675815 211.269938 
L 198.632933 213.320336 
L 199.590051 213.859915 
L 200.54717 212.564926 
L 201.504288 219.147785 
L 202.461407 216.018229 
L 203.418525 216.773639 
L 204.375643 217.097386 
L 205.332762 209.543286 
L 206.28988 213.428252 
L 207.246998 219.687364 
L 208.204117 216.341976 
L 209.161235 217.097386 
L 210.118353 217.205302 
L 211.075472 218.931954 
L 212.03259 227.241464 
L 212.989708 230.910598 
L 213.946827 238.464698 
L 214.903945 243.644652 
L 215.861063 240.515097 
L 216.818182 244.507978 
L 217.7753 239.543855 
L 218.732419 236.738047 
L 219.689537 234.687648 
L 220.646655 233.716407 
L 221.603774 235.982637 
L 222.560892 237.493457 
L 224.475129 235.658889 
L 225.432247 239.543855 
L 226.389365 236.630131 
L 227.346484 237.709288 
L 228.303602 238.140951 
L 229.26072 237.601372 
L 230.217839 239.759687 
L 231.174957 236.845962 
L 232.132075 236.738047 
L 233.089194 238.788445 
L 234.046312 236.522215 
L 235.003431 235.443058 
L 235.960549 230.478935 
L 236.917667 232.853081 
L 238.831904 232.745165 
L 239.789022 229.939357 
L 240.746141 229.723525 
L 241.703259 224.327739 
L 242.660377 225.298981 
L 243.617496 227.025632 
L 244.574614 227.888958 
L 245.531732 225.083149 
L 246.488851 224.543571 
L 247.445969 226.809801 
L 248.403087 228.536452 
L 249.360206 232.097671 
L 250.317324 232.853081 
L 251.274443 233.176828 
L 253.188679 229.831441 
L 254.145798 231.018514 
L 255.102916 236.198468 
L 256.060034 235.766805 
L 257.017153 234.903479 
L 257.974271 235.335142 
L 258.931389 232.151713 
L 259.888508 232.920127 
L 260.845626 229.407377 
L 261.802744 226.882589 
L 262.759863 226.992362 
L 266.588336 225.565308 
L 267.545455 227.541229 
L 268.502573 232.041939 
L 269.459691 233.0299 
L 270.41681 234.896048 
L 271.373928 234.127634 
L 272.331046 234.566728 
L 273.288165 235.554689 
L 274.245283 235.115595 
L 275.202401 236.87197 
L 276.15952 237.311063 
L 277.116638 235.115595 
L 279.030875 235.115595 
L 280.945111 228.19987 
L 281.90223 219.198449 
L 282.859348 203.50085 
L 283.816467 205.696319 
L 284.773585 202.622663 
L 285.730703 205.147452 
L 286.687822 212.502271 
L 287.64494 212.17295 
L 288.602058 214.478192 
L 289.559177 218.978902 
L 290.516295 220.296183 
L 291.473413 220.405957 
L 292.430532 213.929325 
L 293.38765 216.563887 
L 294.344768 217.442075 
L 295.301887 221.833011 
L 296.259005 227.431456 
L 297.216123 230.285565 
L 298.173242 229.18783 
L 299.13036 226.992362 
L 300.087479 228.85851 
L 301.044597 229.18783 
L 302.001715 226.443495 
L 302.958834 221.503691 
L 303.915952 224.577347 
L 304.87307 223.040519 
L 305.830189 225.235987 
L 306.787307 222.491652 
L 307.744425 220.51573 
L 308.701544 217.771395 
L 309.658662 219.966863 
L 310.61578 216.783434 
L 311.572899 208.879748 
L 313.487136 209.867709 
L 314.444254 215.466153 
L 315.401372 217.002981 
L 316.358491 216.893207 
L 317.315609 215.35638 
L 318.272727 217.881168 
L 319.229846 216.893207 
L 320.186964 209.538388 
L 321.144082 210.087255 
L 322.101201 209.428615 
L 323.058319 207.452693 
L 324.015437 212.063177 
L 324.972556 211.404537 
L 325.929674 211.624083 
L 326.886792 206.245186 
L 327.843911 208.660201 
L 328.801029 207.233147 
L 329.758148 210.855669 
L 330.715266 207.67224 
L 331.672384 207.123373 
L 332.629503 206.135412 
L 333.586621 204.708358 
L 334.543739 199.219687 
L 335.500858 201.524929 
L 336.457976 204.708358 
L 337.415094 204.049717 
L 338.372213 209.648162 
L 339.329331 208.879748 
L 340.286449 207.562467 
L 341.243568 213.160911 
L 342.200686 209.099295 
L 343.157804 208.989521 
L 344.114923 201.085835 
L 345.072041 199.32946 
L 346.02916 199.658781 
L 347.943396 187.913025 
L 348.900515 183.741635 
L 349.857633 183.082994 
L 350.814751 179.021378 
L 351.77187 182.863447 
L 352.728988 176.606363 
L 353.686106 181.32662 
L 354.643225 180.667979 
L 355.600343 182.095034 
L 356.557461 180.558206 
L 357.51458 180.777752 
L 358.471698 182.095034 
L 360.385935 174.520668 
L 361.343053 181.32662 
L 362.300172 181.98526 
L 363.25729 179.789792 
L 364.214408 176.825909 
L 365.171527 180.119112 
L 366.128645 181.765713 
L 367.085763 187.034837 
L 368.042882 184.949142 
L 369 179.899565 
L 369.957118 172.98384 
L 370.914237 168.702676 
L 371.871355 168.592903 
L 372.828473 160.250123 
L 373.785592 163.104232 
L 374.74271 166.397435 
L 375.699828 161.567404 
L 376.656947 159.371936 
L 377.614065 158.932842 
L 378.571184 155.529866 
L 379.528302 160.14035 
L 380.48542 161.12831 
L 381.442539 163.762873 
L 382.399657 168.044036 
L 383.356775 170.239504 
L 384.313894 170.239504 
L 385.271012 170.898145 
L 386.22813 172.325199 
L 387.185249 168.373356 
L 388.142367 169.910184 
L 389.099485 166.946302 
L 390.056604 167.604942 
L 391.013722 174.081574 
L 391.97084 174.959761 
L 392.927959 179.131151 
L 393.885077 178.033417 
L 394.842196 175.179308 
L 395.799314 177.594323 
L 396.756432 168.702676 
L 397.713551 165.189927 
L 398.670669 164.860607 
L 399.627787 163.323779 
L 400.584906 171.447012 
L 401.542024 176.167269 
L 402.499142 160.908764 
L 403.456261 157.176467 
L 404.413379 157.725334 
L 405.370497 151.907343 
L 406.327616 145.101391 
L 407.284734 148.394594 
L 408.241852 154.212585 
L 409.198971 145.101391 
L 410.156089 126.43991 
L 411.113208 130.391753 
L 412.070326 128.964699 
L 413.027444 131.599261 
L 413.984563 133.794729 
L 414.941681 128.745152 
L 415.898799 130.062433 
L 416.855918 122.26852 
L 417.813036 125.232402 
L 418.770154 122.158747 
L 419.727273 106.131827 
L 420.684391 120.073052 
L 421.641509 101.740891 
L 422.598628 105.58296 
L 423.555746 101.960438 
L 424.512864 103.387492 
L 425.469983 105.802507 
L 426.427101 114.145287 
L 427.38422 108.876163 
L 428.341338 113.815967 
L 429.298456 129.952659 
L 430.255575 134.892463 
L 431.212693 132.367675 
L 432.169811 133.136089 
L 433.12693 140.930001 
L 434.084048 140.161587 
L 435.041166 137.966119 
L 435.998285 123.036934 
L 436.955403 124.024895 
L 437.912521 130.391753 
L 439.826758 146.747993 
L 440.783877 151.687796 
L 441.740995 142.137509 
L 442.698113 139.832267 
L 443.655232 138.514986 
L 444.61235 137.856346 
L 445.569468 142.905923 
L 446.526587 137.087932 
L 447.483705 150.919382 
L 448.440823 139.063853 
L 449.397942 142.576603 
L 450.35506 150.260742 
L 451.312178 147.845727 
L 454.183533 134.892463 
L 455.140652 134.014276 
L 456.09777 136.539065 
L 457.054889 139.61272 
L 458.012007 137.636799 
L 458.969125 138.075892 
L 459.926244 138.95408 
L 460.883362 141.808189 
L 461.84048 148.394594 
L 462.797599 147.516407 
L 463.754717 148.723914 
L 464.711835 152.12689 
L 465.668954 153.224624 
L 466.626072 143.45479 
L 467.58319 137.527025 
L 468.540309 123.036934 
L 469.497427 123.366254 
L 470.454545 119.963278 
L 471.411664 123.805348 
L 472.368782 123.805348 
L 473.325901 119.304638 
L 474.283019 116.670076 
L 475.240137 119.963278 
L 476.197256 117.658036 
L 477.154374 111.620498 
L 478.111492 113.706193 
L 479.068611 117.328716 
L 480.025729 117.109169 
L 480.982847 122.378293 
L 481.939966 117.620918 
L 483.854202 111.203993 
L 484.811321 114.523092 
L 485.768439 112.089086 
L 486.725557 115.740095 
L 487.682676 115.850732 
L 488.639794 103.459428 
L 489.596913 98.923325 
L 490.554031 101.357331 
L 493.425386 110.982719 
L 494.382504 111.314629 
L 495.339623 112.642269 
L 496.296741 104.123247 
L 497.253859 106.778527 
L 498.210978 104.233884 
L 499.168096 102.906244 
L 500.125214 107.884893 
L 501.082333 117.067735 
L 502.039451 118.727284 
L 502.996569 118.284738 
L 503.953688 120.054924 
L 505.867925 130.454769 
L 506.825043 121.493201 
L 507.782161 119.612378 
L 508.73928 120.276197 
L 509.696398 117.178371 
L 510.653516 123.595297 
L 511.610635 128.463309 
L 512.567753 125.365483 
L 513.524871 118.948558 
L 514.48199 134.327051 
L 515.439108 131.561135 
L 516.396226 123.595297 
L 517.353345 126.13994 
L 518.310463 137.646151 
L 519.267581 140.30143 
L 520.2247 141.518433 
L 521.181818 141.96098 
L 522.138937 145.943899 
L 523.096055 136.429147 
L 524.053173 139.526973 
L 525.010292 140.96525 
L 525.96741 147.714085 
L 526.924528 149.373635 
L 527.881647 150.148091 
L 528.838765 153.245917 
L 529.795883 167.628681 
L 530.753002 179.134892 
L 531.71012 179.245529 
L 532.667238 176.922159 
L 533.624357 179.909349 
L 534.581475 176.368976 
L 535.538593 177.696616 
L 536.495712 178.581709 
L 537.45283 180.019985 
L 538.409949 178.028526 
L 539.367067 164.752128 
L 540.324185 157.339473 
L 542.238422 155.569287 
L 543.19554 155.569287 
L 544.152659 154.905467 
L 545.109777 158.003293 
L 546.066895 147.492812 
L 547.024014 150.590638 
L 547.981132 160.769209 
L 548.93825 162.096849 
L 549.895369 161.433029 
L 550.852487 163.645762 
L 551.809605 171.390327 
L 552.766724 172.164783 
L 553.723842 179.577439 
L 555.638079 177.807252 
L 556.595197 172.054147 
L 557.552316 176.037066 
L 558.509434 171.500964 
L 559.466552 162.760669 
L 560.423671 162.871305 
L 561.380789 165.415948 
L 562.337907 148.045995 
L 563.295026 152.028914 
L 564.252144 161.322392 
L 565.209262 159.662843 
L 566.166381 164.530855 
L 568.080617 176.700886 
L 569.994854 183.670994 
L 570.951973 181.236988 
L 571.909091 176.811522 
L 572.866209 174.820063 
L 573.823328 177.254069 
L 575.737564 160.990482 
L 576.694683 161.543666 
L 577.651801 158.999023 
L 578.608919 163.092579 
L 579.566038 158.11393 
L 580.523156 162.207485 
L 581.480274 159.109659 
L 582.437393 162.760669 
L 583.394511 154.352284 
L 584.35163 153.909737 
L 585.308748 153.024644 
L 586.265866 153.799101 
L 587.222985 155.237377 
L 589.137221 159.884116 
L 590.09434 161.101119 
L 591.051458 174.488153 
L 592.965695 177.917889 
L 594.879931 182.896538 
L 595.83705 181.679535 
L 596.794168 183.117811 
L 597.751286 172.60733 
L 598.708405 173.492423 
L 599.665523 171.722237 
L 600.622642 174.045606 
L 601.57976 175.262609 
L 602.536878 178.692345 
L 603.493997 174.820063 
L 604.451115 175.151973 
L 605.408233 177.807252 
L 606.365352 177.917889 
L 607.32247 180.019985 
L 608.279588 181.126352 
L 610.193825 182.675265 
L 611.150943 180.462532 
L 612.108062 181.015715 
L 613.06518 180.351895 
L 614.022298 175.373246 
L 614.979417 171.390327 
L 615.936535 171.27969 
L 616.893654 168.735047 
L 617.850772 172.27542 
L 618.80789 173.492423 
L 619.765009 181.126352 
L 620.722127 181.458262 
L 621.679245 179.577439 
L 622.636364 181.236988 
L 622.636364 181.236988 
" clip-path="url(#p43b1a29f8b)" style="fill: none; stroke: #9467bd; stroke-width: 1.5; stroke-linecap: square"/>
   </g>
   <g id="patch_3">
    <path d="M 90 256.32 
L 90 34.56 
" style="fill: none; stroke: #000000; stroke-width: 0.8; stroke-linejoin: miter; stroke-linecap: square"/>
   </g>
   <g id="patch_4">
    <path d="M 648 256.32 
L 648 34.56 
" style="fill: none; stroke: #000000; stroke-width: 0.8; stroke-linejoin: miter; stroke-linecap: square"/>
   </g>
   <g id="patch_5">
    <path d="M 90 256.32 
L 648 256.32 
" style="fill: none; stroke: #000000; stroke-width: 0.8; stroke-linejoin: miter; stroke-linecap: square"/>
   </g>
   <g id="patch_6">
    <path d="M 90 34.56 
L 648 34.56 
" style="fill: none; stroke: #000000; stroke-width: 0.8; stroke-linejoin: miter; stroke-linecap: square"/>
   </g>
   <g id="legend_1">
    <g id="patch_7">
     <path d="M 97 113.255313 
L 167.325 113.255313 
Q 169.325 113.255313 169.325 111.255313 
L 169.325 41.56 
Q 169.325 39.56 167.325 39.56 
L 97 39.56 
Q 95 39.56 95 41.56 
L 95 111.255313 
Q 95 113.255313 97 113.255313 
z
" style="fill: #ffffff; opacity: 0.8; stroke: #cccccc; stroke-linejoin: miter"/>
    </g>
    <g id="line2d_34">
     <path d="M 99 47.06 
L 109 47.06 
L 119 47.06 
" style="fill: none; stroke: #1f77b4; stroke-width: 1.5; stroke-linecap: square"/>
    </g>
    <g id="text_17">
     <!-- BC -->
     <g transform="translate(127 50.56)scale(0.1 -0.1)">
      <defs>
       <path id="TimesNewRomanPSMT-42" d="M 2956 2163 
Q 3397 2069 3616 1863 
Q 3919 1575 3919 1159 
Q 3919 844 3719 555 
Q 3519 266 3170 133 
Q 2822 0 2106 0 
L 106 0 
L 106 116 
L 266 116 
Q 531 116 647 284 
Q 719 394 719 750 
L 719 3488 
Q 719 3881 628 3984 
Q 506 4122 266 4122 
L 106 4122 
L 106 4238 
L 1938 4238 
Q 2450 4238 2759 4163 
Q 3228 4050 3475 3764 
Q 3722 3478 3722 3106 
Q 3722 2788 3528 2536 
Q 3334 2284 2956 2163 
z
M 1319 2331 
Q 1434 2309 1582 2298 
Q 1731 2288 1909 2288 
Q 2366 2288 2595 2386 
Q 2825 2484 2947 2687 
Q 3069 2891 3069 3131 
Q 3069 3503 2766 3765 
Q 2463 4028 1881 4028 
Q 1569 4028 1319 3959 
L 1319 2331 
z
M 1319 306 
Q 1681 222 2034 222 
Q 2600 222 2897 476 
Q 3194 731 3194 1106 
Q 3194 1353 3059 1581 
Q 2925 1809 2622 1940 
Q 2319 2072 1872 2072 
Q 1678 2072 1540 2065 
Q 1403 2059 1319 2044 
L 1319 306 
z
" transform="scale(0.015625)"/>
       <path id="TimesNewRomanPSMT-43" d="M 3853 4334 
L 3950 2894 
L 3853 2894 
Q 3659 3541 3300 3825 
Q 2941 4109 2438 4109 
Q 2016 4109 1675 3895 
Q 1334 3681 1139 3212 
Q 944 2744 944 2047 
Q 944 1472 1128 1050 
Q 1313 628 1683 403 
Q 2053 178 2528 178 
Q 2941 178 3256 354 
Q 3572 531 3950 1056 
L 4047 994 
Q 3728 428 3303 165 
Q 2878 -97 2294 -97 
Q 1241 -97 663 684 
Q 231 1266 231 2053 
Q 231 2688 515 3219 
Q 800 3750 1298 4042 
Q 1797 4334 2388 4334 
Q 2847 4334 3294 4109 
Q 3425 4041 3481 4041 
Q 3566 4041 3628 4100 
Q 3709 4184 3744 4334 
L 3853 4334 
z
" transform="scale(0.015625)"/>
      </defs>
      <use xlink:href="#TimesNewRomanPSMT-42"/>
      <use xlink:href="#TimesNewRomanPSMT-43" x="66.699219"/>
     </g>
    </g>
    <g id="line2d_35">
     <path d="M 99 61.199062 
L 109 61.199062 
L 119 61.199062 
" style="fill: none; stroke: #ff7f0e; stroke-width: 1.5; stroke-linecap: square"/>
    </g>
    <g id="text_18">
     <!-- DQN -->
     <g transform="translate(127 64.699062)scale(0.1 -0.1)">
      <defs>
       <path id="TimesNewRomanPSMT-44" d="M 109 0 
L 109 116 
L 269 116 
Q 538 116 650 288 
Q 719 391 719 750 
L 719 3488 
Q 719 3884 631 3984 
Q 509 4122 269 4122 
L 109 4122 
L 109 4238 
L 1834 4238 
Q 2784 4238 3279 4022 
Q 3775 3806 4076 3303 
Q 4378 2800 4378 2141 
Q 4378 1256 3841 663 
Q 3238 0 2003 0 
L 109 0 
z
M 1319 306 
Q 1716 219 1984 219 
Q 2709 219 3187 728 
Q 3666 1238 3666 2109 
Q 3666 2988 3187 3494 
Q 2709 4000 1959 4000 
Q 1678 4000 1319 3909 
L 1319 306 
z
" transform="scale(0.015625)"/>
       <path id="TimesNewRomanPSMT-51" d="M 2819 -47 
Q 3138 -597 3508 -856 
Q 3878 -1116 4350 -1153 
L 4350 -1253 
Q 3919 -1238 3428 -1080 
Q 2938 -922 2498 -642 
Q 2059 -363 1741 -47 
Q 1291 134 1028 338 
Q 647 641 436 1083 
Q 225 1525 225 2128 
Q 225 3078 840 3706 
Q 1456 4334 2331 4334 
Q 3163 4334 3770 3704 
Q 4378 3075 4378 2116 
Q 4378 1338 3945 750 
Q 3513 163 2819 -47 
z
M 2294 4094 
Q 1725 4094 1378 3688 
Q 941 3178 941 2128 
Q 941 1100 1384 544 
Q 1728 116 2294 116 
Q 2881 116 3241 544 
Q 3663 1050 3663 2038 
Q 3663 2797 3431 3316 
Q 3253 3716 2958 3905 
Q 2663 4094 2294 4094 
z
" transform="scale(0.015625)"/>
       <path id="TimesNewRomanPSMT-4e" d="M -84 4238 
L 1066 4238 
L 3656 1059 
L 3656 3503 
Q 3656 3894 3569 3991 
Q 3453 4122 3203 4122 
L 3056 4122 
L 3056 4238 
L 4531 4238 
L 4531 4122 
L 4381 4122 
Q 4113 4122 4000 3959 
Q 3931 3859 3931 3503 
L 3931 -69 
L 3819 -69 
L 1025 3344 
L 1025 734 
Q 1025 344 1109 247 
Q 1228 116 1475 116 
L 1625 116 
L 1625 0 
L 150 0 
L 150 116 
L 297 116 
Q 569 116 681 278 
Q 750 378 750 734 
L 750 3681 
Q 566 3897 470 3965 
Q 375 4034 191 4094 
Q 100 4122 -84 4122 
L -84 4238 
z
" transform="scale(0.015625)"/>
      </defs>
      <use xlink:href="#TimesNewRomanPSMT-44"/>
      <use xlink:href="#TimesNewRomanPSMT-51" x="72.216797"/>
      <use xlink:href="#TimesNewRomanPSMT-4e" x="144.433594"/>
     </g>
    </g>
    <g id="line2d_36">
     <path d="M 99 75.338125 
L 109 75.338125 
L 119 75.338125 
" style="fill: none; stroke: #2ca02c; stroke-width: 1.5; stroke-linecap: square"/>
    </g>
    <g id="text_19">
     <!-- DDQN -->
     <g transform="translate(127 78.838125)scale(0.1 -0.1)">
      <use xlink:href="#TimesNewRomanPSMT-44"/>
      <use xlink:href="#TimesNewRomanPSMT-44" x="72.216797"/>
      <use xlink:href="#TimesNewRomanPSMT-51" x="144.433594"/>
      <use xlink:href="#TimesNewRomanPSMT-4e" x="216.650391"/>
     </g>
    </g>
    <g id="line2d_37">
     <path d="M 99 89.477188 
L 109 89.477188 
L 119 89.477188 
" style="fill: none; stroke: #d62728; stroke-width: 1.5; stroke-linecap: square"/>
    </g>
    <g id="text_20">
     <!-- ILDDQN -->
     <g transform="translate(127 92.977188)scale(0.1 -0.1)">
      <defs>
       <path id="TimesNewRomanPSMT-49" d="M 1975 116 
L 1975 0 
L 159 0 
L 159 116 
L 309 116 
Q 572 116 691 269 
Q 766 369 766 750 
L 766 3488 
Q 766 3809 725 3913 
Q 694 3991 597 4047 
Q 459 4122 309 4122 
L 159 4122 
L 159 4238 
L 1975 4238 
L 1975 4122 
L 1822 4122 
Q 1563 4122 1444 3969 
Q 1366 3869 1366 3488 
L 1366 750 
Q 1366 428 1406 325 
Q 1438 247 1538 191 
Q 1672 116 1822 116 
L 1975 116 
z
" transform="scale(0.015625)"/>
       <path id="TimesNewRomanPSMT-4c" d="M 3669 1172 
L 3772 1150 
L 3409 0 
L 128 0 
L 128 116 
L 288 116 
Q 556 116 672 291 
Q 738 391 738 753 
L 738 3488 
Q 738 3884 650 3984 
Q 528 4122 288 4122 
L 128 4122 
L 128 4238 
L 2047 4238 
L 2047 4122 
Q 1709 4125 1573 4059 
Q 1438 3994 1388 3894 
Q 1338 3794 1338 3416 
L 1338 753 
Q 1338 494 1388 397 
Q 1425 331 1503 300 
Q 1581 269 1991 269 
L 2300 269 
Q 2788 269 2984 341 
Q 3181 413 3343 595 
Q 3506 778 3669 1172 
z
" transform="scale(0.015625)"/>
      </defs>
      <use xlink:href="#TimesNewRomanPSMT-49"/>
      <use xlink:href="#TimesNewRomanPSMT-4c" x="33.300781"/>
      <use xlink:href="#TimesNewRomanPSMT-44" x="94.384766"/>
      <use xlink:href="#TimesNewRomanPSMT-44" x="166.601562"/>
      <use xlink:href="#TimesNewRomanPSMT-51" x="238.818359"/>
      <use xlink:href="#TimesNewRomanPSMT-4e" x="311.035156"/>
     </g>
    </g>
    <g id="line2d_38">
     <path d="M 99 103.61625 
L 109 103.61625 
L 119 103.61625 
" style="fill: none; stroke: #9467bd; stroke-width: 1.5; stroke-linecap: square"/>
    </g>
    <g id="text_21">
     <!-- Market -->
     <g transform="translate(127 107.11625)scale(0.1 -0.1)">
      <defs>
       <path id="TimesNewRomanPSMT-4d" d="M 2619 0 
L 981 3566 
L 981 734 
Q 981 344 1066 247 
Q 1181 116 1431 116 
L 1581 116 
L 1581 0 
L 106 0 
L 106 116 
L 256 116 
Q 525 116 638 278 
Q 706 378 706 734 
L 706 3503 
Q 706 3784 644 3909 
Q 600 4000 483 4061 
Q 366 4122 106 4122 
L 106 4238 
L 1306 4238 
L 2844 922 
L 4356 4238 
L 5556 4238 
L 5556 4122 
L 5409 4122 
Q 5138 4122 5025 3959 
Q 4956 3859 4956 3503 
L 4956 734 
Q 4956 344 5044 247 
Q 5159 116 5409 116 
L 5556 116 
L 5556 0 
L 3756 0 
L 3756 116 
L 3906 116 
Q 4178 116 4288 278 
Q 4356 378 4356 734 
L 4356 3566 
L 2722 0 
L 2619 0 
z
" transform="scale(0.015625)"/>
       <path id="TimesNewRomanPSMT-61" d="M 1822 413 
Q 1381 72 1269 19 
Q 1100 -59 909 -59 
Q 613 -59 420 144 
Q 228 347 228 678 
Q 228 888 322 1041 
Q 450 1253 767 1440 
Q 1084 1628 1822 1897 
L 1822 2009 
Q 1822 2438 1686 2597 
Q 1550 2756 1291 2756 
Q 1094 2756 978 2650 
Q 859 2544 859 2406 
L 866 2225 
Q 866 2081 792 2003 
Q 719 1925 600 1925 
Q 484 1925 411 2006 
Q 338 2088 338 2228 
Q 338 2497 613 2722 
Q 888 2947 1384 2947 
Q 1766 2947 2009 2819 
Q 2194 2722 2281 2516 
Q 2338 2381 2338 1966 
L 2338 994 
Q 2338 584 2353 492 
Q 2369 400 2405 369 
Q 2441 338 2488 338 
Q 2538 338 2575 359 
Q 2641 400 2828 588 
L 2828 413 
Q 2478 -56 2159 -56 
Q 2006 -56 1915 50 
Q 1825 156 1822 413 
z
M 1822 616 
L 1822 1706 
Q 1350 1519 1213 1441 
Q 966 1303 859 1153 
Q 753 1003 753 825 
Q 753 600 887 451 
Q 1022 303 1197 303 
Q 1434 303 1822 616 
z
" transform="scale(0.015625)"/>
       <path id="TimesNewRomanPSMT-72" d="M 1038 2947 
L 1038 2303 
Q 1397 2947 1775 2947 
Q 1947 2947 2059 2842 
Q 2172 2738 2172 2600 
Q 2172 2478 2090 2393 
Q 2009 2309 1897 2309 
Q 1788 2309 1652 2417 
Q 1516 2525 1450 2525 
Q 1394 2525 1328 2463 
Q 1188 2334 1038 2041 
L 1038 669 
Q 1038 431 1097 309 
Q 1138 225 1241 169 
Q 1344 113 1538 113 
L 1538 0 
L 72 0 
L 72 113 
Q 291 113 397 181 
Q 475 231 506 341 
Q 522 394 522 644 
L 522 1753 
Q 522 2253 501 2348 
Q 481 2444 426 2487 
Q 372 2531 291 2531 
Q 194 2531 72 2484 
L 41 2597 
L 906 2947 
L 1038 2947 
z
" transform="scale(0.015625)"/>
       <path id="TimesNewRomanPSMT-6b" d="M 1047 4444 
L 1047 1597 
L 1775 2259 
Q 2006 2472 2044 2528 
Q 2069 2566 2069 2603 
Q 2069 2666 2017 2711 
Q 1966 2756 1847 2763 
L 1847 2863 
L 3091 2863 
L 3091 2763 
Q 2834 2756 2664 2684 
Q 2494 2613 2291 2428 
L 1556 1750 
L 2291 822 
Q 2597 438 2703 334 
Q 2853 188 2966 144 
Q 3044 113 3238 113 
L 3238 0 
L 1847 0 
L 1847 113 
Q 1966 116 2008 148 
Q 2050 181 2050 241 
Q 2050 313 1925 472 
L 1047 1594 
L 1047 644 
Q 1047 366 1086 278 
Q 1125 191 1197 153 
Q 1269 116 1509 113 
L 1509 0 
L 53 0 
L 53 113 
Q 272 113 381 166 
Q 447 200 481 272 
Q 528 375 528 628 
L 528 3234 
Q 528 3731 506 3842 
Q 484 3953 434 3995 
Q 384 4038 303 4038 
Q 238 4038 106 3984 
L 53 4094 
L 903 4444 
L 1047 4444 
z
" transform="scale(0.015625)"/>
       <path id="TimesNewRomanPSMT-65" d="M 681 1784 
Q 678 1147 991 784 
Q 1303 422 1725 422 
Q 2006 422 2214 576 
Q 2422 731 2563 1106 
L 2659 1044 
Q 2594 616 2278 264 
Q 1963 -88 1488 -88 
Q 972 -88 605 314 
Q 238 716 238 1394 
Q 238 2128 614 2539 
Q 991 2950 1559 2950 
Q 2041 2950 2350 2633 
Q 2659 2316 2659 1784 
L 681 1784 
z
M 681 1966 
L 2006 1966 
Q 1991 2241 1941 2353 
Q 1863 2528 1708 2628 
Q 1553 2728 1384 2728 
Q 1125 2728 920 2526 
Q 716 2325 681 1966 
z
" transform="scale(0.015625)"/>
       <path id="TimesNewRomanPSMT-74" d="M 1031 3803 
L 1031 2863 
L 1700 2863 
L 1700 2644 
L 1031 2644 
L 1031 788 
Q 1031 509 1111 412 
Q 1191 316 1316 316 
Q 1419 316 1516 380 
Q 1613 444 1666 569 
L 1788 569 
Q 1678 263 1478 108 
Q 1278 -47 1066 -47 
Q 922 -47 784 33 
Q 647 113 581 261 
Q 516 409 516 719 
L 516 2644 
L 63 2644 
L 63 2747 
Q 234 2816 414 2980 
Q 594 3144 734 3369 
Q 806 3488 934 3803 
L 1031 3803 
z
" transform="scale(0.015625)"/>
      </defs>
      <use xlink:href="#TimesNewRomanPSMT-4d"/>
      <use xlink:href="#TimesNewRomanPSMT-61" x="88.916016"/>
      <use xlink:href="#TimesNewRomanPSMT-72" x="133.300781"/>
      <use xlink:href="#TimesNewRomanPSMT-6b" x="166.601562"/>
      <use xlink:href="#TimesNewRomanPSMT-65" x="216.601562"/>
      <use xlink:href="#TimesNewRomanPSMT-74" x="260.986328"/>
     </g>
    </g>
   </g>
  </g>
 </g>
 <defs>
  <clipPath id="p43b1a29f8b">
   <rect x="90" y="34.56" width="558" height="221.76"/>
  </clipPath>
 </defs>
</svg>
