<?xml version="1.0" encoding="utf-8" standalone="no"?>
<!DOCTYPE svg PUBLIC "-//W3C//DTD SVG 1.1//EN"
  "http://www.w3.org/Graphics/SVG/1.1/DTD/svg11.dtd">
<svg xmlns:xlink="http://www.w3.org/1999/xlink" width="720pt" height="288pt" viewBox="0 0 720 288" xmlns="http://www.w3.org/2000/svg" version="1.1">
 <metadata>
  <rdf:RDF xmlns:dc="http://purl.org/dc/elements/1.1/" xmlns:cc="http://creativecommons.org/ns#" xmlns:rdf="http://www.w3.org/1999/02/22-rdf-syntax-ns#">
   <cc:Work>
    <dc:type rdf:resource="http://purl.org/dc/dcmitype/StillImage"/>
    <dc:date>2022-10-22T22:21:04.811570</dc:date>
    <dc:format>image/svg+xml</dc:format>
    <dc:creator>
     <cc:Agent>
      <dc:title>Matplotlib v3.5.1, https://matplotlib.org/</dc:title>
     </cc:Agent>
    </dc:creator>
   </cc:Work>
  </rdf:RDF>
 </metadata>
 <defs>
  <style type="text/css">*{stroke-linejoin: round; stroke-linecap: butt}</style>
 </defs>
 <g id="figure_1">
  <g id="patch_1">
   <path d="M 0 288 
L 720 288 
L 720 0 
L 0 0 
z
" style="fill: #ffffff"/>
  </g>
  <g id="axes_1">
   <g id="patch_2">
    <path d="M 90 256.32 
L 648 256.32 
L 648 34.56 
L 90 34.56 
z
" style="fill: #ffffff"/>
   </g>
   <g id="matplotlib.axis_1">
    <g id="xtick_1">
     <g id="line2d_1">
      <path d="M 115.363636 256.32 
L 115.363636 34.56 
" clip-path="url(#pb3c577f69e)" style="fill: none; stroke: #b0b0b0; stroke-width: 0.8; stroke-linecap: square"/>
     </g>
     <g id="line2d_2">
      <defs>
       <path id="meccafeb3a8" d="M 0 0 
L 0 -3.5 
" style="stroke: #000000; stroke-width: 0.8"/>
      </defs>
      <g>
       <use xlink:href="#meccafeb3a8" x="115.363636" y="256.32" style="stroke: #000000; stroke-width: 0.8"/>
      </g>
     </g>
     <g id="text_1">
      <!-- 2019-10-16 -->
      <g transform="translate(92.033949 266.76375)scale(0.1 -0.1)">
       <defs>
        <path id="TimesNewRomanPSMT-32" d="M 2934 816 
L 2638 0 
L 138 0 
L 138 116 
Q 1241 1122 1691 1759 
Q 2141 2397 2141 2925 
Q 2141 3328 1894 3587 
Q 1647 3847 1303 3847 
Q 991 3847 742 3664 
Q 494 3481 375 3128 
L 259 3128 
Q 338 3706 661 4015 
Q 984 4325 1469 4325 
Q 1984 4325 2329 3994 
Q 2675 3663 2675 3213 
Q 2675 2891 2525 2569 
Q 2294 2063 1775 1497 
Q 997 647 803 472 
L 1909 472 
Q 2247 472 2383 497 
Q 2519 522 2628 598 
Q 2738 675 2819 816 
L 2934 816 
z
" transform="scale(0.015625)"/>
        <path id="TimesNewRomanPSMT-30" d="M 231 2094 
Q 231 2819 450 3342 
Q 669 3866 1031 4122 
Q 1313 4325 1613 4325 
Q 2100 4325 2488 3828 
Q 2972 3213 2972 2159 
Q 2972 1422 2759 906 
Q 2547 391 2217 158 
Q 1888 -75 1581 -75 
Q 975 -75 572 641 
Q 231 1244 231 2094 
z
M 844 2016 
Q 844 1141 1059 588 
Q 1238 122 1591 122 
Q 1759 122 1940 273 
Q 2122 425 2216 781 
Q 2359 1319 2359 2297 
Q 2359 3022 2209 3506 
Q 2097 3866 1919 4016 
Q 1791 4119 1609 4119 
Q 1397 4119 1231 3928 
Q 1006 3669 925 3112 
Q 844 2556 844 2016 
z
" transform="scale(0.015625)"/>
        <path id="TimesNewRomanPSMT-31" d="M 750 3822 
L 1781 4325 
L 1884 4325 
L 1884 747 
Q 1884 391 1914 303 
Q 1944 216 2037 169 
Q 2131 122 2419 116 
L 2419 0 
L 825 0 
L 825 116 
Q 1125 122 1212 167 
Q 1300 213 1334 289 
Q 1369 366 1369 747 
L 1369 3034 
Q 1369 3497 1338 3628 
Q 1316 3728 1258 3775 
Q 1200 3822 1119 3822 
Q 1003 3822 797 3725 
L 750 3822 
z
" transform="scale(0.015625)"/>
        <path id="TimesNewRomanPSMT-39" d="M 338 -88 
L 338 28 
Q 744 34 1094 217 
Q 1444 400 1770 856 
Q 2097 1313 2225 1859 
Q 1734 1544 1338 1544 
Q 891 1544 572 1889 
Q 253 2234 253 2806 
Q 253 3363 572 3797 
Q 956 4325 1575 4325 
Q 2097 4325 2469 3894 
Q 2925 3359 2925 2575 
Q 2925 1869 2578 1258 
Q 2231 647 1613 244 
Q 1109 -88 516 -88 
L 338 -88 
z
M 2275 2091 
Q 2331 2497 2331 2741 
Q 2331 3044 2228 3395 
Q 2125 3747 1936 3934 
Q 1747 4122 1506 4122 
Q 1228 4122 1018 3872 
Q 809 3622 809 3128 
Q 809 2469 1088 2097 
Q 1291 1828 1588 1828 
Q 1731 1828 1928 1897 
Q 2125 1966 2275 2091 
z
" transform="scale(0.015625)"/>
        <path id="TimesNewRomanPSMT-2d" d="M 259 1672 
L 1875 1672 
L 1875 1200 
L 259 1200 
L 259 1672 
z
" transform="scale(0.015625)"/>
        <path id="TimesNewRomanPSMT-36" d="M 2869 4325 
L 2869 4209 
Q 2456 4169 2195 4045 
Q 1934 3922 1679 3669 
Q 1425 3416 1258 3105 
Q 1091 2794 978 2366 
Q 1428 2675 1881 2675 
Q 2316 2675 2634 2325 
Q 2953 1975 2953 1425 
Q 2953 894 2631 456 
Q 2244 -75 1606 -75 
Q 1172 -75 869 213 
Q 275 772 275 1663 
Q 275 2231 503 2743 
Q 731 3256 1154 3653 
Q 1578 4050 1965 4187 
Q 2353 4325 2688 4325 
L 2869 4325 
z
M 925 2138 
Q 869 1716 869 1456 
Q 869 1156 980 804 
Q 1091 453 1309 247 
Q 1469 100 1697 100 
Q 1969 100 2183 356 
Q 2397 613 2397 1088 
Q 2397 1622 2184 2012 
Q 1972 2403 1581 2403 
Q 1463 2403 1327 2353 
Q 1191 2303 925 2138 
z
" transform="scale(0.015625)"/>
       </defs>
       <use xlink:href="#TimesNewRomanPSMT-32"/>
       <use xlink:href="#TimesNewRomanPSMT-30" x="50"/>
       <use xlink:href="#TimesNewRomanPSMT-31" x="100"/>
       <use xlink:href="#TimesNewRomanPSMT-39" x="150"/>
       <use xlink:href="#TimesNewRomanPSMT-2d" x="200"/>
       <use xlink:href="#TimesNewRomanPSMT-31" x="233.300781"/>
       <use xlink:href="#TimesNewRomanPSMT-30" x="283.300781"/>
       <use xlink:href="#TimesNewRomanPSMT-2d" x="333.300781"/>
       <use xlink:href="#TimesNewRomanPSMT-31" x="366.601562"/>
       <use xlink:href="#TimesNewRomanPSMT-36" x="416.601562"/>
      </g>
     </g>
    </g>
    <g id="xtick_2">
     <g id="line2d_3">
      <path d="M 182.361921 256.32 
L 182.361921 34.56 
" clip-path="url(#pb3c577f69e)" style="fill: none; stroke: #b0b0b0; stroke-width: 0.8; stroke-linecap: square"/>
     </g>
     <g id="line2d_4">
      <g>
       <use xlink:href="#meccafeb3a8" x="182.361921" y="256.32" style="stroke: #000000; stroke-width: 0.8"/>
      </g>
     </g>
     <g id="text_2">
      <!-- 2020-01-23 -->
      <g transform="translate(159.032234 266.76375)scale(0.1 -0.1)">
       <defs>
        <path id="TimesNewRomanPSMT-33" d="M 325 3431 
Q 506 3859 782 4092 
Q 1059 4325 1472 4325 
Q 1981 4325 2253 3994 
Q 2459 3747 2459 3466 
Q 2459 3003 1878 2509 
Q 2269 2356 2469 2072 
Q 2669 1788 2669 1403 
Q 2669 853 2319 450 
Q 1863 -75 997 -75 
Q 569 -75 414 31 
Q 259 138 259 259 
Q 259 350 332 419 
Q 406 488 509 488 
Q 588 488 669 463 
Q 722 447 909 348 
Q 1097 250 1169 231 
Q 1284 197 1416 197 
Q 1734 197 1970 444 
Q 2206 691 2206 1028 
Q 2206 1275 2097 1509 
Q 2016 1684 1919 1775 
Q 1784 1900 1550 2001 
Q 1316 2103 1072 2103 
L 972 2103 
L 972 2197 
Q 1219 2228 1467 2375 
Q 1716 2522 1828 2728 
Q 1941 2934 1941 3181 
Q 1941 3503 1739 3701 
Q 1538 3900 1238 3900 
Q 753 3900 428 3381 
L 325 3431 
z
" transform="scale(0.015625)"/>
       </defs>
       <use xlink:href="#TimesNewRomanPSMT-32"/>
       <use xlink:href="#TimesNewRomanPSMT-30" x="50"/>
       <use xlink:href="#TimesNewRomanPSMT-32" x="100"/>
       <use xlink:href="#TimesNewRomanPSMT-30" x="150"/>
       <use xlink:href="#TimesNewRomanPSMT-2d" x="200"/>
       <use xlink:href="#TimesNewRomanPSMT-30" x="233.300781"/>
       <use xlink:href="#TimesNewRomanPSMT-31" x="283.300781"/>
       <use xlink:href="#TimesNewRomanPSMT-2d" x="333.300781"/>
       <use xlink:href="#TimesNewRomanPSMT-32" x="366.601562"/>
       <use xlink:href="#TimesNewRomanPSMT-33" x="416.601562"/>
      </g>
     </g>
    </g>
    <g id="xtick_3">
     <g id="line2d_5">
      <path d="M 249.360206 256.32 
L 249.360206 34.56 
" clip-path="url(#pb3c577f69e)" style="fill: none; stroke: #b0b0b0; stroke-width: 0.8; stroke-linecap: square"/>
     </g>
     <g id="line2d_6">
      <g>
       <use xlink:href="#meccafeb3a8" x="249.360206" y="256.32" style="stroke: #000000; stroke-width: 0.8"/>
      </g>
     </g>
     <g id="text_3">
      <!-- 2020-05-14 -->
      <g transform="translate(226.030518 266.76375)scale(0.1 -0.1)">
       <defs>
        <path id="TimesNewRomanPSMT-35" d="M 2778 4238 
L 2534 3706 
L 1259 3706 
L 981 3138 
Q 1809 3016 2294 2522 
Q 2709 2097 2709 1522 
Q 2709 1188 2573 903 
Q 2438 619 2231 419 
Q 2025 219 1772 97 
Q 1413 -75 1034 -75 
Q 653 -75 479 54 
Q 306 184 306 341 
Q 306 428 378 495 
Q 450 563 559 563 
Q 641 563 702 538 
Q 763 513 909 409 
Q 1144 247 1384 247 
Q 1750 247 2026 523 
Q 2303 800 2303 1197 
Q 2303 1581 2056 1914 
Q 1809 2247 1375 2428 
Q 1034 2569 447 2591 
L 1259 4238 
L 2778 4238 
z
" transform="scale(0.015625)"/>
        <path id="TimesNewRomanPSMT-34" d="M 2978 1563 
L 2978 1119 
L 2409 1119 
L 2409 0 
L 1894 0 
L 1894 1119 
L 100 1119 
L 100 1519 
L 2066 4325 
L 2409 4325 
L 2409 1563 
L 2978 1563 
z
M 1894 1563 
L 1894 3666 
L 406 1563 
L 1894 1563 
z
" transform="scale(0.015625)"/>
       </defs>
       <use xlink:href="#TimesNewRomanPSMT-32"/>
       <use xlink:href="#TimesNewRomanPSMT-30" x="50"/>
       <use xlink:href="#TimesNewRomanPSMT-32" x="100"/>
       <use xlink:href="#TimesNewRomanPSMT-30" x="150"/>
       <use xlink:href="#TimesNewRomanPSMT-2d" x="200"/>
       <use xlink:href="#TimesNewRomanPSMT-30" x="233.300781"/>
       <use xlink:href="#TimesNewRomanPSMT-35" x="283.300781"/>
       <use xlink:href="#TimesNewRomanPSMT-2d" x="333.300781"/>
       <use xlink:href="#TimesNewRomanPSMT-31" x="366.601562"/>
       <use xlink:href="#TimesNewRomanPSMT-34" x="416.601562"/>
      </g>
     </g>
    </g>
    <g id="xtick_4">
     <g id="line2d_7">
      <path d="M 316.358491 256.32 
L 316.358491 34.56 
" clip-path="url(#pb3c577f69e)" style="fill: none; stroke: #b0b0b0; stroke-width: 0.8; stroke-linecap: square"/>
     </g>
     <g id="line2d_8">
      <g>
       <use xlink:href="#meccafeb3a8" x="316.358491" y="256.32" style="stroke: #000000; stroke-width: 0.8"/>
      </g>
     </g>
     <g id="text_4">
      <!-- 2020-08-24 -->
      <g transform="translate(293.028803 266.76375)scale(0.1 -0.1)">
       <defs>
        <path id="TimesNewRomanPSMT-38" d="M 1228 2134 
Q 725 2547 579 2797 
Q 434 3047 434 3316 
Q 434 3728 753 4026 
Q 1072 4325 1600 4325 
Q 2113 4325 2425 4047 
Q 2738 3769 2738 3413 
Q 2738 3175 2569 2928 
Q 2400 2681 1866 2347 
Q 2416 1922 2594 1678 
Q 2831 1359 2831 1006 
Q 2831 559 2490 242 
Q 2150 -75 1597 -75 
Q 994 -75 656 303 
Q 388 606 388 966 
Q 388 1247 577 1523 
Q 766 1800 1228 2134 
z
M 1719 2469 
Q 2094 2806 2194 3001 
Q 2294 3197 2294 3444 
Q 2294 3772 2109 3958 
Q 1925 4144 1606 4144 
Q 1288 4144 1088 3959 
Q 888 3775 888 3528 
Q 888 3366 970 3203 
Q 1053 3041 1206 2894 
L 1719 2469 
z
M 1375 2016 
Q 1116 1797 991 1539 
Q 866 1281 866 981 
Q 866 578 1086 336 
Q 1306 94 1647 94 
Q 1984 94 2187 284 
Q 2391 475 2391 747 
Q 2391 972 2272 1150 
Q 2050 1481 1375 2016 
z
" transform="scale(0.015625)"/>
       </defs>
       <use xlink:href="#TimesNewRomanPSMT-32"/>
       <use xlink:href="#TimesNewRomanPSMT-30" x="50"/>
       <use xlink:href="#TimesNewRomanPSMT-32" x="100"/>
       <use xlink:href="#TimesNewRomanPSMT-30" x="150"/>
       <use xlink:href="#TimesNewRomanPSMT-2d" x="200"/>
       <use xlink:href="#TimesNewRomanPSMT-30" x="233.300781"/>
       <use xlink:href="#TimesNewRomanPSMT-38" x="283.300781"/>
       <use xlink:href="#TimesNewRomanPSMT-2d" x="333.300781"/>
       <use xlink:href="#TimesNewRomanPSMT-32" x="366.601562"/>
       <use xlink:href="#TimesNewRomanPSMT-34" x="416.601562"/>
      </g>
     </g>
    </g>
    <g id="xtick_5">
     <g id="line2d_9">
      <path d="M 383.356775 256.32 
L 383.356775 34.56 
" clip-path="url(#pb3c577f69e)" style="fill: none; stroke: #b0b0b0; stroke-width: 0.8; stroke-linecap: square"/>
     </g>
     <g id="line2d_10">
      <g>
       <use xlink:href="#meccafeb3a8" x="383.356775" y="256.32" style="stroke: #000000; stroke-width: 0.8"/>
      </g>
     </g>
     <g id="text_5">
      <!-- 2020-12-08 -->
      <g transform="translate(360.027088 266.76375)scale(0.1 -0.1)">
       <use xlink:href="#TimesNewRomanPSMT-32"/>
       <use xlink:href="#TimesNewRomanPSMT-30" x="50"/>
       <use xlink:href="#TimesNewRomanPSMT-32" x="100"/>
       <use xlink:href="#TimesNewRomanPSMT-30" x="150"/>
       <use xlink:href="#TimesNewRomanPSMT-2d" x="200"/>
       <use xlink:href="#TimesNewRomanPSMT-31" x="233.300781"/>
       <use xlink:href="#TimesNewRomanPSMT-32" x="283.300781"/>
       <use xlink:href="#TimesNewRomanPSMT-2d" x="333.300781"/>
       <use xlink:href="#TimesNewRomanPSMT-30" x="366.601562"/>
       <use xlink:href="#TimesNewRomanPSMT-38" x="416.601562"/>
      </g>
     </g>
    </g>
    <g id="xtick_6">
     <g id="line2d_11">
      <path d="M 450.35506 256.32 
L 450.35506 34.56 
" clip-path="url(#pb3c577f69e)" style="fill: none; stroke: #b0b0b0; stroke-width: 0.8; stroke-linecap: square"/>
     </g>
     <g id="line2d_12">
      <g>
       <use xlink:href="#meccafeb3a8" x="450.35506" y="256.32" style="stroke: #000000; stroke-width: 0.8"/>
      </g>
     </g>
     <g id="text_6">
      <!-- 2021-03-24 -->
      <g transform="translate(427.025373 266.76375)scale(0.1 -0.1)">
       <use xlink:href="#TimesNewRomanPSMT-32"/>
       <use xlink:href="#TimesNewRomanPSMT-30" x="50"/>
       <use xlink:href="#TimesNewRomanPSMT-32" x="100"/>
       <use xlink:href="#TimesNewRomanPSMT-31" x="150"/>
       <use xlink:href="#TimesNewRomanPSMT-2d" x="200"/>
       <use xlink:href="#TimesNewRomanPSMT-30" x="233.300781"/>
       <use xlink:href="#TimesNewRomanPSMT-33" x="283.300781"/>
       <use xlink:href="#TimesNewRomanPSMT-2d" x="333.300781"/>
       <use xlink:href="#TimesNewRomanPSMT-32" x="366.601562"/>
       <use xlink:href="#TimesNewRomanPSMT-34" x="416.601562"/>
      </g>
     </g>
    </g>
    <g id="xtick_7">
     <g id="line2d_13">
      <path d="M 517.353345 256.32 
L 517.353345 34.56 
" clip-path="url(#pb3c577f69e)" style="fill: none; stroke: #b0b0b0; stroke-width: 0.8; stroke-linecap: square"/>
     </g>
     <g id="line2d_14">
      <g>
       <use xlink:href="#meccafeb3a8" x="517.353345" y="256.32" style="stroke: #000000; stroke-width: 0.8"/>
      </g>
     </g>
     <g id="text_7">
      <!-- 2021-07-07 -->
      <g transform="translate(494.023657 266.76375)scale(0.1 -0.1)">
       <defs>
        <path id="TimesNewRomanPSMT-37" d="M 644 4238 
L 2916 4238 
L 2916 4119 
L 1503 -88 
L 1153 -88 
L 2419 3728 
L 1253 3728 
Q 900 3728 750 3644 
Q 488 3500 328 3200 
L 238 3234 
L 644 4238 
z
" transform="scale(0.015625)"/>
       </defs>
       <use xlink:href="#TimesNewRomanPSMT-32"/>
       <use xlink:href="#TimesNewRomanPSMT-30" x="50"/>
       <use xlink:href="#TimesNewRomanPSMT-32" x="100"/>
       <use xlink:href="#TimesNewRomanPSMT-31" x="150"/>
       <use xlink:href="#TimesNewRomanPSMT-2d" x="200"/>
       <use xlink:href="#TimesNewRomanPSMT-30" x="233.300781"/>
       <use xlink:href="#TimesNewRomanPSMT-37" x="283.300781"/>
       <use xlink:href="#TimesNewRomanPSMT-2d" x="333.300781"/>
       <use xlink:href="#TimesNewRomanPSMT-30" x="366.601562"/>
       <use xlink:href="#TimesNewRomanPSMT-37" x="416.601562"/>
      </g>
     </g>
    </g>
    <g id="xtick_8">
     <g id="line2d_15">
      <path d="M 584.35163 256.32 
L 584.35163 34.56 
" clip-path="url(#pb3c577f69e)" style="fill: none; stroke: #b0b0b0; stroke-width: 0.8; stroke-linecap: square"/>
     </g>
     <g id="line2d_16">
      <g>
       <use xlink:href="#meccafeb3a8" x="584.35163" y="256.32" style="stroke: #000000; stroke-width: 0.8"/>
      </g>
     </g>
     <g id="text_8">
      <!-- 2021-10-22 -->
      <g transform="translate(561.021942 266.76375)scale(0.1 -0.1)">
       <use xlink:href="#TimesNewRomanPSMT-32"/>
       <use xlink:href="#TimesNewRomanPSMT-30" x="50"/>
       <use xlink:href="#TimesNewRomanPSMT-32" x="100"/>
       <use xlink:href="#TimesNewRomanPSMT-31" x="150"/>
       <use xlink:href="#TimesNewRomanPSMT-2d" x="200"/>
       <use xlink:href="#TimesNewRomanPSMT-31" x="233.300781"/>
       <use xlink:href="#TimesNewRomanPSMT-30" x="283.300781"/>
       <use xlink:href="#TimesNewRomanPSMT-2d" x="333.300781"/>
       <use xlink:href="#TimesNewRomanPSMT-32" x="366.601562"/>
       <use xlink:href="#TimesNewRomanPSMT-32" x="416.601562"/>
      </g>
     </g>
    </g>
    <g id="text_9">
     <!-- 时间 -->
     <g transform="translate(359 280.67625)scale(0.1 -0.1)">
      <defs>
       <path id="SimSun-65f6" d="M 4500 3600 
Q 4500 4575 4475 5225 
L 5100 4900 
L 4850 4725 
L 4850 3600 
L 5225 3600 
L 5550 3925 
L 6025 3450 
L 4850 3450 
L 4850 100 
Q 4850 -375 4300 -575 
Q 4275 -200 3475 -25 
L 3475 100 
Q 4150 0 4325 25 
Q 4500 50 4500 325 
L 4500 3450 
L 3200 3450 
Q 2875 3450 2600 3375 
L 2375 3600 
L 4500 3600 
z
M 2875 2825 
Q 3525 2375 3637 2200 
Q 3750 2025 3750 1925 
Q 3750 1800 3637 1637 
Q 3525 1475 3475 1475 
Q 3400 1475 3325 1775 
Q 3200 2225 2800 2750 
L 2875 2825 
z
M 925 4150 
L 925 2650 
L 1950 2650 
L 1950 4150 
L 925 4150 
z
M 925 2500 
L 925 900 
L 1950 900 
L 1950 2500 
L 925 2500 
z
M 2300 2000 
Q 2300 800 2325 450 
L 1950 250 
L 1950 750 
L 925 750 
L 925 225 
L 550 25 
Q 575 825 575 2425 
Q 575 4025 550 4500 
L 950 4300 
L 1900 4300 
L 2100 4550 
L 2500 4225 
L 2300 4050 
L 2300 2000 
z
" transform="scale(0.015625)"/>
       <path id="SimSun-95f4" d="M 2150 525 
Q 2175 1325 2175 2112 
Q 2175 2900 2150 3675 
L 2525 3450 
L 3750 3450 
L 4000 3700 
L 4325 3375 
L 4125 3200 
Q 4125 1550 4150 775 
L 3800 575 
L 3800 975 
L 2500 975 
L 2500 700 
L 2150 525 
z
M 2500 3300 
L 2500 2325 
L 3800 2325 
L 3800 3300 
L 2500 3300 
z
M 2500 2175 
L 2500 1125 
L 3800 1125 
L 3800 2175 
L 2500 2175 
z
M 1275 5200 
Q 1850 4825 1950 4675 
Q 2050 4525 2050 4425 
Q 2050 4275 1950 4137 
Q 1850 4000 1825 4000 
Q 1750 4000 1675 4275 
Q 1550 4650 1200 5125 
L 1275 5200 
z
M 1125 425 
Q 1125 25 1150 -375 
L 750 -525 
Q 775 -150 775 1950 
Q 775 4050 750 4425 
L 1350 4125 
L 1125 3975 
L 1125 425 
z
M 4225 125 
Q 5025 0 5125 37 
Q 5225 75 5225 250 
L 5225 4450 
L 3225 4450 
Q 2900 4450 2625 4375 
L 2400 4600 
L 5175 4600 
L 5425 4850 
L 5775 4500 
L 5575 4350 
L 5575 225 
Q 5575 -100 5462 -250 
Q 5350 -400 5000 -550 
Q 4800 -125 4225 25 
L 4225 125 
z
" transform="scale(0.015625)"/>
      </defs>
      <use xlink:href="#SimSun-65f6"/>
      <use xlink:href="#SimSun-95f4" x="100"/>
     </g>
    </g>
   </g>
   <g id="matplotlib.axis_2">
    <g id="ytick_1">
     <g id="line2d_17">
      <path d="M 90 232.073712 
L 648 232.073712 
" clip-path="url(#pb3c577f69e)" style="fill: none; stroke: #b0b0b0; stroke-width: 0.8; stroke-linecap: square"/>
     </g>
     <g id="line2d_18">
      <defs>
       <path id="m6647de8bd1" d="M 0 0 
L 3.5 0 
" style="stroke: #000000; stroke-width: 0.8"/>
      </defs>
      <g>
       <use xlink:href="#m6647de8bd1" x="90" y="232.073712" style="stroke: #000000; stroke-width: 0.8"/>
      </g>
     </g>
     <g id="text_10">
      <!-- 0.8 -->
      <g transform="translate(74 235.545587)scale(0.1 -0.1)">
       <defs>
        <path id="TimesNewRomanPSMT-2e" d="M 800 606 
Q 947 606 1047 504 
Q 1147 403 1147 259 
Q 1147 116 1045 14 
Q 944 -88 800 -88 
Q 656 -88 554 14 
Q 453 116 453 259 
Q 453 406 554 506 
Q 656 606 800 606 
z
" transform="scale(0.015625)"/>
       </defs>
       <use xlink:href="#TimesNewRomanPSMT-30"/>
       <use xlink:href="#TimesNewRomanPSMT-2e" x="50"/>
       <use xlink:href="#TimesNewRomanPSMT-38" x="75"/>
      </g>
     </g>
    </g>
    <g id="ytick_2">
     <g id="line2d_19">
      <path d="M 90 199.559668 
L 648 199.559668 
" clip-path="url(#pb3c577f69e)" style="fill: none; stroke: #b0b0b0; stroke-width: 0.8; stroke-linecap: square"/>
     </g>
     <g id="line2d_20">
      <g>
       <use xlink:href="#m6647de8bd1" x="90" y="199.559668" style="stroke: #000000; stroke-width: 0.8"/>
      </g>
     </g>
     <g id="text_11">
      <!-- 1.0 -->
      <g transform="translate(74 203.031543)scale(0.1 -0.1)">
       <use xlink:href="#TimesNewRomanPSMT-31"/>
       <use xlink:href="#TimesNewRomanPSMT-2e" x="50"/>
       <use xlink:href="#TimesNewRomanPSMT-30" x="75"/>
      </g>
     </g>
    </g>
    <g id="ytick_3">
     <g id="line2d_21">
      <path d="M 90 167.045625 
L 648 167.045625 
" clip-path="url(#pb3c577f69e)" style="fill: none; stroke: #b0b0b0; stroke-width: 0.8; stroke-linecap: square"/>
     </g>
     <g id="line2d_22">
      <g>
       <use xlink:href="#m6647de8bd1" x="90" y="167.045625" style="stroke: #000000; stroke-width: 0.8"/>
      </g>
     </g>
     <g id="text_12">
      <!-- 1.2 -->
      <g transform="translate(74 170.5175)scale(0.1 -0.1)">
       <use xlink:href="#TimesNewRomanPSMT-31"/>
       <use xlink:href="#TimesNewRomanPSMT-2e" x="50"/>
       <use xlink:href="#TimesNewRomanPSMT-32" x="75"/>
      </g>
     </g>
    </g>
    <g id="ytick_4">
     <g id="line2d_23">
      <path d="M 90 134.531581 
L 648 134.531581 
" clip-path="url(#pb3c577f69e)" style="fill: none; stroke: #b0b0b0; stroke-width: 0.8; stroke-linecap: square"/>
     </g>
     <g id="line2d_24">
      <g>
       <use xlink:href="#m6647de8bd1" x="90" y="134.531581" style="stroke: #000000; stroke-width: 0.8"/>
      </g>
     </g>
     <g id="text_13">
      <!-- 1.4 -->
      <g transform="translate(74 138.003456)scale(0.1 -0.1)">
       <use xlink:href="#TimesNewRomanPSMT-31"/>
       <use xlink:href="#TimesNewRomanPSMT-2e" x="50"/>
       <use xlink:href="#TimesNewRomanPSMT-34" x="75"/>
      </g>
     </g>
    </g>
    <g id="ytick_5">
     <g id="line2d_25">
      <path d="M 90 102.017537 
L 648 102.017537 
" clip-path="url(#pb3c577f69e)" style="fill: none; stroke: #b0b0b0; stroke-width: 0.8; stroke-linecap: square"/>
     </g>
     <g id="line2d_26">
      <g>
       <use xlink:href="#m6647de8bd1" x="90" y="102.017537" style="stroke: #000000; stroke-width: 0.8"/>
      </g>
     </g>
     <g id="text_14">
      <!-- 1.6 -->
      <g transform="translate(74 105.489412)scale(0.1 -0.1)">
       <use xlink:href="#TimesNewRomanPSMT-31"/>
       <use xlink:href="#TimesNewRomanPSMT-2e" x="50"/>
       <use xlink:href="#TimesNewRomanPSMT-36" x="75"/>
      </g>
     </g>
    </g>
    <g id="ytick_6">
     <g id="line2d_27">
      <path d="M 90 69.503493 
L 648 69.503493 
" clip-path="url(#pb3c577f69e)" style="fill: none; stroke: #b0b0b0; stroke-width: 0.8; stroke-linecap: square"/>
     </g>
     <g id="line2d_28">
      <g>
       <use xlink:href="#m6647de8bd1" x="90" y="69.503493" style="stroke: #000000; stroke-width: 0.8"/>
      </g>
     </g>
     <g id="text_15">
      <!-- 1.8 -->
      <g transform="translate(74 72.975368)scale(0.1 -0.1)">
       <use xlink:href="#TimesNewRomanPSMT-31"/>
       <use xlink:href="#TimesNewRomanPSMT-2e" x="50"/>
       <use xlink:href="#TimesNewRomanPSMT-38" x="75"/>
      </g>
     </g>
    </g>
    <g id="ytick_7">
     <g id="line2d_29">
      <path d="M 90 36.98945 
L 648 36.98945 
" clip-path="url(#pb3c577f69e)" style="fill: none; stroke: #b0b0b0; stroke-width: 0.8; stroke-linecap: square"/>
     </g>
     <g id="line2d_30">
      <g>
       <use xlink:href="#m6647de8bd1" x="90" y="36.98945" style="stroke: #000000; stroke-width: 0.8"/>
      </g>
     </g>
     <g id="text_16">
      <!-- 2.0 -->
      <g transform="translate(74 40.461325)scale(0.1 -0.1)">
       <use xlink:href="#TimesNewRomanPSMT-32"/>
       <use xlink:href="#TimesNewRomanPSMT-2e" x="50"/>
       <use xlink:href="#TimesNewRomanPSMT-30" x="75"/>
      </g>
     </g>
    </g>
    <g id="text_17">
     <!-- 累积收益率 -->
     <g transform="translate(68.710938 170.44)rotate(-90)scale(0.1 -0.1)">
      <defs>
       <path id="SimSun-7d2f" d="M 1675 4725 
L 1675 4100 
L 3125 4100 
L 3125 4725 
L 1675 4725 
z
M 3450 4725 
L 3450 4100 
L 4925 4100 
L 4925 4725 
L 3450 4725 
z
M 1675 3950 
L 1675 3375 
L 3125 3375 
L 3125 3950 
L 1675 3950 
z
M 3450 3950 
L 3450 3375 
L 4925 3375 
L 4925 3950 
L 3450 3950 
z
M 5250 4625 
Q 5250 4275 5250 3875 
Q 5250 3475 5275 3075 
L 4925 2950 
L 4925 3225 
L 1675 3225 
L 1675 3000 
L 1325 2875 
Q 1350 3500 1350 4125 
Q 1350 4750 1325 5075 
L 1675 4875 
L 4900 4875 
L 5075 5075 
L 5425 4775 
L 5250 4625 
z
M 3525 2875 
Q 3225 2850 2875 2700 
Q 2525 2550 1825 2275 
L 3550 2300 
Q 3925 2550 4175 2800 
L 4500 2400 
Q 4275 2400 3675 2100 
Q 3050 1775 1875 1300 
L 4775 1475 
Q 4550 1725 4300 1975 
L 4375 2025 
Q 5100 1675 5262 1487 
Q 5425 1300 5412 1150 
Q 5400 1000 5337 900 
Q 5275 800 5250 800 
Q 5200 800 5125 950 
Q 5000 1150 4875 1350 
L 3550 1225 
L 3550 100 
Q 3575 -425 3000 -525 
Q 3000 -175 2200 0 
L 2200 100 
Q 2900 25 3062 37 
Q 3225 50 3225 325 
L 3225 1200 
Q 2750 1150 2250 1075 
Q 1750 1000 1450 825 
L 1175 1350 
Q 1550 1400 2000 1562 
Q 2450 1725 3375 2175 
Q 2300 2075 2000 2037 
Q 1700 2000 1550 1900 
L 1325 2350 
Q 1625 2350 2200 2612 
Q 2775 2875 3150 3250 
L 3525 2875 
z
M 2625 500 
Q 2325 450 1850 175 
Q 1375 -125 550 -450 
L 500 -375 
Q 1125 -50 1562 300 
Q 2000 650 2225 950 
L 2625 500 
z
M 4075 900 
Q 5000 575 5312 387 
Q 5625 200 5650 12 
Q 5675 -175 5612 -287 
Q 5550 -400 5525 -400 
Q 5425 -400 5250 -150 
Q 4975 250 4025 825 
L 4075 900 
z
" transform="scale(0.015625)"/>
       <path id="SimSun-79ef" d="M 3125 1750 
Q 3150 2475 3150 3225 
Q 3150 3975 3125 4725 
L 3500 4525 
L 5225 4525 
L 5475 4775 
L 5850 4400 
L 5600 4250 
Q 5600 2300 5625 1975 
L 5275 1850 
L 5275 2175 
L 3475 2175 
L 3475 1875 
L 3125 1750 
z
M 3475 4375 
L 3475 2325 
L 5275 2325 
L 5275 4375 
L 3475 4375 
z
M 3825 1700 
L 4300 1300 
L 4075 1225 
Q 3125 -75 2200 -550 
L 2175 -450 
Q 2800 50 3225 625 
Q 3650 1200 3825 1700 
z
M 4700 1600 
Q 5725 650 5850 362 
Q 5975 75 5975 -75 
Q 5975 -225 5900 -337 
Q 5825 -450 5775 -450 
Q 5725 -450 5650 -250 
Q 5525 75 5350 450 
Q 5175 825 4650 1525 
L 4700 1600 
z
M 1875 2575 
Q 1875 225 1900 -400 
L 1525 -625 
Q 1550 125 1550 2350 
Q 1025 1275 300 625 
L 250 700 
Q 625 1200 962 1862 
Q 1300 2525 1500 3200 
L 1125 3200 
Q 800 3200 525 3125 
L 300 3350 
L 1550 3350 
L 1550 4475 
Q 900 4375 525 4350 
L 525 4450 
Q 1075 4550 1525 4712 
Q 1975 4875 2375 5150 
L 2725 4700 
Q 2425 4700 1875 4550 
L 1875 3350 
L 2250 3350 
L 2550 3650 
L 2975 3200 
L 1875 3200 
L 1875 2675 
Q 2475 2400 2612 2212 
Q 2750 2025 2750 1925 
Q 2750 1800 2662 1675 
Q 2575 1550 2550 1550 
Q 2450 1550 2375 1800 
Q 2250 2175 1875 2575 
z
" transform="scale(0.015625)"/>
       <path id="SimSun-6536" d="M 3325 3600 
Q 3575 2100 4200 1200 
Q 4600 1950 4850 3600 
L 3325 3600 
z
M 3400 5275 
L 4025 4975 
L 3775 4850 
Q 3575 4375 3325 3750 
L 5250 3750 
L 5575 4075 
L 6050 3600 
L 5225 3600 
Q 4975 2000 4425 900 
Q 5300 -25 6150 -75 
L 6150 -175 
Q 5750 -200 5575 -525 
Q 4750 -50 4200 650 
Q 3350 -175 2300 -600 
L 2250 -525 
Q 3225 -25 4000 900 
Q 3325 2100 3225 3550 
Q 2875 2725 2425 2100 
L 2350 2150 
Q 3050 3500 3400 5275 
z
M 575 1575 
L 575 3100 
Q 575 3600 550 4125 
L 1125 3850 
L 900 3675 
L 900 1425 
L 1750 1725 
Q 1750 4350 1725 5250 
L 2300 4975 
L 2075 4775 
L 2075 -450 
L 1725 -650 
Q 1750 375 1750 1600 
Q 975 1175 750 825 
L 475 1200 
Q 600 1325 575 1575 
z
" transform="scale(0.015625)"/>
       <path id="SimSun-76ca" d="M 3900 1725 
L 3900 -75 
L 4725 -75 
L 4725 1725 
L 3900 1725 
z
M 1275 2100 
L 1625 1875 
L 4675 1875 
L 4875 2125 
L 5250 1800 
L 5050 1650 
L 5050 -75 
L 5300 -75 
L 5650 275 
L 6100 -225 
L 1125 -225 
Q 800 -225 525 -300 
L 300 -75 
L 1300 -75 
Q 1300 1475 1275 2100 
z
M 1625 1725 
L 1625 -75 
L 2450 -75 
L 2450 1725 
L 1625 1725 
z
M 2775 1725 
L 2775 -75 
L 3575 -75 
L 3575 1725 
L 2775 1725 
z
M 2475 3550 
L 2900 3150 
Q 2575 3025 2050 2675 
Q 1525 2300 725 2000 
L 675 2075 
Q 1875 2750 2475 3550 
z
M 3700 3450 
Q 4425 3200 4987 2950 
Q 5550 2700 5500 2362 
Q 5450 2025 5350 2025 
Q 5275 2025 5200 2125 
Q 4975 2375 4662 2650 
Q 4350 2925 3650 3375 
L 3700 3450 
z
M 1725 5000 
L 1775 5075 
Q 2375 4800 2587 4587 
Q 2800 4375 2800 4225 
Q 2800 4050 2600 3825 
L 3625 3825 
Q 4175 4800 4275 5225 
L 4825 4875 
Q 4475 4725 3775 3825 
L 4900 3825 
L 5275 4200 
L 5775 3675 
L 1550 3675 
Q 1225 3675 950 3600 
L 725 3825 
L 2425 3825 
Q 2325 4375 1725 5000 
z
" transform="scale(0.015625)"/>
       <path id="SimSun-7387" d="M 875 3725 
L 925 3800 
Q 1375 3650 1550 3525 
Q 1725 3400 1725 3250 
Q 1725 3175 1662 3025 
Q 1600 2875 1550 2875 
Q 1500 2875 1425 3050 
Q 1275 3325 875 3725 
z
M 550 1850 
Q 875 1925 2000 2575 
L 2050 2500 
Q 1675 2225 1337 1937 
Q 1000 1650 875 1425 
L 550 1850 
z
M 5200 3450 
Q 4800 3150 4275 2800 
L 4225 2875 
Q 4775 3400 5050 3925 
L 5450 3525 
L 5200 3450 
z
M 4325 2500 
L 4350 2575 
Q 5225 2350 5375 2212 
Q 5525 2075 5525 1900 
Q 5525 1775 5487 1662 
Q 5450 1550 5400 1550 
Q 5325 1550 5200 1800 
Q 4975 2150 4325 2500 
z
M 3150 3900 
Q 2500 3300 2300 3150 
Q 2800 3150 3400 3175 
Q 3700 3500 3850 3825 
L 4250 3450 
Q 4050 3400 3450 2825 
Q 2850 2250 2475 1950 
Q 3150 1975 3850 2000 
Q 3750 2175 3550 2450 
L 3600 2500 
Q 4050 2250 4200 2100 
Q 4350 1950 4350 1850 
Q 4350 1775 4250 1625 
Q 4150 1475 4100 1475 
Q 4075 1475 4050 1550 
Q 4000 1700 3900 1900 
Q 3650 1875 3075 1800 
L 3500 1550 
L 3325 1425 
L 3325 975 
L 5325 975 
L 5650 1300 
L 6100 825 
L 3325 825 
Q 3325 -275 3350 -525 
L 2975 -650 
Q 3000 0 3000 825 
L 1125 825 
Q 800 825 525 750 
L 300 975 
L 3000 975 
L 3000 1775 
Q 2450 1700 2200 1525 
L 1950 1950 
Q 2275 1950 2675 2350 
Q 3075 2750 3325 3050 
Q 2400 2950 2150 2775 
L 1950 3175 
Q 2150 3150 2475 3575 
Q 2800 4000 2900 4225 
L 1450 4225 
Q 1125 4225 850 4150 
L 625 4375 
L 3100 4375 
Q 3050 4800 2675 5200 
L 2725 5250 
Q 3225 5050 3337 4912 
Q 3450 4775 3450 4700 
Q 3450 4550 3250 4375 
L 5025 4375 
L 5350 4675 
L 5775 4225 
L 3050 4225 
L 3375 3950 
L 3150 3900 
z
" transform="scale(0.015625)"/>
      </defs>
      <use xlink:href="#SimSun-7d2f"/>
      <use xlink:href="#SimSun-79ef" x="100"/>
      <use xlink:href="#SimSun-6536" x="200"/>
      <use xlink:href="#SimSun-76ca" x="300"/>
      <use xlink:href="#SimSun-7387" x="400"/>
     </g>
    </g>
   </g>
   <g id="line2d_31">
    <path d="M 115.363636 199.559668 
L 150.777015 199.559668 
L 151.734134 198.671466 
L 152.691252 197.075408 
L 153.64837 200.597744 
L 154.605489 196.690152 
L 155.562607 196.800225 
L 156.519726 193.993363 
L 157.476844 188.21453 
L 158.433962 190.966356 
L 159.391081 191.68183 
L 160.348199 195.204167 
L 161.305317 197.845919 
L 162.262436 195.754532 
L 163.219554 189.920662 
L 164.176672 189.865626 
L 165.133791 192.012049 
L 167.048027 188.21453 
L 168.005146 183.371318 
L 169.919383 187.058764 
L 170.876501 184.857304 
L 171.833619 186.618472 
L 172.790738 184.306939 
L 173.747856 184.472048 
L 174.704974 175.446061 
L 175.662093 174.070149 
L 176.619211 176.656864 
L 177.576329 176.326645 
L 178.533448 176.884055 
L 180.447684 176.884055 
L 181.404803 173.854632 
L 182.361921 174.419458 
L 183.319039 174.419458 
L 184.276158 168.314484 
L 185.233276 164.917524 
L 187.147513 131.262464 
L 188.104631 124.845985 
L 189.06175 129.438171 
L 190.018868 111.195241 
L 190.975986 105.344922 
L 191.933105 97.921937 
L 192.890223 92.134524 
L 193.847341 87.353619 
L 194.80446 91.631271 
L 195.761578 92.260338 
L 196.718696 87.101992 
L 197.675815 71.815675 
L 198.632933 50.679039 
L 199.590051 50.867759 
L 200.54717 44.64 
L 201.504288 76.407861 
L 202.461407 66.971862 
L 203.418525 68.984875 
L 204.375643 75.715887 
L 205.332762 67.475116 
L 206.28988 71.501142 
L 207.246998 86.787459 
L 208.204117 71.689862 
L 209.161235 85.340606 
L 210.118353 94.210444 
L 211.075472 91.505458 
L 212.03259 111.761401 
L 212.989708 110.566174 
L 213.946827 115.787427 
L 214.903945 117.737533 
L 215.861063 121.449026 
L 216.818182 139.440329 
L 217.7753 135.47721 
L 218.732419 130.444677 
L 219.689537 130.067237 
L 220.646655 131.32537 
L 222.560892 139.943582 
L 223.51801 138.937076 
L 224.475129 125.412145 
L 225.432247 131.954437 
L 226.389365 125.097612 
L 228.303602 133.77873 
L 229.26072 141.264622 
L 230.217839 145.542274 
L 231.174957 146.192037 
L 278.073756 146.192037 
L 279.030875 142.078383 
L 279.987993 138.545681 
L 280.945111 130.96829 
L 281.90223 132.760241 
L 282.859348 123.442099 
L 283.816467 110.232865 
L 284.773585 107.826531 
L 285.730703 97.126028 
L 286.687822 104.805815 
L 287.64494 103.065063 
L 288.602058 113.355978 
L 289.559177 120.984567 
L 290.516295 140.337631 
L 291.473413 140.644822 
L 292.430532 131.889865 
L 293.38765 133.067432 
L 294.344768 131.275482 
L 295.301887 135.67856 
L 296.259005 144.023929 
L 297.216123 140.900815 
L 298.173242 145.867078 
L 299.13036 138.443283 
L 300.087479 140.849617 
L 301.044597 137.880099 
L 302.001715 127.691581 
L 302.958834 129.53473 
L 303.915952 130.814695 
L 304.87307 133.272227 
L 305.830189 141.566397 
L 306.787307 142.228087 
L 322.101201 142.228087 
L 323.058319 147.67997 
L 324.015437 160.101797 
L 324.972556 159.975687 
L 325.929674 168.740326 
L 327.843911 174.541382 
L 328.801029 190.368177 
L 329.758148 187.089319 
L 330.715266 190.809562 
L 331.672384 188.161254 
L 332.629503 186.08044 
L 333.586621 186.900155 
L 334.543739 182.549362 
L 335.500858 183.684352 
L 336.457976 187.152374 
L 337.415094 188.098199 
L 338.372213 198.943652 
L 339.329331 199.258927 
L 340.286449 200.015586 
L 341.243568 199.700311 
L 342.200686 201.781125 
L 343.157804 198.880597 
L 344.114923 199.370345 
L 357.51458 199.370345 
L 358.471698 200.891259 
L 359.428816 197.424554 
L 360.385935 198.162151 
L 361.343053 189.901069 
L 362.300172 187.540759 
L 363.25729 181.492467 
L 365.171527 194.990485 
L 366.128645 193.589052 
L 367.085763 196.465679 
L 368.042882 193.515292 
L 369.957118 198.162151 
L 371.871355 197.424554 
L 372.828473 195.728082 
L 373.785592 195.580563 
L 374.74271 198.235911 
L 375.699828 200.374941 
L 376.656947 200.59622 
L 377.614065 197.203275 
L 378.571184 197.698055 
L 405.370497 197.698055 
L 406.327616 197.210941 
L 407.284734 191.398511 
L 408.241852 193.919565 
L 409.198971 200.992522 
L 410.156089 189.367662 
L 411.113208 188.807428 
L 412.070326 192.589009 
L 413.027444 187.406842 
L 413.984563 196.37059 
L 414.941681 199.661965 
L 415.898799 202.393107 
L 416.855918 206.104659 
L 417.813036 215.068406 
L 418.770154 218.009636 
L 419.727273 213.387704 
L 420.684391 211.84706 
L 421.641509 219.480251 
L 422.598628 215.208465 
L 423.555746 222.281422 
L 424.512864 219.480251 
L 426.427101 215.558611 
L 427.38422 211.987118 
L 428.341338 212.437546 
L 480.025729 212.437546 
L 480.982847 212.640888 
L 481.939966 210.675005 
L 482.897084 209.937799 
L 483.854202 209.528241 
L 484.811321 208.954858 
L 485.768439 209.414383 
L 492.468268 209.414383 
L 493.425386 196.957843 
L 494.382504 199.6012 
L 495.339623 191.369031 
L 496.296741 190.231132 
L 497.253859 192.355212 
L 498.210978 188.258772 
L 499.168096 193.493112 
L 500.125214 192.506932 
L 501.082333 197.817131 
L 502.039451 195.541332 
L 502.996569 198.348151 
L 503.953688 191.065592 
L 504.910806 194.858592 
L 505.867925 195.693052 
L 506.825043 196.299932 
L 507.782161 192.962092 
L 508.73928 202.748031 
L 509.696398 200.017071 
L 510.653516 195.844772 
L 511.610635 204.796251 
L 512.567753 196.148212 
L 513.524871 193.948272 
L 514.48199 197.134391 
L 515.439108 189.093232 
L 516.396226 187.651892 
L 517.353345 186.438132 
L 518.310463 184.617492 
L 519.267581 187.576032 
L 520.2247 170.128232 
L 521.181818 169.976512 
L 522.138937 176.272892 
L 523.096055 176.348752 
L 524.053173 166.411092 
L 525.010292 152.225273 
L 525.96741 151.694253 
L 526.924528 149.418453 
L 527.881647 149.115013 
L 528.838765 156.701013 
L 529.795883 154.880373 
L 530.753002 149.721893 
L 531.71012 160.190572 
L 532.667238 159.583692 
L 533.624357 162.162932 
L 534.581475 147.597813 
L 535.538593 148.583993 
L 536.495712 148.356413 
L 537.45283 156.397573 
L 538.409949 135.839513 
L 539.367067 132.274093 
L 540.324185 134.549893 
L 541.281304 143.046213 
L 542.238422 146.687493 
L 543.19554 168.231732 
L 544.152659 165.273192 
L 545.109777 169.976512 
L 546.066895 173.390212 
L 547.024014 172.328172 
L 547.981132 167.852432 
L 548.93825 165.197332 
L 549.895369 167.093832 
L 550.852487 167.67894 
L 600.622642 167.67894 
L 601.57976 157.875204 
L 602.536878 160.397783 
L 603.493997 162.104233 
L 604.451115 160.101009 
L 605.408233 159.0623 
L 606.365352 157.207463 
L 607.32247 175.681642 
L 608.279588 173.752612 
L 609.236707 173.08487 
L 610.193825 170.265518 
L 611.150943 168.41068 
L 612.108062 169.597776 
L 613.06518 171.675194 
L 614.022298 172.046161 
L 614.979417 171.749387 
L 615.936535 170.859065 
L 616.893654 169.597776 
L 617.850772 172.565516 
L 618.80789 181.023574 
L 619.765009 185.178409 
L 620.722127 185.326796 
L 621.679245 197.346142 
L 622.636364 201.278397 
L 622.636364 201.278397 
" clip-path="url(#pb3c577f69e)" style="fill: none; stroke: #1f77b4; stroke-width: 1.5; stroke-linecap: square"/>
   </g>
   <g id="line2d_32">
    <path d="M 115.363636 199.559668 
L 153.64837 199.559668 
L 154.605489 196.126473 
L 155.562607 196.236921 
L 156.519726 193.420496 
L 157.476844 187.621974 
L 158.433962 190.383175 
L 159.391081 191.101087 
L 160.348199 194.635425 
L 161.305317 197.286178 
L 162.262436 195.187665 
L 163.219554 189.333919 
L 164.176672 189.278695 
L 165.133791 191.432431 
L 167.048027 187.621974 
L 168.005146 182.76226 
L 169.919383 186.462269 
L 170.876501 184.253308 
L 171.833619 186.020477 
L 172.790738 183.701068 
L 173.747856 183.86674 
L 174.704974 174.81 
L 175.662093 175.37196 
L 182.361921 175.37196 
L 183.319039 194.574528 
L 184.276158 188.604488 
L 185.233276 185.563147 
L 187.147513 155.431343 
L 188.104631 149.686588 
L 189.06175 153.79803 
L 190.018868 137.464903 
L 190.975986 132.227038 
L 191.933105 125.581144 
L 192.890223 120.399601 
L 193.847341 116.119195 
L 194.80446 119.949032 
L 195.761578 120.512243 
L 196.718696 115.89391 
L 197.675815 102.207876 
L 198.632933 83.283976 
L 199.590051 83.45294 
L 200.54717 77.877148 
L 201.504288 106.319318 
L 202.461407 97.871149 
L 203.418525 99.673425 
L 204.375643 105.699786 
L 205.332762 98.321718 
L 206.28988 101.92627 
L 207.246998 115.612305 
L 208.204117 102.095233 
L 209.161235 114.316919 
L 210.118353 122.258198 
L 211.075472 119.836389 
L 212.03259 137.971793 
L 212.989708 136.901691 
L 213.946827 141.576345 
L 214.903945 143.3223 
L 215.861063 146.645247 
L 216.818182 162.75309 
L 217.7753 159.204859 
L 218.732419 154.699168 
L 219.689537 154.361241 
L 220.646655 155.487664 
L 222.560892 163.203659 
L 223.51801 162.302521 
L 224.475129 150.193478 
L 225.432247 156.050875 
L 226.389365 156.669112 
L 227.346484 161.145355 
L 228.303602 164.787757 
L 229.26072 171.2571 
L 230.217839 174.953867 
L 231.174957 165.98377 
L 232.132075 164.352844 
L 233.089194 164.946175 
L 279.987993 164.946175 
L 280.945111 158.875111 
L 281.90223 160.450729 
L 282.859348 152.257514 
L 283.816467 140.642955 
L 284.773585 138.527125 
L 285.730703 129.118432 
L 286.687822 135.871082 
L 287.64494 134.340481 
L 288.602058 143.389033 
L 289.559177 150.096665 
L 290.516295 167.113344 
L 291.473413 167.38345 
L 292.430532 159.685429 
L 293.38765 160.720835 
L 294.344768 159.145217 
L 295.301887 163.016737 
L 296.259005 170.354617 
L 297.216123 167.608539 
L 298.173242 171.975253 
L 299.13036 165.447691 
L 300.087479 167.563521 
L 301.044597 164.952496 
L 302.001715 155.99398 
L 302.958834 157.614616 
L 303.915952 158.740058 
L 304.87307 160.900906 
L 305.830189 168.193768 
L 306.787307 168.775577 
L 324.015437 168.775577 
L 324.972556 169.235306 
L 325.929674 177.598484 
L 327.843911 183.133824 
L 328.801029 198.235677 
L 329.758148 195.107006 
L 330.715266 198.656844 
L 331.672384 196.129841 
L 332.629503 194.144338 
L 333.586621 194.926506 
L 334.543739 190.775001 
L 335.500858 191.858002 
L 336.457976 195.167173 
L 337.415094 196.069674 
L 338.372213 206.418354 
L 339.329331 206.719188 
L 340.286449 207.441189 
L 341.243568 207.140355 
L 342.200686 209.125857 
L 343.157804 206.358187 
L 344.114923 206.825502 
L 361.343053 206.825502 
L 362.300172 205.169432 
L 363.25729 199.73185 
L 365.171527 211.866942 
L 366.128645 210.607014 
L 367.085763 213.193182 
L 368.042882 210.540703 
L 369.957118 214.718357 
L 371.871355 214.055237 
L 372.828473 212.530062 
L 373.785592 212.397438 
L 374.74271 214.784669 
L 375.699828 216.707717 
L 376.656947 216.906653 
L 377.614065 213.856301 
L 378.571184 211.734318 
L 379.528302 212.185505 
L 407.284734 212.185505 
L 408.241852 214.842805 
L 409.198971 221.035975 
L 410.156089 210.857101 
L 411.113208 210.366553 
L 412.070326 213.677753 
L 413.027444 209.140182 
L 413.984563 216.988953 
L 414.941681 219.870923 
L 415.898799 222.262345 
L 416.855918 225.512227 
L 417.813036 233.360997 
L 418.770154 235.936375 
L 419.727273 231.889353 
L 420.684391 230.540346 
L 421.641509 237.224064 
L 422.598628 233.483634 
L 423.555746 239.676805 
L 424.512864 237.224064 
L 426.427101 233.790227 
L 428.341338 227.719694 
L 429.298456 228.122924 
L 479.068611 228.122924 
L 480.025729 227.639166 
L 480.982847 227.417722 
L 481.939966 225.646165 
L 482.897084 224.981831 
L 483.854202 224.612756 
L 484.811321 224.096052 
L 485.768439 226.679573 
L 486.725557 227.085924 
L 493.425386 227.085924 
L 494.382504 229.64577 
L 495.339623 222.935375 
L 496.296741 222.007824 
L 497.253859 223.739253 
L 498.210978 220.400069 
L 499.168096 224.666804 
L 500.125214 223.862927 
L 501.082333 228.191499 
L 502.039451 226.336396 
L 502.996569 228.624356 
L 503.953688 222.688029 
L 504.910806 225.779866 
L 505.867925 226.46007 
L 506.825043 226.954764 
L 507.782161 224.233947 
L 508.73928 232.210887 
L 509.696398 229.984764 
L 510.653516 226.583743 
L 511.610635 233.880479 
L 512.567753 226.83109 
L 513.524871 225.037825 
L 514.48199 227.634968 
L 515.439108 221.080273 
L 516.396226 219.905375 
L 517.353345 218.915987 
L 518.310463 217.431905 
L 519.267581 219.843538 
L 520.2247 205.621087 
L 521.181818 205.497414 
L 522.138937 210.629863 
L 523.096055 210.6917 
L 524.053173 202.591087 
L 525.010292 191.027615 
L 525.96741 190.594758 
L 526.924528 188.739656 
L 527.881647 188.492309 
L 528.838765 194.675983 
L 529.795883 193.191901 
L 530.753002 188.987003 
L 531.71012 197.520474 
L 532.667238 197.02578 
L 533.624357 199.128229 
L 534.581475 187.255574 
L 535.538593 188.059452 
L 536.495712 187.873941 
L 537.45283 194.428636 
L 538.409949 177.670879 
L 539.367067 174.764552 
L 540.324185 176.619654 
L 541.281304 183.545369 
L 542.238422 186.513533 
L 543.19554 204.075168 
L 544.152659 201.663535 
L 545.109777 205.497414 
L 546.066895 208.280067 
L 547.024014 207.414353 
L 547.981132 203.765985 
L 548.93825 201.601699 
L 549.895369 203.147617 
L 550.852487 206.795985 
L 551.809605 213.598027 
L 552.766724 214.043623 
L 606.365352 214.043623 
L 607.32247 227.798113 
L 608.279588 226.40829 
L 609.236707 225.927197 
L 610.193825 223.895917 
L 611.150943 222.559548 
L 612.108062 223.414824 
L 613.06518 224.911557 
L 614.022298 225.17883 
L 614.979417 224.965011 
L 615.936535 224.323555 
L 616.893654 223.414824 
L 617.850772 225.553014 
L 618.80789 231.646855 
L 619.765009 234.64032 
L 620.722127 234.74723 
L 621.679245 243.406899 
L 622.636364 246.24 
L 622.636364 246.24 
" clip-path="url(#pb3c577f69e)" style="fill: none; stroke: #ff7f0e; stroke-width: 1.5; stroke-linecap: square"/>
   </g>
   <g id="line2d_33">
    <path d="M 115.363636 199.559668 
L 119.19211 199.559668 
L 120.149228 201.786801 
L 121.106346 204.527709 
L 122.063465 203.737062 
L 123.020583 196.304986 
L 123.977702 204.580418 
L 124.93482 207.532165 
L 125.891938 207.057777 
L 126.849057 205.792743 
L 127.806175 206.261754 
L 128.763293 207.653445 
L 129.720412 213.762683 
L 130.67753 212.633244 
L 131.634648 212.633244 
L 132.591767 217.40769 
L 133.548885 219.204525 
L 134.506003 218.845158 
L 135.463122 217.048323 
L 136.42024 215.508179 
L 137.377358 215.948044 
L 138.334477 215.083072 
L 139.291595 215.524213 
L 141.205832 215.524213 
L 142.16295 224.241523 
L 143.120069 214.706689 
L 144.077187 218.5311 
L 145.034305 218.373933 
L 145.991424 218.805201 
L 149.819897 218.805201 
L 150.777015 211.512519 
L 151.734134 211.964371 
L 152.691252 210.953003 
L 153.64837 214.179186 
L 154.605489 210.60014 
L 155.562607 210.700958 
L 156.519726 208.130094 
L 157.476844 202.837139 
L 158.433962 203.315017 
L 159.391081 203.315017 
L 160.348199 207.06355 
L 161.305317 209.517617 
L 162.262436 207.574814 
L 163.219554 202.155417 
L 164.176672 202.104291 
L 165.133791 204.09822 
L 166.090909 202.411049 
L 167.048027 202.890206 
L 168.005146 202.890206 
L 168.962264 204.932082 
L 169.919383 206.642879 
L 170.876501 204.687682 
L 171.833619 206.25184 
L 172.790738 204.198883 
L 173.747856 204.345523 
L 174.704974 196.329217 
L 175.662093 195.107219 
L 176.619211 197.404575 
L 177.576329 197.111295 
L 178.533448 193.640822 
L 179.490566 191.783385 
L 180.447684 195.938178 
L 181.404803 192.712103 
L 182.361921 200.532889 
L 183.319039 216.712141 
L 184.276158 211.53087 
L 185.233276 208.891355 
L 187.147513 182.740601 
L 188.104631 177.754849 
L 189.06175 181.323083 
L 190.018868 167.147908 
L 190.975986 167.732854 
L 191.933105 162.713391 
L 192.890223 158.34522 
L 193.847341 154.736731 
L 194.80446 157.965379 
L 195.761578 158.44018 
L 196.718696 154.546811 
L 197.675815 143.009142 
L 198.632933 127.055822 
L 199.590051 127.198263 
L 200.54717 122.497731 
L 201.504288 146.47519 
L 202.461407 139.353173 
L 203.418525 140.872537 
L 204.375643 145.952909 
L 205.332762 139.733014 
L 206.28988 142.771741 
L 207.246998 154.30941 
L 208.204117 142.914182 
L 209.161235 153.217367 
L 210.118353 159.912064 
L 211.075472 157.870419 
L 212.03259 158.483197 
L 212.989708 158.483197 
L 213.946827 163.308183 
L 214.903945 164.882103 
L 215.861063 167.877629 
L 216.818182 182.398316 
L 217.7753 179.199703 
L 218.732419 175.137973 
L 219.689537 174.833343 
L 220.646655 175.848775 
L 222.560892 182.804489 
L 223.51801 181.992143 
L 224.475129 171.076242 
L 225.432247 171.649403 
L 229.26072 171.649403 
L 230.217839 175.898946 
L 231.174957 166.974141 
L 232.132075 165.351449 
L 233.089194 164.377834 
L 234.046312 158.752502 
L 235.003431 152.315824 
L 235.960549 153.559888 
L 236.917667 154.587592 
L 237.874786 155.210219 
L 240.746141 155.210219 
L 241.703259 157.707806 
L 242.660377 150.809195 
L 243.617496 147.816415 
L 244.574614 150.352669 
L 245.531732 150.149769 
L 246.488851 148.628017 
L 247.445969 139.954028 
L 248.403087 143.098983 
L 249.360206 143.606234 
L 250.317324 145.026536 
L 251.274443 151.823697 
L 252.231561 144.77291 
L 253.188679 150.45412 
L 254.145798 151.089147 
L 255.102916 157.956569 
L 256.060034 162.268626 
L 257.017153 160.450289 
L 257.974271 164.138916 
L 258.931389 164.450631 
L 259.888508 163.307676 
L 260.845626 156.086279 
L 261.802744 153.280844 
L 262.759863 154.423799 
L 263.716981 154.164037 
L 264.674099 155.982374 
L 265.631218 156.138232 
L 266.588336 163.255724 
L 267.545455 161.749101 
L 268.502573 159.982716 
L 269.459691 161.541291 
L 270.41681 166.580684 
L 271.373928 163.359629 
L 273.288165 144.448919 
L 274.245283 143.357917 
L 275.202401 139.825147 
L 276.15952 137.954857 
L 277.116638 140.91615 
L 278.073756 141.579791 
L 279.030875 137.378272 
L 279.987993 133.770114 
L 280.945111 126.030878 
L 281.90223 127.861103 
L 282.859348 118.343933 
L 283.816467 104.852561 
L 284.773585 102.394831 
L 285.730703 91.465774 
L 286.687822 99.309595 
L 287.64494 97.531662 
L 288.602058 98.325457 
L 290.516295 98.325457 
L 291.473413 99.481154 
L 292.430532 89.099061 
L 293.38765 90.495483 
L 294.344768 88.370493 
L 295.301887 93.591896 
L 296.259005 103.488277 
L 297.216123 104.264202 
L 298.173242 110.809133 
L 299.13036 111.563095 
L 302.958834 111.563095 
L 303.915952 113.689521 
L 304.87307 116.328994 
L 305.830189 125.237214 
L 306.787307 123.972467 
L 307.744425 130.351192 
L 308.701544 135.025258 
L 309.658662 136.344995 
L 310.61578 125.952071 
L 311.572899 124.35739 
L 312.530017 124.027456 
L 313.487136 119.353389 
L 314.444254 127.821698 
L 315.401372 128.524622 
L 316.358491 129.940809 
L 317.315609 137.620634 
L 318.272727 137.261764 
L 319.229846 136.113379 
L 320.186964 136.687571 
L 321.144082 126.710977 
L 322.101201 112.571488 
L 323.058319 118.026316 
L 324.015437 132.165806 
L 324.972556 132.022257 
L 325.929674 141.998851 
L 327.843911 148.602065 
L 328.801029 166.617353 
L 329.758148 167.203891 
L 330.715266 171.91912 
L 331.672384 168.978799 
L 332.629503 166.668547 
L 333.586621 167.578646 
L 334.543739 168.1623 
L 339.329331 168.1623 
L 340.286449 169.642626 
L 341.243568 170.220088 
L 342.200686 173.246914 
L 343.157804 169.830234 
L 344.114923 162.179842 
L 345.072041 162.779692 
L 346.02916 168.542053 
L 346.986278 171.714414 
L 347.943396 172.285661 
L 348.900515 177.738747 
L 349.857633 175.07499 
L 350.814751 181.290422 
L 351.77187 184.842097 
L 352.728988 187.65384 
L 353.686106 186.173975 
L 354.643225 185.286057 
L 355.600343 185.816588 
L 356.557461 185.816588 
L 357.51458 195.509641 
L 358.471698 196.569952 
L 359.428816 197.066632 
L 360.385935 197.066632 
L 361.343053 189.270493 
L 362.300172 189.789071 
L 363.25729 189.789071 
L 365.171527 203.14552 
L 366.128645 203.622473 
L 367.085763 206.795257 
L 368.042882 204.028835 
L 369.957118 208.38595 
L 370.914237 208.040147 
L 371.871355 208.502417 
L 380.48542 208.502417 
L 381.442539 208.229487 
L 384.313894 218.702986 
L 385.271012 219.370088 
L 386.22813 224.640193 
L 387.185249 226.174527 
L 388.142367 221.971785 
L 389.099485 223.105859 
L 390.056604 222.171916 
L 391.013722 222.59179 
L 391.97084 222.59179 
L 392.927959 227.260355 
L 393.885077 226.662706 
L 394.842196 229.850169 
L 395.799314 230.247008 
L 397.713551 230.247008 
L 398.670669 231.809128 
L 399.627787 229.605793 
L 400.584906 228.309714 
L 401.542024 225.069516 
L 402.499142 227.726478 
L 403.456261 231.096284 
L 404.413379 218.005885 
L 405.370497 210.423822 
L 406.327616 209.516566 
L 407.284734 204.137838 
L 408.241852 206.47078 
L 409.198971 213.01598 
L 410.156089 202.258523 
L 411.113208 201.740091 
L 412.070326 205.239505 
L 413.027444 200.444012 
L 413.984563 208.738919 
L 414.941681 211.784705 
L 415.898799 214.312059 
L 416.855918 217.746669 
L 417.813036 218.179818 
L 418.770154 218.179818 
L 419.727273 214.009044 
L 420.684391 214.453406 
L 421.641509 222.374742 
L 422.598628 218.189635 
L 423.555746 225.119075 
L 424.512864 222.374742 
L 426.427101 218.532676 
L 428.341338 211.740453 
L 429.298456 213.798702 
L 430.255575 214.278961 
L 431.212693 211.809061 
L 432.169811 214.965044 
L 433.12693 214.690611 
L 434.084048 215.132928 
L 435.041166 218.330458 
L 435.998285 218.39609 
L 436.955403 221.808947 
L 437.912521 224.237326 
L 438.86964 227.453288 
L 439.826758 227.857318 
L 453.226415 227.857318 
L 454.183533 228.529898 
L 455.140652 228.327576 
L 456.09777 227.855491 
L 457.054889 228.258315 
L 458.012007 229.254303 
L 458.969125 231.235549 
L 459.926244 231.962006 
L 460.883362 233.41492 
L 461.84048 232.226173 
L 462.797599 233.547003 
L 463.754717 233.150754 
L 464.711835 235.726374 
L 465.668954 234.339502 
L 466.626072 231.169508 
L 468.540309 235.396167 
L 469.497427 242.198446 
L 470.454545 241.273864 
L 471.411664 242.594695 
L 472.368782 245.764689 
L 473.325901 244.97219 
L 474.283019 238.96241 
L 475.240137 239.331912 
L 476.197256 240.772487 
L 477.154374 242.648802 
L 478.111492 240.370419 
L 480.025729 241.203369 
L 484.811321 241.113145 
L 485.768439 243.378164 
L 486.725557 243.734419 
L 489.596913 243.734419 
L 490.554031 241.119641 
L 491.511149 243.015363 
L 492.468268 234.737378 
L 493.425386 223.931763 
L 494.382504 226.143438 
L 495.339623 219.255649 
L 496.296741 218.303577 
L 497.253859 220.080778 
L 498.210978 220.506925 
L 499.168096 225.182522 
L 500.125214 224.38166 
L 501.082333 228.693993 
L 502.039451 226.845851 
L 502.996569 229.125226 
L 503.953688 223.21117 
L 504.910806 226.291408 
L 505.867925 226.96906 
L 506.825043 227.374543 
L 507.782161 225.074578 
L 508.73928 225.485744 
L 509.696398 223.561345 
L 510.653516 219.995004 
L 511.610635 227.646426 
L 512.567753 220.254374 
L 513.524871 218.37394 
L 514.48199 221.097327 
L 515.439108 214.224016 
L 516.396226 212.992008 
L 517.353345 211.954527 
L 518.310463 210.398306 
L 519.267581 212.927165 
L 520.2247 213.374774 
L 521.181818 213.374774 
L 522.138937 218.680745 
L 523.096055 218.739295 
L 524.053173 211.069157 
L 525.010292 211.52234 
L 525.96741 211.52234 
L 526.924528 210.350272 
L 527.881647 210.133753 
L 528.838765 215.546721 
L 529.795883 214.247609 
L 530.753002 210.566791 
L 531.71012 218.036686 
L 532.667238 217.603649 
L 533.624357 219.444058 
L 534.581475 209.05116 
L 535.538593 209.754845 
L 536.495712 209.592456 
L 537.45283 210.050069 
L 538.409949 195.355132 
L 539.367067 192.727437 
L 540.324185 194.404689 
L 541.281304 200.66643 
L 542.238422 203.350033 
L 543.19554 219.228018 
L 544.152659 217.047591 
L 545.109777 220.513912 
L 546.066895 220.93876 
L 552.766724 220.93876 
L 553.723842 220.72248 
L 554.680961 223.979911 
L 555.638079 224.394361 
L 556.595197 225.849204 
L 557.552316 223.939538 
L 559.466552 220.988237 
L 560.423671 214.796291 
L 561.380789 215.085634 
L 562.337907 213.638917 
L 563.295026 214.08439 
L 564.252144 218.340669 
L 565.209262 219.11501 
L 566.166381 215.183739 
L 567.123499 214.468962 
L 568.080617 214.468962 
L 569.037736 210.478126 
L 569.994854 210.835515 
L 570.951973 213.098974 
L 571.909091 215.95808 
L 572.866209 221.914551 
L 573.823328 213.575491 
L 575.737564 214.496243 
L 576.694683 217.96483 
L 577.651801 213.100001 
L 578.608919 203.073707 
L 579.566038 204.260251 
L 580.523156 202.302453 
L 581.480274 203.251688 
L 582.437393 201.471873 
L 583.394511 198.327532 
L 584.35163 197.971569 
L 585.308748 198.208878 
L 586.265866 200.759947 
L 587.222985 203.904287 
L 588.180103 206.218048 
L 589.137221 197.674933 
L 590.09434 194.530592 
L 591.051458 197.496952 
L 592.008576 198.980131 
L 592.965695 197.793588 
L 593.922813 196.073099 
L 595.83705 197.067945 
L 596.794168 200.626095 
L 597.751286 199.962711 
L 598.708405 202.736861 
L 599.665523 201.832247 
L 600.622642 204.54609 
L 601.57976 196.103024 
L 602.536878 198.153482 
L 603.493997 199.540558 
L 604.451115 197.912252 
L 605.408233 197.067945 
L 606.365352 197.563131 
L 607.32247 197.563131 
L 608.279588 196.359299 
L 609.236707 195.771691 
L 610.193825 193.290682 
L 611.150943 191.658439 
L 612.108062 192.703075 
L 613.06518 194.531187 
L 614.022298 194.857635 
L 614.979417 194.596477 
L 615.936535 195.099077 
L 618.80789 195.099077 
L 619.765009 199.420597 
L 620.722127 199.908725 
L 621.679245 211.390348 
L 622.636364 214.987464 
L 622.636364 214.987464 
" clip-path="url(#pb3c577f69e)" style="fill: none; stroke: #2ca02c; stroke-width: 1.5; stroke-linecap: square"/>
   </g>
   <g id="line2d_34">
    <path d="M 115.363636 199.559668 
L 141.205832 199.559668 
L 142.16295 209.226245 
L 143.120069 209.684956 
L 146.948542 209.684956 
L 147.90566 209.47077 
L 148.862779 209.928747 
L 149.819897 208.516034 
L 150.777015 200.214068 
L 151.734134 198.839571 
L 152.691252 197.245153 
L 153.64837 197.739807 
L 154.605489 197.739807 
L 155.562607 198.342024 
L 156.519726 195.561338 
L 157.476844 189.836396 
L 158.433962 192.562559 
L 159.391081 193.271361 
L 160.348199 196.76085 
L 161.305317 199.377966 
L 162.262436 197.306082 
L 163.219554 191.526617 
L 164.176672 191.472094 
L 165.133791 193.598501 
L 167.048027 189.836396 
L 168.005146 185.03835 
L 168.962264 186.783094 
L 169.919383 187.309134 
L 178.533448 187.309134 
L 179.490566 185.91214 
L 180.447684 186.440794 
L 182.361921 186.440794 
L 183.319039 204.505257 
L 184.276158 198.889052 
L 185.233276 196.027966 
L 187.147513 167.682024 
L 188.104631 162.277751 
L 189.06175 166.145515 
L 190.018868 150.780425 
L 190.975986 145.852999 
L 191.933105 139.600997 
L 192.890223 134.726555 
L 193.847341 130.699842 
L 194.80446 134.30269 
L 195.761578 134.832521 
L 196.718696 130.487909 
L 197.675815 117.613024 
L 198.632933 99.810712 
L 199.590051 99.969662 
L 200.54717 94.724338 
L 201.504288 121.480788 
L 202.461407 113.533327 
L 203.418525 115.228786 
L 204.375643 120.897974 
L 205.332762 113.957192 
L 206.28988 117.348108 
L 207.246998 130.222994 
L 208.204117 117.507057 
L 209.161235 129.004383 
L 210.118353 136.474996 
L 211.075472 134.196724 
L 212.03259 134.880524 
L 216.818182 134.880524 
L 217.7753 131.530136 
L 218.732419 126.409964 
L 219.689537 126.025951 
L 220.646655 127.305994 
L 222.560892 136.074289 
L 223.51801 135.050255 
L 224.475129 121.289792 
L 225.432247 127.946016 
L 226.389365 128.648567 
L 273.288165 128.648567 
L 274.245283 128.182329 
L 275.202401 124.404501 
L 276.15952 122.404475 
L 278.073756 128.515667 
L 279.030875 123.348932 
L 279.987993 119.515547 
L 280.945111 111.293216 
L 281.90223 113.237686 
L 282.859348 103.12644 
L 283.816467 88.792916 
L 284.773585 86.18177 
L 285.730703 74.570505 
L 286.687822 82.903949 
L 287.64494 81.015035 
L 288.602058 92.18185 
L 289.559177 100.459738 
L 290.516295 121.460018 
L 291.473413 121.793355 
L 292.430532 112.293229 
L 293.38765 113.571024 
L 294.344768 111.626553 
L 295.301887 116.404395 
L 296.259005 125.460071 
L 297.216123 122.071137 
L 298.173242 127.460097 
L 299.13036 119.404435 
L 300.087479 122.01558 
L 301.044597 122.735923 
L 318.272727 122.735923 
L 319.229846 122.235206 
L 320.186964 122.844656 
L 321.144082 112.255465 
L 322.101201 97.247763 
L 323.058319 103.037537 
L 324.015437 118.045238 
L 324.972556 117.892876 
L 325.929674 128.482066 
L 327.843911 135.490739 
L 328.801029 154.612227 
L 329.758148 150.650803 
L 330.715266 155.145495 
L 331.672384 151.945884 
L 332.629503 149.431903 
L 333.586621 150.422259 
L 334.543739 145.165755 
L 335.500858 146.537017 
L 336.457976 147.183795 
L 338.372213 147.183795 
L 339.329331 148.242662 
L 340.286449 148.884324 
L 348.900515 148.884324 
L 349.857633 146.452709 
L 350.814751 147.09974 
L 354.643225 147.09974 
L 355.600343 146.847822 
L 356.557461 147.493668 
L 357.51458 147.493668 
L 358.471698 149.499346 
L 359.428816 150.137238 
L 360.385935 150.137238 
L 361.343053 140.124567 
L 362.300172 137.082095 
L 363.25729 129.285763 
L 365.171527 146.684895 
L 366.128645 144.878428 
L 367.085763 148.58644 
L 368.042882 144.783351 
L 369.957118 150.773216 
L 371.871355 149.822443 
L 372.828473 147.635667 
L 373.785592 148.27915 
L 404.413379 148.27915 
L 405.370497 137.704212 
L 406.327616 136.362068 
L 407.284734 128.40507 
L 408.241852 131.856298 
L 409.198971 141.538909 
L 410.156089 125.624914 
L 411.113208 124.857975 
L 412.070326 130.034817 
L 413.027444 122.940626 
L 413.984563 135.211658 
L 414.941681 139.717428 
L 415.898799 143.456258 
L 416.855918 148.537232 
L 417.813036 160.808265 
L 418.770154 164.834697 
L 419.727273 158.507446 
L 420.684391 159.118313 
L 474.283019 159.118313 
L 475.240137 163.851368 
L 476.197256 165.587797 
L 477.154374 168.626548 
L 478.111492 164.936636 
L 479.068611 165.696324 
L 480.025729 164.394002 
L 480.982847 164.068421 
L 481.939966 164.662606 
L 492.468268 164.662606 
L 493.425386 148.555799 
L 494.382504 151.973766 
L 495.339623 141.329241 
L 496.296741 139.857891 
L 497.253859 142.604412 
L 498.210978 137.30755 
L 499.168096 144.075762 
L 500.125214 142.800592 
L 501.082333 149.666893 
L 502.039451 146.724193 
L 502.996569 150.353524 
L 503.953688 140.936881 
L 504.910806 145.841383 
L 505.867925 146.920373 
L 506.825043 147.705093 
L 507.782161 143.389132 
L 508.73928 156.042745 
L 509.696398 152.511504 
L 510.653516 153.140359 
L 512.567753 153.140359 
L 513.524871 151.005667 
L 514.48199 155.005314 
L 515.439108 155.626688 
L 516.396226 154.531252 
L 517.353345 153.087088 
L 518.310463 150.920841 
L 519.267581 154.440992 
L 520.2247 133.681128 
L 521.181818 133.500608 
L 522.138937 140.992211 
L 523.096055 141.082471 
L 524.053173 129.258375 
L 525.010292 112.379703 
L 525.96741 111.747881 
L 526.924528 109.040073 
L 527.881647 108.679032 
L 528.838765 117.705059 
L 529.795883 115.538813 
L 530.753002 109.401114 
L 531.71012 121.857032 
L 532.667238 121.13495 
L 533.624357 124.203799 
L 534.581475 106.873826 
L 535.538593 108.04721 
L 536.495712 107.776429 
L 537.45283 108.539489 
L 538.409949 108.539489 
L 539.367067 105.316689 
L 540.324185 107.859394 
L 541.281304 108.622206 
L 543.19554 108.622206 
L 544.152659 105.526258 
L 545.109777 106.296069 
L 593.922813 106.296069 
L 594.879931 112.713485 
L 595.83705 112.713485 
L 596.794168 118.090017 
L 597.751286 117.087613 
L 598.708405 121.279485 
L 599.665523 119.91257 
L 600.622642 124.013315 
L 601.57976 124.727665 
L 605.408233 124.727665 
L 606.365352 123.277924 
L 607.32247 144.810921 
L 608.279588 142.562496 
L 609.236707 141.784195 
L 610.193825 138.498034 
L 611.150943 136.336087 
L 612.108062 137.719733 
L 613.06518 140.141115 
L 614.022298 140.573504 
L 614.979417 141.238173 
L 615.936535 140.870939 
L 616.893654 139.4119 
L 617.850772 142.844932 
L 618.80789 143.502787 
L 621.679245 143.502787 
L 622.636364 149.360143 
L 622.636364 149.360143 
" clip-path="url(#pb3c577f69e)" style="fill: none; stroke: #d62728; stroke-width: 1.5; stroke-linecap: square"/>
   </g>
   <g id="line2d_35">
    <path d="M 115.363636 200.624933 
L 116.320755 203.040156 
L 117.277873 204.510292 
L 118.234991 203.355185 
L 119.19211 200.677437 
L 120.149228 202.410098 
L 121.106346 205.140351 
L 122.063465 204.352778 
L 123.020583 196.949592 
L 123.977702 205.192856 
L 124.93482 208.133128 
L 125.891938 207.660584 
L 126.849057 206.400467 
L 127.806175 203.197671 
L 128.763293 204.142758 
L 129.720412 210.390837 
L 130.67753 209.23573 
L 131.634648 209.23573 
L 132.591767 214.118682 
L 133.548885 215.956352 
L 134.506003 215.588818 
L 135.463122 213.751148 
L 136.42024 212.176002 
L 137.377358 209.498254 
L 138.334477 208.133128 
L 139.291595 209.708274 
L 140.248714 211.808468 
L 141.205832 215.641323 
L 142.16295 223.937091 
L 143.120069 214.381206 
L 144.077187 218.214061 
L 145.034305 218.056547 
L 145.991424 220.104236 
L 147.90566 218.896624 
L 149.819897 215.431304 
L 150.777015 207.503069 
L 151.734134 206.190448 
L 152.691252 204.667807 
L 153.64837 208.028118 
L 154.605489 204.300273 
L 155.562607 204.405283 
L 156.519726 201.727535 
L 157.476844 196.214524 
L 158.433962 198.839767 
L 159.391081 199.52233 
L 160.348199 202.882642 
L 161.305317 205.402875 
L 162.262436 203.40769 
L 163.219554 197.842175 
L 164.176672 197.78967 
L 165.133791 199.83736 
L 167.048027 196.214524 
L 168.005146 191.594096 
L 169.919383 195.111922 
L 170.876501 193.011728 
L 171.833619 194.691883 
L 172.790738 192.486679 
L 173.747856 192.644194 
L 174.704974 184.033396 
L 175.662093 182.720775 
L 176.619211 185.188503 
L 177.576329 184.873474 
L 178.533448 181.145629 
L 179.490566 179.150444 
L 180.447684 183.613357 
L 181.404803 180.148036 
L 182.361921 188.548814 
L 183.319039 205.927924 
L 184.276158 200.362408 
L 185.233276 197.527146 
L 187.147513 169.437045 
L 188.104631 164.081549 
L 189.06175 167.914404 
L 190.018868 152.687994 
L 190.975986 147.805042 
L 191.933105 141.609468 
L 192.890223 136.779021 
L 193.847341 132.788651 
L 194.80446 136.358982 
L 195.761578 136.88403 
L 196.718696 132.578632 
L 197.675815 119.81995 
L 198.632933 102.178317 
L 199.590051 102.335831 
L 200.54717 97.13785 
L 201.504288 123.652805 
L 202.461407 115.777076 
L 203.418525 117.457232 
L 204.375643 123.075252 
L 205.332762 116.197115 
L 206.28988 119.557426 
L 207.246998 132.316107 
L 208.204117 119.714941 
L 209.161235 131.108496 
L 210.118353 138.511681 
L 211.075472 136.253972 
L 212.03259 153.160538 
L 212.989708 152.162945 
L 213.946827 156.520849 
L 214.903945 158.148499 
L 215.861063 161.246286 
L 216.818182 176.262677 
L 217.7753 172.95487 
L 218.732419 168.754482 
L 219.689537 168.439452 
L 220.646655 169.48955 
L 222.560892 176.682716 
L 223.51801 175.842638 
L 224.475129 164.554093 
L 225.432247 170.014598 
L 226.389365 164.291568 
L 228.303602 171.537239 
L 229.26072 177.785318 
L 230.217839 181.355648 
L 231.174957 172.692346 
L 232.132075 171.1172 
L 233.089194 170.172113 
L 234.046312 164.711607 
L 235.003431 158.463529 
L 235.960549 159.67114 
L 236.917667 160.668733 
L 237.874786 162.348888 
L 238.831904 166.759297 
L 239.789022 159.77615 
L 240.746141 148.592615 
L 241.703259 150.535294 
L 242.660377 143.394633 
L 243.617496 140.296846 
L 244.574614 142.92209 
L 245.531732 142.71207 
L 246.488851 141.136924 
L 247.445969 132.158593 
L 248.403087 135.413894 
L 249.360206 135.938943 
L 250.317324 137.409079 
L 251.274443 144.444731 
L 252.231561 137.146555 
L 254.145798 149.485197 
L 255.102916 155.785781 
L 256.060034 160.143684 
L 257.017153 158.306014 
L 257.974271 162.033859 
L 258.931389 162.348888 
L 259.888508 161.193781 
L 260.845626 153.895606 
L 261.802744 151.060343 
L 262.759863 152.21545 
L 263.716981 151.952926 
L 264.674099 153.790596 
L 265.631218 153.94811 
L 266.588336 161.141277 
L 267.545455 159.618636 
L 268.502573 157.83347 
L 269.459691 159.408616 
L 270.41681 164.501588 
L 271.373928 161.246286 
L 273.288165 142.134517 
L 274.245283 141.031915 
L 275.202401 137.461584 
L 276.15952 135.571409 
L 278.073756 141.346944 
L 279.030875 136.463992 
L 279.987993 132.841156 
L 280.945111 125.070437 
L 281.90223 126.908107 
L 282.859348 117.352222 
L 283.816467 103.805968 
L 284.773585 101.338239 
L 285.730703 90.364723 
L 286.687822 98.240452 
L 287.64494 96.455287 
L 288.602058 107.008764 
L 289.559177 114.831989 
L 290.516295 134.678826 
L 291.473413 134.993855 
L 292.430532 126.015524 
L 293.38765 127.223136 
L 294.344768 125.385466 
L 295.301887 129.900884 
L 296.259005 138.459176 
L 297.216123 135.25638 
L 298.173242 140.349351 
L 299.13036 132.736146 
L 300.087479 135.203875 
L 301.044597 132.158593 
L 302.001715 121.710125 
L 302.958834 123.6003 
L 303.915952 124.912922 
L 304.87307 127.433155 
L 305.830189 135.938943 
L 306.787307 134.731331 
L 307.744425 140.821895 
L 308.701544 145.284808 
L 309.658662 146.544925 
L 310.61578 136.621506 
L 311.572899 135.098865 
L 312.530017 134.783836 
L 313.487136 130.320923 
L 314.444254 138.406671 
L 315.401372 122.812728 
L 316.358491 123.547796 
L 317.315609 131.439074 
L 318.272727 131.070323 
L 319.229846 129.890318 
L 320.186964 130.480321 
L 321.144082 120.229034 
L 322.101201 105.700233 
L 323.058319 111.305253 
L 324.015437 125.834054 
L 324.972556 125.686554 
L 325.929674 135.93784 
L 327.843911 142.722864 
L 328.801029 161.234179 
L 329.758148 157.399165 
L 330.715266 161.750431 
L 331.672384 158.65292 
L 332.629503 156.219161 
L 333.586621 157.177915 
L 334.543739 152.089147 
L 335.500858 153.416651 
L 336.457976 157.472916 
L 337.415094 158.57917 
L 338.372213 171.264214 
L 339.329331 171.632966 
L 340.286449 172.517969 
L 341.243568 172.149217 
L 342.200686 174.582976 
L 343.157804 171.190464 
L 344.114923 163.594187 
L 345.072041 163.446687 
L 346.02916 168.609205 
L 346.986278 171.780466 
L 347.943396 173.476722 
L 348.900515 178.344239 
L 349.857633 175.68923 
L 350.814751 181.884252 
L 351.77187 185.424264 
L 352.728988 188.226774 
L 353.686106 186.751769 
L 355.600343 185.129263 
L 356.557461 190.955534 
L 357.51458 199.879315 
L 358.471698 200.911819 
L 359.428816 197.445557 
L 360.385935 198.183059 
L 361.343053 189.92303 
L 362.300172 187.563022 
L 363.25729 181.5155 
L 365.171527 195.011798 
L 366.128645 193.610543 
L 367.085763 196.486803 
L 368.042882 193.536793 
L 369.957118 198.183059 
L 371.871355 197.445557 
L 372.828473 195.749301 
L 373.785592 195.6018 
L 374.74271 198.25681 
L 375.699828 200.395567 
L 376.656947 200.616818 
L 377.614065 197.224306 
L 378.571184 194.864298 
L 379.528302 191.176785 
L 380.48542 192.79929 
L 381.442539 191.988037 
L 384.313894 203.566828 
L 385.271012 204.304331 
L 386.22813 210.130601 
L 387.185249 211.826857 
L 388.142367 207.180591 
L 389.099485 208.434345 
L 390.056604 207.401842 
L 391.013722 209.245598 
L 391.97084 207.623093 
L 392.927959 212.343109 
L 393.885077 211.679357 
L 394.842196 215.219369 
L 395.799314 217.579378 
L 396.756432 220.898139 
L 397.713551 212.49061 
L 398.670669 213.818114 
L 399.627787 211.310606 
L 400.584906 209.8356 
L 401.542024 206.148087 
L 402.499142 209.171848 
L 403.456261 213.006862 
L 404.413379 198.109309 
L 405.370497 189.480529 
L 406.327616 188.448025 
L 407.284734 182.326753 
L 408.241852 184.981763 
L 409.198971 192.430539 
L 410.156089 180.187996 
L 411.113208 179.597994 
L 412.070326 183.580508 
L 413.027444 178.122989 
L 413.984563 187.563022 
L 414.941681 191.029284 
L 415.898799 193.905544 
L 416.855918 197.814308 
L 417.813036 207.254341 
L 418.770154 210.351852 
L 419.727273 205.484335 
L 420.684391 203.861829 
L 421.641509 211.900608 
L 422.598628 207.401842 
L 423.555746 214.850618 
L 424.512864 211.900608 
L 426.427101 207.770593 
L 428.341338 200.469317 
L 429.298456 202.681825 
L 430.255575 203.198077 
L 431.212693 200.543068 
L 432.169811 203.93558 
L 433.12693 203.640578 
L 434.084048 197.445557 
L 435.041166 200.543068 
L 435.998285 200.616818 
L 436.955403 204.451831 
L 437.912521 207.180591 
L 438.86964 210.794354 
L 439.826758 213.154362 
L 440.783877 214.924368 
L 441.740995 211.089355 
L 442.698113 213.154362 
L 443.655232 215.809371 
L 444.61235 213.670614 
L 445.569468 213.818114 
L 446.526587 217.431877 
L 447.483705 219.054383 
L 448.440823 216.989376 
L 449.397942 217.431877 
L 450.35506 218.24313 
L 451.312178 216.546874 
L 452.269297 215.44062 
L 454.183533 216.030622 
L 455.140652 215.809371 
L 456.09777 215.29312 
L 457.054889 213.080612 
L 458.012007 213.744364 
L 458.969125 215.956872 
L 459.926244 216.768125 
L 460.883362 218.39063 
L 461.84048 217.063126 
L 462.797599 218.538131 
L 463.754717 218.095629 
L 464.711835 220.97189 
L 465.668954 219.423134 
L 466.626072 215.883122 
L 468.540309 220.603138 
L 469.497427 228.199415 
L 470.454545 227.166911 
L 471.411664 228.641917 
L 472.368782 232.181929 
L 473.325901 231.296926 
L 474.283019 224.585652 
L 475.240137 227.388162 
L 476.197256 228.568166 
L 477.154374 230.633174 
L 478.111492 228.125665 
L 479.068611 228.641917 
L 480.025729 227.756914 
L 480.982847 227.535663 
L 481.939966 225.765656 
L 482.897084 225.101904 
L 483.854202 224.733153 
L 484.811321 224.216901 
L 486.725557 229.379419 
L 487.682676 224.806903 
L 488.639794 224.364402 
L 489.596913 224.364402 
L 490.554031 220.898139 
L 491.511149 223.110647 
L 492.468268 213.449363 
L 493.425386 200.838069 
L 494.382504 203.419328 
L 495.339623 195.380549 
L 496.296741 194.269381 
L 497.253859 196.343562 
L 498.210978 192.343356 
L 499.168096 197.454731 
L 500.125214 196.491718 
L 501.082333 201.677171 
L 502.039451 199.454834 
L 502.996569 202.195716 
L 503.953688 195.084238 
L 504.910806 198.788133 
L 505.867925 199.60299 
L 506.825043 200.195613 
L 507.782161 196.936185 
L 508.73928 206.492234 
L 509.696398 203.825429 
L 510.653516 199.751145 
L 511.610635 208.492337 
L 512.567753 200.047457 
L 513.524871 197.899198 
L 514.48199 201.01047 
L 515.439108 193.158213 
L 516.396226 191.750733 
L 517.353345 190.565487 
L 518.310463 188.787617 
L 519.267581 191.676655 
L 520.2247 174.63874 
L 521.181818 174.490584 
L 522.138937 180.639049 
L 523.096055 180.713127 
L 524.053173 171.008923 
L 525.010292 157.156357 
L 525.96741 156.637812 
L 526.924528 154.415475 
L 527.881647 154.119163 
L 528.838765 161.526952 
L 529.795883 159.749083 
L 530.753002 154.711786 
L 531.71012 164.934536 
L 532.667238 164.341912 
L 533.624357 166.860561 
L 534.581475 152.637605 
L 535.538593 153.600618 
L 536.495712 153.378384 
L 537.45283 161.230641 
L 538.409949 141.155532 
L 539.367067 137.673871 
L 540.324185 139.896208 
L 541.281304 148.192932 
L 542.238422 151.748671 
L 543.19554 172.786792 
L 544.152659 169.897754 
L 545.109777 174.490584 
L 546.066895 177.824089 
L 547.024014 176.786998 
L 547.981132 172.416403 
L 548.93825 169.823677 
L 549.895369 171.675624 
L 550.852487 176.04622 
L 551.809605 184.194788 
L 552.766724 182.861386 
L 553.723842 182.046529 
L 554.680961 186.194891 
L 555.638079 186.343047 
L 556.595197 187.676449 
L 557.552316 185.231878 
L 559.466552 181.453906 
L 560.423671 173.527571 
L 561.380789 173.897961 
L 562.337907 172.046013 
L 563.295026 178.564868 
L 564.252144 183.305853 
L 565.209262 184.268866 
L 566.166381 179.379725 
L 567.123499 178.49079 
L 568.080617 178.49079 
L 569.037736 173.527571 
L 569.994854 173.972039 
L 570.951973 176.786998 
L 571.909091 180.342737 
L 572.866209 187.750527 
L 573.823328 177.379622 
L 574.780446 177.972245 
L 575.737564 178.342634 
L 576.694683 182.120607 
L 577.651801 176.04622 
L 578.608919 163.527056 
L 579.566038 165.008613 
L 580.523156 162.564043 
L 581.480274 163.749289 
L 582.437393 161.526952 
L 583.394511 157.600824 
L 584.35163 157.156357 
L 585.308748 157.452668 
L 586.265866 160.638018 
L 587.222985 164.564146 
L 588.180103 167.453184 
L 589.137221 156.785967 
L 590.09434 152.859839 
L 591.051458 156.563734 
L 592.008576 158.415681 
L 592.965695 156.934123 
L 593.922813 154.785864 
L 594.879931 159.378694 
L 595.83705 159.378694 
L 596.794168 163.749289 
L 597.751286 162.934432 
L 598.708405 166.342016 
L 599.665523 165.230847 
L 600.622642 168.564352 
L 601.57976 158.193447 
L 602.536878 160.712096 
L 603.493997 162.415887 
L 604.451115 160.415784 
L 605.408233 159.378694 
L 606.365352 157.526746 
L 607.32247 175.972142 
L 608.279588 174.046116 
L 609.236707 173.379415 
L 610.193825 170.564455 
L 611.150943 168.712508 
L 612.108062 169.897754 
L 613.06518 171.971935 
L 614.022298 172.342325 
L 614.979417 172.046013 
L 615.936535 171.157079 
L 616.893654 169.897754 
L 617.850772 172.86087 
L 618.80789 181.30575 
L 619.765009 185.454112 
L 620.722127 185.602268 
L 621.679245 197.602886 
L 622.636364 201.529015 
L 622.636364 201.529015 
" clip-path="url(#pb3c577f69e)" style="fill: none; stroke: #9467bd; stroke-width: 1.5; stroke-linecap: square"/>
   </g>
   <g id="patch_3">
    <path d="M 90 256.32 
L 90 34.56 
" style="fill: none; stroke: #000000; stroke-width: 0.8; stroke-linejoin: miter; stroke-linecap: square"/>
   </g>
   <g id="patch_4">
    <path d="M 648 256.32 
L 648 34.56 
" style="fill: none; stroke: #000000; stroke-width: 0.8; stroke-linejoin: miter; stroke-linecap: square"/>
   </g>
   <g id="patch_5">
    <path d="M 90 256.32 
L 648 256.32 
" style="fill: none; stroke: #000000; stroke-width: 0.8; stroke-linejoin: miter; stroke-linecap: square"/>
   </g>
   <g id="patch_6">
    <path d="M 90 34.56 
L 648 34.56 
" style="fill: none; stroke: #000000; stroke-width: 0.8; stroke-linejoin: miter; stroke-linecap: square"/>
   </g>
   <g id="legend_1">
    <g id="patch_7">
     <path d="M 97 113.255313 
L 167.325 113.255313 
Q 169.325 113.255313 169.325 111.255313 
L 169.325 41.56 
Q 169.325 39.56 167.325 39.56 
L 97 39.56 
Q 95 39.56 95 41.56 
L 95 111.255313 
Q 95 113.255313 97 113.255313 
z
" style="fill: #ffffff; opacity: 0.8; stroke: #cccccc; stroke-linejoin: miter"/>
    </g>
    <g id="line2d_36">
     <path d="M 99 47.06 
L 109 47.06 
L 119 47.06 
" style="fill: none; stroke: #1f77b4; stroke-width: 1.5; stroke-linecap: square"/>
    </g>
    <g id="text_18">
     <!-- BC -->
     <g transform="translate(127 50.56)scale(0.1 -0.1)">
      <defs>
       <path id="TimesNewRomanPSMT-42" d="M 2956 2163 
Q 3397 2069 3616 1863 
Q 3919 1575 3919 1159 
Q 3919 844 3719 555 
Q 3519 266 3170 133 
Q 2822 0 2106 0 
L 106 0 
L 106 116 
L 266 116 
Q 531 116 647 284 
Q 719 394 719 750 
L 719 3488 
Q 719 3881 628 3984 
Q 506 4122 266 4122 
L 106 4122 
L 106 4238 
L 1938 4238 
Q 2450 4238 2759 4163 
Q 3228 4050 3475 3764 
Q 3722 3478 3722 3106 
Q 3722 2788 3528 2536 
Q 3334 2284 2956 2163 
z
M 1319 2331 
Q 1434 2309 1582 2298 
Q 1731 2288 1909 2288 
Q 2366 2288 2595 2386 
Q 2825 2484 2947 2687 
Q 3069 2891 3069 3131 
Q 3069 3503 2766 3765 
Q 2463 4028 1881 4028 
Q 1569 4028 1319 3959 
L 1319 2331 
z
M 1319 306 
Q 1681 222 2034 222 
Q 2600 222 2897 476 
Q 3194 731 3194 1106 
Q 3194 1353 3059 1581 
Q 2925 1809 2622 1940 
Q 2319 2072 1872 2072 
Q 1678 2072 1540 2065 
Q 1403 2059 1319 2044 
L 1319 306 
z
" transform="scale(0.015625)"/>
       <path id="TimesNewRomanPSMT-43" d="M 3853 4334 
L 3950 2894 
L 3853 2894 
Q 3659 3541 3300 3825 
Q 2941 4109 2438 4109 
Q 2016 4109 1675 3895 
Q 1334 3681 1139 3212 
Q 944 2744 944 2047 
Q 944 1472 1128 1050 
Q 1313 628 1683 403 
Q 2053 178 2528 178 
Q 2941 178 3256 354 
Q 3572 531 3950 1056 
L 4047 994 
Q 3728 428 3303 165 
Q 2878 -97 2294 -97 
Q 1241 -97 663 684 
Q 231 1266 231 2053 
Q 231 2688 515 3219 
Q 800 3750 1298 4042 
Q 1797 4334 2388 4334 
Q 2847 4334 3294 4109 
Q 3425 4041 3481 4041 
Q 3566 4041 3628 4100 
Q 3709 4184 3744 4334 
L 3853 4334 
z
" transform="scale(0.015625)"/>
      </defs>
      <use xlink:href="#TimesNewRomanPSMT-42"/>
      <use xlink:href="#TimesNewRomanPSMT-43" x="66.699219"/>
     </g>
    </g>
    <g id="line2d_37">
     <path d="M 99 61.199062 
L 109 61.199062 
L 119 61.199062 
" style="fill: none; stroke: #ff7f0e; stroke-width: 1.5; stroke-linecap: square"/>
    </g>
    <g id="text_19">
     <!-- DQN -->
     <g transform="translate(127 64.699062)scale(0.1 -0.1)">
      <defs>
       <path id="TimesNewRomanPSMT-44" d="M 109 0 
L 109 116 
L 269 116 
Q 538 116 650 288 
Q 719 391 719 750 
L 719 3488 
Q 719 3884 631 3984 
Q 509 4122 269 4122 
L 109 4122 
L 109 4238 
L 1834 4238 
Q 2784 4238 3279 4022 
Q 3775 3806 4076 3303 
Q 4378 2800 4378 2141 
Q 4378 1256 3841 663 
Q 3238 0 2003 0 
L 109 0 
z
M 1319 306 
Q 1716 219 1984 219 
Q 2709 219 3187 728 
Q 3666 1238 3666 2109 
Q 3666 2988 3187 3494 
Q 2709 4000 1959 4000 
Q 1678 4000 1319 3909 
L 1319 306 
z
" transform="scale(0.015625)"/>
       <path id="TimesNewRomanPSMT-51" d="M 2819 -47 
Q 3138 -597 3508 -856 
Q 3878 -1116 4350 -1153 
L 4350 -1253 
Q 3919 -1238 3428 -1080 
Q 2938 -922 2498 -642 
Q 2059 -363 1741 -47 
Q 1291 134 1028 338 
Q 647 641 436 1083 
Q 225 1525 225 2128 
Q 225 3078 840 3706 
Q 1456 4334 2331 4334 
Q 3163 4334 3770 3704 
Q 4378 3075 4378 2116 
Q 4378 1338 3945 750 
Q 3513 163 2819 -47 
z
M 2294 4094 
Q 1725 4094 1378 3688 
Q 941 3178 941 2128 
Q 941 1100 1384 544 
Q 1728 116 2294 116 
Q 2881 116 3241 544 
Q 3663 1050 3663 2038 
Q 3663 2797 3431 3316 
Q 3253 3716 2958 3905 
Q 2663 4094 2294 4094 
z
" transform="scale(0.015625)"/>
       <path id="TimesNewRomanPSMT-4e" d="M -84 4238 
L 1066 4238 
L 3656 1059 
L 3656 3503 
Q 3656 3894 3569 3991 
Q 3453 4122 3203 4122 
L 3056 4122 
L 3056 4238 
L 4531 4238 
L 4531 4122 
L 4381 4122 
Q 4113 4122 4000 3959 
Q 3931 3859 3931 3503 
L 3931 -69 
L 3819 -69 
L 1025 3344 
L 1025 734 
Q 1025 344 1109 247 
Q 1228 116 1475 116 
L 1625 116 
L 1625 0 
L 150 0 
L 150 116 
L 297 116 
Q 569 116 681 278 
Q 750 378 750 734 
L 750 3681 
Q 566 3897 470 3965 
Q 375 4034 191 4094 
Q 100 4122 -84 4122 
L -84 4238 
z
" transform="scale(0.015625)"/>
      </defs>
      <use xlink:href="#TimesNewRomanPSMT-44"/>
      <use xlink:href="#TimesNewRomanPSMT-51" x="72.216797"/>
      <use xlink:href="#TimesNewRomanPSMT-4e" x="144.433594"/>
     </g>
    </g>
    <g id="line2d_38">
     <path d="M 99 75.338125 
L 109 75.338125 
L 119 75.338125 
" style="fill: none; stroke: #2ca02c; stroke-width: 1.5; stroke-linecap: square"/>
    </g>
    <g id="text_20">
     <!-- DDQN -->
     <g transform="translate(127 78.838125)scale(0.1 -0.1)">
      <use xlink:href="#TimesNewRomanPSMT-44"/>
      <use xlink:href="#TimesNewRomanPSMT-44" x="72.216797"/>
      <use xlink:href="#TimesNewRomanPSMT-51" x="144.433594"/>
      <use xlink:href="#TimesNewRomanPSMT-4e" x="216.650391"/>
     </g>
    </g>
    <g id="line2d_39">
     <path d="M 99 89.477188 
L 109 89.477188 
L 119 89.477188 
" style="fill: none; stroke: #d62728; stroke-width: 1.5; stroke-linecap: square"/>
    </g>
    <g id="text_21">
     <!-- ILDDQN -->
     <g transform="translate(127 92.977188)scale(0.1 -0.1)">
      <defs>
       <path id="TimesNewRomanPSMT-49" d="M 1975 116 
L 1975 0 
L 159 0 
L 159 116 
L 309 116 
Q 572 116 691 269 
Q 766 369 766 750 
L 766 3488 
Q 766 3809 725 3913 
Q 694 3991 597 4047 
Q 459 4122 309 4122 
L 159 4122 
L 159 4238 
L 1975 4238 
L 1975 4122 
L 1822 4122 
Q 1563 4122 1444 3969 
Q 1366 3869 1366 3488 
L 1366 750 
Q 1366 428 1406 325 
Q 1438 247 1538 191 
Q 1672 116 1822 116 
L 1975 116 
z
" transform="scale(0.015625)"/>
       <path id="TimesNewRomanPSMT-4c" d="M 3669 1172 
L 3772 1150 
L 3409 0 
L 128 0 
L 128 116 
L 288 116 
Q 556 116 672 291 
Q 738 391 738 753 
L 738 3488 
Q 738 3884 650 3984 
Q 528 4122 288 4122 
L 128 4122 
L 128 4238 
L 2047 4238 
L 2047 4122 
Q 1709 4125 1573 4059 
Q 1438 3994 1388 3894 
Q 1338 3794 1338 3416 
L 1338 753 
Q 1338 494 1388 397 
Q 1425 331 1503 300 
Q 1581 269 1991 269 
L 2300 269 
Q 2788 269 2984 341 
Q 3181 413 3343 595 
Q 3506 778 3669 1172 
z
" transform="scale(0.015625)"/>
      </defs>
      <use xlink:href="#TimesNewRomanPSMT-49"/>
      <use xlink:href="#TimesNewRomanPSMT-4c" x="33.300781"/>
      <use xlink:href="#TimesNewRomanPSMT-44" x="94.384766"/>
      <use xlink:href="#TimesNewRomanPSMT-44" x="166.601562"/>
      <use xlink:href="#TimesNewRomanPSMT-51" x="238.818359"/>
      <use xlink:href="#TimesNewRomanPSMT-4e" x="311.035156"/>
     </g>
    </g>
    <g id="line2d_40">
     <path d="M 99 103.61625 
L 109 103.61625 
L 119 103.61625 
" style="fill: none; stroke: #9467bd; stroke-width: 1.5; stroke-linecap: square"/>
    </g>
    <g id="text_22">
     <!-- Market -->
     <g transform="translate(127 107.11625)scale(0.1 -0.1)">
      <defs>
       <path id="TimesNewRomanPSMT-4d" d="M 2619 0 
L 981 3566 
L 981 734 
Q 981 344 1066 247 
Q 1181 116 1431 116 
L 1581 116 
L 1581 0 
L 106 0 
L 106 116 
L 256 116 
Q 525 116 638 278 
Q 706 378 706 734 
L 706 3503 
Q 706 3784 644 3909 
Q 600 4000 483 4061 
Q 366 4122 106 4122 
L 106 4238 
L 1306 4238 
L 2844 922 
L 4356 4238 
L 5556 4238 
L 5556 4122 
L 5409 4122 
Q 5138 4122 5025 3959 
Q 4956 3859 4956 3503 
L 4956 734 
Q 4956 344 5044 247 
Q 5159 116 5409 116 
L 5556 116 
L 5556 0 
L 3756 0 
L 3756 116 
L 3906 116 
Q 4178 116 4288 278 
Q 4356 378 4356 734 
L 4356 3566 
L 2722 0 
L 2619 0 
z
" transform="scale(0.015625)"/>
       <path id="TimesNewRomanPSMT-61" d="M 1822 413 
Q 1381 72 1269 19 
Q 1100 -59 909 -59 
Q 613 -59 420 144 
Q 228 347 228 678 
Q 228 888 322 1041 
Q 450 1253 767 1440 
Q 1084 1628 1822 1897 
L 1822 2009 
Q 1822 2438 1686 2597 
Q 1550 2756 1291 2756 
Q 1094 2756 978 2650 
Q 859 2544 859 2406 
L 866 2225 
Q 866 2081 792 2003 
Q 719 1925 600 1925 
Q 484 1925 411 2006 
Q 338 2088 338 2228 
Q 338 2497 613 2722 
Q 888 2947 1384 2947 
Q 1766 2947 2009 2819 
Q 2194 2722 2281 2516 
Q 2338 2381 2338 1966 
L 2338 994 
Q 2338 584 2353 492 
Q 2369 400 2405 369 
Q 2441 338 2488 338 
Q 2538 338 2575 359 
Q 2641 400 2828 588 
L 2828 413 
Q 2478 -56 2159 -56 
Q 2006 -56 1915 50 
Q 1825 156 1822 413 
z
M 1822 616 
L 1822 1706 
Q 1350 1519 1213 1441 
Q 966 1303 859 1153 
Q 753 1003 753 825 
Q 753 600 887 451 
Q 1022 303 1197 303 
Q 1434 303 1822 616 
z
" transform="scale(0.015625)"/>
       <path id="TimesNewRomanPSMT-72" d="M 1038 2947 
L 1038 2303 
Q 1397 2947 1775 2947 
Q 1947 2947 2059 2842 
Q 2172 2738 2172 2600 
Q 2172 2478 2090 2393 
Q 2009 2309 1897 2309 
Q 1788 2309 1652 2417 
Q 1516 2525 1450 2525 
Q 1394 2525 1328 2463 
Q 1188 2334 1038 2041 
L 1038 669 
Q 1038 431 1097 309 
Q 1138 225 1241 169 
Q 1344 113 1538 113 
L 1538 0 
L 72 0 
L 72 113 
Q 291 113 397 181 
Q 475 231 506 341 
Q 522 394 522 644 
L 522 1753 
Q 522 2253 501 2348 
Q 481 2444 426 2487 
Q 372 2531 291 2531 
Q 194 2531 72 2484 
L 41 2597 
L 906 2947 
L 1038 2947 
z
" transform="scale(0.015625)"/>
       <path id="TimesNewRomanPSMT-6b" d="M 1047 4444 
L 1047 1597 
L 1775 2259 
Q 2006 2472 2044 2528 
Q 2069 2566 2069 2603 
Q 2069 2666 2017 2711 
Q 1966 2756 1847 2763 
L 1847 2863 
L 3091 2863 
L 3091 2763 
Q 2834 2756 2664 2684 
Q 2494 2613 2291 2428 
L 1556 1750 
L 2291 822 
Q 2597 438 2703 334 
Q 2853 188 2966 144 
Q 3044 113 3238 113 
L 3238 0 
L 1847 0 
L 1847 113 
Q 1966 116 2008 148 
Q 2050 181 2050 241 
Q 2050 313 1925 472 
L 1047 1594 
L 1047 644 
Q 1047 366 1086 278 
Q 1125 191 1197 153 
Q 1269 116 1509 113 
L 1509 0 
L 53 0 
L 53 113 
Q 272 113 381 166 
Q 447 200 481 272 
Q 528 375 528 628 
L 528 3234 
Q 528 3731 506 3842 
Q 484 3953 434 3995 
Q 384 4038 303 4038 
Q 238 4038 106 3984 
L 53 4094 
L 903 4444 
L 1047 4444 
z
" transform="scale(0.015625)"/>
       <path id="TimesNewRomanPSMT-65" d="M 681 1784 
Q 678 1147 991 784 
Q 1303 422 1725 422 
Q 2006 422 2214 576 
Q 2422 731 2563 1106 
L 2659 1044 
Q 2594 616 2278 264 
Q 1963 -88 1488 -88 
Q 972 -88 605 314 
Q 238 716 238 1394 
Q 238 2128 614 2539 
Q 991 2950 1559 2950 
Q 2041 2950 2350 2633 
Q 2659 2316 2659 1784 
L 681 1784 
z
M 681 1966 
L 2006 1966 
Q 1991 2241 1941 2353 
Q 1863 2528 1708 2628 
Q 1553 2728 1384 2728 
Q 1125 2728 920 2526 
Q 716 2325 681 1966 
z
" transform="scale(0.015625)"/>
       <path id="TimesNewRomanPSMT-74" d="M 1031 3803 
L 1031 2863 
L 1700 2863 
L 1700 2644 
L 1031 2644 
L 1031 788 
Q 1031 509 1111 412 
Q 1191 316 1316 316 
Q 1419 316 1516 380 
Q 1613 444 1666 569 
L 1788 569 
Q 1678 263 1478 108 
Q 1278 -47 1066 -47 
Q 922 -47 784 33 
Q 647 113 581 261 
Q 516 409 516 719 
L 516 2644 
L 63 2644 
L 63 2747 
Q 234 2816 414 2980 
Q 594 3144 734 3369 
Q 806 3488 934 3803 
L 1031 3803 
z
" transform="scale(0.015625)"/>
      </defs>
      <use xlink:href="#TimesNewRomanPSMT-4d"/>
      <use xlink:href="#TimesNewRomanPSMT-61" x="88.916016"/>
      <use xlink:href="#TimesNewRomanPSMT-72" x="133.300781"/>
      <use xlink:href="#TimesNewRomanPSMT-6b" x="166.601562"/>
      <use xlink:href="#TimesNewRomanPSMT-65" x="216.601562"/>
      <use xlink:href="#TimesNewRomanPSMT-74" x="260.986328"/>
     </g>
    </g>
   </g>
  </g>
 </g>
 <defs>
  <clipPath id="pb3c577f69e">
   <rect x="90" y="34.56" width="558" height="221.76"/>
  </clipPath>
 </defs>
</svg>
